<?xml version="1.0" encoding="UTF-8" standalone="no"?>
<!DOCTYPE svg PUBLIC "-//W3C//DTD SVG 1.1//EN"
 "http://www.w3.org/Graphics/SVG/1.1/DTD/svg11.dtd">
<!-- Generated by graphviz version 2.43.0 (0)
 -->
<!-- Title: uart_top Pages: 1 -->
<svg width="1181pt" height="844pt"
 viewBox="0.00 0.00 1180.82 844.08" xmlns="http://www.w3.org/2000/svg" xmlns:xlink="http://www.w3.org/1999/xlink">
<g id="graph0" class="graph" transform="scale(1 1) rotate(0) translate(4 840.08)">
<title>uart_top</title>
<polygon fill="white" stroke="transparent" points="-4,4 -4,-840.08 1176.82,-840.08 1176.82,4 -4,4"/>
<g id="clust1" class="cluster">
<title>cluster_uart</title>
<path fill="none" stroke="black" d="M264.45,-104.08C264.45,-104.08 1077.82,-104.08 1077.82,-104.08 1083.82,-104.08 1089.82,-110.08 1089.82,-116.08 1089.82,-116.08 1089.82,-406.08 1089.82,-406.08 1089.82,-412.08 1083.82,-418.08 1077.82,-418.08 1077.82,-418.08 264.45,-418.08 264.45,-418.08 258.45,-418.08 252.45,-412.08 252.45,-406.08 252.45,-406.08 252.45,-116.08 252.45,-116.08 252.45,-110.08 258.45,-104.08 264.45,-104.08"/>
<text text-anchor="middle" x="671.13" y="-402.88" font-family="Times,serif" font-size="14.00">apb_uart_16550</text>
</g>
<g id="clust2" class="cluster">
<title>cluster_legend</title>
<polygon fill="white" stroke="black" points="50.72,-699.08 50.72,-828.08 172.72,-828.08 172.72,-699.08 50.72,-699.08"/>
<text text-anchor="middle" x="111.72" y="-812.88" font-family="Times,serif" font-size="14.00">Legend</text>
</g>
<!-- clk_rst -->
<g id="node1" class="node">
<title>clk_rst</title>
<ellipse fill="lightgreen" stroke="black" cx="111.72" cy="-662.08" rx="50.41" ry="26.74"/>
<text text-anchor="middle" x="111.72" y="-665.88" font-family="Times,serif" font-size="14.00">pclk</text>
<text text-anchor="middle" x="111.72" y="-650.88" font-family="Times,serif" font-size="14.00">presetn</text>
</g>
<!-- apb_if -->
<g id="node9" class="node">
<title>apb_if</title>
<path fill="lightyellow" stroke="black" d="M329.45,-387.08C329.45,-387.08 272.45,-387.08 272.45,-387.08 266.45,-387.08 260.45,-381.08 260.45,-375.08 260.45,-375.08 260.45,-361.08 260.45,-361.08 260.45,-355.08 266.45,-349.08 272.45,-349.08 272.45,-349.08 329.45,-349.08 329.45,-349.08 335.45,-349.08 341.45,-355.08 341.45,-361.08 341.45,-361.08 341.45,-375.08 341.45,-375.08 341.45,-381.08 335.45,-387.08 329.45,-387.08"/>
<text text-anchor="middle" x="300.95" y="-371.88" font-family="Times,serif" font-size="14.00">APB</text>
<text text-anchor="middle" x="300.95" y="-356.88" font-family="Times,serif" font-size="14.00">Interface</text>
</g>
<!-- clk_rst&#45;&gt;apb_if -->
<g id="edge1" class="edge">
<title>clk_rst&#45;&gt;apb_if</title>
<path fill="none" stroke="black" d="M128.85,-636.76C163.79,-581.89 246.25,-452.41 282.42,-395.61"/>
<polygon fill="black" stroke="black" points="285.39,-397.45 287.81,-387.14 279.49,-393.69 285.39,-397.45"/>
</g>
<!-- baud_gen -->
<g id="node11" class="node">
<title>baud_gen</title>
<path fill="lightcyan" stroke="black" d="M779.82,-340.08C779.82,-340.08 714.82,-340.08 714.82,-340.08 708.82,-340.08 702.82,-334.08 702.82,-328.08 702.82,-328.08 702.82,-314.08 702.82,-314.08 702.82,-308.08 708.82,-302.08 714.82,-302.08 714.82,-302.08 779.82,-302.08 779.82,-302.08 785.82,-302.08 791.82,-308.08 791.82,-314.08 791.82,-314.08 791.82,-328.08 791.82,-328.08 791.82,-334.08 785.82,-340.08 779.82,-340.08"/>
<text text-anchor="middle" x="747.32" y="-324.88" font-family="Times,serif" font-size="14.00">Baud</text>
<text text-anchor="middle" x="747.32" y="-309.88" font-family="Times,serif" font-size="14.00">Generator</text>
</g>
<!-- clk_rst&#45;&gt;baud_gen -->
<g id="edge2" class="edge">
<title>clk_rst&#45;&gt;baud_gen</title>
<path fill="none" stroke="black" d="M162.21,-661.43C282.06,-659.4 580.65,-651.63 615.82,-624.08 693.17,-563.51 657.07,-508.33 684.82,-414.08 692.9,-386.65 685.21,-372.92 701.3,-348.45"/>
<polygon fill="black" stroke="black" points="704.33,-350.24 707.41,-340.1 698.68,-346.11 704.33,-350.24"/>
</g>
<!-- tx_engine -->
<g id="node12" class="node">
<title>tx_engine</title>
<path fill="lightcyan" stroke="black" d="M942.82,-253.08C942.82,-253.08 876.82,-253.08 876.82,-253.08 870.82,-253.08 864.82,-247.08 864.82,-241.08 864.82,-241.08 864.82,-227.08 864.82,-227.08 864.82,-221.08 870.82,-215.08 876.82,-215.08 876.82,-215.08 942.82,-215.08 942.82,-215.08 948.82,-215.08 954.82,-221.08 954.82,-227.08 954.82,-227.08 954.82,-241.08 954.82,-241.08 954.82,-247.08 948.82,-253.08 942.82,-253.08"/>
<text text-anchor="middle" x="909.82" y="-237.88" font-family="Times,serif" font-size="14.00">TX Engine</text>
<text text-anchor="middle" x="909.82" y="-222.88" font-family="Times,serif" font-size="14.00">+ FIFO</text>
</g>
<!-- clk_rst&#45;&gt;tx_engine -->
<g id="edge3" class="edge">
<title>clk_rst&#45;&gt;tx_engine</title>
<path fill="none" stroke="black" d="M160.3,-669.59C198.06,-674.9 252.25,-681.08 299.95,-681.08 299.95,-681.08 299.95,-681.08 748.32,-681.08 912.13,-681.08 803.59,-483.41 863.82,-331.08 873.16,-307.45 885.38,-281.36 894.73,-262.2"/>
<polygon fill="black" stroke="black" points="897.92,-263.64 899.19,-253.12 891.64,-260.55 897.92,-263.64"/>
</g>
<!-- rx_engine -->
<g id="node13" class="node">
<title>rx_engine</title>
<path fill="lightcyan" stroke="black" d="M943.82,-378.08C943.82,-378.08 875.82,-378.08 875.82,-378.08 869.82,-378.08 863.82,-372.08 863.82,-366.08 863.82,-366.08 863.82,-352.08 863.82,-352.08 863.82,-346.08 869.82,-340.08 875.82,-340.08 875.82,-340.08 943.82,-340.08 943.82,-340.08 949.82,-340.08 955.82,-346.08 955.82,-352.08 955.82,-352.08 955.82,-366.08 955.82,-366.08 955.82,-372.08 949.82,-378.08 943.82,-378.08"/>
<text text-anchor="middle" x="909.82" y="-362.88" font-family="Times,serif" font-size="14.00">RX Engine</text>
<text text-anchor="middle" x="909.82" y="-347.88" font-family="Times,serif" font-size="14.00">+ FIFO</text>
</g>
<!-- clk_rst&#45;&gt;rx_engine -->
<g id="edge4" class="edge">
<title>clk_rst&#45;&gt;rx_engine</title>
<path fill="none" stroke="black" d="M156.15,-674.87C176.59,-680.93 201.29,-688.31 223.45,-695.08 257.52,-705.51 264.31,-719.08 299.95,-719.08 299.95,-719.08 299.95,-719.08 748.32,-719.08 792.95,-719.08 815.16,-727.51 845.82,-695.08 887.61,-650.88 902.87,-462.05 907.29,-388.54"/>
<polygon fill="black" stroke="black" points="910.81,-388.35 907.89,-378.16 903.82,-387.94 910.81,-388.35"/>
</g>
<!-- apb_in -->
<g id="node2" class="node">
<title>apb_in</title>
<ellipse fill="lightgreen" stroke="black" cx="111.72" cy="-368.08" rx="111.95" ry="69.09"/>
<text text-anchor="middle" x="111.72" y="-401.88" font-family="Times,serif" font-size="14.00">s_apb_psel</text>
<text text-anchor="middle" x="111.72" y="-386.88" font-family="Times,serif" font-size="14.00">s_apb_penable</text>
<text text-anchor="middle" x="111.72" y="-371.88" font-family="Times,serif" font-size="14.00">s_apb_pwrite</text>
<text text-anchor="middle" x="111.72" y="-356.88" font-family="Times,serif" font-size="14.00">s_apb_paddr[11:0]</text>
<text text-anchor="middle" x="111.72" y="-341.88" font-family="Times,serif" font-size="14.00">s_apb_pwdata[31:0]</text>
<text text-anchor="middle" x="111.72" y="-326.88" font-family="Times,serif" font-size="14.00">s_apb_pstrb[3:0]</text>
</g>
<!-- apb_in&#45;&gt;apb_if -->
<g id="edge5" class="edge">
<title>apb_in&#45;&gt;apb_if</title>
<path fill="none" stroke="black" d="M223.53,-368.08C232.74,-368.08 241.73,-368.08 250.11,-368.08"/>
<polygon fill="black" stroke="black" points="250.37,-371.58 260.37,-368.08 250.37,-364.58 250.37,-371.58"/>
</g>
<!-- apb_out -->
<g id="node3" class="node">
<title>apb_out</title>
<ellipse fill="pink" stroke="black" cx="507.63" cy="-463.08" rx="108.38" ry="37.45"/>
<text text-anchor="middle" x="507.63" y="-474.38" font-family="Times,serif" font-size="14.00">s_apb_prdata[31:0]</text>
<text text-anchor="middle" x="507.63" y="-459.38" font-family="Times,serif" font-size="14.00">s_apb_pready</text>
<text text-anchor="middle" x="507.63" y="-444.38" font-family="Times,serif" font-size="14.00">s_apb_pslverr</text>
</g>
<!-- rxd -->
<g id="node4" class="node">
<title>rxd</title>
<ellipse fill="lightgreen" stroke="black" cx="747.32" cy="-765.08" rx="27" ry="18"/>
<text text-anchor="middle" x="747.32" y="-761.38" font-family="Times,serif" font-size="14.00">rxd</text>
</g>
<!-- rxd&#45;&gt;rx_engine -->
<g id="edge14" class="edge">
<title>rxd&#45;&gt;rx_engine</title>
<path fill="none" stroke="black" d="M774.34,-763.75C796.69,-761.14 828.05,-753.75 845.82,-733.08 890.41,-681.23 904.12,-467.27 907.7,-388.43"/>
<polygon fill="black" stroke="black" points="911.21,-388.37 908.14,-378.23 904.21,-388.07 911.21,-388.37"/>
</g>
<!-- txd -->
<g id="node5" class="node">
<title>txd</title>
<ellipse fill="pink" stroke="black" cx="1037.32" cy="-78.08" rx="27" ry="18"/>
<text text-anchor="middle" x="1037.32" y="-74.38" font-family="Times,serif" font-size="14.00">txd</text>
</g>
<!-- modem_in -->
<g id="node6" class="node">
<title>modem_in</title>
<ellipse fill="lightgreen" stroke="black" cx="507.63" cy="-567.08" rx="41.02" ry="48.17"/>
<text text-anchor="middle" x="507.63" y="-585.88" font-family="Times,serif" font-size="14.00">cts_n</text>
<text text-anchor="middle" x="507.63" y="-570.88" font-family="Times,serif" font-size="14.00">dsr_n</text>
<text text-anchor="middle" x="507.63" y="-555.88" font-family="Times,serif" font-size="14.00">dcd_n</text>
<text text-anchor="middle" x="507.63" y="-540.88" font-family="Times,serif" font-size="14.00">ri_n</text>
</g>
<!-- modem_ctrl -->
<g id="node15" class="node">
<title>modem_ctrl</title>
<path fill="lightcyan" stroke="black" d="M770.32,-150.08C770.32,-150.08 724.32,-150.08 724.32,-150.08 718.32,-150.08 712.32,-144.08 712.32,-138.08 712.32,-138.08 712.32,-124.08 712.32,-124.08 712.32,-118.08 718.32,-112.08 724.32,-112.08 724.32,-112.08 770.32,-112.08 770.32,-112.08 776.32,-112.08 782.32,-118.08 782.32,-124.08 782.32,-124.08 782.32,-138.08 782.32,-138.08 782.32,-144.08 776.32,-150.08 770.32,-150.08"/>
<text text-anchor="middle" x="747.32" y="-134.88" font-family="Times,serif" font-size="14.00">Modem</text>
<text text-anchor="middle" x="747.32" y="-119.88" font-family="Times,serif" font-size="14.00">Control</text>
</g>
<!-- modem_in&#45;&gt;modem_ctrl -->
<g id="edge16" class="edge">
<title>modem_in&#45;&gt;modem_ctrl</title>
<path fill="none" stroke="black" d="M547.21,-554.29C569.97,-544.97 597.75,-530.24 615.82,-509.08 675.78,-438.85 661.88,-402.54 684.82,-313.08 697.02,-265.52 685.96,-250.2 702.82,-204.08 708.62,-188.21 717.95,-171.92 726.47,-158.77"/>
<polygon fill="black" stroke="black" points="729.55,-160.47 732.2,-150.21 723.73,-156.58 729.55,-160.47"/>
</g>
<!-- modem_out -->
<g id="node7" class="node">
<title>modem_out</title>
<ellipse fill="pink" stroke="black" cx="909.82" cy="-48.08" rx="45.92" ry="48.17"/>
<text text-anchor="middle" x="909.82" y="-66.88" font-family="Times,serif" font-size="14.00">rts_n</text>
<text text-anchor="middle" x="909.82" y="-51.88" font-family="Times,serif" font-size="14.00">dtr_n</text>
<text text-anchor="middle" x="909.82" y="-36.88" font-family="Times,serif" font-size="14.00">out1_n</text>
<text text-anchor="middle" x="909.82" y="-21.88" font-family="Times,serif" font-size="14.00">out2_n</text>
</g>
<!-- irq_out -->
<g id="node8" class="node">
<title>irq_out</title>
<ellipse fill="pink" stroke="black" cx="1145.82" cy="-196.08" rx="27" ry="18"/>
<text text-anchor="middle" x="1145.82" y="-192.38" font-family="Times,serif" font-size="14.00">irq</text>
</g>
<!-- apb_if&#45;&gt;apb_out -->
<g id="edge6" class="edge">
<title>apb_if&#45;&gt;apb_out</title>
<path fill="none" stroke="black" d="M333.85,-387.25C352.62,-398.13 376.99,-411.63 399.45,-422.08 406.98,-425.59 414.9,-429.04 422.88,-432.36"/>
<polygon fill="black" stroke="black" points="421.68,-435.65 432.26,-436.19 424.33,-429.17 421.68,-435.65"/>
</g>
<!-- reg_file -->
<g id="node10" class="node">
<title>reg_file</title>
<path fill="lightyellow" stroke="black" d="M534.13,-252.58C534.13,-252.58 481.13,-252.58 481.13,-252.58 475.13,-252.58 469.13,-246.58 469.13,-240.58 469.13,-240.58 469.13,-211.58 469.13,-211.58 469.13,-205.58 475.13,-199.58 481.13,-199.58 481.13,-199.58 534.13,-199.58 534.13,-199.58 540.13,-199.58 546.13,-205.58 546.13,-211.58 546.13,-211.58 546.13,-240.58 546.13,-240.58 546.13,-246.58 540.13,-252.58 534.13,-252.58"/>
<text text-anchor="middle" x="507.63" y="-237.38" font-family="Times,serif" font-size="14.00">Register</text>
<text text-anchor="middle" x="507.63" y="-222.38" font-family="Times,serif" font-size="14.00">File</text>
<text text-anchor="middle" x="507.63" y="-207.38" font-family="Times,serif" font-size="14.00">(16550)</text>
</g>
<!-- apb_if&#45;&gt;reg_file -->
<g id="edge7" class="edge">
<title>apb_if&#45;&gt;reg_file</title>
<path fill="none" stroke="black" d="M329.55,-348.93C363.17,-325.61 420.45,-285.87 460.74,-257.92"/>
<polygon fill="black" stroke="black" points="462.84,-260.72 469.06,-252.15 458.85,-254.97 462.84,-260.72"/>
<text text-anchor="middle" x="370.45" y="-330.08" font-family="Times,serif" font-size="10.00">hwif</text>
</g>
<!-- reg_file&#45;&gt;baud_gen -->
<g id="edge8" class="edge">
<title>reg_file&#45;&gt;baud_gen</title>
<path fill="none" stroke="black" d="M546.32,-242.07C571.11,-252.5 604.31,-266.32 633.82,-278.08 653.09,-285.77 674.32,-293.95 693.09,-301.1"/>
<polygon fill="black" stroke="black" points="692.08,-304.45 702.67,-304.73 694.56,-297.91 692.08,-304.45"/>
<text text-anchor="middle" x="659.32" y="-301.08" font-family="Times,serif" font-size="10.00">DLL/DLM</text>
</g>
<!-- reg_file&#45;&gt;tx_engine -->
<g id="edge9" class="edge">
<title>reg_file&#45;&gt;tx_engine</title>
<path fill="none" stroke="black" d="M546.28,-226.84C617.47,-228.26 772.03,-231.35 854.47,-233"/>
<polygon fill="black" stroke="black" points="854.57,-236.5 864.64,-233.2 854.71,-229.5 854.57,-236.5"/>
<text text-anchor="middle" x="747.32" y="-235.08" font-family="Times,serif" font-size="10.00">THR</text>
</g>
<!-- reg_file&#45;&gt;rx_engine -->
<g id="edge10" class="edge">
<title>reg_file&#45;&gt;rx_engine</title>
<path fill="none" stroke="black" d="M538.58,-252.7C574.61,-282.78 638.33,-330.05 702.82,-349.08 752.31,-363.69 811.37,-365.02 853.53,-363.39"/>
<polygon fill="black" stroke="black" points="853.77,-366.89 863.6,-362.94 853.45,-359.89 853.77,-366.89"/>
<text text-anchor="middle" x="747.32" y="-366.08" font-family="Times,serif" font-size="10.00">LCR</text>
</g>
<!-- int_ctrl -->
<g id="node14" class="node">
<title>int_ctrl</title>
<path fill="lightcyan" stroke="black" d="M1069.82,-215.08C1069.82,-215.08 1004.82,-215.08 1004.82,-215.08 998.82,-215.08 992.82,-209.08 992.82,-203.08 992.82,-203.08 992.82,-189.08 992.82,-189.08 992.82,-183.08 998.82,-177.08 1004.82,-177.08 1004.82,-177.08 1069.82,-177.08 1069.82,-177.08 1075.82,-177.08 1081.82,-183.08 1081.82,-189.08 1081.82,-189.08 1081.82,-203.08 1081.82,-203.08 1081.82,-209.08 1075.82,-215.08 1069.82,-215.08"/>
<text text-anchor="middle" x="1037.32" y="-199.88" font-family="Times,serif" font-size="14.00">Interrupt</text>
<text text-anchor="middle" x="1037.32" y="-184.88" font-family="Times,serif" font-size="14.00">Controller</text>
</g>
<!-- reg_file&#45;&gt;int_ctrl -->
<g id="edge23" class="edge">
<title>reg_file&#45;&gt;int_ctrl</title>
<path fill="none" stroke="black" d="M546.22,-212.12C570.83,-203.47 603.87,-192.77 633.82,-186.08 680.07,-175.76 798.61,-159.02 845.82,-163.08 892.48,-167.09 944.87,-176.54 982.88,-184.3"/>
<polygon fill="black" stroke="black" points="982.21,-187.73 992.71,-186.33 983.63,-180.88 982.21,-187.73"/>
<text text-anchor="middle" x="827.82" y="-166.08" font-family="Times,serif" font-size="10.00">IER</text>
</g>
<!-- reg_file&#45;&gt;modem_ctrl -->
<g id="edge19" class="edge">
<title>reg_file&#45;&gt;modem_ctrl</title>
<path fill="none" stroke="black" d="M534.63,-199.45C558.18,-177.32 595.04,-147.38 633.82,-134.08 655.42,-126.68 680.75,-125.41 701.9,-126.22"/>
<polygon fill="black" stroke="black" points="701.73,-129.71 711.91,-126.76 702.11,-122.72 701.73,-129.71"/>
<text text-anchor="middle" x="659.32" y="-137.08" font-family="Times,serif" font-size="10.00">MCR</text>
</g>
<!-- baud_gen&#45;&gt;tx_engine -->
<g id="edge12" class="edge">
<title>baud_gen&#45;&gt;tx_engine</title>
<path fill="none" stroke="black" d="M783.54,-301.99C807.38,-289.07 839.04,-271.91 864.58,-258.07"/>
<polygon fill="black" stroke="black" points="866.56,-260.97 873.68,-253.13 863.22,-254.82 866.56,-260.97"/>
<text text-anchor="middle" x="827.82" y="-289.08" font-family="Times,serif" font-size="10.00">16x clk</text>
</g>
<!-- baud_gen&#45;&gt;rx_engine -->
<g id="edge13" class="edge">
<title>baud_gen&#45;&gt;rx_engine</title>
<path fill="none" stroke="black" d="M792.18,-331.47C811.15,-335.96 833.58,-341.27 853.66,-346.02"/>
<polygon fill="black" stroke="black" points="853.08,-349.48 863.62,-348.38 854.69,-342.67 853.08,-349.48"/>
<text text-anchor="middle" x="827.82" y="-347.08" font-family="Times,serif" font-size="10.00">16x clk</text>
</g>
<!-- tx_engine&#45;&gt;txd -->
<g id="edge15" class="edge">
<title>tx_engine&#45;&gt;txd</title>
<path fill="none" stroke="black" d="M918.47,-214.94C930.57,-186.68 956.53,-133.55 992.82,-100.08 996.27,-96.9 1000.27,-94.06 1004.42,-91.57"/>
<polygon fill="black" stroke="black" points="1006.42,-94.47 1013.58,-86.67 1003.11,-88.3 1006.42,-94.47"/>
</g>
<!-- tx_engine&#45;&gt;int_ctrl -->
<g id="edge21" class="edge">
<title>tx_engine&#45;&gt;int_ctrl</title>
<path fill="none" stroke="black" d="M955.07,-220.69C963.98,-217.99 973.44,-215.12 982.64,-212.34"/>
<polygon fill="black" stroke="black" points="983.92,-215.61 992.47,-209.36 981.89,-208.91 983.92,-215.61"/>
</g>
<!-- rx_engine&#45;&gt;reg_file -->
<g id="edge11" class="edge">
<title>rx_engine&#45;&gt;reg_file</title>
<path fill="none" stroke="black" d="M899.45,-339.9C889.09,-320.91 870.55,-292.62 845.82,-278.08 821.29,-263.66 643.55,-241.59 556.47,-231.48"/>
<polygon fill="black" stroke="black" points="556.65,-227.98 546.31,-230.31 555.85,-234.93 556.65,-227.98"/>
<text text-anchor="middle" x="747.32" y="-267.08" font-family="Times,serif" font-size="10.00">RBR</text>
</g>
<!-- rx_engine&#45;&gt;int_ctrl -->
<g id="edge20" class="edge">
<title>rx_engine&#45;&gt;int_ctrl</title>
<path fill="none" stroke="black" d="M925.46,-340.07C947.6,-311.31 989.71,-256.62 1015.18,-223.55"/>
<polygon fill="black" stroke="black" points="1018.25,-225.29 1021.58,-215.23 1012.7,-221.02 1018.25,-225.29"/>
</g>
<!-- int_ctrl&#45;&gt;irq_out -->
<g id="edge25" class="edge">
<title>int_ctrl&#45;&gt;irq_out</title>
<path fill="none" stroke="black" d="M1081.95,-196.08C1090.77,-196.08 1099.95,-196.08 1108.49,-196.08"/>
<polygon fill="black" stroke="black" points="1108.52,-199.58 1118.52,-196.08 1108.52,-192.58 1108.52,-199.58"/>
</g>
<!-- int_ctrl&#45;&gt;reg_file -->
<g id="edge24" class="edge">
<title>int_ctrl&#45;&gt;reg_file</title>
<path fill="none" stroke="black" d="M992.79,-198.56C894.94,-204.12 658.21,-217.58 556.45,-223.37"/>
<polygon fill="black" stroke="black" points="555.95,-219.89 546.16,-223.95 556.34,-226.88 555.95,-219.89"/>
<text text-anchor="middle" x="827.82" y="-212.08" font-family="Times,serif" font-size="10.00">IIR</text>
</g>
<!-- modem_ctrl&#45;&gt;modem_out -->
<g id="edge17" class="edge">
<title>modem_ctrl&#45;&gt;modem_out</title>
<path fill="none" stroke="black" d="M782.36,-113.48C804.73,-101.91 834.37,-86.58 859.34,-73.67"/>
<polygon fill="black" stroke="black" points="861.03,-76.74 868.3,-69.04 857.81,-70.52 861.03,-76.74"/>
</g>
<!-- modem_ctrl&#45;&gt;reg_file -->
<g id="edge18" class="edge">
<title>modem_ctrl&#45;&gt;reg_file</title>
<path fill="none" stroke="black" d="M712.12,-139.89C689.57,-146.06 659.56,-155 633.82,-165.08 607.19,-175.52 578.44,-189.33 555.22,-201.18"/>
<polygon fill="black" stroke="black" points="553.57,-198.09 546.28,-205.78 556.77,-204.32 553.57,-198.09"/>
<text text-anchor="middle" x="659.32" y="-168.08" font-family="Times,serif" font-size="10.00">MSR</text>
</g>
<!-- modem_ctrl&#45;&gt;int_ctrl -->
<g id="edge22" class="edge">
<title>modem_ctrl&#45;&gt;int_ctrl</title>
<path fill="none" stroke="black" d="M782.44,-130.15C827.77,-129.98 909.71,-133.46 974.82,-157.08 984.54,-160.61 994.32,-165.86 1003.13,-171.37"/>
<polygon fill="black" stroke="black" points="1001.31,-174.36 1011.59,-176.92 1005.15,-168.51 1001.31,-174.36"/>
</g>
<!-- leg_apb -->
<g id="node16" class="node">
<title>leg_apb</title>
<path fill="lightyellow" stroke="black" d="M152.72,-797.08C152.72,-797.08 70.72,-797.08 70.72,-797.08 64.72,-797.08 58.72,-791.08 58.72,-785.08 58.72,-785.08 58.72,-773.08 58.72,-773.08 58.72,-767.08 64.72,-761.08 70.72,-761.08 70.72,-761.08 152.72,-761.08 152.72,-761.08 158.72,-761.08 164.72,-767.08 164.72,-773.08 164.72,-773.08 164.72,-785.08 164.72,-785.08 164.72,-791.08 158.72,-797.08 152.72,-797.08"/>
<text text-anchor="middle" x="111.72" y="-775.38" font-family="Times,serif" font-size="14.00">APB Domain</text>
</g>
<!-- leg_uart -->
<g id="node17" class="node">
<title>leg_uart</title>
<path fill="lightcyan" stroke="black" d="M149.72,-743.08C149.72,-743.08 73.72,-743.08 73.72,-743.08 67.72,-743.08 61.72,-737.08 61.72,-731.08 61.72,-731.08 61.72,-719.08 61.72,-719.08 61.72,-713.08 67.72,-707.08 73.72,-707.08 73.72,-707.08 149.72,-707.08 149.72,-707.08 155.72,-707.08 161.72,-713.08 161.72,-719.08 161.72,-719.08 161.72,-731.08 161.72,-731.08 161.72,-737.08 155.72,-743.08 149.72,-743.08"/>
<text text-anchor="middle" x="111.72" y="-721.38" font-family="Times,serif" font-size="14.00">UART Logic</text>
</g>
</g>
</svg>
