<?xml version="1.0" encoding="UTF-8" standalone="no"?>
<!DOCTYPE svg PUBLIC "-//W3C//DTD SVG 1.1//EN"
 "http://www.w3.org/Graphics/SVG/1.1/DTD/svg11.dtd">
<!-- Generated by graphviz version 2.43.0 (0)
 -->
<!-- Title: uart_interfaces Pages: 1 -->
<svg width="540pt" height="404pt"
 viewBox="0.00 0.00 540.00 404.00" xmlns="http://www.w3.org/2000/svg" xmlns:xlink="http://www.w3.org/1999/xlink">
<g id="graph0" class="graph" transform="scale(1 1) rotate(0) translate(4 400)">
<title>uart_interfaces</title>
<polygon fill="white" stroke="transparent" points="-4,4 -4,-400 536,-400 536,4 -4,4"/>
<g id="clust1" class="cluster">
<title>cluster_system</title>
<polygon fill="lightgreen" stroke="black" points="51.5,-199 51.5,-328 138.5,-328 138.5,-199 51.5,-199"/>
<text text-anchor="middle" x="95" y="-312.8" font-family="Times,serif" font-size="14.00">System</text>
</g>
<g id="clust2" class="cluster">
<title>cluster_apb</title>
<polygon fill="lightyellow" stroke="black" points="8,-8 8,-191 182,-191 182,-8 8,-8"/>
<text text-anchor="middle" x="95" y="-175.8" font-family="Times,serif" font-size="14.00">APB Bus</text>
</g>
<g id="clust3" class="cluster">
<title>cluster_serial</title>
<polygon fill="pink" stroke="black" points="420,-311 420,-388 490,-388 490,-311 420,-311"/>
<text text-anchor="middle" x="455" y="-372.8" font-family="Times,serif" font-size="14.00">Serial</text>
</g>
<g id="clust4" class="cluster">
<title>cluster_modem</title>
<polygon fill="pink" stroke="black" points="386,-170 386,-303 524,-303 524,-170 386,-170"/>
<text text-anchor="middle" x="455" y="-287.8" font-family="Times,serif" font-size="14.00">Modem</text>
</g>
<g id="clust5" class="cluster">
<title>cluster_int</title>
<polygon fill="pink" stroke="black" points="414,-87 414,-162 497,-162 497,-87 414,-87"/>
<text text-anchor="middle" x="455.5" y="-146.8" font-family="Times,serif" font-size="14.00">Interrupt</text>
</g>
<!-- clocks -->
<g id="node1" class="node">
<title>clocks</title>
<path fill="lightblue" stroke="black" d="M110,-297C110,-297 80,-297 80,-297 74,-297 68,-291 68,-285 68,-285 68,-273 68,-273 68,-267 74,-261 80,-261 80,-261 110,-261 110,-261 116,-261 122,-267 122,-273 122,-273 122,-285 122,-285 122,-291 116,-297 110,-297"/>
<text text-anchor="middle" x="95" y="-275.3" font-family="Times,serif" font-size="14.00">pclk</text>
</g>
<!-- uart -->
<g id="node4" class="node">
<title>uart</title>
<polygon fill="lightcyan" stroke="black" points="358,-259.5 214,-259.5 210,-255.5 210,-190.5 354,-190.5 358,-194.5 358,-259.5"/>
<polyline fill="none" stroke="black" points="354,-255.5 210,-255.5 "/>
<polyline fill="none" stroke="black" points="354,-255.5 354,-190.5 "/>
<polyline fill="none" stroke="black" points="354,-255.5 358,-259.5 "/>
<text text-anchor="middle" x="284" y="-244.3" font-family="Times,serif" font-size="14.00">apb_uart_16550</text>
<text text-anchor="middle" x="284" y="-213.3" font-family="Times,serif" font-size="14.00">16550&#45;Compatible</text>
<text text-anchor="middle" x="284" y="-198.3" font-family="Times,serif" font-size="14.00">UART</text>
</g>
<!-- clocks&#45;&gt;uart -->
<g id="edge1" class="edge">
<title>clocks&#45;&gt;uart</title>
<path fill="none" stroke="black" d="M122,-271.49C142.29,-265.63 171.66,-257.15 199.77,-249.03"/>
<polygon fill="black" stroke="black" points="201.01,-252.32 209.65,-246.18 199.07,-245.59 201.01,-252.32"/>
</g>
<!-- resets -->
<g id="node2" class="node">
<title>resets</title>
<path fill="lightblue" stroke="black" d="M118.5,-243C118.5,-243 71.5,-243 71.5,-243 65.5,-243 59.5,-237 59.5,-231 59.5,-231 59.5,-219 59.5,-219 59.5,-213 65.5,-207 71.5,-207 71.5,-207 118.5,-207 118.5,-207 124.5,-207 130.5,-213 130.5,-219 130.5,-219 130.5,-231 130.5,-231 130.5,-237 124.5,-243 118.5,-243"/>
<text text-anchor="middle" x="95" y="-221.3" font-family="Times,serif" font-size="14.00">presetn</text>
</g>
<!-- resets&#45;&gt;uart -->
<g id="edge2" class="edge">
<title>resets&#45;&gt;uart</title>
<path fill="none" stroke="black" d="M130.74,-225C150.14,-225 175.23,-225 199.43,-225"/>
<polygon fill="black" stroke="black" points="199.72,-228.5 209.72,-225 199.72,-221.5 199.72,-228.5"/>
</g>
<!-- apb_sigs -->
<g id="node3" class="node">
<title>apb_sigs</title>
<path fill="lightblue" stroke="black" d="M162,-159.5C162,-159.5 28,-159.5 28,-159.5 22,-159.5 16,-153.5 16,-147.5 16,-147.5 16,-28.5 16,-28.5 16,-22.5 22,-16.5 28,-16.5 28,-16.5 162,-16.5 162,-16.5 168,-16.5 174,-22.5 174,-28.5 174,-28.5 174,-147.5 174,-147.5 174,-153.5 168,-159.5 162,-159.5"/>
<text text-anchor="middle" x="95" y="-144.3" font-family="Times,serif" font-size="14.00">s_apb_psel</text>
<text text-anchor="middle" x="95" y="-129.3" font-family="Times,serif" font-size="14.00">s_apb_penable</text>
<text text-anchor="middle" x="95" y="-114.3" font-family="Times,serif" font-size="14.00">s_apb_pwrite</text>
<text text-anchor="middle" x="95" y="-99.3" font-family="Times,serif" font-size="14.00">s_apb_paddr[11:0]</text>
<text text-anchor="middle" x="95" y="-84.3" font-family="Times,serif" font-size="14.00">s_apb_pwdata[31:0]</text>
<text text-anchor="middle" x="95" y="-69.3" font-family="Times,serif" font-size="14.00">s_apb_pstrb[3:0]</text>
<text text-anchor="middle" x="95" y="-54.3" font-family="Times,serif" font-size="14.00">s_apb_prdata[31:0]</text>
<text text-anchor="middle" x="95" y="-39.3" font-family="Times,serif" font-size="14.00">s_apb_pready</text>
<text text-anchor="middle" x="95" y="-24.3" font-family="Times,serif" font-size="14.00">s_apb_pslverr</text>
</g>
<!-- apb_sigs&#45;&gt;uart -->
<g id="edge3" class="edge">
<title>apb_sigs&#45;&gt;uart</title>
<path fill="none" stroke="black" d="M182.6,-151.45C197.91,-162.66 213.47,-174.06 227.62,-184.43"/>
<polygon fill="black" stroke="black" points="184.36,-148.39 174.22,-145.31 180.22,-154.04 184.36,-148.39"/>
<polygon fill="black" stroke="black" points="225.64,-187.32 235.78,-190.4 229.78,-181.67 225.64,-187.32"/>
</g>
<!-- serial -->
<g id="node5" class="node">
<title>serial</title>
<path fill="lightblue" stroke="black" d="M470,-357C470,-357 440,-357 440,-357 434,-357 428,-351 428,-345 428,-345 428,-331 428,-331 428,-325 434,-319 440,-319 440,-319 470,-319 470,-319 476,-319 482,-325 482,-331 482,-331 482,-345 482,-345 482,-351 476,-357 470,-357"/>
<text text-anchor="middle" x="455" y="-341.8" font-family="Times,serif" font-size="14.00">txd</text>
<text text-anchor="middle" x="455" y="-326.8" font-family="Times,serif" font-size="14.00">rxd</text>
</g>
<!-- uart&#45;&gt;serial -->
<g id="edge4" class="edge">
<title>uart&#45;&gt;serial</title>
<path fill="none" stroke="black" d="M331.01,-266.48C347.65,-280.34 367.03,-295.24 386,-307 396.05,-313.23 407.56,-318.95 418.21,-323.74"/>
<polygon fill="black" stroke="black" points="332.97,-263.55 323.07,-259.77 328.45,-268.9 332.97,-263.55"/>
<polygon fill="black" stroke="black" points="417.13,-327.08 427.7,-327.86 419.92,-320.66 417.13,-327.08"/>
</g>
<!-- modem_out -->
<g id="node6" class="node">
<title>modem_out</title>
<path fill="lightblue" stroke="black" d="M504,-272C504,-272 406,-272 406,-272 400,-272 394,-266 394,-260 394,-260 394,-246 394,-246 394,-240 400,-234 406,-234 406,-234 504,-234 504,-234 510,-234 516,-240 516,-246 516,-246 516,-260 516,-260 516,-266 510,-272 504,-272"/>
<text text-anchor="middle" x="455" y="-256.8" font-family="Times,serif" font-size="14.00">rts_n, dtr_n</text>
<text text-anchor="middle" x="455" y="-241.8" font-family="Times,serif" font-size="14.00">out1_n, out2_n</text>
</g>
<!-- uart&#45;&gt;modem_out -->
<g id="edge5" class="edge">
<title>uart&#45;&gt;modem_out</title>
<path fill="none" stroke="black" d="M358.14,-237.12C366.73,-238.54 375.49,-239.99 384.03,-241.41"/>
<polygon fill="black" stroke="black" points="383.51,-244.87 393.95,-243.05 384.66,-237.96 383.51,-244.87"/>
</g>
<!-- irq -->
<g id="node8" class="node">
<title>irq</title>
<path fill="lightblue" stroke="black" d="M470,-131C470,-131 440,-131 440,-131 434,-131 428,-125 428,-119 428,-119 428,-107 428,-107 428,-101 434,-95 440,-95 440,-95 470,-95 470,-95 476,-95 482,-101 482,-107 482,-107 482,-119 482,-119 482,-125 476,-131 470,-131"/>
<text text-anchor="middle" x="455" y="-109.3" font-family="Times,serif" font-size="14.00">irq</text>
</g>
<!-- uart&#45;&gt;irq -->
<g id="edge7" class="edge">
<title>uart&#45;&gt;irq</title>
<path fill="none" stroke="black" d="M337.08,-190.48C363.86,-172.74 395.76,-151.6 419.46,-135.89"/>
<polygon fill="black" stroke="black" points="421.4,-138.8 427.8,-130.36 417.53,-132.97 421.4,-138.8"/>
</g>
<!-- modem_in -->
<g id="node7" class="node">
<title>modem_in</title>
<path fill="lightblue" stroke="black" d="M493.5,-216C493.5,-216 416.5,-216 416.5,-216 410.5,-216 404.5,-210 404.5,-204 404.5,-204 404.5,-190 404.5,-190 404.5,-184 410.5,-178 416.5,-178 416.5,-178 493.5,-178 493.5,-178 499.5,-178 505.5,-184 505.5,-190 505.5,-190 505.5,-204 505.5,-204 505.5,-210 499.5,-216 493.5,-216"/>
<text text-anchor="middle" x="455" y="-200.8" font-family="Times,serif" font-size="14.00">cts_n, dsr_n</text>
<text text-anchor="middle" x="455" y="-185.8" font-family="Times,serif" font-size="14.00">dcd_n, ri_n</text>
</g>
<!-- modem_in&#45;&gt;uart -->
<g id="edge6" class="edge">
<title>modem_in&#45;&gt;uart</title>
<path fill="none" stroke="black" d="M404.12,-205.26C392.75,-207.15 380.36,-209.2 368.01,-211.25"/>
<polygon fill="black" stroke="black" points="367.44,-207.79 358.14,-212.88 368.58,-214.7 367.44,-207.79"/>
</g>
</g>
</svg>
