<?xml version="1.0" encoding="UTF-8" standalone="no"?>
<!DOCTYPE svg PUBLIC "-//W3C//DTD SVG 1.1//EN"
 "http://www.w3.org/Graphics/SVG/1.1/DTD/svg11.dtd">
<!-- Generated by graphviz version 2.43.0 (0)
 -->
<!-- Title: uart_rx_engine Pages: 1 -->
<svg width="1257pt" height="193pt"
 viewBox="0.00 0.00 1257.39 193.00" xmlns="http://www.w3.org/2000/svg" xmlns:xlink="http://www.w3.org/1999/xlink">
<g id="graph0" class="graph" transform="scale(1 1) rotate(0) translate(4 189)">
<title>uart_rx_engine</title>
<polygon fill="white" stroke="transparent" points="-4,4 -4,-189 1253.39,-189 1253.39,4 -4,4"/>
<g id="clust1" class="cluster">
<title>cluster_deserializer</title>
<polygon fill="none" stroke="black" stroke-dasharray="5,2" points="294.78,-44 294.78,-177 778.87,-177 778.87,-44 294.78,-44"/>
<text text-anchor="middle" x="536.82" y="-161.8" font-family="Times,serif" font-size="14.00">RX Deserializer</text>
</g>
<!-- rxd -->
<g id="node1" class="node">
<title>rxd</title>
<ellipse fill="lightgreen" stroke="black" cx="31.2" cy="-127" rx="31.4" ry="18"/>
<text text-anchor="middle" x="31.2" y="-123.3" font-family="Times,serif" font-size="14.00">RXD</text>
</g>
<!-- sync -->
<g id="node4" class="node">
<title>sync</title>
<path fill="lightyellow" stroke="black" d="M226.09,-146C226.09,-146 139.09,-146 139.09,-146 133.09,-146 127.09,-140 127.09,-134 127.09,-134 127.09,-120 127.09,-120 127.09,-114 133.09,-108 139.09,-108 139.09,-108 226.09,-108 226.09,-108 232.09,-108 238.09,-114 238.09,-120 238.09,-120 238.09,-134 238.09,-134 238.09,-140 232.09,-146 226.09,-146"/>
<text text-anchor="middle" x="182.59" y="-130.8" font-family="Times,serif" font-size="14.00">2&#45;Stage</text>
<text text-anchor="middle" x="182.59" y="-115.8" font-family="Times,serif" font-size="14.00">Synchronizer</text>
</g>
<!-- rxd&#45;&gt;sync -->
<g id="edge1" class="edge">
<title>rxd&#45;&gt;sync</title>
<path fill="none" stroke="black" d="M62.43,-127C78.11,-127 97.9,-127 116.83,-127"/>
<polygon fill="black" stroke="black" points="116.92,-130.5 126.92,-127 116.92,-123.5 116.92,-130.5"/>
</g>
<!-- lcr -->
<g id="node2" class="node">
<title>lcr</title>
<ellipse fill="lightgreen" stroke="black" cx="481.82" cy="-18" rx="63.09" ry="18"/>
<text text-anchor="middle" x="481.82" y="-14.3" font-family="Times,serif" font-size="14.00">LCR Config</text>
</g>
<!-- shift_reg -->
<g id="node7" class="node">
<title>shift_reg</title>
<path fill="lightcyan" stroke="black" d="M646.87,-115C646.87,-115 593.87,-115 593.87,-115 587.87,-115 581.87,-109 581.87,-103 581.87,-103 581.87,-89 581.87,-89 581.87,-83 587.87,-77 593.87,-77 593.87,-77 646.87,-77 646.87,-77 652.87,-77 658.87,-83 658.87,-89 658.87,-89 658.87,-103 658.87,-103 658.87,-109 652.87,-115 646.87,-115"/>
<text text-anchor="middle" x="620.37" y="-99.8" font-family="Times,serif" font-size="14.00">Shift</text>
<text text-anchor="middle" x="620.37" y="-84.8" font-family="Times,serif" font-size="14.00">Register</text>
</g>
<!-- lcr&#45;&gt;shift_reg -->
<g id="edge7" class="edge">
<title>lcr&#45;&gt;shift_reg</title>
<path fill="none" stroke="black" d="M526.78,-30.64C533.09,-33.28 539.31,-36.39 544.87,-40 554.62,-46.34 553.94,-51.54 562.87,-59 567.83,-63.14 573.27,-67.22 578.76,-71.06"/>
<polygon fill="black" stroke="black" points="577.12,-74.18 587.36,-76.89 581.04,-68.38 577.12,-74.18"/>
</g>
<!-- parity_chk -->
<g id="node8" class="node">
<title>parity_chk</title>
<path fill="lightcyan" stroke="black" d="M758.87,-90C758.87,-90 707.87,-90 707.87,-90 701.87,-90 695.87,-84 695.87,-78 695.87,-78 695.87,-64 695.87,-64 695.87,-58 701.87,-52 707.87,-52 707.87,-52 758.87,-52 758.87,-52 764.87,-52 770.87,-58 770.87,-64 770.87,-64 770.87,-78 770.87,-78 770.87,-84 764.87,-90 758.87,-90"/>
<text text-anchor="middle" x="733.37" y="-74.8" font-family="Times,serif" font-size="14.00">Parity</text>
<text text-anchor="middle" x="733.37" y="-59.8" font-family="Times,serif" font-size="14.00">Checker</text>
</g>
<!-- lcr&#45;&gt;parity_chk -->
<g id="edge8" class="edge">
<title>lcr&#45;&gt;parity_chk</title>
<path fill="none" stroke="black" d="M533.02,-28.66C577.56,-38.12 642.12,-51.83 685.59,-61.06"/>
<polygon fill="black" stroke="black" points="685.11,-64.54 695.62,-63.19 686.56,-57.69 685.11,-64.54"/>
</g>
<!-- baud_clk -->
<g id="node3" class="node">
<title>baud_clk</title>
<ellipse fill="lightgreen" stroke="black" cx="182.59" cy="-72" rx="83.39" ry="18"/>
<text text-anchor="middle" x="182.59" y="-68.3" font-family="Times,serif" font-size="14.00">16x Baud Clock</text>
</g>
<!-- start_det -->
<g id="node5" class="node">
<title>start_det</title>
<path fill="lightcyan" stroke="black" d="M369.78,-138C369.78,-138 314.78,-138 314.78,-138 308.78,-138 302.78,-132 302.78,-126 302.78,-126 302.78,-112 302.78,-112 302.78,-106 308.78,-100 314.78,-100 314.78,-100 369.78,-100 369.78,-100 375.78,-100 381.78,-106 381.78,-112 381.78,-112 381.78,-126 381.78,-126 381.78,-132 375.78,-138 369.78,-138"/>
<text text-anchor="middle" x="342.28" y="-122.8" font-family="Times,serif" font-size="14.00">Start Bit</text>
<text text-anchor="middle" x="342.28" y="-107.8" font-family="Times,serif" font-size="14.00">Detector</text>
</g>
<!-- baud_clk&#45;&gt;start_det -->
<g id="edge3" class="edge">
<title>baud_clk&#45;&gt;start_det</title>
<path fill="none" stroke="black" d="M232.19,-86.49C251.45,-92.23 273.56,-98.82 292.81,-104.55"/>
<polygon fill="black" stroke="black" points="292.01,-107.97 302.59,-107.47 294,-101.26 292.01,-107.97"/>
</g>
<!-- sampler -->
<g id="node6" class="node">
<title>sampler</title>
<path fill="lightcyan" stroke="black" d="M508.32,-115C508.32,-115 455.32,-115 455.32,-115 449.32,-115 443.32,-109 443.32,-103 443.32,-103 443.32,-89 443.32,-89 443.32,-83 449.32,-77 455.32,-77 455.32,-77 508.32,-77 508.32,-77 514.32,-77 520.32,-83 520.32,-89 520.32,-89 520.32,-103 520.32,-103 520.32,-109 514.32,-115 508.32,-115"/>
<text text-anchor="middle" x="481.82" y="-99.8" font-family="Times,serif" font-size="14.00">Mid&#45;bit</text>
<text text-anchor="middle" x="481.82" y="-84.8" font-family="Times,serif" font-size="14.00">Sampler</text>
</g>
<!-- baud_clk&#45;&gt;sampler -->
<g id="edge4" class="edge">
<title>baud_clk&#45;&gt;sampler</title>
<path fill="none" stroke="black" d="M260.91,-78.24C315.44,-82.65 386.75,-88.4 433.16,-92.15"/>
<polygon fill="black" stroke="black" points="433,-95.65 443.25,-92.97 433.56,-88.67 433,-95.65"/>
</g>
<!-- sync&#45;&gt;start_det -->
<g id="edge2" class="edge">
<title>sync&#45;&gt;start_det</title>
<path fill="none" stroke="black" d="M238.3,-124.22C255.83,-123.33 275.13,-122.36 292.23,-121.49"/>
<polygon fill="black" stroke="black" points="292.75,-124.97 302.56,-120.96 292.39,-117.98 292.75,-124.97"/>
</g>
<!-- start_det&#45;&gt;sampler -->
<g id="edge5" class="edge">
<title>start_det&#45;&gt;sampler</title>
<path fill="none" stroke="black" d="M381.96,-112.53C397.75,-109.89 416.18,-106.81 432.82,-104.03"/>
<polygon fill="black" stroke="black" points="433.62,-107.44 442.91,-102.34 432.47,-100.54 433.62,-107.44"/>
</g>
<!-- sampler&#45;&gt;shift_reg -->
<g id="edge6" class="edge">
<title>sampler&#45;&gt;shift_reg</title>
<path fill="none" stroke="black" d="M520.5,-96C536.32,-96 554.9,-96 571.66,-96"/>
<polygon fill="black" stroke="black" points="571.82,-99.5 581.82,-96 571.82,-92.5 571.82,-99.5"/>
</g>
<!-- shift_reg&#45;&gt;parity_chk -->
<g id="edge9" class="edge">
<title>shift_reg&#45;&gt;parity_chk</title>
<path fill="none" stroke="black" d="M658.95,-87.54C667.54,-85.6 676.77,-83.52 685.69,-81.51"/>
<polygon fill="black" stroke="black" points="686.59,-84.9 695.58,-79.29 685.06,-78.07 686.59,-84.9"/>
</g>
<!-- frame_chk -->
<g id="node9" class="node">
<title>frame_chk</title>
<path fill="lightcyan" stroke="black" d="M758.87,-146C758.87,-146 707.87,-146 707.87,-146 701.87,-146 695.87,-140 695.87,-134 695.87,-134 695.87,-120 695.87,-120 695.87,-114 701.87,-108 707.87,-108 707.87,-108 758.87,-108 758.87,-108 764.87,-108 770.87,-114 770.87,-120 770.87,-120 770.87,-134 770.87,-134 770.87,-140 764.87,-146 758.87,-146"/>
<text text-anchor="middle" x="733.37" y="-130.8" font-family="Times,serif" font-size="14.00">Frame</text>
<text text-anchor="middle" x="733.37" y="-115.8" font-family="Times,serif" font-size="14.00">Checker</text>
</g>
<!-- shift_reg&#45;&gt;frame_chk -->
<g id="edge10" class="edge">
<title>shift_reg&#45;&gt;frame_chk</title>
<path fill="none" stroke="black" d="M658.95,-106.5C667.54,-108.89 676.77,-111.47 685.69,-113.96"/>
<polygon fill="black" stroke="black" points="685.01,-117.41 695.58,-116.73 686.89,-110.66 685.01,-117.41"/>
</g>
<!-- rx_fifo -->
<g id="node10" class="node">
<title>rx_fifo</title>
<path fill="lightyellow" stroke="black" d="M969.87,-153.5C969.87,-153.5 850.87,-153.5 850.87,-153.5 844.87,-153.5 838.87,-147.5 838.87,-141.5 838.87,-141.5 838.87,-112.5 838.87,-112.5 838.87,-106.5 844.87,-100.5 850.87,-100.5 850.87,-100.5 969.87,-100.5 969.87,-100.5 975.87,-100.5 981.87,-106.5 981.87,-112.5 981.87,-112.5 981.87,-141.5 981.87,-141.5 981.87,-147.5 975.87,-153.5 969.87,-153.5"/>
<text text-anchor="middle" x="910.37" y="-138.3" font-family="Times,serif" font-size="14.00">RX FIFO</text>
<text text-anchor="middle" x="910.37" y="-123.3" font-family="Times,serif" font-size="14.00">16 x 11 bits</text>
<text text-anchor="middle" x="910.37" y="-108.3" font-family="Times,serif" font-size="14.00">(8 data + 3 error)</text>
</g>
<!-- shift_reg&#45;&gt;rx_fifo -->
<g id="edge11" class="edge">
<title>shift_reg&#45;&gt;rx_fifo</title>
<path fill="none" stroke="black" d="M638.5,-115.22C652.37,-129.25 673.27,-147.14 695.87,-155 738.27,-169.76 787.88,-164.51 828.59,-154.77"/>
<polygon fill="black" stroke="black" points="829.64,-158.12 838.48,-152.28 827.92,-151.33 829.64,-158.12"/>
<text text-anchor="middle" x="733.37" y="-167" font-family="Times,serif" font-size="10.00">data</text>
</g>
<!-- parity_chk&#45;&gt;rx_fifo -->
<g id="edge12" class="edge">
<title>parity_chk&#45;&gt;rx_fifo</title>
<path fill="none" stroke="black" d="M771.05,-82.74C788.01,-88.17 808.87,-94.84 829.19,-101.34"/>
<polygon fill="black" stroke="black" points="828.2,-104.7 838.79,-104.42 830.33,-98.03 828.2,-104.7"/>
<text text-anchor="middle" x="804.87" y="-100" font-family="Times,serif" font-size="10.00">PE</text>
</g>
<!-- frame_chk&#45;&gt;rx_fifo -->
<g id="edge13" class="edge">
<title>frame_chk&#45;&gt;rx_fifo</title>
<path fill="none" stroke="black" d="M771.05,-127C787.86,-127 808.49,-127 828.64,-127"/>
<polygon fill="black" stroke="black" points="828.79,-130.5 838.79,-127 828.79,-123.5 828.79,-130.5"/>
<text text-anchor="middle" x="804.87" y="-130" font-family="Times,serif" font-size="10.00">FE, BI</text>
</g>
<!-- rbr_read -->
<g id="node11" class="node">
<title>rbr_read</title>
<ellipse fill="pink" stroke="black" cx="1134.13" cy="-159" rx="57.69" ry="18"/>
<text text-anchor="middle" x="1134.13" y="-155.3" font-family="Times,serif" font-size="14.00">RBR Read</text>
</g>
<!-- rx_fifo&#45;&gt;rbr_read -->
<g id="edge14" class="edge">
<title>rx_fifo&#45;&gt;rbr_read</title>
<path fill="none" stroke="black" d="M982.14,-137.21C1010.82,-141.35 1043.63,-146.09 1071.32,-150.08"/>
<polygon fill="black" stroke="black" points="1070.88,-153.55 1081.28,-151.52 1071.88,-146.63 1070.88,-153.55"/>
</g>
<!-- lsr_status -->
<g id="node12" class="node">
<title>lsr_status</title>
<ellipse fill="pink" stroke="black" cx="1134.13" cy="-96" rx="115.02" ry="26.74"/>
<text text-anchor="middle" x="1134.13" y="-99.8" font-family="Times,serif" font-size="14.00">LSR Status</text>
<text text-anchor="middle" x="1134.13" y="-84.8" font-family="Times,serif" font-size="14.00">(DR, OE, PE, FE, BI)</text>
</g>
<!-- rx_fifo&#45;&gt;lsr_status -->
<g id="edge15" class="edge">
<title>rx_fifo&#45;&gt;lsr_status</title>
<path fill="none" stroke="black" d="M982.14,-117.11C995.74,-115.21 1010.26,-113.18 1024.73,-111.15"/>
<polygon fill="black" stroke="black" points="1025.31,-114.61 1034.73,-109.76 1024.34,-107.67 1025.31,-114.61"/>
</g>
</g>
</svg>
