<?xml version="1.0" encoding="UTF-8" standalone="no"?>
<!DOCTYPE svg PUBLIC "-//W3C//DTD SVG 1.1//EN"
 "http://www.w3.org/Graphics/SVG/1.1/DTD/svg11.dtd">
<!-- Generated by graphviz version 2.43.0 (0)
 -->
<!-- Title: interrupt_handling Pages: 1 -->
<svg width="591pt" height="1360pt"
 viewBox="0.00 0.00 591.00 1359.74" xmlns="http://www.w3.org/2000/svg" xmlns:xlink="http://www.w3.org/1999/xlink">
<g id="graph0" class="graph" transform="scale(1 1) rotate(0) translate(4 1355.74)">
<title>interrupt_handling</title>
<polygon fill="white" stroke="transparent" points="-4,4 -4,-1355.74 587,-1355.74 587,4 -4,4"/>
<!-- start -->
<g id="node1" class="node">
<title>start</title>
<ellipse fill="red" stroke="black" cx="319.5" cy="-1333.74" rx="74.19" ry="18"/>
<text text-anchor="middle" x="319.5" y="-1330.04" font-family="Arial" font-size="14.00" fill="white">Interrupt Occurs</text>
</g>
<!-- isr_entry -->
<g id="node3" class="node">
<title>isr_entry</title>
<path fill="lightyellow" stroke="black" d="M395,-1278.74C395,-1278.74 244,-1278.74 244,-1278.74 238,-1278.74 232,-1272.74 232,-1266.74 232,-1266.74 232,-1252.74 232,-1252.74 232,-1246.74 238,-1240.74 244,-1240.74 244,-1240.74 395,-1240.74 395,-1240.74 401,-1240.74 407,-1246.74 407,-1252.74 407,-1252.74 407,-1266.74 407,-1266.74 407,-1272.74 401,-1278.74 395,-1278.74"/>
<text text-anchor="middle" x="319.5" y="-1263.54" font-family="Arial" font-size="14.00">Enter ISR</text>
<text text-anchor="middle" x="319.5" y="-1248.54" font-family="Arial" font-size="14.00">(Interrupt Service Routine)</text>
</g>
<!-- start&#45;&gt;isr_entry -->
<g id="edge1" class="edge">
<title>start&#45;&gt;isr_entry</title>
<path fill="none" stroke="black" d="M319.5,-1315.68C319.5,-1307.73 319.5,-1298.05 319.5,-1289.05"/>
<polygon fill="black" stroke="black" points="323,-1288.94 319.5,-1278.94 316,-1288.94 323,-1288.94"/>
</g>
<!-- end -->
<g id="node2" class="node">
<title>end</title>
<ellipse fill="lightgreen" stroke="black" cx="332.5" cy="-26.87" rx="83.38" ry="26.74"/>
<text text-anchor="middle" x="332.5" y="-30.67" font-family="Arial" font-size="14.00">Interrupt Cleared</text>
<text text-anchor="middle" x="332.5" y="-15.67" font-family="Arial" font-size="14.00">Return from ISR</text>
</g>
<!-- read_status -->
<g id="node4" class="node">
<title>read_status</title>
<path fill="lightblue" stroke="black" d="M412.5,-1203.74C412.5,-1203.74 226.5,-1203.74 226.5,-1203.74 220.5,-1203.74 214.5,-1197.74 214.5,-1191.74 214.5,-1191.74 214.5,-1177.74 214.5,-1177.74 214.5,-1171.74 220.5,-1165.74 226.5,-1165.74 226.5,-1165.74 412.5,-1165.74 412.5,-1165.74 418.5,-1165.74 424.5,-1171.74 424.5,-1177.74 424.5,-1177.74 424.5,-1191.74 424.5,-1191.74 424.5,-1197.74 418.5,-1203.74 412.5,-1203.74"/>
<text text-anchor="middle" x="319.5" y="-1188.54" font-family="Arial" font-size="14.00">Read Status Register</text>
<text text-anchor="middle" x="319.5" y="-1173.54" font-family="Arial" font-size="14.00">status = READ(HPET_STATUS)</text>
</g>
<!-- isr_entry&#45;&gt;read_status -->
<g id="edge2" class="edge">
<title>isr_entry&#45;&gt;read_status</title>
<path fill="none" stroke="black" d="M319.5,-1240.7C319.5,-1232.62 319.5,-1222.92 319.5,-1213.92"/>
<polygon fill="black" stroke="black" points="323,-1213.83 319.5,-1203.83 316,-1213.83 323,-1213.83"/>
</g>
<!-- check_timers -->
<g id="node5" class="node">
<title>check_timers</title>
<path fill="lightyellow" stroke="black" d="M228.61,-1126.11C228.61,-1126.11 121.01,-1111.37 121.01,-1111.37 115.07,-1110.55 115.07,-1108.93 121.01,-1108.11 121.01,-1108.11 228.61,-1093.37 228.61,-1093.37 234.56,-1092.55 246.44,-1092.55 252.39,-1093.37 252.39,-1093.37 359.99,-1108.11 359.99,-1108.11 365.93,-1108.93 365.93,-1110.55 359.99,-1111.37 359.99,-1111.37 252.39,-1126.11 252.39,-1126.11 246.44,-1126.93 234.56,-1126.93 228.61,-1126.11"/>
<text text-anchor="middle" x="240.5" y="-1106.04" font-family="Arial" font-size="14.00">Which timer(s) fired?</text>
</g>
<!-- read_status&#45;&gt;check_timers -->
<g id="edge3" class="edge">
<title>read_status&#45;&gt;check_timers</title>
<path fill="none" stroke="black" d="M299.97,-1165.7C289.13,-1155.68 275.57,-1143.14 264.13,-1132.58"/>
<polygon fill="black" stroke="black" points="266.33,-1129.85 256.61,-1125.63 261.58,-1134.99 266.33,-1129.85"/>
</g>
<!-- timer0_check -->
<g id="node6" class="node">
<title>timer0_check</title>
<path fill="lightyellow" stroke="black" d="M229.27,-1035.51C229.27,-1035.51 150.73,-1005.97 150.73,-1005.97 145.12,-1003.85 145.12,-999.63 150.73,-997.51 150.73,-997.51 229.27,-967.97 229.27,-967.97 234.88,-965.85 246.12,-965.85 251.73,-967.97 251.73,-967.97 330.27,-997.51 330.27,-997.51 335.88,-999.63 335.88,-1003.85 330.27,-1005.97 330.27,-1005.97 251.73,-1035.51 251.73,-1035.51 246.12,-1037.63 234.88,-1037.63 229.27,-1035.51"/>
<text text-anchor="middle" x="240.5" y="-1005.54" font-family="Arial" font-size="14.00">Timer 0 fired?</text>
<text text-anchor="middle" x="240.5" y="-990.54" font-family="Arial" font-size="14.00">(status &amp; 0x1)</text>
</g>
<!-- check_timers&#45;&gt;timer0_check -->
<g id="edge4" class="edge">
<title>check_timers&#45;&gt;timer0_check</title>
<path fill="none" stroke="black" d="M240.5,-1091.71C240.5,-1080.39 240.5,-1064.93 240.5,-1050.07"/>
<polygon fill="black" stroke="black" points="244,-1049.94 240.5,-1039.94 237,-1049.94 244,-1049.94"/>
<text text-anchor="middle" x="274.5" y="-1061.54" font-family="Arial" font-size="14.00">Check bit 0</text>
</g>
<!-- handle_timer0 -->
<g id="node7" class="node">
<title>handle_timer0</title>
<path fill="lightcyan" stroke="black" d="M207,-912.74C207,-912.74 104,-912.74 104,-912.74 98,-912.74 92,-906.74 92,-900.74 92,-900.74 92,-856.74 92,-856.74 92,-850.74 98,-844.74 104,-844.74 104,-844.74 207,-844.74 207,-844.74 213,-844.74 219,-850.74 219,-856.74 219,-856.74 219,-900.74 219,-900.74 219,-906.74 213,-912.74 207,-912.74"/>
<text text-anchor="middle" x="155.5" y="-897.54" font-family="Arial" font-size="14.00">Handle Timer 0</text>
<text text-anchor="middle" x="155.5" y="-882.54" font-family="Arial" font-size="14.00">• Execute callback</text>
<text text-anchor="middle" x="155.5" y="-867.54" font-family="Arial" font-size="14.00">• Update state</text>
<text text-anchor="middle" x="155.5" y="-852.54" font-family="Arial" font-size="14.00">• Log event</text>
</g>
<!-- timer0_check&#45;&gt;handle_timer0 -->
<g id="edge5" class="edge">
<title>timer0_check&#45;&gt;handle_timer0</title>
<path fill="none" stroke="black" d="M219.92,-971.45C209.38,-956.44 196.36,-937.9 184.79,-921.43"/>
<polygon fill="black" stroke="black" points="187.5,-919.2 178.89,-913.03 181.77,-923.23 187.5,-919.2"/>
<text text-anchor="middle" x="213" y="-934.54" font-family="Arial" font-size="14.00">Yes</text>
</g>
<!-- timer1_check -->
<g id="node8" class="node">
<title>timer1_check</title>
<path fill="lightyellow" stroke="black" d="M208.27,-699.51C208.27,-699.51 129.73,-669.97 129.73,-669.97 124.12,-667.85 124.12,-663.63 129.73,-661.51 129.73,-661.51 208.27,-631.97 208.27,-631.97 213.88,-629.85 225.12,-629.85 230.73,-631.97 230.73,-631.97 309.27,-661.51 309.27,-661.51 314.88,-663.63 314.88,-667.85 309.27,-669.97 309.27,-669.97 230.73,-699.51 230.73,-699.51 225.12,-701.63 213.88,-701.63 208.27,-699.51"/>
<text text-anchor="middle" x="219.5" y="-669.54" font-family="Arial" font-size="14.00">Timer 1 fired?</text>
<text text-anchor="middle" x="219.5" y="-654.54" font-family="Arial" font-size="14.00">(status &amp; 0x2)</text>
</g>
<!-- timer0_check&#45;&gt;timer1_check -->
<g id="edge6" class="edge">
<title>timer0_check&#45;&gt;timer1_check</title>
<path fill="none" stroke="black" d="M242.34,-964.4C244.35,-913.99 246.11,-820.07 236.5,-740.74 235.3,-730.83 233.32,-720.31 231.13,-710.41"/>
<polygon fill="black" stroke="black" points="234.47,-709.32 228.8,-700.37 227.65,-710.9 234.47,-709.32"/>
<text text-anchor="middle" x="252.5" y="-815.54" font-family="Arial" font-size="14.00">No</text>
</g>
<!-- clear_timer0 -->
<g id="node9" class="node">
<title>clear_timer0</title>
<path fill="lightgreen" stroke="black" d="M215.5,-793.74C215.5,-793.74 45.5,-793.74 45.5,-793.74 39.5,-793.74 33.5,-787.74 33.5,-781.74 33.5,-781.74 33.5,-752.74 33.5,-752.74 33.5,-746.74 39.5,-740.74 45.5,-740.74 45.5,-740.74 215.5,-740.74 215.5,-740.74 221.5,-740.74 227.5,-746.74 227.5,-752.74 227.5,-752.74 227.5,-781.74 227.5,-781.74 227.5,-787.74 221.5,-793.74 215.5,-793.74"/>
<text text-anchor="middle" x="130.5" y="-778.54" font-family="Arial" font-size="14.00">Clear Timer 0 IRQ</text>
<text text-anchor="middle" x="130.5" y="-763.54" font-family="Arial" font-size="14.00">WRITE(HPET_STATUS, 0x1)</text>
<text text-anchor="middle" x="130.5" y="-748.54" font-family="Arial" font-size="14.00">(W1C)</text>
</g>
<!-- handle_timer0&#45;&gt;clear_timer0 -->
<g id="edge7" class="edge">
<title>handle_timer0&#45;&gt;clear_timer0</title>
<path fill="none" stroke="black" d="M147.93,-844.59C145.01,-831.77 141.65,-817.08 138.67,-804.03"/>
<polygon fill="black" stroke="black" points="142.01,-802.95 136.38,-793.98 135.19,-804.5 142.01,-802.95"/>
</g>
<!-- handle_timer1 -->
<g id="node10" class="node">
<title>handle_timer1</title>
<path fill="lightcyan" stroke="black" d="M174,-576.74C174,-576.74 71,-576.74 71,-576.74 65,-576.74 59,-570.74 59,-564.74 59,-564.74 59,-535.74 59,-535.74 59,-529.74 65,-523.74 71,-523.74 71,-523.74 174,-523.74 174,-523.74 180,-523.74 186,-529.74 186,-535.74 186,-535.74 186,-564.74 186,-564.74 186,-570.74 180,-576.74 174,-576.74"/>
<text text-anchor="middle" x="122.5" y="-561.54" font-family="Arial" font-size="14.00">Handle Timer 1</text>
<text text-anchor="middle" x="122.5" y="-546.54" font-family="Arial" font-size="14.00">• Execute callback</text>
<text text-anchor="middle" x="122.5" y="-531.54" font-family="Arial" font-size="14.00">• Update state</text>
</g>
<!-- timer1_check&#45;&gt;handle_timer1 -->
<g id="edge9" class="edge">
<title>timer1_check&#45;&gt;handle_timer1</title>
<path fill="none" stroke="black" d="M195.52,-636.68C182.12,-621 165.33,-601.35 151.22,-584.85"/>
<polygon fill="black" stroke="black" points="153.7,-582.36 144.54,-577.03 148.38,-586.91 153.7,-582.36"/>
<text text-anchor="middle" x="183" y="-598.54" font-family="Arial" font-size="14.00">Yes</text>
</g>
<!-- timer2_check -->
<g id="node11" class="node">
<title>timer2_check</title>
<path fill="lightyellow" stroke="black" d="M98.46,-393.03C98.46,-393.03 31.54,-364.45 31.54,-364.45 26.02,-362.1 26.02,-357.38 31.54,-355.03 31.54,-355.03 98.46,-326.45 98.46,-326.45 103.98,-324.1 115.02,-324.1 120.54,-326.45 120.54,-326.45 187.46,-355.03 187.46,-355.03 192.98,-357.38 192.98,-362.1 187.46,-364.45 187.46,-364.45 120.54,-393.03 120.54,-393.03 115.02,-395.38 103.98,-395.38 98.46,-393.03"/>
<text text-anchor="middle" x="109.5" y="-363.54" font-family="Arial" font-size="14.00">More timers</text>
<text text-anchor="middle" x="109.5" y="-348.54" font-family="Arial" font-size="14.00">to check?</text>
</g>
<!-- timer1_check&#45;&gt;timer2_check -->
<g id="edge10" class="edge">
<title>timer1_check&#45;&gt;timer2_check</title>
<path fill="none" stroke="black" d="M225.62,-630.03C232.16,-582.83 237.56,-497.15 204.5,-434.74 193.99,-414.89 175.57,-398.67 157.73,-386.53"/>
<polygon fill="black" stroke="black" points="159.35,-383.41 149.06,-380.9 155.54,-389.28 159.35,-383.41"/>
<text text-anchor="middle" x="236.5" y="-494.54" font-family="Arial" font-size="14.00">No</text>
</g>
<!-- clear_timer0&#45;&gt;timer1_check -->
<g id="edge8" class="edge">
<title>clear_timer0&#45;&gt;timer1_check</title>
<path fill="none" stroke="black" d="M153.42,-740.62C163.83,-728.98 176.31,-715.02 187.61,-702.39"/>
<polygon fill="black" stroke="black" points="190.41,-704.51 194.47,-694.73 185.19,-699.85 190.41,-704.51"/>
</g>
<!-- clear_timer1 -->
<g id="node12" class="node">
<title>clear_timer1</title>
<path fill="lightgreen" stroke="black" d="M183.5,-472.74C183.5,-472.74 13.5,-472.74 13.5,-472.74 7.5,-472.74 1.5,-466.74 1.5,-460.74 1.5,-460.74 1.5,-446.74 1.5,-446.74 1.5,-440.74 7.5,-434.74 13.5,-434.74 13.5,-434.74 183.5,-434.74 183.5,-434.74 189.5,-434.74 195.5,-440.74 195.5,-446.74 195.5,-446.74 195.5,-460.74 195.5,-460.74 195.5,-466.74 189.5,-472.74 183.5,-472.74"/>
<text text-anchor="middle" x="98.5" y="-457.54" font-family="Arial" font-size="14.00">Clear Timer 1 IRQ</text>
<text text-anchor="middle" x="98.5" y="-442.54" font-family="Arial" font-size="14.00">WRITE(HPET_STATUS, 0x2)</text>
</g>
<!-- handle_timer1&#45;&gt;clear_timer1 -->
<g id="edge11" class="edge">
<title>handle_timer1&#45;&gt;clear_timer1</title>
<path fill="none" stroke="black" d="M115.94,-523.42C112.72,-510.74 108.84,-495.45 105.56,-482.52"/>
<polygon fill="black" stroke="black" points="108.93,-481.58 103.07,-472.75 102.14,-483.31 108.93,-481.58"/>
</g>
<!-- handle_timerN -->
<g id="node13" class="node">
<title>handle_timerN</title>
<path fill="lightcyan" stroke="black" d="M131,-270.74C131,-270.74 12,-270.74 12,-270.74 6,-270.74 0,-264.74 0,-258.74 0,-258.74 0,-229.74 0,-229.74 0,-223.74 6,-217.74 12,-217.74 12,-217.74 131,-217.74 131,-217.74 137,-217.74 143,-223.74 143,-229.74 143,-229.74 143,-258.74 143,-258.74 143,-264.74 137,-270.74 131,-270.74"/>
<text text-anchor="middle" x="71.5" y="-255.54" font-family="Arial" font-size="14.00">Handle Timer N</text>
<text text-anchor="middle" x="71.5" y="-240.54" font-family="Arial" font-size="14.00">Repeat for remaining</text>
<text text-anchor="middle" x="71.5" y="-225.54" font-family="Arial" font-size="14.00">timers</text>
</g>
<!-- timer2_check&#45;&gt;handle_timerN -->
<g id="edge13" class="edge">
<title>timer2_check&#45;&gt;handle_timerN</title>
<path fill="none" stroke="black" d="M86.54,-331.25C80.86,-322.92 75.54,-313.4 72.5,-303.74 70.24,-296.55 69.2,-288.6 68.88,-280.95"/>
<polygon fill="black" stroke="black" points="72.37,-280.78 68.82,-270.8 65.37,-280.82 72.37,-280.78"/>
<text text-anchor="middle" x="84" y="-292.54" font-family="Arial" font-size="14.00">Yes</text>
</g>
<!-- verify_clear -->
<g id="node14" class="node">
<title>verify_clear</title>
<path fill="lightblue" stroke="black" d="M359.5,-263.24C359.5,-263.24 173.5,-263.24 173.5,-263.24 167.5,-263.24 161.5,-257.24 161.5,-251.24 161.5,-251.24 161.5,-237.24 161.5,-237.24 161.5,-231.24 167.5,-225.24 173.5,-225.24 173.5,-225.24 359.5,-225.24 359.5,-225.24 365.5,-225.24 371.5,-231.24 371.5,-237.24 371.5,-237.24 371.5,-251.24 371.5,-251.24 371.5,-257.24 365.5,-263.24 359.5,-263.24"/>
<text text-anchor="middle" x="266.5" y="-248.04" font-family="Arial" font-size="14.00">Verify All Cleared</text>
<text text-anchor="middle" x="266.5" y="-233.04" font-family="Arial" font-size="14.00">status = READ(HPET_STATUS)</text>
</g>
<!-- timer2_check&#45;&gt;verify_clear -->
<g id="edge14" class="edge">
<title>timer2_check&#45;&gt;verify_clear</title>
<path fill="none" stroke="black" d="M142.03,-335.22C168.61,-316.01 206.06,-288.94 232.92,-269.52"/>
<polygon fill="black" stroke="black" points="235.19,-272.19 241.24,-263.5 231.09,-266.52 235.19,-272.19"/>
<text text-anchor="middle" x="211.5" y="-292.54" font-family="Arial" font-size="14.00">No</text>
</g>
<!-- clear_timer1&#45;&gt;timer2_check -->
<g id="edge12" class="edge">
<title>clear_timer1&#45;&gt;timer2_check</title>
<path fill="none" stroke="black" d="M100.67,-434.56C101.66,-426.32 102.87,-416.16 104.08,-406.04"/>
<polygon fill="black" stroke="black" points="107.57,-406.36 105.28,-396.02 100.62,-405.53 107.57,-406.36"/>
</g>
<!-- handle_timerN&#45;&gt;timer2_check -->
<g id="edge15" class="edge">
<title>handle_timerN&#45;&gt;timer2_check</title>
<path fill="none" stroke="black" d="M87.32,-270.85C90.38,-276.58 93.31,-282.75 95.5,-288.74 98.38,-296.6 100.71,-305.19 102.59,-313.57"/>
<polygon fill="black" stroke="black" points="99.21,-314.53 104.65,-323.62 106.07,-313.12 99.21,-314.53"/>
</g>
<!-- all_clear -->
<g id="node15" class="node">
<title>all_clear</title>
<path fill="lightyellow" stroke="black" d="M321.41,-176.16C321.41,-176.16 251.59,-147.32 251.59,-147.32 246.05,-145.03 246.05,-140.45 251.59,-138.16 251.59,-138.16 321.41,-109.32 321.41,-109.32 326.95,-107.03 338.05,-107.03 343.59,-109.32 343.59,-109.32 413.41,-138.16 413.41,-138.16 418.95,-140.45 418.95,-145.03 413.41,-147.32 413.41,-147.32 343.59,-176.16 343.59,-176.16 338.05,-178.45 326.95,-178.45 321.41,-176.16"/>
<text text-anchor="middle" x="332.5" y="-146.54" font-family="Arial" font-size="14.00">All interrupts</text>
<text text-anchor="middle" x="332.5" y="-131.54" font-family="Arial" font-size="14.00">cleared?</text>
</g>
<!-- verify_clear&#45;&gt;all_clear -->
<g id="edge16" class="edge">
<title>verify_clear&#45;&gt;all_clear</title>
<path fill="none" stroke="black" d="M278.61,-224.99C286.69,-212.8 297.63,-196.31 307.53,-181.38"/>
<polygon fill="black" stroke="black" points="310.6,-183.08 313.22,-172.81 304.77,-179.21 310.6,-183.08"/>
</g>
<!-- all_clear&#45;&gt;end -->
<g id="edge17" class="edge">
<title>all_clear&#45;&gt;end</title>
<path fill="none" stroke="black" d="M332.5,-104.45C332.5,-91.58 332.5,-77.19 332.5,-64.38"/>
<polygon fill="black" stroke="black" points="336,-64.06 332.5,-54.06 329,-64.06 336,-64.06"/>
<text text-anchor="middle" x="384" y="-75.54" font-family="Arial" font-size="14.00">Yes (status == 0)</text>
</g>
<!-- all_clear&#45;&gt;read_status -->
<g id="edge18" class="edge">
<title>all_clear&#45;&gt;read_status</title>
<path fill="none" stroke="black" d="M361.69,-168.95C379.75,-187.45 399.5,-214.29 399.5,-243.24 399.5,-1110.74 399.5,-1110.74 399.5,-1110.74 399.5,-1131.58 384.5,-1148.06 367.49,-1160.05"/>
<polygon fill="black" stroke="black" points="365.49,-1157.18 359.03,-1165.58 369.32,-1163.04 365.49,-1157.18"/>
<text text-anchor="middle" x="428.5" y="-662.04" font-family="Arial" font-size="14.00">No (retry)</text>
</g>
<!-- note1 -->
<g id="node16" class="node">
<title>note1</title>
<polygon fill="yellow" stroke="black" points="577,-1128.74 428,-1128.74 428,-1090.74 583,-1090.74 583,-1122.74 577,-1128.74"/>
<polyline fill="none" stroke="black" points="577,-1128.74 577,-1122.74 "/>
<polyline fill="none" stroke="black" points="583,-1122.74 577,-1122.74 "/>
<text text-anchor="middle" x="505.5" y="-1113.54" font-family="Arial" font-size="14.00">Note: Multiple timers</text>
<text text-anchor="middle" x="505.5" y="-1098.54" font-family="Arial" font-size="14.00">can fire simultaneously</text>
</g>
<!-- note2 -->
<g id="node17" class="node">
<title>note2</title>
<polygon fill="lightyellow" stroke="black" points="553.5,-786.24 427.5,-786.24 427.5,-748.24 559.5,-748.24 559.5,-780.24 553.5,-786.24"/>
<polyline fill="none" stroke="black" points="553.5,-786.24 553.5,-780.24 "/>
<polyline fill="none" stroke="black" points="559.5,-780.24 553.5,-780.24 "/>
<text text-anchor="middle" x="493.5" y="-771.04" font-family="Arial" font-size="14.00">Note: W1C register</text>
<text text-anchor="middle" x="493.5" y="-756.04" font-family="Arial" font-size="14.00">write 1 to clear bit</text>
</g>
<!-- note3 -->
<g id="node18" class="node">
<title>note3</title>
<polygon fill="lightcoral" stroke="black" points="577,-263.24 428,-263.24 428,-225.24 583,-225.24 583,-257.24 577,-263.24"/>
<polyline fill="none" stroke="black" points="577,-263.24 577,-257.24 "/>
<polyline fill="none" stroke="black" points="583,-257.24 577,-257.24 "/>
<text text-anchor="middle" x="505.5" y="-248.04" font-family="Arial" font-size="14.00">Critical: Must clear ALL</text>
<text text-anchor="middle" x="505.5" y="-233.04" font-family="Arial" font-size="14.00">fired interrupts</text>
</g>
</g>
</svg>
