<?xml version="1.0" encoding="UTF-8" standalone="no"?>
<!DOCTYPE svg PUBLIC "-//W3C//DTD SVG 1.1//EN"
 "http://www.w3.org/Graphics/SVG/1.1/DTD/svg11.dtd">
<!-- Generated by graphviz version 2.43.0 (0)
 -->
<!-- Title: multi_timer_concurrent Pages: 1 -->
<svg width="405pt" height="2014pt"
 viewBox="0.00 0.00 404.50 2013.74" xmlns="http://www.w3.org/2000/svg" xmlns:xlink="http://www.w3.org/1999/xlink">
<g id="graph0" class="graph" transform="scale(1 1) rotate(0) translate(4 2009.74)">
<title>multi_timer_concurrent</title>
<polygon fill="white" stroke="transparent" points="-4,4 -4,-2009.74 400.5,-2009.74 400.5,4 -4,4"/>
<!-- start -->
<g id="node1" class="node">
<title>start</title>
<ellipse fill="lightgreen" stroke="black" cx="125.5" cy="-1987.74" rx="111.58" ry="18"/>
<text text-anchor="middle" x="125.5" y="-1984.04" font-family="Arial" font-size="14.00">Configure Multiple Timers</text>
</g>
<!-- disable_all -->
<g id="node2" class="node">
<title>disable_all</title>
<path fill="lightblue" stroke="black" d="M212,-1933.74C212,-1933.74 39,-1933.74 39,-1933.74 33,-1933.74 27,-1927.74 27,-1921.74 27,-1921.74 27,-1907.74 27,-1907.74 27,-1901.74 33,-1895.74 39,-1895.74 39,-1895.74 212,-1895.74 212,-1895.74 218,-1895.74 224,-1901.74 224,-1907.74 224,-1907.74 224,-1921.74 224,-1921.74 224,-1927.74 218,-1933.74 212,-1933.74"/>
<text text-anchor="middle" x="125.5" y="-1918.54" font-family="Arial" font-size="14.00">1. Disable HPET</text>
<text text-anchor="middle" x="125.5" y="-1903.54" font-family="Arial" font-size="14.00">WRITE(HPET_CONFIG, 0x0)</text>
</g>
<!-- start&#45;&gt;disable_all -->
<g id="edge1" class="edge">
<title>start&#45;&gt;disable_all</title>
<path fill="none" stroke="black" d="M125.5,-1969.55C125.5,-1961.85 125.5,-1952.56 125.5,-1943.89"/>
<polygon fill="black" stroke="black" points="129,-1943.76 125.5,-1933.76 122,-1943.76 129,-1943.76"/>
</g>
<!-- reset_counter -->
<g id="node3" class="node">
<title>reset_counter</title>
<path fill="lightblue" stroke="black" d="M224.5,-1859.74C224.5,-1859.74 26.5,-1859.74 26.5,-1859.74 20.5,-1859.74 14.5,-1853.74 14.5,-1847.74 14.5,-1847.74 14.5,-1818.74 14.5,-1818.74 14.5,-1812.74 20.5,-1806.74 26.5,-1806.74 26.5,-1806.74 224.5,-1806.74 224.5,-1806.74 230.5,-1806.74 236.5,-1812.74 236.5,-1818.74 236.5,-1818.74 236.5,-1847.74 236.5,-1847.74 236.5,-1853.74 230.5,-1859.74 224.5,-1859.74"/>
<text text-anchor="middle" x="125.5" y="-1844.54" font-family="Arial" font-size="14.00">2. Reset Counter</text>
<text text-anchor="middle" x="125.5" y="-1829.54" font-family="Arial" font-size="14.00">WRITE(HPET_COUNTER_LO, 0)</text>
<text text-anchor="middle" x="125.5" y="-1814.54" font-family="Arial" font-size="14.00">WRITE(HPET_COUNTER_HI, 0)</text>
</g>
<!-- disable_all&#45;&gt;reset_counter -->
<g id="edge2" class="edge">
<title>disable_all&#45;&gt;reset_counter</title>
<path fill="none" stroke="black" d="M125.5,-1895.7C125.5,-1888.06 125.5,-1878.88 125.5,-1869.97"/>
<polygon fill="black" stroke="black" points="129,-1869.74 125.5,-1859.74 122,-1869.74 129,-1869.74"/>
</g>
<!-- config_timer0 -->
<g id="node4" class="node">
<title>config_timer0</title>
<path fill="lightcyan" stroke="black" d="M187.5,-1770.74C187.5,-1770.74 63.5,-1770.74 63.5,-1770.74 57.5,-1770.74 51.5,-1764.74 51.5,-1758.74 51.5,-1758.74 51.5,-1729.74 51.5,-1729.74 51.5,-1723.74 57.5,-1717.74 63.5,-1717.74 63.5,-1717.74 187.5,-1717.74 187.5,-1717.74 193.5,-1717.74 199.5,-1723.74 199.5,-1729.74 199.5,-1729.74 199.5,-1758.74 199.5,-1758.74 199.5,-1764.74 193.5,-1770.74 187.5,-1770.74"/>
<text text-anchor="middle" x="125.5" y="-1755.54" font-family="Arial" font-size="14.00">3a. Configure Timer 0</text>
<text text-anchor="middle" x="125.5" y="-1740.54" font-family="Arial" font-size="14.00">comparator = 100</text>
<text text-anchor="middle" x="125.5" y="-1725.54" font-family="Arial" font-size="14.00">mode = one&#45;shot</text>
</g>
<!-- reset_counter&#45;&gt;config_timer0 -->
<g id="edge3" class="edge">
<title>reset_counter&#45;&gt;config_timer0</title>
<path fill="none" stroke="black" d="M125.5,-1806.61C125.5,-1798.63 125.5,-1789.67 125.5,-1781.12"/>
<polygon fill="black" stroke="black" points="129,-1780.99 125.5,-1770.99 122,-1780.99 129,-1780.99"/>
</g>
<!-- config_timer1 -->
<g id="node5" class="node">
<title>config_timer1</title>
<path fill="lightcyan" stroke="black" d="M187.5,-1681.74C187.5,-1681.74 63.5,-1681.74 63.5,-1681.74 57.5,-1681.74 51.5,-1675.74 51.5,-1669.74 51.5,-1669.74 51.5,-1640.74 51.5,-1640.74 51.5,-1634.74 57.5,-1628.74 63.5,-1628.74 63.5,-1628.74 187.5,-1628.74 187.5,-1628.74 193.5,-1628.74 199.5,-1634.74 199.5,-1640.74 199.5,-1640.74 199.5,-1669.74 199.5,-1669.74 199.5,-1675.74 193.5,-1681.74 187.5,-1681.74"/>
<text text-anchor="middle" x="125.5" y="-1666.54" font-family="Arial" font-size="14.00">3b. Configure Timer 1</text>
<text text-anchor="middle" x="125.5" y="-1651.54" font-family="Arial" font-size="14.00">comparator = 200</text>
<text text-anchor="middle" x="125.5" y="-1636.54" font-family="Arial" font-size="14.00">mode = periodic</text>
</g>
<!-- config_timer0&#45;&gt;config_timer1 -->
<g id="edge4" class="edge">
<title>config_timer0&#45;&gt;config_timer1</title>
<path fill="none" stroke="black" d="M125.5,-1717.61C125.5,-1709.63 125.5,-1700.67 125.5,-1692.12"/>
<polygon fill="black" stroke="black" points="129,-1691.99 125.5,-1681.99 122,-1691.99 129,-1691.99"/>
</g>
<!-- config_timer2 -->
<g id="node6" class="node">
<title>config_timer2</title>
<path fill="lightcyan" stroke="black" d="M187,-1592.74C187,-1592.74 64,-1592.74 64,-1592.74 58,-1592.74 52,-1586.74 52,-1580.74 52,-1580.74 52,-1551.74 52,-1551.74 52,-1545.74 58,-1539.74 64,-1539.74 64,-1539.74 187,-1539.74 187,-1539.74 193,-1539.74 199,-1545.74 199,-1551.74 199,-1551.74 199,-1580.74 199,-1580.74 199,-1586.74 193,-1592.74 187,-1592.74"/>
<text text-anchor="middle" x="125.5" y="-1577.54" font-family="Arial" font-size="14.00">3c. Configure Timer 2</text>
<text text-anchor="middle" x="125.5" y="-1562.54" font-family="Arial" font-size="14.00">comparator = 700</text>
<text text-anchor="middle" x="125.5" y="-1547.54" font-family="Arial" font-size="14.00">mode = one&#45;shot</text>
</g>
<!-- config_timer1&#45;&gt;config_timer2 -->
<g id="edge5" class="edge">
<title>config_timer1&#45;&gt;config_timer2</title>
<path fill="none" stroke="black" d="M125.5,-1628.61C125.5,-1620.63 125.5,-1611.67 125.5,-1603.12"/>
<polygon fill="black" stroke="black" points="129,-1602.99 125.5,-1592.99 122,-1602.99 129,-1602.99"/>
</g>
<!-- enable_hpet -->
<g id="node7" class="node">
<title>enable_hpet</title>
<path fill="lightblue" stroke="black" d="M212,-1503.74C212,-1503.74 39,-1503.74 39,-1503.74 33,-1503.74 27,-1497.74 27,-1491.74 27,-1491.74 27,-1477.74 27,-1477.74 27,-1471.74 33,-1465.74 39,-1465.74 39,-1465.74 212,-1465.74 212,-1465.74 218,-1465.74 224,-1471.74 224,-1477.74 224,-1477.74 224,-1491.74 224,-1491.74 224,-1497.74 218,-1503.74 212,-1503.74"/>
<text text-anchor="middle" x="125.5" y="-1488.54" font-family="Arial" font-size="14.00">4. Enable HPET</text>
<text text-anchor="middle" x="125.5" y="-1473.54" font-family="Arial" font-size="14.00">WRITE(HPET_CONFIG, 0x1)</text>
</g>
<!-- config_timer2&#45;&gt;enable_hpet -->
<g id="edge6" class="edge">
<title>config_timer2&#45;&gt;enable_hpet</title>
<path fill="none" stroke="black" d="M125.5,-1539.65C125.5,-1531.48 125.5,-1522.39 125.5,-1514.04"/>
<polygon fill="black" stroke="black" points="129,-1513.98 125.5,-1503.98 122,-1513.98 129,-1513.98"/>
</g>
<!-- counter_runs -->
<g id="node8" class="node">
<title>counter_runs</title>
<path fill="lightyellow" stroke="black" d="M186,-1422.24C186,-1422.24 65,-1422.24 65,-1422.24 59,-1422.24 53,-1416.24 53,-1410.24 53,-1410.24 53,-1396.24 53,-1396.24 53,-1390.24 59,-1384.24 65,-1384.24 65,-1384.24 186,-1384.24 186,-1384.24 192,-1384.24 198,-1390.24 198,-1396.24 198,-1396.24 198,-1410.24 198,-1410.24 198,-1416.24 192,-1422.24 186,-1422.24"/>
<text text-anchor="middle" x="125.5" y="-1407.04" font-family="Arial" font-size="14.00">Counter Increments</text>
<text text-anchor="middle" x="125.5" y="-1392.04" font-family="Arial" font-size="14.00">0 → 1 → 2 → 3 → ...</text>
</g>
<!-- enable_hpet&#45;&gt;counter_runs -->
<g id="edge7" class="edge">
<title>enable_hpet&#45;&gt;counter_runs</title>
<path fill="none" stroke="black" d="M125.5,-1465.7C125.5,-1455.91 125.5,-1443.59 125.5,-1432.55"/>
<polygon fill="black" stroke="black" points="129,-1432.48 125.5,-1422.48 122,-1432.48 129,-1432.48"/>
</g>
<!-- timeline -->
<g id="node9" class="node">
<title>timeline</title>
<polygon fill="lightgreen" stroke="black" points="206.5,-1340.74 48.5,-1340.74 44.5,-1336.74 44.5,-1304.74 202.5,-1304.74 206.5,-1308.74 206.5,-1340.74"/>
<polyline fill="none" stroke="black" points="202.5,-1336.74 44.5,-1336.74 "/>
<polyline fill="none" stroke="black" points="202.5,-1336.74 202.5,-1304.74 "/>
<polyline fill="none" stroke="black" points="202.5,-1336.74 206.5,-1340.74 "/>
<text text-anchor="middle" x="125.5" y="-1319.04" font-family="Arial" font-size="14.00">Timeline (all concurrent)</text>
</g>
<!-- counter_runs&#45;&gt;timeline -->
<g id="edge8" class="edge">
<title>counter_runs&#45;&gt;timeline</title>
<path fill="none" stroke="black" d="M125.5,-1384.03C125.5,-1374.25 125.5,-1361.99 125.5,-1351.09"/>
<polygon fill="black" stroke="black" points="129,-1350.77 125.5,-1340.77 122,-1350.77 129,-1350.77"/>
</g>
<!-- timer0_fires -->
<g id="node10" class="node">
<title>timer0_fires</title>
<path fill="lightcoral" stroke="black" d="M174,-1268.74C174,-1268.74 77,-1268.74 77,-1268.74 71,-1268.74 65,-1262.74 65,-1256.74 65,-1256.74 65,-1227.74 65,-1227.74 65,-1221.74 71,-1215.74 77,-1215.74 77,-1215.74 174,-1215.74 174,-1215.74 180,-1215.74 186,-1221.74 186,-1227.74 186,-1227.74 186,-1256.74 186,-1256.74 186,-1262.74 180,-1268.74 174,-1268.74"/>
<text text-anchor="middle" x="125.5" y="-1253.54" font-family="Arial" font-size="14.00">Counter = 100</text>
<text text-anchor="middle" x="125.5" y="-1238.54" font-family="Arial" font-size="14.00">Timer 0 Fires</text>
<text text-anchor="middle" x="125.5" y="-1223.54" font-family="Arial" font-size="14.00">(one&#45;shot → idle)</text>
</g>
<!-- timeline&#45;&gt;timer0_fires -->
<g id="edge9" class="edge">
<title>timeline&#45;&gt;timer0_fires</title>
<path fill="none" stroke="black" d="M125.5,-1304.71C125.5,-1297.19 125.5,-1288.05 125.5,-1279.14"/>
<polygon fill="black" stroke="black" points="129,-1278.9 125.5,-1268.9 122,-1278.9 129,-1278.9"/>
</g>
<!-- irq0 -->
<g id="node11" class="node">
<title>irq0</title>
<path fill="red" stroke="black" d="M188.5,-1179.74C188.5,-1179.74 62.5,-1179.74 62.5,-1179.74 56.5,-1179.74 50.5,-1173.74 50.5,-1167.74 50.5,-1167.74 50.5,-1153.74 50.5,-1153.74 50.5,-1147.74 56.5,-1141.74 62.5,-1141.74 62.5,-1141.74 188.5,-1141.74 188.5,-1141.74 194.5,-1141.74 200.5,-1147.74 200.5,-1153.74 200.5,-1153.74 200.5,-1167.74 200.5,-1167.74 200.5,-1173.74 194.5,-1179.74 188.5,-1179.74"/>
<text text-anchor="middle" x="125.5" y="-1164.54" font-family="Arial" font-size="14.00" fill="white">IRQ[0] Asserts</text>
<text text-anchor="middle" x="125.5" y="-1149.54" font-family="Arial" font-size="14.00" fill="white">HPET_STATUS[0] = 1</text>
</g>
<!-- timer0_fires&#45;&gt;irq0 -->
<g id="edge10" class="edge">
<title>timer0_fires&#45;&gt;irq0</title>
<path fill="none" stroke="black" d="M125.5,-1215.65C125.5,-1207.48 125.5,-1198.39 125.5,-1190.04"/>
<polygon fill="black" stroke="black" points="129,-1189.98 125.5,-1179.98 122,-1189.98 129,-1189.98"/>
</g>
<!-- continue1 -->
<g id="node12" class="node">
<title>continue1</title>
<path fill="lightyellow" stroke="black" d="M176.5,-1105.74C176.5,-1105.74 74.5,-1105.74 74.5,-1105.74 68.5,-1105.74 62.5,-1099.74 62.5,-1093.74 62.5,-1093.74 62.5,-1079.74 62.5,-1079.74 62.5,-1073.74 68.5,-1067.74 74.5,-1067.74 74.5,-1067.74 176.5,-1067.74 176.5,-1067.74 182.5,-1067.74 188.5,-1073.74 188.5,-1079.74 188.5,-1079.74 188.5,-1093.74 188.5,-1093.74 188.5,-1099.74 182.5,-1105.74 176.5,-1105.74"/>
<text text-anchor="middle" x="125.5" y="-1090.54" font-family="Arial" font-size="14.00">Counter continues</text>
<text text-anchor="middle" x="125.5" y="-1075.54" font-family="Arial" font-size="14.00">100 → 101 → ...</text>
</g>
<!-- irq0&#45;&gt;continue1 -->
<g id="edge11" class="edge">
<title>irq0&#45;&gt;continue1</title>
<path fill="none" stroke="black" d="M125.5,-1141.57C125.5,-1133.87 125.5,-1124.71 125.5,-1116.16"/>
<polygon fill="black" stroke="black" points="129,-1116.15 125.5,-1106.15 122,-1116.15 129,-1116.15"/>
</g>
<!-- timer1_fires -->
<g id="node13" class="node">
<title>timer1_fires</title>
<path fill="lightcoral" stroke="black" d="M179.5,-1031.74C179.5,-1031.74 71.5,-1031.74 71.5,-1031.74 65.5,-1031.74 59.5,-1025.74 59.5,-1019.74 59.5,-1019.74 59.5,-990.74 59.5,-990.74 59.5,-984.74 65.5,-978.74 71.5,-978.74 71.5,-978.74 179.5,-978.74 179.5,-978.74 185.5,-978.74 191.5,-984.74 191.5,-990.74 191.5,-990.74 191.5,-1019.74 191.5,-1019.74 191.5,-1025.74 185.5,-1031.74 179.5,-1031.74"/>
<text text-anchor="middle" x="125.5" y="-1016.54" font-family="Arial" font-size="14.00">Counter = 200</text>
<text text-anchor="middle" x="125.5" y="-1001.54" font-family="Arial" font-size="14.00">Timer 1 Fires (1st)</text>
<text text-anchor="middle" x="125.5" y="-986.54" font-family="Arial" font-size="14.00">(periodic → reload)</text>
</g>
<!-- continue1&#45;&gt;timer1_fires -->
<g id="edge12" class="edge">
<title>continue1&#45;&gt;timer1_fires</title>
<path fill="none" stroke="black" d="M125.5,-1067.7C125.5,-1060.06 125.5,-1050.88 125.5,-1041.97"/>
<polygon fill="black" stroke="black" points="129,-1041.74 125.5,-1031.74 122,-1041.74 129,-1041.74"/>
</g>
<!-- irq1 -->
<g id="node14" class="node">
<title>irq1</title>
<path fill="red" stroke="black" d="M184.5,-942.74C184.5,-942.74 66.5,-942.74 66.5,-942.74 60.5,-942.74 54.5,-936.74 54.5,-930.74 54.5,-930.74 54.5,-916.74 54.5,-916.74 54.5,-910.74 60.5,-904.74 66.5,-904.74 66.5,-904.74 184.5,-904.74 184.5,-904.74 190.5,-904.74 196.5,-910.74 196.5,-916.74 196.5,-916.74 196.5,-930.74 196.5,-930.74 196.5,-936.74 190.5,-942.74 184.5,-942.74"/>
<text text-anchor="middle" x="125.5" y="-927.54" font-family="Arial" font-size="14.00" fill="white">IRQ[1] Asserts</text>
<text text-anchor="middle" x="125.5" y="-912.54" font-family="Arial" font-size="14.00" fill="white">Comparator[1] = 400</text>
</g>
<!-- timer1_fires&#45;&gt;irq1 -->
<g id="edge13" class="edge">
<title>timer1_fires&#45;&gt;irq1</title>
<path fill="none" stroke="black" d="M125.5,-978.65C125.5,-970.48 125.5,-961.39 125.5,-953.04"/>
<polygon fill="black" stroke="black" points="129,-952.98 125.5,-942.98 122,-952.98 129,-952.98"/>
</g>
<!-- continue2 -->
<g id="node15" class="node">
<title>continue2</title>
<path fill="lightyellow" stroke="black" d="M176.5,-868.74C176.5,-868.74 74.5,-868.74 74.5,-868.74 68.5,-868.74 62.5,-862.74 62.5,-856.74 62.5,-856.74 62.5,-842.74 62.5,-842.74 62.5,-836.74 68.5,-830.74 74.5,-830.74 74.5,-830.74 176.5,-830.74 176.5,-830.74 182.5,-830.74 188.5,-836.74 188.5,-842.74 188.5,-842.74 188.5,-856.74 188.5,-856.74 188.5,-862.74 182.5,-868.74 176.5,-868.74"/>
<text text-anchor="middle" x="125.5" y="-853.54" font-family="Arial" font-size="14.00">Counter continues</text>
<text text-anchor="middle" x="125.5" y="-838.54" font-family="Arial" font-size="14.00">200 → 201 → ...</text>
</g>
<!-- irq1&#45;&gt;continue2 -->
<g id="edge14" class="edge">
<title>irq1&#45;&gt;continue2</title>
<path fill="none" stroke="black" d="M125.5,-904.57C125.5,-896.87 125.5,-887.71 125.5,-879.16"/>
<polygon fill="black" stroke="black" points="129,-879.15 125.5,-869.15 122,-879.15 129,-879.15"/>
</g>
<!-- timer1_fires2 -->
<g id="node16" class="node">
<title>timer1_fires2</title>
<path fill="lightcoral" stroke="black" d="M179.5,-794.74C179.5,-794.74 71.5,-794.74 71.5,-794.74 65.5,-794.74 59.5,-788.74 59.5,-782.74 59.5,-782.74 59.5,-753.74 59.5,-753.74 59.5,-747.74 65.5,-741.74 71.5,-741.74 71.5,-741.74 179.5,-741.74 179.5,-741.74 185.5,-741.74 191.5,-747.74 191.5,-753.74 191.5,-753.74 191.5,-782.74 191.5,-782.74 191.5,-788.74 185.5,-794.74 179.5,-794.74"/>
<text text-anchor="middle" x="125.5" y="-779.54" font-family="Arial" font-size="14.00">Counter = 400</text>
<text text-anchor="middle" x="125.5" y="-764.54" font-family="Arial" font-size="14.00">Timer 1 Fires (2nd)</text>
<text text-anchor="middle" x="125.5" y="-749.54" font-family="Arial" font-size="14.00">(periodic → reload)</text>
</g>
<!-- continue2&#45;&gt;timer1_fires2 -->
<g id="edge15" class="edge">
<title>continue2&#45;&gt;timer1_fires2</title>
<path fill="none" stroke="black" d="M125.5,-830.7C125.5,-823.06 125.5,-813.88 125.5,-804.97"/>
<polygon fill="black" stroke="black" points="129,-804.74 125.5,-794.74 122,-804.74 129,-804.74"/>
</g>
<!-- irq1_2 -->
<g id="node17" class="node">
<title>irq1_2</title>
<path fill="red" stroke="black" d="M184.5,-705.74C184.5,-705.74 66.5,-705.74 66.5,-705.74 60.5,-705.74 54.5,-699.74 54.5,-693.74 54.5,-693.74 54.5,-679.74 54.5,-679.74 54.5,-673.74 60.5,-667.74 66.5,-667.74 66.5,-667.74 184.5,-667.74 184.5,-667.74 190.5,-667.74 196.5,-673.74 196.5,-679.74 196.5,-679.74 196.5,-693.74 196.5,-693.74 196.5,-699.74 190.5,-705.74 184.5,-705.74"/>
<text text-anchor="middle" x="125.5" y="-690.54" font-family="Arial" font-size="14.00" fill="white">IRQ[1] Asserts again</text>
<text text-anchor="middle" x="125.5" y="-675.54" font-family="Arial" font-size="14.00" fill="white">Comparator[1] = 600</text>
</g>
<!-- timer1_fires2&#45;&gt;irq1_2 -->
<g id="edge16" class="edge">
<title>timer1_fires2&#45;&gt;irq1_2</title>
<path fill="none" stroke="black" d="M125.5,-741.65C125.5,-733.48 125.5,-724.39 125.5,-716.04"/>
<polygon fill="black" stroke="black" points="129,-715.98 125.5,-705.98 122,-715.98 129,-715.98"/>
</g>
<!-- continue3 -->
<g id="node18" class="node">
<title>continue3</title>
<path fill="lightyellow" stroke="black" d="M176.5,-631.74C176.5,-631.74 74.5,-631.74 74.5,-631.74 68.5,-631.74 62.5,-625.74 62.5,-619.74 62.5,-619.74 62.5,-605.74 62.5,-605.74 62.5,-599.74 68.5,-593.74 74.5,-593.74 74.5,-593.74 176.5,-593.74 176.5,-593.74 182.5,-593.74 188.5,-599.74 188.5,-605.74 188.5,-605.74 188.5,-619.74 188.5,-619.74 188.5,-625.74 182.5,-631.74 176.5,-631.74"/>
<text text-anchor="middle" x="125.5" y="-616.54" font-family="Arial" font-size="14.00">Counter continues</text>
<text text-anchor="middle" x="125.5" y="-601.54" font-family="Arial" font-size="14.00">400 → 401 → ...</text>
</g>
<!-- irq1_2&#45;&gt;continue3 -->
<g id="edge17" class="edge">
<title>irq1_2&#45;&gt;continue3</title>
<path fill="none" stroke="black" d="M125.5,-667.57C125.5,-659.87 125.5,-650.71 125.5,-642.16"/>
<polygon fill="black" stroke="black" points="129,-642.15 125.5,-632.15 122,-642.15 129,-642.15"/>
</g>
<!-- timer1_fires3 -->
<g id="node19" class="node">
<title>timer1_fires3</title>
<path fill="lightcoral" stroke="black" d="M178,-557.74C178,-557.74 73,-557.74 73,-557.74 67,-557.74 61,-551.74 61,-545.74 61,-545.74 61,-531.74 61,-531.74 61,-525.74 67,-519.74 73,-519.74 73,-519.74 178,-519.74 178,-519.74 184,-519.74 190,-525.74 190,-531.74 190,-531.74 190,-545.74 190,-545.74 190,-551.74 184,-557.74 178,-557.74"/>
<text text-anchor="middle" x="125.5" y="-542.54" font-family="Arial" font-size="14.00">Counter = 600</text>
<text text-anchor="middle" x="125.5" y="-527.54" font-family="Arial" font-size="14.00">Timer 1 Fires (3rd)</text>
</g>
<!-- continue3&#45;&gt;timer1_fires3 -->
<g id="edge18" class="edge">
<title>continue3&#45;&gt;timer1_fires3</title>
<path fill="none" stroke="black" d="M125.5,-593.57C125.5,-585.87 125.5,-576.71 125.5,-568.16"/>
<polygon fill="black" stroke="black" points="129,-568.15 125.5,-558.15 122,-568.15 129,-568.15"/>
</g>
<!-- continue4 -->
<g id="node20" class="node">
<title>continue4</title>
<path fill="lightyellow" stroke="black" d="M176.5,-483.74C176.5,-483.74 74.5,-483.74 74.5,-483.74 68.5,-483.74 62.5,-477.74 62.5,-471.74 62.5,-471.74 62.5,-457.74 62.5,-457.74 62.5,-451.74 68.5,-445.74 74.5,-445.74 74.5,-445.74 176.5,-445.74 176.5,-445.74 182.5,-445.74 188.5,-451.74 188.5,-457.74 188.5,-457.74 188.5,-471.74 188.5,-471.74 188.5,-477.74 182.5,-483.74 176.5,-483.74"/>
<text text-anchor="middle" x="125.5" y="-468.54" font-family="Arial" font-size="14.00">Counter continues</text>
<text text-anchor="middle" x="125.5" y="-453.54" font-family="Arial" font-size="14.00">600 → 601 → ...</text>
</g>
<!-- timer1_fires3&#45;&gt;continue4 -->
<g id="edge19" class="edge">
<title>timer1_fires3&#45;&gt;continue4</title>
<path fill="none" stroke="black" d="M125.5,-519.57C125.5,-511.87 125.5,-502.71 125.5,-494.16"/>
<polygon fill="black" stroke="black" points="129,-494.15 125.5,-484.15 122,-494.15 129,-494.15"/>
</g>
<!-- timer2_fires -->
<g id="node21" class="node">
<title>timer2_fires</title>
<path fill="lightcoral" stroke="black" d="M174,-409.74C174,-409.74 77,-409.74 77,-409.74 71,-409.74 65,-403.74 65,-397.74 65,-397.74 65,-368.74 65,-368.74 65,-362.74 71,-356.74 77,-356.74 77,-356.74 174,-356.74 174,-356.74 180,-356.74 186,-362.74 186,-368.74 186,-368.74 186,-397.74 186,-397.74 186,-403.74 180,-409.74 174,-409.74"/>
<text text-anchor="middle" x="125.5" y="-394.54" font-family="Arial" font-size="14.00">Counter = 700</text>
<text text-anchor="middle" x="125.5" y="-379.54" font-family="Arial" font-size="14.00">Timer 2 Fires</text>
<text text-anchor="middle" x="125.5" y="-364.54" font-family="Arial" font-size="14.00">(one&#45;shot → idle)</text>
</g>
<!-- continue4&#45;&gt;timer2_fires -->
<g id="edge20" class="edge">
<title>continue4&#45;&gt;timer2_fires</title>
<path fill="none" stroke="black" d="M125.5,-445.7C125.5,-438.06 125.5,-428.88 125.5,-419.97"/>
<polygon fill="black" stroke="black" points="129,-419.74 125.5,-409.74 122,-419.74 129,-419.74"/>
</g>
<!-- irq2 -->
<g id="node22" class="node">
<title>irq2</title>
<path fill="red" stroke="black" d="M188.5,-320.74C188.5,-320.74 62.5,-320.74 62.5,-320.74 56.5,-320.74 50.5,-314.74 50.5,-308.74 50.5,-308.74 50.5,-294.74 50.5,-294.74 50.5,-288.74 56.5,-282.74 62.5,-282.74 62.5,-282.74 188.5,-282.74 188.5,-282.74 194.5,-282.74 200.5,-288.74 200.5,-294.74 200.5,-294.74 200.5,-308.74 200.5,-308.74 200.5,-314.74 194.5,-320.74 188.5,-320.74"/>
<text text-anchor="middle" x="125.5" y="-305.54" font-family="Arial" font-size="14.00" fill="white">IRQ[2] Asserts</text>
<text text-anchor="middle" x="125.5" y="-290.54" font-family="Arial" font-size="14.00" fill="white">HPET_STATUS[2] = 1</text>
</g>
<!-- timer2_fires&#45;&gt;irq2 -->
<g id="edge21" class="edge">
<title>timer2_fires&#45;&gt;irq2</title>
<path fill="none" stroke="black" d="M125.5,-356.65C125.5,-348.48 125.5,-339.39 125.5,-331.04"/>
<polygon fill="black" stroke="black" points="129,-330.98 125.5,-320.98 122,-330.98 129,-330.98"/>
</g>
<!-- final_state -->
<g id="node23" class="node">
<title>final_state</title>
<path fill="lightyellow" stroke="black" d="M239,-246.74C239,-246.74 12,-246.74 12,-246.74 6,-246.74 0,-240.74 0,-234.74 0,-234.74 0,-190.74 0,-190.74 0,-184.74 6,-178.74 12,-178.74 12,-178.74 239,-178.74 239,-178.74 245,-178.74 251,-184.74 251,-190.74 251,-190.74 251,-234.74 251,-234.74 251,-240.74 245,-246.74 239,-246.74"/>
<text text-anchor="middle" x="125.5" y="-231.54" font-family="Arial" font-size="14.00">Final State:</text>
<text text-anchor="middle" x="125.5" y="-216.54" font-family="Arial" font-size="14.00">• Timer 0: Idle (fired at 100)</text>
<text text-anchor="middle" x="125.5" y="-201.54" font-family="Arial" font-size="14.00">• Timer 1: Active (fires at 800, 1000, ...)</text>
<text text-anchor="middle" x="125.5" y="-186.54" font-family="Arial" font-size="14.00">• Timer 2: Idle (fired at 700)</text>
</g>
<!-- irq2&#45;&gt;final_state -->
<g id="edge22" class="edge">
<title>irq2&#45;&gt;final_state</title>
<path fill="none" stroke="black" d="M125.5,-282.71C125.5,-275.19 125.5,-266.1 125.5,-257.02"/>
<polygon fill="black" stroke="black" points="129,-256.86 125.5,-246.86 122,-256.86 129,-256.86"/>
</g>
<!-- sw_handles -->
<g id="node24" class="node">
<title>sw_handles</title>
<path fill="lightgreen" stroke="black" d="M204.5,-142.74C204.5,-142.74 46.5,-142.74 46.5,-142.74 40.5,-142.74 34.5,-136.74 34.5,-130.74 34.5,-130.74 34.5,-101.74 34.5,-101.74 34.5,-95.74 40.5,-89.74 46.5,-89.74 46.5,-89.74 204.5,-89.74 204.5,-89.74 210.5,-89.74 216.5,-95.74 216.5,-101.74 216.5,-101.74 216.5,-130.74 216.5,-130.74 216.5,-136.74 210.5,-142.74 204.5,-142.74"/>
<text text-anchor="middle" x="125.5" y="-127.54" font-family="Arial" font-size="14.00">Software ISR</text>
<text text-anchor="middle" x="125.5" y="-112.54" font-family="Arial" font-size="14.00">Handles all IRQs</text>
<text text-anchor="middle" x="125.5" y="-97.54" font-family="Arial" font-size="14.00">(see interrupt_handling.dot)</text>
</g>
<!-- final_state&#45;&gt;sw_handles -->
<g id="edge23" class="edge">
<title>final_state&#45;&gt;sw_handles</title>
<path fill="none" stroke="black" d="M125.5,-178.69C125.5,-170.46 125.5,-161.59 125.5,-153.22"/>
<polygon fill="black" stroke="black" points="129,-152.98 125.5,-142.98 122,-152.98 129,-152.98"/>
</g>
<!-- end -->
<g id="node25" class="node">
<title>end</title>
<ellipse fill="lightgreen" stroke="black" cx="125.5" cy="-26.87" rx="79.81" ry="26.74"/>
<text text-anchor="middle" x="125.5" y="-30.67" font-family="Arial" font-size="14.00">Timers Running</text>
<text text-anchor="middle" x="125.5" y="-15.67" font-family="Arial" font-size="14.00">Independently</text>
</g>
<!-- sw_handles&#45;&gt;end -->
<g id="edge24" class="edge">
<title>sw_handles&#45;&gt;end</title>
<path fill="none" stroke="black" d="M125.5,-89.5C125.5,-81.55 125.5,-72.65 125.5,-64.14"/>
<polygon fill="black" stroke="black" points="129,-64.03 125.5,-54.03 122,-64.03 129,-64.03"/>
</g>
<!-- note1 -->
<g id="node26" class="node">
<title>note1</title>
<polygon fill="yellow" stroke="black" points="390.5,-1429.74 216.5,-1429.74 216.5,-1376.74 396.5,-1376.74 396.5,-1423.74 390.5,-1429.74"/>
<polyline fill="none" stroke="black" points="390.5,-1429.74 390.5,-1423.74 "/>
<polyline fill="none" stroke="black" points="396.5,-1423.74 390.5,-1423.74 "/>
<text text-anchor="middle" x="306.5" y="-1414.54" font-family="Arial" font-size="14.00">Key Point: All timers</text>
<text text-anchor="middle" x="306.5" y="-1399.54" font-family="Arial" font-size="14.00">share same counter</text>
<text text-anchor="middle" x="306.5" y="-1384.54" font-family="Arial" font-size="14.00">but compare independently</text>
</g>
<!-- note2 -->
<g id="node27" class="node">
<title>note2</title>
<polygon fill="lightyellow" stroke="black" points="347,-794.74 210,-794.74 210,-741.74 353,-741.74 353,-788.74 347,-794.74"/>
<polyline fill="none" stroke="black" points="347,-794.74 347,-788.74 "/>
<polyline fill="none" stroke="black" points="353,-788.74 347,-788.74 "/>
<text text-anchor="middle" x="281.5" y="-779.54" font-family="Arial" font-size="14.00">Note: Periodic timers</text>
<text text-anchor="middle" x="281.5" y="-764.54" font-family="Arial" font-size="14.00">continue indefinitely</text>
<text text-anchor="middle" x="281.5" y="-749.54" font-family="Arial" font-size="14.00">One&#45;shot timers stop</text>
</g>
<!-- note3 -->
<g id="node28" class="node">
<title>note3</title>
<polygon fill="lightcoral" stroke="black" points="376.5,-142.74 234.5,-142.74 234.5,-89.74 382.5,-89.74 382.5,-136.74 376.5,-142.74"/>
<polyline fill="none" stroke="black" points="376.5,-142.74 376.5,-136.74 "/>
<polyline fill="none" stroke="black" points="382.5,-136.74 376.5,-136.74 "/>
<text text-anchor="middle" x="308.5" y="-127.54" font-family="Arial" font-size="14.00">Critical: Multiple IRQs</text>
<text text-anchor="middle" x="308.5" y="-112.54" font-family="Arial" font-size="14.00">can be pending</text>
<text text-anchor="middle" x="308.5" y="-97.54" font-family="Arial" font-size="14.00">simultaneously</text>
</g>
</g>
</svg>
