<?xml version="1.0" encoding="UTF-8" standalone="no"?>
<!DOCTYPE svg PUBLIC "-//W3C//DTD SVG 1.1//EN"
 "http://www.w3.org/Graphics/SVG/1.1/DTD/svg11.dtd">
<!-- Generated by graphviz version 2.43.0 (0)
 -->
<!-- Title: gpio_interrupt Pages: 1 -->
<svg width="964pt" height="882pt"
 viewBox="0.00 0.00 963.96 882.00" xmlns="http://www.w3.org/2000/svg" xmlns:xlink="http://www.w3.org/1999/xlink">
<g id="graph0" class="graph" transform="scale(1 1) rotate(0) translate(4 878)">
<title>gpio_interrupt</title>
<polygon fill="white" stroke="transparent" points="-4,4 -4,-878 959.96,-878 959.96,4 -4,4"/>
<g id="clust1" class="cluster">
<title>cluster_edge</title>
<polygon fill="none" stroke="black" stroke-dasharray="5,2" points="199.54,-481 199.54,-801 471.54,-801 471.54,-481 199.54,-481"/>
<text text-anchor="middle" x="335.54" y="-785.8" font-family="Times,serif" font-size="14.00">Edge Detection</text>
</g>
<g id="clust2" class="cluster">
<title>cluster_level</title>
<polygon fill="none" stroke="black" stroke-dasharray="5,2" points="705.54,-462 705.54,-577 925.54,-577 925.54,-462 705.54,-462"/>
<text text-anchor="middle" x="815.54" y="-561.8" font-family="Times,serif" font-size="14.00">Level Detection</text>
</g>
<g id="clust3" class="cluster">
<title>cluster_status</title>
<polygon fill="none" stroke="black" stroke-dasharray="5,2" points="328.54,-75 328.54,-433 520.54,-433 520.54,-75 328.54,-75"/>
<text text-anchor="middle" x="424.54" y="-417.8" font-family="Times,serif" font-size="14.00">Status Generation</text>
</g>
<!-- synced_in -->
<g id="node1" class="node">
<title>synced_in</title>
<ellipse fill="lightgreen" stroke="black" cx="403.54" cy="-856" rx="81.49" ry="18"/>
<text text-anchor="middle" x="403.54" y="-852.3" font-family="Times,serif" font-size="14.00">synced_input[i]</text>
</g>
<!-- prev_val -->
<g id="node7" class="node">
<title>prev_val</title>
<path fill="lightyellow" stroke="black" d="M431.04,-770C431.04,-770 376.04,-770 376.04,-770 370.04,-770 364.04,-764 364.04,-758 364.04,-758 364.04,-729 364.04,-729 364.04,-723 370.04,-717 376.04,-717 376.04,-717 431.04,-717 431.04,-717 437.04,-717 443.04,-723 443.04,-729 443.04,-729 443.04,-758 443.04,-758 443.04,-764 437.04,-770 431.04,-770"/>
<text text-anchor="middle" x="403.54" y="-754.8" font-family="Times,serif" font-size="14.00">Previous</text>
<text text-anchor="middle" x="403.54" y="-739.8" font-family="Times,serif" font-size="14.00">Value</text>
<text text-anchor="middle" x="403.54" y="-724.8" font-family="Times,serif" font-size="14.00">Register</text>
</g>
<!-- synced_in&#45;&gt;prev_val -->
<g id="edge1" class="edge">
<title>synced_in&#45;&gt;prev_val</title>
<path fill="none" stroke="black" d="M403.54,-837.73C403.54,-822.47 403.54,-799.72 403.54,-780.51"/>
<polygon fill="black" stroke="black" points="407.04,-780.27 403.54,-770.27 400.04,-780.27 407.04,-780.27"/>
<text text-anchor="middle" x="411.04" y="-812" font-family="Times,serif" font-size="10.00">clk</text>
</g>
<!-- edge_xor -->
<g id="node8" class="node">
<title>edge_xor</title>
<path fill="lightcyan" stroke="black" d="M324.04,-676.58C324.04,-676.58 219.05,-645.42 219.05,-645.42 213.29,-643.71 213.29,-640.29 219.05,-638.58 219.05,-638.58 324.04,-607.42 324.04,-607.42 329.79,-605.71 341.29,-605.71 347.05,-607.42 347.05,-607.42 452.04,-638.58 452.04,-638.58 457.79,-640.29 457.79,-643.71 452.04,-645.42 452.04,-645.42 347.05,-676.58 347.05,-676.58 341.29,-678.29 329.79,-678.29 324.04,-676.58"/>
<text text-anchor="middle" x="335.54" y="-645.8" font-family="Times,serif" font-size="14.00">XOR</text>
<text text-anchor="middle" x="335.54" y="-630.8" font-family="Times,serif" font-size="14.00">(change detect)</text>
</g>
<!-- synced_in&#45;&gt;edge_xor -->
<g id="edge2" class="edge">
<title>synced_in&#45;&gt;edge_xor</title>
<path fill="none" stroke="black" d="M384.03,-838.5C373.81,-828.7 362.08,-815.39 355.54,-801 339.65,-766.02 335.12,-722.46 334.3,-689.94"/>
<polygon fill="black" stroke="black" points="337.8,-689.74 334.15,-679.8 330.8,-689.85 337.8,-689.74"/>
</g>
<!-- level_cmp -->
<g id="node10" class="node">
<title>level_cmp</title>
<path fill="lightcyan" stroke="black" d="M804.3,-541.81C804.3,-541.81 724.79,-512.19 724.79,-512.19 719.16,-510.09 719.16,-505.91 724.79,-503.81 724.79,-503.81 804.3,-474.19 804.3,-474.19 809.92,-472.09 821.16,-472.09 826.79,-474.19 826.79,-474.19 906.3,-503.81 906.3,-503.81 911.92,-505.91 911.92,-510.09 906.3,-512.19 906.3,-512.19 826.79,-541.81 826.79,-541.81 821.16,-543.91 809.92,-543.91 804.3,-541.81"/>
<text text-anchor="middle" x="815.54" y="-511.8" font-family="Times,serif" font-size="14.00">Level</text>
<text text-anchor="middle" x="815.54" y="-496.8" font-family="Times,serif" font-size="14.00">Comparator</text>
</g>
<!-- synced_in&#45;&gt;level_cmp -->
<g id="edge7" class="edge">
<title>synced_in&#45;&gt;level_cmp</title>
<path fill="none" stroke="black" d="M465.19,-844.26C594.16,-820.39 885.28,-758.79 942.54,-680 962.4,-652.68 957.67,-634.2 942.54,-604 927.25,-573.47 896.99,-550.23 869.83,-534.38"/>
<polygon fill="black" stroke="black" points="871.2,-531.14 860.77,-529.29 867.77,-537.24 871.2,-531.14"/>
</g>
<!-- int_type -->
<g id="node2" class="node">
<title>int_type</title>
<ellipse fill="lightgreen" stroke="black" cx="95.54" cy="-508" rx="95.58" ry="18"/>
<text text-anchor="middle" x="95.54" y="-504.3" font-family="Times,serif" font-size="14.00">GPIO_INT_TYPE[i]</text>
</g>
<!-- mode_sel -->
<g id="node11" class="node">
<title>mode_sel</title>
<path fill="lightcyan" stroke="black" d="M415.48,-394.13C415.48,-394.13 372.6,-356.87 372.6,-356.87 368.07,-352.94 368.07,-345.06 372.6,-341.13 372.6,-341.13 415.48,-303.87 415.48,-303.87 420.01,-299.94 429.07,-299.94 433.6,-303.87 433.6,-303.87 476.48,-341.13 476.48,-341.13 481.01,-345.06 481.01,-352.94 476.48,-356.87 476.48,-356.87 433.6,-394.13 433.6,-394.13 429.07,-398.06 420.01,-398.06 415.48,-394.13"/>
<text text-anchor="middle" x="424.54" y="-360.3" font-family="Times,serif" font-size="14.00">Mode</text>
<text text-anchor="middle" x="424.54" y="-345.3" font-family="Times,serif" font-size="14.00">Select</text>
<text text-anchor="middle" x="424.54" y="-330.3" font-family="Times,serif" font-size="14.00">Mux</text>
</g>
<!-- int_type&#45;&gt;mode_sel -->
<g id="edge11" class="edge">
<title>int_type&#45;&gt;mode_sel</title>
<path fill="none" stroke="black" d="M128.9,-491.08C187.49,-463.12 309.05,-405.11 376.62,-372.87"/>
<polygon fill="black" stroke="black" points="378.27,-375.96 385.79,-368.49 375.25,-369.64 378.27,-375.96"/>
</g>
<!-- int_pol -->
<g id="node3" class="node">
<title>int_pol</title>
<ellipse fill="lightgreen" stroke="black" cx="815.54" cy="-642" rx="118.08" ry="18"/>
<text text-anchor="middle" x="815.54" y="-638.3" font-family="Times,serif" font-size="14.00">GPIO_INT_POLARITY[i]</text>
</g>
<!-- edge_qual -->
<g id="node9" class="node">
<title>edge_qual</title>
<path fill="lightcyan" stroke="black" d="M451.54,-527C451.54,-527 397.54,-527 397.54,-527 391.54,-527 385.54,-521 385.54,-515 385.54,-515 385.54,-501 385.54,-501 385.54,-495 391.54,-489 397.54,-489 397.54,-489 451.54,-489 451.54,-489 457.54,-489 463.54,-495 463.54,-501 463.54,-501 463.54,-515 463.54,-515 463.54,-521 457.54,-527 451.54,-527"/>
<text text-anchor="middle" x="424.54" y="-511.8" font-family="Times,serif" font-size="14.00">Edge</text>
<text text-anchor="middle" x="424.54" y="-496.8" font-family="Times,serif" font-size="14.00">Qualifier</text>
</g>
<!-- int_pol&#45;&gt;edge_qual -->
<g id="edge5" class="edge">
<title>int_pol&#45;&gt;edge_qual</title>
<path fill="none" stroke="black" d="M769.15,-625.34C694.81,-600.24 549.65,-551.24 473.63,-525.57"/>
<polygon fill="black" stroke="black" points="474.42,-522.14 463.82,-522.26 472.18,-528.78 474.42,-522.14"/>
</g>
<!-- int_pol&#45;&gt;level_cmp -->
<g id="edge8" class="edge">
<title>int_pol&#45;&gt;level_cmp</title>
<path fill="none" stroke="black" d="M815.54,-623.74C815.54,-606.64 815.54,-579.66 815.54,-556.16"/>
<polygon fill="black" stroke="black" points="819.04,-556 815.54,-546 812.04,-556 819.04,-556"/>
</g>
<!-- int_both -->
<g id="node4" class="node">
<title>int_both</title>
<ellipse fill="lightgreen" stroke="black" cx="580.54" cy="-642" rx="98.58" ry="18"/>
<text text-anchor="middle" x="580.54" y="-638.3" font-family="Times,serif" font-size="14.00">GPIO_INT_BOTH[i]</text>
</g>
<!-- int_both&#45;&gt;edge_qual -->
<g id="edge6" class="edge">
<title>int_both&#45;&gt;edge_qual</title>
<path fill="none" stroke="black" d="M560.78,-624.28C533.77,-601.42 485.08,-560.23 453.82,-533.77"/>
<polygon fill="black" stroke="black" points="455.78,-530.85 445.88,-527.06 451.26,-536.19 455.78,-530.85"/>
</g>
<!-- int_enable -->
<g id="node5" class="node">
<title>int_enable</title>
<ellipse fill="lightgreen" stroke="black" cx="639.54" cy="-222.5" rx="111.28" ry="18"/>
<text text-anchor="middle" x="639.54" y="-218.8" font-family="Times,serif" font-size="14.00">GPIO_INT_ENABLE[i]</text>
</g>
<!-- enable_gate -->
<g id="node13" class="node">
<title>enable_gate</title>
<path fill="lightcyan" stroke="black" d="M413.52,-154.24C413.52,-154.24 347.56,-125.76 347.56,-125.76 342.05,-123.38 342.05,-118.62 347.56,-116.24 347.56,-116.24 413.52,-87.76 413.52,-87.76 419.03,-85.38 430.05,-85.38 435.56,-87.76 435.56,-87.76 501.52,-116.24 501.52,-116.24 507.03,-118.62 507.03,-123.38 501.52,-125.76 501.52,-125.76 435.56,-154.24 435.56,-154.24 430.05,-156.62 419.03,-156.62 413.52,-154.24"/>
<text text-anchor="middle" x="424.54" y="-124.8" font-family="Times,serif" font-size="14.00">Enable</text>
<text text-anchor="middle" x="424.54" y="-109.8" font-family="Times,serif" font-size="14.00">AND Gate</text>
</g>
<!-- int_enable&#45;&gt;enable_gate -->
<g id="edge16" class="edge">
<title>int_enable&#45;&gt;enable_gate</title>
<path fill="none" stroke="black" d="M604.52,-205.29C569.49,-189.08 515.24,-163.97 475.45,-145.56"/>
<polygon fill="black" stroke="black" points="476.73,-142.29 466.18,-141.27 473.79,-148.65 476.73,-142.29"/>
</g>
<!-- int_clear -->
<g id="node6" class="node">
<title>int_clear</title>
<ellipse fill="lightgreen" stroke="black" cx="613.54" cy="-349" rx="85.29" ry="18"/>
<text text-anchor="middle" x="613.54" y="-345.3" font-family="Times,serif" font-size="14.00">Write&#45;1&#45;to&#45;Clear</text>
</g>
<!-- status_reg -->
<g id="node12" class="node">
<title>status_reg</title>
<path fill="lightyellow" stroke="black" d="M451.04,-249C451.04,-249 398.04,-249 398.04,-249 392.04,-249 386.04,-243 386.04,-237 386.04,-237 386.04,-208 386.04,-208 386.04,-202 392.04,-196 398.04,-196 398.04,-196 451.04,-196 451.04,-196 457.04,-196 463.04,-202 463.04,-208 463.04,-208 463.04,-237 463.04,-237 463.04,-243 457.04,-249 451.04,-249"/>
<text text-anchor="middle" x="424.54" y="-233.8" font-family="Times,serif" font-size="14.00">Status</text>
<text text-anchor="middle" x="424.54" y="-218.8" font-family="Times,serif" font-size="14.00">Register</text>
<text text-anchor="middle" x="424.54" y="-203.8" font-family="Times,serif" font-size="14.00">(W1C)</text>
</g>
<!-- int_clear&#45;&gt;status_reg -->
<g id="edge13" class="edge">
<title>int_clear&#45;&gt;status_reg</title>
<path fill="none" stroke="black" d="M588.83,-331.72C559.28,-312.26 509.16,-279.24 472.03,-254.78"/>
<polygon fill="black" stroke="black" points="473.65,-251.66 463.37,-249.08 469.8,-257.5 473.65,-251.66"/>
<text text-anchor="middle" x="514.04" y="-270" font-family="Times,serif" font-size="10.00">clear</text>
</g>
<!-- prev_val&#45;&gt;edge_xor -->
<g id="edge3" class="edge">
<title>prev_val&#45;&gt;edge_xor</title>
<path fill="none" stroke="black" d="M386.03,-716.88C378.81,-706.31 370.28,-693.83 362.31,-682.17"/>
<polygon fill="black" stroke="black" points="365.16,-680.14 356.63,-673.86 359.38,-684.09 365.16,-680.14"/>
</g>
<!-- edge_xor&#45;&gt;edge_qual -->
<g id="edge4" class="edge">
<title>edge_xor&#45;&gt;edge_qual</title>
<path fill="none" stroke="black" d="M356.41,-610.05C371.67,-587.41 392.16,-557.03 406.67,-535.5"/>
<polygon fill="black" stroke="black" points="409.61,-537.4 412.3,-527.16 403.81,-533.49 409.61,-537.4"/>
</g>
<!-- edge_qual&#45;&gt;mode_sel -->
<g id="edge9" class="edge">
<title>edge_qual&#45;&gt;mode_sel</title>
<path fill="none" stroke="black" d="M424.54,-488.99C424.54,-470.27 424.54,-439.9 424.54,-412.31"/>
<polygon fill="black" stroke="black" points="428.04,-412.3 424.54,-402.3 421.04,-412.3 428.04,-412.3"/>
<text text-anchor="middle" x="453.54" y="-444" font-family="Times,serif" font-size="10.00">edge event</text>
</g>
<!-- level_cmp&#45;&gt;mode_sel -->
<g id="edge10" class="edge">
<title>level_cmp&#45;&gt;mode_sel</title>
<path fill="none" stroke="black" d="M739.99,-498.13C677.99,-488.56 589.38,-469.49 519.54,-433 496.99,-421.21 475.33,-403.03 458.41,-386.68"/>
<polygon fill="black" stroke="black" points="460.55,-383.87 450.98,-379.32 455.63,-388.85 460.55,-383.87"/>
<text text-anchor="middle" x="569.04" y="-444" font-family="Times,serif" font-size="10.00">level</text>
</g>
<!-- mode_sel&#45;&gt;status_reg -->
<g id="edge12" class="edge">
<title>mode_sel&#45;&gt;status_reg</title>
<path fill="none" stroke="black" d="M424.54,-295.92C424.54,-283.58 424.54,-270.68 424.54,-259.25"/>
<polygon fill="black" stroke="black" points="428.04,-259.23 424.54,-249.23 421.04,-259.23 428.04,-259.23"/>
</g>
<!-- status_reg&#45;&gt;enable_gate -->
<g id="edge15" class="edge">
<title>status_reg&#45;&gt;enable_gate</title>
<path fill="none" stroke="black" d="M424.54,-195.88C424.54,-187.76 424.54,-178.51 424.54,-169.37"/>
<polygon fill="black" stroke="black" points="428.04,-169.17 424.54,-159.17 421.04,-169.17 428.04,-169.17"/>
</g>
<!-- int_status -->
<g id="node14" class="node">
<title>int_status</title>
<ellipse fill="pink" stroke="black" cx="209.54" cy="-121" rx="108.58" ry="18"/>
<text text-anchor="middle" x="209.54" y="-117.3" font-family="Times,serif" font-size="14.00">GPIO_INT_STATUS[i]</text>
</g>
<!-- status_reg&#45;&gt;int_status -->
<g id="edge14" class="edge">
<title>status_reg&#45;&gt;int_status</title>
<path fill="none" stroke="black" d="M385.61,-203.48C348.46,-186.29 292.56,-160.42 253.75,-142.46"/>
<polygon fill="black" stroke="black" points="254.82,-139.1 244.28,-138.08 251.88,-145.45 254.82,-139.1"/>
</g>
<!-- irq -->
<g id="node15" class="node">
<title>irq</title>
<ellipse fill="pink" stroke="black" cx="424.54" cy="-18" rx="27" ry="18"/>
<text text-anchor="middle" x="424.54" y="-14.3" font-family="Times,serif" font-size="14.00">irq</text>
</g>
<!-- enable_gate&#45;&gt;irq -->
<g id="edge17" class="edge">
<title>enable_gate&#45;&gt;irq</title>
<path fill="none" stroke="black" d="M424.54,-82.96C424.54,-70.85 424.54,-57.62 424.54,-46.35"/>
<polygon fill="black" stroke="black" points="428.04,-46.24 424.54,-36.24 421.04,-46.24 428.04,-46.24"/>
<text text-anchor="middle" x="452.54" y="-57" font-family="Times,serif" font-size="10.00">OR all pins</text>
</g>
</g>
</svg>
