<?xml version="1.0" encoding="UTF-8" standalone="no"?>
<!DOCTYPE svg PUBLIC "-//W3C//DTD SVG 1.1//EN"
 "http://www.w3.org/Graphics/SVG/1.1/DTD/svg11.dtd">
<!-- Generated by graphviz version 2.43.0 (0)
 -->
<!-- Title: gpio_core Pages: 1 -->
<svg width="797pt" height="354pt"
 viewBox="0.00 0.00 796.62 353.74" xmlns="http://www.w3.org/2000/svg" xmlns:xlink="http://www.w3.org/1999/xlink">
<g id="graph0" class="graph" transform="scale(1 1) rotate(0) translate(4 349.74)">
<title>gpio_core</title>
<polygon fill="white" stroke="transparent" points="-4,4 -4,-349.74 792.62,-349.74 792.62,4 -4,4"/>
<g id="clust1" class="cluster">
<title>cluster_sync</title>
<polygon fill="none" stroke="black" stroke-dasharray="5,2" points="145.38,-82.74 145.38,-263.74 299.38,-263.74 299.38,-82.74 145.38,-82.74"/>
<text text-anchor="middle" x="222.38" y="-248.54" font-family="Times,serif" font-size="14.00">Input Synchronizer</text>
</g>
<g id="clust2" class="cluster">
<title>cluster_dir</title>
<polygon fill="none" stroke="black" stroke-dasharray="5,2" points="378.38,-167.74 378.38,-282.74 674.38,-282.74 674.38,-167.74 378.38,-167.74"/>
<text text-anchor="middle" x="526.38" y="-267.54" font-family="Times,serif" font-size="14.00">Direction Control</text>
</g>
<!-- gpio_in -->
<g id="node1" class="node">
<title>gpio_in</title>
<ellipse fill="lightgreen" stroke="black" cx="222.38" cy="-327.74" rx="71.49" ry="18"/>
<text text-anchor="middle" x="222.38" y="-324.04" font-family="Times,serif" font-size="14.00">gpio_in[31:0]</text>
</g>
<!-- sync_ff1 -->
<g id="node4" class="node">
<title>sync_ff1</title>
<path fill="lightyellow" stroke="black" d="M271.38,-232.74C271.38,-232.74 173.38,-232.74 173.38,-232.74 167.38,-232.74 161.38,-226.74 161.38,-220.74 161.38,-220.74 161.38,-206.74 161.38,-206.74 161.38,-200.74 167.38,-194.74 173.38,-194.74 173.38,-194.74 271.38,-194.74 271.38,-194.74 277.38,-194.74 283.38,-200.74 283.38,-206.74 283.38,-206.74 283.38,-220.74 283.38,-220.74 283.38,-226.74 277.38,-232.74 271.38,-232.74"/>
<text text-anchor="middle" x="222.38" y="-217.54" font-family="Times,serif" font-size="14.00">FF Stage 1</text>
<text text-anchor="middle" x="222.38" y="-202.54" font-family="Times,serif" font-size="14.00">(metastability)</text>
</g>
<!-- gpio_in&#45;&gt;sync_ff1 -->
<g id="edge1" class="edge">
<title>gpio_in&#45;&gt;sync_ff1</title>
<path fill="none" stroke="black" d="M222.38,-309.73C222.38,-292.12 222.38,-264.29 222.38,-243.29"/>
<polygon fill="black" stroke="black" points="225.88,-243.03 222.38,-233.03 218.88,-243.03 225.88,-243.03"/>
</g>
<!-- direction -->
<g id="node2" class="node">
<title>direction</title>
<ellipse fill="lightgreen" stroke="black" cx="434.38" cy="-327.74" rx="122.38" ry="18"/>
<text text-anchor="middle" x="434.38" y="-324.04" font-family="Times,serif" font-size="14.00">GPIO_DIRECTION[31:0]</text>
</g>
<!-- dir_mux -->
<g id="node6" class="node">
<title>dir_mux</title>
<path fill="lightcyan" stroke="black" d="M572.47,-246.74C572.47,-246.74 511.29,-218.74 511.29,-218.74 505.84,-216.24 505.84,-211.24 511.29,-208.74 511.29,-208.74 572.47,-180.74 572.47,-180.74 577.92,-178.24 588.84,-178.24 594.29,-180.74 594.29,-180.74 655.47,-208.74 655.47,-208.74 660.92,-211.24 660.92,-216.24 655.47,-218.74 655.47,-218.74 594.29,-246.74 594.29,-246.74 588.84,-249.24 577.92,-249.24 572.47,-246.74"/>
<text text-anchor="middle" x="583.38" y="-217.54" font-family="Times,serif" font-size="14.00">Direction</text>
<text text-anchor="middle" x="583.38" y="-202.54" font-family="Times,serif" font-size="14.00">Mux</text>
</g>
<!-- direction&#45;&gt;dir_mux -->
<g id="edge5" class="edge">
<title>direction&#45;&gt;dir_mux</title>
<path fill="none" stroke="black" d="M456.69,-309.97C479.89,-292.53 516.66,-264.89 544.63,-243.87"/>
<polygon fill="black" stroke="black" points="546.74,-246.66 552.63,-237.85 542.53,-241.07 546.74,-246.66"/>
</g>
<!-- oe_gen -->
<g id="node7" class="node">
<title>oe_gen</title>
<path fill="lightcyan" stroke="black" d="M470.38,-232.74C470.38,-232.74 398.38,-232.74 398.38,-232.74 392.38,-232.74 386.38,-226.74 386.38,-220.74 386.38,-220.74 386.38,-206.74 386.38,-206.74 386.38,-200.74 392.38,-194.74 398.38,-194.74 398.38,-194.74 470.38,-194.74 470.38,-194.74 476.38,-194.74 482.38,-200.74 482.38,-206.74 482.38,-206.74 482.38,-220.74 482.38,-220.74 482.38,-226.74 476.38,-232.74 470.38,-232.74"/>
<text text-anchor="middle" x="434.38" y="-217.54" font-family="Times,serif" font-size="14.00">OE</text>
<text text-anchor="middle" x="434.38" y="-202.54" font-family="Times,serif" font-size="14.00">Generation</text>
</g>
<!-- direction&#45;&gt;oe_gen -->
<g id="edge6" class="edge">
<title>direction&#45;&gt;oe_gen</title>
<path fill="none" stroke="black" d="M434.38,-309.73C434.38,-292.12 434.38,-264.29 434.38,-243.29"/>
<polygon fill="black" stroke="black" points="437.88,-243.03 434.38,-233.03 430.88,-243.03 437.88,-243.03"/>
</g>
<!-- output_reg -->
<g id="node3" class="node">
<title>output_reg</title>
<ellipse fill="lightgreen" stroke="black" cx="681.38" cy="-327.74" rx="107.48" ry="18"/>
<text text-anchor="middle" x="681.38" y="-324.04" font-family="Times,serif" font-size="14.00">GPIO_OUTPUT[31:0]</text>
</g>
<!-- output_reg&#45;&gt;dir_mux -->
<g id="edge7" class="edge">
<title>output_reg&#45;&gt;dir_mux</title>
<path fill="none" stroke="black" d="M666.5,-309.73C652.5,-293.74 631.14,-269.33 613.58,-249.26"/>
<polygon fill="black" stroke="black" points="616.03,-246.74 606.81,-241.52 610.77,-251.35 616.03,-246.74"/>
</g>
<!-- sync_ff2 -->
<g id="node5" class="node">
<title>sync_ff2</title>
<path fill="lightyellow" stroke="black" d="M257.88,-128.74C257.88,-128.74 186.88,-128.74 186.88,-128.74 180.88,-128.74 174.88,-122.74 174.88,-116.74 174.88,-116.74 174.88,-102.74 174.88,-102.74 174.88,-96.74 180.88,-90.74 186.88,-90.74 186.88,-90.74 257.88,-90.74 257.88,-90.74 263.88,-90.74 269.88,-96.74 269.88,-102.74 269.88,-102.74 269.88,-116.74 269.88,-116.74 269.88,-122.74 263.88,-128.74 257.88,-128.74"/>
<text text-anchor="middle" x="222.38" y="-113.54" font-family="Times,serif" font-size="14.00">FF Stage 2</text>
<text text-anchor="middle" x="222.38" y="-98.54" font-family="Times,serif" font-size="14.00">(stable)</text>
</g>
<!-- sync_ff1&#45;&gt;sync_ff2 -->
<g id="edge2" class="edge">
<title>sync_ff1&#45;&gt;sync_ff2</title>
<path fill="none" stroke="black" d="M222.38,-194.5C222.38,-179.06 222.38,-156.65 222.38,-138.9"/>
<polygon fill="black" stroke="black" points="225.88,-138.82 222.38,-128.82 218.88,-138.82 225.88,-138.82"/>
<text text-anchor="middle" x="229.88" y="-149.74" font-family="Times,serif" font-size="10.00">clk</text>
</g>
<!-- synced_in -->
<g id="node10" class="node">
<title>synced_in</title>
<ellipse fill="pink" stroke="black" cx="117.38" cy="-26.87" rx="117.26" ry="26.74"/>
<text text-anchor="middle" x="117.38" y="-30.67" font-family="Times,serif" font-size="14.00">synced_input[31:0]</text>
<text text-anchor="middle" x="117.38" y="-15.67" font-family="Times,serif" font-size="14.00">(to GPIO_INPUT reg)</text>
</g>
<!-- sync_ff2&#45;&gt;synced_in -->
<g id="edge3" class="edge">
<title>sync_ff2&#45;&gt;synced_in</title>
<path fill="none" stroke="black" d="M198.82,-90.59C186.79,-81.33 171.81,-69.79 157.99,-59.15"/>
<polygon fill="black" stroke="black" points="160.08,-56.34 150.02,-53.01 155.81,-61.89 160.08,-56.34"/>
</g>
<!-- to_int -->
<g id="node11" class="node">
<title>to_int</title>
<ellipse fill="pink" stroke="black" cx="326.38" cy="-26.87" rx="73.58" ry="26.74"/>
<text text-anchor="middle" x="326.38" y="-30.67" font-family="Times,serif" font-size="14.00">To Interrupt</text>
<text text-anchor="middle" x="326.38" y="-15.67" font-family="Times,serif" font-size="14.00">Controller</text>
</g>
<!-- sync_ff2&#45;&gt;to_int -->
<g id="edge4" class="edge">
<title>sync_ff2&#45;&gt;to_int</title>
<path fill="none" stroke="black" d="M245.72,-90.59C258.13,-80.94 273.72,-68.82 287.87,-57.81"/>
<polygon fill="black" stroke="black" points="290.26,-60.39 296.01,-51.49 285.96,-54.86 290.26,-60.39"/>
</g>
<!-- gpio_out -->
<g id="node8" class="node">
<title>gpio_out</title>
<ellipse fill="pink" stroke="black" cx="593.38" cy="-109.74" rx="77.19" ry="18"/>
<text text-anchor="middle" x="593.38" y="-106.04" font-family="Times,serif" font-size="14.00">gpio_out[31:0]</text>
</g>
<!-- dir_mux&#45;&gt;gpio_out -->
<g id="edge8" class="edge">
<title>dir_mux&#45;&gt;gpio_out</title>
<path fill="none" stroke="black" d="M586.88,-177.07C588.13,-164.31 589.52,-150.14 590.69,-138.19"/>
<polygon fill="black" stroke="black" points="594.2,-138.23 591.69,-127.94 587.23,-137.55 594.2,-138.23"/>
</g>
<!-- gpio_oe -->
<g id="node9" class="node">
<title>gpio_oe</title>
<ellipse fill="pink" stroke="black" cx="424.38" cy="-109.74" rx="73.39" ry="18"/>
<text text-anchor="middle" x="424.38" y="-106.04" font-family="Times,serif" font-size="14.00">gpio_oe[31:0]</text>
</g>
<!-- oe_gen&#45;&gt;gpio_oe -->
<g id="edge9" class="edge">
<title>oe_gen&#45;&gt;gpio_oe</title>
<path fill="none" stroke="black" d="M432.59,-194.5C431.05,-178.77 428.8,-155.82 427.04,-137.92"/>
<polygon fill="black" stroke="black" points="430.51,-137.41 426.05,-127.8 423.54,-138.09 430.51,-137.41"/>
</g>
</g>
</svg>
