<?xml version="1.0" encoding="UTF-8" standalone="no"?>
<!DOCTYPE svg PUBLIC "-//W3C//DTD SVG 1.1//EN"
 "http://www.w3.org/Graphics/SVG/1.1/DTD/svg11.dtd">
<!-- Generated by graphviz version 2.43.0 (0)
 -->
<!-- Title: gpio_register_file Pages: 1 -->
<svg width="1441pt" height="295pt"
 viewBox="0.00 0.00 1441.00 294.69" xmlns="http://www.w3.org/2000/svg" xmlns:xlink="http://www.w3.org/1999/xlink">
<g id="graph0" class="graph" transform="scale(1 1) rotate(0) translate(4 290.69)">
<title>gpio_register_file</title>
<polygon fill="white" stroke="transparent" points="-4,4 -4,-290.69 1437,-290.69 1437,4 -4,4"/>
<g id="clust1" class="cluster">
<title>cluster_regs</title>
<path fill="none" stroke="black" d="M20,-82.74C20,-82.74 1413,-82.74 1413,-82.74 1419,-82.74 1425,-88.74 1425,-94.74 1425,-94.74 1425,-162.74 1425,-162.74 1425,-168.74 1419,-174.74 1413,-174.74 1413,-174.74 20,-174.74 20,-174.74 14,-174.74 8,-168.74 8,-162.74 8,-162.74 8,-94.74 8,-94.74 8,-88.74 14,-82.74 20,-82.74"/>
<text text-anchor="middle" x="716.5" y="-159.54" font-family="Times,serif" font-size="14.00">Register File (PeakRDL Generated)</text>
</g>
<!-- apb_in -->
<g id="node1" class="node">
<title>apb_in</title>
<ellipse fill="lightgreen" stroke="black" cx="702" cy="-249.22" rx="123.07" ry="37.45"/>
<text text-anchor="middle" x="702" y="-260.52" font-family="Times,serif" font-size="14.00">APB Interface</text>
<text text-anchor="middle" x="702" y="-245.52" font-family="Times,serif" font-size="14.00">paddr, pwdata, pwrite</text>
<text text-anchor="middle" x="702" y="-230.52" font-family="Times,serif" font-size="14.00">psel, penable, pstrb</text>
</g>
<!-- ctrl -->
<g id="node3" class="node">
<title>ctrl</title>
<path fill="lightyellow" stroke="black" d="M138,-143.74C138,-143.74 28,-143.74 28,-143.74 22,-143.74 16,-137.74 16,-131.74 16,-131.74 16,-102.74 16,-102.74 16,-96.74 22,-90.74 28,-90.74 28,-90.74 138,-90.74 138,-90.74 144,-90.74 150,-96.74 150,-102.74 150,-102.74 150,-131.74 150,-131.74 150,-137.74 144,-143.74 138,-143.74"/>
<text text-anchor="middle" x="83" y="-128.54" font-family="Times,serif" font-size="14.00">GPIO_CONTROL</text>
<text text-anchor="middle" x="83" y="-113.54" font-family="Times,serif" font-size="14.00">[0x000]</text>
<text text-anchor="middle" x="83" y="-98.54" font-family="Times,serif" font-size="14.00">RW</text>
</g>
<!-- apb_in&#45;&gt;ctrl -->
<g id="edge1" class="edge">
<title>apb_in&#45;&gt;ctrl</title>
<path fill="none" stroke="black" d="M583.48,-239.14C447.5,-227.51 233.66,-205.16 159,-174.74 144.65,-168.89 130.56,-159.69 118.49,-150.4"/>
<polygon fill="black" stroke="black" points="120.48,-147.51 110.48,-143.99 116.11,-152.97 120.48,-147.51"/>
</g>
<!-- dir -->
<g id="node4" class="node">
<title>dir</title>
<path fill="lightyellow" stroke="black" d="M594,-143.74C594,-143.74 472,-143.74 472,-143.74 466,-143.74 460,-137.74 460,-131.74 460,-131.74 460,-102.74 460,-102.74 460,-96.74 466,-90.74 472,-90.74 472,-90.74 594,-90.74 594,-90.74 600,-90.74 606,-96.74 606,-102.74 606,-102.74 606,-131.74 606,-131.74 606,-137.74 600,-143.74 594,-143.74"/>
<text text-anchor="middle" x="533" y="-128.54" font-family="Times,serif" font-size="14.00">GPIO_DIRECTION</text>
<text text-anchor="middle" x="533" y="-113.54" font-family="Times,serif" font-size="14.00">[0x004]</text>
<text text-anchor="middle" x="533" y="-98.54" font-family="Times,serif" font-size="14.00">RW</text>
</g>
<!-- apb_in&#45;&gt;dir -->
<g id="edge2" class="edge">
<title>apb_in&#45;&gt;dir</title>
<path fill="none" stroke="black" d="M657.6,-214.07C631.74,-194.18 599.36,-169.28 574.1,-149.85"/>
<polygon fill="black" stroke="black" points="576.22,-147.06 566.16,-143.74 571.95,-152.61 576.22,-147.06"/>
</g>
<!-- out -->
<g id="node5" class="node">
<title>out</title>
<path fill="lightyellow" stroke="black" d="M429.5,-143.74C429.5,-143.74 330.5,-143.74 330.5,-143.74 324.5,-143.74 318.5,-137.74 318.5,-131.74 318.5,-131.74 318.5,-102.74 318.5,-102.74 318.5,-96.74 324.5,-90.74 330.5,-90.74 330.5,-90.74 429.5,-90.74 429.5,-90.74 435.5,-90.74 441.5,-96.74 441.5,-102.74 441.5,-102.74 441.5,-131.74 441.5,-131.74 441.5,-137.74 435.5,-143.74 429.5,-143.74"/>
<text text-anchor="middle" x="380" y="-128.54" font-family="Times,serif" font-size="14.00">GPIO_OUTPUT</text>
<text text-anchor="middle" x="380" y="-113.54" font-family="Times,serif" font-size="14.00">[0x008]</text>
<text text-anchor="middle" x="380" y="-98.54" font-family="Times,serif" font-size="14.00">RW</text>
</g>
<!-- apb_in&#45;&gt;out -->
<g id="edge3" class="edge">
<title>apb_in&#45;&gt;out</title>
<path fill="none" stroke="black" d="M600.55,-228.01C553.43,-216.28 497.65,-198.94 451,-174.74 438.28,-168.14 425.64,-159.11 414.63,-150.19"/>
<polygon fill="black" stroke="black" points="416.84,-147.48 406.92,-143.76 412.36,-152.85 416.84,-147.48"/>
</g>
<!-- inp -->
<g id="node6" class="node">
<title>inp</title>
<path fill="lightcyan" stroke="black" d="M1405,-143.74C1405,-143.74 1321,-143.74 1321,-143.74 1315,-143.74 1309,-137.74 1309,-131.74 1309,-131.74 1309,-102.74 1309,-102.74 1309,-96.74 1315,-90.74 1321,-90.74 1321,-90.74 1405,-90.74 1405,-90.74 1411,-90.74 1417,-96.74 1417,-102.74 1417,-102.74 1417,-131.74 1417,-131.74 1417,-137.74 1411,-143.74 1405,-143.74"/>
<text text-anchor="middle" x="1363" y="-128.54" font-family="Times,serif" font-size="14.00">GPIO_INPUT</text>
<text text-anchor="middle" x="1363" y="-113.54" font-family="Times,serif" font-size="14.00">[0x00C]</text>
<text text-anchor="middle" x="1363" y="-98.54" font-family="Times,serif" font-size="14.00">RO</text>
</g>
<!-- apb_in&#45;&gt;inp -->
<g id="edge4" class="edge">
<title>apb_in&#45;&gt;inp</title>
<path fill="none" stroke="black" d="M821.08,-239.55C988.4,-227.04 1275.15,-204.28 1296,-193.74 1314.47,-184.4 1330.16,-167.6 1341.71,-152.22"/>
<polygon fill="black" stroke="black" points="1344.7,-154.04 1347.68,-143.88 1339.01,-149.97 1344.7,-154.04"/>
</g>
<!-- ie -->
<g id="node7" class="node">
<title>ie</title>
<path fill="lightyellow" stroke="black" d="M768,-143.74C768,-143.74 636,-143.74 636,-143.74 630,-143.74 624,-137.74 624,-131.74 624,-131.74 624,-102.74 624,-102.74 624,-96.74 630,-90.74 636,-90.74 636,-90.74 768,-90.74 768,-90.74 774,-90.74 780,-96.74 780,-102.74 780,-102.74 780,-131.74 780,-131.74 780,-137.74 774,-143.74 768,-143.74"/>
<text text-anchor="middle" x="702" y="-128.54" font-family="Times,serif" font-size="14.00">GPIO_INT_ENABLE</text>
<text text-anchor="middle" x="702" y="-113.54" font-family="Times,serif" font-size="14.00">[0x010]</text>
<text text-anchor="middle" x="702" y="-98.54" font-family="Times,serif" font-size="14.00">RW</text>
</g>
<!-- apb_in&#45;&gt;ie -->
<g id="edge5" class="edge">
<title>apb_in&#45;&gt;ie</title>
<path fill="none" stroke="black" d="M702,-211.67C702,-193.59 702,-171.85 702,-153.9"/>
<polygon fill="black" stroke="black" points="705.5,-153.82 702,-143.82 698.5,-153.82 705.5,-153.82"/>
</g>
<!-- itype -->
<g id="node8" class="node">
<title>itype</title>
<path fill="lightyellow" stroke="black" d="M288,-143.74C288,-143.74 180,-143.74 180,-143.74 174,-143.74 168,-137.74 168,-131.74 168,-131.74 168,-102.74 168,-102.74 168,-96.74 174,-90.74 180,-90.74 180,-90.74 288,-90.74 288,-90.74 294,-90.74 300,-96.74 300,-102.74 300,-102.74 300,-131.74 300,-131.74 300,-137.74 294,-143.74 288,-143.74"/>
<text text-anchor="middle" x="234" y="-128.54" font-family="Times,serif" font-size="14.00">GPIO_INT_TYPE</text>
<text text-anchor="middle" x="234" y="-113.54" font-family="Times,serif" font-size="14.00">[0x014]</text>
<text text-anchor="middle" x="234" y="-98.54" font-family="Times,serif" font-size="14.00">RW</text>
</g>
<!-- apb_in&#45;&gt;itype -->
<g id="edge6" class="edge">
<title>apb_in&#45;&gt;itype</title>
<path fill="none" stroke="black" d="M582.54,-239.94C502.68,-231.05 396.75,-212.68 310,-174.74 295.93,-168.58 282,-159.4 269.99,-150.21"/>
<polygon fill="black" stroke="black" points="272.02,-147.35 262,-143.88 267.67,-152.84 272.02,-147.35"/>
</g>
<!-- ipol -->
<g id="node9" class="node">
<title>ipol</title>
<path fill="lightyellow" stroke="black" d="M953.5,-143.74C953.5,-143.74 810.5,-143.74 810.5,-143.74 804.5,-143.74 798.5,-137.74 798.5,-131.74 798.5,-131.74 798.5,-102.74 798.5,-102.74 798.5,-96.74 804.5,-90.74 810.5,-90.74 810.5,-90.74 953.5,-90.74 953.5,-90.74 959.5,-90.74 965.5,-96.74 965.5,-102.74 965.5,-102.74 965.5,-131.74 965.5,-131.74 965.5,-137.74 959.5,-143.74 953.5,-143.74"/>
<text text-anchor="middle" x="882" y="-128.54" font-family="Times,serif" font-size="14.00">GPIO_INT_POLARITY</text>
<text text-anchor="middle" x="882" y="-113.54" font-family="Times,serif" font-size="14.00">[0x018]</text>
<text text-anchor="middle" x="882" y="-98.54" font-family="Times,serif" font-size="14.00">RW</text>
</g>
<!-- apb_in&#45;&gt;ipol -->
<g id="edge7" class="edge">
<title>apb_in&#45;&gt;ipol</title>
<path fill="none" stroke="black" d="M748.82,-214.41C776.48,-194.43 811.27,-169.31 838.36,-149.75"/>
<polygon fill="black" stroke="black" points="840.44,-152.57 846.5,-143.88 836.34,-146.89 840.44,-152.57"/>
</g>
<!-- iboth -->
<g id="node10" class="node">
<title>iboth</title>
<path fill="lightyellow" stroke="black" d="M1108.5,-143.74C1108.5,-143.74 995.5,-143.74 995.5,-143.74 989.5,-143.74 983.5,-137.74 983.5,-131.74 983.5,-131.74 983.5,-102.74 983.5,-102.74 983.5,-96.74 989.5,-90.74 995.5,-90.74 995.5,-90.74 1108.5,-90.74 1108.5,-90.74 1114.5,-90.74 1120.5,-96.74 1120.5,-102.74 1120.5,-102.74 1120.5,-131.74 1120.5,-131.74 1120.5,-137.74 1114.5,-143.74 1108.5,-143.74"/>
<text text-anchor="middle" x="1052" y="-128.54" font-family="Times,serif" font-size="14.00">GPIO_INT_BOTH</text>
<text text-anchor="middle" x="1052" y="-113.54" font-family="Times,serif" font-size="14.00">[0x01C]</text>
<text text-anchor="middle" x="1052" y="-98.54" font-family="Times,serif" font-size="14.00">RW</text>
</g>
<!-- apb_in&#45;&gt;iboth -->
<g id="edge8" class="edge">
<title>apb_in&#45;&gt;iboth</title>
<path fill="none" stroke="black" d="M806.99,-229.49C859.14,-217.84 922.13,-200.15 975,-174.74 988.72,-168.15 1002.5,-159.01 1014.54,-150.01"/>
<polygon fill="black" stroke="black" points="1016.78,-152.71 1022.57,-143.84 1012.51,-147.16 1016.78,-152.71"/>
</g>
<!-- istat -->
<g id="node11" class="node">
<title>istat</title>
<path fill="pink" stroke="black" d="M1279,-143.74C1279,-143.74 1151,-143.74 1151,-143.74 1145,-143.74 1139,-137.74 1139,-131.74 1139,-131.74 1139,-102.74 1139,-102.74 1139,-96.74 1145,-90.74 1151,-90.74 1151,-90.74 1279,-90.74 1279,-90.74 1285,-90.74 1291,-96.74 1291,-102.74 1291,-102.74 1291,-131.74 1291,-131.74 1291,-137.74 1285,-143.74 1279,-143.74"/>
<text text-anchor="middle" x="1215" y="-128.54" font-family="Times,serif" font-size="14.00">GPIO_INT_STATUS</text>
<text text-anchor="middle" x="1215" y="-113.54" font-family="Times,serif" font-size="14.00">[0x020]</text>
<text text-anchor="middle" x="1215" y="-98.54" font-family="Times,serif" font-size="14.00">W1C</text>
</g>
<!-- apb_in&#45;&gt;istat -->
<g id="edge9" class="edge">
<title>apb_in&#45;&gt;istat</title>
<path fill="none" stroke="black" d="M822.31,-240.96C910.13,-232.5 1030.69,-214.21 1130,-174.74 1145.68,-168.51 1161.46,-159.09 1175.09,-149.73"/>
<polygon fill="black" stroke="black" points="1177.14,-152.56 1183.28,-143.93 1173.1,-146.85 1177.14,-152.56"/>
</g>
<!-- apb_out -->
<g id="node2" class="node">
<title>apb_out</title>
<ellipse fill="pink" stroke="black" cx="710" cy="-26.87" rx="116.98" ry="18"/>
<text text-anchor="middle" x="710" y="-23.17" font-family="Times,serif" font-size="14.00">prdata, pready, pslverr</text>
</g>
<!-- ctrl&#45;&gt;apb_out -->
<g id="edge10" class="edge">
<title>ctrl&#45;&gt;apb_out</title>
<path fill="none" stroke="black" d="M134.49,-90.71C142.54,-87.56 150.88,-84.74 159,-82.74 250.91,-60.09 490.2,-66.51 584,-53.74 601.66,-51.34 620.57,-47.91 638.21,-44.35"/>
<polygon fill="black" stroke="black" points="639.35,-47.68 648.44,-42.23 637.94,-40.83 639.35,-47.68"/>
</g>
<!-- hw_out -->
<g id="node13" class="node">
<title>hw_out</title>
<ellipse fill="pink" stroke="black" cx="491" cy="-26.87" rx="84.29" ry="26.74"/>
<text text-anchor="middle" x="491" y="-30.67" font-family="Times,serif" font-size="14.00">reg2hw</text>
<text text-anchor="middle" x="491" y="-15.67" font-family="Times,serif" font-size="14.00">(to GPIO core)</text>
</g>
<!-- ctrl&#45;&gt;hw_out -->
<g id="edge21" class="edge">
<title>ctrl&#45;&gt;hw_out</title>
<path fill="none" stroke="black" d="M136.34,-90.73C143.84,-87.74 151.54,-84.96 159,-82.74 239.02,-58.91 333.16,-44.58 400.72,-36.58"/>
<polygon fill="black" stroke="black" points="401.38,-40.03 410.91,-35.4 400.58,-33.07 401.38,-40.03"/>
</g>
<!-- dir&#45;&gt;apb_out -->
<g id="edge11" class="edge">
<title>dir&#45;&gt;apb_out</title>
<path fill="none" stroke="black" d="M591.61,-90.62C599.39,-87.71 607.33,-84.99 615,-82.74 638.42,-75.87 647.66,-84.59 669,-72.74 677.81,-67.85 685.75,-60.37 692.24,-52.91"/>
<polygon fill="black" stroke="black" points="695.12,-54.91 698.7,-44.94 689.68,-50.51 695.12,-54.91"/>
</g>
<!-- dir&#45;&gt;hw_out -->
<g id="edge22" class="edge">
<title>dir&#45;&gt;hw_out</title>
<path fill="none" stroke="black" d="M520.85,-90.68C516.71,-81.96 512,-72.06 507.57,-62.74"/>
<polygon fill="black" stroke="black" points="510.72,-61.21 503.27,-53.68 504.4,-64.21 510.72,-61.21"/>
</g>
<!-- out&#45;&gt;apb_out -->
<g id="edge12" class="edge">
<title>out&#45;&gt;apb_out</title>
<path fill="none" stroke="black" d="M427.96,-90.58C435.5,-87.45 443.33,-84.67 451,-82.74 533,-62.09 560.59,-98.9 641,-72.74 655.65,-67.97 670.2,-59.26 682.14,-50.77"/>
<polygon fill="black" stroke="black" points="684.39,-53.46 690.33,-44.69 680.21,-47.84 684.39,-53.46"/>
</g>
<!-- out&#45;&gt;hw_out -->
<g id="edge23" class="edge">
<title>out&#45;&gt;hw_out</title>
<path fill="none" stroke="black" d="M412.11,-90.68C424.73,-80.63 439.32,-69.01 452.5,-58.52"/>
<polygon fill="black" stroke="black" points="454.85,-61.12 460.49,-52.16 450.49,-55.65 454.85,-61.12"/>
</g>
<!-- inp&#45;&gt;apb_out -->
<g id="edge13" class="edge">
<title>inp&#45;&gt;apb_out</title>
<path fill="none" stroke="black" d="M1320.24,-90.65C1313.64,-87.55 1306.76,-84.76 1300,-82.74 1215.06,-57.33 977.04,-41.26 830.58,-33.48"/>
<polygon fill="black" stroke="black" points="830.36,-29.96 820.19,-32.93 830,-36.95 830.36,-29.96"/>
</g>
<!-- ie&#45;&gt;apb_out -->
<g id="edge14" class="edge">
<title>ie&#45;&gt;apb_out</title>
<path fill="none" stroke="black" d="M704.31,-90.68C705.32,-79.55 706.5,-66.5 707.53,-55.18"/>
<polygon fill="black" stroke="black" points="711.03,-55.26 708.45,-44.99 704.06,-54.63 711.03,-55.26"/>
</g>
<!-- ie&#45;&gt;hw_out -->
<g id="edge24" class="edge">
<title>ie&#45;&gt;hw_out</title>
<path fill="none" stroke="black" d="M640.97,-90.68C612.32,-78.68 578.32,-64.44 549.93,-52.55"/>
<polygon fill="black" stroke="black" points="551.12,-49.25 540.54,-48.62 548.41,-55.71 551.12,-49.25"/>
</g>
<!-- itype&#45;&gt;apb_out -->
<g id="edge15" class="edge">
<title>itype&#45;&gt;apb_out</title>
<path fill="none" stroke="black" d="M285.02,-90.62C293.2,-87.43 301.71,-84.63 310,-82.74 438.76,-53.35 478.17,-101.85 607,-72.74 629.13,-67.74 652.42,-58.02 671.25,-48.9"/>
<polygon fill="black" stroke="black" points="672.99,-51.94 680.38,-44.35 669.87,-45.67 672.99,-51.94"/>
</g>
<!-- itype&#45;&gt;hw_out -->
<g id="edge25" class="edge">
<title>itype&#45;&gt;hw_out</title>
<path fill="none" stroke="black" d="M290.13,-90.59C296.78,-87.82 303.51,-85.14 310,-82.74 345.31,-69.66 385.31,-57.29 418.71,-47.61"/>
<polygon fill="black" stroke="black" points="419.75,-50.96 428.39,-44.83 417.82,-44.23 419.75,-50.96"/>
</g>
<!-- ipol&#45;&gt;apb_out -->
<g id="edge16" class="edge">
<title>ipol&#45;&gt;apb_out</title>
<path fill="none" stroke="black" d="M835.79,-90.7C824.16,-84.4 811.67,-77.74 800,-71.74 785.04,-64.04 768.53,-55.89 753.77,-48.73"/>
<polygon fill="black" stroke="black" points="754.89,-45.39 744.36,-44.19 751.85,-51.69 754.89,-45.39"/>
</g>
<!-- ipol&#45;&gt;hw_out -->
<g id="edge26" class="edge">
<title>ipol&#45;&gt;hw_out</title>
<path fill="none" stroke="black" d="M816.22,-90.67C807.16,-87.7 797.91,-84.95 789,-82.74 699.69,-60.59 674.07,-72.56 584,-53.74 576.44,-52.16 568.6,-50.31 560.81,-48.35"/>
<polygon fill="black" stroke="black" points="561.56,-44.92 551,-45.8 559.8,-51.7 561.56,-44.92"/>
</g>
<!-- iboth&#45;&gt;apb_out -->
<g id="edge17" class="edge">
<title>iboth&#45;&gt;apb_out</title>
<path fill="none" stroke="black" d="M997.01,-90.69C989.69,-87.78 982.23,-85.03 975,-82.74 918.01,-64.66 852.19,-50.99 800.4,-41.82"/>
<polygon fill="black" stroke="black" points="800.69,-38.32 790.24,-40.05 799.49,-45.22 800.69,-38.32"/>
</g>
<!-- iboth&#45;&gt;hw_out -->
<g id="edge27" class="edge">
<title>iboth&#45;&gt;hw_out</title>
<path fill="none" stroke="black" d="M999.38,-90.6C991.36,-87.5 983.07,-84.73 975,-82.74 805.83,-40.95 755.66,-83.68 584,-53.74 576.08,-52.36 567.86,-50.59 559.73,-48.62"/>
<polygon fill="black" stroke="black" points="560.44,-45.19 549.89,-46.13 558.73,-51.97 560.44,-45.19"/>
</g>
<!-- istat&#45;&gt;apb_out -->
<g id="edge18" class="edge">
<title>istat&#45;&gt;apb_out</title>
<path fill="none" stroke="black" d="M1155.24,-90.58C1146.87,-87.61 1138.29,-84.88 1130,-82.74 1029.25,-56.73 911.56,-42.71 826.44,-35.37"/>
<polygon fill="black" stroke="black" points="826.48,-31.86 816.22,-34.51 825.89,-38.84 826.48,-31.86"/>
</g>
<!-- hw_in -->
<g id="node12" class="node">
<title>hw_in</title>
<ellipse fill="lightgreen" stroke="black" cx="1269" cy="-249.22" rx="97.66" ry="26.74"/>
<text text-anchor="middle" x="1269" y="-253.02" font-family="Times,serif" font-size="14.00">hw2reg</text>
<text text-anchor="middle" x="1269" y="-238.02" font-family="Times,serif" font-size="14.00">(from GPIO core)</text>
</g>
<!-- hw_in&#45;&gt;inp -->
<g id="edge19" class="edge">
<title>hw_in&#45;&gt;inp</title>
<path fill="none" stroke="black" d="M1297.36,-223.44C1306.52,-214.61 1316.28,-204.25 1324,-193.74 1333.14,-181.3 1341.32,-166.42 1347.8,-153.17"/>
<polygon fill="black" stroke="black" points="1351.09,-154.41 1352.21,-143.87 1344.76,-151.41 1351.09,-154.41"/>
<text text-anchor="middle" x="1362" y="-185.74" font-family="Times,serif" font-size="10.00">input values</text>
</g>
<!-- hw_in&#45;&gt;istat -->
<g id="edge20" class="edge">
<title>hw_in&#45;&gt;istat</title>
<path fill="none" stroke="black" d="M1258.2,-222.23C1249.94,-202.35 1238.48,-174.75 1229.43,-152.98"/>
<polygon fill="black" stroke="black" points="1232.66,-151.63 1225.6,-143.74 1226.2,-154.32 1232.66,-151.63"/>
<text text-anchor="middle" x="1269" y="-185.74" font-family="Times,serif" font-size="10.00">int status</text>
</g>
</g>
</svg>
