<?xml version="1.0" encoding="UTF-8" standalone="no"?>
<!DOCTYPE svg PUBLIC "-//W3C//DTD SVG 1.1//EN"
 "http://www.w3.org/Graphics/SVG/1.1/DTD/svg11.dtd">
<!-- Generated by graphviz version 2.43.0 (0)
 -->
<!-- Title: gpio_cdc Pages: 1 -->
<svg width="627pt" height="346pt"
 viewBox="0.00 0.00 626.89 345.87" xmlns="http://www.w3.org/2000/svg" xmlns:xlink="http://www.w3.org/1999/xlink">
<g id="graph0" class="graph" transform="scale(1 1) rotate(0) translate(4 341.87)">
<title>gpio_cdc</title>
<polygon fill="white" stroke="transparent" points="-4,4 -4,-341.87 622.89,-341.87 622.89,4 -4,4"/>
<g id="clust1" class="cluster">
<title>cluster_pclk</title>
<polygon fill="lightyellow" stroke="black" points="22,-185.87 22,-318.87 265.99,-318.87 265.99,-185.87 22,-185.87"/>
<text text-anchor="middle" x="144" y="-303.67" font-family="Times,serif" font-size="14.00">pclk Domain</text>
</g>
<g id="clust2" class="cluster">
<title>cluster_cdc</title>
<polygon fill="lightgray" stroke="black" points="336.99,-148.87 336.99,-329.87 535.89,-329.87 535.89,-148.87 336.99,-148.87"/>
<text text-anchor="middle" x="436.44" y="-314.67" font-family="Times,serif" font-size="14.00">CDC Logic</text>
</g>
<g id="clust3" class="cluster">
<title>cluster_gpio</title>
<polygon fill="lightcyan" stroke="black" points="8,-63.87 8,-140.87 488.94,-140.87 488.94,-63.87 8,-63.87"/>
<text text-anchor="middle" x="248.47" y="-125.67" font-family="Times,serif" font-size="14.00">gpio_clk Domain</text>
</g>
<!-- apb_if -->
<g id="node1" class="node">
<title>apb_if</title>
<path fill="lightblue" stroke="black" d="M101,-231.87C101,-231.87 44,-231.87 44,-231.87 38,-231.87 32,-225.87 32,-219.87 32,-219.87 32,-205.87 32,-205.87 32,-199.87 38,-193.87 44,-193.87 44,-193.87 101,-193.87 101,-193.87 107,-193.87 113,-199.87 113,-205.87 113,-205.87 113,-219.87 113,-219.87 113,-225.87 107,-231.87 101,-231.87"/>
<text text-anchor="middle" x="72.5" y="-216.67" font-family="Times,serif" font-size="14.00">APB</text>
<text text-anchor="middle" x="72.5" y="-201.67" font-family="Times,serif" font-size="14.00">Interface</text>
</g>
<!-- reg_file -->
<g id="node2" class="node">
<title>reg_file</title>
<path fill="lightblue" stroke="black" d="M245.99,-239.87C245.99,-239.87 192.99,-239.87 192.99,-239.87 186.99,-239.87 180.99,-233.87 180.99,-227.87 180.99,-227.87 180.99,-213.87 180.99,-213.87 180.99,-207.87 186.99,-201.87 192.99,-201.87 192.99,-201.87 245.99,-201.87 245.99,-201.87 251.99,-201.87 257.99,-207.87 257.99,-213.87 257.99,-213.87 257.99,-227.87 257.99,-227.87 257.99,-233.87 251.99,-239.87 245.99,-239.87"/>
<text text-anchor="middle" x="219.49" y="-224.67" font-family="Times,serif" font-size="14.00">Register</text>
<text text-anchor="middle" x="219.49" y="-209.67" font-family="Times,serif" font-size="14.00">File</text>
</g>
<!-- apb_if&#45;&gt;reg_file -->
<g id="edge1" class="edge">
<title>apb_if&#45;&gt;reg_file</title>
<path fill="none" stroke="black" d="M113.12,-215.06C130.95,-216.04 152.14,-217.21 170.83,-218.24"/>
<polygon fill="black" stroke="black" points="170.74,-221.74 180.92,-218.8 171.13,-214.75 170.74,-221.74"/>
</g>
<!-- sync_to_gpio -->
<g id="node4" class="node">
<title>sync_to_gpio</title>
<path fill="lightblue" stroke="black" d="M517.91,-194.61C517.91,-194.61 492.06,-212.18 492.06,-212.18 487.1,-215.55 476.14,-218.92 470.14,-218.92 470.14,-218.92 402.74,-218.92 402.74,-218.92 396.74,-218.92 385.78,-215.55 380.82,-212.18 380.82,-212.18 354.97,-194.61 354.97,-194.61 350.01,-191.24 350.01,-184.5 354.97,-181.13 354.97,-181.13 380.82,-163.56 380.82,-163.56 385.78,-160.19 396.74,-156.82 402.74,-156.82 402.74,-156.82 470.14,-156.82 470.14,-156.82 476.14,-156.82 487.1,-160.19 492.06,-163.56 492.06,-163.56 517.91,-181.13 517.91,-181.13 522.87,-184.5 522.87,-191.24 517.91,-194.61"/>
<text text-anchor="middle" x="436.44" y="-191.67" font-family="Times,serif" font-size="14.00">Sync to GPIO</text>
<text text-anchor="middle" x="436.44" y="-176.67" font-family="Times,serif" font-size="14.00">(reg2hw)</text>
</g>
<!-- reg_file&#45;&gt;sync_to_gpio -->
<g id="edge2" class="edge">
<title>reg_file&#45;&gt;sync_to_gpio</title>
<path fill="none" stroke="black" d="M258.43,-215.05C284.09,-211.11 319.03,-205.74 351.09,-200.82"/>
<polygon fill="black" stroke="black" points="352.03,-204.22 361.38,-199.24 350.96,-197.3 352.03,-204.22"/>
<text text-anchor="middle" x="301.49" y="-236.87" font-family="Times,serif" font-size="10.00">direction</text>
<text text-anchor="middle" x="301.49" y="-225.87" font-family="Times,serif" font-size="10.00">output</text>
<text text-anchor="middle" x="301.49" y="-214.87" font-family="Times,serif" font-size="10.00">int_config</text>
</g>
<!-- apb_status -->
<g id="node3" class="node">
<title>apb_status</title>
<path fill="lightblue" stroke="black" d="M103,-287.87C103,-287.87 42,-287.87 42,-287.87 36,-287.87 30,-281.87 30,-275.87 30,-275.87 30,-261.87 30,-261.87 30,-255.87 36,-249.87 42,-249.87 42,-249.87 103,-249.87 103,-249.87 109,-249.87 115,-255.87 115,-261.87 115,-261.87 115,-275.87 115,-275.87 115,-281.87 109,-287.87 103,-287.87"/>
<text text-anchor="middle" x="72.5" y="-272.67" font-family="Times,serif" font-size="14.00">Status</text>
<text text-anchor="middle" x="72.5" y="-257.67" font-family="Times,serif" font-size="14.00">Registers</text>
</g>
<!-- apb_status&#45;&gt;reg_file -->
<g id="edge11" class="edge">
<title>apb_status&#45;&gt;reg_file</title>
<path fill="none" stroke="black" d="M115.05,-255.12C132.64,-249.29 153.23,-242.48 171.38,-236.47"/>
<polygon fill="black" stroke="black" points="172.51,-239.78 180.9,-233.32 170.31,-233.14 172.51,-239.78"/>
</g>
<!-- gpio_regs -->
<g id="node6" class="node">
<title>gpio_regs</title>
<path fill="lightblue" stroke="black" d="M117,-109.87C117,-109.87 28,-109.87 28,-109.87 22,-109.87 16,-103.87 16,-97.87 16,-97.87 16,-83.87 16,-83.87 16,-77.87 22,-71.87 28,-71.87 28,-71.87 117,-71.87 117,-71.87 123,-71.87 129,-77.87 129,-83.87 129,-83.87 129,-97.87 129,-97.87 129,-103.87 123,-109.87 117,-109.87"/>
<text text-anchor="middle" x="72.5" y="-94.67" font-family="Times,serif" font-size="14.00">GPIO</text>
<text text-anchor="middle" x="72.5" y="-79.67" font-family="Times,serif" font-size="14.00">Shadow Regs</text>
</g>
<!-- sync_to_gpio&#45;&gt;gpio_regs -->
<g id="edge3" class="edge">
<title>sync_to_gpio&#45;&gt;gpio_regs</title>
<path fill="none" stroke="black" d="M370.43,-170.45C305.02,-152.92 204.69,-126.03 139.08,-108.45"/>
<polygon fill="black" stroke="black" points="139.83,-105.02 129.26,-105.81 138.01,-111.78 139.83,-105.02"/>
</g>
<!-- sync_to_apb -->
<g id="node5" class="node">
<title>sync_to_apb</title>
<path fill="lightblue" stroke="black" d="M511.59,-274.96C511.59,-274.96 488.54,-291.84 488.54,-291.84 483.7,-295.38 472.86,-298.92 466.86,-298.92 466.86,-298.92 406.03,-298.92 406.03,-298.92 400.03,-298.92 389.18,-295.38 384.34,-291.84 384.34,-291.84 361.29,-274.96 361.29,-274.96 356.45,-271.41 356.45,-264.33 361.29,-260.78 361.29,-260.78 384.34,-243.91 384.34,-243.91 389.18,-240.36 400.03,-236.82 406.03,-236.82 406.03,-236.82 466.86,-236.82 466.86,-236.82 472.86,-236.82 483.7,-240.36 488.54,-243.91 488.54,-243.91 511.59,-260.78 511.59,-260.78 516.43,-264.33 516.43,-271.41 511.59,-274.96"/>
<text text-anchor="middle" x="436.44" y="-271.67" font-family="Times,serif" font-size="14.00">Sync to APB</text>
<text text-anchor="middle" x="436.44" y="-256.67" font-family="Times,serif" font-size="14.00">(hw2reg)</text>
</g>
<!-- sync_to_apb&#45;&gt;apb_status -->
<g id="edge10" class="edge">
<title>sync_to_apb&#45;&gt;apb_status</title>
<path fill="none" stroke="black" d="M351.69,-268.1C281.76,-268.29 184.29,-268.56 125.23,-268.73"/>
<polygon fill="black" stroke="black" points="125.01,-265.23 115.02,-268.76 125.03,-272.23 125.01,-265.23"/>
</g>
<!-- gpio_core -->
<g id="node7" class="node">
<title>gpio_core</title>
<path fill="lightblue" stroke="black" d="M234.49,-109.87C234.49,-109.87 204.49,-109.87 204.49,-109.87 198.49,-109.87 192.49,-103.87 192.49,-97.87 192.49,-97.87 192.49,-83.87 192.49,-83.87 192.49,-77.87 198.49,-71.87 204.49,-71.87 204.49,-71.87 234.49,-71.87 234.49,-71.87 240.49,-71.87 246.49,-77.87 246.49,-83.87 246.49,-83.87 246.49,-97.87 246.49,-97.87 246.49,-103.87 240.49,-109.87 234.49,-109.87"/>
<text text-anchor="middle" x="219.49" y="-94.67" font-family="Times,serif" font-size="14.00">GPIO</text>
<text text-anchor="middle" x="219.49" y="-79.67" font-family="Times,serif" font-size="14.00">Core</text>
</g>
<!-- gpio_regs&#45;&gt;gpio_core -->
<g id="edge4" class="edge">
<title>gpio_regs&#45;&gt;gpio_core</title>
<path fill="none" stroke="black" d="M129.14,-90.87C146.96,-90.87 166.22,-90.87 182.28,-90.87"/>
<polygon fill="black" stroke="black" points="182.32,-94.37 192.32,-90.87 182.32,-87.37 182.32,-94.37"/>
</g>
<!-- gpio_core&#45;&gt;sync_to_apb -->
<g id="edge9" class="edge">
<title>gpio_core&#45;&gt;sync_to_apb</title>
<path fill="none" stroke="black" d="M240.75,-109.93C251.25,-119.78 264.29,-131.99 275.99,-142.87 298.57,-163.85 311.1,-163.46 326.99,-189.87 336,-204.83 325.46,-214.75 336.99,-227.87 344.27,-236.14 353.5,-242.74 363.39,-247.98"/>
<polygon fill="black" stroke="black" points="362.09,-251.24 372.62,-252.42 365.13,-244.93 362.09,-251.24"/>
<text text-anchor="middle" x="301.49" y="-192.87" font-family="Times,serif" font-size="10.00">input</text>
</g>
<!-- int_ctrl -->
<g id="node8" class="node">
<title>int_ctrl</title>
<path fill="lightblue" stroke="black" d="M468.94,-109.87C468.94,-109.87 403.94,-109.87 403.94,-109.87 397.94,-109.87 391.94,-103.87 391.94,-97.87 391.94,-97.87 391.94,-83.87 391.94,-83.87 391.94,-77.87 397.94,-71.87 403.94,-71.87 403.94,-71.87 468.94,-71.87 468.94,-71.87 474.94,-71.87 480.94,-77.87 480.94,-83.87 480.94,-83.87 480.94,-97.87 480.94,-97.87 480.94,-103.87 474.94,-109.87 468.94,-109.87"/>
<text text-anchor="middle" x="436.44" y="-94.67" font-family="Times,serif" font-size="14.00">Interrupt</text>
<text text-anchor="middle" x="436.44" y="-79.67" font-family="Times,serif" font-size="14.00">Controller</text>
</g>
<!-- gpio_core&#45;&gt;int_ctrl -->
<g id="edge7" class="edge">
<title>gpio_core&#45;&gt;int_ctrl</title>
<path fill="none" stroke="black" d="M246.85,-90.87C280.27,-90.87 338.7,-90.87 381.7,-90.87"/>
<polygon fill="black" stroke="black" points="381.72,-94.37 391.72,-90.87 381.72,-87.37 381.72,-94.37"/>
</g>
<!-- gpio_out -->
<g id="node10" class="node">
<title>gpio_out</title>
<ellipse fill="pink" stroke="black" cx="436.44" cy="-26.87" rx="84.29" ry="26.74"/>
<text text-anchor="middle" x="436.44" y="-30.67" font-family="Times,serif" font-size="14.00">gpio_out[31:0]</text>
<text text-anchor="middle" x="436.44" y="-15.67" font-family="Times,serif" font-size="14.00">gpio_oe[31:0]</text>
</g>
<!-- gpio_core&#45;&gt;gpio_out -->
<g id="edge6" class="edge">
<title>gpio_core&#45;&gt;gpio_out</title>
<path fill="none" stroke="black" d="M246.85,-83.02C275.95,-74.36 324.02,-60.04 364.35,-48.04"/>
<polygon fill="black" stroke="black" points="365.57,-51.33 374.15,-45.12 363.57,-44.62 365.57,-51.33"/>
</g>
<!-- int_ctrl&#45;&gt;sync_to_apb -->
<g id="edge8" class="edge">
<title>int_ctrl&#45;&gt;sync_to_apb</title>
<path fill="none" stroke="black" d="M391.71,-90.74C362.84,-93.29 327.21,-101.94 307.99,-127.37 298.18,-140.36 273.14,-159.45 336.99,-227.87 344.53,-235.94 353.91,-242.42 363.88,-247.61"/>
<polygon fill="black" stroke="black" points="362.64,-250.9 373.17,-252.03 365.64,-244.57 362.64,-250.9"/>
<text text-anchor="middle" x="301.49" y="-130.37" font-family="Times,serif" font-size="10.00">status</text>
</g>
<!-- irq -->
<g id="node11" class="node">
<title>irq</title>
<ellipse fill="pink" stroke="black" cx="591.89" cy="-90.87" rx="27" ry="18"/>
<text text-anchor="middle" x="591.89" y="-87.17" font-family="Times,serif" font-size="14.00">irq</text>
</g>
<!-- int_ctrl&#45;&gt;irq -->
<g id="edge12" class="edge">
<title>int_ctrl&#45;&gt;irq</title>
<path fill="none" stroke="black" d="M481,-90.87C504.15,-90.87 532.29,-90.87 554.29,-90.87"/>
<polygon fill="black" stroke="black" points="554.55,-94.37 564.55,-90.87 554.55,-87.37 554.55,-94.37"/>
</g>
<!-- gpio_in -->
<g id="node9" class="node">
<title>gpio_in</title>
<ellipse fill="lightgreen" stroke="black" cx="72.5" cy="-35.87" rx="71.49" ry="18"/>
<text text-anchor="middle" x="72.5" y="-32.17" font-family="Times,serif" font-size="14.00">gpio_in[31:0]</text>
</g>
<!-- gpio_in&#45;&gt;gpio_core -->
<g id="edge5" class="edge">
<title>gpio_in&#45;&gt;gpio_core</title>
<path fill="none" stroke="black" d="M116.91,-50.14C125.9,-53.24 135.29,-56.58 143.99,-59.87 156.82,-64.71 170.72,-70.38 183.01,-75.54"/>
<polygon fill="black" stroke="black" points="181.89,-78.87 192.46,-79.54 184.61,-72.42 181.89,-78.87"/>
</g>
</g>
</svg>
