<?xml version="1.0" encoding="UTF-8" standalone="no"?>
<!DOCTYPE svg PUBLIC "-//W3C//DTD SVG 1.1//EN"
 "http://www.w3.org/Graphics/SVG/1.1/DTD/svg11.dtd">
<!-- Generated by graphviz version 2.43.0 (0)
 -->
<!-- Title: gpio_top Pages: 1 -->
<svg width="1093pt" height="510pt"
 viewBox="0.00 0.00 1093.11 510.00" xmlns="http://www.w3.org/2000/svg" xmlns:xlink="http://www.w3.org/1999/xlink">
<g id="graph0" class="graph" transform="scale(1 1) rotate(0) translate(4 506)">
<title>gpio_top</title>
<polygon fill="white" stroke="transparent" points="-4,4 -4,-506 1089.11,-506 1089.11,4 -4,4"/>
<g id="clust1" class="cluster">
<title>cluster_apb_gpio</title>
<path fill="none" stroke="black" d="M264.45,-136C264.45,-136 950.47,-136 950.47,-136 956.47,-136 962.47,-142 962.47,-148 962.47,-148 962.47,-257 962.47,-257 962.47,-263 956.47,-269 950.47,-269 950.47,-269 264.45,-269 264.45,-269 258.45,-269 252.45,-263 252.45,-257 252.45,-257 252.45,-148 252.45,-148 252.45,-142 258.45,-136 264.45,-136"/>
<text text-anchor="middle" x="607.46" y="-253.8" font-family="Times,serif" font-size="14.00">apb_gpio</text>
</g>
<g id="clust2" class="cluster">
<title>cluster_legend</title>
<polygon fill="white" stroke="black" points="41.22,-311 41.22,-494 182.22,-494 182.22,-311 41.22,-311"/>
<text text-anchor="middle" x="111.72" y="-478.8" font-family="Times,serif" font-size="14.00">Legend</text>
</g>
<!-- clk_rst -->
<g id="node1" class="node">
<title>clk_rst</title>
<ellipse fill="lightgreen" stroke="black" cx="111.72" cy="-253" rx="86.03" ry="48.17"/>
<text text-anchor="middle" x="111.72" y="-271.8" font-family="Times,serif" font-size="14.00">pclk</text>
<text text-anchor="middle" x="111.72" y="-256.8" font-family="Times,serif" font-size="14.00">presetn</text>
<text text-anchor="middle" x="111.72" y="-241.8" font-family="Times,serif" font-size="14.00">gpio_clk (opt)</text>
<text text-anchor="middle" x="111.72" y="-226.8" font-family="Times,serif" font-size="14.00">gpio_rstn (opt)</text>
</g>
<!-- apb_if -->
<g id="node7" class="node">
<title>apb_if</title>
<path fill="lightyellow" stroke="black" d="M334.95,-182C334.95,-182 277.95,-182 277.95,-182 271.95,-182 265.95,-176 265.95,-170 265.95,-170 265.95,-156 265.95,-156 265.95,-150 271.95,-144 277.95,-144 277.95,-144 334.95,-144 334.95,-144 340.95,-144 346.95,-150 346.95,-156 346.95,-156 346.95,-170 346.95,-170 346.95,-176 340.95,-182 334.95,-182"/>
<text text-anchor="middle" x="306.45" y="-166.8" font-family="Times,serif" font-size="14.00">APB</text>
<text text-anchor="middle" x="306.45" y="-151.8" font-family="Times,serif" font-size="14.00">Interface</text>
</g>
<!-- clk_rst&#45;&gt;apb_if -->
<g id="edge1" class="edge">
<title>clk_rst&#45;&gt;apb_if</title>
<path fill="none" stroke="black" d="M178.51,-222.28C204.11,-210.32 232.93,-196.86 256.63,-185.79"/>
<polygon fill="black" stroke="black" points="258.2,-188.93 265.78,-181.52 255.24,-182.58 258.2,-188.93"/>
</g>
<!-- gpio_core -->
<g id="node9" class="node">
<title>gpio_core</title>
<path fill="lightcyan" stroke="black" d="M743.82,-191C743.82,-191 713.82,-191 713.82,-191 707.82,-191 701.82,-185 701.82,-179 701.82,-179 701.82,-165 701.82,-165 701.82,-159 707.82,-153 713.82,-153 713.82,-153 743.82,-153 743.82,-153 749.82,-153 755.82,-159 755.82,-165 755.82,-165 755.82,-179 755.82,-179 755.82,-185 749.82,-191 743.82,-191"/>
<text text-anchor="middle" x="728.82" y="-175.8" font-family="Times,serif" font-size="14.00">GPIO</text>
<text text-anchor="middle" x="728.82" y="-160.8" font-family="Times,serif" font-size="14.00">Core</text>
</g>
<!-- clk_rst&#45;&gt;gpio_core -->
<g id="edge2" class="edge">
<title>clk_rst&#45;&gt;gpio_core</title>
<path fill="none" stroke="black" d="M195.65,-264.63C298.88,-276.2 479.56,-286.82 626.82,-245 656.09,-236.69 683.68,-215.48 702.6,-198.05"/>
<polygon fill="black" stroke="black" points="705.07,-200.53 709.91,-191.11 700.25,-195.46 705.07,-200.53"/>
</g>
<!-- cdc_opt -->
<g id="node11" class="node">
<title>cdc_opt</title>
<path fill="lightgray" stroke="black" stroke-dasharray="5,2" d="M340.45,-238C340.45,-238 272.45,-238 272.45,-238 266.45,-238 260.45,-232 260.45,-226 260.45,-226 260.45,-212 260.45,-212 260.45,-206 266.45,-200 272.45,-200 272.45,-200 340.45,-200 340.45,-200 346.45,-200 352.45,-206 352.45,-212 352.45,-212 352.45,-226 352.45,-226 352.45,-232 346.45,-238 340.45,-238"/>
<text text-anchor="middle" x="306.45" y="-222.8" font-family="Times,serif" font-size="14.00">CDC Logic</text>
<text text-anchor="middle" x="306.45" y="-207.8" font-family="Times,serif" font-size="14.00">(optional)</text>
</g>
<!-- clk_rst&#45;&gt;cdc_opt -->
<g id="edge3" class="edge">
<title>clk_rst&#45;&gt;cdc_opt</title>
<path fill="none" stroke="black" d="M194.18,-238.63C213.07,-235.3 232.74,-231.83 250.2,-228.75"/>
<polygon fill="black" stroke="black" points="250.97,-232.17 260.21,-226.98 249.75,-225.27 250.97,-232.17"/>
</g>
<!-- apb_in -->
<g id="node2" class="node">
<title>apb_in</title>
<ellipse fill="lightgreen" stroke="black" cx="111.72" cy="-118" rx="111.95" ry="69.09"/>
<text text-anchor="middle" x="111.72" y="-151.8" font-family="Times,serif" font-size="14.00">s_apb_psel</text>
<text text-anchor="middle" x="111.72" y="-136.8" font-family="Times,serif" font-size="14.00">s_apb_penable</text>
<text text-anchor="middle" x="111.72" y="-121.8" font-family="Times,serif" font-size="14.00">s_apb_pwrite</text>
<text text-anchor="middle" x="111.72" y="-106.8" font-family="Times,serif" font-size="14.00">s_apb_paddr[11:0]</text>
<text text-anchor="middle" x="111.72" y="-91.8" font-family="Times,serif" font-size="14.00">s_apb_pwdata[31:0]</text>
<text text-anchor="middle" x="111.72" y="-76.8" font-family="Times,serif" font-size="14.00">s_apb_pstrb[3:0]</text>
</g>
<!-- apb_in&#45;&gt;apb_if -->
<g id="edge4" class="edge">
<title>apb_in&#45;&gt;apb_if</title>
<path fill="none" stroke="black" d="M216.42,-142.21C230.06,-145.4 243.51,-148.54 255.65,-151.37"/>
<polygon fill="black" stroke="black" points="254.99,-154.81 265.52,-153.68 256.58,-148 254.99,-154.81"/>
</g>
<!-- apb_out -->
<g id="node3" class="node">
<title>apb_out</title>
<ellipse fill="pink" stroke="black" cx="518.63" cy="-91" rx="108.38" ry="37.45"/>
<text text-anchor="middle" x="518.63" y="-102.3" font-family="Times,serif" font-size="14.00">s_apb_prdata[31:0]</text>
<text text-anchor="middle" x="518.63" y="-87.3" font-family="Times,serif" font-size="14.00">s_apb_pready</text>
<text text-anchor="middle" x="518.63" y="-72.3" font-family="Times,serif" font-size="14.00">s_apb_pslverr</text>
</g>
<!-- gpio_in -->
<g id="node4" class="node">
<title>gpio_in</title>
<ellipse fill="lightgreen" stroke="black" cx="518.63" cy="-18" rx="71.49" ry="18"/>
<text text-anchor="middle" x="518.63" y="-14.3" font-family="Times,serif" font-size="14.00">gpio_in[31:0]</text>
</g>
<!-- gpio_in&#45;&gt;gpio_core -->
<g id="edge9" class="edge">
<title>gpio_in&#45;&gt;gpio_core</title>
<path fill="none" stroke="black" d="M581.99,-26.5C597.46,-30.49 613.44,-36.37 626.82,-45 665.49,-69.94 695.92,-114.75 712.9,-143.92"/>
<polygon fill="black" stroke="black" points="709.95,-145.83 717.93,-152.8 716.04,-142.38 709.95,-145.83"/>
</g>
<!-- gpio_out_sigs -->
<g id="node5" class="node">
<title>gpio_out_sigs</title>
<ellipse fill="pink" stroke="black" cx="909.97" cy="-101" rx="84.29" ry="26.74"/>
<text text-anchor="middle" x="909.97" y="-104.8" font-family="Times,serif" font-size="14.00">gpio_out[31:0]</text>
<text text-anchor="middle" x="909.97" y="-89.8" font-family="Times,serif" font-size="14.00">gpio_oe[31:0]</text>
</g>
<!-- irq_out -->
<g id="node6" class="node">
<title>irq_out</title>
<ellipse fill="pink" stroke="black" cx="1058.11" cy="-207" rx="27" ry="18"/>
<text text-anchor="middle" x="1058.11" y="-203.3" font-family="Times,serif" font-size="14.00">irq</text>
</g>
<!-- apb_if&#45;&gt;apb_out -->
<g id="edge5" class="edge">
<title>apb_if&#45;&gt;apb_out</title>
<path fill="none" stroke="black" d="M346.98,-149.46C370.7,-141.33 401.84,-130.67 431.01,-120.67"/>
<polygon fill="black" stroke="black" points="432.49,-123.87 440.82,-117.31 430.22,-117.24 432.49,-123.87"/>
</g>
<!-- reg_file -->
<g id="node8" class="node">
<title>reg_file</title>
<path fill="lightyellow" stroke="black" d="M552.63,-236.5C552.63,-236.5 484.63,-236.5 484.63,-236.5 478.63,-236.5 472.63,-230.5 472.63,-224.5 472.63,-224.5 472.63,-195.5 472.63,-195.5 472.63,-189.5 478.63,-183.5 484.63,-183.5 484.63,-183.5 552.63,-183.5 552.63,-183.5 558.63,-183.5 564.63,-189.5 564.63,-195.5 564.63,-195.5 564.63,-224.5 564.63,-224.5 564.63,-230.5 558.63,-236.5 552.63,-236.5"/>
<text text-anchor="middle" x="518.63" y="-221.3" font-family="Times,serif" font-size="14.00">Register</text>
<text text-anchor="middle" x="518.63" y="-206.3" font-family="Times,serif" font-size="14.00">File</text>
<text text-anchor="middle" x="518.63" y="-191.3" font-family="Times,serif" font-size="14.00">(PeakRDL)</text>
</g>
<!-- apb_if&#45;&gt;reg_file -->
<g id="edge6" class="edge">
<title>apb_if&#45;&gt;reg_file</title>
<path fill="none" stroke="black" d="M346.98,-171.84C379.59,-179.13 426.22,-189.56 462.5,-197.67"/>
<polygon fill="black" stroke="black" points="461.91,-201.13 472.44,-199.89 463.44,-194.3 461.91,-201.13"/>
<text text-anchor="middle" x="381.45" y="-184" font-family="Times,serif" font-size="10.00">hwif</text>
</g>
<!-- reg_file&#45;&gt;gpio_core -->
<g id="edge7" class="edge">
<title>reg_file&#45;&gt;gpio_core</title>
<path fill="none" stroke="black" d="M564.72,-206.6C597.98,-203.45 644.16,-197.75 683.82,-188 686.47,-187.35 689.18,-186.59 691.88,-185.77"/>
<polygon fill="black" stroke="black" points="693.18,-189.03 701.58,-182.59 690.99,-182.38 693.18,-189.03"/>
<text text-anchor="middle" x="664.32" y="-199" font-family="Times,serif" font-size="10.00">reg2hw</text>
</g>
<!-- int_ctrl -->
<g id="node10" class="node">
<title>int_ctrl</title>
<path fill="lightcyan" stroke="black" d="M942.47,-226C942.47,-226 877.47,-226 877.47,-226 871.47,-226 865.47,-220 865.47,-214 865.47,-214 865.47,-200 865.47,-200 865.47,-194 871.47,-188 877.47,-188 877.47,-188 942.47,-188 942.47,-188 948.47,-188 954.47,-194 954.47,-200 954.47,-200 954.47,-214 954.47,-214 954.47,-220 948.47,-226 942.47,-226"/>
<text text-anchor="middle" x="909.97" y="-210.8" font-family="Times,serif" font-size="14.00">Interrupt</text>
<text text-anchor="middle" x="909.97" y="-195.8" font-family="Times,serif" font-size="14.00">Controller</text>
</g>
<!-- reg_file&#45;&gt;int_ctrl -->
<g id="edge13" class="edge">
<title>reg_file&#45;&gt;int_ctrl</title>
<path fill="none" stroke="black" d="M564.83,-210.45C588.63,-210.66 618.3,-210.89 644.82,-211 662.15,-211.07 666.49,-211.15 683.82,-211 742.39,-210.48 809.53,-209.2 855.13,-208.22"/>
<polygon fill="black" stroke="black" points="855.46,-211.72 865.39,-208 855.31,-204.72 855.46,-211.72"/>
<text text-anchor="middle" x="728.82" y="-214" font-family="Times,serif" font-size="10.00">config</text>
</g>
<!-- gpio_core&#45;&gt;gpio_out_sigs -->
<g id="edge10" class="edge">
<title>gpio_core&#45;&gt;gpio_out_sigs</title>
<path fill="none" stroke="black" d="M756.2,-160.69C775.42,-152.53 802.14,-141.34 825.82,-132 831.75,-129.66 837.92,-127.27 844.12,-124.9"/>
<polygon fill="black" stroke="black" points="845.73,-128.04 853.84,-121.22 843.25,-121.49 845.73,-128.04"/>
</g>
<!-- gpio_core&#45;&gt;reg_file -->
<g id="edge8" class="edge">
<title>gpio_core&#45;&gt;reg_file</title>
<path fill="none" stroke="black" d="M701.5,-171.37C685.11,-171.37 663.63,-172.07 644.82,-175 621.42,-178.64 596.17,-185.18 574.52,-191.62"/>
<polygon fill="black" stroke="black" points="573.39,-188.31 564.85,-194.57 575.43,-195.01 573.39,-188.31"/>
<text text-anchor="middle" x="664.32" y="-178" font-family="Times,serif" font-size="10.00">hw2reg</text>
</g>
<!-- gpio_core&#45;&gt;int_ctrl -->
<g id="edge11" class="edge">
<title>gpio_core&#45;&gt;int_ctrl</title>
<path fill="none" stroke="black" d="M755.87,-177.09C781.81,-182.16 822.4,-190.09 855.27,-196.51"/>
<polygon fill="black" stroke="black" points="854.72,-199.97 865.2,-198.45 856.06,-193.1 854.72,-199.97"/>
<text text-anchor="middle" x="790.82" y="-190" font-family="Times,serif" font-size="10.00">events</text>
</g>
<!-- int_ctrl&#45;&gt;irq_out -->
<g id="edge12" class="edge">
<title>int_ctrl&#45;&gt;irq_out</title>
<path fill="none" stroke="black" d="M954.81,-207C975.77,-207 1000.56,-207 1020.49,-207"/>
<polygon fill="black" stroke="black" points="1020.71,-210.5 1030.71,-207 1020.71,-203.5 1020.71,-210.5"/>
</g>
<!-- cdc_opt&#45;&gt;reg_file -->
<g id="edge14" class="edge">
<title>cdc_opt&#45;&gt;reg_file</title>
<path fill="none" stroke="black" stroke-dasharray="5,2" d="M352.54,-217.07C384.68,-215.69 428.07,-213.83 462.31,-212.37"/>
<polygon fill="black" stroke="black" points="462.78,-215.85 472.62,-211.93 462.48,-208.86 462.78,-215.85"/>
</g>
<!-- cdc_opt&#45;&gt;gpio_core -->
<g id="edge15" class="edge">
<title>cdc_opt&#45;&gt;gpio_core</title>
<path fill="none" stroke="black" stroke-dasharray="5,2" d="M342.05,-199.87C361.52,-190.15 386.63,-179.29 410.45,-174 510.15,-151.83 631.87,-160.72 691.44,-167.31"/>
<polygon fill="black" stroke="black" points="691.15,-170.8 701.48,-168.47 691.95,-163.85 691.15,-170.8"/>
</g>
<!-- leg_apb -->
<g id="node12" class="node">
<title>leg_apb</title>
<path fill="lightyellow" stroke="black" d="M152.72,-463C152.72,-463 70.72,-463 70.72,-463 64.72,-463 58.72,-457 58.72,-451 58.72,-451 58.72,-439 58.72,-439 58.72,-433 64.72,-427 70.72,-427 70.72,-427 152.72,-427 152.72,-427 158.72,-427 164.72,-433 164.72,-439 164.72,-439 164.72,-451 164.72,-451 164.72,-457 158.72,-463 152.72,-463"/>
<text text-anchor="middle" x="111.72" y="-441.3" font-family="Times,serif" font-size="14.00">APB Domain</text>
</g>
<!-- leg_gpio -->
<g id="node13" class="node">
<title>leg_gpio</title>
<path fill="lightcyan" stroke="black" d="M148.22,-409C148.22,-409 75.22,-409 75.22,-409 69.22,-409 63.22,-403 63.22,-397 63.22,-397 63.22,-385 63.22,-385 63.22,-379 69.22,-373 75.22,-373 75.22,-373 148.22,-373 148.22,-373 154.22,-373 160.22,-379 160.22,-385 160.22,-385 160.22,-397 160.22,-397 160.22,-403 154.22,-409 148.22,-409"/>
<text text-anchor="middle" x="111.72" y="-387.3" font-family="Times,serif" font-size="14.00">GPIO Logic</text>
</g>
<!-- leg_opt -->
<g id="node14" class="node">
<title>leg_opt</title>
<path fill="lightgray" stroke="black" stroke-dasharray="5,2" d="M162.22,-355C162.22,-355 61.22,-355 61.22,-355 55.22,-355 49.22,-349 49.22,-343 49.22,-343 49.22,-331 49.22,-331 49.22,-325 55.22,-319 61.22,-319 61.22,-319 162.22,-319 162.22,-319 168.22,-319 174.22,-325 174.22,-331 174.22,-331 174.22,-343 174.22,-343 174.22,-349 168.22,-355 162.22,-355"/>
<text text-anchor="middle" x="111.72" y="-333.3" font-family="Times,serif" font-size="14.00">Optional (CDC)</text>
</g>
</g>
</svg>
