<?xml version="1.0" encoding="UTF-8" standalone="no"?>
<!DOCTYPE svg PUBLIC "-//W3C//DTD SVG 1.1//EN"
 "http://www.w3.org/Graphics/SVG/1.1/DTD/svg11.dtd">
<!-- Generated by graphviz version 2.43.0 (0)
 -->
<!-- Title: gpio_interfaces Pages: 1 -->
<svg width="490pt" height="370pt"
 viewBox="0.00 0.00 490.00 370.00" xmlns="http://www.w3.org/2000/svg" xmlns:xlink="http://www.w3.org/1999/xlink">
<g id="graph0" class="graph" transform="scale(1 1) rotate(0) translate(4 366)">
<title>gpio_interfaces</title>
<polygon fill="white" stroke="transparent" points="-4,4 -4,-366 486,-366 486,4 -4,4"/>
<g id="clust1" class="cluster">
<title>cluster_system</title>
<polygon fill="lightgreen" stroke="black" points="26,-199 26,-332 164,-332 164,-199 26,-199"/>
<text text-anchor="middle" x="95" y="-316.8" font-family="Times,serif" font-size="14.00">System</text>
</g>
<g id="clust2" class="cluster">
<title>cluster_apb</title>
<polygon fill="lightyellow" stroke="black" points="8,-8 8,-191 182,-191 182,-8 8,-8"/>
<text text-anchor="middle" x="95" y="-175.8" font-family="Times,serif" font-size="14.00">APB Bus</text>
</g>
<g id="clust3" class="cluster">
<title>cluster_gpio</title>
<polygon fill="pink" stroke="black" points="339,-261 339,-354 474,-354 474,-261 339,-261"/>
<text text-anchor="middle" x="406.5" y="-338.8" font-family="Times,serif" font-size="14.00">GPIO Pins</text>
</g>
<g id="clust4" class="cluster">
<title>cluster_int</title>
<polygon fill="pink" stroke="black" points="365.5,-178 365.5,-253 448.5,-253 448.5,-178 365.5,-178"/>
<text text-anchor="middle" x="407" y="-237.8" font-family="Times,serif" font-size="14.00">Interrupt</text>
</g>
<!-- clocks -->
<g id="node1" class="node">
<title>clocks</title>
<path fill="lightblue" stroke="black" d="M139.5,-301C139.5,-301 50.5,-301 50.5,-301 44.5,-301 38.5,-295 38.5,-289 38.5,-289 38.5,-275 38.5,-275 38.5,-269 44.5,-263 50.5,-263 50.5,-263 139.5,-263 139.5,-263 145.5,-263 151.5,-269 151.5,-275 151.5,-275 151.5,-289 151.5,-289 151.5,-295 145.5,-301 139.5,-301"/>
<text text-anchor="middle" x="95" y="-285.8" font-family="Times,serif" font-size="14.00">pclk</text>
<text text-anchor="middle" x="95" y="-270.8" font-family="Times,serif" font-size="14.00">gpio_clk (opt)</text>
</g>
<!-- apb_gpio -->
<g id="node4" class="node">
<title>apb_gpio</title>
<polygon fill="lightcyan" stroke="black" points="311,-260.5 214,-260.5 210,-256.5 210,-191.5 307,-191.5 311,-195.5 311,-260.5"/>
<polyline fill="none" stroke="black" points="307,-256.5 210,-256.5 "/>
<polyline fill="none" stroke="black" points="307,-256.5 307,-191.5 "/>
<polyline fill="none" stroke="black" points="307,-256.5 311,-260.5 "/>
<text text-anchor="middle" x="260.5" y="-245.3" font-family="Times,serif" font-size="14.00">apb_gpio</text>
<text text-anchor="middle" x="260.5" y="-214.3" font-family="Times,serif" font-size="14.00">32&#45;bit GPIO</text>
<text text-anchor="middle" x="260.5" y="-199.3" font-family="Times,serif" font-size="14.00">Controller</text>
</g>
<!-- clocks&#45;&gt;apb_gpio -->
<g id="edge1" class="edge">
<title>clocks&#45;&gt;apb_gpio</title>
<path fill="none" stroke="black" d="M151.6,-264.18C161.73,-260.86 172.2,-257.37 182,-254 187.95,-251.96 194.14,-249.79 200.32,-247.6"/>
<polygon fill="black" stroke="black" points="201.73,-250.82 209.97,-244.16 199.38,-244.22 201.73,-250.82"/>
</g>
<!-- resets -->
<g id="node2" class="node">
<title>resets</title>
<path fill="lightblue" stroke="black" d="M144,-245C144,-245 46,-245 46,-245 40,-245 34,-239 34,-233 34,-233 34,-219 34,-219 34,-213 40,-207 46,-207 46,-207 144,-207 144,-207 150,-207 156,-213 156,-219 156,-219 156,-233 156,-233 156,-239 150,-245 144,-245"/>
<text text-anchor="middle" x="95" y="-229.8" font-family="Times,serif" font-size="14.00">presetn</text>
<text text-anchor="middle" x="95" y="-214.8" font-family="Times,serif" font-size="14.00">gpio_rstn (opt)</text>
</g>
<!-- resets&#45;&gt;apb_gpio -->
<g id="edge2" class="edge">
<title>resets&#45;&gt;apb_gpio</title>
<path fill="none" stroke="black" d="M156.42,-226C170.54,-226 185.59,-226 199.69,-226"/>
<polygon fill="black" stroke="black" points="199.76,-229.5 209.76,-226 199.76,-222.5 199.76,-229.5"/>
</g>
<!-- apb_sigs -->
<g id="node3" class="node">
<title>apb_sigs</title>
<path fill="lightblue" stroke="black" d="M162,-159.5C162,-159.5 28,-159.5 28,-159.5 22,-159.5 16,-153.5 16,-147.5 16,-147.5 16,-28.5 16,-28.5 16,-22.5 22,-16.5 28,-16.5 28,-16.5 162,-16.5 162,-16.5 168,-16.5 174,-22.5 174,-28.5 174,-28.5 174,-147.5 174,-147.5 174,-153.5 168,-159.5 162,-159.5"/>
<text text-anchor="middle" x="95" y="-144.3" font-family="Times,serif" font-size="14.00">s_apb_psel</text>
<text text-anchor="middle" x="95" y="-129.3" font-family="Times,serif" font-size="14.00">s_apb_penable</text>
<text text-anchor="middle" x="95" y="-114.3" font-family="Times,serif" font-size="14.00">s_apb_pwrite</text>
<text text-anchor="middle" x="95" y="-99.3" font-family="Times,serif" font-size="14.00">s_apb_paddr[11:0]</text>
<text text-anchor="middle" x="95" y="-84.3" font-family="Times,serif" font-size="14.00">s_apb_pwdata[31:0]</text>
<text text-anchor="middle" x="95" y="-69.3" font-family="Times,serif" font-size="14.00">s_apb_pstrb[3:0]</text>
<text text-anchor="middle" x="95" y="-54.3" font-family="Times,serif" font-size="14.00">s_apb_prdata[31:0]</text>
<text text-anchor="middle" x="95" y="-39.3" font-family="Times,serif" font-size="14.00">s_apb_pready</text>
<text text-anchor="middle" x="95" y="-24.3" font-family="Times,serif" font-size="14.00">s_apb_pslverr</text>
</g>
<!-- apb_sigs&#45;&gt;apb_gpio -->
<g id="edge3" class="edge">
<title>apb_sigs&#45;&gt;apb_gpio</title>
<path fill="none" stroke="black" d="M182.26,-160.81C192.02,-169.04 201.69,-177.21 210.72,-184.83"/>
<polygon fill="black" stroke="black" points="184.3,-157.95 174.4,-154.17 179.78,-163.3 184.3,-157.95"/>
<polygon fill="black" stroke="black" points="208.57,-187.59 218.47,-191.37 213.09,-182.25 208.57,-187.59"/>
</g>
<!-- gpio_sigs -->
<g id="node5" class="node">
<title>gpio_sigs</title>
<path fill="lightblue" stroke="black" d="M454,-322.5C454,-322.5 359,-322.5 359,-322.5 353,-322.5 347,-316.5 347,-310.5 347,-310.5 347,-281.5 347,-281.5 347,-275.5 353,-269.5 359,-269.5 359,-269.5 454,-269.5 454,-269.5 460,-269.5 466,-275.5 466,-281.5 466,-281.5 466,-310.5 466,-310.5 466,-316.5 460,-322.5 454,-322.5"/>
<text text-anchor="middle" x="406.5" y="-307.3" font-family="Times,serif" font-size="14.00">gpio_in[31:0]</text>
<text text-anchor="middle" x="406.5" y="-292.3" font-family="Times,serif" font-size="14.00">gpio_out[31:0]</text>
<text text-anchor="middle" x="406.5" y="-277.3" font-family="Times,serif" font-size="14.00">gpio_oe[31:0]</text>
</g>
<!-- apb_gpio&#45;&gt;gpio_sigs -->
<g id="edge4" class="edge">
<title>apb_gpio&#45;&gt;gpio_sigs</title>
<path fill="none" stroke="black" d="M320.25,-254.56C327.38,-258.02 334.69,-261.58 341.89,-265.08"/>
<polygon fill="black" stroke="black" points="321.58,-251.31 311.06,-250.09 318.52,-257.61 321.58,-251.31"/>
<polygon fill="black" stroke="black" points="340.4,-268.24 350.92,-269.47 343.46,-261.95 340.4,-268.24"/>
</g>
<!-- irq_sig -->
<g id="node6" class="node">
<title>irq_sig</title>
<path fill="lightblue" stroke="black" d="M421.5,-222C421.5,-222 391.5,-222 391.5,-222 385.5,-222 379.5,-216 379.5,-210 379.5,-210 379.5,-198 379.5,-198 379.5,-192 385.5,-186 391.5,-186 391.5,-186 421.5,-186 421.5,-186 427.5,-186 433.5,-192 433.5,-198 433.5,-198 433.5,-210 433.5,-210 433.5,-216 427.5,-222 421.5,-222"/>
<text text-anchor="middle" x="406.5" y="-200.3" font-family="Times,serif" font-size="14.00">irq</text>
</g>
<!-- apb_gpio&#45;&gt;irq_sig -->
<g id="edge5" class="edge">
<title>apb_gpio&#45;&gt;irq_sig</title>
<path fill="none" stroke="black" d="M311.06,-218.43C330.23,-215.5 351.77,-212.21 369.43,-209.51"/>
<polygon fill="black" stroke="black" points="369.98,-212.97 379.34,-208 368.92,-206.05 369.98,-212.97"/>
</g>
</g>
</svg>
