<svg id="my-svg" width="100%" xmlns="http://www.w3.org/2000/svg" xmlns:xlink="http://www.w3.org/1999/xlink" class="flowchart" style="max-width: 1354.73px; background-color: transparent;" viewBox="0 0 1354.734375 806" role="graphics-document document" aria-roledescription="flowchart-v2"><style>#my-svg{font-family:"trebuchet ms",verdana,arial,sans-serif;font-size:16px;fill:#000000;}@keyframes edge-animation-frame{from{stroke-dashoffset:0;}}@keyframes dash{to{stroke-dashoffset:0;}}#my-svg .edge-animation-slow{stroke-dasharray:9,5!important;stroke-dashoffset:900;animation:dash 50s linear infinite;stroke-linecap:round;}#my-svg .edge-animation-fast{stroke-dasharray:9,5!important;stroke-dashoffset:900;animation:dash 20s linear infinite;stroke-linecap:round;}#my-svg .error-icon{fill:#552222;}#my-svg .error-text{fill:#552222;stroke:#552222;}#my-svg .edge-thickness-normal{stroke-width:1px;}#my-svg .edge-thickness-thick{stroke-width:3.5px;}#my-svg .edge-pattern-solid{stroke-dasharray:0;}#my-svg .edge-thickness-invisible{stroke-width:0;fill:none;}#my-svg .edge-pattern-dashed{stroke-dasharray:3;}#my-svg .edge-pattern-dotted{stroke-dasharray:2;}#my-svg .marker{fill:#666;stroke:#666;}#my-svg .marker.cross{stroke:#666;}#my-svg svg{font-family:"trebuchet ms",verdana,arial,sans-serif;font-size:16px;}#my-svg p{margin:0;}#my-svg .label{font-family:"trebuchet ms",verdana,arial,sans-serif;color:#000000;}#my-svg .cluster-label text{fill:#333;}#my-svg .cluster-label span{color:#333;}#my-svg .cluster-label span p{background-color:transparent;}#my-svg .label text,#my-svg span{fill:#000000;color:#000000;}#my-svg .node rect,#my-svg .node circle,#my-svg .node ellipse,#my-svg .node polygon,#my-svg .node path{fill:#eee;stroke:#999;stroke-width:1px;}#my-svg .rough-node .label text,#my-svg .node .label text,#my-svg .image-shape .label,#my-svg .icon-shape .label{text-anchor:middle;}#my-svg .node .katex path{fill:#000;stroke:#000;stroke-width:1px;}#my-svg .rough-node .label,#my-svg .node .label,#my-svg .image-shape .label,#my-svg .icon-shape .label{text-align:center;}#my-svg .node.clickable{cursor:pointer;}#my-svg .root .anchor path{fill:#666!important;stroke-width:0;stroke:#666;}#my-svg .arrowheadPath{fill:#333333;}#my-svg .edgePath .path{stroke:#666;stroke-width:2.0px;}#my-svg .flowchart-link{stroke:#666;fill:none;}#my-svg .edgeLabel{background-color:white;text-align:center;}#my-svg .edgeLabel p{background-color:white;}#my-svg .edgeLabel rect{opacity:0.5;background-color:white;fill:white;}#my-svg .labelBkg{background-color:rgba(255, 255, 255, 0.5);}#my-svg .cluster rect{fill:hsl(0, 0%, 98.9215686275%);stroke:#707070;stroke-width:1px;}#my-svg .cluster text{fill:#333;}#my-svg .cluster span{color:#333;}#my-svg div.mermaidTooltip{position:absolute;text-align:center;max-width:200px;padding:2px;font-family:"trebuchet ms",verdana,arial,sans-serif;font-size:12px;background:hsl(-160, 0%, 93.3333333333%);border:1px solid #707070;border-radius:2px;pointer-events:none;z-index:100;}#my-svg .flowchartTitleText{text-anchor:middle;font-size:18px;fill:#000000;}#my-svg rect.text{fill:none;stroke-width:0;}#my-svg .icon-shape,#my-svg .image-shape{background-color:white;text-align:center;}#my-svg .icon-shape p,#my-svg .image-shape p{background-color:white;padding:2px;}#my-svg .icon-shape rect,#my-svg .image-shape rect{opacity:0.5;background-color:white;fill:white;}#my-svg .label-icon{display:inline-block;height:1em;overflow:visible;vertical-align:-0.125em;}#my-svg .node .label-icon path{fill:currentColor;stroke:revert;stroke-width:revert;}#my-svg :root{--mermaid-font-family:"trebuchet ms",verdana,arial,sans-serif;}</style><g><marker id="my-svg_flowchart-v2-pointEnd" class="marker flowchart-v2" viewBox="0 0 10 10" refX="5" refY="5" markerUnits="userSpaceOnUse" markerWidth="8" markerHeight="8" orient="auto"><path d="M 0 0 L 10 5 L 0 10 z" class="arrowMarkerPath" style="stroke-width: 1; stroke-dasharray: 1, 0;"/></marker><marker id="my-svg_flowchart-v2-pointStart" class="marker flowchart-v2" viewBox="0 0 10 10" refX="4.5" refY="5" markerUnits="userSpaceOnUse" markerWidth="8" markerHeight="8" orient="auto"><path d="M 0 5 L 10 10 L 10 0 z" class="arrowMarkerPath" style="stroke-width: 1; stroke-dasharray: 1, 0;"/></marker><marker id="my-svg_flowchart-v2-circleEnd" class="marker flowchart-v2" viewBox="0 0 10 10" refX="11" refY="5" markerUnits="userSpaceOnUse" markerWidth="11" markerHeight="11" orient="auto"><circle cx="5" cy="5" r="5" class="arrowMarkerPath" style="stroke-width: 1; stroke-dasharray: 1, 0;"/></marker><marker id="my-svg_flowchart-v2-circleStart" class="marker flowchart-v2" viewBox="0 0 10 10" refX="-1" refY="5" markerUnits="userSpaceOnUse" markerWidth="11" markerHeight="11" orient="auto"><circle cx="5" cy="5" r="5" class="arrowMarkerPath" style="stroke-width: 1; stroke-dasharray: 1, 0;"/></marker><marker id="my-svg_flowchart-v2-crossEnd" class="marker cross flowchart-v2" viewBox="0 0 11 11" refX="12" refY="5.2" markerUnits="userSpaceOnUse" markerWidth="11" markerHeight="11" orient="auto"><path d="M 1,1 l 9,9 M 10,1 l -9,9" class="arrowMarkerPath" style="stroke-width: 2; stroke-dasharray: 1, 0;"/></marker><marker id="my-svg_flowchart-v2-crossStart" class="marker cross flowchart-v2" viewBox="0 0 11 11" refX="-1" refY="5.2" markerUnits="userSpaceOnUse" markerWidth="11" markerHeight="11" orient="auto"><path d="M 1,1 l 9,9 M 10,1 l -9,9" class="arrowMarkerPath" style="stroke-width: 2; stroke-dasharray: 1, 0;"/></marker><g class="root"><g class="clusters"><g class="cluster" id="Level3" data-look="classic"><rect style="" x="330.8125" y="566" width="998.1328125" height="128"/><g class="cluster-label" transform="translate(780.51171875, 566)"><foreignObject width="98.734375" height="24"><div xmlns="http://www.w3.org/1999/xhtml" style="display: table-cell; white-space: nowrap; line-height: 1.5; max-width: 200px; text-align: center;"><span class="nodeLabel"><p>Level 3: sel[2]</p></span></div></foreignObject></g></g><g class="cluster" id="Level2" data-look="classic"><rect style="" x="29.390625" y="388" width="1257.94140625" height="128"/><g class="cluster-label" transform="translate(608.994140625, 388)"><foreignObject width="98.734375" height="24"><div xmlns="http://www.w3.org/1999/xhtml" style="display: table-cell; white-space: nowrap; line-height: 1.5; max-width: 200px; text-align: center;"><span class="nodeLabel"><p>Level 2: sel[1]</p></span></div></foreignObject></g></g><g class="cluster" id="Level1" data-look="classic"><rect style="" x="8" y="186" width="1220.20703125" height="128"/><g class="cluster-label" transform="translate(568.736328125, 186)"><foreignObject width="98.734375" height="24"><div xmlns="http://www.w3.org/1999/xhtml" style="display: table-cell; white-space: nowrap; line-height: 1.5; max-width: 200px; text-align: center;"><span class="nodeLabel"><p>Level 1: sel[0]</p></span></div></foreignObject></g></g><g class="cluster" id="Inputs" data-look="classic"><rect style="" x="14.65625" y="8" width="1122.375" height="104"/><g class="cluster-label" transform="translate(488.9296875, 8)"><foreignObject width="173.828125" height="24"><div xmlns="http://www.w3.org/1999/xhtml" style="display: table-cell; white-space: nowrap; line-height: 1.5; max-width: 200px; text-align: center;"><span class="nodeLabel"><p>Data Inputs (2^LEVELS)</p></span></div></foreignObject></g></g></g><g class="edgePaths"><path d="M93,87L93,91.167C93,95.333,93,103.667,93,114C93,124.333,93,136.667,93,149C93,161.333,93,173.667,130.689,188.516C168.378,203.365,243.756,220.73,281.444,229.412L319.133,238.095" id="L_D0_M1_0" class="edge-thickness-normal edge-pattern-solid edge-thickness-normal edge-pattern-solid flowchart-link" style=";" data-edge="true" data-et="edge" data-id="L_D0_M1_0" data-points="W3sieCI6OTMsInkiOjg3fSx7IngiOjkzLCJ5IjoxMTJ9LHsieCI6OTMsInkiOjE0OX0seyJ4Ijo5MywieSI6MTg2fSx7IngiOjMyMy4wMzEyNSwieSI6MjM4Ljk5MjU3NTkyODAwOX1d" marker-end="url(#my-svg_flowchart-v2-pointEnd)"/><path d="M229.688,87L229.688,91.167C229.688,95.333,229.688,103.667,229.688,114C229.688,124.333,229.688,136.667,229.688,149C229.688,161.333,229.688,173.667,244.638,186.613C259.588,199.56,289.488,213.119,304.438,219.899L319.388,226.679" id="L_D1_M1_0" class="edge-thickness-normal edge-pattern-solid edge-thickness-normal edge-pattern-solid flowchart-link" style=";" data-edge="true" data-et="edge" data-id="L_D1_M1_0" data-points="W3sieCI6MjI5LjY4NzUsInkiOjg3fSx7IngiOjIyOS42ODc1LCJ5IjoxMTJ9LHsieCI6MjI5LjY4NzUsInkiOjE0OX0seyJ4IjoyMjkuNjg3NSwieSI6MTg2fSx7IngiOjMyMy4wMzEyNSwieSI6MjI4LjMzMTI2NjYwNzYxNzM1fV0=" marker-end="url(#my-svg_flowchart-v2-pointEnd)"/><path d="M366.375,87L366.375,91.167C366.375,95.333,366.375,103.667,366.375,114C366.375,124.333,366.375,136.667,366.375,149C366.375,161.333,366.375,173.667,329.056,188.5C291.736,203.333,217.098,220.666,179.778,229.333L142.459,237.999" id="L_D2_M2_0" class="edge-thickness-normal edge-pattern-solid edge-thickness-normal edge-pattern-solid flowchart-link" style=";" data-edge="true" data-et="edge" data-id="L_D2_M2_0" data-points="W3sieCI6MzY2LjM3NSwieSI6ODd9LHsieCI6MzY2LjM3NSwieSI6MTEyfSx7IngiOjM2Ni4zNzUsInkiOjE0OX0seyJ4IjozNjYuMzc1LCJ5IjoxODZ9LHsieCI6MTM4LjU2MjUsInkiOjIzOC45MDM5NTczNjQ3ODA1OH1d" marker-end="url(#my-svg_flowchart-v2-pointEnd)"/><path d="M511.938,87L511.938,91.167C511.938,95.333,511.938,103.667,511.938,114C511.938,124.333,511.938,136.667,511.938,149C511.938,161.333,511.938,173.667,450.367,189.19C388.797,204.713,265.657,223.425,204.087,232.782L142.517,242.138" id="L_D3_M2_0" class="edge-thickness-normal edge-pattern-solid edge-thickness-normal edge-pattern-solid flowchart-link" style=";" data-edge="true" data-et="edge" data-id="L_D3_M2_0" data-points="W3sieCI6NTExLjkzNzUsInkiOjg3fSx7IngiOjUxMS45Mzc1LCJ5IjoxMTJ9LHsieCI6NTExLjkzNzUsInkiOjE0OX0seyJ4Ijo1MTEuOTM3NSwieSI6MTg2fSx7IngiOjEzOC41NjI1LCJ5IjoyNDIuNzM5MDM2ODc3NjQzNH1d" marker-end="url(#my-svg_flowchart-v2-pointEnd)"/><path d="M648.625,87L648.625,91.167C648.625,95.333,648.625,103.667,648.625,114C648.625,124.333,648.625,136.667,648.625,149C648.625,161.333,648.625,173.667,653.837,183.891C659.048,194.115,669.471,202.229,674.683,206.287L679.895,210.344" id="L_D4_M3_0" class="edge-thickness-normal edge-pattern-solid edge-thickness-normal edge-pattern-solid flowchart-link" style=";" data-edge="true" data-et="edge" data-id="L_D4_M3_0" data-points="W3sieCI6NjQ4LjYyNSwieSI6ODd9LHsieCI6NjQ4LjYyNSwieSI6MTEyfSx7IngiOjY0OC42MjUsInkiOjE0OX0seyJ4Ijo2NDguNjI1LCJ5IjoxODZ9LHsieCI6NjgzLjA1MDc4MTI1LCJ5IjoyMTIuODAxMjM1NDQ3ODQ5ODV9XQ==" marker-end="url(#my-svg_flowchart-v2-pointEnd)"/><path d="M785.313,87L785.313,91.167C785.313,95.333,785.313,103.667,785.313,114C785.313,124.333,785.313,136.667,785.313,149C785.313,161.333,785.313,173.667,782.198,183.492C779.083,193.318,772.853,200.636,769.739,204.295L766.624,207.954" id="L_D5_M3_0" class="edge-thickness-normal edge-pattern-solid edge-thickness-normal edge-pattern-solid flowchart-link" style=";" data-edge="true" data-et="edge" data-id="L_D5_M3_0" data-points="W3sieCI6Nzg1LjMxMjUsInkiOjg3fSx7IngiOjc4NS4zMTI1LCJ5IjoxMTJ9LHsieCI6Nzg1LjMxMjUsInkiOjE0OX0seyJ4Ijo3ODUuMzEyNSwieSI6MTg2fSx7IngiOjc2NC4wMzEwNjY4OTQ1MzEyLCJ5IjoyMTF9XQ==" marker-end="url(#my-svg_flowchart-v2-pointEnd)"/><path d="M922,87L922,91.167C922,95.333,922,103.667,922,114C922,124.333,922,136.667,922,149C922,161.333,922,173.667,925.963,183.544C929.926,193.422,937.851,200.844,941.814,204.555L945.777,208.266" id="L_D6_M4_0" class="edge-thickness-normal edge-pattern-solid edge-thickness-normal edge-pattern-solid flowchart-link" style=";" data-edge="true" data-et="edge" data-id="L_D6_M4_0" data-points="W3sieCI6OTIyLCJ5Ijo4N30seyJ4Ijo5MjIsInkiOjExMn0seyJ4Ijo5MjIsInkiOjE0OX0seyJ4Ijo5MjIsInkiOjE4Nn0seyJ4Ijo5NDguNjk2Nzc3MzQzNzUsInkiOjIxMX1d" marker-end="url(#my-svg_flowchart-v2-pointEnd)"/><path d="M1058.688,87L1058.688,91.167C1058.688,95.333,1058.688,103.667,1058.688,114C1058.688,124.333,1058.688,136.667,1058.688,149C1058.688,161.333,1058.688,173.667,1054.725,183.544C1050.762,193.422,1042.836,200.844,1038.873,204.555L1034.91,208.266" id="L_D7_M4_0" class="edge-thickness-normal edge-pattern-solid edge-thickness-normal edge-pattern-solid flowchart-link" style=";" data-edge="true" data-et="edge" data-id="L_D7_M4_0" data-points="W3sieCI6MTA1OC42ODc1LCJ5Ijo4N30seyJ4IjoxMDU4LjY4NzUsInkiOjExMn0seyJ4IjoxMDU4LjY4NzUsInkiOjE0OX0seyJ4IjoxMDU4LjY4NzUsInkiOjE4Nn0seyJ4IjoxMDMxLjk5MDcyMjY1NjI1LCJ5IjoyMTF9XQ==" marker-end="url(#my-svg_flowchart-v2-pointEnd)"/><path d="M370.813,289L370.813,293.167C370.813,297.333,370.813,305.667,370.813,316C370.813,326.333,370.813,338.667,370.813,351C370.813,363.333,370.813,375.667,370.813,385.333C370.813,395,370.813,402,370.813,405.5L370.813,409" id="L_M1_M5_0" class="edge-thickness-normal edge-pattern-solid edge-thickness-normal edge-pattern-solid flowchart-link" style=";" data-edge="true" data-et="edge" data-id="L_M1_M5_0" data-points="W3sieCI6MzcwLjgxMjUsInkiOjI4OX0seyJ4IjozNzAuODEyNSwieSI6MzE0fSx7IngiOjM3MC44MTI1LCJ5IjozNTF9LHsieCI6MzcwLjgxMjUsInkiOjM4OH0seyJ4IjozNzAuODEyNSwieSI6NDEzfV0=" marker-end="url(#my-svg_flowchart-v2-pointEnd)"/><path d="M90.781,289L90.781,293.167C90.781,297.333,90.781,305.667,90.781,316C90.781,326.333,90.781,338.667,90.781,351C90.781,363.333,90.781,375.667,128.84,390.531C166.898,405.396,243.015,422.792,281.073,431.49L319.132,440.189" id="L_M2_M5_0" class="edge-thickness-normal edge-pattern-solid edge-thickness-normal edge-pattern-solid flowchart-link" style=";" data-edge="true" data-et="edge" data-id="L_M2_M5_0" data-points="W3sieCI6OTAuNzgxMjUsInkiOjI4OX0seyJ4Ijo5MC43ODEyNSwieSI6MzE0fSx7IngiOjkwLjc4MTI1LCJ5IjozNTF9LHsieCI6OTAuNzgxMjUsInkiOjM4OH0seyJ4IjozMjMuMDMxMjUsInkiOjQ0MS4wNzk3OTAyMDE5ODY0fV0=" marker-end="url(#my-svg_flowchart-v2-pointEnd)"/><path d="M730.832,289L730.832,293.167C730.832,297.333,730.832,305.667,730.832,316C730.832,326.333,730.832,338.667,730.832,351C730.832,363.333,730.832,375.667,753.729,389.589C776.625,403.511,822.418,419.022,845.315,426.777L868.211,434.533" id="L_M3_M6_0" class="edge-thickness-normal edge-pattern-solid edge-thickness-normal edge-pattern-solid flowchart-link" style=";" data-edge="true" data-et="edge" data-id="L_M3_M6_0" data-points="W3sieCI6NzMwLjgzMjAzMTI1LCJ5IjoyODl9LHsieCI6NzMwLjgzMjAzMTI1LCJ5IjozMTR9LHsieCI6NzMwLjgzMjAzMTI1LCJ5IjozNTF9LHsieCI6NzMwLjgzMjAzMTI1LCJ5IjozODh9LHsieCI6ODcyLCJ5Ijo0MzUuODE1NzU3Mzc1Mjg2ODZ9XQ==" marker-end="url(#my-svg_flowchart-v2-pointEnd)"/><path d="M990.344,289L990.344,293.167C990.344,297.333,990.344,305.667,990.344,316C990.344,326.333,990.344,338.667,990.344,351C990.344,363.333,990.344,375.667,986.244,385.552C982.144,395.438,973.943,402.875,969.843,406.594L965.743,410.313" id="L_M4_M6_0" class="edge-thickness-normal edge-pattern-solid edge-thickness-normal edge-pattern-solid flowchart-link" style=";" data-edge="true" data-et="edge" data-id="L_M4_M6_0" data-points="W3sieCI6OTkwLjM0Mzc1LCJ5IjoyODl9LHsieCI6OTkwLjM0Mzc1LCJ5IjozMTR9LHsieCI6OTkwLjM0Mzc1LCJ5IjozNTF9LHsieCI6OTkwLjM0Mzc1LCJ5IjozODh9LHsieCI6OTYyLjc4MDI3MzQzNzUsInkiOjQxM31d" marker-end="url(#my-svg_flowchart-v2-pointEnd)"/><path d="M370.813,491L370.813,495.167C370.813,499.333,370.813,507.667,370.813,516C370.813,524.333,370.813,532.667,370.813,541C370.813,549.333,370.813,557.667,442.662,571.357C514.512,585.047,658.211,604.094,730.06,613.618L801.91,623.141" id="L_M5_M7_0" class="edge-thickness-normal edge-pattern-solid edge-thickness-normal edge-pattern-solid flowchart-link" style=";" data-edge="true" data-et="edge" data-id="L_M5_M7_0" data-points="W3sieCI6MzcwLjgxMjUsInkiOjQ5MX0seyJ4IjozNzAuODEyNSwieSI6NTE2fSx7IngiOjM3MC44MTI1LCJ5Ijo1NDF9LHsieCI6MzcwLjgxMjUsInkiOjU2Nn0seyJ4Ijo4MDUuODc1LCJ5Ijo2MjMuNjY2Njg4MjQwMjQzNH1d" marker-end="url(#my-svg_flowchart-v2-pointEnd)"/><path d="M919.781,491L919.781,495.167C919.781,499.333,919.781,507.667,919.781,516C919.781,524.333,919.781,532.667,919.781,541C919.781,549.333,919.781,557.667,915.955,565.536C912.129,573.406,904.477,580.812,900.651,584.515L896.825,588.218" id="L_M6_M7_0" class="edge-thickness-normal edge-pattern-solid edge-thickness-normal edge-pattern-solid flowchart-link" style=";" data-edge="true" data-et="edge" data-id="L_M6_M7_0" data-points="W3sieCI6OTE5Ljc4MTI1LCJ5Ijo0OTF9LHsieCI6OTE5Ljc4MTI1LCJ5Ijo1MTZ9LHsieCI6OTE5Ljc4MTI1LCJ5Ijo1NDF9LHsieCI6OTE5Ljc4MTI1LCJ5Ijo1NjZ9LHsieCI6ODkzLjk1MTE3MTg3NSwieSI6NTkxfV0=" marker-end="url(#my-svg_flowchart-v2-pointEnd)"/><path d="M853.656,669L853.656,673.167C853.656,677.333,853.656,685.667,853.656,694C853.656,702.333,853.656,710.667,853.656,718.333C853.656,726,853.656,733,853.656,736.5L853.656,740" id="L_M7_OUTFF_0" class="edge-thickness-normal edge-pattern-solid edge-thickness-normal edge-pattern-solid flowchart-link" style=";" data-edge="true" data-et="edge" data-id="L_M7_OUTFF_0" data-points="W3sieCI6ODUzLjY1NjI1LCJ5Ijo2Njl9LHsieCI6ODUzLjY1NjI1LCJ5Ijo2OTR9LHsieCI6ODUzLjY1NjI1LCJ5Ijo3MTl9LHsieCI6ODUzLjY1NjI1LCJ5Ijo3NDR9XQ==" marker-end="url(#my-svg_flowchart-v2-pointEnd)"/><path d="M1232.811,87L1228.71,91.167C1224.61,95.333,1216.408,103.667,1212.308,114C1208.207,124.333,1208.207,136.667,1208.207,148.333C1208.207,160,1208.207,171,1208.207,176.5L1208.207,182" id="L_SEL_Level1_0" class="edge-thickness-normal edge-pattern-solid edge-thickness-normal edge-pattern-solid flowchart-link" style=";" data-edge="true" data-et="edge" data-id="L_SEL_Level1_0" data-points="W3sieCI6MTIzMi44MTA3NzIyMzU1NzcsInkiOjg3fSx7IngiOjEyMDguMjA3MDMxMjUsInkiOjExMn0seyJ4IjoxMjA4LjIwNzAzMTI1LCJ5IjoxNDl9LHsieCI6MTIwOC4yMDcwMzEyNSwieSI6MTg2fSx7IngiOjQxOC41OTM3NSwieSI6MjQ2LjM0ODE5NjgzNDQ4OTR9XQ==" marker-end="url(#my-svg_flowchart-v2-pointEnd)"/><path d="M1263.51,87L1264.147,91.167C1264.784,95.333,1266.058,103.667,1266.695,114C1267.332,124.333,1267.332,136.667,1267.332,149C1267.332,161.333,1267.332,173.667,1267.332,190.5C1267.332,207.333,1267.332,228.667,1267.332,250C1267.332,271.333,1267.332,292.667,1267.332,309.5C1267.332,326.333,1267.332,338.667,1267.332,350.333C1267.332,362,1267.332,373,1267.332,378.5L1267.332,384" id="L_SEL_Level2_0" class="edge-thickness-normal edge-pattern-solid edge-thickness-normal edge-pattern-solid flowchart-link" style=";" data-edge="true" data-et="edge" data-id="L_SEL_Level2_0" data-points="W3sieCI6MTI2My41MTAyOTE0NjYzNDYyLCJ5Ijo4N30seyJ4IjoxMjY3LjMzMjAzMTI1LCJ5IjoxMTJ9LHsieCI6MTI2Ny4zMzIwMzEyNSwieSI6MTQ5fSx7IngiOjEyNjcuMzMyMDMxMjUsInkiOjE4Nn0seyJ4IjoxMjY3LjMzMjAzMTI1LCJ5IjoyNTB9LHsieCI6MTI2Ny4zMzIwMzEyNSwieSI6MzE0fSx7IngiOjEyNjcuMzMyMDMxMjUsInkiOjM1MX0seyJ4IjoxMjY3LjMzMjAzMTI1LCJ5IjozODh9LHsieCI6NDE4LjU5Mzc1LCJ5Ijo0NDguNTg5MDMxMzY2OTYxNjV9XQ==" marker-end="url(#my-svg_flowchart-v2-pointEnd)"/><path d="M1285.117,87L1289.089,91.167C1293.06,95.333,1301.003,103.667,1304.974,114C1308.945,124.333,1308.945,136.667,1308.945,149C1308.945,161.333,1308.945,173.667,1308.945,190.5C1308.945,207.333,1308.945,228.667,1308.945,250C1308.945,271.333,1308.945,292.667,1308.945,309.5C1308.945,326.333,1308.945,338.667,1308.945,351C1308.945,363.333,1308.945,375.667,1308.945,392.5C1308.945,409.333,1308.945,430.667,1308.945,452C1308.945,473.333,1308.945,494.667,1308.945,509.5C1308.945,524.333,1308.945,532.667,1308.945,540.333C1308.945,548,1308.945,555,1308.945,558.5L1308.945,562" id="L_SEL_Level3_0" class="edge-thickness-normal edge-pattern-solid edge-thickness-normal edge-pattern-solid flowchart-link" style=";" data-edge="true" data-et="edge" data-id="L_SEL_Level3_0" data-points="W3sieCI6MTI4NS4xMTcxODc1LCJ5Ijo4N30seyJ4IjoxMzA4Ljk0NTMxMjUsInkiOjExMn0seyJ4IjoxMzA4Ljk0NTMxMjUsInkiOjE0OX0seyJ4IjoxMzA4Ljk0NTMxMjUsInkiOjE4Nn0seyJ4IjoxMzA4Ljk0NTMxMjUsInkiOjI1MH0seyJ4IjoxMzA4Ljk0NTMxMjUsInkiOjMxNH0seyJ4IjoxMzA4Ljk0NTMxMjUsInkiOjM1MX0seyJ4IjoxMzA4Ljk0NTMxMjUsInkiOjM4OH0seyJ4IjoxMzA4Ljk0NTMxMjUsInkiOjQ1Mn0seyJ4IjoxMzA4Ljk0NTMxMjUsInkiOjUxNn0seyJ4IjoxMzA4Ljk0NTMxMjUsInkiOjU0MX0seyJ4IjoxMzA4Ljk0NTMxMjUsInkiOjU2Nn0seyJ4Ijo5MDEuNDM3NSwieSI6NjIzLjI4MzM4Nzk1NzUxMzJ9XQ==" marker-end="url(#my-svg_flowchart-v2-pointEnd)"/></g><g class="edgeLabels"><g class="edgeLabel"><g class="label" data-id="L_D0_M1_0" transform="translate(0, 0)"><foreignObject width="0" height="0"><div xmlns="http://www.w3.org/1999/xhtml" class="labelBkg" style="display: table-cell; white-space: nowrap; line-height: 1.5; max-width: 200px; text-align: center;"><span class="edgeLabel"></span></div></foreignObject></g></g><g class="edgeLabel"><g class="label" data-id="L_D1_M1_0" transform="translate(0, 0)"><foreignObject width="0" height="0"><div xmlns="http://www.w3.org/1999/xhtml" class="labelBkg" style="display: table-cell; white-space: nowrap; line-height: 1.5; max-width: 200px; text-align: center;"><span class="edgeLabel"></span></div></foreignObject></g></g><g class="edgeLabel"><g class="label" data-id="L_D2_M2_0" transform="translate(0, 0)"><foreignObject width="0" height="0"><div xmlns="http://www.w3.org/1999/xhtml" class="labelBkg" style="display: table-cell; white-space: nowrap; line-height: 1.5; max-width: 200px; text-align: center;"><span class="edgeLabel"></span></div></foreignObject></g></g><g class="edgeLabel"><g class="label" data-id="L_D3_M2_0" transform="translate(0, 0)"><foreignObject width="0" height="0"><div xmlns="http://www.w3.org/1999/xhtml" class="labelBkg" style="display: table-cell; white-space: nowrap; line-height: 1.5; max-width: 200px; text-align: center;"><span class="edgeLabel"></span></div></foreignObject></g></g><g class="edgeLabel"><g class="label" data-id="L_D4_M3_0" transform="translate(0, 0)"><foreignObject width="0" height="0"><div xmlns="http://www.w3.org/1999/xhtml" class="labelBkg" style="display: table-cell; white-space: nowrap; line-height: 1.5; max-width: 200px; text-align: center;"><span class="edgeLabel"></span></div></foreignObject></g></g><g class="edgeLabel"><g class="label" data-id="L_D5_M3_0" transform="translate(0, 0)"><foreignObject width="0" height="0"><div xmlns="http://www.w3.org/1999/xhtml" class="labelBkg" style="display: table-cell; white-space: nowrap; line-height: 1.5; max-width: 200px; text-align: center;"><span class="edgeLabel"></span></div></foreignObject></g></g><g class="edgeLabel"><g class="label" data-id="L_D6_M4_0" transform="translate(0, 0)"><foreignObject width="0" height="0"><div xmlns="http://www.w3.org/1999/xhtml" class="labelBkg" style="display: table-cell; white-space: nowrap; line-height: 1.5; max-width: 200px; text-align: center;"><span class="edgeLabel"></span></div></foreignObject></g></g><g class="edgeLabel"><g class="label" data-id="L_D7_M4_0" transform="translate(0, 0)"><foreignObject width="0" height="0"><div xmlns="http://www.w3.org/1999/xhtml" class="labelBkg" style="display: table-cell; white-space: nowrap; line-height: 1.5; max-width: 200px; text-align: center;"><span class="edgeLabel"></span></div></foreignObject></g></g><g class="edgeLabel"><g class="label" data-id="L_M1_M5_0" transform="translate(0, 0)"><foreignObject width="0" height="0"><div xmlns="http://www.w3.org/1999/xhtml" class="labelBkg" style="display: table-cell; white-space: nowrap; line-height: 1.5; max-width: 200px; text-align: center;"><span class="edgeLabel"></span></div></foreignObject></g></g><g class="edgeLabel"><g class="label" data-id="L_M2_M5_0" transform="translate(0, 0)"><foreignObject width="0" height="0"><div xmlns="http://www.w3.org/1999/xhtml" class="labelBkg" style="display: table-cell; white-space: nowrap; line-height: 1.5; max-width: 200px; text-align: center;"><span class="edgeLabel"></span></div></foreignObject></g></g><g class="edgeLabel"><g class="label" data-id="L_M3_M6_0" transform="translate(0, 0)"><foreignObject width="0" height="0"><div xmlns="http://www.w3.org/1999/xhtml" class="labelBkg" style="display: table-cell; white-space: nowrap; line-height: 1.5; max-width: 200px; text-align: center;"><span class="edgeLabel"></span></div></foreignObject></g></g><g class="edgeLabel"><g class="label" data-id="L_M4_M6_0" transform="translate(0, 0)"><foreignObject width="0" height="0"><div xmlns="http://www.w3.org/1999/xhtml" class="labelBkg" style="display: table-cell; white-space: nowrap; line-height: 1.5; max-width: 200px; text-align: center;"><span class="edgeLabel"></span></div></foreignObject></g></g><g class="edgeLabel"><g class="label" data-id="L_M5_M7_0" transform="translate(0, 0)"><foreignObject width="0" height="0"><div xmlns="http://www.w3.org/1999/xhtml" class="labelBkg" style="display: table-cell; white-space: nowrap; line-height: 1.5; max-width: 200px; text-align: center;"><span class="edgeLabel"></span></div></foreignObject></g></g><g class="edgeLabel"><g class="label" data-id="L_M6_M7_0" transform="translate(0, 0)"><foreignObject width="0" height="0"><div xmlns="http://www.w3.org/1999/xhtml" class="labelBkg" style="display: table-cell; white-space: nowrap; line-height: 1.5; max-width: 200px; text-align: center;"><span class="edgeLabel"></span></div></foreignObject></g></g><g class="edgeLabel"><g class="label" data-id="L_M7_OUTFF_0" transform="translate(0, 0)"><foreignObject width="0" height="0"><div xmlns="http://www.w3.org/1999/xhtml" class="labelBkg" style="display: table-cell; white-space: nowrap; line-height: 1.5; max-width: 200px; text-align: center;"><span class="edgeLabel"></span></div></foreignObject></g></g><g class="edgeLabel" transform="translate(1208.20703, 131.46187)"><g class="label" data-id="L_SEL_Level1_0" transform="translate(-19.125, -12)"><foreignObject width="38.25" height="24"><div xmlns="http://www.w3.org/1999/xhtml" class="labelBkg" style="display: table-cell; white-space: nowrap; line-height: 1.5; max-width: 200px; text-align: center;"><span class="edgeLabel"><p>sel[0]</p></span></div></foreignObject></g></g><g class="edgeLabel" transform="translate(1267.33203, 237.35479)"><g class="label" data-id="L_SEL_Level2_0" transform="translate(-19.125, -12)"><foreignObject width="38.25" height="24"><div xmlns="http://www.w3.org/1999/xhtml" class="labelBkg" style="display: table-cell; white-space: nowrap; line-height: 1.5; max-width: 200px; text-align: center;"><span class="edgeLabel"><p>sel[1]</p></span></div></foreignObject></g></g><g class="edgeLabel" transform="translate(1308.94531, 321.73168)"><g class="label" data-id="L_SEL_Level3_0" transform="translate(-19.125, -12)"><foreignObject width="38.25" height="24"><div xmlns="http://www.w3.org/1999/xhtml" class="labelBkg" style="display: table-cell; white-space: nowrap; line-height: 1.5; max-width: 200px; text-align: center;"><span class="edgeLabel"><p>sel[2]</p></span></div></foreignObject></g></g></g><g class="nodes"><g class="node default" id="flowchart-D0-0" transform="translate(93, 60)"><rect class="basic label-container" style="" x="-43.34375" y="-27" width="86.6875" height="54"/><g class="label" style="" transform="translate(-13.34375, -12)"><rect/><foreignObject width="26.6875" height="24"><div xmlns="http://www.w3.org/1999/xhtml" style="display: table-cell; white-space: nowrap; line-height: 1.5; max-width: 200px; text-align: center;"><span class="nodeLabel"><p>d[0]</p></span></div></foreignObject></g></g><g class="node default" id="flowchart-D1-1" transform="translate(229.6875, 60)"><rect class="basic label-container" style="" x="-43.34375" y="-27" width="86.6875" height="54"/><g class="label" style="" transform="translate(-13.34375, -12)"><rect/><foreignObject width="26.6875" height="24"><div xmlns="http://www.w3.org/1999/xhtml" style="display: table-cell; white-space: nowrap; line-height: 1.5; max-width: 200px; text-align: center;"><span class="nodeLabel"><p>d[1]</p></span></div></foreignObject></g></g><g class="node default" id="flowchart-D2-2" transform="translate(366.375, 60)"><rect class="basic label-container" style="" x="-43.34375" y="-27" width="86.6875" height="54"/><g class="label" style="" transform="translate(-13.34375, -12)"><rect/><foreignObject width="26.6875" height="24"><div xmlns="http://www.w3.org/1999/xhtml" style="display: table-cell; white-space: nowrap; line-height: 1.5; max-width: 200px; text-align: center;"><span class="nodeLabel"><p>d[2]</p></span></div></foreignObject></g></g><g class="node default" id="flowchart-D3-3" transform="translate(511.9375, 60)"><rect class="basic label-container" style="" x="-43.34375" y="-27" width="86.6875" height="54"/><g class="label" style="" transform="translate(-13.34375, -12)"><rect/><foreignObject width="26.6875" height="24"><div xmlns="http://www.w3.org/1999/xhtml" style="display: table-cell; white-space: nowrap; line-height: 1.5; max-width: 200px; text-align: center;"><span class="nodeLabel"><p>d[3]</p></span></div></foreignObject></g></g><g class="node default" id="flowchart-D4-4" transform="translate(648.625, 60)"><rect class="basic label-container" style="" x="-43.34375" y="-27" width="86.6875" height="54"/><g class="label" style="" transform="translate(-13.34375, -12)"><rect/><foreignObject width="26.6875" height="24"><div xmlns="http://www.w3.org/1999/xhtml" style="display: table-cell; white-space: nowrap; line-height: 1.5; max-width: 200px; text-align: center;"><span class="nodeLabel"><p>d[4]</p></span></div></foreignObject></g></g><g class="node default" id="flowchart-D5-5" transform="translate(785.3125, 60)"><rect class="basic label-container" style="" x="-43.34375" y="-27" width="86.6875" height="54"/><g class="label" style="" transform="translate(-13.34375, -12)"><rect/><foreignObject width="26.6875" height="24"><div xmlns="http://www.w3.org/1999/xhtml" style="display: table-cell; white-space: nowrap; line-height: 1.5; max-width: 200px; text-align: center;"><span class="nodeLabel"><p>d[5]</p></span></div></foreignObject></g></g><g class="node default" id="flowchart-D6-6" transform="translate(922, 60)"><rect class="basic label-container" style="" x="-43.34375" y="-27" width="86.6875" height="54"/><g class="label" style="" transform="translate(-13.34375, -12)"><rect/><foreignObject width="26.6875" height="24"><div xmlns="http://www.w3.org/1999/xhtml" style="display: table-cell; white-space: nowrap; line-height: 1.5; max-width: 200px; text-align: center;"><span class="nodeLabel"><p>d[6]</p></span></div></foreignObject></g></g><g class="node default" id="flowchart-D7-7" transform="translate(1058.6875, 60)"><rect class="basic label-container" style="" x="-43.34375" y="-27" width="86.6875" height="54"/><g class="label" style="" transform="translate(-13.34375, -12)"><rect/><foreignObject width="26.6875" height="24"><div xmlns="http://www.w3.org/1999/xhtml" style="display: table-cell; white-space: nowrap; line-height: 1.5; max-width: 200px; text-align: center;"><span class="nodeLabel"><p>d[7]</p></span></div></foreignObject></g></g><g class="node default" id="flowchart-M1-8" transform="translate(370.8125, 250)"><rect class="basic label-container" style="" x="-47.78125" y="-39" width="95.5625" height="78"/><g class="label" style="" transform="translate(-17.78125, -24)"><rect/><foreignObject width="35.5625" height="48"><div xmlns="http://www.w3.org/1999/xhtml" style="display: table-cell; white-space: nowrap; line-height: 1.5; max-width: 200px; text-align: center;"><span class="nodeLabel"><p>2:1<br />MUX</p></span></div></foreignObject></g></g><g class="node default" id="flowchart-M2-9" transform="translate(90.78125, 250)"><rect class="basic label-container" style="" x="-47.78125" y="-39" width="95.5625" height="78"/><g class="label" style="" transform="translate(-17.78125, -24)"><rect/><foreignObject width="35.5625" height="48"><div xmlns="http://www.w3.org/1999/xhtml" style="display: table-cell; white-space: nowrap; line-height: 1.5; max-width: 200px; text-align: center;"><span class="nodeLabel"><p>2:1<br />MUX</p></span></div></foreignObject></g></g><g class="node default" id="flowchart-M3-10" transform="translate(730.83203125, 250)"><rect class="basic label-container" style="" x="-47.78125" y="-39" width="95.5625" height="78"/><g class="label" style="" transform="translate(-17.78125, -24)"><rect/><foreignObject width="35.5625" height="48"><div xmlns="http://www.w3.org/1999/xhtml" style="display: table-cell; white-space: nowrap; line-height: 1.5; max-width: 200px; text-align: center;"><span class="nodeLabel"><p>2:1<br />MUX</p></span></div></foreignObject></g></g><g class="node default" id="flowchart-M4-11" transform="translate(990.34375, 250)"><rect class="basic label-container" style="" x="-47.78125" y="-39" width="95.5625" height="78"/><g class="label" style="" transform="translate(-17.78125, -24)"><rect/><foreignObject width="35.5625" height="48"><div xmlns="http://www.w3.org/1999/xhtml" style="display: table-cell; white-space: nowrap; line-height: 1.5; max-width: 200px; text-align: center;"><span class="nodeLabel"><p>2:1<br />MUX</p></span></div></foreignObject></g></g><g class="node default" id="flowchart-M5-12" transform="translate(370.8125, 452)"><rect class="basic label-container" style="" x="-47.78125" y="-39" width="95.5625" height="78"/><g class="label" style="" transform="translate(-17.78125, -24)"><rect/><foreignObject width="35.5625" height="48"><div xmlns="http://www.w3.org/1999/xhtml" style="display: table-cell; white-space: nowrap; line-height: 1.5; max-width: 200px; text-align: center;"><span class="nodeLabel"><p>2:1<br />MUX</p></span></div></foreignObject></g></g><g class="node default" id="flowchart-M6-13" transform="translate(919.78125, 452)"><rect class="basic label-container" style="" x="-47.78125" y="-39" width="95.5625" height="78"/><g class="label" style="" transform="translate(-17.78125, -24)"><rect/><foreignObject width="35.5625" height="48"><div xmlns="http://www.w3.org/1999/xhtml" style="display: table-cell; white-space: nowrap; line-height: 1.5; max-width: 200px; text-align: center;"><span class="nodeLabel"><p>2:1<br />MUX</p></span></div></foreignObject></g></g><g class="node default" id="flowchart-M7-14" transform="translate(853.65625, 630)"><rect class="basic label-container" style="" x="-47.78125" y="-39" width="95.5625" height="78"/><g class="label" style="" transform="translate(-17.78125, -24)"><rect/><foreignObject width="35.5625" height="48"><div xmlns="http://www.w3.org/1999/xhtml" style="display: table-cell; white-space: nowrap; line-height: 1.5; max-width: 200px; text-align: center;"><span class="nodeLabel"><p>2:1<br />MUX</p></span></div></foreignObject></g></g><g class="node default" id="flowchart-SEL-15" transform="translate(1259.3828125, 60)"><rect class="basic label-container" style="" x="-87.3515625" y="-27" width="174.703125" height="54"/><g class="label" style="" transform="translate(-57.3515625, -12)"><rect/><foreignObject width="114.703125" height="24"><div xmlns="http://www.w3.org/1999/xhtml" style="display: table-cell; white-space: nowrap; line-height: 1.5; max-width: 200px; text-align: center;"><span class="nodeLabel"><p>i_sel from LFSR</p></span></div></foreignObject></g></g><g class="node default" id="flowchart-OUTFF-51" transform="translate(853.65625, 771)"><rect class="basic label-container" style="" x="-59.359375" y="-27" width="118.71875" height="54"/><g class="label" style="" transform="translate(-29.359375, -12)"><rect/><foreignObject width="58.71875" height="24"><div xmlns="http://www.w3.org/1999/xhtml" style="display: table-cell; white-space: nowrap; line-height: 1.5; max-width: 200px; text-align: center;"><span class="nodeLabel"><p>r_output</p></span></div></foreignObject></g></g></g></g></g></svg>