<?xml version="1.0" encoding="UTF-8" standalone="no"?>
<!DOCTYPE svg PUBLIC "-//W3C//DTD SVG 1.1//EN"
 "http://www.w3.org/Graphics/SVG/1.1/DTD/svg11.dtd">
<!-- Generated by graphviz version 2.43.0 (0)
 -->
<!-- Title: pm_acpi_top Pages: 1 -->
<svg width="1185pt" height="305pt"
 viewBox="0.00 0.00 1184.77 305.48" xmlns="http://www.w3.org/2000/svg" xmlns:xlink="http://www.w3.org/1999/xlink">
<g id="graph0" class="graph" transform="scale(1 1) rotate(0) translate(4 301.48)">
<title>pm_acpi_top</title>
<polygon fill="white" stroke="transparent" points="-4,4 -4,-301.48 1180.77,-301.48 1180.77,4 -4,4"/>
<g id="clust1" class="cluster">
<title>cluster_pm</title>
<path fill="none" stroke="black" d="M168.28,-84.48C168.28,-84.48 1053.75,-84.48 1053.75,-84.48 1059.75,-84.48 1065.75,-90.48 1065.75,-96.48 1065.75,-96.48 1065.75,-241.48 1065.75,-241.48 1065.75,-247.48 1059.75,-253.48 1053.75,-253.48 1053.75,-253.48 168.28,-253.48 168.28,-253.48 162.28,-253.48 156.28,-247.48 156.28,-241.48 156.28,-241.48 156.28,-96.48 156.28,-96.48 156.28,-90.48 162.28,-84.48 168.28,-84.48"/>
<text text-anchor="middle" x="611.01" y="-238.28" font-family="Times,serif" font-size="14.00">apb_pm_acpi</text>
</g>
<!-- apb_in -->
<g id="node1" class="node">
<title>apb_in</title>
<ellipse fill="lightgreen" stroke="black" cx="63.64" cy="-138.48" rx="63.78" ry="26.74"/>
<text text-anchor="middle" x="63.64" y="-142.28" font-family="Times,serif" font-size="14.00">APB Slave</text>
<text text-anchor="middle" x="63.64" y="-127.28" font-family="Times,serif" font-size="14.00">Interface</text>
</g>
<!-- apb_if -->
<g id="node3" class="node">
<title>apb_if</title>
<path fill="lightyellow" stroke="black" d="M233.28,-157.48C233.28,-157.48 176.28,-157.48 176.28,-157.48 170.28,-157.48 164.28,-151.48 164.28,-145.48 164.28,-145.48 164.28,-131.48 164.28,-131.48 164.28,-125.48 170.28,-119.48 176.28,-119.48 176.28,-119.48 233.28,-119.48 233.28,-119.48 239.28,-119.48 245.28,-125.48 245.28,-131.48 245.28,-131.48 245.28,-145.48 245.28,-145.48 245.28,-151.48 239.28,-157.48 233.28,-157.48"/>
<text text-anchor="middle" x="204.78" y="-142.28" font-family="Times,serif" font-size="14.00">APB</text>
<text text-anchor="middle" x="204.78" y="-127.28" font-family="Times,serif" font-size="14.00">Interface</text>
</g>
<!-- apb_in&#45;&gt;apb_if -->
<g id="edge1" class="edge">
<title>apb_in&#45;&gt;apb_if</title>
<path fill="none" stroke="black" d="M127.29,-138.48C136.21,-138.48 145.29,-138.48 153.92,-138.48"/>
<polygon fill="black" stroke="black" points="154.2,-141.98 164.2,-138.48 154.2,-134.98 154.2,-141.98"/>
</g>
<!-- events_in -->
<g id="node2" class="node">
<title>events_in</title>
<ellipse fill="lightgreen" stroke="black" cx="552.62" cy="-37.48" rx="113.27" ry="37.45"/>
<text text-anchor="middle" x="552.62" y="-48.78" font-family="Times,serif" font-size="14.00">Event Inputs</text>
<text text-anchor="middle" x="552.62" y="-33.78" font-family="Times,serif" font-size="14.00">(PWRBTN, SLPBTN,</text>
<text text-anchor="middle" x="552.62" y="-18.78" font-family="Times,serif" font-size="14.00">RTC, GPE)</text>
</g>
<!-- event_ctrl -->
<g id="node6" class="node">
<title>event_ctrl</title>
<path fill="lightcyan" stroke="black" d="M879.75,-172.48C879.75,-172.48 814.75,-172.48 814.75,-172.48 808.75,-172.48 802.75,-166.48 802.75,-160.48 802.75,-160.48 802.75,-146.48 802.75,-146.48 802.75,-140.48 808.75,-134.48 814.75,-134.48 814.75,-134.48 879.75,-134.48 879.75,-134.48 885.75,-134.48 891.75,-140.48 891.75,-146.48 891.75,-146.48 891.75,-160.48 891.75,-160.48 891.75,-166.48 885.75,-172.48 879.75,-172.48"/>
<text text-anchor="middle" x="847.25" y="-157.28" font-family="Times,serif" font-size="14.00">Event</text>
<text text-anchor="middle" x="847.25" y="-142.28" font-family="Times,serif" font-size="14.00">Controller</text>
</g>
<!-- events_in&#45;&gt;event_ctrl -->
<g id="edge4" class="edge">
<title>events_in&#45;&gt;event_ctrl</title>
<path fill="none" stroke="black" d="M627.59,-65.62C640.34,-70.53 653.44,-75.62 665.76,-80.48 708.78,-97.42 757.35,-117.1 793.26,-131.75"/>
<polygon fill="black" stroke="black" points="792,-135.01 802.58,-135.55 794.64,-128.53 792,-135.01"/>
</g>
<!-- regs -->
<g id="node4" class="node">
<title>regs</title>
<path fill="lightyellow" stroke="black" d="M368.88,-171.48C368.88,-171.48 315.88,-171.48 315.88,-171.48 309.88,-171.48 303.88,-165.48 303.88,-159.48 303.88,-159.48 303.88,-145.48 303.88,-145.48 303.88,-139.48 309.88,-133.48 315.88,-133.48 315.88,-133.48 368.88,-133.48 368.88,-133.48 374.88,-133.48 380.88,-139.48 380.88,-145.48 380.88,-145.48 380.88,-159.48 380.88,-159.48 380.88,-165.48 374.88,-171.48 368.88,-171.48"/>
<text text-anchor="middle" x="342.38" y="-156.28" font-family="Times,serif" font-size="14.00">Register</text>
<text text-anchor="middle" x="342.38" y="-141.28" font-family="Times,serif" font-size="14.00">File</text>
</g>
<!-- apb_if&#45;&gt;regs -->
<g id="edge2" class="edge">
<title>apb_if&#45;&gt;regs</title>
<path fill="none" stroke="black" d="M245.37,-142.56C260.5,-144.13 277.92,-145.92 293.73,-147.56"/>
<polygon fill="black" stroke="black" points="293.54,-151.06 303.84,-148.6 294.26,-144.09 293.54,-151.06"/>
</g>
<!-- apb_out -->
<g id="node11" class="node">
<title>apb_out</title>
<ellipse fill="pink" stroke="black" cx="342.38" cy="-49.48" rx="60.21" ry="26.74"/>
<text text-anchor="middle" x="342.38" y="-53.28" font-family="Times,serif" font-size="14.00">APB</text>
<text text-anchor="middle" x="342.38" y="-38.28" font-family="Times,serif" font-size="14.00">Response</text>
</g>
<!-- apb_if&#45;&gt;apb_out -->
<g id="edge3" class="edge">
<title>apb_if&#45;&gt;apb_out</title>
<path fill="none" stroke="black" d="M228.83,-119.41C243.65,-107.55 263.57,-92.36 282.28,-80.48 285.6,-78.37 289.07,-76.28 292.6,-74.23"/>
<polygon fill="black" stroke="black" points="294.44,-77.21 301.45,-69.27 291.01,-71.11 294.44,-77.21"/>
</g>
<!-- pm_timer -->
<g id="node5" class="node">
<title>pm_timer</title>
<path fill="lightcyan" stroke="black" d="M604.62,-145.98C604.62,-145.98 500.62,-145.98 500.62,-145.98 494.62,-145.98 488.62,-139.98 488.62,-133.98 488.62,-133.98 488.62,-104.98 488.62,-104.98 488.62,-98.98 494.62,-92.98 500.62,-92.98 500.62,-92.98 604.62,-92.98 604.62,-92.98 610.62,-92.98 616.62,-98.98 616.62,-104.98 616.62,-104.98 616.62,-133.98 616.62,-133.98 616.62,-139.98 610.62,-145.98 604.62,-145.98"/>
<text text-anchor="middle" x="552.62" y="-130.78" font-family="Times,serif" font-size="14.00">PM Timer</text>
<text text-anchor="middle" x="552.62" y="-115.78" font-family="Times,serif" font-size="14.00">(24&#45;bit</text>
<text text-anchor="middle" x="552.62" y="-100.78" font-family="Times,serif" font-size="14.00">3.579545 MHz)</text>
</g>
<!-- regs&#45;&gt;pm_timer -->
<g id="edge7" class="edge">
<title>regs&#45;&gt;pm_timer</title>
<path fill="none" stroke="black" d="M381.09,-141.16C408.18,-135.52 445.56,-129.21 478.41,-124.6"/>
<polygon fill="black" stroke="black" points="479.02,-128.05 488.45,-123.22 478.07,-121.11 479.02,-128.05"/>
</g>
<!-- regs&#45;&gt;event_ctrl -->
<g id="edge5" class="edge">
<title>regs&#45;&gt;event_ctrl</title>
<path fill="none" stroke="black" d="M381.02,-149.39C452.12,-149.28 611.02,-156.08 744.76,-151.48 760.18,-150.95 776.89,-149.96 792.22,-149.25"/>
<polygon fill="black" stroke="black" points="792.73,-152.74 802.58,-148.82 792.44,-145.74 792.73,-152.74"/>
</g>
<!-- sleep_ctrl -->
<g id="node7" class="node">
<title>sleep_ctrl</title>
<path fill="lightcyan" stroke="black" d="M585.12,-222.48C585.12,-222.48 520.12,-222.48 520.12,-222.48 514.12,-222.48 508.12,-216.48 508.12,-210.48 508.12,-210.48 508.12,-196.48 508.12,-196.48 508.12,-190.48 514.12,-184.48 520.12,-184.48 520.12,-184.48 585.12,-184.48 585.12,-184.48 591.12,-184.48 597.12,-190.48 597.12,-196.48 597.12,-196.48 597.12,-210.48 597.12,-210.48 597.12,-216.48 591.12,-222.48 585.12,-222.48"/>
<text text-anchor="middle" x="552.62" y="-207.28" font-family="Times,serif" font-size="14.00">Sleep</text>
<text text-anchor="middle" x="552.62" y="-192.28" font-family="Times,serif" font-size="14.00">Controller</text>
</g>
<!-- regs&#45;&gt;sleep_ctrl -->
<g id="edge10" class="edge">
<title>regs&#45;&gt;sleep_ctrl</title>
<path fill="none" stroke="black" d="M381.09,-161.71C413.77,-169.71 461.42,-181.39 498.05,-190.36"/>
<polygon fill="black" stroke="black" points="497.52,-193.83 508.07,-192.81 499.19,-187.03 497.52,-193.83"/>
</g>
<!-- pm_timer&#45;&gt;regs -->
<g id="edge8" class="edge">
<title>pm_timer&#45;&gt;regs</title>
<path fill="none" stroke="black" d="M488.45,-135.75C457.23,-141.48 420.17,-147.19 391.32,-150.67"/>
<polygon fill="black" stroke="black" points="390.63,-147.22 381.09,-151.84 391.43,-154.18 390.63,-147.22"/>
</g>
<!-- pm_timer&#45;&gt;event_ctrl -->
<g id="edge9" class="edge">
<title>pm_timer&#45;&gt;event_ctrl</title>
<path fill="none" stroke="black" d="M616.76,-126.81C669.15,-132.9 742.85,-141.46 792.47,-147.23"/>
<polygon fill="black" stroke="black" points="792.34,-150.74 802.68,-148.41 793.15,-143.78 792.34,-150.74"/>
<text text-anchor="middle" x="714.26" y="-145.28" font-family="Times,serif" font-size="14.00">overflow</text>
</g>
<!-- event_ctrl&#45;&gt;regs -->
<g id="edge6" class="edge">
<title>event_ctrl&#45;&gt;regs</title>
<path fill="none" stroke="black" d="M802.58,-165.48C784.67,-167.48 763.74,-168.82 744.76,-169.48 617.03,-173.88 466.34,-167.87 391.12,-160.8"/>
<polygon fill="black" stroke="black" points="391.32,-157.3 381.02,-159.79 390.63,-164.27 391.32,-157.3"/>
</g>
<!-- sci_gen -->
<g id="node8" class="node">
<title>sci_gen</title>
<path fill="lightcyan" stroke="black" d="M1045.75,-172.48C1045.75,-172.48 980.75,-172.48 980.75,-172.48 974.75,-172.48 968.75,-166.48 968.75,-160.48 968.75,-160.48 968.75,-146.48 968.75,-146.48 968.75,-140.48 974.75,-134.48 980.75,-134.48 980.75,-134.48 1045.75,-134.48 1045.75,-134.48 1051.75,-134.48 1057.75,-140.48 1057.75,-146.48 1057.75,-146.48 1057.75,-160.48 1057.75,-160.48 1057.75,-166.48 1051.75,-172.48 1045.75,-172.48"/>
<text text-anchor="middle" x="1013.25" y="-157.28" font-family="Times,serif" font-size="14.00">SCI/SMI</text>
<text text-anchor="middle" x="1013.25" y="-142.28" font-family="Times,serif" font-size="14.00">Generator</text>
</g>
<!-- event_ctrl&#45;&gt;sci_gen -->
<g id="edge12" class="edge">
<title>event_ctrl&#45;&gt;sci_gen</title>
<path fill="none" stroke="black" d="M891.77,-153.48C912.25,-153.48 936.87,-153.48 958.5,-153.48"/>
<polygon fill="black" stroke="black" points="958.53,-156.98 968.53,-153.48 958.53,-149.98 958.53,-156.98"/>
</g>
<!-- sleep_out -->
<g id="node10" class="node">
<title>sleep_out</title>
<ellipse fill="pink" stroke="black" cx="847.25" cy="-279.48" rx="84.49" ry="18"/>
<text text-anchor="middle" x="847.25" y="-275.78" font-family="Times,serif" font-size="14.00">sleep_state[2:0]</text>
</g>
<!-- sleep_ctrl&#45;&gt;sleep_out -->
<g id="edge11" class="edge">
<title>sleep_ctrl&#45;&gt;sleep_out</title>
<path fill="none" stroke="black" d="M597.43,-214.85C646.69,-227.65 727.1,-248.53 783.13,-263.08"/>
<polygon fill="black" stroke="black" points="782.39,-266.51 792.95,-265.63 784.15,-259.73 782.39,-266.51"/>
</g>
<!-- sci_out -->
<g id="node9" class="node">
<title>sci_out</title>
<ellipse fill="pink" stroke="black" cx="1135.76" cy="-153.48" rx="41.02" ry="26.74"/>
<text text-anchor="middle" x="1135.76" y="-157.28" font-family="Times,serif" font-size="14.00">sci_n</text>
<text text-anchor="middle" x="1135.76" y="-142.28" font-family="Times,serif" font-size="14.00">smi_n</text>
</g>
<!-- sci_gen&#45;&gt;sci_out -->
<g id="edge13" class="edge">
<title>sci_gen&#45;&gt;sci_out</title>
<path fill="none" stroke="black" d="M1057.75,-153.48C1066.38,-153.48 1075.5,-153.48 1084.34,-153.48"/>
<polygon fill="black" stroke="black" points="1084.53,-156.98 1094.53,-153.48 1084.53,-149.98 1084.53,-156.98"/>
</g>
</g>
</svg>
