<?xml version="1.0" encoding="UTF-8" standalone="no"?>
<!DOCTYPE svg PUBLIC "-//W3C//DTD SVG 1.1//EN"
 "http://www.w3.org/Graphics/SVG/1.1/DTD/svg11.dtd">
<!-- Generated by graphviz version 2.43.20190912.0211 (20190912.0211)
 -->
<!-- Title: pm_acpi_top Pages: 1 -->
<svg width="1612pt" height="540pt"
 viewBox="0.00 0.00 1611.73 540.35" xmlns="http://www.w3.org/2000/svg" xmlns:xlink="http://www.w3.org/1999/xlink">
<g id="graph0" class="graph" transform="scale(1 1) rotate(0) translate(4 536.35)">
<title>pm_acpi_top</title>
<polygon fill="white" stroke="transparent" points="-4,4 -4,-536.35 1607.73,-536.35 1607.73,4 -4,4"/>
<g id="clust1" class="cluster">
<title>cluster_pm</title>
<path fill="none" stroke="black" d="M168.28,-154.48C168.28,-154.48 1312.41,-154.48 1312.41,-154.48 1318.41,-154.48 1324.41,-160.48 1324.41,-166.48 1324.41,-166.48 1324.41,-458.48 1324.41,-458.48 1324.41,-464.48 1318.41,-470.48 1312.41,-470.48 1312.41,-470.48 168.28,-470.48 168.28,-470.48 162.28,-470.48 156.28,-464.48 156.28,-458.48 156.28,-458.48 156.28,-166.48 156.28,-166.48 156.28,-160.48 162.28,-154.48 168.28,-154.48"/>
<text text-anchor="middle" x="740.35" y="-455.28" font-family="Times,serif" font-size="14.00">apb4_pm_acpi</text>
</g>
<!-- apb_in -->
<g id="node1" class="node">
<title>apb_in</title>
<ellipse fill="lightgreen" stroke="black" cx="63.64" cy="-263.48" rx="63.78" ry="26.74"/>
<text text-anchor="middle" x="63.64" y="-267.28" font-family="Times,serif" font-size="14.00">APB Slave</text>
<text text-anchor="middle" x="63.64" y="-252.28" font-family="Times,serif" font-size="14.00">Interface</text>
</g>
<!-- apb_if -->
<g id="node3" class="node">
<title>apb_if</title>
<path fill="lightyellow" stroke="black" d="M290.28,-289.98C290.28,-289.98 176.28,-289.98 176.28,-289.98 170.28,-289.98 164.28,-283.98 164.28,-277.98 164.28,-277.98 164.28,-248.98 164.28,-248.98 164.28,-242.98 170.28,-236.98 176.28,-236.98 176.28,-236.98 290.28,-236.98 290.28,-236.98 296.28,-236.98 302.28,-242.98 302.28,-248.98 302.28,-248.98 302.28,-277.98 302.28,-277.98 302.28,-283.98 296.28,-289.98 290.28,-289.98"/>
<text text-anchor="middle" x="233.28" y="-274.78" font-family="Times,serif" font-size="14.00">APB</text>
<text text-anchor="middle" x="233.28" y="-259.78" font-family="Times,serif" font-size="14.00">Interface</text>
<text text-anchor="middle" x="233.28" y="-244.78" font-family="Times,serif" font-size="14.00">(+ optional CDC)</text>
</g>
<!-- apb_in&#45;&gt;apb_if -->
<g id="edge1" class="edge">
<title>apb_in&#45;&gt;apb_if</title>
<path fill="none" stroke="black" d="M127.54,-263.48C136.25,-263.48 145.28,-263.48 154.22,-263.48"/>
<polygon fill="black" stroke="black" points="154.26,-266.98 164.26,-263.48 154.26,-259.98 154.26,-266.98"/>
</g>
<!-- events_in -->
<g id="node2" class="node">
<title>events_in</title>
<ellipse fill="lightgreen" stroke="black" cx="467.97" cy="-37.48" rx="128.89" ry="37.45"/>
<text text-anchor="middle" x="467.97" y="-48.78" font-family="Times,serif" font-size="14.00">Event Inputs</text>
<text text-anchor="middle" x="467.97" y="-33.78" font-family="Times,serif" font-size="14.00">(PWRBTN, SLPBTN,</text>
<text text-anchor="middle" x="467.97" y="-18.78" font-family="Times,serif" font-size="14.00">RTC, EXT_WAKE, GPE)</text>
</g>
<!-- sync -->
<g id="node5" class="node">
<title>sync</title>
<path fill="lightcyan" stroke="black" d="M787.54,-230.48C787.54,-230.48 673.54,-230.48 673.54,-230.48 667.54,-230.48 661.54,-224.48 661.54,-218.48 661.54,-218.48 661.54,-174.48 661.54,-174.48 661.54,-168.48 667.54,-162.48 673.54,-162.48 673.54,-162.48 787.54,-162.48 787.54,-162.48 793.54,-162.48 799.54,-168.48 799.54,-174.48 799.54,-174.48 799.54,-218.48 799.54,-218.48 799.54,-224.48 793.54,-230.48 787.54,-230.48"/>
<text text-anchor="middle" x="730.54" y="-215.28" font-family="Times,serif" font-size="14.00">Input</text>
<text text-anchor="middle" x="730.54" y="-200.28" font-family="Times,serif" font-size="14.00">Synchronizers</text>
<text text-anchor="middle" x="730.54" y="-185.28" font-family="Times,serif" font-size="14.00">(SYNC_STAGES /</text>
<text text-anchor="middle" x="730.54" y="-170.28" font-family="Times,serif" font-size="14.00">3&#45;flop buttons)</text>
</g>
<!-- events_in&#45;&gt;sync -->
<g id="edge4" class="edge">
<title>events_in&#45;&gt;sync</title>
<path fill="none" stroke="black" d="M557.4,-64.61C570.92,-70.09 584.43,-76.39 596.67,-83.48 630.5,-103.09 664.01,-131.67 688.92,-155.18"/>
<polygon fill="black" stroke="black" points="686.71,-157.91 696.36,-162.3 691.55,-152.86 686.71,-157.91"/>
</g>
<!-- regs -->
<g id="node4" class="node">
<title>regs</title>
<path fill="lightyellow" stroke="black" d="M551.47,-372.48C551.47,-372.48 384.47,-372.48 384.47,-372.48 378.47,-372.48 372.47,-366.48 372.47,-360.48 372.47,-360.48 372.47,-316.48 372.47,-316.48 372.47,-310.48 378.47,-304.48 384.47,-304.48 384.47,-304.48 551.47,-304.48 551.47,-304.48 557.47,-304.48 563.47,-310.48 563.47,-316.48 563.47,-316.48 563.47,-360.48 563.47,-360.48 563.47,-366.48 557.47,-372.48 551.47,-372.48"/>
<text text-anchor="middle" x="467.97" y="-357.28" font-family="Times,serif" font-size="14.00">Register File</text>
<text text-anchor="middle" x="467.97" y="-342.28" font-family="Times,serif" font-size="14.00">(strict decode,</text>
<text text-anchor="middle" x="467.97" y="-327.28" font-family="Times,serif" font-size="14.00">PSLVERR on unmapped,</text>
<text text-anchor="middle" x="467.97" y="-312.28" font-family="Times,serif" font-size="14.00">status mirrors)</text>
</g>
<!-- apb_if&#45;&gt;regs -->
<g id="edge2" class="edge">
<title>apb_if&#45;&gt;regs</title>
<path fill="none" stroke="black" d="M302.52,-285.47C321.39,-291.55 342.31,-298.3 362.73,-304.88"/>
<polygon fill="black" stroke="black" points="361.79,-308.25 372.38,-307.99 363.94,-301.59 361.79,-308.25"/>
</g>
<!-- apb_out -->
<g id="node13" class="node">
<title>apb_out</title>
<ellipse fill="pink" stroke="black" cx="467.97" cy="-119.48" rx="60.21" ry="26.74"/>
<text text-anchor="middle" x="467.97" y="-123.28" font-family="Times,serif" font-size="14.00">APB</text>
<text text-anchor="middle" x="467.97" y="-108.28" font-family="Times,serif" font-size="14.00">Response</text>
</g>
<!-- apb_if&#45;&gt;apb_out -->
<g id="edge3" class="edge">
<title>apb_if&#45;&gt;apb_out</title>
<path fill="none" stroke="black" d="M251.91,-236.86C270.54,-210.87 302.31,-172.14 339.28,-150.48 357.55,-139.77 379.35,-132.75 399.73,-128.16"/>
<polygon fill="black" stroke="black" points="400.53,-131.57 409.6,-126.09 399.09,-124.71 400.53,-131.57"/>
</g>
<!-- pm_timer -->
<g id="node6" class="node">
<title>pm_timer</title>
<path fill="lightcyan" stroke="black" d="M775.04,-301.98C775.04,-301.98 686.04,-301.98 686.04,-301.98 680.04,-301.98 674.04,-295.98 674.04,-289.98 674.04,-289.98 674.04,-260.98 674.04,-260.98 674.04,-254.98 680.04,-248.98 686.04,-248.98 686.04,-248.98 775.04,-248.98 775.04,-248.98 781.04,-248.98 787.04,-254.98 787.04,-260.98 787.04,-260.98 787.04,-289.98 787.04,-289.98 787.04,-295.98 781.04,-301.98 775.04,-301.98"/>
<text text-anchor="middle" x="730.54" y="-286.78" font-family="Times,serif" font-size="14.00">PM Timer</text>
<text text-anchor="middle" x="730.54" y="-271.78" font-family="Times,serif" font-size="14.00">(32&#45;bit</text>
<text text-anchor="middle" x="730.54" y="-256.78" font-family="Times,serif" font-size="14.00">~3.571 MHz)</text>
</g>
<!-- regs&#45;&gt;pm_timer -->
<g id="edge8" class="edge">
<title>regs&#45;&gt;pm_timer</title>
<path fill="none" stroke="black" d="M563.78,-309.03C596.99,-300.57 633.52,-291.92 663.82,-285.41"/>
<polygon fill="black" stroke="black" points="664.79,-288.79 673.84,-283.29 663.34,-281.94 664.79,-288.79"/>
</g>
<!-- event_ctrl -->
<g id="node7" class="node">
<title>event_ctrl</title>
<path fill="lightcyan" stroke="black" d="M1089.41,-372.48C1089.41,-372.48 967.41,-372.48 967.41,-372.48 961.41,-372.48 955.41,-366.48 955.41,-360.48 955.41,-360.48 955.41,-316.48 955.41,-316.48 955.41,-310.48 961.41,-304.48 967.41,-304.48 967.41,-304.48 1089.41,-304.48 1089.41,-304.48 1095.41,-304.48 1101.41,-310.48 1101.41,-316.48 1101.41,-316.48 1101.41,-360.48 1101.41,-360.48 1101.41,-366.48 1095.41,-372.48 1089.41,-372.48"/>
<text text-anchor="middle" x="1028.41" y="-357.28" font-family="Times,serif" font-size="14.00">Event Controller</text>
<text text-anchor="middle" x="1028.41" y="-342.28" font-family="Times,serif" font-size="14.00">(GPE edge detect,</text>
<text text-anchor="middle" x="1028.41" y="-327.28" font-family="Times,serif" font-size="14.00">sticky W1C status</text>
<text text-anchor="middle" x="1028.41" y="-312.28" font-family="Times,serif" font-size="14.00">owned here)</text>
</g>
<!-- regs&#45;&gt;event_ctrl -->
<g id="edge6" class="edge">
<title>regs&#45;&gt;event_ctrl</title>
<path fill="none" stroke="black" d="M563.7,-338.48C670.81,-338.48 843.46,-338.48 945.14,-338.48"/>
<polygon fill="black" stroke="black" points="945.35,-341.98 955.35,-338.48 945.35,-334.98 945.35,-341.98"/>
<text text-anchor="middle" x="730.54" y="-357.28" font-family="Times,serif" font-size="14.00">enables,</text>
<text text-anchor="middle" x="730.54" y="-342.28" font-family="Times,serif" font-size="14.00">W1C clear</text>
</g>
<!-- sleep_ctrl -->
<g id="node8" class="node">
<title>sleep_ctrl</title>
<path fill="lightcyan" stroke="black" d="M1304.41,-435.98C1304.41,-435.98 1186.41,-435.98 1186.41,-435.98 1180.41,-435.98 1174.41,-429.98 1174.41,-423.98 1174.41,-423.98 1174.41,-394.98 1174.41,-394.98 1174.41,-388.98 1180.41,-382.98 1186.41,-382.98 1186.41,-382.98 1304.41,-382.98 1304.41,-382.98 1310.41,-382.98 1316.41,-388.98 1316.41,-394.98 1316.41,-394.98 1316.41,-423.98 1316.41,-423.98 1316.41,-429.98 1310.41,-435.98 1304.41,-435.98"/>
<text text-anchor="middle" x="1245.41" y="-420.78" font-family="Times,serif" font-size="14.00">Power State FSM</text>
<text text-anchor="middle" x="1245.41" y="-405.78" font-family="Times,serif" font-size="14.00">(S0/S1/S3,</text>
<text text-anchor="middle" x="1245.41" y="-390.78" font-family="Times,serif" font-size="14.00">latched wake)</text>
</g>
<!-- regs&#45;&gt;sleep_ctrl -->
<g id="edge11" class="edge">
<title>regs&#45;&gt;sleep_ctrl</title>
<path fill="none" stroke="black" d="M547.95,-372.63C574.66,-382.59 604.99,-392.2 633.67,-397.48 821.17,-431.95 1046.49,-423.93 1164.06,-416.09"/>
<polygon fill="black" stroke="black" points="1164.33,-419.58 1174.06,-415.41 1163.85,-412.6 1164.33,-419.58"/>
<text text-anchor="middle" x="891.41" y="-441.28" font-family="Times,serif" font-size="14.00">sleep_type,</text>
<text text-anchor="middle" x="891.41" y="-426.28" font-family="Times,serif" font-size="14.00">sleep_enable</text>
</g>
<!-- rst_out -->
<g id="node12" class="node">
<title>rst_out</title>
<ellipse fill="pink" stroke="black" cx="730.54" cy="-505.48" rx="96.75" ry="26.74"/>
<text text-anchor="middle" x="730.54" y="-509.28" font-family="Times,serif" font-size="14.00">sys_reset_req</text>
<text text-anchor="middle" x="730.54" y="-494.28" font-family="Times,serif" font-size="14.00">periph_reset_req</text>
</g>
<!-- regs&#45;&gt;rst_out -->
<g id="edge14" class="edge">
<title>regs&#45;&gt;rst_out</title>
<path fill="none" stroke="black" d="M502.42,-372.67C533.84,-403.1 583.43,-446.93 633.67,-474.48 639.2,-477.51 645.08,-480.31 651.1,-482.87"/>
<polygon fill="black" stroke="black" points="650.06,-486.22 660.64,-486.71 652.67,-479.73 650.06,-486.22"/>
</g>
<!-- sync&#45;&gt;event_ctrl -->
<g id="edge5" class="edge">
<title>sync&#45;&gt;event_ctrl</title>
<path fill="none" stroke="black" d="M799.73,-227.51C809.05,-231.83 818.48,-236.24 827.41,-240.48 867.83,-259.65 912.57,-281.51 949.46,-299.71"/>
<polygon fill="black" stroke="black" points="948.15,-302.97 958.66,-304.26 951.25,-296.69 948.15,-302.97"/>
</g>
<!-- pm_timer&#45;&gt;regs -->
<g id="edge9" class="edge">
<title>pm_timer&#45;&gt;regs</title>
<path fill="none" stroke="black" d="M673.84,-294.59C644.7,-302.61 608.05,-311.8 573.83,-319.76"/>
<polygon fill="black" stroke="black" points="572.74,-316.42 563.78,-322.08 574.31,-323.24 572.74,-316.42"/>
</g>
<!-- pm_timer&#45;&gt;event_ctrl -->
<g id="edge10" class="edge">
<title>pm_timer&#45;&gt;event_ctrl</title>
<path fill="none" stroke="black" d="M787.07,-286.87C828.52,-295.43 886.55,-307.51 937.41,-318.48 940.04,-319.04 942.7,-319.62 945.39,-320.2"/>
<polygon fill="black" stroke="black" points="944.7,-323.64 955.22,-322.35 946.2,-316.8 944.7,-323.64"/>
<text text-anchor="middle" x="891.41" y="-322.28" font-family="Times,serif" font-size="14.00">overflow</text>
</g>
<!-- event_ctrl&#45;&gt;regs -->
<g id="edge7" class="edge">
<title>event_ctrl&#45;&gt;regs</title>
<path fill="none" stroke="black" d="M955.11,-353.79C917.27,-361.04 870.05,-368.88 827.41,-372.48 741.61,-379.72 719.33,-381.23 633.67,-372.48 614.16,-370.48 593.56,-367.2 573.77,-363.43"/>
<polygon fill="black" stroke="black" points="574.31,-359.97 563.82,-361.49 572.97,-366.84 574.31,-359.97"/>
<text text-anchor="middle" x="730.54" y="-382.28" font-family="Times,serif" font-size="14.00">status</text>
</g>
<!-- event_ctrl&#45;&gt;sleep_ctrl -->
<g id="edge12" class="edge">
<title>event_ctrl&#45;&gt;sleep_ctrl</title>
<path fill="none" stroke="black" d="M1101.6,-362.32C1121.82,-368.99 1143.92,-376.29 1164.56,-383.11"/>
<polygon fill="black" stroke="black" points="1163.64,-386.49 1174.24,-386.3 1165.84,-379.84 1163.64,-386.49"/>
<text text-anchor="middle" x="1137.91" y="-383.28" font-family="Times,serif" font-size="14.00">wake</text>
</g>
<!-- int_gen -->
<g id="node9" class="node">
<title>int_gen</title>
<path fill="lightcyan" stroke="black" d="M1296.91,-364.98C1296.91,-364.98 1193.91,-364.98 1193.91,-364.98 1187.91,-364.98 1181.91,-358.98 1181.91,-352.98 1181.91,-352.98 1181.91,-323.98 1181.91,-323.98 1181.91,-317.98 1187.91,-311.98 1193.91,-311.98 1193.91,-311.98 1296.91,-311.98 1296.91,-311.98 1302.91,-311.98 1308.91,-317.98 1308.91,-323.98 1308.91,-323.98 1308.91,-352.98 1308.91,-352.98 1308.91,-358.98 1302.91,-364.98 1296.91,-364.98"/>
<text text-anchor="middle" x="1245.41" y="-349.78" font-family="Times,serif" font-size="14.00">Interrupt</text>
<text text-anchor="middle" x="1245.41" y="-334.78" font-family="Times,serif" font-size="14.00">(level OR of</text>
<text text-anchor="middle" x="1245.41" y="-319.78" font-family="Times,serif" font-size="14.00">enabled status)</text>
</g>
<!-- event_ctrl&#45;&gt;int_gen -->
<g id="edge15" class="edge">
<title>event_ctrl&#45;&gt;int_gen</title>
<path fill="none" stroke="black" d="M1101.6,-338.48C1124.14,-338.48 1149,-338.48 1171.58,-338.48"/>
<polygon fill="black" stroke="black" points="1171.77,-341.98 1181.77,-338.48 1171.77,-334.98 1171.77,-341.98"/>
</g>
<!-- sleep_out -->
<g id="node11" class="node">
<title>sleep_out</title>
<ellipse fill="pink" stroke="black" cx="1478.57" cy="-409.48" rx="125.32" ry="26.74"/>
<text text-anchor="middle" x="1478.57" y="-413.28" font-family="Times,serif" font-size="14.00">clock_gate_en[31:0]</text>
<text text-anchor="middle" x="1478.57" y="-398.28" font-family="Times,serif" font-size="14.00">power_domain_en[7:0]</text>
</g>
<!-- sleep_ctrl&#45;&gt;sleep_out -->
<g id="edge13" class="edge">
<title>sleep_ctrl&#45;&gt;sleep_out</title>
<path fill="none" stroke="black" d="M1316.71,-409.48C1325.2,-409.48 1334.08,-409.48 1343.12,-409.48"/>
<polygon fill="black" stroke="black" points="1343.38,-412.98 1353.38,-409.48 1343.38,-405.98 1343.38,-412.98"/>
</g>
<!-- int_out -->
<g id="node10" class="node">
<title>int_out</title>
<ellipse fill="pink" stroke="black" cx="1478.57" cy="-338.48" rx="72.29" ry="18"/>
<text text-anchor="middle" x="1478.57" y="-334.78" font-family="Times,serif" font-size="14.00">pm_interrupt</text>
</g>
<!-- int_gen&#45;&gt;int_out -->
<g id="edge16" class="edge">
<title>int_gen&#45;&gt;int_out</title>
<path fill="none" stroke="black" d="M1308.97,-338.48C1335.88,-338.48 1367.69,-338.48 1396.38,-338.48"/>
<polygon fill="black" stroke="black" points="1396.39,-341.98 1406.39,-338.48 1396.39,-334.98 1396.39,-341.98"/>
</g>
</g>
</svg>
