<?xml version="1.0" encoding="UTF-8" standalone="no"?>
<!DOCTYPE svg PUBLIC "-//W3C//DTD SVG 1.1//EN"
 "http://www.w3.org/Graphics/SVG/1.1/DTD/svg11.dtd">
<!-- Generated by graphviz version 2.43.0 (0)
 -->
<!-- Title: axi4_to_apb Pages: 1 -->
<svg width="2078pt" height="834pt"
 viewBox="0.00 0.00 2078.00 834.00" xmlns="http://www.w3.org/2000/svg" xmlns:xlink="http://www.w3.org/1999/xlink">
<g id="graph0" class="graph" transform="scale(1 1) rotate(0) translate(4 830)">
<title>axi4_to_apb</title>
<polygon fill="white" stroke="transparent" points="-4,4 -4,-830 2074,-830 2074,4 -4,4"/>
<text text-anchor="middle" x="1035" y="-814" font-family="Arial" font-size="10.00">axi4_to_apb_convert &#45; AXI4&#45;to&#45;APB Protocol Converter</text>
<text text-anchor="middle" x="1035" y="-803" font-family="Arial" font-size="10.00">Full Protocol Translation + Width Adaptation</text>
<g id="clust1" class="cluster">
<title>cluster_axi4</title>
<polygon fill="lightblue" stroke="black" points="194,-685.5 194,-757.5 1056,-757.5 1056,-685.5 194,-685.5"/>
<text text-anchor="middle" x="625" y="-745.5" font-family="Arial" font-size="10.00">AXI4 Slave Interface (64&#45;bit addr, 32&#45;bit data)</text>
</g>
<g id="clust2" class="cluster">
<title>cluster_fsm</title>
<polygon fill="lightyellow" stroke="black" points="8,-8 8,-582 538,-582 538,-8 8,-8"/>
<text text-anchor="middle" x="273" y="-570" font-family="Arial" font-size="10.00">Protocol Conversion State Machine</text>
</g>
<g id="clust3" class="cluster">
<title>cluster_apb</title>
<polygon fill="lightcoral" stroke="black" points="546,-129 546,-201 938,-201 938,-129 546,-129"/>
<text text-anchor="middle" x="742" y="-189" font-family="Arial" font-size="10.00">APB Master Interface (32&#45;bit addr, 32&#45;bit data)</text>
</g>
<!-- axi_aw -->
<g id="node1" class="node">
<title>axi_aw</title>
<polygon fill="lightblue" stroke="black" points="202.5,-694 202.5,-730 343.5,-730 343.5,-694 202.5,-694"/>
<text text-anchor="middle" x="273" y="-718.8" font-family="Arial" font-size="9.00">AW Channel</text>
<polyline fill="none" stroke="black" points="202.5,-712 343.5,-712 "/>
<text text-anchor="middle" x="273" y="-700.8" font-family="Arial" font-size="9.00">awaddr[63:0]|awvalid|awready</text>
</g>
<!-- fsm -->
<g id="node6" class="node">
<title>fsm</title>
<polygon fill="white" stroke="black" points="16,-518.5 16,-554.5 530,-554.5 530,-518.5 16,-518.5"/>
<text text-anchor="middle" x="273" y="-543.3" font-family="Arial" font-size="9.00">State Machine</text>
<polyline fill="none" stroke="black" points="16,-536.5 530,-536.5 "/>
<text text-anchor="middle" x="34.5" y="-525.3" font-family="Arial" font-size="9.00">IDLE</text>
<polyline fill="none" stroke="black" points="53,-518.5 53,-536.5 "/>
<text text-anchor="middle" x="93" y="-525.3" font-family="Arial" font-size="9.00">WRITE_SETUP</text>
<polyline fill="none" stroke="black" points="133,-518.5 133,-536.5 "/>
<text text-anchor="middle" x="177" y="-525.3" font-family="Arial" font-size="9.00">WRITE_ACCESS</text>
<polyline fill="none" stroke="black" points="221,-518.5 221,-536.5 "/>
<text text-anchor="middle" x="258.5" y="-525.3" font-family="Arial" font-size="9.00">WRITE_RESP</text>
<polyline fill="none" stroke="black" points="296,-518.5 296,-536.5 "/>
<text text-anchor="middle" x="334.5" y="-525.3" font-family="Arial" font-size="9.00">READ_SETUP</text>
<polyline fill="none" stroke="black" points="373,-518.5 373,-536.5 "/>
<text text-anchor="middle" x="415.5" y="-525.3" font-family="Arial" font-size="9.00">READ_ACCESS</text>
<polyline fill="none" stroke="black" points="458,-518.5 458,-536.5 "/>
<text text-anchor="middle" x="494" y="-525.3" font-family="Arial" font-size="9.00">READ_RESP</text>
</g>
<!-- axi_aw&#45;&gt;fsm -->
<g id="edge1" class="edge">
<title>axi_aw&#45;&gt;fsm</title>
<path fill="none" stroke="blue" d="M273,-693.88C273,-693.88 273,-564.52 273,-564.52"/>
<polygon fill="blue" stroke="blue" points="276.5,-564.52 273,-554.52 269.5,-564.52 276.5,-564.52"/>
<text text-anchor="middle" x="289" y="-592.6" font-family="Arial" font-size="8.00">write req</text>
</g>
<!-- axi_w -->
<g id="node2" class="node">
<title>axi_w</title>
<polygon fill="lightblue" stroke="black" points="387,-694 387,-730 553,-730 553,-694 387,-694"/>
<text text-anchor="middle" x="470" y="-718.8" font-family="Arial" font-size="9.00">W Channel</text>
<polyline fill="none" stroke="black" points="387,-712 553,-712 "/>
<text text-anchor="middle" x="470" y="-700.8" font-family="Arial" font-size="9.00">wdata[31:0]|wstrb[3:0]|wvalid|wready</text>
</g>
<!-- axi_w&#45;&gt;fsm -->
<g id="edge2" class="edge">
<title>axi_w&#45;&gt;fsm</title>
<path fill="none" stroke="blue" d="M458.5,-693.88C458.5,-693.88 458.5,-564.52 458.5,-564.52"/>
<polygon fill="blue" stroke="blue" points="462,-564.52 458.5,-554.52 455,-564.52 462,-564.52"/>
<text text-anchor="middle" x="429" y="-592.6" font-family="Arial" font-size="8.00">write data</text>
</g>
<!-- axi_b -->
<g id="node3" class="node">
<title>axi_b</title>
<polygon fill="lightblue" stroke="black" points="769,-694 769,-730 867,-730 867,-694 769,-694"/>
<text text-anchor="middle" x="818" y="-718.8" font-family="Arial" font-size="9.00">B Channel</text>
<polyline fill="none" stroke="black" points="769,-712 867,-712 "/>
<text text-anchor="middle" x="818" y="-700.8" font-family="Arial" font-size="9.00">bresp|bvalid|bready</text>
</g>
<!-- axi_ar -->
<g id="node4" class="node">
<title>axi_ar</title>
<polygon fill="lightblue" stroke="black" points="596,-694 596,-730 726,-730 726,-694 596,-694"/>
<text text-anchor="middle" x="661" y="-718.8" font-family="Arial" font-size="9.00">AR Channel</text>
<polyline fill="none" stroke="black" points="596,-712 726,-712 "/>
<text text-anchor="middle" x="661" y="-700.8" font-family="Arial" font-size="9.00">araddr[63:0]|arvalid|arready</text>
</g>
<!-- axi_ar&#45;&gt;fsm -->
<g id="edge8" class="edge">
<title>axi_ar&#45;&gt;fsm</title>
<path fill="none" stroke="green" d="M661,-693.83C661,-648.86 661,-536 661,-536 661,-536 540.18,-536 540.18,-536"/>
<polygon fill="green" stroke="green" points="540.18,-532.5 530.18,-536 540.18,-539.5 540.18,-532.5"/>
<text text-anchor="middle" x="593.5" y="-592.6" font-family="Arial" font-size="8.00">read req</text>
</g>
<!-- axi_r -->
<g id="node5" class="node">
<title>axi_r</title>
<polygon fill="lightblue" stroke="black" points="910.5,-694 910.5,-730 1047.5,-730 1047.5,-694 910.5,-694"/>
<text text-anchor="middle" x="979" y="-718.8" font-family="Arial" font-size="9.00">R Channel</text>
<polyline fill="none" stroke="black" points="910.5,-712 1047.5,-712 "/>
<text text-anchor="middle" x="979" y="-700.8" font-family="Arial" font-size="9.00">rdata[31:0]|rresp|rvalid|rready</text>
</g>
<!-- wr_path -->
<g id="node7" class="node">
<title>wr_path</title>
<polygon fill="lightgreen" stroke="black" points="330,-451 226,-451 226,-415 330,-415 330,-451"/>
<text text-anchor="middle" x="278" y="-435.8" font-family="Arial" font-size="9.00">Write Path</text>
<text text-anchor="middle" x="278" y="-425.8" font-family="Arial" font-size="9.00">AW + W → APB Write</text>
</g>
<!-- fsm&#45;&gt;wr_path -->
<g id="edge3" class="edge">
<title>fsm&#45;&gt;wr_path</title>
<path fill="none" stroke="blue" d="M278,-518.47C278,-518.47 278,-461.17 278,-461.17"/>
<polygon fill="blue" stroke="blue" points="281.5,-461.17 278,-451.17 274.5,-461.17 281.5,-461.17"/>
<text text-anchor="middle" x="289.5" y="-482.6" font-family="Arial" font-size="8.00">wr state</text>
</g>
<!-- rd_path -->
<g id="node8" class="node">
<title>rd_path</title>
<polygon fill="lightcyan" stroke="black" points="494,-451 408,-451 408,-415 494,-415 494,-451"/>
<text text-anchor="middle" x="451" y="-435.8" font-family="Arial" font-size="9.00">Read Path</text>
<text text-anchor="middle" x="451" y="-425.8" font-family="Arial" font-size="9.00">AR → APB Read</text>
</g>
<!-- fsm&#45;&gt;rd_path -->
<g id="edge9" class="edge">
<title>fsm&#45;&gt;rd_path</title>
<path fill="none" stroke="green" d="M451,-518.47C451,-518.47 451,-461.17 451,-461.17"/>
<polygon fill="green" stroke="green" points="454.5,-461.17 451,-451.17 447.5,-461.17 454.5,-461.17"/>
<text text-anchor="middle" x="431" y="-482.6" font-family="Arial" font-size="8.00">rd state</text>
</g>
<!-- addr_convert -->
<g id="node9" class="node">
<title>addr_convert</title>
<polygon fill="white" stroke="black" points="513,-330 415,-330 415,-292 513,-292 513,-330"/>
<text text-anchor="middle" x="464" y="-318.8" font-family="Arial" font-size="9.00">Address Converter</text>
<text text-anchor="middle" x="464" y="-308.8" font-family="Arial" font-size="9.00">64&#45;bit → 32&#45;bit</text>
<text text-anchor="middle" x="464" y="-298.8" font-family="Arial" font-size="9.00">(truncate upper bits)</text>
</g>
<!-- wr_path&#45;&gt;addr_convert -->
<g id="edge4" class="edge">
<title>wr_path&#45;&gt;addr_convert</title>
<path fill="none" stroke="blue" d="M278,-415C278,-381.06 278,-311 278,-311 278,-311 404.64,-311 404.64,-311"/>
<polygon fill="blue" stroke="blue" points="404.64,-314.5 414.64,-311 404.64,-307.5 404.64,-314.5"/>
<text text-anchor="middle" x="344.5" y="-370.6" font-family="Arial" font-size="8.00">addr</text>
</g>
<!-- rd_path&#45;&gt;addr_convert -->
<g id="edge10" class="edge">
<title>rd_path&#45;&gt;addr_convert</title>
<path fill="none" stroke="green" d="M454.5,-415C454.5,-415 454.5,-340.28 454.5,-340.28"/>
<polygon fill="green" stroke="green" points="458,-340.28 454.5,-330.28 451,-340.29 458,-340.28"/>
<text text-anchor="middle" x="463.5" y="-370.6" font-family="Arial" font-size="8.00">addr</text>
</g>
<!-- apb_signals -->
<g id="node11" class="node">
<title>apb_signals</title>
<polygon fill="lightcoral" stroke="black" points="554.5,-137.5 554.5,-173.5 929.5,-173.5 929.5,-137.5 554.5,-137.5"/>
<text text-anchor="middle" x="742" y="-162.3" font-family="Arial" font-size="9.00">APB Signals</text>
<polyline fill="none" stroke="black" points="554.5,-155.5 929.5,-155.5 "/>
<text text-anchor="middle" x="742" y="-144.3" font-family="Arial" font-size="9.00">paddr[31:0]|psel|penable|pwrite|pwdata[31:0]|pstrb[3:0]|pprot|prdata[31:0]|pready|pslverr</text>
</g>
<!-- addr_convert&#45;&gt;apb_signals -->
<g id="edge5" class="edge">
<title>addr_convert&#45;&gt;apb_signals</title>
<path fill="none" stroke="blue" d="M513.09,-317C545.55,-317 582.17,-317 582.17,-317 582.17,-317 582.17,-183.71 582.17,-183.71"/>
<polygon fill="blue" stroke="blue" points="585.67,-183.71 582.17,-173.71 578.67,-183.71 585.67,-183.71"/>
<text text-anchor="middle" x="614.5" y="-256.6" font-family="Arial" font-size="8.00">paddr</text>
<text text-anchor="middle" x="614.5" y="-247.6" font-family="Arial" font-size="8.00">psel</text>
<text text-anchor="middle" x="614.5" y="-238.6" font-family="Arial" font-size="8.00">penable</text>
<text text-anchor="middle" x="614.5" y="-229.6" font-family="Arial" font-size="8.00">pwrite</text>
<text text-anchor="middle" x="614.5" y="-220.6" font-family="Arial" font-size="8.00">pwdata</text>
<text text-anchor="middle" x="614.5" y="-211.6" font-family="Arial" font-size="8.00">pstrb</text>
</g>
<!-- addr_convert&#45;&gt;apb_signals -->
<g id="edge11" class="edge">
<title>addr_convert&#45;&gt;apb_signals</title>
<path fill="none" stroke="green" d="M513.11,-304C540.17,-304 568.33,-304 568.33,-304 568.33,-304 568.33,-183.71 568.33,-183.71"/>
<polygon fill="green" stroke="green" points="571.83,-183.71 568.33,-173.71 564.83,-183.71 571.83,-183.71"/>
<text text-anchor="middle" x="713.5" y="-247.6" font-family="Arial" font-size="8.00">paddr</text>
<text text-anchor="middle" x="713.5" y="-238.6" font-family="Arial" font-size="8.00">psel</text>
<text text-anchor="middle" x="713.5" y="-229.6" font-family="Arial" font-size="8.00">penable</text>
<text text-anchor="middle" x="713.5" y="-220.6" font-family="Arial" font-size="8.00">!pwrite</text>
</g>
<!-- resp_convert -->
<g id="node10" class="node">
<title>resp_convert</title>
<polygon fill="white" stroke="black" points="529.5,-52 392.5,-52 392.5,-16 529.5,-16 529.5,-52"/>
<text text-anchor="middle" x="461" y="-36.8" font-family="Arial" font-size="9.00">Response Converter</text>
<text text-anchor="middle" x="461" y="-26.8" font-family="Arial" font-size="9.00">PSLVERR → BRESP/RRESP</text>
</g>
<!-- resp_convert&#45;&gt;axi_b -->
<g id="edge7" class="edge">
<title>resp_convert&#45;&gt;axi_b</title>
<path fill="none" stroke="blue" d="M517.12,-52.17C517.12,-122.38 517.12,-372 517.12,-372 517.12,-372 818,-372 818,-372 818,-372 818,-683.72 818,-683.72"/>
<polygon fill="blue" stroke="blue" points="814.5,-683.72 818,-693.72 821.5,-683.72 814.5,-683.72"/>
<text text-anchor="middle" x="1005.5" y="-375.1" font-family="Arial" font-size="8.00">bresp</text>
<text text-anchor="middle" x="1005.5" y="-366.1" font-family="Arial" font-size="8.00">bvalid</text>
</g>
<!-- resp_convert&#45;&gt;axi_r -->
<g id="edge13" class="edge">
<title>resp_convert&#45;&gt;axi_r</title>
<path fill="none" stroke="green" d="M529.69,-34C672.55,-34 988.5,-34 988.5,-34 988.5,-34 988.5,-683.87 988.5,-683.87"/>
<polygon fill="green" stroke="green" points="985,-683.87 988.5,-693.87 992,-683.87 985,-683.87"/>
<text text-anchor="middle" x="1091.5" y="-379.6" font-family="Arial" font-size="8.00">rdata</text>
<text text-anchor="middle" x="1091.5" y="-370.6" font-family="Arial" font-size="8.00">rresp</text>
<text text-anchor="middle" x="1091.5" y="-361.6" font-family="Arial" font-size="8.00">rvalid</text>
</g>
<!-- apb_signals&#45;&gt;resp_convert -->
<g id="edge6" class="edge">
<title>apb_signals&#45;&gt;resp_convert</title>
<path fill="none" stroke="blue" d="M554.3,-161C534.41,-161 521.25,-161 521.25,-161 521.25,-161 521.25,-62.2 521.25,-62.2"/>
<polygon fill="blue" stroke="blue" points="524.75,-62.2 521.25,-52.2 517.75,-62.2 524.75,-62.2"/>
<text text-anchor="middle" x="525.5" y="-97.1" font-family="Arial" font-size="8.00">pready</text>
<text text-anchor="middle" x="525.5" y="-88.1" font-family="Arial" font-size="8.00">pslverr</text>
</g>
<!-- apb_signals&#45;&gt;resp_convert -->
<g id="edge12" class="edge">
<title>apb_signals&#45;&gt;resp_convert</title>
<path fill="none" stroke="green" d="M554.14,-149C536.69,-149 525.38,-149 525.38,-149 525.38,-149 525.38,-62.22 525.38,-62.22"/>
<polygon fill="green" stroke="green" points="528.88,-62.22 525.38,-52.22 521.88,-62.22 528.88,-62.22"/>
<text text-anchor="middle" x="650.5" y="-101.6" font-family="Arial" font-size="8.00">prdata</text>
<text text-anchor="middle" x="650.5" y="-92.6" font-family="Arial" font-size="8.00">pready</text>
<text text-anchor="middle" x="650.5" y="-83.6" font-family="Arial" font-size="8.00">pslverr</text>
</g>
<!-- fsm_diagram -->
<g id="node12" class="node">
<title>fsm_diagram</title>
<polygon fill="lightyellow" stroke="black" points="1283.5,-796 1090.5,-796 1090.5,-628 1289.5,-628 1289.5,-790 1283.5,-796"/>
<polyline fill="none" stroke="black" points="1283.5,-796 1283.5,-790 "/>
<polyline fill="none" stroke="black" points="1289.5,-790 1283.5,-790 "/>
<polygon fill="lightyellow" stroke="transparent" points="1099,-772 1099,-792 1282,-792 1282,-772 1099,-772"/>
<polygon fill="none" stroke="black" points="1099,-772 1099,-792 1282,-792 1282,-772 1099,-772"/>
<text text-anchor="start" x="1166" y="-780.8" font-family="Arial" font-weight="bold" font-size="9.00">FSM States</text>
<polygon fill="none" stroke="black" points="1099,-752 1099,-772 1181,-772 1181,-752 1099,-752"/>
<text text-anchor="start" x="1104" y="-759.8" font-family="Arial" font-size="9.00">IDLE</text>
<polygon fill="none" stroke="black" points="1181,-752 1181,-772 1282,-772 1282,-752 1181,-752"/>
<text text-anchor="start" x="1186" y="-759.8" font-family="Arial" font-size="9.00">Wait for AW/AR</text>
<polygon fill="none" stroke="black" points="1099,-732 1099,-752 1181,-752 1181,-732 1099,-732"/>
<text text-anchor="start" x="1104" y="-739.8" font-family="Arial" font-size="9.00">WRITE_SETUP</text>
<polygon fill="none" stroke="black" points="1181,-732 1181,-752 1282,-752 1282,-732 1181,-732"/>
<text text-anchor="start" x="1186" y="-739.8" font-family="Arial" font-size="9.00">PSEL=1, PENABLE=0</text>
<polygon fill="none" stroke="black" points="1099,-712 1099,-732 1181,-732 1181,-712 1099,-712"/>
<text text-anchor="start" x="1104" y="-719.8" font-family="Arial" font-size="9.00">WRITE_ACCESS</text>
<polygon fill="none" stroke="black" points="1181,-712 1181,-732 1282,-732 1282,-712 1181,-712"/>
<text text-anchor="start" x="1186" y="-719.8" font-family="Arial" font-size="9.00">PSEL=1, PENABLE=1</text>
<polygon fill="none" stroke="black" points="1099,-692 1099,-712 1181,-712 1181,-692 1099,-692"/>
<text text-anchor="start" x="1104" y="-699.8" font-family="Arial" font-size="9.00">WRITE_RESP</text>
<polygon fill="none" stroke="black" points="1181,-692 1181,-712 1282,-712 1282,-692 1181,-692"/>
<text text-anchor="start" x="1186" y="-699.8" font-family="Arial" font-size="9.00">Return B response</text>
<polygon fill="none" stroke="black" points="1099,-672 1099,-692 1181,-692 1181,-672 1099,-672"/>
<text text-anchor="start" x="1104" y="-679.8" font-family="Arial" font-size="9.00">READ_SETUP</text>
<polygon fill="none" stroke="black" points="1181,-672 1181,-692 1282,-692 1282,-672 1181,-672"/>
<text text-anchor="start" x="1186" y="-679.8" font-family="Arial" font-size="9.00">PSEL=1, PENABLE=0</text>
<polygon fill="none" stroke="black" points="1099,-652 1099,-672 1181,-672 1181,-652 1099,-652"/>
<text text-anchor="start" x="1104" y="-659.8" font-family="Arial" font-size="9.00">READ_ACCESS</text>
<polygon fill="none" stroke="black" points="1181,-652 1181,-672 1282,-672 1282,-652 1181,-652"/>
<text text-anchor="start" x="1186" y="-659.8" font-family="Arial" font-size="9.00">PSEL=1, PENABLE=1</text>
<polygon fill="none" stroke="black" points="1099,-632 1099,-652 1181,-652 1181,-632 1099,-632"/>
<text text-anchor="start" x="1104" y="-639.8" font-family="Arial" font-size="9.00">READ_RESP</text>
<polygon fill="none" stroke="black" points="1181,-632 1181,-652 1282,-652 1282,-632 1181,-632"/>
<text text-anchor="start" x="1186" y="-639.8" font-family="Arial" font-size="9.00">Return R response</text>
</g>
<!-- example -->
<g id="node13" class="node">
<title>example</title>
<polygon fill="lightcyan" stroke="black" points="1497,-766 1333,-766 1333,-658 1503,-658 1503,-760 1497,-766"/>
<polyline fill="none" stroke="black" points="1497,-766 1497,-760 "/>
<polyline fill="none" stroke="black" points="1503,-760 1497,-760 "/>
<polygon fill="lightblue" stroke="transparent" points="1341,-742 1341,-762 1495,-762 1495,-742 1341,-742"/>
<polygon fill="none" stroke="black" points="1341,-742 1341,-762 1495,-762 1495,-742 1341,-742"/>
<text text-anchor="start" x="1360" y="-750.8" font-family="Arial" font-weight="bold" font-size="9.00">Example Write Transaction</text>
<polygon fill="none" stroke="black" points="1341,-722 1341,-742 1385,-742 1385,-722 1341,-722"/>
<text text-anchor="start" x="1346" y="-729.8" font-family="Arial" font-size="9.00">Cycle 1:</text>
<polygon fill="none" stroke="black" points="1385,-722 1385,-742 1495,-742 1495,-722 1385,-722"/>
<text text-anchor="start" x="1390" y="-729.8" font-family="Arial" font-size="9.00">AWVALID=1, WVALID=1</text>
<polygon fill="none" stroke="black" points="1341,-702 1341,-722 1385,-722 1385,-702 1341,-702"/>
<text text-anchor="start" x="1346" y="-709.8" font-family="Arial" font-size="9.00">Cycle 2:</text>
<polygon fill="none" stroke="black" points="1385,-702 1385,-722 1495,-722 1495,-702 1385,-702"/>
<text text-anchor="start" x="1390" y="-709.8" font-family="Arial" font-size="9.00">PSEL=1, PENABLE=0</text>
<polygon fill="none" stroke="black" points="1341,-682 1341,-702 1385,-702 1385,-682 1341,-682"/>
<text text-anchor="start" x="1346" y="-689.8" font-family="Arial" font-size="9.00">Cycle 3:</text>
<polygon fill="none" stroke="black" points="1385,-682 1385,-702 1495,-702 1495,-682 1385,-682"/>
<text text-anchor="start" x="1390" y="-689.8" font-family="Arial" font-size="9.00">PSEL=1, PENABLE=1</text>
<polygon fill="none" stroke="black" points="1341,-662 1341,-682 1385,-682 1385,-662 1341,-662"/>
<text text-anchor="start" x="1346" y="-669.8" font-family="Arial" font-size="9.00">Cycle 4:</text>
<polygon fill="none" stroke="black" points="1385,-662 1385,-682 1495,-682 1495,-662 1385,-662"/>
<text text-anchor="start" x="1390" y="-669.8" font-family="Arial" font-size="9.00">PREADY=1, BVALID=1</text>
</g>
<!-- features -->
<g id="node14" class="node">
<title>features</title>
<polygon fill="lightgreen" stroke="black" points="1675.5,-765 1546.5,-765 1546.5,-659 1681.5,-659 1681.5,-759 1675.5,-765"/>
<polyline fill="none" stroke="black" points="1675.5,-765 1675.5,-759 "/>
<polyline fill="none" stroke="black" points="1681.5,-759 1675.5,-759 "/>
<text text-anchor="start" x="1557" y="-752.8" font-family="Arial" font-weight="bold" font-size="9.00">Key Features:</text>
<text text-anchor="start" x="1557" y="-737.8" font-family="Arial" font-size="9.00">✓ Full AXI4 → APB protocol</text>
<text text-anchor="start" x="1557" y="-723.8" font-family="Arial" font-size="9.00">✓ Address width conversion</text>
<text text-anchor="start" x="1557" y="-709.8" font-family="Arial" font-size="9.00">✓ Data width adaptation</text>
<text text-anchor="start" x="1557" y="-695.8" font-family="Arial" font-size="9.00">✓ Error response mapping</text>
<text text-anchor="start" x="1557" y="-681.8" font-family="Arial" font-size="9.00">✓ PSTRB support</text>
<text text-anchor="start" x="1557" y="-667.8" font-family="Arial" font-size="9.00">✓ PPROT support</text>
</g>
<!-- resp_map -->
<g id="node15" class="node">
<title>resp_map</title>
<polygon fill="orange" stroke="black" points="1875,-756 1725,-756 1725,-668 1881,-668 1881,-750 1875,-756"/>
<polyline fill="none" stroke="black" points="1875,-756 1875,-750 "/>
<polyline fill="none" stroke="black" points="1881,-750 1875,-750 "/>
<polygon fill="orange" stroke="transparent" points="1733,-732 1733,-752 1873,-752 1873,-732 1733,-732"/>
<polygon fill="none" stroke="black" points="1733,-732 1733,-752 1873,-752 1873,-732 1733,-732"/>
<text text-anchor="start" x="1762" y="-740.8" font-family="Arial" font-weight="bold" font-size="9.00">Response Mapping</text>
<polygon fill="none" stroke="black" points="1733,-712 1733,-732 1796,-732 1796,-712 1733,-712"/>
<text text-anchor="start" x="1738" y="-719.8" font-family="Arial" font-size="9.00">APB</text>
<polygon fill="none" stroke="black" points="1796,-712 1796,-732 1873,-732 1873,-712 1796,-712"/>
<text text-anchor="start" x="1801" y="-719.8" font-family="Arial" font-size="9.00">AXI4</text>
<polygon fill="none" stroke="black" points="1733,-692 1733,-712 1796,-712 1796,-692 1733,-692"/>
<text text-anchor="start" x="1738" y="-699.8" font-family="Arial" font-size="9.00">PSLVERR=0</text>
<polygon fill="none" stroke="black" points="1796,-692 1796,-712 1873,-712 1873,-692 1796,-692"/>
<text text-anchor="start" x="1801" y="-699.8" font-family="Arial" font-size="9.00">OKAY (2&#39;b00)</text>
<polygon fill="none" stroke="black" points="1733,-672 1733,-692 1796,-692 1796,-672 1733,-672"/>
<text text-anchor="start" x="1738" y="-679.8" font-family="Arial" font-size="9.00">PSLVERR=1</text>
<polygon fill="none" stroke="black" points="1796,-672 1796,-692 1873,-692 1873,-672 1796,-672"/>
<text text-anchor="start" x="1801" y="-679.8" font-family="Arial" font-size="9.00">SLVERR (2&#39;b10)</text>
</g>
<!-- usecases -->
<g id="node16" class="node">
<title>usecases</title>
<polygon fill="lightgray" stroke="black" points="2064,-751 1924,-751 1924,-673 2070,-673 2070,-745 2064,-751"/>
<polyline fill="none" stroke="black" points="2064,-751 2064,-745 "/>
<polyline fill="none" stroke="black" points="2070,-745 2064,-745 "/>
<text text-anchor="start" x="1934" y="-738.8" font-family="Arial" font-weight="bold" font-size="9.00">Use Cases:</text>
<text text-anchor="start" x="1934" y="-723.8" font-family="Arial" font-size="9.00">• CPU to APB peripherals</text>
<text text-anchor="start" x="1934" y="-709.8" font-family="Arial" font-size="9.00">• AXI4 bus to APB bridge</text>
<text text-anchor="start" x="1934" y="-695.8" font-family="Arial" font-size="9.00">• Mixed protocol systems</text>
<text text-anchor="start" x="1934" y="-681.8" font-family="Arial" font-size="9.00">• Legacy peripheral integration</text>
</g>
</g>
</svg>
