<?xml version="1.0" encoding="UTF-8" standalone="no"?>
<!DOCTYPE svg PUBLIC "-//W3C//DTD SVG 1.1//EN"
 "http://www.w3.org/Graphics/SVG/1.1/DTD/svg11.dtd">
<!-- Generated by graphviz version 2.43.0 (0)
 -->
<!-- Title: axi4_to_axil4_rd Pages: 1 -->
<svg width="682pt" height="297pt"
 viewBox="0.00 0.00 682.00 297.00" xmlns="http://www.w3.org/2000/svg" xmlns:xlink="http://www.w3.org/1999/xlink">
<g id="graph0" class="graph" transform="scale(1 1) rotate(0) translate(4 293)">
<title>axi4_to_axil4_rd</title>
<polygon fill="white" stroke="transparent" points="-4,4 -4,-293 678,-293 678,4 -4,4"/>
<g id="clust1" class="cluster">
<title>cluster_converter</title>
<polygon fill="lightgray" stroke="black" points="196,-72 196,-281 497,-281 497,-72 196,-72"/>
<text text-anchor="middle" x="346.5" y="-265.8" font-family="Times,serif" font-size="14.00">axi4_to_axil4_rd</text>
</g>
<!-- s_ar -->
<g id="node1" class="node">
<title>s_ar</title>
<path fill="lightblue" stroke="black" d="M95,-238C95,-238 12,-238 12,-238 6,-238 0,-232 0,-226 0,-226 0,-186 0,-186 0,-180 6,-174 12,-174 12,-174 95,-174 95,-174 101,-174 107,-180 107,-186 107,-186 107,-226 107,-226 107,-232 101,-238 95,-238"/>
<text text-anchor="middle" x="53.5" y="-226" font-family="Arial" font-size="10.00">AXI4 AR Channel</text>
<text text-anchor="middle" x="53.5" y="-203" font-family="Arial" font-size="10.00">ARID, ARADDR</text>
<text text-anchor="middle" x="53.5" y="-192" font-family="Arial" font-size="10.00">ARLEN (bursts)</text>
<text text-anchor="middle" x="53.5" y="-181" font-family="Arial" font-size="10.00">ARSIZE, ARBURST</text>
</g>
<!-- ar_fsm -->
<g id="node3" class="node">
<title>ar_fsm</title>
<path fill="khaki" stroke="black" d="M290,-249.5C290,-249.5 219,-249.5 219,-249.5 213,-249.5 207,-243.5 207,-237.5 207,-237.5 207,-174.5 207,-174.5 207,-168.5 213,-162.5 219,-162.5 219,-162.5 290,-162.5 290,-162.5 296,-162.5 302,-168.5 302,-174.5 302,-174.5 302,-237.5 302,-237.5 302,-243.5 296,-249.5 290,-249.5"/>
<text text-anchor="middle" x="254.5" y="-237.5" font-family="Arial" font-size="10.00">AR FSM</text>
<text text-anchor="middle" x="254.5" y="-214.5" font-family="Arial" font-size="10.00">IDLE → BURST</text>
<text text-anchor="middle" x="254.5" y="-191.5" font-family="Arial" font-size="10.00">Decomposes:</text>
<text text-anchor="middle" x="254.5" y="-180.5" font-family="Arial" font-size="10.00">AXI burst</text>
<text text-anchor="middle" x="254.5" y="-169.5" font-family="Arial" font-size="10.00">→ N AXIL singles</text>
</g>
<!-- s_ar&#45;&gt;ar_fsm -->
<g id="edge1" class="edge">
<title>s_ar&#45;&gt;ar_fsm</title>
<path fill="none" stroke="black" d="M107.05,-206C134.63,-206 168.47,-206 196.67,-206"/>
<polygon fill="black" stroke="black" points="196.78,-209.5 206.78,-206 196.78,-202.5 196.78,-209.5"/>
<text text-anchor="middle" x="155.5" y="-208.8" font-family="Arial" font-size="9.00">1 burst request</text>
</g>
<!-- s_r_resp -->
<g id="node2" class="node">
<title>s_r_resp</title>
<path fill="lightcoral" stroke="black" d="M89.5,-144C89.5,-144 17.5,-144 17.5,-144 11.5,-144 5.5,-138 5.5,-132 5.5,-132 5.5,-92 5.5,-92 5.5,-86 11.5,-80 17.5,-80 17.5,-80 89.5,-80 89.5,-80 95.5,-80 101.5,-86 101.5,-92 101.5,-92 101.5,-132 101.5,-132 101.5,-138 95.5,-144 89.5,-144"/>
<text text-anchor="middle" x="53.5" y="-132" font-family="Arial" font-size="10.00">AXIL4 R &#160;Channel</text>
<text text-anchor="middle" x="53.5" y="-121" font-family="Arial" font-size="10.00">(from slave)</text>
<text text-anchor="middle" x="53.5" y="-98" font-family="Arial" font-size="10.00">RDATA</text>
<text text-anchor="middle" x="53.5" y="-87" font-family="Arial" font-size="10.00">RRESP</text>
</g>
<!-- r_buffer -->
<g id="node5" class="node">
<title>r_buffer</title>
<path fill="lightyellow" stroke="black" d="M293,-144C293,-144 216,-144 216,-144 210,-144 204,-138 204,-132 204,-132 204,-92 204,-92 204,-86 210,-80 216,-80 216,-80 293,-80 293,-80 299,-80 305,-86 305,-92 305,-92 305,-132 305,-132 305,-138 299,-144 293,-144"/>
<text text-anchor="middle" x="254.5" y="-132" font-family="Arial" font-size="10.00">Response</text>
<text text-anchor="middle" x="254.5" y="-121" font-family="Arial" font-size="10.00">Aggregator</text>
<text text-anchor="middle" x="254.5" y="-98" font-family="Arial" font-size="10.00">Buffer N responses</text>
<text text-anchor="middle" x="254.5" y="-87" font-family="Arial" font-size="10.00">Reattach ID, LAST</text>
</g>
<!-- s_r_resp&#45;&gt;r_buffer -->
<g id="edge4" class="edge">
<title>s_r_resp&#45;&gt;r_buffer</title>
<path fill="none" stroke="black" d="M101.66,-112C129.21,-112 164.25,-112 193.73,-112"/>
<polygon fill="black" stroke="black" points="193.9,-115.5 203.9,-112 193.9,-108.5 193.9,-115.5"/>
<text text-anchor="middle" x="155.5" y="-114.8" font-family="Arial" font-size="9.00">N responses</text>
</g>
<!-- addr_gen -->
<g id="node4" class="node">
<title>addr_gen</title>
<path fill="lightyellow" stroke="black" d="M477,-238C477,-238 402,-238 402,-238 396,-238 390,-232 390,-226 390,-226 390,-186 390,-186 390,-180 396,-174 402,-174 402,-174 477,-174 477,-174 483,-174 489,-180 489,-186 489,-186 489,-226 489,-226 489,-232 483,-238 477,-238"/>
<text text-anchor="middle" x="439.5" y="-226" font-family="Arial" font-size="10.00">Address</text>
<text text-anchor="middle" x="439.5" y="-215" font-family="Arial" font-size="10.00">Generator</text>
<text text-anchor="middle" x="439.5" y="-192" font-family="Arial" font-size="10.00">Increment by SIZE</text>
<text text-anchor="middle" x="439.5" y="-181" font-family="Arial" font-size="10.00">for each beat</text>
</g>
<!-- ar_fsm&#45;&gt;addr_gen -->
<g id="edge2" class="edge">
<title>ar_fsm&#45;&gt;addr_gen</title>
<path fill="none" stroke="black" d="M302.15,-206C325.7,-206 354.51,-206 379.57,-206"/>
<polygon fill="black" stroke="black" points="379.7,-209.5 389.7,-206 379.7,-202.5 379.7,-209.5"/>
<text text-anchor="middle" x="347.5" y="-208.8" font-family="Arial" font-size="9.00">beat count</text>
</g>
<!-- m_ar -->
<g id="node6" class="node">
<title>m_ar</title>
<path fill="lightcoral" stroke="black" d="M662,-243.5C662,-243.5 587,-243.5 587,-243.5 581,-243.5 575,-237.5 575,-231.5 575,-231.5 575,-180.5 575,-180.5 575,-174.5 581,-168.5 587,-168.5 587,-168.5 662,-168.5 662,-168.5 668,-168.5 674,-174.5 674,-180.5 674,-180.5 674,-231.5 674,-231.5 674,-237.5 668,-243.5 662,-243.5"/>
<text text-anchor="middle" x="624.5" y="-231.5" font-family="Arial" font-size="10.00">AXIL4 AR Channel</text>
<text text-anchor="middle" x="624.5" y="-220.5" font-family="Arial" font-size="10.00">(to slave)</text>
<text text-anchor="middle" x="624.5" y="-197.5" font-family="Arial" font-size="10.00">ARVALID single</text>
<text text-anchor="middle" x="624.5" y="-186.5" font-family="Arial" font-size="10.00">ARREADY</text>
<text text-anchor="middle" x="624.5" y="-175.5" font-family="Arial" font-size="10.00">No LEN/SIZE</text>
</g>
<!-- addr_gen&#45;&gt;m_ar -->
<g id="edge3" class="edge">
<title>addr_gen&#45;&gt;m_ar</title>
<path fill="none" stroke="black" d="M489.06,-206C512.22,-206 540.13,-206 564.51,-206"/>
<polygon fill="black" stroke="black" points="564.71,-209.5 574.71,-206 564.71,-202.5 564.71,-209.5"/>
<text text-anchor="middle" x="532" y="-218.8" font-family="Arial" font-size="9.00">N single</text>
<text text-anchor="middle" x="532" y="-208.8" font-family="Arial" font-size="9.00">transactions</text>
</g>
<!-- m_r -->
<g id="node7" class="node">
<title>m_r</title>
<path fill="lightblue" stroke="black" d="M473,-64C473,-64 406,-64 406,-64 400,-64 394,-58 394,-52 394,-52 394,-12 394,-12 394,-6 400,0 406,0 406,0 473,0 473,0 479,0 485,-6 485,-12 485,-12 485,-52 485,-52 485,-58 479,-64 473,-64"/>
<text text-anchor="middle" x="439.5" y="-52" font-family="Arial" font-size="10.00">AXI4 R Channel</text>
<text text-anchor="middle" x="439.5" y="-29" font-family="Arial" font-size="10.00">RID</text>
<text text-anchor="middle" x="439.5" y="-18" font-family="Arial" font-size="10.00">RDATA, RRESP</text>
<text text-anchor="middle" x="439.5" y="-7" font-family="Arial" font-size="10.00">RLAST</text>
</g>
<!-- r_buffer&#45;&gt;m_r -->
<g id="edge5" class="edge">
<title>r_buffer&#45;&gt;m_r</title>
<path fill="none" stroke="black" d="M305.02,-90.35C329.61,-79.6 359.37,-66.59 384.54,-55.59"/>
<polygon fill="black" stroke="black" points="386.18,-58.69 393.94,-51.48 383.38,-52.28 386.18,-58.69"/>
<text text-anchor="middle" x="347.5" y="-94.8" font-family="Arial" font-size="9.00">aggregate</text>
<text text-anchor="middle" x="347.5" y="-84.8" font-family="Arial" font-size="9.00">+ ID + LAST</text>
</g>
</g>
</svg>
