<?xml version="1.0" encoding="UTF-8" standalone="no"?>
<!DOCTYPE svg PUBLIC "-//W3C//DTD SVG 1.1//EN"
 "http://www.w3.org/Graphics/SVG/1.1/DTD/svg11.dtd">
<!-- Generated by graphviz version 2.43.0 (0)
 -->
<!-- Title: axi4_dwidth_converter_rd Pages: 1 -->
<svg width="1272pt" height="864pt"
 viewBox="0.00 0.00 1272.00 864.00" xmlns="http://www.w3.org/2000/svg" xmlns:xlink="http://www.w3.org/1999/xlink">
<g id="graph0" class="graph" transform="scale(1 1) rotate(0) translate(4 860)">
<title>axi4_dwidth_converter_rd</title>
<polygon fill="white" stroke="transparent" points="-4,4 -4,-860 1268,-860 1268,4 -4,4"/>
<text text-anchor="middle" x="632" y="-844" font-family="Arial" font-size="10.00">axi4_dwidth_converter_rd &#45; Full Read Path Converter</text>
<text text-anchor="middle" x="632" y="-833" font-family="Arial" font-size="10.00">512→64 Width Conversion (8:1 ratio)</text>
<g id="clust1" class="cluster">
<title>cluster_slave</title>
<polygon fill="lightblue" stroke="black" points="8,-725.5 8,-797.5 447,-797.5 447,-725.5 8,-725.5"/>
<text text-anchor="middle" x="227.5" y="-785.5" font-family="Arial" font-size="10.00">Slave Interface (Wide &#45; 512&#45;bit)</text>
</g>
<g id="clust2" class="cluster">
<title>cluster_addr</title>
<polygon fill="lightyellow" stroke="black" points="200,-251 200,-642 343,-642 343,-251 200,-251"/>
<text text-anchor="middle" x="271.5" y="-630" font-family="Arial" font-size="10.00">Address Phase Management</text>
</g>
<g id="clust3" class="cluster">
<title>cluster_rdata</title>
<polygon fill="lightgray" stroke="black" points="455,-127 455,-818 652,-818 652,-127 455,-127"/>
<text text-anchor="middle" x="553.5" y="-806" font-family="Arial" font-size="10.00">Read Data Path Downsize (512→64 bits)</text>
</g>
<g id="clust4" class="cluster">
<title>cluster_master</title>
<polygon fill="lightcoral" stroke="black" points="167,-8 167,-80 601,-80 601,-8 167,-8"/>
<text text-anchor="middle" x="384" y="-68" font-family="Arial" font-size="10.00">Master Interface (Narrow &#45; 64&#45;bit)</text>
</g>
<!-- s_ar -->
<g id="node1" class="node">
<title>s_ar</title>
<polygon fill="lightblue" stroke="black" points="16,-734 16,-770 222,-770 222,-734 16,-734"/>
<text text-anchor="middle" x="119" y="-758.8" font-family="Arial" font-size="9.00">AR Channel</text>
<polyline fill="none" stroke="black" points="16,-752 222,-752 "/>
<text text-anchor="middle" x="119" y="-740.8" font-family="Arial" font-size="9.00">araddr|arlen|arsize|arburst|arid|arvalid|arready</text>
</g>
<!-- ar_skid -->
<g id="node3" class="node">
<title>ar_skid</title>
<polygon fill="white" stroke="black" points="301,-615 211,-615 211,-579 301,-579 301,-615"/>
<text text-anchor="middle" x="256" y="-599.8" font-family="Arial" font-size="9.00">AR Skid Buffer</text>
<text text-anchor="middle" x="256" y="-589.8" font-family="Arial" font-size="9.00">(gaxi_skid_buffer)</text>
</g>
<!-- s_ar&#45;&gt;ar_skid -->
<g id="edge5" class="edge">
<title>s_ar&#45;&gt;ar_skid</title>
<path fill="none" stroke="black" d="M216.5,-733.92C216.5,-733.92 216.5,-625.45 216.5,-625.45"/>
<polygon fill="black" stroke="black" points="220,-625.45 216.5,-615.45 213,-625.45 220,-625.45"/>
<text text-anchor="middle" x="203" y="-652.6" font-family="Arial" font-size="8.00">wide AR</text>
</g>
<!-- s_r -->
<g id="node2" class="node">
<title>s_r</title>
<polygon fill="lightblue" stroke="black" points="265.5,-734 265.5,-770 438.5,-770 438.5,-734 265.5,-734"/>
<text text-anchor="middle" x="352" y="-758.8" font-family="Arial" font-size="9.00">R Channel</text>
<polyline fill="none" stroke="black" points="265.5,-752 438.5,-752 "/>
<text text-anchor="middle" x="352" y="-740.8" font-family="Arial" font-size="9.00">rdata[511:0]|rresp|rid|rlast|rvalid|rready</text>
</g>
<!-- r_skid -->
<g id="node7" class="node">
<title>r_skid</title>
<polygon fill="white" stroke="black" points="553,-550 463,-550 463,-514 553,-514 553,-550"/>
<text text-anchor="middle" x="508" y="-534.8" font-family="Arial" font-size="9.00">R Skid Buffer</text>
<text text-anchor="middle" x="508" y="-524.8" font-family="Arial" font-size="9.00">(gaxi_skid_buffer)</text>
</g>
<!-- s_r&#45;&gt;r_skid -->
<g id="edge7" class="edge">
<title>s_r&#45;&gt;r_skid</title>
<path fill="none" stroke="black" d="M431.5,-734C431.5,-681.45 431.5,-532 431.5,-532 431.5,-532 452.62,-532 452.62,-532"/>
<polygon fill="black" stroke="black" points="452.62,-535.5 462.62,-532 452.62,-528.5 452.62,-535.5"/>
<text text-anchor="middle" x="399.5" y="-652.6" font-family="Arial" font-size="8.00">wide R</text>
</g>
<!-- addr_calc -->
<g id="node4" class="node">
<title>addr_calc</title>
<polygon fill="white" stroke="black" points="320,-485 218,-485 218,-449 320,-449 320,-485"/>
<text text-anchor="middle" x="269" y="-469.8" font-family="Arial" font-size="9.00">Address Calculator</text>
<text text-anchor="middle" x="269" y="-459.8" font-family="Arial" font-size="9.00">Align to narrow width</text>
</g>
<!-- ar_skid&#45;&gt;addr_calc -->
<g id="edge1" class="edge">
<title>ar_skid&#45;&gt;addr_calc</title>
<path fill="none" stroke="black" d="M259.5,-578.92C259.5,-578.92 259.5,-495.34 259.5,-495.34"/>
<polygon fill="black" stroke="black" points="263,-495.34 259.5,-485.34 256,-495.34 263,-495.34"/>
</g>
<!-- len_adj -->
<g id="node5" class="node">
<title>len_adj</title>
<polygon fill="white" stroke="black" points="329.5,-390 220.5,-390 220.5,-354 329.5,-354 329.5,-390"/>
<text text-anchor="middle" x="275" y="-374.8" font-family="Arial" font-size="9.00">Burst Length Adjuster</text>
<text text-anchor="middle" x="275" y="-364.8" font-family="Arial" font-size="9.00">(wide → narrow beats)</text>
</g>
<!-- addr_calc&#45;&gt;len_adj -->
<g id="edge2" class="edge">
<title>addr_calc&#45;&gt;len_adj</title>
<path fill="none" stroke="black" d="M270.25,-448.68C270.25,-448.68 270.25,-400.26 270.25,-400.26"/>
<polygon fill="black" stroke="black" points="273.75,-400.26 270.25,-390.26 266.75,-400.26 273.75,-400.26"/>
</g>
<!-- burst_track -->
<g id="node6" class="node">
<title>burst_track</title>
<polygon fill="white" stroke="black" points="332,-295 224,-295 224,-259 332,-259 332,-295"/>
<text text-anchor="middle" x="278" y="-279.8" font-family="Arial" font-size="9.00">Burst Tracker</text>
<text text-anchor="middle" x="278" y="-269.8" font-family="Arial" font-size="9.00">For RLAST generation</text>
</g>
<!-- len_adj&#45;&gt;burst_track -->
<g id="edge3" class="edge">
<title>len_adj&#45;&gt;burst_track</title>
<path fill="none" stroke="black" d="M276.75,-353.68C276.75,-353.68 276.75,-305.26 276.75,-305.26"/>
<polygon fill="black" stroke="black" points="280.25,-305.26 276.75,-295.26 273.25,-305.26 280.25,-305.26"/>
</g>
<!-- dnsize -->
<g id="node8" class="node">
<title>dnsize</title>
<polygon fill="white" stroke="black" points="555.5,-183 462.5,-183 462.5,-135 555.5,-135 555.5,-183"/>
<text text-anchor="middle" x="509" y="-171.8" font-family="Arial" font-size="9.00">axi_data_dnsize</text>
<text text-anchor="middle" x="509" y="-161.8" font-family="Arial" font-size="9.00">512→64</text>
<text text-anchor="middle" x="509" y="-151.8" font-family="Arial" font-size="9.00">8:1 ratio</text>
<text text-anchor="middle" x="509" y="-141.8" font-family="Arial" font-size="9.00">DUAL_BUFFER=1</text>
</g>
<!-- burst_track&#45;&gt;dnsize -->
<g id="edge9" class="edge">
<title>burst_track&#45;&gt;dnsize</title>
<path fill="none" stroke="black" stroke-dasharray="5,2" d="M332.25,-277C395.95,-277 493,-277 493,-277 493,-277 493,-193.16 493,-193.16"/>
<polygon fill="black" stroke="black" points="496.5,-193.16 493,-183.16 489.5,-193.16 496.5,-193.16"/>
<text text-anchor="middle" x="424.5" y="-223.6" font-family="Arial" font-size="8.00">burst_len</text>
<text text-anchor="middle" x="424.5" y="-214.6" font-family="Arial" font-size="8.00">burst_start</text>
</g>
<!-- m_ar -->
<g id="node10" class="node">
<title>m_ar</title>
<polygon fill="lightcoral" stroke="black" points="175,-16.5 175,-52.5 381,-52.5 381,-16.5 175,-16.5"/>
<text text-anchor="middle" x="278" y="-41.3" font-family="Arial" font-size="9.00">AR Channel</text>
<polyline fill="none" stroke="black" points="175,-34.5 381,-34.5 "/>
<text text-anchor="middle" x="278" y="-23.3" font-family="Arial" font-size="9.00">araddr|arlen|arsize|arburst|arid|arvalid|arready</text>
</g>
<!-- burst_track&#45;&gt;m_ar -->
<g id="edge6" class="edge">
<title>burst_track&#45;&gt;m_ar</title>
<path fill="none" stroke="black" d="M278,-258.77C278,-258.77 278,-62.61 278,-62.61"/>
<polygon fill="black" stroke="black" points="281.5,-62.61 278,-52.61 274.5,-62.61 281.5,-62.61"/>
<text text-anchor="middle" x="297.5" y="-161.6" font-family="Arial" font-size="8.00">narrow AR</text>
<text text-anchor="middle" x="297.5" y="-152.6" font-family="Arial" font-size="8.00">(adjusted)</text>
</g>
<!-- r_skid&#45;&gt;dnsize -->
<g id="edge4" class="edge">
<title>r_skid&#45;&gt;dnsize</title>
<path fill="none" stroke="black" d="M523,-513.76C523,-513.76 523,-193.3 523,-193.3"/>
<polygon fill="black" stroke="black" points="526.5,-193.3 523,-183.3 519.5,-193.3 526.5,-193.3"/>
</g>
<!-- m_r -->
<g id="node11" class="node">
<title>m_r</title>
<polygon fill="lightcoral" stroke="black" points="424.5,-16.5 424.5,-52.5 593.5,-52.5 593.5,-16.5 424.5,-16.5"/>
<text text-anchor="middle" x="509" y="-41.3" font-family="Arial" font-size="9.00">R Channel</text>
<polyline fill="none" stroke="black" points="424.5,-34.5 593.5,-34.5 "/>
<text text-anchor="middle" x="509" y="-23.3" font-family="Arial" font-size="9.00">rdata[63:0]|rresp|rid|rlast|rvalid|rready</text>
</g>
<!-- dnsize&#45;&gt;m_r -->
<g id="edge8" class="edge">
<title>dnsize&#45;&gt;m_r</title>
<path fill="none" stroke="black" d="M509,-135C509,-135 509,-62.77 509,-62.77"/>
<polygon fill="black" stroke="black" points="512.5,-62.77 509,-52.77 505.5,-62.77 512.5,-62.77"/>
<text text-anchor="middle" x="526" y="-99.6" font-family="Arial" font-size="8.00">narrow R</text>
<text text-anchor="middle" x="526" y="-90.6" font-family="Arial" font-size="8.00">(split)</text>
</g>
<!-- dnsize_note -->
<g id="node9" class="node">
<title>dnsize_note</title>
<polygon fill="lightyellow" stroke="black" points="595,-791 497,-791 497,-713 601,-713 601,-785 595,-791"/>
<polyline fill="none" stroke="black" points="595,-791 595,-785 "/>
<polyline fill="none" stroke="black" points="601,-785 595,-785 "/>
<text text-anchor="middle" x="549" y="-779.8" font-family="Arial" font-size="9.00">Splits 1 wide</text>
<text text-anchor="middle" x="549" y="-769.8" font-family="Arial" font-size="9.00">R beat into 8 narrow</text>
<text text-anchor="middle" x="549" y="-759.8" font-family="Arial" font-size="9.00">R beats</text>
<text text-anchor="middle" x="549" y="-739.8" font-family="Arial" font-size="9.00">RRESP: broadcast</text>
<text text-anchor="middle" x="549" y="-729.8" font-family="Arial" font-size="9.00">RLAST: burst tracking</text>
<text text-anchor="middle" x="549" y="-719.8" font-family="Arial" font-size="9.00">100% throughput</text>
</g>
<!-- example -->
<g id="node12" class="node">
<title>example</title>
<polygon fill="lightcyan" stroke="black" points="832,-816 660,-816 660,-688 838,-688 838,-810 832,-816"/>
<polyline fill="none" stroke="black" points="832,-816 832,-810 "/>
<polyline fill="none" stroke="black" points="838,-810 832,-810 "/>
<polygon fill="lightblue" stroke="transparent" points="668,-792 668,-812 830,-812 830,-792 668,-792"/>
<polygon fill="none" stroke="black" points="668,-792 668,-812 830,-812 830,-792 668,-792"/>
<text text-anchor="start" x="703.5" y="-800.8" font-family="Arial" font-weight="bold" font-size="9.00">Example Transaction</text>
<polygon fill="none" stroke="black" points="668,-772 668,-792 724,-792 724,-772 668,-772"/>
<text text-anchor="start" x="673" y="-779.8" font-family="Arial" font-size="9.00">Slave AR:</text>
<polygon fill="none" stroke="black" points="724,-772 724,-792 830,-792 830,-772 724,-772"/>
<text text-anchor="start" x="729" y="-779.8" font-family="Arial" font-size="9.00">len=0 (1 beat × 512&#45;bit)</text>
<polygon fill="none" stroke="black" points="668,-752 668,-772 724,-772 724,-752 668,-752"/>
<text text-anchor="start" x="673" y="-759.8" font-family="Arial" font-size="9.00">Slave R:</text>
<polygon fill="none" stroke="black" points="724,-752 724,-772 830,-772 830,-752 724,-752"/>
<text text-anchor="start" x="729" y="-759.8" font-family="Arial" font-size="9.00">1 beat, 512&#45;bit</text>
<polygon fill="none" stroke="black" points="668,-732 668,-752 724,-752 724,-732 668,-732"/>
<text text-anchor="start" x="673" y="-739.8" font-family="Arial" font-size="9.00">Master AR:</text>
<polygon fill="none" stroke="black" points="724,-732 724,-752 830,-752 830,-732 724,-732"/>
<text text-anchor="start" x="729" y="-739.8" font-family="Arial" font-size="9.00">len=7 (8 beats × 64&#45;bit)</text>
<polygon fill="none" stroke="black" points="668,-712 668,-732 724,-732 724,-712 668,-712"/>
<text text-anchor="start" x="673" y="-719.8" font-family="Arial" font-size="9.00">Master R:</text>
<polygon fill="none" stroke="black" points="724,-712 724,-732 830,-732 830,-712 724,-712"/>
<text text-anchor="start" x="729" y="-719.8" font-family="Arial" font-size="9.00">8 beats, 64&#45;bit each</text>
<polygon fill="none" stroke="black" points="668,-692 668,-712 724,-712 724,-692 668,-692"/>
<text text-anchor="start" x="673" y="-699.8" font-family="Arial" font-size="9.00">RLAST:</text>
<polygon fill="none" stroke="black" points="724,-692 724,-712 830,-712 830,-692 724,-692"/>
<text text-anchor="start" x="729" y="-699.8" font-family="Arial" font-size="9.00">Asserted on beat 7</text>
</g>
<!-- features -->
<g id="node13" class="node">
<title>features</title>
<polygon fill="lightgreen" stroke="black" points="1033,-805 881,-805 881,-699 1039,-699 1039,-799 1033,-805"/>
<polyline fill="none" stroke="black" points="1033,-805 1033,-799 "/>
<polyline fill="none" stroke="black" points="1039,-799 1033,-799 "/>
<text text-anchor="start" x="891" y="-792.8" font-family="Arial" font-weight="bold" font-size="9.00">Key Features:</text>
<text text-anchor="start" x="891" y="-777.8" font-family="Arial" font-size="9.00">✓ 100% throughput (dual buffer)</text>
<text text-anchor="start" x="891" y="-763.8" font-family="Arial" font-size="9.00">✓ Burst length adjustment</text>
<text text-anchor="start" x="891" y="-749.8" font-family="Arial" font-size="9.00">✓ Address alignment</text>
<text text-anchor="start" x="891" y="-735.8" font-family="Arial" font-size="9.00">✓ RRESP broadcast</text>
<text text-anchor="start" x="891" y="-721.8" font-family="Arial" font-size="9.00">✓ Burst&#45;aware RLAST generation</text>
<text text-anchor="start" x="891" y="-707.8" font-family="Arial" font-size="9.00">✓ Skid buffers for flow control</text>
</g>
<!-- timing -->
<g id="node14" class="node">
<title>timing</title>
<polygon fill="lightyellow" stroke="black" points="1258,-791 1082,-791 1082,-713 1264,-713 1264,-785 1258,-791"/>
<polyline fill="none" stroke="black" points="1258,-791 1258,-785 "/>
<polyline fill="none" stroke="black" points="1264,-785 1258,-785 "/>
<text text-anchor="start" x="1092" y="-778.8" font-family="Arial" font-weight="bold" font-size="9.00">Continuous Streaming:</text>
<text text-anchor="start" x="1100" y="-763.8" font-family="Arial" font-size="9.00">Cycle:</text>
<text text-anchor="start" x="1140.5" y="-763.8" font-family="Arial" font-size="9.00">1</text>
<text text-anchor="start" x="1155.5" y="-763.8" font-family="Arial" font-size="9.00">2</text>
<text text-anchor="start" x="1170.5" y="-763.8" font-family="Arial" font-size="9.00">3</text>
<text text-anchor="start" x="1185.5" y="-763.8" font-family="Arial" font-size="9.00">4</text>
<text text-anchor="start" x="1200.5" y="-763.8" font-family="Arial" font-size="9.00">5</text>
<text text-anchor="start" x="1215.5" y="-763.8" font-family="Arial" font-size="9.00">6</text>
<text text-anchor="start" x="1230.5" y="-763.8" font-family="Arial" font-size="9.00">7</text>
<text text-anchor="start" x="1245.5" y="-763.8" font-family="Arial" font-size="9.00">8</text>
<text text-anchor="start" x="1096.5" y="-749.8" font-family="Arial" font-size="9.00">Wide R:</text>
<polygon fill="lightblue" stroke="transparent" points="1136,-745 1136,-759 1256,-759 1256,-745 1136,-745"/>
<text text-anchor="start" x="1164.5" y="-749.8" font-family="Arial" font-size="9.00">1 beat (512&#45;bit)</text>
<text text-anchor="start" x="1092" y="-735.8" font-family="Arial" font-size="9.00">Narrow R:</text>
<polygon fill="lightcoral" stroke="transparent" points="1136,-731 1136,-745 1151,-745 1151,-731 1136,-731"/>
<text text-anchor="start" x="1138" y="-735.8" font-family="Arial" font-size="9.00">b0</text>
<polygon fill="lightcoral" stroke="transparent" points="1151,-731 1151,-745 1166,-745 1166,-731 1151,-731"/>
<text text-anchor="start" x="1153" y="-735.8" font-family="Arial" font-size="9.00">b1</text>
<polygon fill="lightcoral" stroke="transparent" points="1166,-731 1166,-745 1181,-745 1181,-731 1166,-731"/>
<text text-anchor="start" x="1168" y="-735.8" font-family="Arial" font-size="9.00">b2</text>
<polygon fill="lightcoral" stroke="transparent" points="1181,-731 1181,-745 1196,-745 1196,-731 1181,-731"/>
<text text-anchor="start" x="1183" y="-735.8" font-family="Arial" font-size="9.00">b3</text>
<polygon fill="lightcoral" stroke="transparent" points="1196,-731 1196,-745 1211,-745 1211,-731 1196,-731"/>
<text text-anchor="start" x="1198" y="-735.8" font-family="Arial" font-size="9.00">b4</text>
<polygon fill="lightcoral" stroke="transparent" points="1211,-731 1211,-745 1226,-745 1226,-731 1211,-731"/>
<text text-anchor="start" x="1213" y="-735.8" font-family="Arial" font-size="9.00">b5</text>
<polygon fill="lightcoral" stroke="transparent" points="1226,-731 1226,-745 1241,-745 1241,-731 1226,-731"/>
<text text-anchor="start" x="1228" y="-735.8" font-family="Arial" font-size="9.00">b6</text>
<polygon fill="lightcoral" stroke="transparent" points="1241,-731 1241,-745 1256,-745 1256,-731 1241,-731"/>
<text text-anchor="start" x="1243" y="-735.8" font-family="Arial" font-size="9.00">b7</text>
<text text-anchor="start" x="1097.5" y="-721.8" font-family="Arial" font-size="9.00">RLAST:</text>
<text text-anchor="start" x="1141.5" y="-721.8" font-family="Arial" font-size="9.00">&#45;</text>
<text text-anchor="start" x="1156.5" y="-721.8" font-family="Arial" font-size="9.00">&#45;</text>
<text text-anchor="start" x="1171.5" y="-721.8" font-family="Arial" font-size="9.00">&#45;</text>
<text text-anchor="start" x="1186.5" y="-721.8" font-family="Arial" font-size="9.00">&#45;</text>
<text text-anchor="start" x="1201.5" y="-721.8" font-family="Arial" font-size="9.00">&#45;</text>
<text text-anchor="start" x="1216.5" y="-721.8" font-family="Arial" font-size="9.00">&#45;</text>
<text text-anchor="start" x="1231.5" y="-721.8" font-family="Arial" font-size="9.00">&#45;</text>
<polygon fill="lightgreen" stroke="transparent" points="1241,-717 1241,-731 1256,-731 1256,-717 1241,-717"/>
<text text-anchor="start" x="1244.5" y="-721.8" font-family="Arial" font-size="9.00">✓</text>
</g>
</g>
</svg>
