<?xml version="1.0" encoding="UTF-8" standalone="no"?>
<!DOCTYPE svg PUBLIC "-//W3C//DTD SVG 1.1//EN"
 "http://www.w3.org/Graphics/SVG/1.1/DTD/svg11.dtd">
<!-- Generated by graphviz version 2.43.0 (0)
 -->
<!-- Title: axi4_to_axil4_wr Pages: 1 -->
<svg width="703pt" height="451pt"
 viewBox="0.00 0.00 703.00 450.50" xmlns="http://www.w3.org/2000/svg" xmlns:xlink="http://www.w3.org/1999/xlink">
<g id="graph0" class="graph" transform="scale(1 1) rotate(0) translate(4 446.5)">
<title>axi4_to_axil4_wr</title>
<polygon fill="white" stroke="transparent" points="-4,4 -4,-446.5 699,-446.5 699,4 -4,4"/>
<g id="clust1" class="cluster">
<title>cluster_converter</title>
<polygon fill="lightgray" stroke="black" points="199,-143.5 199,-434.5 523,-434.5 523,-143.5 199,-143.5"/>
<text text-anchor="middle" x="361" y="-419.3" font-family="Times,serif" font-size="14.00">axi4_to_axil4_wr</text>
</g>
<!-- s_aw -->
<g id="node1" class="node">
<title>s_aw</title>
<path fill="lightblue" stroke="black" d="M98,-391.5C98,-391.5 12,-391.5 12,-391.5 6,-391.5 0,-385.5 0,-379.5 0,-379.5 0,-339.5 0,-339.5 0,-333.5 6,-327.5 12,-327.5 12,-327.5 98,-327.5 98,-327.5 104,-327.5 110,-333.5 110,-339.5 110,-339.5 110,-379.5 110,-379.5 110,-385.5 104,-391.5 98,-391.5"/>
<text text-anchor="middle" x="55" y="-379.5" font-family="Arial" font-size="10.00">AXI4 AW Channel</text>
<text text-anchor="middle" x="55" y="-356.5" font-family="Arial" font-size="10.00">AWID, AWADDR</text>
<text text-anchor="middle" x="55" y="-345.5" font-family="Arial" font-size="10.00">AWLEN (bursts)</text>
<text text-anchor="middle" x="55" y="-334.5" font-family="Arial" font-size="10.00">AWSIZE, AWBURST</text>
</g>
<!-- aw_fsm -->
<g id="node4" class="node">
<title>aw_fsm</title>
<path fill="khaki" stroke="black" d="M307.5,-403C307.5,-403 236.5,-403 236.5,-403 230.5,-403 224.5,-397 224.5,-391 224.5,-391 224.5,-328 224.5,-328 224.5,-322 230.5,-316 236.5,-316 236.5,-316 307.5,-316 307.5,-316 313.5,-316 319.5,-322 319.5,-328 319.5,-328 319.5,-391 319.5,-391 319.5,-397 313.5,-403 307.5,-403"/>
<text text-anchor="middle" x="272" y="-391" font-family="Arial" font-size="10.00">AW FSM</text>
<text text-anchor="middle" x="272" y="-368" font-family="Arial" font-size="10.00">IDLE → BURST</text>
<text text-anchor="middle" x="272" y="-345" font-family="Arial" font-size="10.00">Decomposes:</text>
<text text-anchor="middle" x="272" y="-334" font-family="Arial" font-size="10.00">AXI burst</text>
<text text-anchor="middle" x="272" y="-323" font-family="Arial" font-size="10.00">→ N AXIL singles</text>
</g>
<!-- s_aw&#45;&gt;aw_fsm -->
<g id="edge1" class="edge">
<title>s_aw&#45;&gt;aw_fsm</title>
<path fill="none" stroke="black" d="M110.25,-359.5C142.02,-359.5 182.09,-359.5 214.27,-359.5"/>
<polygon fill="black" stroke="black" points="214.42,-363 224.42,-359.5 214.42,-356 214.42,-363"/>
<text text-anchor="middle" x="158.5" y="-362.3" font-family="Arial" font-size="9.00">1 burst request</text>
</g>
<!-- s_w -->
<g id="node2" class="node">
<title>s_w</title>
<path fill="lightblue" stroke="black" d="M90.5,-292C90.5,-292 19.5,-292 19.5,-292 13.5,-292 7.5,-286 7.5,-280 7.5,-280 7.5,-251 7.5,-251 7.5,-245 13.5,-239 19.5,-239 19.5,-239 90.5,-239 90.5,-239 96.5,-239 102.5,-245 102.5,-251 102.5,-251 102.5,-280 102.5,-280 102.5,-286 96.5,-292 90.5,-292"/>
<text text-anchor="middle" x="55" y="-280" font-family="Arial" font-size="10.00">AXI4 W Channel</text>
<text text-anchor="middle" x="55" y="-257" font-family="Arial" font-size="10.00">WDATA, WSTRB</text>
<text text-anchor="middle" x="55" y="-246" font-family="Arial" font-size="10.00">WLAST</text>
</g>
<!-- w_buffer -->
<g id="node6" class="node">
<title>w_buffer</title>
<path fill="lightyellow" stroke="black" d="M325,-297.5C325,-297.5 219,-297.5 219,-297.5 213,-297.5 207,-291.5 207,-285.5 207,-285.5 207,-245.5 207,-245.5 207,-239.5 213,-233.5 219,-233.5 219,-233.5 325,-233.5 325,-233.5 331,-233.5 337,-239.5 337,-245.5 337,-245.5 337,-285.5 337,-285.5 337,-291.5 331,-297.5 325,-297.5"/>
<text text-anchor="middle" x="272" y="-285.5" font-family="Arial" font-size="10.00">W Channel</text>
<text text-anchor="middle" x="272" y="-274.5" font-family="Arial" font-size="10.00">Passthrough</text>
<text text-anchor="middle" x="272" y="-251.5" font-family="Arial" font-size="10.00">Forward WDATA/WSTRB</text>
<text text-anchor="middle" x="272" y="-240.5" font-family="Arial" font-size="10.00">per beat</text>
</g>
<!-- s_w&#45;&gt;w_buffer -->
<g id="edge4" class="edge">
<title>s_w&#45;&gt;w_buffer</title>
<path fill="none" stroke="black" d="M102.65,-265.5C130.06,-265.5 165.33,-265.5 196.51,-265.5"/>
<polygon fill="black" stroke="black" points="196.9,-269 206.9,-265.5 196.9,-262 196.9,-269"/>
<text text-anchor="middle" x="158.5" y="-268.3" font-family="Arial" font-size="9.00">N data beats</text>
</g>
<!-- s_b_resp -->
<g id="node3" class="node">
<title>s_b_resp</title>
<path fill="lightcoral" stroke="black" d="M89,-210C89,-210 21,-210 21,-210 15,-210 9,-204 9,-198 9,-198 9,-169 9,-169 9,-163 15,-157 21,-157 21,-157 89,-157 89,-157 95,-157 101,-163 101,-169 101,-169 101,-198 101,-198 101,-204 95,-210 89,-210"/>
<text text-anchor="middle" x="55" y="-198" font-family="Arial" font-size="10.00">AXIL4 B Channel</text>
<text text-anchor="middle" x="55" y="-187" font-family="Arial" font-size="10.00">(from slave)</text>
<text text-anchor="middle" x="55" y="-164" font-family="Arial" font-size="10.00">BRESP</text>
</g>
<!-- b_buffer -->
<g id="node7" class="node">
<title>b_buffer</title>
<path fill="lightyellow" stroke="black" d="M310.5,-215.5C310.5,-215.5 233.5,-215.5 233.5,-215.5 227.5,-215.5 221.5,-209.5 221.5,-203.5 221.5,-203.5 221.5,-163.5 221.5,-163.5 221.5,-157.5 227.5,-151.5 233.5,-151.5 233.5,-151.5 310.5,-151.5 310.5,-151.5 316.5,-151.5 322.5,-157.5 322.5,-163.5 322.5,-163.5 322.5,-203.5 322.5,-203.5 322.5,-209.5 316.5,-215.5 310.5,-215.5"/>
<text text-anchor="middle" x="272" y="-203.5" font-family="Arial" font-size="10.00">Response</text>
<text text-anchor="middle" x="272" y="-192.5" font-family="Arial" font-size="10.00">Aggregator</text>
<text text-anchor="middle" x="272" y="-169.5" font-family="Arial" font-size="10.00">Buffer N responses</text>
<text text-anchor="middle" x="272" y="-158.5" font-family="Arial" font-size="10.00">Reattach ID</text>
</g>
<!-- s_b_resp&#45;&gt;b_buffer -->
<g id="edge6" class="edge">
<title>s_b_resp&#45;&gt;b_buffer</title>
<path fill="none" stroke="black" d="M101.07,-183.5C133.12,-183.5 176.51,-183.5 211.42,-183.5"/>
<polygon fill="black" stroke="black" points="211.49,-187 221.49,-183.5 211.49,-180 211.49,-187"/>
<text text-anchor="middle" x="158.5" y="-186.3" font-family="Arial" font-size="9.00">N responses</text>
</g>
<!-- addr_gen -->
<g id="node5" class="node">
<title>addr_gen</title>
<path fill="lightyellow" stroke="black" d="M503,-391.5C503,-391.5 428,-391.5 428,-391.5 422,-391.5 416,-385.5 416,-379.5 416,-379.5 416,-339.5 416,-339.5 416,-333.5 422,-327.5 428,-327.5 428,-327.5 503,-327.5 503,-327.5 509,-327.5 515,-333.5 515,-339.5 515,-339.5 515,-379.5 515,-379.5 515,-385.5 509,-391.5 503,-391.5"/>
<text text-anchor="middle" x="465.5" y="-379.5" font-family="Arial" font-size="10.00">Address</text>
<text text-anchor="middle" x="465.5" y="-368.5" font-family="Arial" font-size="10.00">Generator</text>
<text text-anchor="middle" x="465.5" y="-345.5" font-family="Arial" font-size="10.00">Increment by SIZE</text>
<text text-anchor="middle" x="465.5" y="-334.5" font-family="Arial" font-size="10.00">for each beat</text>
</g>
<!-- aw_fsm&#45;&gt;addr_gen -->
<g id="edge2" class="edge">
<title>aw_fsm&#45;&gt;addr_gen</title>
<path fill="none" stroke="black" d="M319.85,-359.5C345.67,-359.5 377.98,-359.5 405.51,-359.5"/>
<polygon fill="black" stroke="black" points="405.8,-363 415.8,-359.5 405.8,-356 405.8,-363"/>
<text text-anchor="middle" x="376.5" y="-362.3" font-family="Arial" font-size="9.00">beat count</text>
</g>
<!-- m_aw -->
<g id="node8" class="node">
<title>m_aw</title>
<path fill="lightcoral" stroke="black" d="M683,-397C683,-397 606,-397 606,-397 600,-397 594,-391 594,-385 594,-385 594,-334 594,-334 594,-328 600,-322 606,-322 606,-322 683,-322 683,-322 689,-322 695,-328 695,-334 695,-334 695,-385 695,-385 695,-391 689,-397 683,-397"/>
<text text-anchor="middle" x="644.5" y="-385" font-family="Arial" font-size="10.00">AXIL4 AW Channel</text>
<text text-anchor="middle" x="644.5" y="-374" font-family="Arial" font-size="10.00">(to slave)</text>
<text text-anchor="middle" x="644.5" y="-351" font-family="Arial" font-size="10.00">AWVALID single</text>
<text text-anchor="middle" x="644.5" y="-340" font-family="Arial" font-size="10.00">AWREADY</text>
<text text-anchor="middle" x="644.5" y="-329" font-family="Arial" font-size="10.00">No LEN/SIZE</text>
</g>
<!-- addr_gen&#45;&gt;m_aw -->
<g id="edge3" class="edge">
<title>addr_gen&#45;&gt;m_aw</title>
<path fill="none" stroke="black" d="M515.33,-359.5C536.54,-359.5 561.58,-359.5 583.88,-359.5"/>
<polygon fill="black" stroke="black" points="583.9,-363 593.9,-359.5 583.9,-356 583.9,-363"/>
<text text-anchor="middle" x="554.5" y="-372.3" font-family="Arial" font-size="9.00">N single</text>
<text text-anchor="middle" x="554.5" y="-362.3" font-family="Arial" font-size="9.00">addresses</text>
</g>
<!-- m_w -->
<g id="node9" class="node">
<title>m_w</title>
<path fill="lightcoral" stroke="black" d="M501,-135.5C501,-135.5 430,-135.5 430,-135.5 424,-135.5 418,-129.5 418,-123.5 418,-123.5 418,-83.5 418,-83.5 418,-77.5 424,-71.5 430,-71.5 430,-71.5 501,-71.5 501,-71.5 507,-71.5 513,-77.5 513,-83.5 513,-83.5 513,-123.5 513,-123.5 513,-129.5 507,-135.5 501,-135.5"/>
<text text-anchor="middle" x="465.5" y="-123.5" font-family="Arial" font-size="10.00">AXIL4 W Channel</text>
<text text-anchor="middle" x="465.5" y="-112.5" font-family="Arial" font-size="10.00">(to slave)</text>
<text text-anchor="middle" x="465.5" y="-89.5" font-family="Arial" font-size="10.00">WDATA, WSTRB</text>
<text text-anchor="middle" x="465.5" y="-78.5" font-family="Arial" font-size="10.00">No WLAST</text>
</g>
<!-- w_buffer&#45;&gt;m_w -->
<g id="edge5" class="edge">
<title>w_buffer&#45;&gt;m_w</title>
<path fill="none" stroke="black" d="M325.48,-233.45C329.47,-230.54 333.35,-227.55 337,-224.5 374.11,-193.5 377.3,-176.16 412.79,-142.65"/>
<polygon fill="black" stroke="black" points="415.33,-145.07 420.33,-135.73 410.6,-139.91 415.33,-145.07"/>
<text text-anchor="middle" x="376.5" y="-220.3" font-family="Arial" font-size="9.00">forward</text>
<text text-anchor="middle" x="376.5" y="-210.3" font-family="Arial" font-size="9.00">each beat</text>
</g>
<!-- m_b -->
<g id="node10" class="node">
<title>m_b</title>
<path fill="lightblue" stroke="black" d="M497,-53C497,-53 434,-53 434,-53 428,-53 422,-47 422,-41 422,-41 422,-12 422,-12 422,-6 428,0 434,0 434,0 497,0 497,0 503,0 509,-6 509,-12 509,-12 509,-41 509,-41 509,-47 503,-53 497,-53"/>
<text text-anchor="middle" x="465.5" y="-41" font-family="Arial" font-size="10.00">AXI4 B Channel</text>
<text text-anchor="middle" x="465.5" y="-18" font-family="Arial" font-size="10.00">BID</text>
<text text-anchor="middle" x="465.5" y="-7" font-family="Arial" font-size="10.00">BRESP</text>
</g>
<!-- b_buffer&#45;&gt;m_b -->
<g id="edge7" class="edge">
<title>b_buffer&#45;&gt;m_b</title>
<path fill="none" stroke="black" d="M287.11,-151.26C300.74,-123.69 323.88,-84.87 355,-61.5 371.58,-49.05 392.74,-40.94 412.02,-35.7"/>
<polygon fill="black" stroke="black" points="413.06,-39.05 421.91,-33.21 411.35,-32.26 413.06,-39.05"/>
<text text-anchor="middle" x="376.5" y="-74.3" font-family="Arial" font-size="9.00">aggregate</text>
<text text-anchor="middle" x="376.5" y="-64.3" font-family="Arial" font-size="9.00">+ ID</text>
</g>
</g>
</svg>
