<?xml version="1.0" encoding="UTF-8" standalone="no"?>
<!DOCTYPE svg PUBLIC "-//W3C//DTD SVG 1.1//EN"
 "http://www.w3.org/Graphics/SVG/1.1/DTD/svg11.dtd">
<!-- Generated by graphviz version 2.43.0 (0)
 -->
<!-- Title: axi4_dwidth_converter_wr Pages: 1 -->
<svg width="1374pt" height="747pt"
 viewBox="0.00 0.00 1374.00 747.00" xmlns="http://www.w3.org/2000/svg" xmlns:xlink="http://www.w3.org/1999/xlink">
<g id="graph0" class="graph" transform="scale(1 1) rotate(0) translate(4 743)">
<title>axi4_dwidth_converter_wr</title>
<polygon fill="white" stroke="transparent" points="-4,4 -4,-743 1370,-743 1370,4 -4,4"/>
<text text-anchor="middle" x="683" y="-727" font-family="Arial" font-size="10.00">axi4_dwidth_converter_wr &#45; Full Write Path Converter</text>
<text text-anchor="middle" x="683" y="-716" font-family="Arial" font-size="10.00">64→512 Width Conversion (8:1 ratio)</text>
<g id="clust1" class="cluster">
<title>cluster_slave</title>
<polygon fill="lightblue" stroke="black" points="8,-613.5 8,-685.5 646,-685.5 646,-613.5 8,-613.5"/>
<text text-anchor="middle" x="327" y="-673.5" font-family="Arial" font-size="10.00">Slave Interface (Narrow &#45; 64&#45;bit)</text>
</g>
<g id="clust2" class="cluster">
<title>cluster_addr</title>
<polygon fill="lightyellow" stroke="black" points="380,-240 380,-530 523,-530 523,-240 380,-240"/>
<text text-anchor="middle" x="451.5" y="-518" font-family="Arial" font-size="10.00">Address Phase Management</text>
</g>
<g id="clust3" class="cluster">
<title>cluster_wdata</title>
<polygon fill="lightgray" stroke="black" points="654,-362 654,-701 838,-701 838,-362 654,-362"/>
<text text-anchor="middle" x="746" y="-689" font-family="Arial" font-size="10.00">Write Data Path Upsize (64→512 bits)</text>
</g>
<g id="clust4" class="cluster">
<title>cluster_resp</title>
<polygon fill="lightgreen" stroke="black" points="846,-8 846,-686 960,-686 960,-8 846,-8"/>
<text text-anchor="middle" x="903" y="-674" font-family="Arial" font-size="10.00">Response Path</text>
</g>
<g id="clust5" class="cluster">
<title>cluster_master</title>
<polygon fill="lightcoral" stroke="black" points="178,-111 178,-183 826,-183 826,-111 178,-111"/>
<text text-anchor="middle" x="502" y="-171" font-family="Arial" font-size="10.00">Master Interface (Wide &#45; 512&#45;bit)</text>
</g>
<!-- s_aw -->
<g id="node1" class="node">
<title>s_aw</title>
<polygon fill="lightblue" stroke="black" points="172.5,-622 172.5,-658 405.5,-658 405.5,-622 172.5,-622"/>
<text text-anchor="middle" x="289" y="-646.8" font-family="Arial" font-size="9.00">AW Channel</text>
<polyline fill="none" stroke="black" points="172.5,-640 405.5,-640 "/>
<text text-anchor="middle" x="289" y="-628.8" font-family="Arial" font-size="9.00">awaddr|awlen|awsize|awburst|awid|awvalid|awready</text>
</g>
<!-- aw_skid -->
<g id="node4" class="node">
<title>aw_skid</title>
<polygon fill="white" stroke="black" points="497,-503 407,-503 407,-467 497,-467 497,-503"/>
<text text-anchor="middle" x="452" y="-487.8" font-family="Arial" font-size="9.00">AW Skid Buffer</text>
<text text-anchor="middle" x="452" y="-477.8" font-family="Arial" font-size="9.00">(gaxi_skid_buffer)</text>
</g>
<!-- s_aw&#45;&gt;aw_skid -->
<g id="edge4" class="edge">
<title>s_aw&#45;&gt;aw_skid</title>
<path fill="none" stroke="black" d="M401,-621.92C401,-581.03 401,-485 401,-485 401,-485 401.59,-485 401.59,-485"/>
<polygon fill="black" stroke="black" points="396.85,-488.5 406.85,-485 396.85,-481.5 396.85,-488.5"/>
<text text-anchor="middle" x="390" y="-540.6" font-family="Arial" font-size="8.00">narrow AW</text>
</g>
<!-- s_w -->
<g id="node2" class="node">
<title>s_w</title>
<polygon fill="lightblue" stroke="black" points="448.5,-622 448.5,-658 637.5,-658 637.5,-622 448.5,-622"/>
<text text-anchor="middle" x="543" y="-646.8" font-family="Arial" font-size="9.00">W Channel</text>
<polyline fill="none" stroke="black" points="448.5,-640 637.5,-640 "/>
<text text-anchor="middle" x="543" y="-628.8" font-family="Arial" font-size="9.00">wdata[63:0]|wstrb[7:0]|wlast|wvalid|wready</text>
</g>
<!-- w_skid -->
<g id="node7" class="node">
<title>w_skid</title>
<polygon fill="white" stroke="black" points="752,-503 662,-503 662,-467 752,-467 752,-503"/>
<text text-anchor="middle" x="707" y="-487.8" font-family="Arial" font-size="9.00">W Skid Buffer</text>
<text text-anchor="middle" x="707" y="-477.8" font-family="Arial" font-size="9.00">(gaxi_skid_buffer)</text>
</g>
<!-- s_w&#45;&gt;w_skid -->
<g id="edge6" class="edge">
<title>s_w&#45;&gt;w_skid</title>
<path fill="none" stroke="black" d="M637.7,-640C659.66,-640 676.75,-640 676.75,-640 676.75,-640 676.75,-513.08 676.75,-513.08"/>
<polygon fill="black" stroke="black" points="680.25,-513.08 676.75,-503.08 673.25,-513.08 680.25,-513.08"/>
<text text-anchor="middle" x="641" y="-540.6" font-family="Arial" font-size="8.00">narrow W</text>
</g>
<!-- s_b -->
<g id="node3" class="node">
<title>s_b</title>
<polygon fill="lightblue" stroke="black" points="16.5,-622 16.5,-658 129.5,-658 129.5,-622 16.5,-622"/>
<text text-anchor="middle" x="73" y="-646.8" font-family="Arial" font-size="9.00">B Channel</text>
<polyline fill="none" stroke="black" points="16.5,-640 129.5,-640 "/>
<text text-anchor="middle" x="73" y="-628.8" font-family="Arial" font-size="9.00">bid|bresp|bvalid|bready</text>
</g>
<!-- addr_calc -->
<g id="node5" class="node">
<title>addr_calc</title>
<polygon fill="white" stroke="black" points="499.5,-407 404.5,-407 404.5,-371 499.5,-371 499.5,-407"/>
<text text-anchor="middle" x="452" y="-391.8" font-family="Arial" font-size="9.00">Address Calculator</text>
<text text-anchor="middle" x="452" y="-381.8" font-family="Arial" font-size="9.00">Align to wide width</text>
</g>
<!-- aw_skid&#45;&gt;addr_calc -->
<g id="edge1" class="edge">
<title>aw_skid&#45;&gt;addr_calc</title>
<path fill="none" stroke="black" d="M452,-466.94C452,-466.94 452,-417.3 452,-417.3"/>
<polygon fill="black" stroke="black" points="455.5,-417.3 452,-407.3 448.5,-417.3 455.5,-417.3"/>
</g>
<!-- sync -->
<g id="node15" class="node">
<title>sync</title>
<polygon fill="white" stroke="black" points="591,-294 550,-266 591,-238 632,-266 591,-294"/>
<text text-anchor="middle" x="591" y="-268.8" font-family="Arial" font-size="9.00">AW/W</text>
<text text-anchor="middle" x="591" y="-258.8" font-family="Arial" font-size="9.00">Sync</text>
</g>
<!-- aw_skid&#45;&gt;sync -->
<g id="edge10" class="edge">
<title>aw_skid&#45;&gt;sync</title>
<path fill="none" stroke="black" stroke-dasharray="5,2" d="M497.25,-485C533.15,-485 577.33,-485 577.33,-485 577.33,-485 577.33,-294.67 577.33,-294.67"/>
<polygon fill="black" stroke="black" points="580.83,-294.67 577.33,-284.67 573.83,-294.67 580.83,-294.67"/>
<text text-anchor="middle" x="597" y="-387.1" font-family="Arial" font-size="8.00">track</text>
</g>
<!-- len_adj -->
<g id="node6" class="node">
<title>len_adj</title>
<polygon fill="white" stroke="black" points="506.5,-284 397.5,-284 397.5,-248 506.5,-248 506.5,-284"/>
<text text-anchor="middle" x="452" y="-268.8" font-family="Arial" font-size="9.00">Burst Length Adjuster</text>
<text text-anchor="middle" x="452" y="-258.8" font-family="Arial" font-size="9.00">(narrow → wide beats)</text>
</g>
<!-- addr_calc&#45;&gt;len_adj -->
<g id="edge2" class="edge">
<title>addr_calc&#45;&gt;len_adj</title>
<path fill="none" stroke="black" d="M452,-370.85C452,-370.85 452,-294.22 452,-294.22"/>
<polygon fill="black" stroke="black" points="455.5,-294.22 452,-284.22 448.5,-294.22 455.5,-294.22"/>
</g>
<!-- m_aw -->
<g id="node12" class="node">
<title>m_aw</title>
<polygon fill="lightcoral" stroke="black" points="342.5,-119.5 342.5,-155.5 575.5,-155.5 575.5,-119.5 342.5,-119.5"/>
<text text-anchor="middle" x="459" y="-144.3" font-family="Arial" font-size="9.00">AW Channel</text>
<polyline fill="none" stroke="black" points="342.5,-137.5 575.5,-137.5 "/>
<text text-anchor="middle" x="459" y="-126.3" font-family="Arial" font-size="9.00">awaddr|awlen|awsize|awburst|awid|awvalid|awready</text>
</g>
<!-- len_adj&#45;&gt;m_aw -->
<g id="edge5" class="edge">
<title>len_adj&#45;&gt;m_aw</title>
<path fill="none" stroke="black" d="M452,-247.86C452,-247.86 452,-165.55 452,-165.55"/>
<polygon fill="black" stroke="black" points="455.5,-165.55 452,-155.55 448.5,-165.55 455.5,-165.55"/>
<text text-anchor="middle" x="473.5" y="-202.6" font-family="Arial" font-size="8.00">wide AW</text>
<text text-anchor="middle" x="473.5" y="-193.6" font-family="Arial" font-size="8.00">(adjusted)</text>
</g>
<!-- upsize -->
<g id="node8" class="node">
<title>upsize</title>
<polygon fill="white" stroke="black" points="749,-408 665,-408 665,-370 749,-370 749,-408"/>
<text text-anchor="middle" x="707" y="-396.8" font-family="Arial" font-size="9.00">axi_data_upsize</text>
<text text-anchor="middle" x="707" y="-386.8" font-family="Arial" font-size="9.00">64→512</text>
<text text-anchor="middle" x="707" y="-376.8" font-family="Arial" font-size="9.00">8:1 ratio</text>
</g>
<!-- w_skid&#45;&gt;upsize -->
<g id="edge3" class="edge">
<title>w_skid&#45;&gt;upsize</title>
<path fill="none" stroke="black" d="M707,-466.94C707,-466.94 707,-418.29 707,-418.29"/>
<polygon fill="black" stroke="black" points="710.5,-418.29 707,-408.29 703.5,-418.29 710.5,-418.29"/>
</g>
<!-- m_w -->
<g id="node13" class="node">
<title>m_w</title>
<polygon fill="lightcoral" stroke="black" points="618.5,-119.5 618.5,-155.5 817.5,-155.5 817.5,-119.5 618.5,-119.5"/>
<text text-anchor="middle" x="718" y="-144.3" font-family="Arial" font-size="9.00">W Channel</text>
<polyline fill="none" stroke="black" points="618.5,-137.5 817.5,-137.5 "/>
<text text-anchor="middle" x="718" y="-126.3" font-family="Arial" font-size="9.00">wdata[511:0]|wstrb[63:0]|wlast|wvalid|wready</text>
</g>
<!-- upsize&#45;&gt;m_w -->
<g id="edge7" class="edge">
<title>upsize&#45;&gt;m_w</title>
<path fill="none" stroke="black" d="M707,-369.68C707,-369.68 707,-165.52 707,-165.52"/>
<polygon fill="black" stroke="black" points="710.5,-165.52 707,-155.52 703.5,-165.52 710.5,-165.52"/>
<text text-anchor="middle" x="744" y="-268.6" font-family="Arial" font-size="8.00">wide W</text>
<text text-anchor="middle" x="744" y="-259.6" font-family="Arial" font-size="8.00">(accumulated)</text>
</g>
<!-- upsize&#45;&gt;sync -->
<g id="edge11" class="edge">
<title>upsize&#45;&gt;sync</title>
<path fill="none" stroke="black" stroke-dasharray="5,2" d="M664.79,-389C636.6,-389 604.67,-389 604.67,-389 604.67,-389 604.67,-294.68 604.67,-294.68"/>
<polygon fill="black" stroke="black" points="608.17,-294.68 604.67,-284.68 601.17,-294.68 608.17,-294.68"/>
<text text-anchor="middle" x="674" y="-330.1" font-family="Arial" font-size="8.00">track</text>
</g>
<!-- upsize_note -->
<g id="node9" class="node">
<title>upsize_note</title>
<polygon fill="lightyellow" stroke="black" points="792.5,-674 691.5,-674 691.5,-606 798.5,-606 798.5,-668 792.5,-674"/>
<polyline fill="none" stroke="black" points="792.5,-674 792.5,-668 "/>
<polyline fill="none" stroke="black" points="798.5,-668 792.5,-668 "/>
<text text-anchor="middle" x="745" y="-662.8" font-family="Arial" font-size="9.00">Accumulates 8 narrow</text>
<text text-anchor="middle" x="745" y="-652.8" font-family="Arial" font-size="9.00">W beats into 1 wide</text>
<text text-anchor="middle" x="745" y="-642.8" font-family="Arial" font-size="9.00">W beat</text>
<text text-anchor="middle" x="745" y="-622.8" font-family="Arial" font-size="9.00">WSTRB: concatenate</text>
<text text-anchor="middle" x="745" y="-612.8" font-family="Arial" font-size="9.00">WLAST: propagate</text>
</g>
<!-- b_pass -->
<g id="node10" class="node">
<title>b_pass</title>
<polygon fill="white" stroke="black" points="931.5,-52 854.5,-52 854.5,-16 931.5,-16 931.5,-52"/>
<text text-anchor="middle" x="893" y="-36.8" font-family="Arial" font-size="9.00">B Passthrough</text>
<text text-anchor="middle" x="893" y="-26.8" font-family="Arial" font-size="9.00">(1:1 mapping)</text>
</g>
<!-- b_pass&#45;&gt;s_b -->
<g id="edge9" class="edge">
<title>b_pass&#45;&gt;s_b</title>
<path fill="none" stroke="black" d="M854.28,-28C691.74,-28 73,-28 73,-28 73,-28 73,-611.68 73,-611.68"/>
<polygon fill="black" stroke="black" points="69.5,-611.68 73,-621.68 76.5,-611.68 69.5,-611.68"/>
<text text-anchor="middle" x="130" y="-334.6" font-family="Arial" font-size="8.00">narrow B</text>
<text text-anchor="middle" x="130" y="-325.6" font-family="Arial" font-size="8.00">(pass&#45;through)</text>
</g>
<!-- b_note -->
<g id="node11" class="node">
<title>b_note</title>
<polygon fill="lightyellow" stroke="black" points="946,-659 854,-659 854,-621 952,-621 952,-653 946,-659"/>
<polyline fill="none" stroke="black" points="946,-659 946,-653 "/>
<polyline fill="none" stroke="black" points="952,-653 946,-653 "/>
<text text-anchor="middle" x="903" y="-647.8" font-family="Arial" font-size="9.00">B responses match</text>
<text text-anchor="middle" x="903" y="-637.8" font-family="Arial" font-size="9.00">1:1 between narrow</text>
<text text-anchor="middle" x="903" y="-627.8" font-family="Arial" font-size="9.00">and wide</text>
</g>
<!-- m_b -->
<g id="node14" class="node">
<title>m_b</title>
<polygon fill="lightcoral" stroke="black" points="186.5,-119.5 186.5,-155.5 299.5,-155.5 299.5,-119.5 186.5,-119.5"/>
<text text-anchor="middle" x="243" y="-144.3" font-family="Arial" font-size="9.00">B Channel</text>
<polyline fill="none" stroke="black" points="186.5,-137.5 299.5,-137.5 "/>
<text text-anchor="middle" x="243" y="-126.3" font-family="Arial" font-size="9.00">bid|bresp|bvalid|bready</text>
</g>
<!-- m_b&#45;&gt;b_pass -->
<g id="edge8" class="edge">
<title>m_b&#45;&gt;b_pass</title>
<path fill="none" stroke="black" d="M243,-119.16C243,-90.92 243,-40 243,-40 243,-40 844.29,-40 844.29,-40"/>
<polygon fill="black" stroke="black" points="844.29,-43.5 854.29,-40 844.29,-36.5 844.29,-43.5"/>
<text text-anchor="middle" x="575.5" y="-83.6" font-family="Arial" font-size="8.00">wide B</text>
</g>
<!-- example -->
<g id="node16" class="node">
<title>example</title>
<polygon fill="lightcyan" stroke="black" points="1177,-704 995,-704 995,-576 1183,-576 1183,-698 1177,-704"/>
<polyline fill="none" stroke="black" points="1177,-704 1177,-698 "/>
<polyline fill="none" stroke="black" points="1183,-698 1177,-698 "/>
<polygon fill="lightblue" stroke="transparent" points="1003,-680 1003,-700 1175,-700 1175,-680 1003,-680"/>
<polygon fill="none" stroke="black" points="1003,-680 1003,-700 1175,-700 1175,-680 1003,-680"/>
<text text-anchor="start" x="1043.5" y="-688.8" font-family="Arial" font-weight="bold" font-size="9.00">Example Transaction</text>
<polygon fill="none" stroke="black" points="1003,-660 1003,-680 1060,-680 1060,-660 1003,-660"/>
<text text-anchor="start" x="1008" y="-667.8" font-family="Arial" font-size="9.00">Slave AW:</text>
<polygon fill="none" stroke="black" points="1060,-660 1060,-680 1175,-680 1175,-660 1060,-660"/>
<text text-anchor="start" x="1065" y="-667.8" font-family="Arial" font-size="9.00">len=7 (8 beats × 64&#45;bit)</text>
<polygon fill="none" stroke="black" points="1003,-640 1003,-660 1060,-660 1060,-640 1003,-640"/>
<text text-anchor="start" x="1008" y="-647.8" font-family="Arial" font-size="9.00">Slave W:</text>
<polygon fill="none" stroke="black" points="1060,-640 1060,-660 1175,-660 1175,-640 1060,-640"/>
<text text-anchor="start" x="1065" y="-647.8" font-family="Arial" font-size="9.00">8 beats, 64&#45;bit each</text>
<polygon fill="none" stroke="black" points="1003,-620 1003,-640 1060,-640 1060,-620 1003,-620"/>
<text text-anchor="start" x="1008" y="-627.8" font-family="Arial" font-size="9.00">Master AW:</text>
<polygon fill="none" stroke="black" points="1060,-620 1060,-640 1175,-640 1175,-620 1060,-620"/>
<text text-anchor="start" x="1065" y="-627.8" font-family="Arial" font-size="9.00">len=0 (1 beat × 512&#45;bit)</text>
<polygon fill="none" stroke="black" points="1003,-600 1003,-620 1060,-620 1060,-600 1003,-600"/>
<text text-anchor="start" x="1008" y="-607.8" font-family="Arial" font-size="9.00">Master W:</text>
<polygon fill="none" stroke="black" points="1060,-600 1060,-620 1175,-620 1175,-600 1060,-600"/>
<text text-anchor="start" x="1065" y="-607.8" font-family="Arial" font-size="9.00">1 beat, 512&#45;bit</text>
<polygon fill="none" stroke="black" points="1003,-580 1003,-600 1060,-600 1060,-580 1003,-580"/>
<text text-anchor="start" x="1008" y="-587.8" font-family="Arial" font-size="9.00">Response:</text>
<polygon fill="none" stroke="black" points="1060,-580 1060,-600 1175,-600 1175,-580 1060,-580"/>
<text text-anchor="start" x="1065" y="-587.8" font-family="Arial" font-size="9.00">1 B response (both sides)</text>
</g>
<!-- features -->
<g id="node17" class="node">
<title>features</title>
<polygon fill="lightgreen" stroke="black" points="1360,-693 1226,-693 1226,-587 1366,-587 1366,-687 1360,-693"/>
<polyline fill="none" stroke="black" points="1360,-693 1360,-687 "/>
<polyline fill="none" stroke="black" points="1366,-687 1360,-687 "/>
<text text-anchor="start" x="1236" y="-680.8" font-family="Arial" font-weight="bold" font-size="9.00">Key Features:</text>
<text text-anchor="start" x="1236" y="-665.8" font-family="Arial" font-size="9.00">✓ 100% throughput (upsize)</text>
<text text-anchor="start" x="1236" y="-651.8" font-family="Arial" font-size="9.00">✓ Burst length adjustment</text>
<text text-anchor="start" x="1236" y="-637.8" font-family="Arial" font-size="9.00">✓ Address alignment</text>
<text text-anchor="start" x="1236" y="-623.8" font-family="Arial" font-size="9.00">✓ WSTRB concatenation</text>
<text text-anchor="start" x="1236" y="-609.8" font-family="Arial" font-size="9.00">✓ AW/W synchronization</text>
<text text-anchor="start" x="1236" y="-595.8" font-family="Arial" font-size="9.00">✓ Skid buffers for flow control</text>
</g>
</g>
</svg>
