<?xml version="1.0" encoding="UTF-8" standalone="no"?>
<!DOCTYPE svg PUBLIC "-//W3C//DTD SVG 1.1//EN"
 "http://www.w3.org/Graphics/SVG/1.1/DTD/svg11.dtd">
<!-- Generated by graphviz version 2.43.0 (0)
 -->
<!-- Title: axi4_to_axil4 Pages: 1 -->
<svg width="473pt" height="513pt"
 viewBox="0.00 0.00 473.00 512.50" xmlns="http://www.w3.org/2000/svg" xmlns:xlink="http://www.w3.org/1999/xlink">
<g id="graph0" class="graph" transform="scale(1 1) rotate(0) translate(4 508.5)">
<title>axi4_to_axil4</title>
<polygon fill="white" stroke="transparent" points="-4,4 -4,-508.5 469,-508.5 469,4 -4,4"/>
<g id="clust1" class="cluster">
<title>cluster_wrapper</title>
<polygon fill="none" stroke="black" stroke-dasharray="5,2" points="178,-8 178,-329 457,-329 457,-8 178,-8"/>
<text text-anchor="middle" x="317.5" y="-313.8" font-family="Times,serif" font-size="14.00">axi4_to_axil4 (Composition Wrapper)</text>
</g>
<!-- rd_conv -->
<g id="node1" class="node">
<title>rd_conv</title>
<path fill="khaki" stroke="black" d="M368.5,-297.5C368.5,-297.5 265.5,-297.5 265.5,-297.5 259.5,-297.5 253.5,-291.5 253.5,-285.5 253.5,-285.5 253.5,-222.5 253.5,-222.5 253.5,-216.5 259.5,-210.5 265.5,-210.5 265.5,-210.5 368.5,-210.5 368.5,-210.5 374.5,-210.5 380.5,-216.5 380.5,-222.5 380.5,-222.5 380.5,-285.5 380.5,-285.5 380.5,-291.5 374.5,-297.5 368.5,-297.5"/>
<text text-anchor="middle" x="317" y="-285.5" font-family="Arial" font-size="10.00">axi4_to_axil4_rd</text>
<text text-anchor="middle" x="317" y="-262.5" font-family="Arial" font-size="10.00">Burst Decomposition</text>
<text text-anchor="middle" x="317" y="-251.5" font-family="Arial" font-size="10.00">Read Path</text>
<text text-anchor="middle" x="317" y="-228.5" font-family="Arial" font-size="10.00">AR: Splits bursts</text>
<text text-anchor="middle" x="317" y="-217.5" font-family="Arial" font-size="10.00">R: Aggregates responses</text>
</g>
<!-- note -->
<g id="node3" class="node">
<title>note</title>
<polygon fill="lightyellow" stroke="black" points="375,-69.5 253,-69.5 253,-16.5 381,-16.5 381,-63.5 375,-69.5"/>
<polyline fill="none" stroke="black" points="375,-69.5 375,-63.5 "/>
<polyline fill="none" stroke="black" points="381,-63.5 375,-63.5 "/>
<text text-anchor="middle" x="317" y="-57.5" font-family="Arial" font-size="10.00">No Logic in Wrapper</text>
<text text-anchor="middle" x="317" y="-34.5" font-family="Arial" font-size="10.00">Pure Instantiation Pattern</text>
<text text-anchor="middle" x="317" y="-23.5" font-family="Arial" font-size="10.00">Single Source of Truth</text>
</g>
<!-- rd_conv&#45;&gt;note -->
<g id="edge5" class="edge">
<title>rd_conv&#45;&gt;note</title>
<path fill="none" stroke="black" stroke-dasharray="1,5" d="M253.42,-236.07C228.76,-227.53 200.98,-215.88 178,-201 173.25,-197.92 171.16,-197.23 169,-192 161.6,-174.14 161.6,-122.86 169,-105 181.27,-75.39 212.4,-59.87 242.96,-51.76"/>
<polygon fill="black" stroke="black" points="243.94,-55.12 252.84,-49.38 242.3,-48.32 243.94,-55.12"/>
</g>
<!-- axil4_master -->
<g id="node5" class="node">
<title>axil4_master</title>
<path fill="lightcoral" stroke="black" d="M354,-504.5C354,-504.5 280,-504.5 280,-504.5 274,-504.5 268,-498.5 268,-492.5 268,-492.5 268,-441.5 268,-441.5 268,-435.5 274,-429.5 280,-429.5 280,-429.5 354,-429.5 354,-429.5 360,-429.5 366,-435.5 366,-441.5 366,-441.5 366,-492.5 366,-492.5 366,-498.5 360,-504.5 354,-504.5"/>
<text text-anchor="middle" x="317" y="-492.5" font-family="Arial" font-size="10.00">AXI4&#45;Lite Master</text>
<text text-anchor="middle" x="317" y="-481.5" font-family="Arial" font-size="10.00">Interface</text>
<text text-anchor="middle" x="317" y="-458.5" font-family="Arial" font-size="10.00">• Single transfers</text>
<text text-anchor="middle" x="317" y="-447.5" font-family="Arial" font-size="10.00">• No ID/LEN/SIZE</text>
<text text-anchor="middle" x="317" y="-436.5" font-family="Arial" font-size="10.00">• Simple protocol</text>
</g>
<!-- rd_conv&#45;&gt;axil4_master -->
<g id="edge3" class="edge">
<title>rd_conv&#45;&gt;axil4_master</title>
<path fill="none" stroke="black" d="M253.33,-267.89C195,-284.35 120.47,-316.87 140,-373 156.9,-421.58 213.3,-445.4 257.95,-456.85"/>
<polygon fill="black" stroke="black" points="257.31,-460.3 267.85,-459.24 258.95,-453.49 257.31,-460.3"/>
<text text-anchor="middle" x="139" y="-365.8" font-family="Arial" font-size="9.00">AR (single)</text>
<text text-anchor="middle" x="139" y="-355.8" font-family="Arial" font-size="9.00">R (each beat)</text>
</g>
<!-- wr_conv -->
<g id="node2" class="node">
<title>wr_conv</title>
<path fill="khaki" stroke="black" d="M368,-192.5C368,-192.5 266,-192.5 266,-192.5 260,-192.5 254,-186.5 254,-180.5 254,-180.5 254,-117.5 254,-117.5 254,-111.5 260,-105.5 266,-105.5 266,-105.5 368,-105.5 368,-105.5 374,-105.5 380,-111.5 380,-117.5 380,-117.5 380,-180.5 380,-180.5 380,-186.5 374,-192.5 368,-192.5"/>
<text text-anchor="middle" x="317" y="-180.5" font-family="Arial" font-size="10.00">axi4_to_axil4_wr</text>
<text text-anchor="middle" x="317" y="-157.5" font-family="Arial" font-size="10.00">Burst Decomposition</text>
<text text-anchor="middle" x="317" y="-146.5" font-family="Arial" font-size="10.00">Write Path</text>
<text text-anchor="middle" x="317" y="-123.5" font-family="Arial" font-size="10.00">AW/W: Splits bursts</text>
<text text-anchor="middle" x="317" y="-112.5" font-family="Arial" font-size="10.00">B: Aggregates responses</text>
</g>
<!-- wr_conv&#45;&gt;note -->
<g id="edge6" class="edge">
<title>wr_conv&#45;&gt;note</title>
<path fill="none" stroke="black" stroke-dasharray="1,5" d="M317,-105.21C317,-96.66 317,-88.1 317,-79.54"/>
<polygon fill="black" stroke="black" points="320.5,-79.5 317,-69.5 313.5,-79.5 320.5,-79.5"/>
</g>
<!-- wr_conv&#45;&gt;axil4_master -->
<g id="edge4" class="edge">
<title>wr_conv&#45;&gt;axil4_master</title>
<path fill="none" stroke="black" d="M253.83,-159.04C210.53,-169.85 157.37,-192 137,-237 124.5,-264.61 100.77,-337.78 178,-421 198.56,-443.15 230,-454.65 257.79,-460.61"/>
<polygon fill="black" stroke="black" points="257.35,-464.09 267.83,-462.57 258.69,-457.22 257.35,-464.09"/>
<text text-anchor="middle" x="139" y="-249.8" font-family="Arial" font-size="9.00">AW/W (single)</text>
<text text-anchor="middle" x="139" y="-239.8" font-family="Arial" font-size="9.00">B (aggregated)</text>
</g>
<!-- axi4_slave -->
<g id="node4" class="node">
<title>axi4_slave</title>
<path fill="lightblue" stroke="black" d="M360,-411.5C360,-411.5 274,-411.5 274,-411.5 268,-411.5 262,-405.5 262,-399.5 262,-399.5 262,-348.5 262,-348.5 262,-342.5 268,-336.5 274,-336.5 274,-336.5 360,-336.5 360,-336.5 366,-336.5 372,-342.5 372,-348.5 372,-348.5 372,-399.5 372,-399.5 372,-405.5 366,-411.5 360,-411.5"/>
<text text-anchor="middle" x="317" y="-399.5" font-family="Arial" font-size="10.00">AXI4 Slave</text>
<text text-anchor="middle" x="317" y="-388.5" font-family="Arial" font-size="10.00">Interface</text>
<text text-anchor="middle" x="317" y="-365.5" font-family="Arial" font-size="10.00">• ID, LEN, SIZE</text>
<text text-anchor="middle" x="317" y="-354.5" font-family="Arial" font-size="10.00">• BURST support</text>
<text text-anchor="middle" x="317" y="-343.5" font-family="Arial" font-size="10.00">• Multiple outstanding</text>
</g>
<!-- axi4_slave&#45;&gt;rd_conv -->
<g id="edge1" class="edge">
<title>axi4_slave&#45;&gt;rd_conv</title>
<path fill="none" stroke="black" d="M317,-336.12C317,-327.14 317,-317.41 317,-307.88"/>
<polygon fill="black" stroke="black" points="320.5,-307.66 317,-297.66 313.5,-307.66 320.5,-307.66"/>
<text text-anchor="middle" x="304" y="-319.8" font-family="Arial" font-size="9.00">AR (burst)</text>
<text text-anchor="middle" x="304" y="-309.8" font-family="Arial" font-size="9.00">R (simple)</text>
</g>
<!-- axi4_slave&#45;&gt;wr_conv -->
<g id="edge2" class="edge">
<title>axi4_slave&#45;&gt;wr_conv</title>
<path fill="none" stroke="black" d="M261.77,-368.85C217.69,-361.26 160.25,-342.47 141,-296 123.66,-254.14 144.39,-231.39 178,-201 196.48,-184.29 220.82,-172.78 243.97,-164.94"/>
<polygon fill="black" stroke="black" points="245.34,-168.17 253.8,-161.79 243.21,-161.51 245.34,-168.17"/>
<text text-anchor="middle" x="139" y="-288.8" font-family="Arial" font-size="9.00">AW/W (burst)</text>
<text text-anchor="middle" x="139" y="-278.8" font-family="Arial" font-size="9.00">B (simple)</text>
</g>
</g>
</svg>
