<?xml version="1.0" encoding="UTF-8" standalone="no"?>
<!DOCTYPE svg PUBLIC "-//W3C//DTD SVG 1.1//EN"
 "http://www.w3.org/Graphics/SVG/1.1/DTD/svg11.dtd">
<!-- Generated by graphviz version 2.43.0 (0)
 -->
<!-- Title: axi_data_dnsize_single Pages: 1 -->
<svg width="1238pt" height="907pt"
 viewBox="0.00 0.00 1238.00 907.00" xmlns="http://www.w3.org/2000/svg" xmlns:xlink="http://www.w3.org/1999/xlink">
<g id="graph0" class="graph" transform="scale(1 1) rotate(0) translate(4 903)">
<title>axi_data_dnsize_single</title>
<polygon fill="white" stroke="transparent" points="-4,4 -4,-903 1234,-903 1234,4 -4,4"/>
<text text-anchor="middle" x="615" y="-887" font-family="Arial" font-size="10.00">axi_data_dnsize &#45; Wide→Narrow Splitter (Single Buffer)</text>
<text text-anchor="middle" x="615" y="-876" font-family="Arial" font-size="10.00">512→128 Example (4:1 ratio)</text>
<g id="clust1" class="cluster">
<title>cluster_params</title>
<polygon fill="lightyellow" stroke="black" points="64,-8 64,-231 243,-231 243,-8 64,-8"/>
<text text-anchor="middle" x="153.5" y="-219" font-family="Arial" font-size="10.00">Parameters</text>
</g>
<g id="clust2" class="cluster">
<title>cluster_input</title>
<polygon fill="lightblue" stroke="black" points="8,-254 8,-338 299,-338 299,-254 8,-254"/>
<text text-anchor="middle" x="153.5" y="-326" font-family="Arial" font-size="10.00">Wide Input Interface</text>
<text text-anchor="middle" x="153.5" y="-315" font-family="Arial" font-size="10.00">(512&#45;bit beats)</text>
</g>
<g id="clust3" class="cluster">
<title>cluster_buffer</title>
<polygon fill="lightgray" stroke="black" points="415,-215 415,-594 789,-594 789,-215 415,-215"/>
<text text-anchor="middle" x="602" y="-582" font-family="Arial" font-size="10.00">Single Buffer Logic</text>
</g>
<g id="clust4" class="cluster">
<title>cluster_output</title>
<polygon fill="lightcoral" stroke="black" points="914,-389 914,-473 1222,-473 1222,-389 914,-389"/>
<text text-anchor="middle" x="1068" y="-461" font-family="Arial" font-size="10.00">Narrow Output Interface</text>
<text text-anchor="middle" x="1068" y="-450" font-family="Arial" font-size="10.00">(128&#45;bit beats)</text>
</g>
<g id="clust5" class="cluster">
<title>cluster_legend</title>
<polygon fill="white" stroke="black" points="66,-770 66,-861 241,-861 241,-770 66,-770"/>
<text text-anchor="middle" x="153.5" y="-849" font-family="Arial" font-size="10.00">Signal Types</text>
</g>
<!-- params -->
<g id="node1" class="node">
<title>params</title>
<polygon fill="lightyellow" stroke="black" points="229,-204 72,-204 72,-16 235,-16 235,-198 229,-204"/>
<polyline fill="none" stroke="black" points="229,-204 229,-198 "/>
<polyline fill="none" stroke="black" points="235,-198 229,-198 "/>
<polygon fill="none" stroke="black" points="80.5,-180 80.5,-200 227.5,-200 227.5,-180 80.5,-180"/>
<text text-anchor="start" x="125" y="-188.8" font-family="Arial" font-weight="bold" font-size="9.00">Configuration</text>
<polygon fill="none" stroke="black" points="80.5,-160 80.5,-180 184.5,-180 184.5,-160 80.5,-160"/>
<text text-anchor="start" x="85.5" y="-167.8" font-family="Arial" font-size="9.00">WIDE_WIDTH</text>
<polygon fill="none" stroke="black" points="184.5,-160 184.5,-180 227.5,-180 227.5,-160 184.5,-160"/>
<text text-anchor="start" x="206.5" y="-167.8" font-family="Arial" font-size="9.00">512</text>
<polygon fill="none" stroke="black" points="80.5,-140 80.5,-160 184.5,-160 184.5,-140 80.5,-140"/>
<text text-anchor="start" x="85.5" y="-147.8" font-family="Arial" font-size="9.00">NARROW_WIDTH</text>
<polygon fill="none" stroke="black" points="184.5,-140 184.5,-160 227.5,-160 227.5,-140 184.5,-140"/>
<text text-anchor="start" x="206.5" y="-147.8" font-family="Arial" font-size="9.00">128</text>
<polygon fill="none" stroke="black" points="80.5,-120 80.5,-140 184.5,-140 184.5,-120 80.5,-120"/>
<text text-anchor="start" x="85.5" y="-127.8" font-family="Arial" font-size="9.00">RATIO</text>
<polygon fill="none" stroke="black" points="184.5,-120 184.5,-140 227.5,-140 227.5,-120 184.5,-120"/>
<text text-anchor="start" x="209.5" y="-127.8" font-family="Arial" font-size="9.00">4:1</text>
<polygon fill="none" stroke="black" points="80.5,-100 80.5,-120 184.5,-120 184.5,-100 80.5,-100"/>
<text text-anchor="start" x="85.5" y="-107.8" font-family="Arial" font-size="9.00">WIDE_SB_WIDTH</text>
<polygon fill="none" stroke="black" points="184.5,-100 184.5,-120 227.5,-120 227.5,-100 184.5,-100"/>
<text text-anchor="start" x="211.5" y="-107.8" font-family="Arial" font-size="9.00">64</text>
<polygon fill="none" stroke="black" points="80.5,-80 80.5,-100 184.5,-100 184.5,-80 80.5,-80"/>
<text text-anchor="start" x="85.5" y="-87.8" font-family="Arial" font-size="9.00">NARROW_SB_WIDTH</text>
<polygon fill="none" stroke="black" points="184.5,-80 184.5,-100 227.5,-100 227.5,-80 184.5,-80"/>
<text text-anchor="start" x="211.5" y="-87.8" font-family="Arial" font-size="9.00">16</text>
<polygon fill="none" stroke="black" points="80.5,-60 80.5,-80 184.5,-80 184.5,-60 80.5,-60"/>
<text text-anchor="start" x="85.5" y="-67.8" font-family="Arial" font-size="9.00">SB_BROADCAST</text>
<polygon fill="none" stroke="black" points="184.5,-60 184.5,-80 227.5,-80 227.5,-60 184.5,-60"/>
<text text-anchor="start" x="189.5" y="-67.8" font-family="Arial" font-size="9.00">0 (slice)</text>
<polygon fill="none" stroke="black" points="80.5,-40 80.5,-60 184.5,-60 184.5,-40 80.5,-40"/>
<text text-anchor="start" x="85.5" y="-47.8" font-family="Arial" font-size="9.00">DUAL_BUFFER</text>
<polygon fill="none" stroke="black" points="184.5,-40 184.5,-60 227.5,-60 227.5,-40 184.5,-40"/>
<text text-anchor="start" x="216.5" y="-47.8" font-family="Arial" font-size="9.00">0</text>
<polygon fill="orange" stroke="transparent" points="80.5,-20 80.5,-40 227.5,-40 227.5,-20 80.5,-20"/>
<polygon fill="none" stroke="black" points="80.5,-20 80.5,-40 227.5,-40 227.5,-20 80.5,-20"/>
<text text-anchor="start" x="117.5" y="-28.8" font-family="Arial" font-weight="bold" font-size="9.00">Throughput: 80%</text>
</g>
<!-- input -->
<g id="node2" class="node">
<title>input</title>
<polygon fill="lightblue" stroke="black" points="16,-263 16,-299 291,-299 291,-263 16,-263"/>
<text text-anchor="middle" x="46" y="-278.8" font-family="Arial" font-size="9.00">Wide Input</text>
<polyline fill="none" stroke="black" points="76,-263 76,-299 "/>
<text text-anchor="middle" x="96" y="-287.8" font-family="Arial" font-size="9.00">valid</text>
<polyline fill="none" stroke="black" points="76,-281 116,-281 "/>
<text text-anchor="middle" x="96" y="-269.8" font-family="Arial" font-size="9.00">ready</text>
<polyline fill="none" stroke="black" points="116,-263 116,-299 "/>
<text text-anchor="middle" x="148" y="-278.8" font-family="Arial" font-size="9.00">data [511:0]</text>
<polyline fill="none" stroke="black" points="180,-263 180,-299 "/>
<text text-anchor="middle" x="220" y="-278.8" font-family="Arial" font-size="9.00">sideband [63:0]</text>
<polyline fill="none" stroke="black" points="260,-263 260,-299 "/>
<text text-anchor="middle" x="275.5" y="-278.8" font-family="Arial" font-size="9.00">last</text>
</g>
<!-- buffer -->
<g id="node3" class="node">
<title>buffer</title>
<path fill="white" stroke="black" d="M514,-296.55C514,-298.45 493.61,-300 468.5,-300 443.39,-300 423,-298.45 423,-296.55 423,-296.55 423,-265.45 423,-265.45 423,-263.55 443.39,-262 468.5,-262 493.61,-262 514,-263.55 514,-265.45 514,-265.45 514,-296.55 514,-296.55"/>
<path fill="none" stroke="black" d="M514,-296.55C514,-294.64 493.61,-293.09 468.5,-293.09 443.39,-293.09 423,-294.64 423,-296.55"/>
<text text-anchor="middle" x="468.5" y="-283.8" font-family="Arial" font-size="9.00">Single Data Buffer</text>
<text text-anchor="middle" x="468.5" y="-273.8" font-family="Arial" font-size="9.00">512&#45;bit Register</text>
</g>
<!-- input&#45;&gt;buffer -->
<g id="edge6" class="edge">
<title>input&#45;&gt;buffer</title>
<path fill="none" stroke="black" d="M291.21,-281C291.21,-281 412.67,-281 412.67,-281"/>
<polygon fill="black" stroke="black" points="412.67,-284.5 422.67,-281 412.67,-277.5 412.67,-284.5"/>
<text text-anchor="middle" x="357" y="-292.6" font-family="Arial" font-size="8.00"> &#160;wide_valid</text>
<text text-anchor="middle" x="357" y="-283.6" font-family="Arial" font-size="8.00"> &#160;wide_ready</text>
</g>
<!-- mux -->
<g id="node6" class="node">
<title>mux</title>
<polygon fill="white" stroke="black" points="751.47,-309 668.53,-309 639,-253 781,-253 751.47,-309"/>
<text text-anchor="middle" x="710" y="-283.8" font-family="Arial" font-size="9.00">4:1 Mux</text>
<text text-anchor="middle" x="710" y="-273.8" font-family="Arial" font-size="9.00">128&#45;bit slices</text>
</g>
<!-- buffer&#45;&gt;mux -->
<g id="edge1" class="edge">
<title>buffer&#45;&gt;mux</title>
<path fill="none" stroke="black" d="M514.21,-281C514.21,-281 643.42,-281 643.42,-281"/>
<polygon fill="black" stroke="black" points="643.42,-284.5 653.42,-281 643.42,-277.5 643.42,-284.5"/>
<text text-anchor="middle" x="576.5" y="-310.6" font-family="Arial" font-size="8.00"> &#160;[127:0]</text>
<text text-anchor="middle" x="576.5" y="-301.6" font-family="Arial" font-size="8.00"> &#160;[255:128]</text>
<text text-anchor="middle" x="576.5" y="-292.6" font-family="Arial" font-size="8.00"> &#160;[383:256]</text>
<text text-anchor="middle" x="576.5" y="-283.6" font-family="Arial" font-size="8.00"> &#160;[511:384]</text>
</g>
<!-- sb_buffer -->
<g id="node4" class="node">
<title>sb_buffer</title>
<path fill="white" stroke="black" d="M510,-546.55C510,-548.45 491.4,-550 468.5,-550 445.6,-550 427,-548.45 427,-546.55 427,-546.55 427,-515.45 427,-515.45 427,-513.55 445.6,-512 468.5,-512 491.4,-512 510,-513.55 510,-515.45 510,-515.45 510,-546.55 510,-546.55"/>
<path fill="none" stroke="black" d="M510,-546.55C510,-544.64 491.4,-543.09 468.5,-543.09 445.6,-543.09 427,-544.64 427,-546.55"/>
<text text-anchor="middle" x="468.5" y="-533.8" font-family="Arial" font-size="9.00">Sideband Buffer</text>
<text text-anchor="middle" x="468.5" y="-523.8" font-family="Arial" font-size="9.00">64&#45;bit Register</text>
</g>
<!-- sb_mux -->
<g id="node7" class="node">
<title>sb_mux</title>
<polygon fill="white" stroke="black" points="747.96,-537 672.04,-537 645,-481 775,-481 747.96,-537"/>
<text text-anchor="middle" x="710" y="-511.8" font-family="Arial" font-size="9.00">4:1 Mux</text>
<text text-anchor="middle" x="710" y="-501.8" font-family="Arial" font-size="9.00">16&#45;bit slices</text>
</g>
<!-- sb_buffer&#45;&gt;sb_mux -->
<g id="edge2" class="edge">
<title>sb_buffer&#45;&gt;sb_mux</title>
<path fill="none" stroke="blue" stroke-dasharray="5,2" d="M510.02,-524.38C510.02,-524.38 655.76,-524.38 655.76,-524.38"/>
<polygon fill="blue" stroke="blue" points="655.76,-527.88 665.76,-524.38 655.76,-520.88 655.76,-527.88"/>
<text text-anchor="middle" x="576.5" y="-560.6" font-family="Arial" font-size="8.00"> &#160;[15:0]</text>
<text text-anchor="middle" x="576.5" y="-551.6" font-family="Arial" font-size="8.00"> &#160;[31:16]</text>
<text text-anchor="middle" x="576.5" y="-542.6" font-family="Arial" font-size="8.00"> &#160;[47:32]</text>
<text text-anchor="middle" x="576.5" y="-533.6" font-family="Arial" font-size="8.00"> &#160;[63:48]</text>
</g>
<!-- counter -->
<g id="node5" class="node">
<title>counter</title>
<polygon fill="white" stroke="black" points="508,-413 429,-413 429,-377 508,-377 508,-413"/>
<text text-anchor="middle" x="468.5" y="-397.8" font-family="Arial" font-size="9.00">Output Counter</text>
<text text-anchor="middle" x="468.5" y="-387.8" font-family="Arial" font-size="9.00">(0→3)</text>
</g>
<!-- counter&#45;&gt;mux -->
<g id="edge3" class="edge">
<title>counter&#45;&gt;mux</title>
<path fill="none" stroke="black" d="M469,-376.71C469,-350.3 469,-304.62 469,-304.62 469,-304.62 656.08,-304.62 656.08,-304.62"/>
<polygon fill="black" stroke="black" points="656.08,-308.13 666.08,-304.62 656.08,-301.13 656.08,-308.13"/>
<text text-anchor="middle" x="576.5" y="-382.6" font-family="Arial" font-size="8.00">select</text>
</g>
<!-- counter&#45;&gt;sb_mux -->
<g id="edge4" class="edge">
<title>counter&#45;&gt;sb_mux</title>
<path fill="none" stroke="black" stroke-dasharray="5,2" d="M469,-413.28C469,-440.23 469,-487.5 469,-487.5 469,-487.5 637.94,-487.5 637.94,-487.5"/>
<polygon fill="black" stroke="black" points="637.94,-491 647.94,-487.5 637.94,-484 637.94,-491"/>
<text text-anchor="middle" x="576.5" y="-461.6" font-family="Arial" font-size="8.00">select</text>
</g>
<!-- control -->
<g id="node8" class="node">
<title>control</title>
<polygon fill="white" stroke="black" points="710,-423 649,-395 710,-367 771,-395 710,-423"/>
<text text-anchor="middle" x="710" y="-397.8" font-family="Arial" font-size="9.00">Done?</text>
<text text-anchor="middle" x="710" y="-387.8" font-family="Arial" font-size="9.00">(count==3)</text>
</g>
<!-- counter&#45;&gt;control -->
<g id="edge5" class="edge">
<title>counter&#45;&gt;control</title>
<path fill="none" stroke="black" d="M508.11,-395C508.11,-395 638.62,-395 638.62,-395"/>
<polygon fill="black" stroke="black" points="638.62,-398.5 648.62,-395 638.62,-391.5 638.62,-398.5"/>
</g>
<!-- output -->
<g id="node9" class="node">
<title>output</title>
<polygon fill="lightcoral" stroke="black" points="922,-398 922,-434 1214,-434 1214,-398 922,-398"/>
<text text-anchor="middle" x="960" y="-413.8" font-family="Arial" font-size="9.00">Narrow Output</text>
<polyline fill="none" stroke="black" points="998,-398 998,-434 "/>
<text text-anchor="middle" x="1018" y="-422.8" font-family="Arial" font-size="9.00">valid</text>
<polyline fill="none" stroke="black" points="998,-416 1038,-416 "/>
<text text-anchor="middle" x="1018" y="-404.8" font-family="Arial" font-size="9.00">ready</text>
<polyline fill="none" stroke="black" points="1038,-398 1038,-434 "/>
<text text-anchor="middle" x="1070.5" y="-413.8" font-family="Arial" font-size="9.00">data [127:0]</text>
<polyline fill="none" stroke="black" points="1103,-398 1103,-434 "/>
<text text-anchor="middle" x="1143" y="-413.8" font-family="Arial" font-size="9.00">sideband [15:0]</text>
<polyline fill="none" stroke="black" points="1183,-398 1183,-434 "/>
<text text-anchor="middle" x="1198.5" y="-413.8" font-family="Arial" font-size="9.00">last</text>
</g>
<!-- mux&#45;&gt;output -->
<g id="edge7" class="edge">
<title>mux&#45;&gt;output</title>
<path fill="none" stroke="black" d="M766.33,-281C867.15,-281 1068,-281 1068,-281 1068,-281 1068,-387.79 1068,-387.79"/>
<polygon fill="black" stroke="black" points="1064.5,-387.79 1068,-397.79 1071.5,-387.79 1064.5,-387.79"/>
<text text-anchor="middle" x="851.5" y="-379.6" font-family="Arial" font-size="8.00"> &#160;narrow_valid</text>
<text text-anchor="middle" x="851.5" y="-370.6" font-family="Arial" font-size="8.00"> &#160;narrow_ready</text>
</g>
<!-- sb_mux&#45;&gt;output -->
<g id="edge8" class="edge">
<title>sb_mux&#45;&gt;output</title>
<path fill="none" stroke="blue" stroke-dasharray="5,2" d="M710,-480.93C710,-457.79 710,-428.75 710,-428.75 710,-428.75 911.87,-428.75 911.87,-428.75"/>
<polygon fill="blue" stroke="blue" points="911.87,-432.25 921.87,-428.75 911.87,-425.25 911.87,-432.25"/>
</g>
<!-- timing -->
<g id="node10" class="node">
<title>timing</title>
<polygon fill="lightyellow" stroke="black" points="247,-436 54,-436 54,-358 253,-358 253,-430 247,-436"/>
<polyline fill="none" stroke="black" points="247,-436 247,-430 "/>
<polyline fill="none" stroke="black" points="253,-430 247,-430 "/>
<text text-anchor="start" x="64.5" y="-423.8" font-family="Arial" font-weight="bold" font-size="9.00">Timing (1&#45;cycle gap):</text>
<text text-anchor="start" x="68" y="-408.8" font-family="Arial" font-size="9.00">Cycle:</text>
<text text-anchor="start" x="104" y="-408.8" font-family="Arial" font-size="9.00">1</text>
<text text-anchor="start" x="119" y="-408.8" font-family="Arial" font-size="9.00">2</text>
<text text-anchor="start" x="134" y="-408.8" font-family="Arial" font-size="9.00">3</text>
<text text-anchor="start" x="149" y="-408.8" font-family="Arial" font-size="9.00">4</text>
<text text-anchor="start" x="169.5" y="-408.8" font-family="Arial" font-size="9.00">5</text>
<text text-anchor="start" x="190" y="-408.8" font-family="Arial" font-size="9.00">6</text>
<text text-anchor="start" x="205" y="-408.8" font-family="Arial" font-size="9.00">7</text>
<text text-anchor="start" x="220" y="-408.8" font-family="Arial" font-size="9.00">8</text>
<text text-anchor="start" x="235" y="-408.8" font-family="Arial" font-size="9.00">9</text>
<text text-anchor="start" x="69" y="-394.8" font-family="Arial" font-size="9.00">Wide:</text>
<polygon fill="lightblue" stroke="transparent" points="99.5,-390 99.5,-404 159.5,-404 159.5,-390 99.5,-390"/>
<text text-anchor="start" x="112.5" y="-394.8" font-family="Arial" font-size="9.00">BEAT_0</text>
<polygon fill="orange" stroke="transparent" points="159.5,-390 159.5,-404 185.5,-404 185.5,-390 159.5,-390"/>
<text text-anchor="start" x="161.5" y="-394.8" font-family="Arial" font-size="9.00">WAIT</text>
<polygon fill="lightblue" stroke="transparent" points="185.5,-390 185.5,-404 245.5,-404 245.5,-390 185.5,-390"/>
<text text-anchor="start" x="198.5" y="-394.8" font-family="Arial" font-size="9.00">BEAT_1</text>
<text text-anchor="start" x="64.5" y="-380.8" font-family="Arial" font-size="9.00">Narrow:</text>
<polygon fill="lightcoral" stroke="transparent" points="99.5,-376 99.5,-390 114.5,-390 114.5,-376 99.5,-376"/>
<text text-anchor="start" x="101.5" y="-380.8" font-family="Arial" font-size="9.00">n0</text>
<polygon fill="lightcoral" stroke="transparent" points="114.5,-376 114.5,-390 129.5,-390 129.5,-376 114.5,-376"/>
<text text-anchor="start" x="116.5" y="-380.8" font-family="Arial" font-size="9.00">n1</text>
<polygon fill="lightcoral" stroke="transparent" points="129.5,-376 129.5,-390 144.5,-390 144.5,-376 129.5,-376"/>
<text text-anchor="start" x="131.5" y="-380.8" font-family="Arial" font-size="9.00">n2</text>
<polygon fill="lightcoral" stroke="transparent" points="144.5,-376 144.5,-390 159.5,-390 159.5,-376 144.5,-376"/>
<text text-anchor="start" x="146.5" y="-380.8" font-family="Arial" font-size="9.00">n3</text>
<polygon fill="orange" stroke="transparent" points="159.5,-376 159.5,-390 185.5,-390 185.5,-376 159.5,-376"/>
<text text-anchor="start" x="162" y="-380.8" font-family="Arial" font-size="9.00">IDLE</text>
<polygon fill="lightcoral" stroke="transparent" points="185.5,-376 185.5,-390 200.5,-390 200.5,-376 185.5,-376"/>
<text text-anchor="start" x="187.5" y="-380.8" font-family="Arial" font-size="9.00">n0</text>
<polygon fill="lightcoral" stroke="transparent" points="200.5,-376 200.5,-390 215.5,-390 215.5,-376 200.5,-376"/>
<text text-anchor="start" x="202.5" y="-380.8" font-family="Arial" font-size="9.00">n1</text>
<polygon fill="lightcoral" stroke="transparent" points="215.5,-376 215.5,-390 230.5,-390 230.5,-376 215.5,-376"/>
<text text-anchor="start" x="217.5" y="-380.8" font-family="Arial" font-size="9.00">n2</text>
<polygon fill="lightcoral" stroke="transparent" points="230.5,-376 230.5,-390 245.5,-390 245.5,-376 230.5,-376"/>
<text text-anchor="start" x="232.5" y="-380.8" font-family="Arial" font-size="9.00">n3</text>
<text text-anchor="start" x="64.5" y="-366.8" font-family="Arial" font-size="9.00">80% efficiency: 8 beats / 10 cycles</text>
</g>
<!-- note1 -->
<g id="node11" class="node">
<title>note1</title>
<polygon fill="lightyellow" stroke="black" points="195,-530 106,-530 106,-494 201,-494 201,-524 195,-530"/>
<polyline fill="none" stroke="black" points="195,-530 195,-524 "/>
<polyline fill="none" stroke="black" points="201,-524 195,-524 "/>
<text text-anchor="middle" x="153.5" y="-514.8" font-family="Arial" font-size="9.00">Splits 1 wide beat</text>
<text text-anchor="middle" x="153.5" y="-504.8" font-family="Arial" font-size="9.00">into 4 narrow beats</text>
</g>
<!-- note2 -->
<g id="node12" class="node">
<title>note2</title>
<polygon fill="orange" stroke="black" points="198,-626 103,-626 103,-588 204,-588 204,-620 198,-626"/>
<polyline fill="none" stroke="black" points="198,-626 198,-620 "/>
<polyline fill="none" stroke="black" points="204,-620 198,-620 "/>
<text text-anchor="middle" x="153.5" y="-614.8" font-family="Arial" font-size="9.00">80% throughput:</text>
<text text-anchor="middle" x="153.5" y="-604.8" font-family="Arial" font-size="9.00">1&#45;cycle gap between</text>
<text text-anchor="middle" x="153.5" y="-594.8" font-family="Arial" font-size="9.00">wide beats</text>
</g>
<!-- note3 -->
<g id="node13" class="node">
<title>note3</title>
<polygon fill="lightcyan" stroke="black" points="220.5,-720 80.5,-720 80.5,-684 226.5,-684 226.5,-714 220.5,-720"/>
<polyline fill="none" stroke="black" points="220.5,-720 220.5,-714 "/>
<polyline fill="none" stroke="black" points="226.5,-714 220.5,-714 "/>
<text text-anchor="middle" x="153.5" y="-704.8" font-family="Arial" font-size="9.00">SB_BROADCAST=0: Slice</text>
<text text-anchor="middle" x="153.5" y="-694.8" font-family="Arial" font-size="9.00">SB_BROADCAST=1: Broadcast</text>
</g>
<!-- legend -->
<g id="node14" class="node">
<title>legend</title>
<polygon fill="lightgrey" stroke="transparent" points="233,-834 74,-834 74,-778 233,-778 233,-834"/>
<polygon fill="none" stroke="black" points="82.5,-814 82.5,-830 104.5,-830 104.5,-814 82.5,-814"/>
<text text-anchor="start" x="85.5" y="-819.8" font-family="Arial" font-size="9.00">━━━</text>
<polygon fill="none" stroke="black" points="104.5,-814 104.5,-830 225.5,-830 225.5,-814 104.5,-814"/>
<text text-anchor="start" x="107.5" y="-819.8" font-family="Arial" font-size="9.00">Data path</text>
<polygon fill="none" stroke="black" points="82.5,-798 82.5,-814 104.5,-814 104.5,-798 82.5,-798"/>
<text text-anchor="start" x="85.5" y="-803.8" font-family="Arial" font-size="9.00">┄┄┄</text>
<polygon fill="none" stroke="black" points="104.5,-798 104.5,-814 225.5,-814 225.5,-798 104.5,-798"/>
<text text-anchor="start" x="107.5" y="-803.8" font-family="Arial" font-size="9.00">Sideband (WSTRB/RRESP)</text>
<polygon fill="orange" stroke="transparent" points="82.5,-782 82.5,-798 104.5,-798 104.5,-782 82.5,-782"/>
<polygon fill="none" stroke="black" points="82.5,-782 82.5,-798 104.5,-798 104.5,-782 82.5,-782"/>
<text text-anchor="start" x="90" y="-787.8" font-family="Arial" font-size="9.00">█</text>
<polygon fill="none" stroke="black" points="104.5,-782 104.5,-798 225.5,-798 225.5,-782 104.5,-782"/>
<text text-anchor="start" x="107.5" y="-787.8" font-family="Arial" font-size="9.00">Idle/Wait cycle</text>
</g>
</g>
</svg>
