<?xml version="1.0" encoding="UTF-8" standalone="no"?>
<!DOCTYPE svg PUBLIC "-//W3C//DTD SVG 1.1//EN"
 "http://www.w3.org/Graphics/SVG/1.1/DTD/svg11.dtd">
<!-- Generated by graphviz version 2.43.0 (0)
 -->
<!-- Title: axi_data_dnsize_dual Pages: 1 -->
<svg width="1741pt" height="1096pt"
 viewBox="0.00 0.00 1741.00 1096.00" xmlns="http://www.w3.org/2000/svg" xmlns:xlink="http://www.w3.org/1999/xlink">
<g id="graph0" class="graph" transform="scale(1 1) rotate(0) translate(4 1092)">
<title>axi_data_dnsize_dual</title>
<polygon fill="white" stroke="transparent" points="-4,4 -4,-1092 1737,-1092 1737,4 -4,4"/>
<text text-anchor="middle" x="866.5" y="-1076" font-family="Arial" font-size="10.00">axi_data_dnsize &#45; Wide→Narrow Splitter (Dual Buffer)</text>
<text text-anchor="middle" x="866.5" y="-1065" font-family="Arial" font-size="10.00">512→128 Example (4:1 ratio)</text>
<g id="clust1" class="cluster">
<title>cluster_params</title>
<polygon fill="lightyellow" stroke="black" points="64,-32 64,-255 243,-255 243,-32 64,-32"/>
<text text-anchor="middle" x="153.5" y="-243" font-family="Arial" font-size="10.00">Parameters</text>
</g>
<g id="clust2" class="cluster">
<title>cluster_input</title>
<polygon fill="lightblue" stroke="black" points="8,-397 8,-481 299,-481 299,-397 8,-397"/>
<text text-anchor="middle" x="153.5" y="-469" font-family="Arial" font-size="10.00">Wide Input Interface</text>
<text text-anchor="middle" x="153.5" y="-458" font-family="Arial" font-size="10.00">(512&#45;bit beats)</text>
</g>
<g id="clust3" class="cluster">
<title>cluster_buffers</title>
<polygon fill="lightgray" stroke="black" points="437,-8 437,-575 1270,-575 1270,-8 437,-8"/>
<text text-anchor="middle" x="853.5" y="-563" font-family="Arial" font-size="10.00">Dual Buffer Ping&#45;Pong Architecture</text>
</g>
<g id="clust4" class="cluster">
<title>cluster_output</title>
<polygon fill="lightcoral" stroke="black" points="1417,-255 1417,-339 1725,-339 1725,-255 1417,-255"/>
<text text-anchor="middle" x="1571" y="-327" font-family="Arial" font-size="10.00">Narrow Output Interface</text>
<text text-anchor="middle" x="1571" y="-316" font-family="Arial" font-size="10.00">(128&#45;bit beats)</text>
</g>
<g id="clust5" class="cluster">
<title>cluster_legend</title>
<polygon fill="white" stroke="black" points="66,-943 66,-1050 241,-1050 241,-943 66,-943"/>
<text text-anchor="middle" x="153.5" y="-1038" font-family="Arial" font-size="10.00">Signal Types &amp; Buffers</text>
</g>
<!-- params -->
<g id="node1" class="node">
<title>params</title>
<polygon fill="lightyellow" stroke="black" points="229,-228 72,-228 72,-40 235,-40 235,-222 229,-228"/>
<polyline fill="none" stroke="black" points="229,-228 229,-222 "/>
<polyline fill="none" stroke="black" points="235,-222 229,-222 "/>
<polygon fill="none" stroke="black" points="80.5,-204 80.5,-224 227.5,-224 227.5,-204 80.5,-204"/>
<text text-anchor="start" x="125" y="-212.8" font-family="Arial" font-weight="bold" font-size="9.00">Configuration</text>
<polygon fill="none" stroke="black" points="80.5,-184 80.5,-204 184.5,-204 184.5,-184 80.5,-184"/>
<text text-anchor="start" x="85.5" y="-191.8" font-family="Arial" font-size="9.00">WIDE_WIDTH</text>
<polygon fill="none" stroke="black" points="184.5,-184 184.5,-204 227.5,-204 227.5,-184 184.5,-184"/>
<text text-anchor="start" x="206.5" y="-191.8" font-family="Arial" font-size="9.00">512</text>
<polygon fill="none" stroke="black" points="80.5,-164 80.5,-184 184.5,-184 184.5,-164 80.5,-164"/>
<text text-anchor="start" x="85.5" y="-171.8" font-family="Arial" font-size="9.00">NARROW_WIDTH</text>
<polygon fill="none" stroke="black" points="184.5,-164 184.5,-184 227.5,-184 227.5,-164 184.5,-164"/>
<text text-anchor="start" x="206.5" y="-171.8" font-family="Arial" font-size="9.00">128</text>
<polygon fill="none" stroke="black" points="80.5,-144 80.5,-164 184.5,-164 184.5,-144 80.5,-144"/>
<text text-anchor="start" x="85.5" y="-151.8" font-family="Arial" font-size="9.00">RATIO</text>
<polygon fill="none" stroke="black" points="184.5,-144 184.5,-164 227.5,-164 227.5,-144 184.5,-144"/>
<text text-anchor="start" x="209.5" y="-151.8" font-family="Arial" font-size="9.00">4:1</text>
<polygon fill="none" stroke="black" points="80.5,-124 80.5,-144 184.5,-144 184.5,-124 80.5,-124"/>
<text text-anchor="start" x="85.5" y="-131.8" font-family="Arial" font-size="9.00">WIDE_SB_WIDTH</text>
<polygon fill="none" stroke="black" points="184.5,-124 184.5,-144 227.5,-144 227.5,-124 184.5,-124"/>
<text text-anchor="start" x="211.5" y="-131.8" font-family="Arial" font-size="9.00">64</text>
<polygon fill="none" stroke="black" points="80.5,-104 80.5,-124 184.5,-124 184.5,-104 80.5,-104"/>
<text text-anchor="start" x="85.5" y="-111.8" font-family="Arial" font-size="9.00">NARROW_SB_WIDTH</text>
<polygon fill="none" stroke="black" points="184.5,-104 184.5,-124 227.5,-124 227.5,-104 184.5,-104"/>
<text text-anchor="start" x="211.5" y="-111.8" font-family="Arial" font-size="9.00">16</text>
<polygon fill="none" stroke="black" points="80.5,-84 80.5,-104 184.5,-104 184.5,-84 80.5,-84"/>
<text text-anchor="start" x="85.5" y="-91.8" font-family="Arial" font-size="9.00">SB_BROADCAST</text>
<polygon fill="none" stroke="black" points="184.5,-84 184.5,-104 227.5,-104 227.5,-84 184.5,-84"/>
<text text-anchor="start" x="189.5" y="-91.8" font-family="Arial" font-size="9.00">0 (slice)</text>
<polygon fill="none" stroke="black" points="80.5,-64 80.5,-84 184.5,-84 184.5,-64 80.5,-64"/>
<text text-anchor="start" x="85.5" y="-71.8" font-family="Arial" font-size="9.00">DUAL_BUFFER</text>
<polygon fill="none" stroke="black" points="184.5,-64 184.5,-84 227.5,-84 227.5,-64 184.5,-64"/>
<text text-anchor="start" x="216.5" y="-71.8" font-family="Arial" font-size="9.00">1</text>
<polygon fill="lightgreen" stroke="transparent" points="80.5,-44 80.5,-64 227.5,-64 227.5,-44 80.5,-44"/>
<polygon fill="none" stroke="black" points="80.5,-44 80.5,-64 227.5,-64 227.5,-44 80.5,-44"/>
<text text-anchor="start" x="114.5" y="-52.8" font-family="Arial" font-weight="bold" font-size="9.00">Throughput: 100%</text>
</g>
<!-- input -->
<g id="node2" class="node">
<title>input</title>
<polygon fill="lightblue" stroke="black" points="16,-406 16,-442 291,-442 291,-406 16,-406"/>
<text text-anchor="middle" x="46" y="-421.8" font-family="Arial" font-size="9.00">Wide Input</text>
<polyline fill="none" stroke="black" points="76,-406 76,-442 "/>
<text text-anchor="middle" x="96" y="-430.8" font-family="Arial" font-size="9.00">valid</text>
<polyline fill="none" stroke="black" points="76,-424 116,-424 "/>
<text text-anchor="middle" x="96" y="-412.8" font-family="Arial" font-size="9.00">ready</text>
<polyline fill="none" stroke="black" points="116,-406 116,-442 "/>
<text text-anchor="middle" x="148" y="-421.8" font-family="Arial" font-size="9.00">data [511:0]</text>
<polyline fill="none" stroke="black" points="180,-406 180,-442 "/>
<text text-anchor="middle" x="220" y="-421.8" font-family="Arial" font-size="9.00">sideband [63:0]</text>
<polyline fill="none" stroke="black" points="260,-406 260,-442 "/>
<text text-anchor="middle" x="275.5" y="-421.8" font-family="Arial" font-size="9.00">last</text>
</g>
<!-- wr_sel -->
<g id="node13" class="node">
<title>wr_sel</title>
<polygon fill="white" stroke="black" points="487,-462 445,-424 487,-386 529,-424 487,-462"/>
<text text-anchor="middle" x="487" y="-431.8" font-family="Arial" font-size="9.00">Write</text>
<text text-anchor="middle" x="487" y="-421.8" font-family="Arial" font-size="9.00">Buffer</text>
<text text-anchor="middle" x="487" y="-411.8" font-family="Arial" font-size="9.00">Select</text>
</g>
<!-- input&#45;&gt;wr_sel -->
<g id="edge15" class="edge">
<title>input&#45;&gt;wr_sel</title>
<path fill="none" stroke="black" d="M291.07,-424C291.07,-424 434.79,-424 434.79,-424"/>
<polygon fill="black" stroke="black" points="434.79,-427.5 444.79,-424 434.79,-420.5 434.79,-427.5"/>
<text text-anchor="middle" x="368" y="-435.6" font-family="Arial" font-size="8.00"> &#160;wide_valid</text>
<text text-anchor="middle" x="368" y="-426.6" font-family="Arial" font-size="8.00"> &#160;wide_ready</text>
</g>
<!-- buffer0 -->
<g id="node3" class="node">
<title>buffer0</title>
<path fill="lightgreen" stroke="black" d="M760,-536.55C760,-538.45 741.62,-540 719,-540 696.38,-540 678,-538.45 678,-536.55 678,-536.55 678,-505.45 678,-505.45 678,-503.55 696.38,-502 719,-502 741.62,-502 760,-503.55 760,-505.45 760,-505.45 760,-536.55 760,-536.55"/>
<path fill="none" stroke="black" d="M760,-536.55C760,-534.64 741.62,-533.09 719,-533.09 696.38,-533.09 678,-534.64 678,-536.55"/>
<text text-anchor="middle" x="719" y="-523.8" font-family="Arial" font-size="9.00">Buffer 0</text>
<text text-anchor="middle" x="719" y="-513.8" font-family="Arial" font-size="9.00">512&#45;bit Register</text>
</g>
<!-- mux0 -->
<g id="node5" class="node">
<title>mux0</title>
<polygon fill="lightgreen" stroke="black" points="984.94,-548 937.06,-548 920,-492 1002,-492 984.94,-548"/>
<text text-anchor="middle" x="961" y="-522.8" font-family="Arial" font-size="9.00">Mux 0</text>
<text text-anchor="middle" x="961" y="-512.8" font-family="Arial" font-size="9.00">4:1</text>
</g>
<!-- buffer0&#45;&gt;mux0 -->
<g id="edge1" class="edge">
<title>buffer0&#45;&gt;mux0</title>
<path fill="none" stroke="black" d="M760.05,-521C760.05,-521 918.67,-521 918.67,-521"/>
<polygon fill="black" stroke="black" points="918.67,-524.5 928.67,-521 918.67,-517.5 918.67,-524.5"/>
<text text-anchor="middle" x="832.5" y="-524.6" font-family="Arial" font-size="8.00">data slices</text>
</g>
<!-- sb_buffer0 -->
<g id="node4" class="node">
<title>sb_buffer0</title>
<path fill="lightgreen" stroke="black" d="M750,-242.55C750,-244.45 736.11,-246 719,-246 701.89,-246 688,-244.45 688,-242.55 688,-242.55 688,-211.45 688,-211.45 688,-209.55 701.89,-208 719,-208 736.11,-208 750,-209.55 750,-211.45 750,-211.45 750,-242.55 750,-242.55"/>
<path fill="none" stroke="black" d="M750,-242.55C750,-240.64 736.11,-239.09 719,-239.09 701.89,-239.09 688,-240.64 688,-242.55"/>
<text text-anchor="middle" x="719" y="-229.8" font-family="Arial" font-size="9.00">SB Buffer 0</text>
<text text-anchor="middle" x="719" y="-219.8" font-family="Arial" font-size="9.00">64&#45;bit</text>
</g>
<!-- sb_mux0 -->
<g id="node6" class="node">
<title>sb_mux0</title>
<polygon fill="lightgreen" stroke="black" points="993.7,-186 928.3,-186 905,-130 1017,-130 993.7,-186"/>
<text text-anchor="middle" x="961" y="-160.8" font-family="Arial" font-size="9.00">SB Mux 0</text>
<text text-anchor="middle" x="961" y="-150.8" font-family="Arial" font-size="9.00">4:1</text>
</g>
<!-- sb_buffer0&#45;&gt;sb_mux0 -->
<g id="edge3" class="edge">
<title>sb_buffer0&#45;&gt;sb_mux0</title>
<path fill="none" stroke="blue" stroke-dasharray="5,2" d="M750.11,-225.88C804.23,-225.88 910,-225.88 910,-225.88 910,-225.88 910,-168.05 910,-168.05"/>
<polygon fill="blue" stroke="blue" points="913.5,-168.05 910,-158.05 906.5,-168.05 913.5,-168.05"/>
</g>
<!-- out_mux -->
<g id="node15" class="node">
<title>out_mux</title>
<polygon fill="white" stroke="black" points="1232.62,-409 1175.38,-409 1155,-353 1253,-353 1232.62,-409"/>
<text text-anchor="middle" x="1204" y="-383.8" font-family="Arial" font-size="9.00">Output</text>
<text text-anchor="middle" x="1204" y="-373.8" font-family="Arial" font-size="9.00">2:1 Mux</text>
</g>
<!-- mux0&#45;&gt;out_mux -->
<g id="edge9" class="edge">
<title>mux0&#45;&gt;out_mux</title>
<path fill="none" stroke="black" d="M993.52,-520C1059.74,-520 1204,-520 1204,-520 1204,-520 1204,-419.13 1204,-419.13"/>
<polygon fill="black" stroke="black" points="1207.5,-419.13 1204,-409.13 1200.5,-419.13 1207.5,-419.13"/>
</g>
<!-- sb_out_mux -->
<g id="node16" class="node">
<title>sb_out_mux</title>
<polygon fill="white" stroke="black" points="1237.87,-205 1170.13,-205 1146,-149 1262,-149 1237.87,-205"/>
<text text-anchor="middle" x="1204" y="-179.8" font-family="Arial" font-size="9.00">SB Output</text>
<text text-anchor="middle" x="1204" y="-169.8" font-family="Arial" font-size="9.00">2:1 Mux</text>
</g>
<!-- sb_mux0&#45;&gt;sb_out_mux -->
<g id="edge11" class="edge">
<title>sb_mux0&#45;&gt;sb_out_mux</title>
<path fill="none" stroke="blue" stroke-dasharray="5,2" d="M1001.67,-167.5C1001.67,-167.5 1143.93,-167.5 1143.93,-167.5"/>
<polygon fill="blue" stroke="blue" points="1143.93,-171 1153.93,-167.5 1143.93,-164 1143.93,-171"/>
</g>
<!-- counter0 -->
<g id="node7" class="node">
<title>counter0</title>
<polygon fill="lightgreen" stroke="black" points="747.5,-443 690.5,-443 690.5,-407 747.5,-407 747.5,-443"/>
<text text-anchor="middle" x="719" y="-427.8" font-family="Arial" font-size="9.00">Counter 0</text>
<text text-anchor="middle" x="719" y="-417.8" font-family="Arial" font-size="9.00">(0→3)</text>
</g>
<!-- counter0&#45;&gt;mux0 -->
<g id="edge5" class="edge">
<title>counter0&#45;&gt;mux0</title>
<path fill="none" stroke="black" d="M719,-443.04C719,-464.22 719,-496.5 719,-496.5 719,-496.5 911.31,-496.5 911.31,-496.5"/>
<polygon fill="black" stroke="black" points="911.31,-500 921.31,-496.5 911.31,-493 911.31,-500"/>
<text text-anchor="middle" x="832.5" y="-452.6" font-family="Arial" font-size="8.00">select</text>
</g>
<!-- counter0&#45;&gt;sb_mux0 -->
<g id="edge7" class="edge">
<title>counter0&#45;&gt;sb_mux0</title>
<path fill="none" stroke="black" stroke-dasharray="5,2" d="M747.5,-420.5C801.86,-420.5 915,-420.5 915,-420.5 915,-420.5 915,-168.05 915,-168.05"/>
<polygon fill="black" stroke="black" points="918.5,-168.05 915,-158.05 911.5,-168.05 918.5,-168.05"/>
<text text-anchor="middle" x="832.5" y="-380.6" font-family="Arial" font-size="8.00">select</text>
</g>
<!-- buffer1 -->
<g id="node8" class="node">
<title>buffer1</title>
<path fill="lightcyan" stroke="black" d="M760,-343.55C760,-345.45 741.62,-347 719,-347 696.38,-347 678,-345.45 678,-343.55 678,-343.55 678,-312.45 678,-312.45 678,-310.55 696.38,-309 719,-309 741.62,-309 760,-310.55 760,-312.45 760,-312.45 760,-343.55 760,-343.55"/>
<path fill="none" stroke="black" d="M760,-343.55C760,-341.64 741.62,-340.09 719,-340.09 696.38,-340.09 678,-341.64 678,-343.55"/>
<text text-anchor="middle" x="719" y="-330.8" font-family="Arial" font-size="9.00">Buffer 1</text>
<text text-anchor="middle" x="719" y="-320.8" font-family="Arial" font-size="9.00">512&#45;bit Register</text>
</g>
<!-- mux1 -->
<g id="node10" class="node">
<title>mux1</title>
<polygon fill="lightcyan" stroke="black" points="984.94,-434 937.06,-434 920,-378 1002,-378 984.94,-434"/>
<text text-anchor="middle" x="961" y="-408.8" font-family="Arial" font-size="9.00">Mux 1</text>
<text text-anchor="middle" x="961" y="-398.8" font-family="Arial" font-size="9.00">4:1</text>
</g>
<!-- buffer1&#45;&gt;mux1 -->
<g id="edge2" class="edge">
<title>buffer1&#45;&gt;mux1</title>
<path fill="none" stroke="black" d="M754,-346.12C754,-362.26 754,-383.33 754,-383.33 754,-383.33 911.58,-383.33 911.58,-383.33"/>
<polygon fill="black" stroke="black" points="911.58,-386.83 921.58,-383.33 911.58,-379.83 911.58,-386.83"/>
<text text-anchor="middle" x="832.5" y="-308.6" font-family="Arial" font-size="8.00">data slices</text>
</g>
<!-- sb_buffer1 -->
<g id="node9" class="node">
<title>sb_buffer1</title>
<path fill="lightcyan" stroke="black" d="M750,-52.55C750,-54.45 736.11,-56 719,-56 701.89,-56 688,-54.45 688,-52.55 688,-52.55 688,-21.45 688,-21.45 688,-19.55 701.89,-18 719,-18 736.11,-18 750,-19.55 750,-21.45 750,-21.45 750,-52.55 750,-52.55"/>
<path fill="none" stroke="black" d="M750,-52.55C750,-50.64 736.11,-49.09 719,-49.09 701.89,-49.09 688,-50.64 688,-52.55"/>
<text text-anchor="middle" x="719" y="-39.8" font-family="Arial" font-size="9.00">SB Buffer 1</text>
<text text-anchor="middle" x="719" y="-29.8" font-family="Arial" font-size="9.00">64&#45;bit</text>
</g>
<!-- sb_mux1 -->
<g id="node11" class="node">
<title>sb_mux1</title>
<polygon fill="lightcyan" stroke="black" points="993.7,-72 928.3,-72 905,-16 1017,-16 993.7,-72"/>
<text text-anchor="middle" x="961" y="-46.8" font-family="Arial" font-size="9.00">SB Mux 1</text>
<text text-anchor="middle" x="961" y="-36.8" font-family="Arial" font-size="9.00">4:1</text>
</g>
<!-- sb_buffer1&#45;&gt;sb_mux1 -->
<g id="edge4" class="edge">
<title>sb_buffer1&#45;&gt;sb_mux1</title>
<path fill="none" stroke="blue" stroke-dasharray="5,2" d="M750.14,-37C750.14,-37 903.32,-37 903.32,-37"/>
<polygon fill="blue" stroke="blue" points="903.32,-40.5 913.32,-37 903.32,-33.5 903.32,-40.5"/>
</g>
<!-- mux1&#45;&gt;out_mux -->
<g id="edge10" class="edge">
<title>mux1&#45;&gt;out_mux</title>
<path fill="none" stroke="black" d="M997.38,-393.5C997.38,-393.5 1159.73,-393.5 1159.73,-393.5"/>
<polygon fill="black" stroke="black" points="1159.73,-397 1169.73,-393.5 1159.73,-390 1159.73,-397"/>
</g>
<!-- sb_mux1&#45;&gt;sb_out_mux -->
<g id="edge12" class="edge">
<title>sb_mux1&#45;&gt;sb_out_mux</title>
<path fill="none" stroke="blue" stroke-dasharray="5,2" d="M1005.57,-44C1075.72,-44 1204,-44 1204,-44 1204,-44 1204,-138.79 1204,-138.79"/>
<polygon fill="blue" stroke="blue" points="1200.5,-138.79 1204,-148.79 1207.5,-138.79 1200.5,-138.79"/>
</g>
<!-- counter1 -->
<g id="node12" class="node">
<title>counter1</title>
<polygon fill="lightcyan" stroke="black" points="747.5,-150 690.5,-150 690.5,-114 747.5,-114 747.5,-150"/>
<text text-anchor="middle" x="719" y="-134.8" font-family="Arial" font-size="9.00">Counter 1</text>
<text text-anchor="middle" x="719" y="-124.8" font-family="Arial" font-size="9.00">(0→3)</text>
</g>
<!-- counter1&#45;&gt;mux1 -->
<g id="edge6" class="edge">
<title>counter1&#45;&gt;mux1</title>
<path fill="none" stroke="black" d="M747.77,-140C781.54,-140 833,-140 833,-140 833,-140 833,-380.67 833,-380.67 833,-380.67 910.5,-380.67 910.5,-380.67"/>
<polygon fill="black" stroke="black" points="910.5,-384.17 920.5,-380.67 910.5,-377.17 910.5,-384.17"/>
<text text-anchor="middle" x="832.5" y="-231.6" font-family="Arial" font-size="8.00">select</text>
</g>
<!-- counter1&#45;&gt;sb_mux1 -->
<g id="edge8" class="edge">
<title>counter1&#45;&gt;sb_mux1</title>
<path fill="none" stroke="black" stroke-dasharray="5,2" d="M719,-113.81C719,-93.71 719,-64.12 719,-64.12 719,-64.12 914.77,-64.12 914.77,-64.12"/>
<polygon fill="black" stroke="black" points="914.77,-67.63 924.77,-64.12 914.77,-60.63 914.77,-67.63"/>
<text text-anchor="middle" x="832.5" y="-121.6" font-family="Arial" font-size="8.00">select</text>
</g>
<!-- wr_sel&#45;&gt;buffer0 -->
<g id="edge16" class="edge">
<title>wr_sel&#45;&gt;buffer0</title>
<path fill="none" stroke="black" d="M497.54,-452.5C538.25,-452.5 683,-452.5 683,-452.5 683,-452.5 683,-493 683,-493"/>
<polygon fill="black" stroke="black" points="679.5,-493 683,-503 686.5,-493 679.5,-493"/>
<text text-anchor="middle" x="603.5" y="-492.6" font-family="Arial" font-size="8.00">write BUF0</text>
</g>
<!-- wr_sel&#45;&gt;buffer1 -->
<g id="edge17" class="edge">
<title>wr_sel&#45;&gt;buffer1</title>
<path fill="none" stroke="black" d="M498.62,-396.5C541.3,-396.5 687,-396.5 687,-396.5 687,-396.5 687,-356.36 687,-356.36"/>
<polygon fill="black" stroke="black" points="690.5,-356.36 687,-346.36 683.5,-356.36 690.5,-356.36"/>
<text text-anchor="middle" x="603.5" y="-361.6" font-family="Arial" font-size="8.00">write BUF1</text>
</g>
<!-- rd_sel -->
<g id="node14" class="node">
<title>rd_sel</title>
<polygon fill="white" stroke="black" points="961,-320 919,-282 961,-244 1003,-282 961,-320"/>
<text text-anchor="middle" x="961" y="-289.8" font-family="Arial" font-size="9.00">Read</text>
<text text-anchor="middle" x="961" y="-279.8" font-family="Arial" font-size="9.00">Buffer</text>
<text text-anchor="middle" x="961" y="-269.8" font-family="Arial" font-size="9.00">Select</text>
</g>
<!-- rd_sel&#45;&gt;out_mux -->
<g id="edge13" class="edge">
<title>rd_sel&#45;&gt;out_mux</title>
<path fill="none" stroke="black" d="M961,-320.33C961,-342.28 961,-365.5 961,-365.5 961,-365.5 1149.43,-365.5 1149.43,-365.5"/>
<polygon fill="black" stroke="black" points="1149.43,-369 1159.43,-365.5 1149.43,-362 1149.43,-369"/>
<text text-anchor="middle" x="1081.5" y="-367.6" font-family="Arial" font-size="8.00">select</text>
</g>
<!-- rd_sel&#45;&gt;sb_out_mux -->
<g id="edge14" class="edge">
<title>rd_sel&#45;&gt;sb_out_mux</title>
<path fill="none" stroke="black" stroke-dasharray="5,2" d="M972.04,-253.75C1012.59,-253.75 1151,-253.75 1151,-253.75 1151,-253.75 1151,-187.06 1151,-187.06"/>
<polygon fill="black" stroke="black" points="1154.5,-187.06 1151,-177.06 1147.5,-187.06 1154.5,-187.06"/>
<text text-anchor="middle" x="1081.5" y="-262.6" font-family="Arial" font-size="8.00">select</text>
</g>
<!-- output -->
<g id="node17" class="node">
<title>output</title>
<polygon fill="lightcoral" stroke="black" points="1425,-264 1425,-300 1717,-300 1717,-264 1425,-264"/>
<text text-anchor="middle" x="1463" y="-279.8" font-family="Arial" font-size="9.00">Narrow Output</text>
<polyline fill="none" stroke="black" points="1501,-264 1501,-300 "/>
<text text-anchor="middle" x="1521" y="-288.8" font-family="Arial" font-size="9.00">valid</text>
<polyline fill="none" stroke="black" points="1501,-282 1541,-282 "/>
<text text-anchor="middle" x="1521" y="-270.8" font-family="Arial" font-size="9.00">ready</text>
<polyline fill="none" stroke="black" points="1541,-264 1541,-300 "/>
<text text-anchor="middle" x="1573.5" y="-279.8" font-family="Arial" font-size="9.00">data [127:0]</text>
<polyline fill="none" stroke="black" points="1606,-264 1606,-300 "/>
<text text-anchor="middle" x="1646" y="-279.8" font-family="Arial" font-size="9.00">sideband [15:0]</text>
<polyline fill="none" stroke="black" points="1686,-264 1686,-300 "/>
<text text-anchor="middle" x="1701.5" y="-279.8" font-family="Arial" font-size="9.00">last</text>
</g>
<!-- out_mux&#45;&gt;output -->
<g id="edge18" class="edge">
<title>out_mux&#45;&gt;output</title>
<path fill="none" stroke="black" d="M1204,-352.9C1204,-325.57 1204,-288.17 1204,-288.17 1204,-288.17 1414.9,-288.17 1414.9,-288.17"/>
<polygon fill="black" stroke="black" points="1414.9,-291.67 1424.9,-288.17 1414.9,-284.67 1414.9,-291.67"/>
<text text-anchor="middle" x="1343.5" y="-352.6" font-family="Arial" font-size="8.00"> &#160;narrow_valid</text>
<text text-anchor="middle" x="1343.5" y="-343.6" font-family="Arial" font-size="8.00"> &#160;narrow_ready</text>
</g>
<!-- sb_out_mux&#45;&gt;output -->
<g id="edge19" class="edge">
<title>sb_out_mux&#45;&gt;output</title>
<path fill="none" stroke="blue" stroke-dasharray="5,2" d="M1258,-177.07C1258,-180.06 1258,-275.83 1258,-275.83 1258,-275.83 1414.58,-275.83 1414.58,-275.83"/>
<polygon fill="blue" stroke="blue" points="1414.58,-279.33 1424.58,-275.83 1414.58,-272.33 1414.58,-279.33"/>
</g>
<!-- timing -->
<g id="node18" class="node">
<title>timing</title>
<polygon fill="lightyellow" stroke="black" points="255.5,-607 45.5,-607 45.5,-501 261.5,-501 261.5,-601 255.5,-607"/>
<polyline fill="none" stroke="black" points="255.5,-607 255.5,-601 "/>
<polyline fill="none" stroke="black" points="261.5,-601 255.5,-601 "/>
<text text-anchor="start" x="55.5" y="-594.8" font-family="Arial" font-weight="bold" font-size="9.00">Timing (No gaps &#45; continuous):</text>
<text text-anchor="start" x="61.5" y="-579.8" font-family="Arial" font-size="9.00">Cycle:</text>
<text text-anchor="start" x="100" y="-579.8" font-family="Arial" font-size="9.00">1</text>
<text text-anchor="start" x="115" y="-579.8" font-family="Arial" font-size="9.00">2</text>
<text text-anchor="start" x="130" y="-579.8" font-family="Arial" font-size="9.00">3</text>
<text text-anchor="start" x="145" y="-579.8" font-family="Arial" font-size="9.00">4</text>
<text text-anchor="start" x="160" y="-579.8" font-family="Arial" font-size="9.00">5</text>
<text text-anchor="start" x="175" y="-579.8" font-family="Arial" font-size="9.00">6</text>
<text text-anchor="start" x="190" y="-579.8" font-family="Arial" font-size="9.00">7</text>
<text text-anchor="start" x="205" y="-579.8" font-family="Arial" font-size="9.00">8</text>
<text text-anchor="start" x="231.5" y="-579.8" font-family="Arial" font-size="9.00">9</text>
<text text-anchor="start" x="62.5" y="-565.8" font-family="Arial" font-size="9.00">Wide:</text>
<polygon fill="lightblue" stroke="transparent" points="95.5,-561 95.5,-575 155.5,-575 155.5,-561 95.5,-561"/>
<text text-anchor="start" x="108.5" y="-565.8" font-family="Arial" font-size="9.00">BEAT_0</text>
<polygon fill="lightblue" stroke="transparent" points="155.5,-561 155.5,-575 215.5,-575 215.5,-561 155.5,-561"/>
<text text-anchor="start" x="168.5" y="-565.8" font-family="Arial" font-size="9.00">BEAT_1</text>
<polygon fill="lightblue" stroke="transparent" points="215.5,-561 215.5,-575 253.5,-575 253.5,-561 215.5,-561"/>
<text text-anchor="start" x="217.5" y="-565.8" font-family="Arial" font-size="9.00">BEAT_2</text>
<text text-anchor="start" x="58" y="-551.8" font-family="Arial" font-size="9.00">Narrow:</text>
<polygon fill="lightcoral" stroke="transparent" points="95.5,-547 95.5,-561 110.5,-561 110.5,-547 95.5,-547"/>
<text text-anchor="start" x="97.5" y="-551.8" font-family="Arial" font-size="9.00">n0</text>
<polygon fill="lightcoral" stroke="transparent" points="110.5,-547 110.5,-561 125.5,-561 125.5,-547 110.5,-547"/>
<text text-anchor="start" x="112.5" y="-551.8" font-family="Arial" font-size="9.00">n1</text>
<polygon fill="lightcoral" stroke="transparent" points="125.5,-547 125.5,-561 140.5,-561 140.5,-547 125.5,-547"/>
<text text-anchor="start" x="127.5" y="-551.8" font-family="Arial" font-size="9.00">n2</text>
<polygon fill="lightcoral" stroke="transparent" points="140.5,-547 140.5,-561 155.5,-561 155.5,-547 140.5,-547"/>
<text text-anchor="start" x="142.5" y="-551.8" font-family="Arial" font-size="9.00">n3</text>
<polygon fill="lightcoral" stroke="transparent" points="155.5,-547 155.5,-561 170.5,-561 170.5,-547 155.5,-547"/>
<text text-anchor="start" x="157.5" y="-551.8" font-family="Arial" font-size="9.00">n0</text>
<polygon fill="lightcoral" stroke="transparent" points="170.5,-547 170.5,-561 185.5,-561 185.5,-547 170.5,-547"/>
<text text-anchor="start" x="172.5" y="-551.8" font-family="Arial" font-size="9.00">n1</text>
<polygon fill="lightcoral" stroke="transparent" points="185.5,-547 185.5,-561 200.5,-561 200.5,-547 185.5,-547"/>
<text text-anchor="start" x="187.5" y="-551.8" font-family="Arial" font-size="9.00">n2</text>
<polygon fill="lightcoral" stroke="transparent" points="200.5,-547 200.5,-561 215.5,-561 215.5,-547 200.5,-547"/>
<text text-anchor="start" x="202.5" y="-551.8" font-family="Arial" font-size="9.00">n3</text>
<polygon fill="lightcoral" stroke="transparent" points="215.5,-547 215.5,-561 253.5,-561 253.5,-547 215.5,-547"/>
<text text-anchor="start" x="229" y="-551.8" font-family="Arial" font-size="9.00">n0</text>
<text text-anchor="start" x="55.5" y="-537.8" font-family="Arial" font-size="9.00">Reading:</text>
<polygon fill="lightgreen" stroke="transparent" points="95.5,-533 95.5,-547 155.5,-547 155.5,-533 95.5,-533"/>
<text text-anchor="start" x="113.5" y="-537.8" font-family="Arial" font-size="9.00">BUF0</text>
<polygon fill="lightcyan" stroke="transparent" points="155.5,-533 155.5,-547 215.5,-547 215.5,-533 155.5,-533"/>
<text text-anchor="start" x="173.5" y="-537.8" font-family="Arial" font-size="9.00">BUF1</text>
<polygon fill="lightgreen" stroke="transparent" points="215.5,-533 215.5,-547 253.5,-547 253.5,-533 215.5,-533"/>
<text text-anchor="start" x="222.5" y="-537.8" font-family="Arial" font-size="9.00">BUF0</text>
<text text-anchor="start" x="59" y="-523.8" font-family="Arial" font-size="9.00">Writing:</text>
<polygon fill="lightcyan" stroke="transparent" points="95.5,-519 95.5,-533 155.5,-533 155.5,-519 95.5,-519"/>
<text text-anchor="start" x="113.5" y="-523.8" font-family="Arial" font-size="9.00">BUF1</text>
<polygon fill="lightgreen" stroke="transparent" points="155.5,-519 155.5,-533 215.5,-533 215.5,-519 155.5,-519"/>
<text text-anchor="start" x="173.5" y="-523.8" font-family="Arial" font-size="9.00">BUF0</text>
<polygon fill="lightcyan" stroke="transparent" points="215.5,-519 215.5,-533 253.5,-533 253.5,-519 215.5,-519"/>
<text text-anchor="start" x="222.5" y="-523.8" font-family="Arial" font-size="9.00">BUF1</text>
<text text-anchor="start" x="55.5" y="-509.8" font-family="Arial" font-size="9.00">100% efficiency: 9 beats / 9 cycles</text>
</g>
<!-- note1 -->
<g id="node19" class="node">
<title>note1</title>
<polygon fill="lightyellow" stroke="black" points="193.5,-703 107.5,-703 107.5,-665 199.5,-665 199.5,-697 193.5,-703"/>
<polyline fill="none" stroke="black" points="193.5,-703 193.5,-697 "/>
<polyline fill="none" stroke="black" points="199.5,-697 193.5,-697 "/>
<text text-anchor="middle" x="153.5" y="-691.8" font-family="Arial" font-size="9.00">Ping&#45;pong buffers:</text>
<text text-anchor="middle" x="153.5" y="-681.8" font-family="Arial" font-size="9.00">One writes while</text>
<text text-anchor="middle" x="153.5" y="-671.8" font-family="Arial" font-size="9.00">other reads</text>
</g>
<!-- note2 -->
<g id="node20" class="node">
<title>note2</title>
<polygon fill="lightgreen" stroke="black" points="192,-797 109,-797 109,-761 198,-761 198,-791 192,-797"/>
<polyline fill="none" stroke="black" points="192,-797 192,-791 "/>
<polyline fill="none" stroke="black" points="198,-791 192,-791 "/>
<text text-anchor="middle" x="153.5" y="-781.8" font-family="Arial" font-size="9.00">100% throughput:</text>
<text text-anchor="middle" x="153.5" y="-771.8" font-family="Arial" font-size="9.00">No idle cycles</text>
</g>
<!-- note3 -->
<g id="node21" class="node">
<title>note3</title>
<polygon fill="orange" stroke="black" points="185,-893 116,-893 116,-855 191,-855 191,-887 185,-893"/>
<polyline fill="none" stroke="black" points="185,-893 185,-887 "/>
<polyline fill="none" stroke="black" points="191,-887 185,-887 "/>
<text text-anchor="middle" x="153.5" y="-881.8" font-family="Arial" font-size="9.00">Area cost: 2×</text>
<text text-anchor="middle" x="153.5" y="-871.8" font-family="Arial" font-size="9.00">(dual buffers +</text>
<text text-anchor="middle" x="153.5" y="-861.8" font-family="Arial" font-size="9.00">control logic)</text>
</g>
<!-- legend -->
<g id="node22" class="node">
<title>legend</title>
<polygon fill="lightgrey" stroke="transparent" points="233,-1023 74,-1023 74,-951 233,-951 233,-1023"/>
<polygon fill="none" stroke="black" points="82.5,-1003 82.5,-1019 104.5,-1019 104.5,-1003 82.5,-1003"/>
<text text-anchor="start" x="85.5" y="-1008.8" font-family="Arial" font-size="9.00">━━━</text>
<polygon fill="none" stroke="black" points="104.5,-1003 104.5,-1019 225.5,-1019 225.5,-1003 104.5,-1003"/>
<text text-anchor="start" x="107.5" y="-1008.8" font-family="Arial" font-size="9.00">Data path</text>
<polygon fill="none" stroke="black" points="82.5,-987 82.5,-1003 104.5,-1003 104.5,-987 82.5,-987"/>
<text text-anchor="start" x="85.5" y="-992.8" font-family="Arial" font-size="9.00">┄┄┄</text>
<polygon fill="none" stroke="black" points="104.5,-987 104.5,-1003 225.5,-1003 225.5,-987 104.5,-987"/>
<text text-anchor="start" x="107.5" y="-992.8" font-family="Arial" font-size="9.00">Sideband (WSTRB/RRESP)</text>
<polygon fill="lightgreen" stroke="transparent" points="82.5,-971 82.5,-987 104.5,-987 104.5,-971 82.5,-971"/>
<polygon fill="none" stroke="black" points="82.5,-971 82.5,-987 104.5,-987 104.5,-971 82.5,-971"/>
<text text-anchor="start" x="90" y="-976.8" font-family="Arial" font-size="9.00">█</text>
<polygon fill="none" stroke="black" points="104.5,-971 104.5,-987 225.5,-987 225.5,-971 104.5,-971"/>
<text text-anchor="start" x="107.5" y="-976.8" font-family="Arial" font-size="9.00">Buffer 0 active</text>
<polygon fill="lightcyan" stroke="transparent" points="82.5,-955 82.5,-971 104.5,-971 104.5,-955 82.5,-955"/>
<polygon fill="none" stroke="black" points="82.5,-955 82.5,-971 104.5,-971 104.5,-955 82.5,-955"/>
<text text-anchor="start" x="90" y="-960.8" font-family="Arial" font-size="9.00">█</text>
<polygon fill="none" stroke="black" points="104.5,-955 104.5,-971 225.5,-971 225.5,-955 104.5,-955"/>
<text text-anchor="start" x="107.5" y="-960.8" font-family="Arial" font-size="9.00">Buffer 1 active</text>
</g>
</g>
</svg>
