<?xml version="1.0" encoding="UTF-8" standalone="no"?>
<!DOCTYPE svg PUBLIC "-//W3C//DTD SVG 1.1//EN"
 "http://www.w3.org/Graphics/SVG/1.1/DTD/svg11.dtd">
<!-- Generated by graphviz version 2.43.0 (0)
 -->
<!-- Title: axi_data_upsize Pages: 1 -->
<svg width="1474pt" height="735pt"
 viewBox="0.00 0.00 1474.00 735.00" xmlns="http://www.w3.org/2000/svg" xmlns:xlink="http://www.w3.org/1999/xlink">
<g id="graph0" class="graph" transform="scale(1 1) rotate(0) translate(4 731)">
<title>axi_data_upsize</title>
<polygon fill="white" stroke="transparent" points="-4,4 -4,-731 1470,-731 1470,4 -4,4"/>
<text text-anchor="middle" x="733" y="-715" font-family="Arial" font-size="10.00">axi_data_upsize &#45; Narrow→Wide Accumulator</text>
<text text-anchor="middle" x="733" y="-704" font-family="Arial" font-size="10.00">128→512 Example (4:1 ratio)</text>
<g id="clust1" class="cluster">
<title>cluster_params</title>
<polygon fill="lightyellow" stroke="black" points="65,-8 65,-211 252,-211 252,-8 65,-8"/>
<text text-anchor="middle" x="158.5" y="-199" font-family="Arial" font-size="10.00">Parameters</text>
</g>
<g id="clust2" class="cluster">
<title>cluster_input</title>
<polygon fill="lightblue" stroke="black" points="8,-234 8,-318 309,-318 309,-234 8,-234"/>
<text text-anchor="middle" x="158.5" y="-306" font-family="Arial" font-size="10.00">Narrow Input Interface</text>
<text text-anchor="middle" x="158.5" y="-295" font-family="Arial" font-size="10.00">(128&#45;bit beats)</text>
</g>
<g id="clust3" class="cluster">
<title>cluster_accumulator</title>
<polygon fill="lightgray" stroke="black" points="434,-286 434,-529 1089,-529 1089,-286 434,-286"/>
<text text-anchor="middle" x="761.5" y="-517" font-family="Arial" font-size="10.00">Accumulation Logic</text>
</g>
<g id="clust4" class="cluster">
<title>cluster_output</title>
<polygon fill="lightcoral" stroke="black" points="1160,-383 1160,-467 1458,-467 1458,-383 1160,-383"/>
<text text-anchor="middle" x="1309" y="-455" font-family="Arial" font-size="10.00">Wide Output Interface</text>
<text text-anchor="middle" x="1309" y="-444" font-family="Arial" font-size="10.00">(512&#45;bit beats)</text>
</g>
<g id="clust5" class="cluster">
<title>cluster_legend</title>
<polygon fill="white" stroke="black" points="71,-614 71,-689 246,-689 246,-614 71,-614"/>
<text text-anchor="middle" x="158.5" y="-677" font-family="Arial" font-size="10.00">Signal Types</text>
</g>
<!-- params -->
<g id="node1" class="node">
<title>params</title>
<polygon fill="lightyellow" stroke="black" points="238,-184 73,-184 73,-16 244,-16 244,-178 238,-184"/>
<polyline fill="none" stroke="black" points="238,-184 238,-178 "/>
<polyline fill="none" stroke="black" points="244,-178 238,-178 "/>
<polygon fill="none" stroke="black" points="81.5,-160 81.5,-180 236.5,-180 236.5,-160 81.5,-160"/>
<text text-anchor="start" x="130" y="-168.8" font-family="Arial" font-weight="bold" font-size="9.00">Configuration</text>
<polygon fill="none" stroke="black" points="81.5,-140 81.5,-160 185.5,-160 185.5,-140 81.5,-140"/>
<text text-anchor="start" x="86.5" y="-147.8" font-family="Arial" font-size="9.00">NARROW_WIDTH</text>
<polygon fill="none" stroke="black" points="185.5,-140 185.5,-160 236.5,-160 236.5,-140 185.5,-140"/>
<text text-anchor="start" x="215.5" y="-147.8" font-family="Arial" font-size="9.00">128</text>
<polygon fill="none" stroke="black" points="81.5,-120 81.5,-140 185.5,-140 185.5,-120 81.5,-120"/>
<text text-anchor="start" x="86.5" y="-127.8" font-family="Arial" font-size="9.00">WIDE_WIDTH</text>
<polygon fill="none" stroke="black" points="185.5,-120 185.5,-140 236.5,-140 236.5,-120 185.5,-120"/>
<text text-anchor="start" x="215.5" y="-127.8" font-family="Arial" font-size="9.00">512</text>
<polygon fill="none" stroke="black" points="81.5,-100 81.5,-120 185.5,-120 185.5,-100 81.5,-100"/>
<text text-anchor="start" x="86.5" y="-107.8" font-family="Arial" font-size="9.00">RATIO</text>
<polygon fill="none" stroke="black" points="185.5,-100 185.5,-120 236.5,-120 236.5,-100 185.5,-100"/>
<text text-anchor="start" x="218.5" y="-107.8" font-family="Arial" font-size="9.00">4:1</text>
<polygon fill="none" stroke="black" points="81.5,-80 81.5,-100 185.5,-100 185.5,-80 81.5,-80"/>
<text text-anchor="start" x="86.5" y="-87.8" font-family="Arial" font-size="9.00">NARROW_SB_WIDTH</text>
<polygon fill="none" stroke="black" points="185.5,-80 185.5,-100 236.5,-100 236.5,-80 185.5,-80"/>
<text text-anchor="start" x="220.5" y="-87.8" font-family="Arial" font-size="9.00">16</text>
<polygon fill="none" stroke="black" points="81.5,-60 81.5,-80 185.5,-80 185.5,-60 81.5,-60"/>
<text text-anchor="start" x="86.5" y="-67.8" font-family="Arial" font-size="9.00">WIDE_SB_WIDTH</text>
<polygon fill="none" stroke="black" points="185.5,-60 185.5,-80 236.5,-80 236.5,-60 185.5,-60"/>
<text text-anchor="start" x="220.5" y="-67.8" font-family="Arial" font-size="9.00">64</text>
<polygon fill="none" stroke="black" points="81.5,-40 81.5,-60 185.5,-60 185.5,-40 81.5,-40"/>
<text text-anchor="start" x="86.5" y="-47.8" font-family="Arial" font-size="9.00">SB_OR_MODE</text>
<polygon fill="none" stroke="black" points="185.5,-40 185.5,-60 236.5,-60 236.5,-40 185.5,-40"/>
<text text-anchor="start" x="190.5" y="-47.8" font-family="Arial" font-size="9.00">0 (concat)</text>
<polygon fill="lightgreen" stroke="transparent" points="81.5,-20 81.5,-40 236.5,-40 236.5,-20 81.5,-20"/>
<polygon fill="none" stroke="black" points="81.5,-20 81.5,-40 236.5,-40 236.5,-20 81.5,-20"/>
<text text-anchor="start" x="119.5" y="-28.8" font-family="Arial" font-weight="bold" font-size="9.00">Throughput: 100%</text>
</g>
<!-- input -->
<g id="node2" class="node">
<title>input</title>
<polygon fill="lightblue" stroke="black" points="16,-243 16,-279 301,-279 301,-243 16,-243"/>
<text text-anchor="middle" x="50.5" y="-258.8" font-family="Arial" font-size="9.00">Narrow Input</text>
<polyline fill="none" stroke="black" points="85,-243 85,-279 "/>
<text text-anchor="middle" x="105" y="-267.8" font-family="Arial" font-size="9.00">valid</text>
<polyline fill="none" stroke="black" points="85,-261 125,-261 "/>
<text text-anchor="middle" x="105" y="-249.8" font-family="Arial" font-size="9.00">ready</text>
<polyline fill="none" stroke="black" points="125,-243 125,-279 "/>
<text text-anchor="middle" x="157.5" y="-258.8" font-family="Arial" font-size="9.00">data [127:0]</text>
<polyline fill="none" stroke="black" points="190,-243 190,-279 "/>
<text text-anchor="middle" x="230" y="-258.8" font-family="Arial" font-size="9.00">sideband [15:0]</text>
<polyline fill="none" stroke="black" points="270,-243 270,-279 "/>
<text text-anchor="middle" x="285.5" y="-258.8" font-family="Arial" font-size="9.00">last</text>
</g>
<!-- counter -->
<g id="node3" class="node">
<title>counter</title>
<polygon fill="white" stroke="black" points="513,-370 442,-370 442,-334 513,-334 513,-370"/>
<text text-anchor="middle" x="477.5" y="-354.8" font-family="Arial" font-size="9.00">Beat Counter</text>
<text text-anchor="middle" x="477.5" y="-344.8" font-family="Arial" font-size="9.00">(0→3)</text>
</g>
<!-- input&#45;&gt;counter -->
<g id="edge4" class="edge">
<title>input&#45;&gt;counter</title>
<path fill="none" stroke="black" d="M259,-279.37C259,-306.48 259,-354 259,-354 259,-354 431.91,-354 431.91,-354"/>
<polygon fill="black" stroke="black" points="431.91,-357.5 441.91,-354 431.91,-350.5 431.91,-357.5"/>
<text text-anchor="middle" x="371.5" y="-333.6" font-family="Arial" font-size="8.00"> &#160;narrow_valid</text>
<text text-anchor="middle" x="371.5" y="-324.6" font-family="Arial" font-size="8.00"> &#160;narrow_ready</text>
</g>
<!-- sb_buffer -->
<g id="node5" class="node">
<title>sb_buffer</title>
<path fill="white" stroke="black" d="M1081,-341.48C1081,-344.11 1062.4,-346.25 1039.5,-346.25 1016.6,-346.25 998,-344.11 998,-341.48 998,-341.48 998,-298.52 998,-298.52 998,-295.89 1016.6,-293.75 1039.5,-293.75 1062.4,-293.75 1081,-295.89 1081,-298.52 1081,-298.52 1081,-341.48 1081,-341.48"/>
<path fill="none" stroke="black" d="M1081,-341.48C1081,-338.84 1062.4,-336.7 1039.5,-336.7 1016.6,-336.7 998,-338.84 998,-341.48"/>
<text text-anchor="middle" x="1039.5" y="-327.8" font-family="Arial" font-size="9.00">Sideband Buffer</text>
<text text-anchor="middle" x="1039.5" y="-317.8" font-family="Arial" font-size="9.00">64&#45;bit</text>
<text text-anchor="middle" x="1039.5" y="-307.8" font-family="Arial" font-size="9.00">Register</text>
</g>
<!-- input&#45;&gt;sb_buffer -->
<g id="edge7" class="edge">
<title>input&#45;&gt;sb_buffer</title>
<path fill="none" stroke="blue" stroke-dasharray="5,2" d="M280,-279.22C280,-294.53 280,-313.94 280,-313.94 280,-313.94 987.86,-313.94 987.86,-313.94"/>
<polygon fill="blue" stroke="blue" points="987.86,-317.44 997.86,-313.94 987.86,-310.44 987.86,-317.44"/>
<text text-anchor="middle" x="661" y="-229.6" font-family="Arial" font-size="8.00"> &#160;strb[15:0] → [15:0]</text>
<text text-anchor="middle" x="661" y="-220.6" font-family="Arial" font-size="8.00"> &#160;strb[15:0] → [31:16]</text>
<text text-anchor="middle" x="661" y="-211.6" font-family="Arial" font-size="8.00"> &#160;strb[15:0] → [47:32]</text>
<text text-anchor="middle" x="661" y="-202.6" font-family="Arial" font-size="8.00"> &#160;strb[15:0] → [63:48]</text>
</g>
<!-- buffer -->
<g id="node4" class="node">
<title>buffer</title>
<path fill="white" stroke="black" d="M911,-460.48C911,-463.11 897.11,-465.25 880,-465.25 862.89,-465.25 849,-463.11 849,-460.48 849,-460.48 849,-417.52 849,-417.52 849,-414.89 862.89,-412.75 880,-412.75 897.11,-412.75 911,-414.89 911,-417.52 911,-417.52 911,-460.48 911,-460.48"/>
<path fill="none" stroke="black" d="M911,-460.48C911,-457.84 897.11,-455.7 880,-455.7 862.89,-455.7 849,-457.84 849,-460.48"/>
<text text-anchor="middle" x="880" y="-446.8" font-family="Arial" font-size="9.00">Data Buffer</text>
<text text-anchor="middle" x="880" y="-436.8" font-family="Arial" font-size="9.00">512&#45;bit</text>
<text text-anchor="middle" x="880" y="-426.8" font-family="Arial" font-size="9.00">Register</text>
</g>
<!-- counter&#45;&gt;buffer -->
<g id="edge5" class="edge">
<title>counter&#45;&gt;buffer</title>
<path fill="none" stroke="black" d="M513.02,-358.06C609.64,-358.06 870,-358.06 870,-358.06 870,-358.06 870,-402.5 870,-402.5"/>
<polygon fill="black" stroke="black" points="866.5,-402.5 870,-412.5 873.5,-402.5 866.5,-402.5"/>
<text text-anchor="middle" x="661" y="-381.6" font-family="Arial" font-size="8.00"> &#160;beat[0] → [127:0]</text>
<text text-anchor="middle" x="661" y="-372.6" font-family="Arial" font-size="8.00"> &#160;beat[1] → [255:128]</text>
<text text-anchor="middle" x="661" y="-363.6" font-family="Arial" font-size="8.00"> &#160;beat[2] → [383:256]</text>
<text text-anchor="middle" x="661" y="-354.6" font-family="Arial" font-size="8.00"> &#160;beat[3] → [511:384]</text>
</g>
<!-- control -->
<g id="node6" class="node">
<title>control</title>
<polygon fill="white" stroke="black" points="661,-502 600,-474 661,-446 722,-474 661,-502"/>
<text text-anchor="middle" x="661" y="-476.8" font-family="Arial" font-size="9.00">Full?</text>
<text text-anchor="middle" x="661" y="-466.8" font-family="Arial" font-size="9.00">(count==3)</text>
</g>
<!-- counter&#45;&gt;control -->
<g id="edge1" class="edge">
<title>counter&#45;&gt;control</title>
<path fill="none" stroke="black" d="M478,-370.46C478,-400.83 478,-458 478,-458 478,-458 624.78,-458 624.78,-458"/>
<polygon fill="black" stroke="black" points="624.78,-461.5 634.78,-458 624.78,-454.5 624.78,-461.5"/>
</g>
<!-- buffer&#45;&gt;sb_buffer -->
<g id="edge3" class="edge">
<title>buffer&#45;&gt;sb_buffer</title>
<path fill="none" stroke="black" stroke-dasharray="5,2" d="M891,-412.75C891,-383.44 891,-340.06 891,-340.06 891,-340.06 987.74,-340.06 987.74,-340.06"/>
<polygon fill="black" stroke="black" points="987.74,-343.56 997.74,-340.06 987.74,-336.56 987.74,-343.56"/>
</g>
<!-- output -->
<g id="node7" class="node">
<title>output</title>
<polygon fill="lightcoral" stroke="black" points="1168,-392 1168,-428 1450,-428 1450,-392 1168,-392"/>
<text text-anchor="middle" x="1201.5" y="-407.8" font-family="Arial" font-size="9.00">Wide Output</text>
<polyline fill="none" stroke="black" points="1235,-392 1235,-428 "/>
<text text-anchor="middle" x="1255" y="-416.8" font-family="Arial" font-size="9.00">valid</text>
<polyline fill="none" stroke="black" points="1235,-410 1275,-410 "/>
<text text-anchor="middle" x="1255" y="-398.8" font-family="Arial" font-size="9.00">ready</text>
<polyline fill="none" stroke="black" points="1275,-392 1275,-428 "/>
<text text-anchor="middle" x="1307" y="-407.8" font-family="Arial" font-size="9.00">data [511:0]</text>
<polyline fill="none" stroke="black" points="1339,-392 1339,-428 "/>
<text text-anchor="middle" x="1379" y="-407.8" font-family="Arial" font-size="9.00">sideband [63:0]</text>
<polyline fill="none" stroke="black" points="1419,-392 1419,-428 "/>
<text text-anchor="middle" x="1434.5" y="-407.8" font-family="Arial" font-size="9.00">last</text>
</g>
<!-- buffer&#45;&gt;output -->
<g id="edge6" class="edge">
<title>buffer&#45;&gt;output</title>
<path fill="none" stroke="black" d="M911.2,-420.69C911.2,-420.69 1157.78,-420.69 1157.78,-420.69"/>
<polygon fill="black" stroke="black" points="1157.78,-424.19 1167.78,-420.69 1157.78,-417.19 1157.78,-424.19"/>
<text text-anchor="middle" x="1039.5" y="-473.6" font-family="Arial" font-size="8.00"> &#160;wide_valid</text>
<text text-anchor="middle" x="1039.5" y="-464.6" font-family="Arial" font-size="8.00"> &#160;wide_ready</text>
</g>
<!-- sb_buffer&#45;&gt;output -->
<g id="edge8" class="edge">
<title>sb_buffer&#45;&gt;output</title>
<path fill="none" stroke="blue" stroke-dasharray="5,2" d="M1040,-346.46C1040,-370.48 1040,-402.19 1040,-402.19 1040,-402.19 1157.8,-402.19 1157.8,-402.19"/>
<polygon fill="blue" stroke="blue" points="1157.8,-405.69 1167.8,-402.19 1157.8,-398.69 1157.8,-405.69"/>
</g>
<!-- control&#45;&gt;buffer -->
<g id="edge2" class="edge">
<title>control&#45;&gt;buffer</title>
<path fill="none" stroke="black" d="M682,-455.56C682,-455.56 838.95,-455.56 838.95,-455.56"/>
<polygon fill="black" stroke="black" points="838.95,-459.06 848.95,-455.56 838.95,-452.06 838.95,-459.06"/>
<text text-anchor="middle" x="785.5" y="-458.6" font-family="Arial" font-size="8.00">accumulate</text>
</g>
<!-- note1 -->
<g id="node8" class="node">
<title>note1</title>
<polygon fill="lightyellow" stroke="black" points="218.5,-374 92.5,-374 92.5,-338 224.5,-338 224.5,-368 218.5,-374"/>
<polyline fill="none" stroke="black" points="218.5,-374 218.5,-368 "/>
<polyline fill="none" stroke="black" points="224.5,-368 218.5,-368 "/>
<text text-anchor="middle" x="158.5" y="-358.8" font-family="Arial" font-size="9.00">Accumulates 4 narrow beats</text>
<text text-anchor="middle" x="158.5" y="-348.8" font-family="Arial" font-size="9.00">into 1 wide beat</text>
</g>
<!-- note2 -->
<g id="node9" class="node">
<title>note2</title>
<polygon fill="lightgreen" stroke="black" points="211.5,-470 99.5,-470 99.5,-432 217.5,-432 217.5,-464 211.5,-470"/>
<polyline fill="none" stroke="black" points="211.5,-470 211.5,-464 "/>
<polyline fill="none" stroke="black" points="217.5,-464 211.5,-464 "/>
<text text-anchor="middle" x="158.5" y="-458.8" font-family="Arial" font-size="9.00">100% throughput:</text>
<text text-anchor="middle" x="158.5" y="-448.8" font-family="Arial" font-size="9.00">Can accept narrow while</text>
<text text-anchor="middle" x="158.5" y="-438.8" font-family="Arial" font-size="9.00">outputting wide</text>
</g>
<!-- note3 -->
<g id="node10" class="node">
<title>note3</title>
<polygon fill="lightcyan" stroke="black" points="226,-564 85,-564 85,-528 232,-528 232,-558 226,-564"/>
<polyline fill="none" stroke="black" points="226,-564 226,-558 "/>
<polyline fill="none" stroke="black" points="232,-558 226,-558 "/>
<text text-anchor="middle" x="158.5" y="-548.8" font-family="Arial" font-size="9.00">SB_OR_MODE=0: Concatenate</text>
<text text-anchor="middle" x="158.5" y="-538.8" font-family="Arial" font-size="9.00">SB_OR_MODE=1: OR together</text>
</g>
<!-- legend -->
<g id="node11" class="node">
<title>legend</title>
<polygon fill="lightgrey" stroke="transparent" points="238,-662 79,-662 79,-622 238,-622 238,-662"/>
<polygon fill="none" stroke="black" points="87.5,-642 87.5,-658 109.5,-658 109.5,-642 87.5,-642"/>
<text text-anchor="start" x="90.5" y="-647.8" font-family="Arial" font-size="9.00">━━━</text>
<polygon fill="none" stroke="black" points="109.5,-642 109.5,-658 230.5,-658 230.5,-642 109.5,-642"/>
<text text-anchor="start" x="112.5" y="-647.8" font-family="Arial" font-size="9.00">Data path</text>
<polygon fill="none" stroke="black" points="87.5,-626 87.5,-642 109.5,-642 109.5,-626 87.5,-626"/>
<text text-anchor="start" x="90.5" y="-631.8" font-family="Arial" font-size="9.00">┄┄┄</text>
<polygon fill="none" stroke="black" points="109.5,-626 109.5,-642 230.5,-642 230.5,-626 109.5,-626"/>
<text text-anchor="start" x="112.5" y="-631.8" font-family="Arial" font-size="9.00">Sideband (WSTRB/RRESP)</text>
</g>
</g>
</svg>
