<?xml version="1.0" encoding="UTF-8" standalone="no"?>
<!DOCTYPE svg PUBLIC "-//W3C//DTD SVG 1.1//EN"
 "http://www.w3.org/Graphics/SVG/1.1/DTD/svg11.dtd">
<!-- Generated by graphviz version 2.43.0 (0)
 -->
<!-- Title: axil4_to_axi4 Pages: 1 -->
<svg width="672pt" height="345pt"
 viewBox="0.00 0.00 672.00 345.00" xmlns="http://www.w3.org/2000/svg" xmlns:xlink="http://www.w3.org/1999/xlink">
<g id="graph0" class="graph" transform="scale(1 1) rotate(0) translate(4 341)">
<title>axil4_to_axi4</title>
<polygon fill="white" stroke="transparent" points="-4,4 -4,-341 668,-341 668,4 -4,4"/>
<g id="clust1" class="cluster">
<title>cluster_wrapper</title>
<polygon fill="none" stroke="black" stroke-dasharray="5,2" points="185,-8 185,-329 464,-329 464,-8 185,-8"/>
<text text-anchor="middle" x="324.5" y="-313.8" font-family="Times,serif" font-size="14.00">axil4_to_axi4 (Composition Wrapper)</text>
</g>
<!-- rd_conv -->
<g id="node1" class="node">
<title>rd_conv</title>
<path fill="khaki" stroke="black" d="M370,-297.5C370,-297.5 279,-297.5 279,-297.5 273,-297.5 267,-291.5 267,-285.5 267,-285.5 267,-222.5 267,-222.5 267,-216.5 273,-210.5 279,-210.5 279,-210.5 370,-210.5 370,-210.5 376,-210.5 382,-216.5 382,-222.5 382,-222.5 382,-285.5 382,-285.5 382,-291.5 376,-297.5 370,-297.5"/>
<text text-anchor="middle" x="324.5" y="-285.5" font-family="Arial" font-size="10.00">axil4_to_axi4_rd</text>
<text text-anchor="middle" x="324.5" y="-262.5" font-family="Arial" font-size="10.00">Protocol Upgrade</text>
<text text-anchor="middle" x="324.5" y="-251.5" font-family="Arial" font-size="10.00">Read Path</text>
<text text-anchor="middle" x="324.5" y="-228.5" font-family="Arial" font-size="10.00">AR: Add ID/LEN/SIZE</text>
<text text-anchor="middle" x="324.5" y="-217.5" font-family="Arial" font-size="10.00">R: Strip LAST</text>
</g>
<!-- note -->
<g id="node3" class="node">
<title>note</title>
<polygon fill="lightyellow" stroke="black" points="379,-69.5 264,-69.5 264,-16.5 385,-16.5 385,-63.5 379,-69.5"/>
<polyline fill="none" stroke="black" points="379,-69.5 379,-63.5 "/>
<polyline fill="none" stroke="black" points="385,-63.5 379,-63.5 "/>
<text text-anchor="middle" x="324.5" y="-57.5" font-family="Arial" font-size="10.00">Zero&#45;Overhead Upgrade</text>
<text text-anchor="middle" x="324.5" y="-34.5" font-family="Arial" font-size="10.00">Combinational Logic</text>
<text text-anchor="middle" x="324.5" y="-23.5" font-family="Arial" font-size="10.00">No FSMs Needed</text>
</g>
<!-- rd_conv&#45;&gt;note -->
<g id="edge5" class="edge">
<title>rd_conv&#45;&gt;note</title>
<path fill="none" stroke="black" stroke-dasharray="1,5" d="M266.83,-251.86C224.3,-246.88 169.07,-232.56 140.5,-193 117.61,-161.29 117.68,-136.77 140.5,-105 166.15,-69.29 213.44,-53.87 253.65,-47.34"/>
<polygon fill="black" stroke="black" points="254.32,-50.78 263.7,-45.86 253.3,-43.85 254.32,-50.78"/>
</g>
<!-- axi4_master -->
<g id="node5" class="node">
<title>axi4_master</title>
<path fill="lightcoral" stroke="black" d="M652,-246.5C652,-246.5 571,-246.5 571,-246.5 565,-246.5 559,-240.5 559,-234.5 559,-234.5 559,-183.5 559,-183.5 559,-177.5 565,-171.5 571,-171.5 571,-171.5 652,-171.5 652,-171.5 658,-171.5 664,-177.5 664,-183.5 664,-183.5 664,-234.5 664,-234.5 664,-240.5 658,-246.5 652,-246.5"/>
<text text-anchor="middle" x="611.5" y="-234.5" font-family="Arial" font-size="10.00">AXI4 Master</text>
<text text-anchor="middle" x="611.5" y="-223.5" font-family="Arial" font-size="10.00">Interface</text>
<text text-anchor="middle" x="611.5" y="-200.5" font-family="Arial" font-size="10.00">• Full protocol</text>
<text text-anchor="middle" x="611.5" y="-189.5" font-family="Arial" font-size="10.00">• Burst capable</text>
<text text-anchor="middle" x="611.5" y="-178.5" font-family="Arial" font-size="10.00">• With ID/LEN/SIZE</text>
</g>
<!-- rd_conv&#45;&gt;axi4_master -->
<g id="edge3" class="edge">
<title>rd_conv&#45;&gt;axi4_master</title>
<path fill="none" stroke="black" d="M382.15,-245.06C430.29,-237.45 499.28,-226.56 548.81,-218.74"/>
<polygon fill="black" stroke="black" points="549.42,-222.19 558.75,-217.17 548.33,-215.27 549.42,-222.19"/>
<text text-anchor="middle" x="507.5" y="-242.8" font-family="Arial" font-size="9.00">AR + defaults</text>
<text text-anchor="middle" x="507.5" y="-232.8" font-family="Arial" font-size="9.00">R + LAST=1</text>
</g>
<!-- wr_conv -->
<g id="node2" class="node">
<title>wr_conv</title>
<path fill="khaki" stroke="black" d="M378,-192.5C378,-192.5 271,-192.5 271,-192.5 265,-192.5 259,-186.5 259,-180.5 259,-180.5 259,-117.5 259,-117.5 259,-111.5 265,-105.5 271,-105.5 271,-105.5 378,-105.5 378,-105.5 384,-105.5 390,-111.5 390,-117.5 390,-117.5 390,-180.5 390,-180.5 390,-186.5 384,-192.5 378,-192.5"/>
<text text-anchor="middle" x="324.5" y="-180.5" font-family="Arial" font-size="10.00">axil4_to_axi4_wr</text>
<text text-anchor="middle" x="324.5" y="-157.5" font-family="Arial" font-size="10.00">Protocol Upgrade</text>
<text text-anchor="middle" x="324.5" y="-146.5" font-family="Arial" font-size="10.00">Write Path</text>
<text text-anchor="middle" x="324.5" y="-123.5" font-family="Arial" font-size="10.00">AW/W: Add ID/LEN/LAST</text>
<text text-anchor="middle" x="324.5" y="-112.5" font-family="Arial" font-size="10.00">B: Strip ID</text>
</g>
<!-- wr_conv&#45;&gt;note -->
<g id="edge6" class="edge">
<title>wr_conv&#45;&gt;note</title>
<path fill="none" stroke="black" stroke-dasharray="1,5" d="M324.5,-105.21C324.5,-96.66 324.5,-88.1 324.5,-79.54"/>
<polygon fill="black" stroke="black" points="328,-79.5 324.5,-69.5 321,-79.5 328,-79.5"/>
</g>
<!-- wr_conv&#45;&gt;axi4_master -->
<g id="edge4" class="edge">
<title>wr_conv&#45;&gt;axi4_master</title>
<path fill="none" stroke="black" d="M390.17,-162.61C437.76,-172.63 502.04,-186.17 548.89,-196.03"/>
<polygon fill="black" stroke="black" points="548.4,-199.5 558.91,-198.14 549.84,-192.65 548.4,-199.5"/>
<text text-anchor="middle" x="507.5" y="-204.8" font-family="Arial" font-size="9.00">AW/W + defaults</text>
<text text-anchor="middle" x="507.5" y="-194.8" font-family="Arial" font-size="9.00">B + ID</text>
</g>
<!-- axil4_slave -->
<g id="node4" class="node">
<title>axil4_slave</title>
<path fill="lightblue" stroke="black" d="M84,-238.5C84,-238.5 12,-238.5 12,-238.5 6,-238.5 0,-232.5 0,-226.5 0,-226.5 0,-175.5 0,-175.5 0,-169.5 6,-163.5 12,-163.5 12,-163.5 84,-163.5 84,-163.5 90,-163.5 96,-169.5 96,-175.5 96,-175.5 96,-226.5 96,-226.5 96,-232.5 90,-238.5 84,-238.5"/>
<text text-anchor="middle" x="48" y="-226.5" font-family="Arial" font-size="10.00">AXI4&#45;Lite Slave</text>
<text text-anchor="middle" x="48" y="-215.5" font-family="Arial" font-size="10.00">Interface</text>
<text text-anchor="middle" x="48" y="-192.5" font-family="Arial" font-size="10.00">• Simple protocol</text>
<text text-anchor="middle" x="48" y="-181.5" font-family="Arial" font-size="10.00">• Single transfers</text>
<text text-anchor="middle" x="48" y="-170.5" font-family="Arial" font-size="10.00">• No burst support</text>
</g>
<!-- axil4_slave&#45;&gt;rd_conv -->
<g id="edge1" class="edge">
<title>axil4_slave&#45;&gt;rd_conv</title>
<path fill="none" stroke="black" d="M96.19,-210.11C140.5,-218.67 207.24,-231.55 256.95,-241.15"/>
<polygon fill="black" stroke="black" points="256.49,-244.63 266.97,-243.09 257.82,-237.75 256.49,-244.63"/>
<text text-anchor="middle" x="144.5" y="-236.8" font-family="Arial" font-size="9.00">AR (simple)</text>
<text text-anchor="middle" x="144.5" y="-226.8" font-family="Arial" font-size="9.00">R (no LAST)</text>
</g>
<!-- axil4_slave&#45;&gt;wr_conv -->
<g id="edge2" class="edge">
<title>axil4_slave&#45;&gt;wr_conv</title>
<path fill="none" stroke="black" d="M96.19,-192.06C138.21,-184.1 200.39,-172.32 249.1,-163.09"/>
<polygon fill="black" stroke="black" points="249.79,-166.53 258.96,-161.23 248.49,-159.65 249.79,-166.53"/>
<text text-anchor="middle" x="144.5" y="-201.8" font-family="Arial" font-size="9.00">AW/W (simple)</text>
<text text-anchor="middle" x="144.5" y="-191.8" font-family="Arial" font-size="9.00">B (no ID)</text>
</g>
</g>
</svg>
