<?xml version="1.0" encoding="UTF-8" standalone="no"?>
<!DOCTYPE svg PUBLIC "-//W3C//DTD SVG 1.1//EN"
 "http://www.w3.org/Graphics/SVG/1.1/DTD/svg11.dtd">
<!-- Generated by graphviz version 2.43.0 (0)
 -->
<!-- Title: axil4_to_axi4_wr Pages: 1 -->
<svg width="535pt" height="308pt"
 viewBox="0.00 0.00 535.00 308.00" xmlns="http://www.w3.org/2000/svg" xmlns:xlink="http://www.w3.org/1999/xlink">
<g id="graph0" class="graph" transform="scale(1 1) rotate(0) translate(4 304)">
<title>axil4_to_axi4_wr</title>
<polygon fill="white" stroke="transparent" points="-4,4 -4,-304 531,-304 531,4 -4,4"/>
<g id="clust1" class="cluster">
<title>cluster_converter</title>
<polygon fill="lightgray" stroke="black" points="189,-9.5 189,-288.5 342,-288.5 342,-9.5 189,-9.5"/>
<text text-anchor="middle" x="265.5" y="-273.3" font-family="Times,serif" font-size="14.00">axil4_to_axi4_wr</text>
</g>
<!-- s_aw -->
<g id="node1" class="node">
<title>s_aw</title>
<path fill="lightblue" stroke="black" d="M91.5,-252C91.5,-252 14.5,-252 14.5,-252 8.5,-252 2.5,-246 2.5,-240 2.5,-240 2.5,-189 2.5,-189 2.5,-183 8.5,-177 14.5,-177 14.5,-177 91.5,-177 91.5,-177 97.5,-177 103.5,-183 103.5,-189 103.5,-189 103.5,-240 103.5,-240 103.5,-246 97.5,-252 91.5,-252"/>
<text text-anchor="middle" x="53" y="-240" font-family="Arial" font-size="10.00">AXIL4 AW Channel</text>
<text text-anchor="middle" x="53" y="-217" font-family="Arial" font-size="10.00">AWVALID</text>
<text text-anchor="middle" x="53" y="-206" font-family="Arial" font-size="10.00">AWREADY</text>
<text text-anchor="middle" x="53" y="-195" font-family="Arial" font-size="10.00">AWADDR</text>
<text text-anchor="middle" x="53" y="-184" font-family="Arial" font-size="10.00">AWPROT</text>
</g>
<!-- aw_add -->
<g id="node4" class="node">
<title>aw_add</title>
<path fill="khaki" stroke="black" d="M322,-257.5C322,-257.5 209,-257.5 209,-257.5 203,-257.5 197,-251.5 197,-245.5 197,-245.5 197,-183.5 197,-183.5 197,-177.5 203,-171.5 209,-171.5 209,-171.5 322,-171.5 322,-171.5 328,-171.5 334,-177.5 334,-183.5 334,-183.5 334,-245.5 334,-245.5 334,-251.5 328,-257.5 322,-257.5"/>
<text text-anchor="middle" x="265.5" y="-245.5" font-family="Arial" font-size="10.00">AW Augmentation</text>
<text text-anchor="middle" x="265.5" y="-222.5" font-family="Arial" font-size="10.00">Add Fields:</text>
<text text-anchor="middle" x="265.5" y="-211.5" font-family="Arial" font-size="10.00">• AWID = DEFAULT_AWID</text>
<text text-anchor="middle" x="265.5" y="-200.5" font-family="Arial" font-size="10.00">• AWLEN = 0 (single)</text>
<text text-anchor="middle" x="265.5" y="-189.5" font-family="Arial" font-size="10.00">• AWSIZE = log2(width/8)</text>
<text text-anchor="middle" x="265.5" y="-178.5" font-family="Arial" font-size="10.00">• AWBURST = INCR</text>
</g>
<!-- s_aw&#45;&gt;aw_add -->
<g id="edge1" class="edge">
<title>s_aw&#45;&gt;aw_add</title>
<path fill="none" stroke="black" stroke-width="2" d="M103.62,-214.5C128.41,-214.5 158.98,-214.5 186.79,-214.5"/>
<polygon fill="black" stroke="black" stroke-width="2" points="186.89,-218 196.89,-214.5 186.89,-211 186.89,-218"/>
<text text-anchor="middle" x="151.5" y="-227.3" font-family="Arial" font-size="9.00">pass&#45;through</text>
<text text-anchor="middle" x="151.5" y="-217.3" font-family="Arial" font-size="9.00">+ defaults</text>
</g>
<!-- s_w -->
<g id="node2" class="node">
<title>s_w</title>
<path fill="lightblue" stroke="black" d="M94,-156.5C94,-156.5 12,-156.5 12,-156.5 6,-156.5 0,-150.5 0,-144.5 0,-144.5 0,-104.5 0,-104.5 0,-98.5 6,-92.5 12,-92.5 12,-92.5 94,-92.5 94,-92.5 100,-92.5 106,-98.5 106,-104.5 106,-104.5 106,-144.5 106,-144.5 106,-150.5 100,-156.5 94,-156.5"/>
<text text-anchor="middle" x="53" y="-144.5" font-family="Arial" font-size="10.00">AXIL4 W Channel</text>
<text text-anchor="middle" x="53" y="-121.5" font-family="Arial" font-size="10.00">WVALID, WREADY</text>
<text text-anchor="middle" x="53" y="-110.5" font-family="Arial" font-size="10.00">WDATA</text>
<text text-anchor="middle" x="53" y="-99.5" font-family="Arial" font-size="10.00">WSTRB</text>
</g>
<!-- w_add -->
<g id="node5" class="node">
<title>w_add</title>
<path fill="khaki" stroke="black" d="M300.5,-153.5C300.5,-153.5 230.5,-153.5 230.5,-153.5 224.5,-153.5 218.5,-147.5 218.5,-141.5 218.5,-141.5 218.5,-101.5 218.5,-101.5 218.5,-95.5 224.5,-89.5 230.5,-89.5 230.5,-89.5 300.5,-89.5 300.5,-89.5 306.5,-89.5 312.5,-95.5 312.5,-101.5 312.5,-101.5 312.5,-141.5 312.5,-141.5 312.5,-147.5 306.5,-153.5 300.5,-153.5"/>
<text text-anchor="middle" x="265.5" y="-141.5" font-family="Arial" font-size="10.00">W Augmentation</text>
<text text-anchor="middle" x="265.5" y="-118.5" font-family="Arial" font-size="10.00">Add Fields:</text>
<text text-anchor="middle" x="265.5" y="-107.5" font-family="Arial" font-size="10.00">• WLAST = 1</text>
<text text-anchor="middle" x="265.5" y="-96.5" font-family="Arial" font-size="10.00">(always last beat)</text>
</g>
<!-- s_w&#45;&gt;w_add -->
<g id="edge3" class="edge">
<title>s_w&#45;&gt;w_add</title>
<path fill="none" stroke="black" stroke-width="2" d="M106.03,-123.76C137.12,-123.32 176.62,-122.75 208.4,-122.3"/>
<polygon fill="black" stroke="black" stroke-width="2" points="208.48,-125.8 218.43,-122.16 208.38,-118.8 208.48,-125.8"/>
<text text-anchor="middle" x="151.5" y="-135.3" font-family="Arial" font-size="9.00">pass&#45;through</text>
<text text-anchor="middle" x="151.5" y="-125.3" font-family="Arial" font-size="9.00">+ LAST=1</text>
</g>
<!-- s_b -->
<g id="node3" class="node">
<title>s_b</title>
<path fill="lightcoral" stroke="black" d="M91,-74.5C91,-74.5 15,-74.5 15,-74.5 9,-74.5 3,-68.5 3,-62.5 3,-62.5 3,-22.5 3,-22.5 3,-16.5 9,-10.5 15,-10.5 15,-10.5 91,-10.5 91,-10.5 97,-10.5 103,-16.5 103,-22.5 103,-22.5 103,-62.5 103,-62.5 103,-68.5 97,-74.5 91,-74.5"/>
<text text-anchor="middle" x="53" y="-62.5" font-family="Arial" font-size="10.00">AXI4 B Channel</text>
<text text-anchor="middle" x="53" y="-51.5" font-family="Arial" font-size="10.00">(from slave)</text>
<text text-anchor="middle" x="53" y="-28.5" font-family="Arial" font-size="10.00">BID, BRESP</text>
<text text-anchor="middle" x="53" y="-17.5" font-family="Arial" font-size="10.00">BVALID, BREADY</text>
</g>
<!-- b_strip -->
<g id="node6" class="node">
<title>b_strip</title>
<path fill="khaki" stroke="black" d="M306.5,-71C306.5,-71 224.5,-71 224.5,-71 218.5,-71 212.5,-65 212.5,-59 212.5,-59 212.5,-30 212.5,-30 212.5,-24 218.5,-18 224.5,-18 224.5,-18 306.5,-18 306.5,-18 312.5,-18 318.5,-24 318.5,-30 318.5,-30 318.5,-59 318.5,-59 318.5,-65 312.5,-71 306.5,-71"/>
<text text-anchor="middle" x="265.5" y="-59" font-family="Arial" font-size="10.00">B Stripping</text>
<text text-anchor="middle" x="265.5" y="-36" font-family="Arial" font-size="10.00">Remove Fields:</text>
<text text-anchor="middle" x="265.5" y="-25" font-family="Arial" font-size="10.00">• BID (check match)</text>
</g>
<!-- s_b&#45;&gt;b_strip -->
<g id="edge5" class="edge">
<title>s_b&#45;&gt;b_strip</title>
<path fill="none" stroke="black" stroke-width="2" d="M103.09,-42.97C132.69,-43.25 170.66,-43.61 202.35,-43.91"/>
<polygon fill="black" stroke="black" stroke-width="2" points="202.36,-47.41 212.39,-44 202.43,-40.41 202.36,-47.41"/>
<text text-anchor="middle" x="151.5" y="-46.3" font-family="Arial" font-size="9.00">full AXI4</text>
</g>
<!-- m_aw -->
<g id="node7" class="node">
<title>m_aw</title>
<path fill="lightcoral" stroke="black" d="M515,-300C515,-300 429,-300 429,-300 423,-300 417,-294 417,-288 417,-288 417,-237 417,-237 417,-231 423,-225 429,-225 429,-225 515,-225 515,-225 521,-225 527,-231 527,-237 527,-237 527,-288 527,-288 527,-294 521,-300 515,-300"/>
<text text-anchor="middle" x="472" y="-288" font-family="Arial" font-size="10.00">AXI4 AW Channel</text>
<text text-anchor="middle" x="472" y="-277" font-family="Arial" font-size="10.00">(to slave)</text>
<text text-anchor="middle" x="472" y="-254" font-family="Arial" font-size="10.00">AWID, AWADDR</text>
<text text-anchor="middle" x="472" y="-243" font-family="Arial" font-size="10.00">AWLEN=0</text>
<text text-anchor="middle" x="472" y="-232" font-family="Arial" font-size="10.00">AWSIZE, AWBURST</text>
</g>
<!-- aw_add&#45;&gt;m_aw -->
<g id="edge2" class="edge">
<title>aw_add&#45;&gt;m_aw</title>
<path fill="none" stroke="black" d="M334.03,-230.35C357.54,-235.87 383.84,-242.04 407.05,-247.49"/>
<polygon fill="black" stroke="black" points="406.26,-250.9 416.8,-249.78 407.86,-244.09 406.26,-250.9"/>
<text text-anchor="middle" x="375.5" y="-246.3" font-family="Arial" font-size="9.00">augmented</text>
</g>
<!-- note -->
<g id="node10" class="node">
<title>note</title>
<polygon fill="lightyellow" stroke="black" points="518.5,-207 419.5,-207 419.5,-154 524.5,-154 524.5,-201 518.5,-207"/>
<polyline fill="none" stroke="black" points="518.5,-207 518.5,-201 "/>
<polyline fill="none" stroke="black" points="524.5,-201 518.5,-201 "/>
<text text-anchor="middle" x="472" y="-195" font-family="Arial" font-size="10.00">Combinational Logic</text>
<text text-anchor="middle" x="472" y="-172" font-family="Arial" font-size="10.00">Zero Latency</text>
<text text-anchor="middle" x="472" y="-161" font-family="Arial" font-size="10.00">No Buffering</text>
</g>
<!-- aw_add&#45;&gt;note -->
<g id="edge7" class="edge">
<title>aw_add&#45;&gt;note</title>
<path fill="none" stroke="black" stroke-dasharray="1,5" d="M334.03,-203.27C358.36,-199.23 385.66,-194.69 409.46,-190.73"/>
<polygon fill="black" stroke="black" points="410.13,-194.17 419.42,-189.08 408.98,-187.26 410.13,-194.17"/>
</g>
<!-- m_w -->
<g id="node8" class="node">
<title>m_w</title>
<path fill="lightcoral" stroke="black" d="M507.5,-135.5C507.5,-135.5 436.5,-135.5 436.5,-135.5 430.5,-135.5 424.5,-129.5 424.5,-123.5 424.5,-123.5 424.5,-83.5 424.5,-83.5 424.5,-77.5 430.5,-71.5 436.5,-71.5 436.5,-71.5 507.5,-71.5 507.5,-71.5 513.5,-71.5 519.5,-77.5 519.5,-83.5 519.5,-83.5 519.5,-123.5 519.5,-123.5 519.5,-129.5 513.5,-135.5 507.5,-135.5"/>
<text text-anchor="middle" x="472" y="-123.5" font-family="Arial" font-size="10.00">AXI4 W Channel</text>
<text text-anchor="middle" x="472" y="-112.5" font-family="Arial" font-size="10.00">(to slave)</text>
<text text-anchor="middle" x="472" y="-89.5" font-family="Arial" font-size="10.00">WDATA, WSTRB</text>
<text text-anchor="middle" x="472" y="-78.5" font-family="Arial" font-size="10.00">WLAST=1</text>
</g>
<!-- w_add&#45;&gt;m_w -->
<g id="edge4" class="edge">
<title>w_add&#45;&gt;m_w</title>
<path fill="none" stroke="black" d="M312.65,-117.44C342.73,-114.79 382.2,-111.32 414.2,-108.5"/>
<polygon fill="black" stroke="black" points="414.66,-111.97 424.31,-107.61 414.04,-105 414.66,-111.97"/>
<text text-anchor="middle" x="375.5" y="-116.3" font-family="Arial" font-size="9.00">augmented</text>
</g>
<!-- w_add&#45;&gt;note -->
<g id="edge8" class="edge">
<title>w_add&#45;&gt;note</title>
<path fill="none" stroke="black" stroke-dasharray="1,5" d="M312.65,-134.81C341.24,-143.06 378.32,-153.76 409.4,-162.73"/>
<polygon fill="black" stroke="black" points="408.69,-166.16 419.26,-165.57 410.63,-159.44 408.69,-166.16"/>
</g>
<!-- m_b -->
<g id="node9" class="node">
<title>m_b</title>
<path fill="lightblue" stroke="black" d="M506,-53C506,-53 438,-53 438,-53 432,-53 426,-47 426,-41 426,-41 426,-12 426,-12 426,-6 432,0 438,0 438,0 506,0 506,0 512,0 518,-6 518,-12 518,-12 518,-41 518,-41 518,-47 512,-53 506,-53"/>
<text text-anchor="middle" x="472" y="-41" font-family="Arial" font-size="10.00">AXIL4 B Channel</text>
<text text-anchor="middle" x="472" y="-18" font-family="Arial" font-size="10.00">BRESP</text>
<text text-anchor="middle" x="472" y="-7" font-family="Arial" font-size="10.00">(No BID)</text>
</g>
<!-- b_strip&#45;&gt;m_b -->
<g id="edge6" class="edge">
<title>b_strip&#45;&gt;m_b</title>
<path fill="none" stroke="black" d="M318.63,-39.91C348.4,-37.29 385.7,-34.01 415.94,-31.35"/>
<polygon fill="black" stroke="black" points="416.25,-34.83 425.91,-30.47 415.64,-27.86 416.25,-34.83"/>
<text text-anchor="middle" x="375.5" y="-40.3" font-family="Arial" font-size="9.00">stripped</text>
</g>
<!-- b_strip&#45;&gt;note -->
<g id="edge9" class="edge">
<title>b_strip&#45;&gt;note</title>
<path fill="none" stroke="black" stroke-dasharray="1,5" d="M318.79,-58.96C345.52,-68.54 376.96,-83.49 399,-105.5 412.51,-118.99 404.59,-129.99 417,-144.5 417.71,-145.33 418.45,-146.16 419.21,-146.97"/>
<polygon fill="black" stroke="black" points="416.88,-149.58 426.53,-153.95 421.71,-144.52 416.88,-149.58"/>
</g>
</g>
</svg>
