<?xml version="1.0" encoding="UTF-8" standalone="no"?>
<!DOCTYPE svg PUBLIC "-//W3C//DTD SVG 1.1//EN"
 "http://www.w3.org/Graphics/SVG/1.1/DTD/svg11.dtd">
<!-- Generated by graphviz version 2.43.0 (0)
 -->
<!-- Title: axil4_to_axi4_rd Pages: 1 -->
<svg width="522pt" height="237pt"
 viewBox="0.00 0.00 522.00 237.00" xmlns="http://www.w3.org/2000/svg" xmlns:xlink="http://www.w3.org/1999/xlink">
<g id="graph0" class="graph" transform="scale(1 1) rotate(0) translate(4 233)">
<title>axil4_to_axi4_rd</title>
<polygon fill="white" stroke="transparent" points="-4,4 -4,-233 518,-233 518,4 -4,4"/>
<g id="clust1" class="cluster">
<title>cluster_converter</title>
<polygon fill="lightgray" stroke="black" points="182,-14 182,-221 332,-221 332,-14 182,-14"/>
<text text-anchor="middle" x="257" y="-205.8" font-family="Times,serif" font-size="14.00">axil4_to_axi4_rd</text>
</g>
<!-- s_ar -->
<g id="node1" class="node">
<title>s_ar</title>
<path fill="lightblue" stroke="black" d="M87,-184.5C87,-184.5 12,-184.5 12,-184.5 6,-184.5 0,-178.5 0,-172.5 0,-172.5 0,-121.5 0,-121.5 0,-115.5 6,-109.5 12,-109.5 12,-109.5 87,-109.5 87,-109.5 93,-109.5 99,-115.5 99,-121.5 99,-121.5 99,-172.5 99,-172.5 99,-178.5 93,-184.5 87,-184.5"/>
<text text-anchor="middle" x="49.5" y="-172.5" font-family="Arial" font-size="10.00">AXIL4 AR Channel</text>
<text text-anchor="middle" x="49.5" y="-149.5" font-family="Arial" font-size="10.00">ARVALID</text>
<text text-anchor="middle" x="49.5" y="-138.5" font-family="Arial" font-size="10.00">ARREADY</text>
<text text-anchor="middle" x="49.5" y="-127.5" font-family="Arial" font-size="10.00">ARADDR</text>
<text text-anchor="middle" x="49.5" y="-116.5" font-family="Arial" font-size="10.00">ARPROT</text>
</g>
<!-- ar_add -->
<g id="node3" class="node">
<title>ar_add</title>
<path fill="khaki" stroke="black" d="M312,-190C312,-190 202,-190 202,-190 196,-190 190,-184 190,-178 190,-178 190,-116 190,-116 190,-110 196,-104 202,-104 202,-104 312,-104 312,-104 318,-104 324,-110 324,-116 324,-116 324,-178 324,-178 324,-184 318,-190 312,-190"/>
<text text-anchor="middle" x="257" y="-178" font-family="Arial" font-size="10.00">AR Augmentation</text>
<text text-anchor="middle" x="257" y="-155" font-family="Arial" font-size="10.00">Add Fields:</text>
<text text-anchor="middle" x="257" y="-144" font-family="Arial" font-size="10.00">• ARID = DEFAULT_ARID</text>
<text text-anchor="middle" x="257" y="-133" font-family="Arial" font-size="10.00">• ARLEN = 0 (single)</text>
<text text-anchor="middle" x="257" y="-122" font-family="Arial" font-size="10.00">• ARSIZE = log2(width/8)</text>
<text text-anchor="middle" x="257" y="-111" font-family="Arial" font-size="10.00">• ARBURST = INCR</text>
</g>
<!-- s_ar&#45;&gt;ar_add -->
<g id="edge1" class="edge">
<title>s_ar&#45;&gt;ar_add</title>
<path fill="none" stroke="black" stroke-width="2" d="M99.2,-147C123.2,-147 152.69,-147 179.6,-147"/>
<polygon fill="black" stroke="black" stroke-width="2" points="179.77,-150.5 189.77,-147 179.77,-143.5 179.77,-150.5"/>
<text text-anchor="middle" x="144.5" y="-159.8" font-family="Arial" font-size="9.00">pass&#45;through</text>
<text text-anchor="middle" x="144.5" y="-149.8" font-family="Arial" font-size="9.00">+ defaults</text>
</g>
<!-- s_r -->
<g id="node2" class="node">
<title>s_r</title>
<path fill="lightcoral" stroke="black" d="M82,-86C82,-86 17,-86 17,-86 11,-86 5,-80 5,-74 5,-74 5,-34 5,-34 5,-28 11,-22 17,-22 17,-22 82,-22 82,-22 88,-22 94,-28 94,-34 94,-34 94,-74 94,-74 94,-80 88,-86 82,-86"/>
<text text-anchor="middle" x="49.5" y="-74" font-family="Arial" font-size="10.00">AXI4 R Channel</text>
<text text-anchor="middle" x="49.5" y="-63" font-family="Arial" font-size="10.00">(from slave)</text>
<text text-anchor="middle" x="49.5" y="-40" font-family="Arial" font-size="10.00">RID, RDATA</text>
<text text-anchor="middle" x="49.5" y="-29" font-family="Arial" font-size="10.00">RRESP, RLAST</text>
</g>
<!-- r_strip -->
<g id="node4" class="node">
<title>r_strip</title>
<path fill="khaki" stroke="black" d="M298.5,-86C298.5,-86 215.5,-86 215.5,-86 209.5,-86 203.5,-80 203.5,-74 203.5,-74 203.5,-34 203.5,-34 203.5,-28 209.5,-22 215.5,-22 215.5,-22 298.5,-22 298.5,-22 304.5,-22 310.5,-28 310.5,-34 310.5,-34 310.5,-74 310.5,-74 310.5,-80 304.5,-86 298.5,-86"/>
<text text-anchor="middle" x="257" y="-74" font-family="Arial" font-size="10.00">R Stripping</text>
<text text-anchor="middle" x="257" y="-51" font-family="Arial" font-size="10.00">Remove Fields:</text>
<text text-anchor="middle" x="257" y="-40" font-family="Arial" font-size="10.00">• RID (check match)</text>
<text text-anchor="middle" x="257" y="-29" font-family="Arial" font-size="10.00">• RLAST (verify =1)</text>
</g>
<!-- s_r&#45;&gt;r_strip -->
<g id="edge3" class="edge">
<title>s_r&#45;&gt;r_strip</title>
<path fill="none" stroke="black" stroke-width="2" d="M94.08,-54C122.89,-54 161.12,-54 193.19,-54"/>
<polygon fill="black" stroke="black" stroke-width="2" points="193.37,-57.5 203.37,-54 193.37,-50.5 193.37,-57.5"/>
<text text-anchor="middle" x="144.5" y="-56.8" font-family="Arial" font-size="9.00">full AXI4</text>
</g>
<!-- m_ar -->
<g id="node5" class="node">
<title>m_ar</title>
<path fill="lightcoral" stroke="black" d="M502,-228.5C502,-228.5 419,-228.5 419,-228.5 413,-228.5 407,-222.5 407,-216.5 407,-216.5 407,-165.5 407,-165.5 407,-159.5 413,-153.5 419,-153.5 419,-153.5 502,-153.5 502,-153.5 508,-153.5 514,-159.5 514,-165.5 514,-165.5 514,-216.5 514,-216.5 514,-222.5 508,-228.5 502,-228.5"/>
<text text-anchor="middle" x="460.5" y="-216.5" font-family="Arial" font-size="10.00">AXI4 AR Channel</text>
<text text-anchor="middle" x="460.5" y="-205.5" font-family="Arial" font-size="10.00">(to slave)</text>
<text text-anchor="middle" x="460.5" y="-182.5" font-family="Arial" font-size="10.00">ARID, ARADDR</text>
<text text-anchor="middle" x="460.5" y="-171.5" font-family="Arial" font-size="10.00">ARLEN=0</text>
<text text-anchor="middle" x="460.5" y="-160.5" font-family="Arial" font-size="10.00">ARSIZE, ARBURST</text>
</g>
<!-- ar_add&#45;&gt;m_ar -->
<g id="edge2" class="edge">
<title>ar_add&#45;&gt;m_ar</title>
<path fill="none" stroke="black" d="M324.26,-161.47C347.64,-166.57 373.84,-172.29 396.91,-177.33"/>
<polygon fill="black" stroke="black" points="396.41,-180.81 406.92,-179.52 397.9,-173.97 396.41,-180.81"/>
<text text-anchor="middle" x="365.5" y="-187.8" font-family="Arial" font-size="9.00">augmented</text>
<text text-anchor="middle" x="365.5" y="-177.8" font-family="Arial" font-size="9.00">AXI4</text>
</g>
<!-- note -->
<g id="node7" class="node">
<title>note</title>
<polygon fill="lightyellow" stroke="black" points="507,-135.5 408,-135.5 408,-82.5 513,-82.5 513,-129.5 507,-135.5"/>
<polyline fill="none" stroke="black" points="507,-135.5 507,-129.5 "/>
<polyline fill="none" stroke="black" points="513,-129.5 507,-129.5 "/>
<text text-anchor="middle" x="460.5" y="-123.5" font-family="Arial" font-size="10.00">Combinational Logic</text>
<text text-anchor="middle" x="460.5" y="-100.5" font-family="Arial" font-size="10.00">Zero Latency</text>
<text text-anchor="middle" x="460.5" y="-89.5" font-family="Arial" font-size="10.00">No State</text>
</g>
<!-- ar_add&#45;&gt;note -->
<g id="edge5" class="edge">
<title>ar_add&#45;&gt;note</title>
<path fill="none" stroke="black" stroke-dasharray="1,5" d="M324.26,-134.5C347.94,-130.04 374.51,-125.03 397.79,-120.64"/>
<polygon fill="black" stroke="black" points="398.71,-124.03 407.89,-118.73 397.42,-117.15 398.71,-124.03"/>
</g>
<!-- m_r -->
<g id="node6" class="node">
<title>m_r</title>
<path fill="lightblue" stroke="black" d="M495,-64C495,-64 426,-64 426,-64 420,-64 414,-58 414,-52 414,-52 414,-12 414,-12 414,-6 420,0 426,0 426,0 495,0 495,0 501,0 507,-6 507,-12 507,-12 507,-52 507,-52 507,-58 501,-64 495,-64"/>
<text text-anchor="middle" x="460.5" y="-52" font-family="Arial" font-size="10.00">AXIL4 R Channel</text>
<text text-anchor="middle" x="460.5" y="-29" font-family="Arial" font-size="10.00">RDATA</text>
<text text-anchor="middle" x="460.5" y="-18" font-family="Arial" font-size="10.00">RRESP</text>
<text text-anchor="middle" x="460.5" y="-7" font-family="Arial" font-size="10.00">(No ID/LAST)</text>
</g>
<!-- r_strip&#45;&gt;m_r -->
<g id="edge4" class="edge">
<title>r_strip&#45;&gt;m_r</title>
<path fill="none" stroke="black" d="M310.68,-48.25C339.36,-45.12 374.84,-41.24 403.96,-38.06"/>
<polygon fill="black" stroke="black" points="404.41,-41.54 413.97,-36.97 403.65,-34.58 404.41,-41.54"/>
<text text-anchor="middle" x="365.5" y="-57.8" font-family="Arial" font-size="9.00">stripped</text>
<text text-anchor="middle" x="365.5" y="-47.8" font-family="Arial" font-size="9.00">AXIL4</text>
</g>
<!-- r_strip&#45;&gt;note -->
<g id="edge6" class="edge">
<title>r_strip&#45;&gt;note</title>
<path fill="none" stroke="black" stroke-dasharray="1,5" d="M310.68,-68.38C337.49,-75.7 370.22,-84.63 398.16,-92.26"/>
<polygon fill="black" stroke="black" points="397.26,-95.64 407.83,-94.9 399.1,-88.89 397.26,-95.64"/>
</g>
</g>
</svg>
