<?xml version="1.0" encoding="UTF-8" standalone="no"?>
<!DOCTYPE svg PUBLIC "-//W3C//DTD SVG 1.1//EN"
 "http://www.w3.org/Graphics/SVG/1.1/DTD/svg11.dtd">
<!-- Generated by graphviz version 2.43.0 (0)
 -->
<!-- Title: peakrdl_adapter Pages: 1 -->
<svg width="1821pt" height="1253pt"
 viewBox="0.00 0.00 1821.00 1253.00" xmlns="http://www.w3.org/2000/svg" xmlns:xlink="http://www.w3.org/1999/xlink">
<g id="graph0" class="graph" transform="scale(1 1) rotate(0) translate(4 1249)">
<title>peakrdl_adapter</title>
<polygon fill="white" stroke="transparent" points="-4,4 -4,-1249 1817,-1249 1817,4 -4,4"/>
<text text-anchor="middle" x="906.5" y="-1233" font-family="Arial" font-size="10.00">peakrdl_to_cmdrsp &#45; PeakRDL to Command/Response Adapter</text>
<text text-anchor="middle" x="906.5" y="-1222" font-family="Arial" font-size="10.00">Decouples register interface from implementation</text>
<g id="clust1" class="cluster">
<title>cluster_peakrdl</title>
<polygon fill="lightblue" stroke="black" points="642,-8 642,-81 1077,-81 1077,-8 642,-8"/>
<text text-anchor="middle" x="859.5" y="-69" font-family="Arial" font-size="10.00">PeakRDL Register Interface (APB&#45;style)</text>
</g>
<g id="clust2" class="cluster">
<title>cluster_adapter</title>
<polygon fill="lightyellow" stroke="black" points="428,-89 428,-254 1646,-254 1646,-89 428,-89"/>
<text text-anchor="middle" x="1037" y="-242" font-family="Arial" font-size="10.00">Adapter Logic</text>
</g>
<g id="clust3" class="cluster">
<title>cluster_cmdrsp</title>
<polygon fill="lightcoral" stroke="black" points="8,-277 8,-350 1805,-350 1805,-277 8,-277"/>
<text text-anchor="middle" x="906.5" y="-338" font-family="Arial" font-size="10.00">Command/Response Interface (Custom Protocol)</text>
</g>
<!-- reg_if -->
<g id="node1" class="node">
<title>reg_if</title>
<polygon fill="lightblue" stroke="black" points="650,-17 650,-53 1069,-53 1069,-17 650,-17"/>
<text text-anchor="middle" x="694.5" y="-32.8" font-family="Arial" font-size="9.00">Register Interface</text>
<polyline fill="none" stroke="black" points="739,-17 739,-53 "/>
<text text-anchor="middle" x="904" y="-32.8" font-family="Arial" font-size="9.00">reg_addr[15:0]|reg_wdata[31:0]|reg_write|reg_read|reg_rdata[31:0]|reg_error</text>
</g>
<!-- cmd_gen -->
<g id="node2" class="node">
<title>cmd_gen</title>
<polygon fill="white" stroke="black" points="1292,-202 1189,-202 1189,-166 1292,-166 1292,-202"/>
<text text-anchor="middle" x="1240.5" y="-181.8" font-family="Arial" font-size="9.00">Command Generator</text>
</g>
<!-- reg_if&#45;&gt;cmd_gen -->
<g id="edge4" class="edge">
<title>reg_if&#45;&gt;cmd_gen</title>
<path fill="none" stroke="black" d="M1069.22,-35C1157.87,-35 1241,-35 1241,-35 1241,-35 1241,-155.73 1241,-155.73"/>
<polygon fill="black" stroke="black" points="1237.5,-155.73 1241,-165.73 1244.5,-155.73 1237.5,-155.73"/>
<text text-anchor="middle" x="1129" y="-108.6" font-family="Arial" font-size="8.00">register</text>
<text text-anchor="middle" x="1129" y="-99.6" font-family="Arial" font-size="8.00">operation</text>
</g>
<!-- wr_flag -->
<g id="node4" class="node">
<title>wr_flag</title>
<polygon fill="white" stroke="black" points="1638,-133 1577,-133 1577,-97 1638,-97 1638,-133"/>
<text text-anchor="middle" x="1607.5" y="-117.8" font-family="Arial" font-size="9.00">Write Flag</text>
<text text-anchor="middle" x="1607.5" y="-107.8" font-family="Arial" font-size="9.00">(reg_write)</text>
</g>
<!-- cmd_gen&#45;&gt;wr_flag -->
<g id="edge1" class="edge">
<title>cmd_gen&#45;&gt;wr_flag</title>
<path fill="none" stroke="black" stroke-dasharray="5,2" d="M1292.37,-178.5C1393.68,-178.5 1608,-178.5 1608,-178.5 1608,-178.5 1608,-143.03 1608,-143.03"/>
<polygon fill="black" stroke="black" points="1611.5,-143.03 1608,-133.03 1604.5,-143.03 1611.5,-143.03"/>
</g>
<!-- rd_flag -->
<g id="node5" class="node">
<title>rd_flag</title>
<polygon fill="white" stroke="black" points="1637.5,-227 1577.5,-227 1577.5,-191 1637.5,-191 1637.5,-227"/>
<text text-anchor="middle" x="1607.5" y="-211.8" font-family="Arial" font-size="9.00">Read Flag</text>
<text text-anchor="middle" x="1607.5" y="-201.8" font-family="Arial" font-size="9.00">(reg_read)</text>
</g>
<!-- cmd_gen&#45;&gt;rd_flag -->
<g id="edge2" class="edge">
<title>cmd_gen&#45;&gt;rd_flag</title>
<path fill="none" stroke="black" stroke-dasharray="5,2" d="M1292.3,-196.5C1292.3,-196.5 1567.4,-196.5 1567.4,-196.5"/>
<polygon fill="black" stroke="black" points="1567.4,-200 1577.4,-196.5 1567.4,-193 1567.4,-200"/>
</g>
<!-- cmd_if -->
<g id="node6" class="node">
<title>cmd_if</title>
<polygon fill="lightcoral" stroke="black" points="1418,-286 1418,-322 1797,-322 1797,-286 1418,-286"/>
<text text-anchor="middle" x="1466.5" y="-301.8" font-family="Arial" font-size="9.00">Command Interface</text>
<polyline fill="none" stroke="black" points="1515,-286 1515,-322 "/>
<text text-anchor="middle" x="1656" y="-301.8" font-family="Arial" font-size="9.00">cmd_valid|cmd_ready|cmd_addr[15:0]|cmd_data[31:0]|cmd_write</text>
</g>
<!-- cmd_gen&#45;&gt;cmd_if -->
<g id="edge5" class="edge">
<title>cmd_gen&#45;&gt;cmd_if</title>
<path fill="none" stroke="black" d="M1241,-202.04C1241,-234.14 1241,-297.83 1241,-297.83 1241,-297.83 1407.81,-297.83 1407.81,-297.83"/>
<polygon fill="black" stroke="black" points="1407.81,-301.33 1417.81,-297.83 1407.81,-294.33 1407.81,-301.33"/>
<text text-anchor="middle" x="1355" y="-278.6" font-family="Arial" font-size="8.00">command</text>
<text text-anchor="middle" x="1355" y="-269.6" font-family="Arial" font-size="8.00">handshake</text>
</g>
<!-- rsp_handler -->
<g id="node3" class="node">
<title>rsp_handler</title>
<polygon fill="white" stroke="black" points="530,-202 436,-202 436,-166 530,-166 530,-202"/>
<text text-anchor="middle" x="483" y="-181.8" font-family="Arial" font-size="9.00">Response Handler</text>
</g>
<!-- rsp_handler&#45;&gt;reg_if -->
<g id="edge7" class="edge">
<title>rsp_handler&#45;&gt;reg_if</title>
<path fill="none" stroke="black" d="M483,-165.73C483,-125.94 483,-35 483,-35 483,-35 639.78,-35 639.78,-35"/>
<polygon fill="black" stroke="black" points="639.78,-38.5 649.78,-35 639.78,-31.5 639.78,-38.5"/>
<text text-anchor="middle" x="590" y="-108.6" font-family="Arial" font-size="8.00">register</text>
<text text-anchor="middle" x="590" y="-99.6" font-family="Arial" font-size="8.00">response</text>
</g>
<!-- rsp_handler&#45;&gt;cmd_gen -->
<g id="edge3" class="edge">
<title>rsp_handler&#45;&gt;cmd_gen</title>
<path fill="none" stroke="black" stroke-dasharray="5,2" d="M530.1,-184C530.1,-184 1178.87,-184 1178.87,-184"/>
<polygon fill="black" stroke="black" points="1178.87,-187.5 1188.87,-184 1178.87,-180.5 1178.87,-187.5"/>
<text text-anchor="middle" x="859.5" y="-186.6" font-family="Arial" font-size="8.00">handshake</text>
</g>
<!-- rsp_if -->
<g id="node7" class="node">
<title>rsp_if</title>
<polygon fill="lightcoral" stroke="black" points="16,-286 16,-322 310,-322 310,-286 16,-286"/>
<text text-anchor="middle" x="64" y="-301.8" font-family="Arial" font-size="9.00">Response Interface</text>
<polyline fill="none" stroke="black" points="112,-286 112,-322 "/>
<text text-anchor="middle" x="211" y="-301.8" font-family="Arial" font-size="9.00">rsp_valid|rsp_ready|rsp_data[31:0]|rsp_error</text>
</g>
<!-- rsp_if&#45;&gt;rsp_handler -->
<g id="edge6" class="edge">
<title>rsp_if&#45;&gt;rsp_handler</title>
<path fill="none" stroke="black" d="M310.36,-310.17C394.34,-310.17 483,-310.17 483,-310.17 483,-310.17 483,-212.08 483,-212.08"/>
<polygon fill="black" stroke="black" points="486.5,-212.08 483,-202.08 479.5,-212.08 486.5,-212.08"/>
<text text-anchor="middle" x="373" y="-243.6" font-family="Arial" font-size="8.00">response</text>
<text text-anchor="middle" x="373" y="-234.6" font-family="Arial" font-size="8.00">handshake</text>
</g>
<!-- wr_example -->
<g id="node8" class="node">
<title>wr_example</title>
<polygon fill="lightcyan" stroke="black" points="271,-549 49,-549 49,-381 277,-381 277,-543 271,-549"/>
<polyline fill="none" stroke="black" points="271,-549 271,-543 "/>
<polyline fill="none" stroke="black" points="277,-543 271,-543 "/>
<polygon fill="lightblue" stroke="transparent" points="57,-525 57,-545 269,-545 269,-525 57,-525"/>
<polygon fill="none" stroke="black" points="57,-525 57,-545 269,-545 269,-525 57,-525"/>
<text text-anchor="start" x="125" y="-533.8" font-family="Arial" font-weight="bold" font-size="9.00">Write Transaction</text>
<polygon fill="none" stroke="black" points="57,-505 57,-525 101,-525 101,-505 57,-505"/>
<text text-anchor="start" x="62" y="-512.8" font-family="Arial" font-size="9.00">Cycle 1:</text>
<polygon fill="none" stroke="black" points="101,-505 101,-525 269,-525 269,-505 101,-505"/>
<text text-anchor="start" x="106" y="-512.8" font-family="Arial" font-size="9.00">reg_write=1, reg_addr=0x100</text>
<polygon fill="none" stroke="black" points="57,-485 57,-505 101,-505 101,-485 57,-485"/>
<text text-anchor="start" x="62" y="-492.8" font-family="Arial" font-size="9.00">→</text>
<polygon fill="none" stroke="black" points="101,-485 101,-505 269,-505 269,-485 101,-485"/>
<text text-anchor="start" x="106" y="-492.8" font-family="Arial" font-size="9.00">reg_wdata=0xDEAD</text>
<polygon fill="none" stroke="black" points="57,-465 57,-485 101,-485 101,-465 57,-465"/>
<text text-anchor="start" x="62" y="-472.8" font-family="Arial" font-size="9.00">Cycle 2:</text>
<polygon fill="none" stroke="black" points="101,-465 101,-485 269,-485 269,-465 101,-465"/>
<text text-anchor="start" x="106" y="-472.8" font-family="Arial" font-size="9.00">cmd_valid=1, cmd_write=1</text>
<polygon fill="none" stroke="black" points="57,-445 57,-465 101,-465 101,-445 57,-445"/>
<text text-anchor="start" x="62" y="-452.8" font-family="Arial" font-size="9.00">→</text>
<polygon fill="none" stroke="black" points="101,-445 101,-465 269,-465 269,-445 101,-445"/>
<text text-anchor="start" x="106" y="-452.8" font-family="Arial" font-size="9.00">cmd_addr=0x100, cmd_data=0xDEAD</text>
<polygon fill="none" stroke="black" points="57,-425 57,-445 101,-445 101,-425 57,-425"/>
<text text-anchor="start" x="62" y="-432.8" font-family="Arial" font-size="9.00">Cycle 3:</text>
<polygon fill="none" stroke="black" points="101,-425 101,-445 269,-445 269,-425 101,-425"/>
<text text-anchor="start" x="106" y="-432.8" font-family="Arial" font-size="9.00">cmd_ready=1 (accepted)</text>
<polygon fill="none" stroke="black" points="57,-405 57,-425 101,-425 101,-405 57,-405"/>
<text text-anchor="start" x="62" y="-412.8" font-family="Arial" font-size="9.00">Cycle 4:</text>
<polygon fill="none" stroke="black" points="101,-405 101,-425 269,-425 269,-405 101,-405"/>
<text text-anchor="start" x="106" y="-412.8" font-family="Arial" font-size="9.00">rsp_valid=1, rsp_error=0</text>
<polygon fill="none" stroke="black" points="57,-385 57,-405 101,-405 101,-385 57,-385"/>
<text text-anchor="start" x="62" y="-392.8" font-family="Arial" font-size="9.00">Cycle 5:</text>
<polygon fill="none" stroke="black" points="101,-385 101,-405 269,-405 269,-385 101,-385"/>
<text text-anchor="start" x="106" y="-392.8" font-family="Arial" font-size="9.00">reg_error=0 (complete)</text>
</g>
<!-- rd_example -->
<g id="node9" class="node">
<title>rd_example</title>
<polygon fill="lightgreen" stroke="black" points="255.5,-755 64.5,-755 64.5,-607 261.5,-607 261.5,-749 255.5,-755"/>
<polyline fill="none" stroke="black" points="255.5,-755 255.5,-749 "/>
<polyline fill="none" stroke="black" points="261.5,-749 255.5,-749 "/>
<polygon fill="lightgreen" stroke="transparent" points="73,-731 73,-751 254,-751 254,-731 73,-731"/>
<polygon fill="none" stroke="black" points="73,-731 73,-751 254,-751 254,-731 73,-731"/>
<text text-anchor="start" x="125.5" y="-739.8" font-family="Arial" font-weight="bold" font-size="9.00">Read Transaction</text>
<polygon fill="none" stroke="black" points="73,-711 73,-731 117,-731 117,-711 73,-711"/>
<text text-anchor="start" x="78" y="-718.8" font-family="Arial" font-size="9.00">Cycle 1:</text>
<polygon fill="none" stroke="black" points="117,-711 117,-731 254,-731 254,-711 117,-711"/>
<text text-anchor="start" x="122" y="-718.8" font-family="Arial" font-size="9.00">reg_read=1, reg_addr=0x200</text>
<polygon fill="none" stroke="black" points="73,-691 73,-711 117,-711 117,-691 73,-691"/>
<text text-anchor="start" x="78" y="-698.8" font-family="Arial" font-size="9.00">Cycle 2:</text>
<polygon fill="none" stroke="black" points="117,-691 117,-711 254,-711 254,-691 117,-691"/>
<text text-anchor="start" x="122" y="-698.8" font-family="Arial" font-size="9.00">cmd_valid=1, cmd_write=0</text>
<polygon fill="none" stroke="black" points="73,-671 73,-691 117,-691 117,-671 73,-671"/>
<text text-anchor="start" x="78" y="-678.8" font-family="Arial" font-size="9.00">→</text>
<polygon fill="none" stroke="black" points="117,-671 117,-691 254,-691 254,-671 117,-671"/>
<text text-anchor="start" x="122" y="-678.8" font-family="Arial" font-size="9.00">cmd_addr=0x200</text>
<polygon fill="none" stroke="black" points="73,-651 73,-671 117,-671 117,-651 73,-651"/>
<text text-anchor="start" x="78" y="-658.8" font-family="Arial" font-size="9.00">Cycle 3:</text>
<polygon fill="none" stroke="black" points="117,-651 117,-671 254,-671 254,-651 117,-651"/>
<text text-anchor="start" x="122" y="-658.8" font-family="Arial" font-size="9.00">cmd_ready=1 (accepted)</text>
<polygon fill="none" stroke="black" points="73,-631 73,-651 117,-651 117,-631 73,-631"/>
<text text-anchor="start" x="78" y="-638.8" font-family="Arial" font-size="9.00">Cycle 4:</text>
<polygon fill="none" stroke="black" points="117,-631 117,-651 254,-651 254,-631 117,-631"/>
<text text-anchor="start" x="122" y="-638.8" font-family="Arial" font-size="9.00">rsp_valid=1, rsp_data=0xBEEF</text>
<polygon fill="none" stroke="black" points="73,-611 73,-631 117,-631 117,-611 73,-611"/>
<text text-anchor="start" x="78" y="-618.8" font-family="Arial" font-size="9.00">Cycle 5:</text>
<polygon fill="none" stroke="black" points="117,-611 117,-631 254,-631 254,-611 117,-611"/>
<text text-anchor="start" x="122" y="-618.8" font-family="Arial" font-size="9.00">reg_rdata=0xBEEF (complete)</text>
</g>
<!-- features -->
<g id="node10" class="node">
<title>features</title>
<polygon fill="lightyellow" stroke="black" points="230.5,-919 89.5,-919 89.5,-813 236.5,-813 236.5,-913 230.5,-919"/>
<polyline fill="none" stroke="black" points="230.5,-919 230.5,-913 "/>
<polyline fill="none" stroke="black" points="236.5,-913 230.5,-913 "/>
<text text-anchor="start" x="100" y="-906.8" font-family="Arial" font-weight="bold" font-size="9.00">Key Features:</text>
<text text-anchor="start" x="100" y="-891.8" font-family="Arial" font-size="9.00">✓ Protocol decoupling</text>
<text text-anchor="start" x="100" y="-877.8" font-family="Arial" font-size="9.00">✓ Single&#45;cycle command issue</text>
<text text-anchor="start" x="100" y="-863.8" font-family="Arial" font-size="9.00">✓ Pipelined response</text>
<text text-anchor="start" x="100" y="-849.8" font-family="Arial" font-size="9.00">✓ Error propagation</text>
<text text-anchor="start" x="100" y="-835.8" font-family="Arial" font-size="9.00">✓ Configurable widths</text>
<text text-anchor="start" x="100" y="-821.8" font-family="Arial" font-size="9.00">✓ Read/write support</text>
</g>
<!-- usecases -->
<g id="node11" class="node">
<title>usecases</title>
<polygon fill="lightgray" stroke="black" points="232,-1069 88,-1069 88,-977 238,-977 238,-1063 232,-1069"/>
<polyline fill="none" stroke="black" points="232,-1069 232,-1063 "/>
<polyline fill="none" stroke="black" points="238,-1063 232,-1063 "/>
<text text-anchor="start" x="98" y="-1056.8" font-family="Arial" font-weight="bold" font-size="9.00">Use Cases:</text>
<text text-anchor="start" x="98" y="-1041.8" font-family="Arial" font-size="9.00">• PeakRDL register blocks</text>
<text text-anchor="start" x="98" y="-1027.8" font-family="Arial" font-size="9.00">• Custom control logic</text>
<text text-anchor="start" x="98" y="-1013.8" font-family="Arial" font-size="9.00">• Register → command protocol</text>
<text text-anchor="start" x="98" y="-999.8" font-family="Arial" font-size="9.00">• Interface decoupling</text>
<text text-anchor="start" x="98" y="-985.8" font-family="Arial" font-size="9.00">• Testbench stimulus</text>
</g>
<!-- params -->
<g id="node12" class="node">
<title>params</title>
<polygon fill="lightcyan" stroke="black" points="253,-1215 67,-1215 67,-1127 259,-1127 259,-1209 253,-1215"/>
<polyline fill="none" stroke="black" points="253,-1215 253,-1209 "/>
<polyline fill="none" stroke="black" points="259,-1209 253,-1209 "/>
<polygon fill="lightcyan" stroke="transparent" points="75,-1191 75,-1211 251,-1211 251,-1191 75,-1191"/>
<polygon fill="none" stroke="black" points="75,-1191 75,-1211 251,-1211 251,-1191 75,-1191"/>
<text text-anchor="start" x="137" y="-1199.8" font-family="Arial" font-weight="bold" font-size="9.00">Parameters</text>
<polygon fill="none" stroke="black" points="75,-1171 75,-1191 188,-1191 188,-1171 75,-1171"/>
<text text-anchor="start" x="80" y="-1178.8" font-family="Arial" font-size="9.00">ADDR_WIDTH</text>
<polygon fill="none" stroke="black" points="188,-1171 188,-1191 251,-1191 251,-1171 188,-1171"/>
<text text-anchor="start" x="235" y="-1178.8" font-family="Arial" font-size="9.00">16</text>
<polygon fill="none" stroke="black" points="75,-1151 75,-1171 188,-1171 188,-1151 75,-1151"/>
<text text-anchor="start" x="80" y="-1158.8" font-family="Arial" font-size="9.00">DATA_WIDTH</text>
<polygon fill="none" stroke="black" points="188,-1151 188,-1171 251,-1171 251,-1151 188,-1151"/>
<text text-anchor="start" x="235" y="-1158.8" font-family="Arial" font-size="9.00">32</text>
<polygon fill="none" stroke="black" points="75,-1131 75,-1151 251,-1151 251,-1131 75,-1131"/>
<text text-anchor="start" x="80" y="-1138.8" font-family="Arial" font-size="9.00">Configurable to match\nregister interface</text>
</g>
</g>
</svg>
