<?xml version="1.0" encoding="UTF-8" standalone="no"?>
<!DOCTYPE svg PUBLIC "-//W3C//DTD SVG 1.1//EN"
 "http://www.w3.org/Graphics/SVG/1.1/DTD/svg11.dtd">
<!-- Generated by graphviz version 2.43.0 (0)
 -->
<!-- Title: uart_axil_bridge Pages: 1 -->
<svg width="1291pt" height="278pt"
 viewBox="0.00 0.00 1291.46 278.00" xmlns="http://www.w3.org/2000/svg" xmlns:xlink="http://www.w3.org/1999/xlink">
<g id="graph0" class="graph" transform="scale(1 1) rotate(0) translate(4 274)">
<title>uart_axil_bridge</title>
<polygon fill="white" stroke="transparent" points="-4,4 -4,-274 1287.46,-274 1287.46,4 -4,4"/>
<g id="clust1" class="cluster">
<title>cluster_bridge</title>
<polygon fill="lightgray" stroke="black" points="185.35,-98 185.35,-262 1102.35,-262 1102.35,-98 185.35,-98"/>
<text text-anchor="middle" x="643.85" y="-246.8" font-family="Times,serif" font-size="14.00">uart_axil_bridge (Planned)</text>
</g>
<!-- uart_in -->
<g id="node1" class="node">
<title>uart_in</title>
<ellipse fill="lightblue" stroke="black" cx="67.18" cy="-157" rx="67.35" ry="45.01"/>
<text text-anchor="middle" x="67.18" y="-177" font-family="Arial" font-size="10.00">UART RX</text>
<text text-anchor="middle" x="67.18" y="-154" font-family="Arial" font-size="10.00">Serial Input</text>
<text text-anchor="middle" x="67.18" y="-143" font-family="Arial" font-size="10.00">115200 baud</text>
<text text-anchor="middle" x="67.18" y="-132" font-family="Arial" font-size="10.00">ASCII commands</text>
</g>
<!-- uart_rx -->
<g id="node3" class="node">
<title>uart_rx</title>
<path fill="khaki" stroke="black" d="M270.35,-183.5C270.35,-183.5 205.35,-183.5 205.35,-183.5 199.35,-183.5 193.35,-177.5 193.35,-171.5 193.35,-171.5 193.35,-142.5 193.35,-142.5 193.35,-136.5 199.35,-130.5 205.35,-130.5 205.35,-130.5 270.35,-130.5 270.35,-130.5 276.35,-130.5 282.35,-136.5 282.35,-142.5 282.35,-142.5 282.35,-171.5 282.35,-171.5 282.35,-177.5 276.35,-183.5 270.35,-183.5"/>
<text text-anchor="middle" x="237.85" y="-171.5" font-family="Arial" font-size="10.00">UART RX</text>
<text text-anchor="middle" x="237.85" y="-148.5" font-family="Arial" font-size="10.00">Serial → Parallel</text>
<text text-anchor="middle" x="237.85" y="-137.5" font-family="Arial" font-size="10.00">Baud clock gen</text>
</g>
<!-- uart_in&#45;&gt;uart_rx -->
<g id="edge1" class="edge">
<title>uart_in&#45;&gt;uart_rx</title>
<path fill="none" stroke="black" d="M134.36,-157C150.4,-157 167.37,-157 182.79,-157"/>
<polygon fill="black" stroke="black" points="183.18,-160.5 193.18,-157 183.18,-153.5 183.18,-160.5"/>
<text text-anchor="middle" x="163.85" y="-159.8" font-family="Arial" font-size="9.00">serial</text>
</g>
<!-- uart_out -->
<g id="node2" class="node">
<title>uart_out</title>
<ellipse fill="lightcoral" stroke="black" cx="1218.4" cy="-150" rx="65.11" ry="37.45"/>
<text text-anchor="middle" x="1218.4" y="-164.5" font-family="Arial" font-size="10.00">UART TX</text>
<text text-anchor="middle" x="1218.4" y="-141.5" font-family="Arial" font-size="10.00">Serial Output</text>
<text text-anchor="middle" x="1218.4" y="-130.5" font-family="Arial" font-size="10.00">ASCII responses</text>
</g>
<!-- cmd_parser -->
<g id="node4" class="node">
<title>cmd_parser</title>
<path fill="lightyellow" stroke="black" d="M421.35,-189C421.35,-189 352.35,-189 352.35,-189 346.35,-189 340.35,-183 340.35,-177 340.35,-177 340.35,-137 340.35,-137 340.35,-131 346.35,-125 352.35,-125 352.35,-125 421.35,-125 421.35,-125 427.35,-125 433.35,-131 433.35,-137 433.35,-137 433.35,-177 433.35,-177 433.35,-183 427.35,-189 421.35,-189"/>
<text text-anchor="middle" x="386.85" y="-177" font-family="Arial" font-size="10.00">Command Parser</text>
<text text-anchor="middle" x="386.85" y="-154" font-family="Arial" font-size="10.00">ASCII Decode</text>
<text text-anchor="middle" x="386.85" y="-143" font-family="Arial" font-size="10.00">W/R detection</text>
<text text-anchor="middle" x="386.85" y="-132" font-family="Arial" font-size="10.00">Hex conversion</text>
</g>
<!-- uart_rx&#45;&gt;cmd_parser -->
<g id="edge2" class="edge">
<title>uart_rx&#45;&gt;cmd_parser</title>
<path fill="none" stroke="black" d="M282.56,-157C297.48,-157 314.38,-157 330.13,-157"/>
<polygon fill="black" stroke="black" points="330.27,-160.5 340.27,-157 330.27,-153.5 330.27,-160.5"/>
<text text-anchor="middle" x="311.35" y="-159.8" font-family="Arial" font-size="9.00">bytes</text>
</g>
<!-- axi_wr -->
<g id="node5" class="node">
<title>axi_wr</title>
<path fill="lightgreen" stroke="black" d="M601.35,-159.5C601.35,-159.5 528.35,-159.5 528.35,-159.5 522.35,-159.5 516.35,-153.5 516.35,-147.5 516.35,-147.5 516.35,-118.5 516.35,-118.5 516.35,-112.5 522.35,-106.5 528.35,-106.5 528.35,-106.5 601.35,-106.5 601.35,-106.5 607.35,-106.5 613.35,-112.5 613.35,-118.5 613.35,-118.5 613.35,-147.5 613.35,-147.5 613.35,-153.5 607.35,-159.5 601.35,-159.5"/>
<text text-anchor="middle" x="564.85" y="-147.5" font-family="Arial" font-size="10.00">AXIL4 Master WR</text>
<text text-anchor="middle" x="564.85" y="-124.5" font-family="Arial" font-size="10.00">AW + W + B</text>
<text text-anchor="middle" x="564.85" y="-113.5" font-family="Arial" font-size="10.00">Transaction gen</text>
</g>
<!-- cmd_parser&#45;&gt;axi_wr -->
<g id="edge3" class="edge">
<title>cmd_parser&#45;&gt;axi_wr</title>
<path fill="none" stroke="black" d="M433.63,-150.76C455.72,-147.74 482.47,-144.1 505.96,-140.89"/>
<polygon fill="black" stroke="black" points="506.71,-144.32 516.15,-139.51 505.77,-137.39 506.71,-144.32"/>
<text text-anchor="middle" x="474.85" y="-159.8" font-family="Arial" font-size="9.00">write cmd</text>
<text text-anchor="middle" x="474.85" y="-149.8" font-family="Arial" font-size="9.00">addr + data</text>
</g>
<!-- axi_rd -->
<g id="node6" class="node">
<title>axi_rd</title>
<path fill="lightgreen" stroke="black" d="M600.35,-230.5C600.35,-230.5 529.35,-230.5 529.35,-230.5 523.35,-230.5 517.35,-224.5 517.35,-218.5 517.35,-218.5 517.35,-189.5 517.35,-189.5 517.35,-183.5 523.35,-177.5 529.35,-177.5 529.35,-177.5 600.35,-177.5 600.35,-177.5 606.35,-177.5 612.35,-183.5 612.35,-189.5 612.35,-189.5 612.35,-218.5 612.35,-218.5 612.35,-224.5 606.35,-230.5 600.35,-230.5"/>
<text text-anchor="middle" x="564.85" y="-218.5" font-family="Arial" font-size="10.00">AXIL4 Master RD</text>
<text text-anchor="middle" x="564.85" y="-195.5" font-family="Arial" font-size="10.00">AR + R</text>
<text text-anchor="middle" x="564.85" y="-184.5" font-family="Arial" font-size="10.00">Transaction gen</text>
</g>
<!-- cmd_parser&#45;&gt;axi_rd -->
<g id="edge4" class="edge">
<title>cmd_parser&#45;&gt;axi_rd</title>
<path fill="none" stroke="black" d="M433.63,-169.23C456.09,-175.22 483.36,-182.5 507.12,-188.85"/>
<polygon fill="black" stroke="black" points="506.51,-192.31 517.07,-191.51 508.31,-185.55 506.51,-192.31"/>
<text text-anchor="middle" x="474.85" y="-198.8" font-family="Arial" font-size="9.00">read cmd</text>
<text text-anchor="middle" x="474.85" y="-188.8" font-family="Arial" font-size="9.00">addr</text>
</g>
<!-- skid -->
<g id="node9" class="node">
<title>skid</title>
<path fill="pink" stroke="black" stroke-dasharray="5,2" d="M770.35,-159.5C770.35,-159.5 696.35,-159.5 696.35,-159.5 690.35,-159.5 684.35,-153.5 684.35,-147.5 684.35,-147.5 684.35,-118.5 684.35,-118.5 684.35,-112.5 690.35,-106.5 696.35,-106.5 696.35,-106.5 770.35,-106.5 770.35,-106.5 776.35,-106.5 782.35,-112.5 782.35,-118.5 782.35,-118.5 782.35,-147.5 782.35,-147.5 782.35,-153.5 776.35,-159.5 770.35,-159.5"/>
<text text-anchor="middle" x="733.35" y="-147.5" font-family="Arial" font-size="10.00">Skid Buffers</text>
<text text-anchor="middle" x="733.35" y="-124.5" font-family="Arial" font-size="10.00">Timing Isolation</text>
<text text-anchor="middle" x="733.35" y="-113.5" font-family="Arial" font-size="10.00">Decouple domains</text>
</g>
<!-- axi_wr&#45;&gt;skid -->
<g id="edge5" class="edge">
<title>axi_wr&#45;&gt;skid</title>
<path fill="none" stroke="black" stroke-dasharray="5,2" d="M613.56,-133C632.47,-133 654.38,-133 674.2,-133"/>
<polygon fill="black" stroke="black" points="674.34,-136.5 684.34,-133 674.34,-129.5 674.34,-136.5"/>
<text text-anchor="middle" x="648.85" y="-145.8" font-family="Arial" font-size="9.00">timing</text>
<text text-anchor="middle" x="648.85" y="-135.8" font-family="Arial" font-size="9.00">isolation</text>
</g>
<!-- axi_rd&#45;&gt;skid -->
<g id="edge6" class="edge">
<title>axi_rd&#45;&gt;skid</title>
<path fill="none" stroke="black" stroke-dasharray="5,2" d="M612.67,-184.03C631.94,-175.82 654.44,-166.22 674.71,-157.58"/>
<polygon fill="black" stroke="black" points="676.32,-160.7 684.14,-153.56 673.57,-154.26 676.32,-160.7"/>
<text text-anchor="middle" x="648.85" y="-186.8" font-family="Arial" font-size="9.00">timing</text>
<text text-anchor="middle" x="648.85" y="-176.8" font-family="Arial" font-size="9.00">isolation</text>
</g>
<!-- resp_fmt -->
<g id="node7" class="node">
<title>resp_fmt</title>
<path fill="lightyellow" stroke="black" d="M929.85,-182C929.85,-182 876.85,-182 876.85,-182 870.85,-182 864.85,-176 864.85,-170 864.85,-170 864.85,-130 864.85,-130 864.85,-124 870.85,-118 876.85,-118 876.85,-118 929.85,-118 929.85,-118 935.85,-118 941.85,-124 941.85,-130 941.85,-130 941.85,-170 941.85,-170 941.85,-176 935.85,-182 929.85,-182"/>
<text text-anchor="middle" x="903.35" y="-170" font-family="Arial" font-size="10.00">Response</text>
<text text-anchor="middle" x="903.35" y="-159" font-family="Arial" font-size="10.00">Formatter</text>
<text text-anchor="middle" x="903.35" y="-136" font-family="Arial" font-size="10.00">Hex → ASCII</text>
<text text-anchor="middle" x="903.35" y="-125" font-family="Arial" font-size="10.00">Error codes</text>
</g>
<!-- uart_tx -->
<g id="node8" class="node">
<title>uart_tx</title>
<path fill="khaki" stroke="black" d="M1082.35,-176.5C1082.35,-176.5 1017.35,-176.5 1017.35,-176.5 1011.35,-176.5 1005.35,-170.5 1005.35,-164.5 1005.35,-164.5 1005.35,-135.5 1005.35,-135.5 1005.35,-129.5 1011.35,-123.5 1017.35,-123.5 1017.35,-123.5 1082.35,-123.5 1082.35,-123.5 1088.35,-123.5 1094.35,-129.5 1094.35,-135.5 1094.35,-135.5 1094.35,-164.5 1094.35,-164.5 1094.35,-170.5 1088.35,-176.5 1082.35,-176.5"/>
<text text-anchor="middle" x="1049.85" y="-164.5" font-family="Arial" font-size="10.00">UART TX</text>
<text text-anchor="middle" x="1049.85" y="-141.5" font-family="Arial" font-size="10.00">Parallel → Serial</text>
<text text-anchor="middle" x="1049.85" y="-130.5" font-family="Arial" font-size="10.00">Baud clock gen</text>
</g>
<!-- resp_fmt&#45;&gt;uart_tx -->
<g id="edge12" class="edge">
<title>resp_fmt&#45;&gt;uart_tx</title>
<path fill="none" stroke="black" d="M941.94,-150C958.16,-150 977.43,-150 995.11,-150"/>
<polygon fill="black" stroke="black" points="995.31,-153.5 1005.31,-150 995.31,-146.5 995.31,-153.5"/>
<text text-anchor="middle" x="975.35" y="-152.8" font-family="Arial" font-size="9.00">ASCII</text>
</g>
<!-- uart_tx&#45;&gt;uart_out -->
<g id="edge13" class="edge">
<title>uart_tx&#45;&gt;uart_out</title>
<path fill="none" stroke="black" d="M1094.61,-150C1109.46,-150 1126.48,-150 1143.03,-150"/>
<polygon fill="black" stroke="black" points="1143.26,-153.5 1153.26,-150 1143.26,-146.5 1143.26,-153.5"/>
<text text-anchor="middle" x="1123.85" y="-152.8" font-family="Arial" font-size="9.00">serial</text>
</g>
<!-- skid&#45;&gt;resp_fmt -->
<g id="edge11" class="edge">
<title>skid&#45;&gt;resp_fmt</title>
<path fill="none" stroke="black" stroke-dasharray="5,2" d="M782.49,-137.87C805.11,-140.16 832,-142.88 854.57,-145.17"/>
<polygon fill="black" stroke="black" points="854.31,-148.66 864.61,-146.18 855.01,-141.69 854.31,-148.66"/>
<text text-anchor="middle" x="821.85" y="-156.8" font-family="Arial" font-size="9.00">read data</text>
<text text-anchor="middle" x="821.85" y="-146.8" font-family="Arial" font-size="9.00">errors</text>
</g>
<!-- axil_aw -->
<g id="node10" class="node">
<title>axil_aw</title>
<path fill="lightcoral" stroke="black" d="M933.35,-90C933.35,-90 873.35,-90 873.35,-90 867.35,-90 861.35,-84 861.35,-78 861.35,-78 861.35,-66 861.35,-66 861.35,-60 867.35,-54 873.35,-54 873.35,-54 933.35,-54 933.35,-54 939.35,-54 945.35,-60 945.35,-66 945.35,-66 945.35,-78 945.35,-78 945.35,-84 939.35,-90 933.35,-90"/>
<text text-anchor="middle" x="903.35" y="-75" font-family="Arial" font-size="10.00">AXIL4 AW/W/B</text>
<text text-anchor="middle" x="903.35" y="-64" font-family="Arial" font-size="10.00">Channels</text>
</g>
<!-- skid&#45;&gt;axil_aw -->
<g id="edge7" class="edge">
<title>skid&#45;&gt;axil_aw</title>
<path fill="none" stroke="black" d="M782.51,-116.63C801.52,-110.06 823.52,-102.32 843.35,-95 846.06,-94 848.83,-92.96 851.63,-91.91"/>
<polygon fill="black" stroke="black" points="853.06,-95.11 861.16,-88.28 850.57,-88.57 853.06,-95.11"/>
<text text-anchor="middle" x="821.85" y="-112.8" font-family="Arial" font-size="9.00">isolated</text>
</g>
<!-- axil_ar -->
<g id="node11" class="node">
<title>axil_ar</title>
<path fill="lightcoral" stroke="black" d="M926.85,-36C926.85,-36 879.85,-36 879.85,-36 873.85,-36 867.85,-30 867.85,-24 867.85,-24 867.85,-12 867.85,-12 867.85,-6 873.85,0 879.85,0 879.85,0 926.85,0 926.85,0 932.85,0 938.85,-6 938.85,-12 938.85,-12 938.85,-24 938.85,-24 938.85,-30 932.85,-36 926.85,-36"/>
<text text-anchor="middle" x="903.35" y="-21" font-family="Arial" font-size="10.00">AXIL4 AR/R</text>
<text text-anchor="middle" x="903.35" y="-10" font-family="Arial" font-size="10.00">Channels</text>
</g>
<!-- skid&#45;&gt;axil_ar -->
<g id="edge8" class="edge">
<title>skid&#45;&gt;axil_ar</title>
<path fill="none" stroke="black" d="M753.66,-106.29C765.71,-91.12 782.33,-72.68 800.35,-60 817.82,-47.71 839.44,-38.15 858.26,-31.28"/>
<polygon fill="black" stroke="black" points="859.54,-34.55 867.82,-27.94 857.22,-27.94 859.54,-34.55"/>
<text text-anchor="middle" x="821.85" y="-62.8" font-family="Arial" font-size="9.00">isolated</text>
</g>
<!-- axil_aw&#45;&gt;skid -->
<g id="edge9" class="edge">
<title>axil_aw&#45;&gt;skid</title>
<path fill="none" stroke="black" stroke-dasharray="5,2" d="M850.87,-72.84C834.29,-74.47 816.13,-77.74 800.35,-84 787.09,-89.27 774.11,-97.89 763.23,-106.45"/>
<polygon fill="black" stroke="black" points="851.27,-76.32 860.95,-72.03 850.7,-69.34 851.27,-76.32"/>
<text text-anchor="middle" x="821.85" y="-86.8" font-family="Arial" font-size="9.00">responses</text>
</g>
<!-- axil_ar&#45;&gt;skid -->
<g id="edge10" class="edge">
<title>axil_ar&#45;&gt;skid</title>
<path fill="none" stroke="black" stroke-dasharray="5,2" d="M857.24,-11.8C838.45,-11.38 817.14,-13.88 800.35,-24 770.04,-42.28 751.83,-80.28 742.44,-106.22"/>
<polygon fill="black" stroke="black" points="857.21,-15.31 867.38,-12.31 857.57,-8.32 857.21,-15.31"/>
<text text-anchor="middle" x="821.85" y="-26.8" font-family="Arial" font-size="9.00">responses</text>
</g>
</g>
</svg>
