<?xml version="1.0" encoding="UTF-8" standalone="no"?>
<!DOCTYPE svg PUBLIC "-//W3C//DTD SVG 1.1//EN"
 "http://www.w3.org/Graphics/SVG/1.1/DTD/svg11.dtd">
<!-- Generated by graphviz version 2.43.0 (0)
 -->
<!-- Title: rtc_top Pages: 1 -->
<svg width="1100pt" height="296pt"
 viewBox="0.00 0.00 1100.08 295.74" xmlns="http://www.w3.org/2000/svg" xmlns:xlink="http://www.w3.org/1999/xlink">
<g id="graph0" class="graph" transform="scale(1 1) rotate(0) translate(4 291.74)">
<title>rtc_top</title>
<polygon fill="white" stroke="transparent" points="-4,4 -4,-291.74 1096.08,-291.74 1096.08,4 -4,4"/>
<g id="clust1" class="cluster">
<title>cluster_rtc</title>
<path fill="none" stroke="black" d="M197.08,-61.87C197.08,-61.87 997.08,-61.87 997.08,-61.87 1003.08,-61.87 1009.08,-67.87 1009.08,-73.87 1009.08,-73.87 1009.08,-213.87 1009.08,-213.87 1009.08,-219.87 1003.08,-225.87 997.08,-225.87 997.08,-225.87 197.08,-225.87 197.08,-225.87 191.08,-225.87 185.08,-219.87 185.08,-213.87 185.08,-213.87 185.08,-73.87 185.08,-73.87 185.08,-67.87 191.08,-61.87 197.08,-61.87"/>
<text text-anchor="middle" x="597.08" y="-210.67" font-family="Times,serif" font-size="14.00">apb_rtc</text>
</g>
<!-- clk_32k -->
<g id="node1" class="node">
<title>clk_32k</title>
<ellipse fill="lightgreen" stroke="black" cx="233.58" cy="-260.87" rx="69.09" ry="26.74"/>
<text text-anchor="middle" x="233.58" y="-264.67" font-family="Times,serif" font-size="14.00">32.768 kHz</text>
<text text-anchor="middle" x="233.58" y="-249.67" font-family="Times,serif" font-size="14.00">Oscillator</text>
</g>
<!-- divider -->
<g id="node5" class="node">
<title>divider</title>
<path fill="lightcyan" stroke="black" d="M422.48,-194.37C422.48,-194.37 377.48,-194.37 377.48,-194.37 371.48,-194.37 365.48,-188.37 365.48,-182.37 365.48,-182.37 365.48,-153.37 365.48,-153.37 365.48,-147.37 371.48,-141.37 377.48,-141.37 377.48,-141.37 422.48,-141.37 422.48,-141.37 428.48,-141.37 434.48,-147.37 434.48,-153.37 434.48,-153.37 434.48,-182.37 434.48,-182.37 434.48,-188.37 428.48,-194.37 422.48,-194.37"/>
<text text-anchor="middle" x="399.98" y="-179.17" font-family="Times,serif" font-size="14.00">Clock</text>
<text text-anchor="middle" x="399.98" y="-164.17" font-family="Times,serif" font-size="14.00">Divider</text>
<text text-anchor="middle" x="399.98" y="-149.17" font-family="Times,serif" font-size="14.00">(1 Hz)</text>
</g>
<!-- clk_32k&#45;&gt;divider -->
<g id="edge4" class="edge">
<title>clk_32k&#45;&gt;divider</title>
<path fill="none" stroke="black" d="M280.59,-241.11C288.13,-237.55 295.79,-233.74 302.87,-229.87 321.13,-219.91 340.53,-207.72 357.09,-196.79"/>
<polygon fill="black" stroke="black" points="359.09,-199.67 365.47,-191.21 355.21,-193.84 359.09,-199.67"/>
</g>
<!-- apb_in -->
<g id="node2" class="node">
<title>apb_in</title>
<ellipse fill="lightgreen" stroke="black" cx="63.64" cy="-91.87" rx="63.78" ry="26.74"/>
<text text-anchor="middle" x="63.64" y="-95.67" font-family="Times,serif" font-size="14.00">APB Slave</text>
<text text-anchor="middle" x="63.64" y="-80.67" font-family="Times,serif" font-size="14.00">Interface</text>
</g>
<!-- apb_if -->
<g id="node3" class="node">
<title>apb_if</title>
<path fill="lightyellow" stroke="black" d="M262.08,-110.87C262.08,-110.87 205.08,-110.87 205.08,-110.87 199.08,-110.87 193.08,-104.87 193.08,-98.87 193.08,-98.87 193.08,-84.87 193.08,-84.87 193.08,-78.87 199.08,-72.87 205.08,-72.87 205.08,-72.87 262.08,-72.87 262.08,-72.87 268.08,-72.87 274.08,-78.87 274.08,-84.87 274.08,-84.87 274.08,-98.87 274.08,-98.87 274.08,-104.87 268.08,-110.87 262.08,-110.87"/>
<text text-anchor="middle" x="233.58" y="-95.67" font-family="Times,serif" font-size="14.00">APB</text>
<text text-anchor="middle" x="233.58" y="-80.67" font-family="Times,serif" font-size="14.00">Interface</text>
</g>
<!-- apb_in&#45;&gt;apb_if -->
<g id="edge1" class="edge">
<title>apb_in&#45;&gt;apb_if</title>
<path fill="none" stroke="black" d="M127.65,-91.87C145.69,-91.87 165.1,-91.87 182.26,-91.87"/>
<polygon fill="black" stroke="black" points="182.63,-95.37 192.63,-91.87 182.63,-88.37 182.63,-95.37"/>
</g>
<!-- regs -->
<g id="node4" class="node">
<title>regs</title>
<path fill="lightyellow" stroke="black" d="M426.48,-116.87C426.48,-116.87 373.48,-116.87 373.48,-116.87 367.48,-116.87 361.48,-110.87 361.48,-104.87 361.48,-104.87 361.48,-90.87 361.48,-90.87 361.48,-84.87 367.48,-78.87 373.48,-78.87 373.48,-78.87 426.48,-78.87 426.48,-78.87 432.48,-78.87 438.48,-84.87 438.48,-90.87 438.48,-90.87 438.48,-104.87 438.48,-104.87 438.48,-110.87 432.48,-116.87 426.48,-116.87"/>
<text text-anchor="middle" x="399.98" y="-101.67" font-family="Times,serif" font-size="14.00">Register</text>
<text text-anchor="middle" x="399.98" y="-86.67" font-family="Times,serif" font-size="14.00">File</text>
</g>
<!-- apb_if&#45;&gt;regs -->
<g id="edge2" class="edge">
<title>apb_if&#45;&gt;regs</title>
<path fill="none" stroke="black" d="M274.37,-93.32C297.49,-94.17 326.76,-95.23 351.13,-96.12"/>
<polygon fill="black" stroke="black" points="351.12,-99.63 361.24,-96.49 351.37,-92.63 351.12,-99.63"/>
</g>
<!-- apb_out -->
<g id="node10" class="node">
<title>apb_out</title>
<ellipse fill="pink" stroke="black" cx="399.98" cy="-26.87" rx="60.21" ry="26.74"/>
<text text-anchor="middle" x="399.98" y="-30.67" font-family="Times,serif" font-size="14.00">APB</text>
<text text-anchor="middle" x="399.98" y="-15.67" font-family="Times,serif" font-size="14.00">Response</text>
</g>
<!-- apb_if&#45;&gt;apb_out -->
<g id="edge3" class="edge">
<title>apb_if&#45;&gt;apb_out</title>
<path fill="none" stroke="black" d="M274.37,-76.14C295.59,-67.75 321.99,-57.31 345.02,-48.2"/>
<polygon fill="black" stroke="black" points="346.32,-51.45 354.33,-44.52 343.74,-44.94 346.32,-51.45"/>
</g>
<!-- time_cnt -->
<g id="node6" class="node">
<title>time_cnt</title>
<path fill="lightcyan" stroke="black" d="M623.08,-174.37C623.08,-174.37 542.08,-174.37 542.08,-174.37 536.08,-174.37 530.08,-168.37 530.08,-162.37 530.08,-162.37 530.08,-133.37 530.08,-133.37 530.08,-127.37 536.08,-121.37 542.08,-121.37 542.08,-121.37 623.08,-121.37 623.08,-121.37 629.08,-121.37 635.08,-127.37 635.08,-133.37 635.08,-133.37 635.08,-162.37 635.08,-162.37 635.08,-168.37 629.08,-174.37 623.08,-174.37"/>
<text text-anchor="middle" x="582.58" y="-159.17" font-family="Times,serif" font-size="14.00">Time</text>
<text text-anchor="middle" x="582.58" y="-144.17" font-family="Times,serif" font-size="14.00">Counters</text>
<text text-anchor="middle" x="582.58" y="-129.17" font-family="Times,serif" font-size="14.00">(sec to year)</text>
</g>
<!-- regs&#45;&gt;time_cnt -->
<g id="edge6" class="edge">
<title>regs&#45;&gt;time_cnt</title>
<path fill="none" stroke="black" d="M438.59,-95.74C460.52,-95.6 488.42,-97.33 512.08,-104.87 520.63,-107.59 529.19,-111.59 537.24,-116.07"/>
<polygon fill="black" stroke="black" points="535.69,-119.22 546.08,-121.29 539.25,-113.2 535.69,-119.22"/>
</g>
<!-- alarm -->
<g id="node7" class="node">
<title>alarm</title>
<path fill="lightcyan" stroke="black" d="M819.08,-160.87C819.08,-160.87 741.08,-160.87 741.08,-160.87 735.08,-160.87 729.08,-154.87 729.08,-148.87 729.08,-148.87 729.08,-134.87 729.08,-134.87 729.08,-128.87 735.08,-122.87 741.08,-122.87 741.08,-122.87 819.08,-122.87 819.08,-122.87 825.08,-122.87 831.08,-128.87 831.08,-134.87 831.08,-134.87 831.08,-148.87 831.08,-148.87 831.08,-154.87 825.08,-160.87 819.08,-160.87"/>
<text text-anchor="middle" x="780.08" y="-145.67" font-family="Times,serif" font-size="14.00">Alarm</text>
<text text-anchor="middle" x="780.08" y="-130.67" font-family="Times,serif" font-size="14.00">Comparator</text>
</g>
<!-- regs&#45;&gt;alarm -->
<g id="edge9" class="edge">
<title>regs&#45;&gt;alarm</title>
<path fill="none" stroke="black" d="M438.61,-95.53C451.16,-94.85 465.22,-94.2 478.08,-93.87 547.86,-92.06 566.22,-86.44 635.08,-97.87 663.32,-102.56 693.75,-111.29 719.33,-119.74"/>
<polygon fill="black" stroke="black" points="718.29,-123.08 728.88,-122.96 720.52,-116.45 718.29,-123.08"/>
<text text-anchor="middle" x="582.58" y="-101.67" font-family="Times,serif" font-size="14.00">alarm</text>
</g>
<!-- divider&#45;&gt;time_cnt -->
<g id="edge5" class="edge">
<title>divider&#45;&gt;time_cnt</title>
<path fill="none" stroke="black" d="M434.52,-164.16C458.33,-161.52 490.98,-157.9 519.47,-154.75"/>
<polygon fill="black" stroke="black" points="520.2,-158.19 529.75,-153.61 519.43,-151.23 520.2,-158.19"/>
<text text-anchor="middle" x="495.08" y="-162.67" font-family="Times,serif" font-size="14.00">1 Hz</text>
</g>
<!-- int_gen -->
<g id="node8" class="node">
<title>int_gen</title>
<path fill="lightcyan" stroke="black" d="M989.08,-185.87C989.08,-185.87 924.08,-185.87 924.08,-185.87 918.08,-185.87 912.08,-179.87 912.08,-173.87 912.08,-173.87 912.08,-159.87 912.08,-159.87 912.08,-153.87 918.08,-147.87 924.08,-147.87 924.08,-147.87 989.08,-147.87 989.08,-147.87 995.08,-147.87 1001.08,-153.87 1001.08,-159.87 1001.08,-159.87 1001.08,-173.87 1001.08,-173.87 1001.08,-179.87 995.08,-185.87 989.08,-185.87"/>
<text text-anchor="middle" x="956.58" y="-170.67" font-family="Times,serif" font-size="14.00">Interrupt</text>
<text text-anchor="middle" x="956.58" y="-155.67" font-family="Times,serif" font-size="14.00">Generator</text>
</g>
<!-- divider&#45;&gt;int_gen -->
<g id="edge11" class="edge">
<title>divider&#45;&gt;int_gen</title>
<path fill="none" stroke="black" d="M434.57,-173.27C460.56,-177.14 497.5,-182 530.08,-183.87 626.29,-189.4 893.68,-174.9 894.08,-174.87 896.62,-174.66 899.21,-174.42 901.82,-174.16"/>
<polygon fill="black" stroke="black" points="902.39,-177.62 911.96,-173.06 901.64,-170.66 902.39,-177.62"/>
<text text-anchor="middle" x="682.08" y="-187.67" font-family="Times,serif" font-size="14.00">periodic</text>
</g>
<!-- time_cnt&#45;&gt;regs -->
<g id="edge7" class="edge">
<title>time_cnt&#45;&gt;regs</title>
<path fill="none" stroke="black" d="M530.07,-133.61C504.41,-126.51 473.59,-117.97 448.5,-111.03"/>
<polygon fill="black" stroke="black" points="449.41,-107.65 438.84,-108.35 447.54,-114.39 449.41,-107.65"/>
<text text-anchor="middle" x="495.08" y="-130.67" font-family="Times,serif" font-size="14.00">time</text>
</g>
<!-- time_cnt&#45;&gt;alarm -->
<g id="edge8" class="edge">
<title>time_cnt&#45;&gt;alarm</title>
<path fill="none" stroke="black" d="M635.2,-146.29C660.88,-145.5 692.07,-144.54 718.84,-143.72"/>
<polygon fill="black" stroke="black" points="718.97,-147.22 728.86,-143.41 718.76,-140.22 718.97,-147.22"/>
</g>
<!-- alarm&#45;&gt;int_gen -->
<g id="edge10" class="edge">
<title>alarm&#45;&gt;int_gen</title>
<path fill="none" stroke="black" d="M831.08,-149.03C853.18,-152.2 879.2,-155.93 901.72,-159.15"/>
<polygon fill="black" stroke="black" points="901.4,-162.64 911.8,-160.6 902.4,-155.71 901.4,-162.64"/>
<text text-anchor="middle" x="871.58" y="-160.67" font-family="Times,serif" font-size="14.00">match</text>
</g>
<!-- irq -->
<g id="node9" class="node">
<title>irq</title>
<ellipse fill="pink" stroke="black" cx="1065.08" cy="-166.87" rx="27" ry="18"/>
<text text-anchor="middle" x="1065.08" y="-163.17" font-family="Times,serif" font-size="14.00">irq</text>
</g>
<!-- int_gen&#45;&gt;irq -->
<g id="edge12" class="edge">
<title>int_gen&#45;&gt;irq</title>
<path fill="none" stroke="black" d="M1001.21,-166.87C1010.03,-166.87 1019.21,-166.87 1027.75,-166.87"/>
<polygon fill="black" stroke="black" points="1027.78,-170.37 1037.78,-166.87 1027.78,-163.37 1027.78,-170.37"/>
</g>
</g>
</svg>
