<?xml version="1.0" encoding="UTF-8" standalone="no"?><svg xmlns="http://www.w3.org/2000/svg" xmlns:xlink="http://www.w3.org/1999/xlink" contentStyleType="text/css" height="704px" preserveAspectRatio="none" style="width:450px;height:704px;background:#FFFFFF;" version="1.1" viewBox="0 0 450 704" width="450px" zoomAndPan="magnify"><defs/><g><!--MD5=[2b7409a316d9d2e410653e6983353aed]
class Module--><g id="elem_Module"><rect codeLine="2" fill="#F1F1F1" height="390.2344" id="Module" rx="2.5" ry="2.5" style="stroke:#181818;stroke-width:0.5;" width="436" x="7" y="307"/><ellipse cx="195.25" cy="323" fill="#ADD1B2" rx="11" ry="11" style="stroke:#181818;stroke-width:1.0;"/><path d="M198.2188,328.6406 Q197.6406,328.9375 197,329.0781 Q196.3594,329.2344 195.6563,329.2344 Q193.1563,329.2344 191.8281,327.5938 Q190.5156,325.9375 190.5156,322.8125 Q190.5156,319.6875 191.8281,318.0313 Q193.1563,316.375 195.6563,316.375 Q196.3594,316.375 197,316.5313 Q197.6563,316.6875 198.2188,316.9844 L198.2188,319.7031 Q197.5938,319.125 197,318.8594 Q196.4063,318.5781 195.7813,318.5781 Q194.4375,318.5781 193.75,319.6563 Q193.0625,320.7188 193.0625,322.8125 Q193.0625,324.9063 193.75,325.9844 Q194.4375,327.0469 195.7813,327.0469 Q196.4063,327.0469 197,326.7813 Q197.5938,326.5 198.2188,325.9219 L198.2188,328.6406 Z " fill="#000000"/><text fill="#000000" font-family="sans-serif" font-size="14" lengthAdjust="spacing" textLength="51" x="215.75" y="327.8467">Module</text><line style="stroke:#181818;stroke-width:0.5;" x1="8" x2="442" y1="339" y2="339"/><rect fill="none" height="6" style="stroke:#C82930;stroke-width:1.0;" width="6" x="15" y="349.6484"/><text fill="#000000" font-family="sans-serif" font-size="14" lengthAdjust="spacing" textLength="147" x="27" y="355.9951">start_instructions: list</text><rect fill="none" height="6" style="stroke:#C82930;stroke-width:1.0;" width="6" x="15" y="365.9453"/><text fill="#000000" font-family="sans-serif" font-size="14" lengthAdjust="spacing" textLength="109" x="27" y="372.292">instructions: list</text><rect fill="none" height="6" style="stroke:#C82930;stroke-width:1.0;" width="6" x="15" y="382.2422"/><text fill="#000000" font-family="sans-serif" font-size="14" lengthAdjust="spacing" textLength="143" x="27" y="388.5889">end_instructions: list</text><rect fill="none" height="6" style="stroke:#C82930;stroke-width:1.0;" width="6" x="15" y="398.5391"/><text fill="#000000" font-family="sans-serif" font-size="14" lengthAdjust="spacing" textLength="125" x="27" y="404.8857">module_name: str</text><rect fill="none" height="6" style="stroke:#C82930;stroke-width:1.0;" width="6" x="15" y="414.8359"/><text fill="#000000" font-family="sans-serif" font-size="14" lengthAdjust="spacing" textLength="132" x="27" y="421.1826">instance_name: str</text><rect fill="none" height="6" style="stroke:#C82930;stroke-width:1.0;" width="6" x="15" y="431.1328"/><text fill="#000000" font-family="sans-serif" font-size="14" lengthAdjust="spacing" textLength="103" x="27" y="437.4795">params: Param</text><rect fill="none" height="6" style="stroke:#C82930;stroke-width:1.0;" width="6" x="15" y="447.4297"/><text fill="#000000" font-family="sans-serif" font-size="14" lengthAdjust="spacing" textLength="86" x="27" y="453.7764">ports: Signal</text><rect fill="none" height="6" style="stroke:#C82930;stroke-width:1.0;" width="6" x="15" y="463.7266"/><text fill="#000000" font-family="sans-serif" font-size="14" lengthAdjust="spacing" textLength="64" x="27" y="470.0732">wires: list</text><line style="stroke:#181818;stroke-width:0.5;" x1="8" x2="442" y1="477.375" y2="477.375"/><ellipse cx="18" cy="491.0234" fill="#84BE84" rx="3" ry="3" style="stroke:#038048;stroke-width:1.0;"/><text fill="#000000" font-family="sans-serif" font-size="14" lengthAdjust="spacing" textLength="375" x="27" y="494.3701">__init__(module_name: str = '', instance_name: str = '')</text><ellipse cx="18" cy="507.3203" fill="#84BE84" rx="3" ry="3" style="stroke:#038048;stroke-width:1.0;"/><text fill="#000000" font-family="sans-serif" font-size="14" lengthAdjust="spacing" textLength="217" x="27" y="510.667">add_port_string(ports: str): void</text><ellipse cx="18" cy="523.6172" fill="#84BE84" rx="3" ry="3" style="stroke:#038048;stroke-width:1.0;"/><text fill="#000000" font-family="sans-serif" font-size="14" lengthAdjust="spacing" textLength="213" x="27" y="526.9639">wire(name: str, _type: str): void</text><ellipse cx="18" cy="539.9141" fill="#84BE84" rx="3" ry="3" style="stroke:#038048;stroke-width:1.0;"/><text fill="#000000" font-family="sans-serif" font-size="14" lengthAdjust="spacing" textLength="78" x="27" y="543.2607">start(): void</text><ellipse cx="18" cy="556.2109" fill="#84BE84" rx="3" ry="3" style="stroke:#038048;stroke-width:1.0;"/><text fill="#000000" font-family="sans-serif" font-size="14" lengthAdjust="spacing" textLength="74" x="27" y="559.5576">end(): void</text><ellipse cx="18" cy="572.5078" fill="#84BE84" rx="3" ry="3" style="stroke:#038048;stroke-width:1.0;"/><text fill="#000000" font-family="sans-serif" font-size="14" lengthAdjust="spacing" textLength="234" x="27" y="575.8545">stmt_assign(lhs: str, rhs: str): void</text><ellipse cx="18" cy="588.8047" fill="#84BE84" rx="3" ry="3" style="stroke:#038048;stroke-width:1.0;"/><text fill="#000000" font-family="sans-serif" font-size="14" lengthAdjust="spacing" textLength="220" x="27" y="592.1514">instruction(instruction: str): void</text><ellipse cx="18" cy="605.1016" fill="#84BE84" rx="3" ry="3" style="stroke:#038048;stroke-width:1.0;"/><text fill="#000000" font-family="sans-serif" font-size="14" lengthAdjust="spacing" textLength="148" x="27" y="608.4482">comment(c: str): void</text><ellipse cx="18" cy="621.3984" fill="#84BE84" rx="3" ry="3" style="stroke:#038048;stroke-width:1.0;"/><text fill="#000000" font-family="sans-serif" font-size="14" lengthAdjust="spacing" textLength="257" x="27" y="624.7451">write(file_path: str, filename: str): void</text><ellipse cx="18" cy="637.6953" fill="#84BE84" rx="3" ry="3" style="stroke:#038048;stroke-width:1.0;"/><text fill="#000000" font-family="sans-serif" font-size="14" lengthAdjust="spacing" textLength="410" x="27" y="641.042">instantiate(instance_name: str, inputs: list, outputs: list): str</text><ellipse cx="18" cy="653.9922" fill="#84BE84" rx="3" ry="3" style="stroke:#038048;stroke-width:1.0;"/><text fill="#000000" font-family="sans-serif" font-size="14" lengthAdjust="spacing" textLength="83" x="27" y="657.3389">__str__(): str</text><ellipse cx="18" cy="670.2891" fill="#84BE84" rx="3" ry="3" style="stroke:#038048;stroke-width:1.0;"/><text fill="#000000" font-family="sans-serif" font-size="14" lengthAdjust="spacing" textLength="295" x="27" y="673.6357">in_connector(port: str, connector: str): dict</text><ellipse cx="18" cy="686.5859" fill="#84BE84" rx="3" ry="3" style="stroke:#038048;stroke-width:1.0;"/><text fill="#000000" font-family="sans-serif" font-size="14" lengthAdjust="spacing" textLength="306" x="27" y="689.9326">out_connector(port: str, connector: str): dict</text></g><!--MD5=[4f5b670af930b5244dcb7fc0e9dc6959]
class PG--><g id="elem_PG"><rect codeLine="3" fill="#F1F1F1" height="80.5938" id="PG" rx="2.5" ry="2.5" style="stroke:#181818;stroke-width:0.5;" width="202" x="230" y="165"/><ellipse cx="316.75" cy="181" fill="#ADD1B2" rx="11" ry="11" style="stroke:#181818;stroke-width:1.0;"/><path d="M319.7188,186.6406 Q319.1406,186.9375 318.5,187.0781 Q317.8594,187.2344 317.1563,187.2344 Q314.6563,187.2344 313.3281,185.5938 Q312.0156,183.9375 312.0156,180.8125 Q312.0156,177.6875 313.3281,176.0313 Q314.6563,174.375 317.1563,174.375 Q317.8594,174.375 318.5,174.5313 Q319.1563,174.6875 319.7188,174.9844 L319.7188,177.7031 Q319.0938,177.125 318.5,176.8594 Q317.9063,176.5781 317.2813,176.5781 Q315.9375,176.5781 315.25,177.6563 Q314.5625,178.7188 314.5625,180.8125 Q314.5625,182.9063 315.25,183.9844 Q315.9375,185.0469 317.2813,185.0469 Q317.9063,185.0469 318.5,184.7813 Q319.0938,184.5 319.7188,183.9219 L319.7188,186.6406 Z " fill="#000000"/><text fill="#000000" font-family="sans-serif" font-size="14" lengthAdjust="spacing" textLength="20" x="337.25" y="185.8467">PG</text><line style="stroke:#181818;stroke-width:0.5;" x1="231" x2="431" y1="197" y2="197"/><line style="stroke:#181818;stroke-width:0.5;" x1="231" x2="431" y1="205" y2="205"/><ellipse cx="241" cy="218.6484" fill="#84BE84" rx="3" ry="3" style="stroke:#038048;stroke-width:1.0;"/><text fill="#000000" font-family="sans-serif" font-size="14" lengthAdjust="spacing" textLength="30" x="250" y="221.9951">PG()</text><ellipse cx="241" cy="234.9453" fill="#84BE84" rx="3" ry="3" style="stroke:#038048;stroke-width:1.0;"/><text fill="#000000" font-family="sans-serif" font-size="14" lengthAdjust="spacing" textLength="176" x="250" y="238.292">verilog(file_path: str): void</text></g><!--MD5=[4c93468a45730ed918ff5815e1025429]
class BitwisePGLogic--><g id="elem_BitwisePGLogic"><rect codeLine="4" fill="#F1F1F1" height="80.5938" id="BitwisePGLogic" rx="2.5" ry="2.5" style="stroke:#181818;stroke-width:0.5;" width="230" x="91" y="7"/><ellipse cx="149.25" cy="23" fill="#ADD1B2" rx="11" ry="11" style="stroke:#181818;stroke-width:1.0;"/><path d="M152.2188,28.6406 Q151.6406,28.9375 151,29.0781 Q150.3594,29.2344 149.6563,29.2344 Q147.1563,29.2344 145.8281,27.5938 Q144.5156,25.9375 144.5156,22.8125 Q144.5156,19.6875 145.8281,18.0313 Q147.1563,16.375 149.6563,16.375 Q150.3594,16.375 151,16.5313 Q151.6563,16.6875 152.2188,16.9844 L152.2188,19.7031 Q151.5938,19.125 151,18.8594 Q150.4063,18.5781 149.7813,18.5781 Q148.4375,18.5781 147.75,19.6563 Q147.0625,20.7188 147.0625,22.8125 Q147.0625,24.9063 147.75,25.9844 Q148.4375,27.0469 149.7813,27.0469 Q150.4063,27.0469 151,26.7813 Q151.5938,26.5 152.2188,25.9219 L152.2188,28.6406 Z " fill="#000000"/><text fill="#000000" font-family="sans-serif" font-size="14" lengthAdjust="spacing" textLength="105" x="169.75" y="27.8467">BitwisePGLogic</text><line style="stroke:#181818;stroke-width:0.5;" x1="92" x2="320" y1="39" y2="39"/><line style="stroke:#181818;stroke-width:0.5;" x1="92" x2="320" y1="47" y2="47"/><ellipse cx="102" cy="60.6484" fill="#84BE84" rx="3" ry="3" style="stroke:#038048;stroke-width:1.0;"/><text fill="#000000" font-family="sans-serif" font-size="14" lengthAdjust="spacing" textLength="204" x="111" y="63.9951">BitwisePGLogic(buswidth: int)</text><ellipse cx="102" cy="76.9453" fill="#84BE84" rx="3" ry="3" style="stroke:#038048;stroke-width:1.0;"/><text fill="#000000" font-family="sans-serif" font-size="14" lengthAdjust="spacing" textLength="176" x="111" y="80.292">verilog(file_path: str): void</text></g><!--MD5=[8492c3ebab75a5258ed75422cb6dcc17]
link PG to Module--><g id="link_PG_Module"><path codeLine="8" d="M316.7,246.22 C312.36,258.28 307.26,272.47 301.72,287.86 " fill="none" id="PG-to-Module" style="stroke:#181818;stroke-width:1.0;"/><polygon fill="none" points="308.26,290.35,294.9,306.8,295.09,285.61,308.26,290.35" style="stroke:#181818;stroke-width:1.0;"/></g><!--MD5=[4f83008b24b3e18c671753220646e024]
link BitwisePGLogic to Module--><g id="link_BitwisePGLogic_Module"><path codeLine="9" d="M207.27,88.23 C208.58,128.11 210.74,191.32 213,246 C213.55,259.24 214.13,272.87 214.73,286.61 " fill="none" id="BitwisePGLogic-to-Module" style="stroke:#181818;stroke-width:1.0;"/><polygon fill="none" points="221.73,286.5,215.63,306.79,207.75,287.12,221.73,286.5" style="stroke:#181818;stroke-width:1.0;"/></g><!--MD5=[61cc98ee5387257dad8d39ee727eb429]
link BitwisePGLogic to PG--><g id="link_BitwisePGLogic_PG"><path codeLine="10" d="M237.87,88.27 C255.57,110.36 277.63,137.9 295.84,160.62 " fill="none" id="BitwisePGLogic-to-PG" style="stroke:#181818;stroke-width:1.0;"/><polygon fill="#181818" points="299.19,164.8,296.6785,155.2768,296.0613,160.8998,290.4382,160.2827,299.19,164.8" style="stroke:#181818;stroke-width:1.0;"/><text fill="#000000" font-family="sans-serif" font-size="13" lengthAdjust="spacing" textLength="30" x="273" y="131.0669">uses</text></g><!--MD5=[a97c10d05ab1355c30eda6ccdcb610ad]
@startuml Adder_BitwisePGLogic
!include verilog_Module_UML.puml
!include Adder_PG_UML.puml

class BitwisePGLogic {
  + BitwisePGLogic(buswidth: int)
  + verilog(file_path: str): void
}

BitwisePGLogic - -|> Module
BitwisePGLogic - -> PG: uses

@enduml

@startuml Adder_BitwisePGLogic

class Module {
  - start_instructions: list
  - instructions: list
  - end_instructions: list
  - module_name: str
  - instance_name: str
  - params: Param
  - ports: Signal
  - wires: list

  + __init__(module_name: str = '', instance_name: str = '')
  + add_port_string(ports: str): void
  + wire(name: str, _type: str): void
  + start(): void
  + end(): void
  + stmt_assign(lhs: str, rhs: str): void
  + instruction(instruction: str): void
  + comment(c: str): void
  + write(file_path: str, filename: str): void
  + instantiate(instance_name: str, inputs: list, outputs: list): str
  + __str__(): str
  + in_connector(port: str, connector: str): dict
  + out_connector(port: str, connector: str): dict
}


class PG {
  + PG()
  + verilog(file_path: str): void
}

PG - -|> Module


class BitwisePGLogic {
  + BitwisePGLogic(buswidth: int)
  + verilog(file_path: str): void
}

BitwisePGLogic - -|> Module
BitwisePGLogic - -> PG: uses

@enduml

PlantUML version 1.2022.7(Mon Aug 22 10:01:30 PDT 2022)
(GPL source distribution)
Java Runtime: OpenJDK Runtime Environment
JVM: OpenJDK 64-Bit Server VM
Default Encoding: UTF-8
Language: en
Country: US
--></g></svg>