<?xml version="1.0" encoding="UTF-8" standalone="no"?><svg xmlns="http://www.w3.org/2000/svg" xmlns:xlink="http://www.w3.org/1999/xlink" contentStyleType="text/css" height="1202px" preserveAspectRatio="none" style="width:1061px;height:1202px;background:#FFFFFF;" version="1.1" viewBox="0 0 1061 1202" width="1061px" zoomAndPan="magnify"><defs/><g><!--MD5=[2b7409a316d9d2e410653e6983353aed]
class Module--><g id="elem_Module"><rect codeLine="2" fill="#F1F1F1" height="390.2344" id="Module" rx="2.5" ry="2.5" style="stroke:#181818;stroke-width:0.5;" width="436" x="228.2" y="805"/><ellipse cx="416.45" cy="821" fill="#ADD1B2" rx="11" ry="11" style="stroke:#181818;stroke-width:1.0;"/><path d="M419.4188,826.6406 Q418.8406,826.9375 418.2,827.0781 Q417.5594,827.2344 416.8563,827.2344 Q414.3563,827.2344 413.0281,825.5938 Q411.7156,823.9375 411.7156,820.8125 Q411.7156,817.6875 413.0281,816.0313 Q414.3563,814.375 416.8563,814.375 Q417.5594,814.375 418.2,814.5313 Q418.8563,814.6875 419.4188,814.9844 L419.4188,817.7031 Q418.7938,817.125 418.2,816.8594 Q417.6063,816.5781 416.9813,816.5781 Q415.6375,816.5781 414.95,817.6563 Q414.2625,818.7188 414.2625,820.8125 Q414.2625,822.9063 414.95,823.9844 Q415.6375,825.0469 416.9813,825.0469 Q417.6063,825.0469 418.2,824.7813 Q418.7938,824.5 419.4188,823.9219 L419.4188,826.6406 Z " fill="#000000"/><text fill="#000000" font-family="sans-serif" font-size="14" lengthAdjust="spacing" textLength="51" x="436.95" y="825.8467">Module</text><line style="stroke:#181818;stroke-width:0.5;" x1="229.2" x2="663.2" y1="837" y2="837"/><rect fill="none" height="6" style="stroke:#C82930;stroke-width:1.0;" width="6" x="236.2" y="847.6484"/><text fill="#000000" font-family="sans-serif" font-size="14" lengthAdjust="spacing" textLength="147" x="248.2" y="853.9951">start_instructions: list</text><rect fill="none" height="6" style="stroke:#C82930;stroke-width:1.0;" width="6" x="236.2" y="863.9453"/><text fill="#000000" font-family="sans-serif" font-size="14" lengthAdjust="spacing" textLength="109" x="248.2" y="870.292">instructions: list</text><rect fill="none" height="6" style="stroke:#C82930;stroke-width:1.0;" width="6" x="236.2" y="880.2422"/><text fill="#000000" font-family="sans-serif" font-size="14" lengthAdjust="spacing" textLength="143" x="248.2" y="886.5889">end_instructions: list</text><rect fill="none" height="6" style="stroke:#C82930;stroke-width:1.0;" width="6" x="236.2" y="896.5391"/><text fill="#000000" font-family="sans-serif" font-size="14" lengthAdjust="spacing" textLength="125" x="248.2" y="902.8857">module_name: str</text><rect fill="none" height="6" style="stroke:#C82930;stroke-width:1.0;" width="6" x="236.2" y="912.8359"/><text fill="#000000" font-family="sans-serif" font-size="14" lengthAdjust="spacing" textLength="132" x="248.2" y="919.1826">instance_name: str</text><rect fill="none" height="6" style="stroke:#C82930;stroke-width:1.0;" width="6" x="236.2" y="929.1328"/><text fill="#000000" font-family="sans-serif" font-size="14" lengthAdjust="spacing" textLength="103" x="248.2" y="935.4795">params: Param</text><rect fill="none" height="6" style="stroke:#C82930;stroke-width:1.0;" width="6" x="236.2" y="945.4297"/><text fill="#000000" font-family="sans-serif" font-size="14" lengthAdjust="spacing" textLength="86" x="248.2" y="951.7764">ports: Signal</text><rect fill="none" height="6" style="stroke:#C82930;stroke-width:1.0;" width="6" x="236.2" y="961.7266"/><text fill="#000000" font-family="sans-serif" font-size="14" lengthAdjust="spacing" textLength="64" x="248.2" y="968.0732">wires: list</text><line style="stroke:#181818;stroke-width:0.5;" x1="229.2" x2="663.2" y1="975.375" y2="975.375"/><ellipse cx="239.2" cy="989.0234" fill="#84BE84" rx="3" ry="3" style="stroke:#038048;stroke-width:1.0;"/><text fill="#000000" font-family="sans-serif" font-size="14" lengthAdjust="spacing" textLength="375" x="248.2" y="992.3701">__init__(module_name: str = '', instance_name: str = '')</text><ellipse cx="239.2" cy="1005.3203" fill="#84BE84" rx="3" ry="3" style="stroke:#038048;stroke-width:1.0;"/><text fill="#000000" font-family="sans-serif" font-size="14" lengthAdjust="spacing" textLength="217" x="248.2" y="1008.667">add_port_string(ports: str): void</text><ellipse cx="239.2" cy="1021.6172" fill="#84BE84" rx="3" ry="3" style="stroke:#038048;stroke-width:1.0;"/><text fill="#000000" font-family="sans-serif" font-size="14" lengthAdjust="spacing" textLength="213" x="248.2" y="1024.9639">wire(name: str, _type: str): void</text><ellipse cx="239.2" cy="1037.9141" fill="#84BE84" rx="3" ry="3" style="stroke:#038048;stroke-width:1.0;"/><text fill="#000000" font-family="sans-serif" font-size="14" lengthAdjust="spacing" textLength="78" x="248.2" y="1041.2607">start(): void</text><ellipse cx="239.2" cy="1054.2109" fill="#84BE84" rx="3" ry="3" style="stroke:#038048;stroke-width:1.0;"/><text fill="#000000" font-family="sans-serif" font-size="14" lengthAdjust="spacing" textLength="74" x="248.2" y="1057.5576">end(): void</text><ellipse cx="239.2" cy="1070.5078" fill="#84BE84" rx="3" ry="3" style="stroke:#038048;stroke-width:1.0;"/><text fill="#000000" font-family="sans-serif" font-size="14" lengthAdjust="spacing" textLength="234" x="248.2" y="1073.8545">stmt_assign(lhs: str, rhs: str): void</text><ellipse cx="239.2" cy="1086.8047" fill="#84BE84" rx="3" ry="3" style="stroke:#038048;stroke-width:1.0;"/><text fill="#000000" font-family="sans-serif" font-size="14" lengthAdjust="spacing" textLength="220" x="248.2" y="1090.1514">instruction(instruction: str): void</text><ellipse cx="239.2" cy="1103.1016" fill="#84BE84" rx="3" ry="3" style="stroke:#038048;stroke-width:1.0;"/><text fill="#000000" font-family="sans-serif" font-size="14" lengthAdjust="spacing" textLength="148" x="248.2" y="1106.4482">comment(c: str): void</text><ellipse cx="239.2" cy="1119.3984" fill="#84BE84" rx="3" ry="3" style="stroke:#038048;stroke-width:1.0;"/><text fill="#000000" font-family="sans-serif" font-size="14" lengthAdjust="spacing" textLength="257" x="248.2" y="1122.7451">write(file_path: str, filename: str): void</text><ellipse cx="239.2" cy="1135.6953" fill="#84BE84" rx="3" ry="3" style="stroke:#038048;stroke-width:1.0;"/><text fill="#000000" font-family="sans-serif" font-size="14" lengthAdjust="spacing" textLength="410" x="248.2" y="1139.042">instantiate(instance_name: str, inputs: list, outputs: list): str</text><ellipse cx="239.2" cy="1151.9922" fill="#84BE84" rx="3" ry="3" style="stroke:#038048;stroke-width:1.0;"/><text fill="#000000" font-family="sans-serif" font-size="14" lengthAdjust="spacing" textLength="83" x="248.2" y="1155.3389">__str__(): str</text><ellipse cx="239.2" cy="1168.2891" fill="#84BE84" rx="3" ry="3" style="stroke:#038048;stroke-width:1.0;"/><text fill="#000000" font-family="sans-serif" font-size="14" lengthAdjust="spacing" textLength="295" x="248.2" y="1171.6357">in_connector(port: str, connector: str): dict</text><ellipse cx="239.2" cy="1184.5859" fill="#84BE84" rx="3" ry="3" style="stroke:#038048;stroke-width:1.0;"/><text fill="#000000" font-family="sans-serif" font-size="14" lengthAdjust="spacing" textLength="306" x="248.2" y="1187.9326">out_connector(port: str, connector: str): dict</text></g><!--MD5=[4f5b670af930b5244dcb7fc0e9dc6959]
class PG--><g id="elem_PG"><rect codeLine="3" fill="#F1F1F1" height="80.5938" id="PG" rx="2.5" ry="2.5" style="stroke:#181818;stroke-width:0.5;" width="202" x="191.2" y="663"/><ellipse cx="277.95" cy="679" fill="#ADD1B2" rx="11" ry="11" style="stroke:#181818;stroke-width:1.0;"/><path d="M280.9188,684.6406 Q280.3406,684.9375 279.7,685.0781 Q279.0594,685.2344 278.3563,685.2344 Q275.8563,685.2344 274.5281,683.5938 Q273.2156,681.9375 273.2156,678.8125 Q273.2156,675.6875 274.5281,674.0313 Q275.8563,672.375 278.3563,672.375 Q279.0594,672.375 279.7,672.5313 Q280.3563,672.6875 280.9188,672.9844 L280.9188,675.7031 Q280.2938,675.125 279.7,674.8594 Q279.1063,674.5781 278.4813,674.5781 Q277.1375,674.5781 276.45,675.6563 Q275.7625,676.7188 275.7625,678.8125 Q275.7625,680.9063 276.45,681.9844 Q277.1375,683.0469 278.4813,683.0469 Q279.1063,683.0469 279.7,682.7813 Q280.2938,682.5 280.9188,681.9219 L280.9188,684.6406 Z " fill="#000000"/><text fill="#000000" font-family="sans-serif" font-size="14" lengthAdjust="spacing" textLength="20" x="298.45" y="683.8467">PG</text><line style="stroke:#181818;stroke-width:0.5;" x1="192.2" x2="392.2" y1="695" y2="695"/><line style="stroke:#181818;stroke-width:0.5;" x1="192.2" x2="392.2" y1="703" y2="703"/><ellipse cx="202.2" cy="716.6484" fill="#84BE84" rx="3" ry="3" style="stroke:#038048;stroke-width:1.0;"/><text fill="#000000" font-family="sans-serif" font-size="14" lengthAdjust="spacing" textLength="30" x="211.2" y="719.9951">PG()</text><ellipse cx="202.2" cy="732.9453" fill="#84BE84" rx="3" ry="3" style="stroke:#038048;stroke-width:1.0;"/><text fill="#000000" font-family="sans-serif" font-size="14" lengthAdjust="spacing" textLength="176" x="211.2" y="736.292">verilog(file_path: str): void</text></g><!--MD5=[4c93468a45730ed918ff5815e1025429]
class BitwisePGLogic--><g id="elem_BitwisePGLogic"><rect codeLine="4" fill="#F1F1F1" height="80.5938" id="BitwisePGLogic" rx="2.5" ry="2.5" style="stroke:#181818;stroke-width:0.5;" width="230" x="132.2" y="368"/><ellipse cx="190.45" cy="384" fill="#ADD1B2" rx="11" ry="11" style="stroke:#181818;stroke-width:1.0;"/><path d="M193.4188,389.6406 Q192.8406,389.9375 192.2,390.0781 Q191.5594,390.2344 190.8563,390.2344 Q188.3563,390.2344 187.0281,388.5938 Q185.7156,386.9375 185.7156,383.8125 Q185.7156,380.6875 187.0281,379.0313 Q188.3563,377.375 190.8563,377.375 Q191.5594,377.375 192.2,377.5313 Q192.8563,377.6875 193.4188,377.9844 L193.4188,380.7031 Q192.7938,380.125 192.2,379.8594 Q191.6063,379.5781 190.9813,379.5781 Q189.6375,379.5781 188.95,380.6563 Q188.2625,381.7188 188.2625,383.8125 Q188.2625,385.9063 188.95,386.9844 Q189.6375,388.0469 190.9813,388.0469 Q191.6063,388.0469 192.2,387.7813 Q192.7938,387.5 193.4188,386.9219 L193.4188,389.6406 Z " fill="#000000"/><text fill="#000000" font-family="sans-serif" font-size="14" lengthAdjust="spacing" textLength="105" x="210.95" y="388.8467">BitwisePGLogic</text><line style="stroke:#181818;stroke-width:0.5;" x1="133.2" x2="361.2" y1="400" y2="400"/><line style="stroke:#181818;stroke-width:0.5;" x1="133.2" x2="361.2" y1="408" y2="408"/><ellipse cx="143.2" cy="421.6484" fill="#84BE84" rx="3" ry="3" style="stroke:#038048;stroke-width:1.0;"/><text fill="#000000" font-family="sans-serif" font-size="14" lengthAdjust="spacing" textLength="204" x="152.2" y="424.9951">BitwisePGLogic(buswidth: int)</text><ellipse cx="143.2" cy="437.9453" fill="#84BE84" rx="3" ry="3" style="stroke:#038048;stroke-width:1.0;"/><text fill="#000000" font-family="sans-serif" font-size="14" lengthAdjust="spacing" textLength="176" x="152.2" y="441.292">verilog(file_path: str): void</text></g><!--MD5=[365150d8163e865a226452c70cc7ad9f]
class Black--><g id="elem_Black"><rect codeLine="3" fill="#F1F1F1" height="80.5938" id="Black" rx="2.5" ry="2.5" style="stroke:#181818;stroke-width:0.5;" width="202" x="499.2" y="663"/><ellipse cx="577.45" cy="679" fill="#ADD1B2" rx="11" ry="11" style="stroke:#181818;stroke-width:1.0;"/><path d="M580.4188,684.6406 Q579.8406,684.9375 579.2,685.0781 Q578.5594,685.2344 577.8563,685.2344 Q575.3563,685.2344 574.0281,683.5938 Q572.7156,681.9375 572.7156,678.8125 Q572.7156,675.6875 574.0281,674.0313 Q575.3563,672.375 577.8563,672.375 Q578.5594,672.375 579.2,672.5313 Q579.8563,672.6875 580.4188,672.9844 L580.4188,675.7031 Q579.7938,675.125 579.2,674.8594 Q578.6063,674.5781 577.9813,674.5781 Q576.6375,674.5781 575.95,675.6563 Q575.2625,676.7188 575.2625,678.8125 Q575.2625,680.9063 575.95,681.9844 Q576.6375,683.0469 577.9813,683.0469 Q578.6063,683.0469 579.2,682.7813 Q579.7938,682.5 580.4188,681.9219 L580.4188,684.6406 Z " fill="#000000"/><text fill="#000000" font-family="sans-serif" font-size="14" lengthAdjust="spacing" textLength="37" x="597.95" y="683.8467">Black</text><line style="stroke:#181818;stroke-width:0.5;" x1="500.2" x2="700.2" y1="695" y2="695"/><line style="stroke:#181818;stroke-width:0.5;" x1="500.2" x2="700.2" y1="703" y2="703"/><ellipse cx="510.2" cy="716.6484" fill="#84BE84" rx="3" ry="3" style="stroke:#038048;stroke-width:1.0;"/><text fill="#000000" font-family="sans-serif" font-size="14" lengthAdjust="spacing" textLength="47" x="519.2" y="719.9951">Black()</text><ellipse cx="510.2" cy="732.9453" fill="#84BE84" rx="3" ry="3" style="stroke:#038048;stroke-width:1.0;"/><text fill="#000000" font-family="sans-serif" font-size="14" lengthAdjust="spacing" textLength="176" x="519.2" y="736.292">verilog(file_path: str): void</text></g><!--MD5=[fa0ec411bd672e54a5650440425fcb69]
class Gray--><g id="elem_Gray"><rect codeLine="3" fill="#F1F1F1" height="80.5938" id="Gray" rx="2.5" ry="2.5" style="stroke:#181818;stroke-width:0.5;" width="202" x="736.2" y="663"/><ellipse cx="817.45" cy="679" fill="#ADD1B2" rx="11" ry="11" style="stroke:#181818;stroke-width:1.0;"/><path d="M820.4187,684.6406 Q819.8406,684.9375 819.2,685.0781 Q818.5594,685.2344 817.8562,685.2344 Q815.3562,685.2344 814.0281,683.5938 Q812.7156,681.9375 812.7156,678.8125 Q812.7156,675.6875 814.0281,674.0313 Q815.3562,672.375 817.8562,672.375 Q818.5594,672.375 819.2,672.5313 Q819.8562,672.6875 820.4187,672.9844 L820.4187,675.7031 Q819.7937,675.125 819.2,674.8594 Q818.6062,674.5781 817.9812,674.5781 Q816.6375,674.5781 815.95,675.6563 Q815.2625,676.7188 815.2625,678.8125 Q815.2625,680.9063 815.95,681.9844 Q816.6375,683.0469 817.9812,683.0469 Q818.6062,683.0469 819.2,682.7813 Q819.7937,682.5 820.4187,681.9219 L820.4187,684.6406 Z " fill="#000000"/><text fill="#000000" font-family="sans-serif" font-size="14" lengthAdjust="spacing" textLength="31" x="837.95" y="683.8467">Gray</text><line style="stroke:#181818;stroke-width:0.5;" x1="737.2" x2="937.2" y1="695" y2="695"/><line style="stroke:#181818;stroke-width:0.5;" x1="737.2" x2="937.2" y1="703" y2="703"/><ellipse cx="747.2" cy="716.6484" fill="#84BE84" rx="3" ry="3" style="stroke:#038048;stroke-width:1.0;"/><text fill="#000000" font-family="sans-serif" font-size="14" lengthAdjust="spacing" textLength="41" x="756.2" y="719.9951">Gray()</text><ellipse cx="747.2" cy="732.9453" fill="#84BE84" rx="3" ry="3" style="stroke:#038048;stroke-width:1.0;"/><text fill="#000000" font-family="sans-serif" font-size="14" lengthAdjust="spacing" textLength="176" x="756.2" y="736.292">verilog(file_path: str): void</text></g><!--MD5=[d8e9873004a19edea43cdbe6413562b5]
class GroupPGLogic--><g id="elem_GroupPGLogic"><rect codeLine="5" fill="#F1F1F1" height="227.2656" id="GroupPGLogic" rx="2.5" ry="2.5" style="stroke:#181818;stroke-width:0.5;" width="406" x="397.2" y="295"/><ellipse cx="546.45" cy="311" fill="#ADD1B2" rx="11" ry="11" style="stroke:#181818;stroke-width:1.0;"/><path d="M549.4188,316.6406 Q548.8406,316.9375 548.2,317.0781 Q547.5594,317.2344 546.8563,317.2344 Q544.3563,317.2344 543.0281,315.5938 Q541.7156,313.9375 541.7156,310.8125 Q541.7156,307.6875 543.0281,306.0313 Q544.3563,304.375 546.8563,304.375 Q547.5594,304.375 548.2,304.5313 Q548.8563,304.6875 549.4188,304.9844 L549.4188,307.7031 Q548.7938,307.125 548.2,306.8594 Q547.6063,306.5781 546.9813,306.5781 Q545.6375,306.5781 544.95,307.6563 Q544.2625,308.7188 544.2625,310.8125 Q544.2625,312.9063 544.95,313.9844 Q545.6375,315.0469 546.9813,315.0469 Q547.6063,315.0469 548.2,314.7813 Q548.7938,314.5 549.4188,313.9219 L549.4188,316.6406 Z " fill="#000000"/><text fill="#000000" font-family="sans-serif" font-size="14" lengthAdjust="spacing" textLength="99" x="566.95" y="315.8467">GroupPGLogic</text><line style="stroke:#181818;stroke-width:0.5;" x1="398.2" x2="802.2" y1="327" y2="327"/><line style="stroke:#181818;stroke-width:0.5;" x1="398.2" x2="802.2" y1="335" y2="335"/><ellipse cx="408.2" cy="348.6484" fill="#84BE84" rx="3" ry="3" style="stroke:#038048;stroke-width:1.0;"/><text fill="#000000" font-family="sans-serif" font-size="14" lengthAdjust="spacing" textLength="198" x="417.2" y="351.9951">GroupPGLogic(buswidth: int)</text><ellipse cx="408.2" cy="364.9453" fill="#84BE84" rx="3" ry="3" style="stroke:#038048;stroke-width:1.0;"/><text fill="#000000" font-family="sans-serif" font-size="14" lengthAdjust="spacing" textLength="222" x="417.2" y="368.292">generate_block_matrix(): list[list]</text><ellipse cx="408.2" cy="381.2422" fill="#84BE84" rx="3" ry="3" style="stroke:#038048;stroke-width:1.0;"/><text fill="#000000" font-family="sans-serif" font-size="14" lengthAdjust="spacing" textLength="80" x="417.2" y="384.5889">height(): int</text><ellipse cx="408.2" cy="397.5391" fill="#84BE84" rx="3" ry="3" style="stroke:#038048;stroke-width:1.0;"/><text fill="#000000" font-family="sans-serif" font-size="14" lengthAdjust="spacing" textLength="154" x="417.2" y="400.8857">p_i_j(i: int, row: int): str</text><ellipse cx="408.2" cy="413.8359" fill="#84BE84" rx="3" ry="3" style="stroke:#038048;stroke-width:1.0;"/><text fill="#000000" font-family="sans-serif" font-size="14" lengthAdjust="spacing" textLength="154" x="417.2" y="417.1826">g_i_j(i: int, row: int): str</text><ellipse cx="408.2" cy="430.1328" fill="#84BE84" rx="3" ry="3" style="stroke:#038048;stroke-width:1.0;"/><text fill="#000000" font-family="sans-serif" font-size="14" lengthAdjust="spacing" textLength="286" x="417.2" y="433.4795">naming_wired(row: int, i: int, arg2: str): str</text><ellipse cx="408.2" cy="446.4297" fill="#84BE84" rx="3" ry="3" style="stroke:#038048;stroke-width:1.0;"/><text fill="#000000" font-family="sans-serif" font-size="14" lengthAdjust="spacing" textLength="234" x="417.2" y="449.7764">input_i_j(r: int, c: int): tuple[int, int]</text><ellipse cx="408.2" cy="462.7266" fill="#84BE84" rx="3" ry="3" style="stroke:#038048;stroke-width:1.0;"/><text fill="#000000" font-family="sans-serif" font-size="14" lengthAdjust="spacing" textLength="245" x="417.2" y="466.0732">output_i_j(r: int, c: int): tuple[int, int]</text><ellipse cx="408.2" cy="479.0234" fill="#84BE84" rx="3" ry="3" style="stroke:#038048;stroke-width:1.0;"/><text fill="#000000" font-family="sans-serif" font-size="14" lengthAdjust="spacing" textLength="380" x="417.2" y="482.3701">black_block(r: int, c: int, block_in: int): tuple[list[str], str]</text><ellipse cx="408.2" cy="495.3203" fill="#84BE84" rx="3" ry="3" style="stroke:#038048;stroke-width:1.0;"/><text fill="#000000" font-family="sans-serif" font-size="14" lengthAdjust="spacing" textLength="373" x="417.2" y="498.667">gray_block(r: int, c: int, block_in: int): tuple[list[str], str]</text><ellipse cx="408.2" cy="511.6172" fill="#84BE84" rx="3" ry="3" style="stroke:#038048;stroke-width:1.0;"/><text fill="#000000" font-family="sans-serif" font-size="14" lengthAdjust="spacing" textLength="176" x="417.2" y="514.9639">verilog(file_path: str): void</text></g><!--MD5=[988f09b60dddb4012159ae49c3e2c2cb]
class SumLogic--><g id="elem_SumLogic"><rect codeLine="3" fill="#F1F1F1" height="80.5938" id="SumLogic" rx="2.5" ry="2.5" style="stroke:#181818;stroke-width:0.5;" width="202" x="852.2" y="552"/><ellipse cx="915.45" cy="568" fill="#ADD1B2" rx="11" ry="11" style="stroke:#181818;stroke-width:1.0;"/><path d="M918.4187,573.6406 Q917.8406,573.9375 917.2,574.0781 Q916.5594,574.2344 915.8562,574.2344 Q913.3562,574.2344 912.0281,572.5938 Q910.7156,570.9375 910.7156,567.8125 Q910.7156,564.6875 912.0281,563.0313 Q913.3562,561.375 915.8562,561.375 Q916.5594,561.375 917.2,561.5313 Q917.8562,561.6875 918.4187,561.9844 L918.4187,564.7031 Q917.7937,564.125 917.2,563.8594 Q916.6062,563.5781 915.9812,563.5781 Q914.6375,563.5781 913.95,564.6563 Q913.2625,565.7188 913.2625,567.8125 Q913.2625,569.9063 913.95,570.9844 Q914.6375,572.0469 915.9812,572.0469 Q916.6062,572.0469 917.2,571.7813 Q917.7937,571.5 918.4187,570.9219 L918.4187,573.6406 Z " fill="#000000"/><text fill="#000000" font-family="sans-serif" font-size="14" lengthAdjust="spacing" textLength="67" x="935.95" y="572.8467">SumLogic</text><line style="stroke:#181818;stroke-width:0.5;" x1="853.2" x2="1053.2" y1="584" y2="584"/><line style="stroke:#181818;stroke-width:0.5;" x1="853.2" x2="1053.2" y1="592" y2="592"/><ellipse cx="863.2" cy="605.6484" fill="#84BE84" rx="3" ry="3" style="stroke:#038048;stroke-width:1.0;"/><text fill="#000000" font-family="sans-serif" font-size="14" lengthAdjust="spacing" textLength="166" x="872.2" y="608.9951">SumLogic(buswidth: int)</text><ellipse cx="863.2" cy="621.9453" fill="#84BE84" rx="3" ry="3" style="stroke:#038048;stroke-width:1.0;"/><text fill="#000000" font-family="sans-serif" font-size="14" lengthAdjust="spacing" textLength="176" x="872.2" y="625.292">verilog(file_path: str): void</text></g><!--MD5=[bee26d6b608df66285504296f44b6ec6]
class BrentKungAdder--><g id="elem_BrentKungAdder"><rect codeLine="9" fill="#F1F1F1" height="210.9688" id="BrentKungAdder" rx="2.5" ry="2.5" style="stroke:#181818;stroke-width:0.5;" width="705" x="158.7" y="7"/><ellipse cx="449.45" cy="23" fill="#ADD1B2" rx="11" ry="11" style="stroke:#181818;stroke-width:1.0;"/><path d="M452.4188,28.6406 Q451.8406,28.9375 451.2,29.0781 Q450.5594,29.2344 449.8563,29.2344 Q447.3563,29.2344 446.0281,27.5938 Q444.7156,25.9375 444.7156,22.8125 Q444.7156,19.6875 446.0281,18.0313 Q447.3563,16.375 449.8563,16.375 Q450.5594,16.375 451.2,16.5313 Q451.8563,16.6875 452.4188,16.9844 L452.4188,19.7031 Q451.7938,19.125 451.2,18.8594 Q450.6063,18.5781 449.9813,18.5781 Q448.6375,18.5781 447.95,19.6563 Q447.2625,20.7188 447.2625,22.8125 Q447.2625,24.9063 447.95,25.9844 Q448.6375,27.0469 449.9813,27.0469 Q450.6063,27.0469 451.2,26.7813 Q451.7938,26.5 452.4188,25.9219 L452.4188,28.6406 Z " fill="#000000"/><text fill="#000000" font-family="sans-serif" font-size="14" lengthAdjust="spacing" textLength="115" x="469.95" y="27.8467">BrentKungAdder</text><line style="stroke:#181818;stroke-width:0.5;" x1="159.7" x2="862.7" y1="39" y2="39"/><line style="stroke:#181818;stroke-width:0.5;" x1="159.7" x2="862.7" y1="47" y2="47"/><ellipse cx="169.7" cy="60.6484" fill="#84BE84" rx="3" ry="3" style="stroke:#038048;stroke-width:1.0;"/><text fill="#000000" font-family="sans-serif" font-size="14" lengthAdjust="spacing" textLength="214" x="178.7" y="63.9951">BrentKungAdder(buswidth: int)</text><ellipse cx="169.7" cy="76.9453" fill="#84BE84" rx="3" ry="3" style="stroke:#038048;stroke-width:1.0;"/><text fill="#000000" font-family="sans-serif" font-size="14" lengthAdjust="spacing" textLength="200" x="178.7" y="80.292">bitwise_pg_logic_inputs(): list</text><ellipse cx="169.7" cy="93.2422" fill="#84BE84" rx="3" ry="3" style="stroke:#038048;stroke-width:1.0;"/><text fill="#000000" font-family="sans-serif" font-size="14" lengthAdjust="spacing" textLength="211" x="178.7" y="96.5889">bitwise_pg_logic_outputs(): list</text><ellipse cx="169.7" cy="109.5391" fill="#84BE84" rx="3" ry="3" style="stroke:#038048;stroke-width:1.0;"/><text fill="#000000" font-family="sans-serif" font-size="14" lengthAdjust="spacing" textLength="193" x="178.7" y="112.8857">group_pg_logic_inputs(): list</text><ellipse cx="169.7" cy="125.8359" fill="#84BE84" rx="3" ry="3" style="stroke:#038048;stroke-width:1.0;"/><text fill="#000000" font-family="sans-serif" font-size="14" lengthAdjust="spacing" textLength="204" x="178.7" y="129.1826">group_pg_logic_outputs(): list</text><ellipse cx="169.7" cy="142.1328" fill="#84BE84" rx="3" ry="3" style="stroke:#038048;stroke-width:1.0;"/><text fill="#000000" font-family="sans-serif" font-size="14" lengthAdjust="spacing" textLength="157" x="178.7" y="145.4795">sum_logic_inputs(): list</text><ellipse cx="169.7" cy="158.4297" fill="#84BE84" rx="3" ry="3" style="stroke:#038048;stroke-width:1.0;"/><text fill="#000000" font-family="sans-serif" font-size="14" lengthAdjust="spacing" textLength="168" x="178.7" y="161.7764">sum_logic_outputs(): list</text><ellipse cx="169.7" cy="174.7266" fill="#84BE84" rx="3" ry="3" style="stroke:#038048;stroke-width:1.0;"/><text fill="#000000" font-family="sans-serif" font-size="14" lengthAdjust="spacing" textLength="454" x="178.7" y="178.0732">add_new_wires(top_ports: list, prev_wires: list, new_wires: list): list</text><ellipse cx="169.7" cy="191.0234" fill="#84BE84" rx="3" ry="3" style="stroke:#038048;stroke-width:1.0;"/><text fill="#000000" font-family="sans-serif" font-size="14" lengthAdjust="spacing" textLength="679" x="178.7" y="194.3701">add_module(m: Module, instance_name: str, inputs: list, outputs: list, top_ports: list, wires: list): list</text><ellipse cx="169.7" cy="207.3203" fill="#84BE84" rx="3" ry="3" style="stroke:#038048;stroke-width:1.0;"/><text fill="#000000" font-family="sans-serif" font-size="14" lengthAdjust="spacing" textLength="176" x="178.7" y="210.667">verilog(file_path: str): void</text></g><!--MD5=[8492c3ebab75a5258ed75422cb6dcc17]
link PG to Module--><g id="link_PG_Module"><path codeLine="8" d="M312.97,744.22 C319.42,756.55 327.02,771.09 335.28,786.87 " fill="none" id="PG-to-Module" style="stroke:#181818;stroke-width:1.0;"/><polygon fill="none" points="341.59,783.83,344.65,804.8,329.18,790.32,341.59,783.83" style="stroke:#181818;stroke-width:1.0;"/></g><!--MD5=[4f83008b24b3e18c671753220646e024]
link BitwisePGLogic to Module--><g id="link_BitwisePGLogic_Module"><path codeLine="9" d="M223.17,449.13 C187.54,513.33 129.37,643.08 173.2,744 C184.02,768.89 198.59,792.46 215.4,814.47 " fill="none" id="BitwisePGLogic-to-Module" style="stroke:#181818;stroke-width:1.0;"/><polygon fill="none" points="220.97,810.23,228.01,830.22,210.05,818.99,220.97,810.23" style="stroke:#181818;stroke-width:1.0;"/></g><!--MD5=[61cc98ee5387257dad8d39ee727eb429]
link BitwisePGLogic to PG--><g id="link_BitwisePGLogic_PG"><path codeLine="10" d="M253.27,449.02 C261.61,503.3 276.56,600.67 285.31,657.63 " fill="none" id="BitwisePGLogic-to-PG" style="stroke:#181818;stroke-width:1.0;"/><polygon fill="#181818" points="286.09,662.68,288.6812,653.1781,285.3329,657.7376,280.7734,654.3894,286.09,662.68" style="stroke:#181818;stroke-width:1.0;"/><text fill="#000000" font-family="sans-serif" font-size="13" lengthAdjust="spacing" textLength="30" x="283.2" y="597.0669">uses</text></g><!--MD5=[cabe6d6949dbe1ac9ad5f8d8cfacd15a]
link Black to Module--><g id="link_Black_Module"><path codeLine="8" d="M579.44,744.22 C572.99,756.55 565.38,771.09 557.13,786.87 " fill="none" id="Black-to-Module" style="stroke:#181818;stroke-width:1.0;"/><polygon fill="none" points="563.23,790.32,547.76,804.8,550.82,783.83,563.23,790.32" style="stroke:#181818;stroke-width:1.0;"/></g><!--MD5=[e1039265efff5f52c6c2757191c4644e]
link Gray to Module--><g id="link_Gray_Module"><path codeLine="8" d="M784.47,744.22 C756.35,765.4 719.56,793.11 680.63,822.43 " fill="none" id="Gray-to-Module" style="stroke:#181818;stroke-width:1.0;"/><polygon fill="none" points="684.61,828.19,664.43,834.63,676.19,817.01,684.61,828.19" style="stroke:#181818;stroke-width:1.0;"/></g><!--MD5=[b42ada8a4f8232bed48a4c6a9be2a31d]
link GroupPGLogic to Module--><g id="link_GroupPGLogic_Module"><path codeLine="19" d="M538.03,522.23 C517,565.12 495.5,615.18 482.2,663 C471.43,701.74 463.85,743.82 458.52,784.67 " fill="none" id="GroupPGLogic-to-Module" style="stroke:#181818;stroke-width:1.0;"/><polygon fill="none" points="465.46,785.61,456.08,804.61,451.56,783.9,465.46,785.61" style="stroke:#181818;stroke-width:1.0;"/></g><!--MD5=[3728fd606d21a0bedae975c5595c750d]
link GroupPGLogic to Black--><g id="link_GroupPGLogic_Black"><path codeLine="20" d="M600.2,522.36 C600.2,569.53 600.2,621.62 600.2,657.6 " fill="none" id="GroupPGLogic-to-Black" style="stroke:#181818;stroke-width:1.0;"/><polygon fill="#181818" points="600.2,662.79,604.2,653.79,600.2,657.79,596.2,653.79,600.2,662.79" style="stroke:#181818;stroke-width:1.0;"/><text fill="#000000" font-family="sans-serif" font-size="13" lengthAdjust="spacing" textLength="32" x="601.2" y="597.0669">Uses</text></g><!--MD5=[47f31c495e3356bce9e9c745c62b263e]
link GroupPGLogic to Gray--><g id="link_GroupPGLogic_Gray"><path codeLine="21" d="M691.5,522.36 C729.96,569.92 772.48,622.48 801.6,658.48 " fill="none" id="GroupPGLogic-to-Gray" style="stroke:#181818;stroke-width:1.0;"/><polygon fill="#181818" points="805.09,662.79,802.5191,653.2826,801.937,658.9094,796.3102,658.3273,805.09,662.79" style="stroke:#181818;stroke-width:1.0;"/><text fill="#000000" font-family="sans-serif" font-size="13" lengthAdjust="spacing" textLength="32" x="780.2" y="597.0669">Uses</text></g><!--MD5=[d1fe40e36154d522ac97fa3dfbd0ce19]
link SumLogic to Module--><g id="link_SumLogic_Module"><path codeLine="8" d="M965.07,633.04 C972.3,665.33 976.68,710.88 956.2,744 C895.94,841.51 785.85,902.98 683.34,941.06 " fill="none" id="SumLogic-to-Module" style="stroke:#181818;stroke-width:1.0;"/><polygon fill="none" points="685.49,947.73,664.3,947.9,680.76,934.55,685.49,947.73" style="stroke:#181818;stroke-width:1.0;"/></g><!--MD5=[0d9e428ef927683c60a09a5a431a092e]
link BrentKungAdder to Module--><g id="link_BrentKungAdder_Module"><path codeLine="22" d="M188.85,218.3 C159.56,239.42 133.66,264.71 114.2,295 C6,463.44 58.99,565.79 150.2,744 C166.57,775.97 188.82,805.62 213.83,832.55 " fill="none" id="BrentKungAdder-to-Module" style="stroke:#181818;stroke-width:1.0;"/><polygon fill="none" points="219.14,827.97,227.99,847.22,209.07,837.69,219.14,827.97" style="stroke:#181818;stroke-width:1.0;"/></g><!--MD5=[cc39b59a1d76d6ead263955cbaa641fb]
link BrentKungAdder to BitwisePGLogic--><g id="link_BrentKungAdder_BitwisePGLogic"><path codeLine="23" d="M417.01,218.4 C372.15,268.36 320.92,325.4 286.57,363.66 " fill="none" id="BrentKungAdder-to-BitwisePGLogic" style="stroke:#181818;stroke-width:1.0;"/><polygon fill="#181818" points="282.89,367.76,291.8839,363.7462,286.2348,364.0435,285.9375,358.3945,282.89,367.76" style="stroke:#181818;stroke-width:1.0;"/><text fill="#000000" font-family="sans-serif" font-size="13" lengthAdjust="spacing" textLength="32" x="388.2" y="261.0669">Uses</text></g><!--MD5=[a82e69e6d32cca042495cf98265a1ba6]
link BrentKungAdder to GroupPGLogic--><g id="link_BrentKungAdder_GroupPGLogic"><path codeLine="24" d="M542.96,218.4 C549.97,241.57 557.45,266.26 564.6,289.9 " fill="none" id="BrentKungAdder-to-GroupPGLogic" style="stroke:#181818;stroke-width:1.0;"/><polygon fill="#181818" points="566.13,294.93,567.3351,285.1551,564.6736,290.1468,559.682,287.4853,566.13,294.93" style="stroke:#181818;stroke-width:1.0;"/><text fill="#000000" font-family="sans-serif" font-size="13" lengthAdjust="spacing" textLength="32" x="556.2" y="261.0669">Uses</text></g><!--MD5=[ee1d4b4427880be00ee15589d6304259]
link BrentKungAdder to SumLogic--><g id="link_BrentKungAdder_SumLogic"><path codeLine="25" d="M730.24,218.04 C763.43,240.27 795.21,265.95 821.2,295 C888.18,369.84 925.88,484.2 942.6,546.76 " fill="none" id="BrentKungAdder-to-SumLogic" style="stroke:#181818;stroke-width:1.0;"/><polygon fill="#181818" points="943.96,551.92,945.5364,542.1981,942.6868,547.0848,937.8001,544.2352,943.96,551.92" style="stroke:#181818;stroke-width:1.0;"/><text fill="#000000" font-family="sans-serif" font-size="13" lengthAdjust="spacing" textLength="32" x="787.2" y="261.0669">Uses</text></g><!--MD5=[737bb9536deff93f70f74524bc2dbd9f]
@startuml Adder_Brent_Kung_Diagram
!include verilog_Module_UML.puml
!include Adder_BitwisePGLogic_UML.puml
!include Adder_Black_UML.puml
!include Adder_Gray_UML.puml
!include Adder_GroupPGLogic_UML.puml
!include Adder_PG_UML.puml
!include Adder_Sum_UML.puml

class BrentKungAdder {
  + BrentKungAdder(buswidth: int)
  + bitwise_pg_logic_inputs(): list
  + bitwise_pg_logic_outputs(): list
  + group_pg_logic_inputs(): list
  + group_pg_logic_outputs(): list
  + sum_logic_inputs(): list
  + sum_logic_outputs(): list
  + add_new_wires(top_ports: list, prev_wires: list, new_wires: list): list
  + add_module(m: Module, instance_name: str, inputs: list, outputs: list, top_ports: list, wires: list): list
  + verilog(file_path: str): void
}

BrentKungAdder - -|> Module
BrentKungAdder - -> BitwisePGLogic: Uses
BrentKungAdder - -> GroupPGLogic: Uses
BrentKungAdder - -> SumLogic: Uses

@enduml

@startuml Adder_Brent_Kung_Diagram

class Module {
  - start_instructions: list
  - instructions: list
  - end_instructions: list
  - module_name: str
  - instance_name: str
  - params: Param
  - ports: Signal
  - wires: list

  + __init__(module_name: str = '', instance_name: str = '')
  + add_port_string(ports: str): void
  + wire(name: str, _type: str): void
  + start(): void
  + end(): void
  + stmt_assign(lhs: str, rhs: str): void
  + instruction(instruction: str): void
  + comment(c: str): void
  + write(file_path: str, filename: str): void
  + instantiate(instance_name: str, inputs: list, outputs: list): str
  + __str__(): str
  + in_connector(port: str, connector: str): dict
  + out_connector(port: str, connector: str): dict
}


class PG {
  + PG()
  + verilog(file_path: str): void
}

PG - -|> Module


class BitwisePGLogic {
  + BitwisePGLogic(buswidth: int)
  + verilog(file_path: str): void
}

BitwisePGLogic - -|> Module
BitwisePGLogic - -> PG: uses


class Black {
  + Black()
  + verilog(file_path: str): void
}

Black - -|> Module

class Gray {
  + Gray()
  + verilog(file_path: str): void
}

Gray - -|> Module

class GroupPGLogic {
  + GroupPGLogic(buswidth: int)
  + generate_block_matrix(): list[list]
  + height(): int
  + p_i_j(i: int, row: int): str
  + g_i_j(i: int, row: int): str
  + naming_wired(row: int, i: int, arg2: str): str
  + input_i_j(r: int, c: int): tuple[int, int]
  + output_i_j(r: int, c: int): tuple[int, int]
  + black_block(r: int, c: int, block_in: int): tuple[list[str], str]
  + gray_block(r: int, c: int, block_in: int): tuple[list[str], str]
  + verilog(file_path: str): void
}

GroupPGLogic - -|> Module
GroupPGLogic - -> Black: Uses
GroupPGLogic - -> Gray: Uses


class SumLogic {
  + SumLogic(buswidth: int)
  + verilog(file_path: str): void
}

SumLogic - -|> Module


class BrentKungAdder {
  + BrentKungAdder(buswidth: int)
  + bitwise_pg_logic_inputs(): list
  + bitwise_pg_logic_outputs(): list
  + group_pg_logic_inputs(): list
  + group_pg_logic_outputs(): list
  + sum_logic_inputs(): list
  + sum_logic_outputs(): list
  + add_new_wires(top_ports: list, prev_wires: list, new_wires: list): list
  + add_module(m: Module, instance_name: str, inputs: list, outputs: list, top_ports: list, wires: list): list
  + verilog(file_path: str): void
}

BrentKungAdder - -|> Module
BrentKungAdder - -> BitwisePGLogic: Uses
BrentKungAdder - -> GroupPGLogic: Uses
BrentKungAdder - -> SumLogic: Uses

@enduml

PlantUML version 1.2022.7(Mon Aug 22 10:01:30 PDT 2022)
(GPL source distribution)
Java Runtime: OpenJDK Runtime Environment
JVM: OpenJDK 64-Bit Server VM
Default Encoding: UTF-8
Language: en
Country: US
--></g></svg>