<?xml version="1.0" encoding="UTF-8" standalone="no"?><svg xmlns="http://www.w3.org/2000/svg" xmlns:xlink="http://www.w3.org/1999/xlink" contentStyleType="text/css" height="545px" preserveAspectRatio="none" style="width:450px;height:545px;background:#FFFFFF;" version="1.1" viewBox="0 0 450 545" width="450px" zoomAndPan="magnify"><defs/><g><!--MD5=[2b7409a316d9d2e410653e6983353aed]
class Module--><g id="elem_Module"><rect codeLine="2" fill="#F1F1F1" height="390.2344" id="Module" rx="2.5" ry="2.5" style="stroke:#181818;stroke-width:0.5;" width="436" x="7" y="148"/><ellipse cx="195.25" cy="164" fill="#ADD1B2" rx="11" ry="11" style="stroke:#181818;stroke-width:1.0;"/><path d="M198.2188,169.6406 Q197.6406,169.9375 197,170.0781 Q196.3594,170.2344 195.6563,170.2344 Q193.1563,170.2344 191.8281,168.5938 Q190.5156,166.9375 190.5156,163.8125 Q190.5156,160.6875 191.8281,159.0313 Q193.1563,157.375 195.6563,157.375 Q196.3594,157.375 197,157.5313 Q197.6563,157.6875 198.2188,157.9844 L198.2188,160.7031 Q197.5938,160.125 197,159.8594 Q196.4063,159.5781 195.7813,159.5781 Q194.4375,159.5781 193.75,160.6563 Q193.0625,161.7188 193.0625,163.8125 Q193.0625,165.9063 193.75,166.9844 Q194.4375,168.0469 195.7813,168.0469 Q196.4063,168.0469 197,167.7813 Q197.5938,167.5 198.2188,166.9219 L198.2188,169.6406 Z " fill="#000000"/><text fill="#000000" font-family="sans-serif" font-size="14" lengthAdjust="spacing" textLength="51" x="215.75" y="168.8467">Module</text><line style="stroke:#181818;stroke-width:0.5;" x1="8" x2="442" y1="180" y2="180"/><rect fill="none" height="6" style="stroke:#C82930;stroke-width:1.0;" width="6" x="15" y="190.6484"/><text fill="#000000" font-family="sans-serif" font-size="14" lengthAdjust="spacing" textLength="147" x="27" y="196.9951">start_instructions: list</text><rect fill="none" height="6" style="stroke:#C82930;stroke-width:1.0;" width="6" x="15" y="206.9453"/><text fill="#000000" font-family="sans-serif" font-size="14" lengthAdjust="spacing" textLength="109" x="27" y="213.292">instructions: list</text><rect fill="none" height="6" style="stroke:#C82930;stroke-width:1.0;" width="6" x="15" y="223.2422"/><text fill="#000000" font-family="sans-serif" font-size="14" lengthAdjust="spacing" textLength="143" x="27" y="229.5889">end_instructions: list</text><rect fill="none" height="6" style="stroke:#C82930;stroke-width:1.0;" width="6" x="15" y="239.5391"/><text fill="#000000" font-family="sans-serif" font-size="14" lengthAdjust="spacing" textLength="125" x="27" y="245.8857">module_name: str</text><rect fill="none" height="6" style="stroke:#C82930;stroke-width:1.0;" width="6" x="15" y="255.8359"/><text fill="#000000" font-family="sans-serif" font-size="14" lengthAdjust="spacing" textLength="132" x="27" y="262.1826">instance_name: str</text><rect fill="none" height="6" style="stroke:#C82930;stroke-width:1.0;" width="6" x="15" y="272.1328"/><text fill="#000000" font-family="sans-serif" font-size="14" lengthAdjust="spacing" textLength="103" x="27" y="278.4795">params: Param</text><rect fill="none" height="6" style="stroke:#C82930;stroke-width:1.0;" width="6" x="15" y="288.4297"/><text fill="#000000" font-family="sans-serif" font-size="14" lengthAdjust="spacing" textLength="86" x="27" y="294.7764">ports: Signal</text><rect fill="none" height="6" style="stroke:#C82930;stroke-width:1.0;" width="6" x="15" y="304.7266"/><text fill="#000000" font-family="sans-serif" font-size="14" lengthAdjust="spacing" textLength="64" x="27" y="311.0732">wires: list</text><line style="stroke:#181818;stroke-width:0.5;" x1="8" x2="442" y1="318.375" y2="318.375"/><ellipse cx="18" cy="332.0234" fill="#84BE84" rx="3" ry="3" style="stroke:#038048;stroke-width:1.0;"/><text fill="#000000" font-family="sans-serif" font-size="14" lengthAdjust="spacing" textLength="375" x="27" y="335.3701">__init__(module_name: str = '', instance_name: str = '')</text><ellipse cx="18" cy="348.3203" fill="#84BE84" rx="3" ry="3" style="stroke:#038048;stroke-width:1.0;"/><text fill="#000000" font-family="sans-serif" font-size="14" lengthAdjust="spacing" textLength="217" x="27" y="351.667">add_port_string(ports: str): void</text><ellipse cx="18" cy="364.6172" fill="#84BE84" rx="3" ry="3" style="stroke:#038048;stroke-width:1.0;"/><text fill="#000000" font-family="sans-serif" font-size="14" lengthAdjust="spacing" textLength="213" x="27" y="367.9639">wire(name: str, _type: str): void</text><ellipse cx="18" cy="380.9141" fill="#84BE84" rx="3" ry="3" style="stroke:#038048;stroke-width:1.0;"/><text fill="#000000" font-family="sans-serif" font-size="14" lengthAdjust="spacing" textLength="78" x="27" y="384.2607">start(): void</text><ellipse cx="18" cy="397.2109" fill="#84BE84" rx="3" ry="3" style="stroke:#038048;stroke-width:1.0;"/><text fill="#000000" font-family="sans-serif" font-size="14" lengthAdjust="spacing" textLength="74" x="27" y="400.5576">end(): void</text><ellipse cx="18" cy="413.5078" fill="#84BE84" rx="3" ry="3" style="stroke:#038048;stroke-width:1.0;"/><text fill="#000000" font-family="sans-serif" font-size="14" lengthAdjust="spacing" textLength="234" x="27" y="416.8545">stmt_assign(lhs: str, rhs: str): void</text><ellipse cx="18" cy="429.8047" fill="#84BE84" rx="3" ry="3" style="stroke:#038048;stroke-width:1.0;"/><text fill="#000000" font-family="sans-serif" font-size="14" lengthAdjust="spacing" textLength="220" x="27" y="433.1514">instruction(instruction: str): void</text><ellipse cx="18" cy="446.1016" fill="#84BE84" rx="3" ry="3" style="stroke:#038048;stroke-width:1.0;"/><text fill="#000000" font-family="sans-serif" font-size="14" lengthAdjust="spacing" textLength="148" x="27" y="449.4482">comment(c: str): void</text><ellipse cx="18" cy="462.3984" fill="#84BE84" rx="3" ry="3" style="stroke:#038048;stroke-width:1.0;"/><text fill="#000000" font-family="sans-serif" font-size="14" lengthAdjust="spacing" textLength="257" x="27" y="465.7451">write(file_path: str, filename: str): void</text><ellipse cx="18" cy="478.6953" fill="#84BE84" rx="3" ry="3" style="stroke:#038048;stroke-width:1.0;"/><text fill="#000000" font-family="sans-serif" font-size="14" lengthAdjust="spacing" textLength="410" x="27" y="482.042">instantiate(instance_name: str, inputs: list, outputs: list): str</text><ellipse cx="18" cy="494.9922" fill="#84BE84" rx="3" ry="3" style="stroke:#038048;stroke-width:1.0;"/><text fill="#000000" font-family="sans-serif" font-size="14" lengthAdjust="spacing" textLength="83" x="27" y="498.3389">__str__(): str</text><ellipse cx="18" cy="511.2891" fill="#84BE84" rx="3" ry="3" style="stroke:#038048;stroke-width:1.0;"/><text fill="#000000" font-family="sans-serif" font-size="14" lengthAdjust="spacing" textLength="295" x="27" y="514.6357">in_connector(port: str, connector: str): dict</text><ellipse cx="18" cy="527.5859" fill="#84BE84" rx="3" ry="3" style="stroke:#038048;stroke-width:1.0;"/><text fill="#000000" font-family="sans-serif" font-size="14" lengthAdjust="spacing" textLength="306" x="27" y="530.9326">out_connector(port: str, connector: str): dict</text></g><!--MD5=[4f5b670af930b5244dcb7fc0e9dc6959]
class PG--><g id="elem_PG"><rect codeLine="3" fill="#F1F1F1" height="80.5938" id="PG" rx="2.5" ry="2.5" style="stroke:#181818;stroke-width:0.5;" width="202" x="124" y="7"/><ellipse cx="210.75" cy="23" fill="#ADD1B2" rx="11" ry="11" style="stroke:#181818;stroke-width:1.0;"/><path d="M213.7188,28.6406 Q213.1406,28.9375 212.5,29.0781 Q211.8594,29.2344 211.1563,29.2344 Q208.6563,29.2344 207.3281,27.5938 Q206.0156,25.9375 206.0156,22.8125 Q206.0156,19.6875 207.3281,18.0313 Q208.6563,16.375 211.1563,16.375 Q211.8594,16.375 212.5,16.5313 Q213.1563,16.6875 213.7188,16.9844 L213.7188,19.7031 Q213.0938,19.125 212.5,18.8594 Q211.9063,18.5781 211.2813,18.5781 Q209.9375,18.5781 209.25,19.6563 Q208.5625,20.7188 208.5625,22.8125 Q208.5625,24.9063 209.25,25.9844 Q209.9375,27.0469 211.2813,27.0469 Q211.9063,27.0469 212.5,26.7813 Q213.0938,26.5 213.7188,25.9219 L213.7188,28.6406 Z " fill="#000000"/><text fill="#000000" font-family="sans-serif" font-size="14" lengthAdjust="spacing" textLength="20" x="231.25" y="27.8467">PG</text><line style="stroke:#181818;stroke-width:0.5;" x1="125" x2="325" y1="39" y2="39"/><line style="stroke:#181818;stroke-width:0.5;" x1="125" x2="325" y1="47" y2="47"/><ellipse cx="135" cy="60.6484" fill="#84BE84" rx="3" ry="3" style="stroke:#038048;stroke-width:1.0;"/><text fill="#000000" font-family="sans-serif" font-size="14" lengthAdjust="spacing" textLength="30" x="144" y="63.9951">PG()</text><ellipse cx="135" cy="76.9453" fill="#84BE84" rx="3" ry="3" style="stroke:#038048;stroke-width:1.0;"/><text fill="#000000" font-family="sans-serif" font-size="14" lengthAdjust="spacing" textLength="176" x="144" y="80.292">verilog(file_path: str): void</text></g><!--MD5=[8492c3ebab75a5258ed75422cb6dcc17]
link PG to Module--><g id="link_PG_Module"><path codeLine="8" d="M225,88.08 C225,99.54 225,112.91 225,127.42 " fill="none" id="PG-to-Module" style="stroke:#181818;stroke-width:1.0;"/><polygon fill="none" points="232,127.83,225,147.83,218,127.83,232,127.83" style="stroke:#181818;stroke-width:1.0;"/></g><!--MD5=[4cc0af6ff34a578d391c9d867ddf4236]
@startuml Adder_PG
!include verilog_Module_UML.puml

class PG {
  + PG()
  + verilog(file_path: str): void
}

PG - -|> Module

@enduml

@startuml Adder_PG

class Module {
  - start_instructions: list
  - instructions: list
  - end_instructions: list
  - module_name: str
  - instance_name: str
  - params: Param
  - ports: Signal
  - wires: list

  + __init__(module_name: str = '', instance_name: str = '')
  + add_port_string(ports: str): void
  + wire(name: str, _type: str): void
  + start(): void
  + end(): void
  + stmt_assign(lhs: str, rhs: str): void
  + instruction(instruction: str): void
  + comment(c: str): void
  + write(file_path: str, filename: str): void
  + instantiate(instance_name: str, inputs: list, outputs: list): str
  + __str__(): str
  + in_connector(port: str, connector: str): dict
  + out_connector(port: str, connector: str): dict
}


class PG {
  + PG()
  + verilog(file_path: str): void
}

PG - -|> Module

@enduml

PlantUML version 1.2022.7(Mon Aug 22 10:01:30 PDT 2022)
(GPL source distribution)
Java Runtime: OpenJDK Runtime Environment
JVM: OpenJDK 64-Bit Server VM
Default Encoding: UTF-8
Language: en
Country: US
--></g></svg>