<?xml version="1.0" encoding="UTF-8" standalone="no"?><svg xmlns="http://www.w3.org/2000/svg" xmlns:xlink="http://www.w3.org/1999/xlink" contentStyleType="text/css" height="429px" preserveAspectRatio="none" style="width:241px;height:429px;background:#FFFFFF;" version="1.1" viewBox="0 0 241 429" width="241px" zoomAndPan="magnify"><defs/><g><ellipse cx="120.5" cy="20" fill="#222222" rx="10" ry="10" style="stroke:#222222;stroke-width:1.0;"/><rect fill="#F1F1F1" height="33.9688" rx="12.5" ry="12.5" style="stroke:#181818;stroke-width:0.5;" width="219" x="11" y="50"/><text fill="#000000" font-family="sans-serif" font-size="12" lengthAdjust="spacing" textLength="199" x="21" y="71.1387">Parse command-line arguments</text><rect fill="#F1F1F1" height="33.9688" rx="12.5" ry="12.5" style="stroke:#181818;stroke-width:0.5;" width="136" x="52.5" y="152.3711"/><text fill="#000000" font-family="sans-serif" font-size="12" lengthAdjust="spacing" textLength="116" x="62.5" y="173.5098">Run Verible format</text><polygon fill="#F1F1F1" points="68,103.9688,173,103.9688,185,115.9688,173,127.9688,68,127.9688,56,115.9688,68,103.9688" style="stroke:#181818;stroke-width:0.5;"/><text fill="#000000" font-family="sans-serif" font-size="11" lengthAdjust="spacing" textLength="20" x="124.5" y="138.1792">yes</text><text fill="#000000" font-family="sans-serif" font-size="11" lengthAdjust="spacing" textLength="105" x="68" y="119.7769">Argument --format</text><polygon fill="#F1F1F1" points="120.5,206.3398,132.5,218.3398,120.5,230.3398,108.5,218.3398,120.5,206.3398" style="stroke:#181818;stroke-width:0.5;"/><rect fill="#F1F1F1" height="33.9688" rx="12.5" ry="12.5" style="stroke:#181818;stroke-width:0.5;" width="122" x="59.5" y="298.7422"/><text fill="#000000" font-family="sans-serif" font-size="12" lengthAdjust="spacing" textLength="102" x="69.5" y="319.8809">Run lint function</text><polygon fill="#F1F1F1" points="78.5,250.3398,162.5,250.3398,174.5,262.3398,162.5,274.3398,78.5,274.3398,66.5,262.3398,78.5,250.3398" style="stroke:#181818;stroke-width:0.5;"/><text fill="#000000" font-family="sans-serif" font-size="11" lengthAdjust="spacing" textLength="20" x="124.5" y="284.5503">yes</text><text fill="#000000" font-family="sans-serif" font-size="11" lengthAdjust="spacing" textLength="84" x="78.5" y="266.1479">Argument --lint</text><polygon fill="#F1F1F1" points="120.5,352.7109,132.5,364.7109,120.5,376.7109,108.5,364.7109,120.5,352.7109" style="stroke:#181818;stroke-width:0.5;"/><ellipse cx="120.5" cy="407.7109" fill="none" rx="11" ry="11" style="stroke:#222222;stroke-width:1.0;"/><ellipse cx="120.5" cy="407.7109" fill="#222222" rx="6" ry="6" style="stroke:#111111;stroke-width:1.0;"/><line style="stroke:#181818;stroke-width:1.0;" x1="120.5" x2="120.5" y1="30" y2="50"/><polygon fill="#181818" points="116.5,40,120.5,50,124.5,40,120.5,44" style="stroke:#181818;stroke-width:1.0;"/><line style="stroke:#181818;stroke-width:1.0;" x1="120.5" x2="120.5" y1="127.9688" y2="152.3711"/><polygon fill="#181818" points="116.5,142.3711,120.5,152.3711,124.5,142.3711,120.5,146.3711" style="stroke:#181818;stroke-width:1.0;"/><line style="stroke:#181818;stroke-width:1.0;" x1="185" x2="198.5" y1="115.9688" y2="115.9688"/><polygon fill="#181818" points="194.5,159.3555,198.5,169.3555,202.5,159.3555,198.5,163.3555" style="stroke:#181818;stroke-width:1.0;"/><line style="stroke:#181818;stroke-width:1.0;" x1="198.5" x2="198.5" y1="115.9688" y2="218.3398"/><line style="stroke:#181818;stroke-width:1.0;" x1="198.5" x2="132.5" y1="218.3398" y2="218.3398"/><polygon fill="#181818" points="142.5,214.3398,132.5,218.3398,142.5,222.3398,138.5,218.3398" style="stroke:#181818;stroke-width:1.0;"/><line style="stroke:#181818;stroke-width:1.0;" x1="120.5" x2="120.5" y1="186.3398" y2="206.3398"/><polygon fill="#181818" points="116.5,196.3398,120.5,206.3398,124.5,196.3398,120.5,200.3398" style="stroke:#181818;stroke-width:1.0;"/><line style="stroke:#181818;stroke-width:1.0;" x1="120.5" x2="120.5" y1="83.9688" y2="103.9688"/><polygon fill="#181818" points="116.5,93.9688,120.5,103.9688,124.5,93.9688,120.5,97.9688" style="stroke:#181818;stroke-width:1.0;"/><line style="stroke:#181818;stroke-width:1.0;" x1="120.5" x2="120.5" y1="274.3398" y2="298.7422"/><polygon fill="#181818" points="116.5,288.7422,120.5,298.7422,124.5,288.7422,120.5,292.7422" style="stroke:#181818;stroke-width:1.0;"/><line style="stroke:#181818;stroke-width:1.0;" x1="174.5" x2="191.5" y1="262.3398" y2="262.3398"/><polygon fill="#181818" points="187.5,305.7266,191.5,315.7266,195.5,305.7266,191.5,309.7266" style="stroke:#181818;stroke-width:1.0;"/><line style="stroke:#181818;stroke-width:1.0;" x1="191.5" x2="191.5" y1="262.3398" y2="364.7109"/><line style="stroke:#181818;stroke-width:1.0;" x1="191.5" x2="132.5" y1="364.7109" y2="364.7109"/><polygon fill="#181818" points="142.5,360.7109,132.5,364.7109,142.5,368.7109,138.5,364.7109" style="stroke:#181818;stroke-width:1.0;"/><line style="stroke:#181818;stroke-width:1.0;" x1="120.5" x2="120.5" y1="332.7109" y2="352.7109"/><polygon fill="#181818" points="116.5,342.7109,120.5,352.7109,124.5,342.7109,120.5,346.7109" style="stroke:#181818;stroke-width:1.0;"/><line style="stroke:#181818;stroke-width:1.0;" x1="120.5" x2="120.5" y1="230.3398" y2="250.3398"/><polygon fill="#181818" points="116.5,240.3398,120.5,250.3398,124.5,240.3398,120.5,244.3398" style="stroke:#181818;stroke-width:1.0;"/><line style="stroke:#181818;stroke-width:1.0;" x1="120.5" x2="120.5" y1="376.7109" y2="396.7109"/><polygon fill="#181818" points="116.5,386.7109,120.5,396.7109,124.5,386.7109,120.5,390.7109" style="stroke:#181818;stroke-width:1.0;"/><!--MD5=[03d0ab70d0c9dd6a21475a6272d42bf1]
@startuml bin_lint_wrap
start

:Parse command-line arguments;

if (Argument - -format) then (yes)
    :Run Verible format;
endif

if (Argument - -lint) then (yes)
    :Run lint function;
endif

stop
@enduml

PlantUML version 1.2022.7(Mon Aug 22 10:01:30 PDT 2022)
(GPL source distribution)
Java Runtime: OpenJDK Runtime Environment
JVM: OpenJDK 64-Bit Server VM
Default Encoding: UTF-8
Language: en
Country: US
--></g></svg>