<?xml version="1.0" encoding="UTF-8" standalone="no"?><svg xmlns="http://www.w3.org/2000/svg" xmlns:xlink="http://www.w3.org/1999/xlink" contentStyleType="text/css" height="134px" preserveAspectRatio="none" style="width:455px;height:134px;background:#FFFFFF;" version="1.1" viewBox="0 0 455 134" width="455px" zoomAndPan="magnify"><defs/><g><!--MD5=[6aeeca00952b491a8048154aec86509b]
class MultiplierMixin--><g id="elem_MultiplierMixin"><rect codeLine="2" fill="#F1F1F1" height="113.1875" id="MultiplierMixin" rx="2.5" ry="2.5" style="stroke:#181818;stroke-width:0.5;" width="434" x="7" y="7"/><ellipse cx="172.25" cy="23" fill="#ADD1B2" rx="11" ry="11" style="stroke:#181818;stroke-width:1.0;"/><path d="M175.2188,28.6406 Q174.6406,28.9375 174,29.0781 Q173.3594,29.2344 172.6563,29.2344 Q170.1563,29.2344 168.8281,27.5938 Q167.5156,25.9375 167.5156,22.8125 Q167.5156,19.6875 168.8281,18.0313 Q170.1563,16.375 172.6563,16.375 Q173.3594,16.375 174,16.5313 Q174.6563,16.6875 175.2188,16.9844 L175.2188,19.7031 Q174.5938,19.125 174,18.8594 Q173.4063,18.5781 172.7813,18.5781 Q171.4375,18.5781 170.75,19.6563 Q170.0625,20.7188 170.0625,22.8125 Q170.0625,24.9063 170.75,25.9844 Q171.4375,27.0469 172.7813,27.0469 Q173.4063,27.0469 174,26.7813 Q174.5938,26.5 175.2188,25.9219 L175.2188,28.6406 Z " fill="#000000"/><text fill="#000000" font-family="sans-serif" font-size="14" lengthAdjust="spacing" textLength="95" x="192.75" y="27.8467">MultiplierMixin</text><line style="stroke:#181818;stroke-width:0.5;" x1="8" x2="440" y1="39" y2="39"/><line style="stroke:#181818;stroke-width:0.5;" x1="8" x2="440" y1="47" y2="47"/><ellipse cx="18" cy="60.6484" fill="#84BE84" rx="3" ry="3" style="stroke:#038048;stroke-width:1.0;"/><text fill="#000000" font-family="sans-serif" font-size="14" lengthAdjust="spacing" textLength="278" x="27" y="63.9951">partial_products(N: int): Dict[int, List[str]]</text><ellipse cx="18" cy="76.9453" fill="#84BE84" rx="3" ry="3" style="stroke:#038048;stroke-width:1.0;"/><text fill="#000000" font-family="sans-serif" font-size="14" lengthAdjust="spacing" textLength="381" x="27" y="80.292">partial_products_booth_radix_4(N: int): Dict[int, List[str]]</text><ellipse cx="18" cy="93.2422" fill="#84BE84" rx="3" ry="3" style="stroke:#038048;stroke-width:1.0;"/><text fill="#000000" font-family="sans-serif" font-size="14" lengthAdjust="spacing" textLength="408" x="27" y="96.5889">generate_final_addition(bit_groups: Dict[int, List[str]], N: int)</text><ellipse cx="18" cy="109.5391" fill="#84BE84" rx="3" ry="3" style="stroke:#038048;stroke-width:1.0;"/><text fill="#000000" font-family="sans-serif" font-size="14" lengthAdjust="spacing" textLength="239" x="27" y="112.8857">generate_final_assignments(N: int)</text></g><!--MD5=[279b97eaba7219bc6390229b5c52ced1]
@startuml MultiplierMixin

class MultiplierMixin {
  + partial_products(N: int): Dict[int, List[str]]
  + partial_products_booth_radix_4(N: int): Dict[int, List[str]]
  + generate_final_addition(bit_groups: Dict[int, List[str]], N: int)
  + generate_final_assignments(N: int)
}

@enduml

PlantUML version 1.2022.7(Mon Aug 22 10:01:30 PDT 2022)
(GPL source distribution)
Java Runtime: OpenJDK Runtime Environment
JVM: OpenJDK 64-Bit Server VM
Default Encoding: UTF-8
Language: en
Country: US
--></g></svg>