<?xml version="1.0" encoding="UTF-8" standalone="no"?><svg xmlns="http://www.w3.org/2000/svg" xmlns:xlink="http://www.w3.org/1999/xlink" contentStyleType="text/css" height="431px" preserveAspectRatio="none" style="width:461px;height:431px;background:#FFFFFF;" version="1.1" viewBox="0 0 461 431" width="461px" zoomAndPan="magnify"><defs/><g><!--MD5=[905423cf6f2cdf96226207bc2e36c5da]
class REMatcher--><g id="elem_REMatcher"><rect codeLine="2" fill="#F1F1F1" height="129.4844" id="REMatcher" rx="2.5" ry="2.5" style="stroke:#181818;stroke-width:0.5;" width="193" x="134" y="295"/><ellipse cx="188.75" cy="311" fill="#ADD1B2" rx="11" ry="11" style="stroke:#181818;stroke-width:1.0;"/><path d="M191.7188,316.6406 Q191.1406,316.9375 190.5,317.0781 Q189.8594,317.2344 189.1563,317.2344 Q186.6563,317.2344 185.3281,315.5938 Q184.0156,313.9375 184.0156,310.8125 Q184.0156,307.6875 185.3281,306.0313 Q186.6563,304.375 189.1563,304.375 Q189.8594,304.375 190.5,304.5313 Q191.1563,304.6875 191.7188,304.9844 L191.7188,307.7031 Q191.0938,307.125 190.5,306.8594 Q189.9063,306.5781 189.2813,306.5781 Q187.9375,306.5781 187.25,307.6563 Q186.5625,308.7188 186.5625,310.8125 Q186.5625,312.9063 187.25,313.9844 Q187.9375,315.0469 189.2813,315.0469 Q189.9063,315.0469 190.5,314.7813 Q191.0938,314.5 191.7188,313.9219 L191.7188,316.6406 Z " fill="#000000"/><text fill="#000000" font-family="sans-serif" font-size="14" lengthAdjust="spacing" textLength="75" x="209.25" y="315.8467">REMatcher</text><line style="stroke:#181818;stroke-width:0.5;" x1="135" x2="326" y1="327" y2="327"/><rect fill="none" height="6" style="stroke:#C82930;stroke-width:1.0;" width="6" x="142" y="337.6484"/><text fill="#000000" font-family="sans-serif" font-size="14" lengthAdjust="spacing" textLength="109" x="154" y="343.9951">matchstring: str</text><rect fill="none" height="6" style="stroke:#C82930;stroke-width:1.0;" width="6" x="142" y="353.9453"/><text fill="#000000" font-family="sans-serif" font-size="14" lengthAdjust="spacing" textLength="108" x="154" y="360.292">rematch: Match</text><line style="stroke:#181818;stroke-width:0.5;" x1="135" x2="326" y1="367.5938" y2="367.5938"/><ellipse cx="145" cy="381.2422" fill="#84BE84" rx="3" ry="3" style="stroke:#038048;stroke-width:1.0;"/><text fill="#000000" font-family="sans-serif" font-size="14" lengthAdjust="spacing" textLength="167" x="154" y="384.5889">__init__(matchstring: str)</text><ellipse cx="145" cy="397.5391" fill="#84BE84" rx="3" ry="3" style="stroke:#038048;stroke-width:1.0;"/><text fill="#000000" font-family="sans-serif" font-size="14" lengthAdjust="spacing" textLength="167" x="154" y="400.8857">match(regexp: str): bool</text><ellipse cx="145" cy="413.8359" fill="#84BE84" rx="3" ry="3" style="stroke:#038048;stroke-width:1.0;"/><text fill="#000000" font-family="sans-serif" font-size="14" lengthAdjust="spacing" textLength="107" x="154" y="417.1826">group(i: int): str</text></g><!--MD5=[b3e9a502dd9baa1dd630fae99c53e7c0]
class Lint--><g id="elem_Lint"><rect codeLine="3" fill="#F1F1F1" height="210.9688" id="Lint" rx="2.5" ry="2.5" style="stroke:#181818;stroke-width:0.5;" width="447" x="7" y="7"/><ellipse cx="214.25" cy="23" fill="#ADD1B2" rx="11" ry="11" style="stroke:#181818;stroke-width:1.0;"/><path d="M217.2188,28.6406 Q216.6406,28.9375 216,29.0781 Q215.3594,29.2344 214.6563,29.2344 Q212.1563,29.2344 210.8281,27.5938 Q209.5156,25.9375 209.5156,22.8125 Q209.5156,19.6875 210.8281,18.0313 Q212.1563,16.375 214.6563,16.375 Q215.3594,16.375 216,16.5313 Q216.6563,16.6875 217.2188,16.9844 L217.2188,19.7031 Q216.5938,19.125 216,18.8594 Q215.4063,18.5781 214.7813,18.5781 Q213.4375,18.5781 212.75,19.6563 Q212.0625,20.7188 212.0625,22.8125 Q212.0625,24.9063 212.75,25.9844 Q213.4375,27.0469 214.7813,27.0469 Q215.4063,27.0469 216,26.7813 Q216.5938,26.5 217.2188,25.9219 L217.2188,28.6406 Z " fill="#000000"/><text fill="#000000" font-family="sans-serif" font-size="14" lengthAdjust="spacing" textLength="24" x="234.75" y="27.8467">Lint</text><line style="stroke:#181818;stroke-width:0.5;" x1="8" x2="453" y1="39" y2="39"/><rect fill="none" height="6" style="stroke:#C82930;stroke-width:1.0;" width="6" x="15" y="49.6484"/><text fill="#000000" font-family="sans-serif" font-size="14" lengthAdjust="spacing" textLength="143" x="27" y="55.9951">original_directory: str</text><rect fill="none" height="6" style="stroke:#C82930;stroke-width:1.0;" width="6" x="15" y="65.9453"/><text fill="#000000" font-family="sans-serif" font-size="14" lengthAdjust="spacing" textLength="94" x="27" y="72.292">repo_root: str</text><rect fill="none" height="6" style="stroke:#C82930;stroke-width:1.0;" width="6" x="15" y="82.2422"/><text fill="#000000" font-family="sans-serif" font-size="14" lengthAdjust="spacing" textLength="59" x="27" y="88.5889">env: dict</text><rect fill="none" height="6" style="stroke:#C82930;stroke-width:1.0;" width="6" x="15" y="98.5391"/><text fill="#000000" font-family="sans-serif" font-size="14" lengthAdjust="spacing" textLength="105" x="27" y="104.8857">config_dct: dict</text><line style="stroke:#181818;stroke-width:0.5;" x1="8" x2="453" y1="112.1875" y2="112.1875"/><ellipse cx="18" cy="125.8359" fill="#84BE84" rx="3" ry="3" style="stroke:#038048;stroke-width:1.0;"/><text fill="#000000" font-family="sans-serif" font-size="14" lengthAdjust="spacing" textLength="58" x="27" y="129.1826">__init__()</text><ellipse cx="18" cy="142.1328" fill="#84BE84" rx="3" ry="3" style="stroke:#038048;stroke-width:1.0;"/><text fill="#000000" font-family="sans-serif" font-size="14" lengthAdjust="spacing" textLength="136" x="27" y="145.4795">run_verible_format()</text><ellipse cx="18" cy="158.4297" fill="#84BE84" rx="3" ry="3" style="stroke:#038048;stroke-width:1.0;"/><text fill="#000000" font-family="sans-serif" font-size="14" lengthAdjust="spacing" textLength="60" x="27" y="161.7764">run_lint()</text><rect fill="#F24D5C" height="6" style="stroke:#C82930;stroke-width:1.0;" width="6" x="15" y="171.7266"/><text fill="#000000" font-family="sans-serif" font-size="14" lengthAdjust="spacing" textLength="421" x="27" y="178.0732">_run_verible_single(dut: str, path_in: str, path_rpt: str, rpt: str)</text><rect fill="#F24D5C" height="6" style="stroke:#C82930;stroke-width:1.0;" width="6" x="15" y="188.0234"/><text fill="#000000" font-family="sans-serif" font-size="14" lengthAdjust="spacing" textLength="396" x="27" y="194.3701">_run_lint_single(dut: str, path_in: str, path_rpt: str, rpt: str)</text><ellipse cx="18" cy="207.3203" fill="#84BE84" rx="3" ry="3" style="stroke:#038048;stroke-width:1.0;"/><text fill="#000000" font-family="sans-serif" font-size="14" lengthAdjust="spacing" textLength="306" x="27" y="210.667">_delete_files_in_directory(directory_path: str)</text></g><!--MD5=[8b15fbdb6f92d40aff5607116a8963b3]
link Lint to REMatcher--><g id="link_Lint_REMatcher"><path codeLine="16" d="M230.5,218.11 C230.5,242.42 230.5,267.68 230.5,289.97 " fill="none" id="Lint-to-REMatcher" style="stroke:#181818;stroke-width:1.0;"/><polygon fill="#181818" points="230.5,294.97,234.5,285.97,230.5,289.97,226.5,285.97,230.5,294.97" style="stroke:#181818;stroke-width:1.0;"/><text fill="#000000" font-family="sans-serif" font-size="13" lengthAdjust="spacing" textLength="30" x="231.5" y="261.0669">uses</text></g><!--MD5=[67d5afc2554602853a0e9cecaf41c17e]
@startuml ProjAuto_LintClass
!include ProjAuto_REMatcher_UML.puml

class Lint {
  - original_directory: str
  - repo_root: str
  - env: dict
  - config_dct: dict
  + __init__()
  + run_verible_format()
  + run_lint()
  - _run_verible_single(dut: str, path_in: str, path_rpt: str, rpt: str)
  - _run_lint_single(dut: str, path_in: str, path_rpt: str, rpt: str)
  + _delete_files_in_directory(directory_path: str)
}

Lint - -> REMatcher: uses

@enduml

@startuml ProjAuto_LintClass

class REMatcher {
  - matchstring: str
  - rematch: Match
  + __init__(matchstring: str)
  + match(regexp: str): bool
  + group(i: int): str
}


class Lint {
  - original_directory: str
  - repo_root: str
  - env: dict
  - config_dct: dict
  + __init__()
  + run_verible_format()
  + run_lint()
  - _run_verible_single(dut: str, path_in: str, path_rpt: str, rpt: str)
  - _run_lint_single(dut: str, path_in: str, path_rpt: str, rpt: str)
  + _delete_files_in_directory(directory_path: str)
}

Lint - -> REMatcher: uses

@enduml

PlantUML version 1.2022.7(Mon Aug 22 10:01:30 PDT 2022)
(GPL source distribution)
Java Runtime: OpenJDK Runtime Environment
JVM: OpenJDK 64-Bit Server VM
Default Encoding: UTF-8
Language: en
Country: US
--></g></svg>