<?xml version="1.0" encoding="UTF-8" standalone="no"?><svg xmlns="http://www.w3.org/2000/svg" xmlns:xlink="http://www.w3.org/1999/xlink" contentStyleType="text/css" height="594px" preserveAspectRatio="none" style="width:746px;height:594px;background:#FFFFFF;" version="1.1" viewBox="0 0 746 594" width="746px" zoomAndPan="magnify"><defs/><g><!--MD5=[905423cf6f2cdf96226207bc2e36c5da]
class REMatcher--><g id="elem_REMatcher"><rect codeLine="2" fill="#F1F1F1" height="129.4844" id="REMatcher" rx="2.5" ry="2.5" style="stroke:#181818;stroke-width:0.5;" width="193" x="276.5" y="458"/><ellipse cx="331.25" cy="474" fill="#ADD1B2" rx="11" ry="11" style="stroke:#181818;stroke-width:1.0;"/><path d="M334.2188,479.6406 Q333.6406,479.9375 333,480.0781 Q332.3594,480.2344 331.6563,480.2344 Q329.1563,480.2344 327.8281,478.5938 Q326.5156,476.9375 326.5156,473.8125 Q326.5156,470.6875 327.8281,469.0313 Q329.1563,467.375 331.6563,467.375 Q332.3594,467.375 333,467.5313 Q333.6563,467.6875 334.2188,467.9844 L334.2188,470.7031 Q333.5938,470.125 333,469.8594 Q332.4063,469.5781 331.7813,469.5781 Q330.4375,469.5781 329.75,470.6563 Q329.0625,471.7188 329.0625,473.8125 Q329.0625,475.9063 329.75,476.9844 Q330.4375,478.0469 331.7813,478.0469 Q332.4063,478.0469 333,477.7813 Q333.5938,477.5 334.2188,476.9219 L334.2188,479.6406 Z " fill="#000000"/><text fill="#000000" font-family="sans-serif" font-size="14" lengthAdjust="spacing" textLength="75" x="351.75" y="478.8467">REMatcher</text><line style="stroke:#181818;stroke-width:0.5;" x1="277.5" x2="468.5" y1="490" y2="490"/><rect fill="none" height="6" style="stroke:#C82930;stroke-width:1.0;" width="6" x="284.5" y="500.6484"/><text fill="#000000" font-family="sans-serif" font-size="14" lengthAdjust="spacing" textLength="109" x="296.5" y="506.9951">matchstring: str</text><rect fill="none" height="6" style="stroke:#C82930;stroke-width:1.0;" width="6" x="284.5" y="516.9453"/><text fill="#000000" font-family="sans-serif" font-size="14" lengthAdjust="spacing" textLength="108" x="296.5" y="523.292">rematch: Match</text><line style="stroke:#181818;stroke-width:0.5;" x1="277.5" x2="468.5" y1="530.5938" y2="530.5938"/><ellipse cx="287.5" cy="544.2422" fill="#84BE84" rx="3" ry="3" style="stroke:#038048;stroke-width:1.0;"/><text fill="#000000" font-family="sans-serif" font-size="14" lengthAdjust="spacing" textLength="167" x="296.5" y="547.5889">__init__(matchstring: str)</text><ellipse cx="287.5" cy="560.5391" fill="#84BE84" rx="3" ry="3" style="stroke:#038048;stroke-width:1.0;"/><text fill="#000000" font-family="sans-serif" font-size="14" lengthAdjust="spacing" textLength="167" x="296.5" y="563.8857">match(regexp: str): bool</text><ellipse cx="287.5" cy="576.8359" fill="#84BE84" rx="3" ry="3" style="stroke:#038048;stroke-width:1.0;"/><text fill="#000000" font-family="sans-serif" font-size="14" lengthAdjust="spacing" textLength="107" x="296.5" y="580.1826">group(i: int): str</text></g><!--MD5=[b4ba6c91be610bc1bcfeeda53d047b4f]
class RunTest--><g id="elem_RunTest"><rect codeLine="3" fill="#F1F1F1" height="373.9375" id="RunTest" rx="2.5" ry="2.5" style="stroke:#181818;stroke-width:0.5;" width="732" x="7" y="7"/><ellipse cx="339.25" cy="23" fill="#ADD1B2" rx="11" ry="11" style="stroke:#181818;stroke-width:1.0;"/><path d="M342.2188,28.6406 Q341.6406,28.9375 341,29.0781 Q340.3594,29.2344 339.6563,29.2344 Q337.1563,29.2344 335.8281,27.5938 Q334.5156,25.9375 334.5156,22.8125 Q334.5156,19.6875 335.8281,18.0313 Q337.1563,16.375 339.6563,16.375 Q340.3594,16.375 341,16.5313 Q341.6563,16.6875 342.2188,16.9844 L342.2188,19.7031 Q341.5938,19.125 341,18.8594 Q340.4063,18.5781 339.7813,18.5781 Q338.4375,18.5781 337.75,19.6563 Q337.0625,20.7188 337.0625,22.8125 Q337.0625,24.9063 337.75,25.9844 Q338.4375,27.0469 339.7813,27.0469 Q340.4063,27.0469 341,26.7813 Q341.5938,26.5 342.2188,25.9219 L342.2188,28.6406 Z " fill="#000000"/><text fill="#000000" font-family="sans-serif" font-size="14" lengthAdjust="spacing" textLength="59" x="359.75" y="27.8467">RunTest</text><line style="stroke:#181818;stroke-width:0.5;" x1="8" x2="738" y1="39" y2="39"/><rect fill="none" height="6" style="stroke:#C82930;stroke-width:1.0;" width="6" x="15" y="49.6484"/><text fill="#000000" font-family="sans-serif" font-size="14" lengthAdjust="spacing" textLength="143" x="27" y="55.9951">original_directory: str</text><rect fill="none" height="6" style="stroke:#C82930;stroke-width:1.0;" width="6" x="15" y="65.9453"/><text fill="#000000" font-family="sans-serif" font-size="14" lengthAdjust="spacing" textLength="94" x="27" y="72.292">repo_root: str</text><rect fill="none" height="6" style="stroke:#C82930;stroke-width:1.0;" width="6" x="15" y="82.2422"/><text fill="#000000" font-family="sans-serif" font-size="14" lengthAdjust="spacing" textLength="59" x="27" y="88.5889">env: dict</text><rect fill="none" height="6" style="stroke:#C82930;stroke-width:1.0;" width="6" x="15" y="98.5391"/><text fill="#000000" font-family="sans-serif" font-size="14" lengthAdjust="spacing" textLength="105" x="27" y="104.8857">config_dct: dict</text><rect fill="none" height="6" style="stroke:#C82930;stroke-width:1.0;" width="6" x="15" y="114.8359"/><text fill="#000000" font-family="sans-serif" font-size="14" lengthAdjust="spacing" textLength="80" x="27" y="121.1826">test_list: str</text><rect fill="none" height="6" style="stroke:#C82930;stroke-width:1.0;" width="6" x="15" y="131.1328"/><text fill="#000000" font-family="sans-serif" font-size="14" lengthAdjust="spacing" textLength="49" x="27" y="137.4795">tag: str</text><rect fill="none" height="6" style="stroke:#C82930;stroke-width:1.0;" width="6" x="15" y="147.4297"/><text fill="#000000" font-family="sans-serif" font-size="14" lengthAdjust="spacing" textLength="54" x="27" y="153.7764">test: str</text><rect fill="none" height="6" style="stroke:#C82930;stroke-width:1.0;" width="6" x="15" y="163.7266"/><text fill="#000000" font-family="sans-serif" font-size="14" lengthAdjust="spacing" textLength="62" x="27" y="170.0732">seed: str</text><rect fill="none" height="6" style="stroke:#C82930;stroke-width:1.0;" width="6" x="15" y="180.0234"/><text fill="#000000" font-family="sans-serif" font-size="14" lengthAdjust="spacing" textLength="85" x="27" y="186.3701">params: dict</text><rect fill="none" height="6" style="stroke:#C82930;stroke-width:1.0;" width="6" x="15" y="196.3203"/><text fill="#000000" font-family="sans-serif" font-size="14" lengthAdjust="spacing" textLength="125" x="27" y="202.667">regression_dir: str</text><line style="stroke:#181818;stroke-width:0.5;" x1="8" x2="738" y1="209.9688" y2="209.9688"/><ellipse cx="18" cy="223.6172" fill="#84BE84" rx="3" ry="3" style="stroke:#038048;stroke-width:1.0;"/><text fill="#000000" font-family="sans-serif" font-size="14" lengthAdjust="spacing" textLength="58" x="27" y="226.9639">__init__()</text><ellipse cx="18" cy="239.9141" fill="#84BE84" rx="3" ry="3" style="stroke:#038048;stroke-width:1.0;"/><text fill="#000000" font-family="sans-serif" font-size="14" lengthAdjust="spacing" textLength="168" x="27" y="243.2607">_ready_run_area(): None</text><ellipse cx="18" cy="256.2109" fill="#84BE84" rx="3" ry="3" style="stroke:#038048;stroke-width:1.0;"/><text fill="#000000" font-family="sans-serif" font-size="14" lengthAdjust="spacing" textLength="286" x="27" y="259.5576">_parse_makefile(makefile_path: str): tuple</text><ellipse cx="18" cy="272.5078" fill="#84BE84" rx="3" ry="3" style="stroke:#038048;stroke-width:1.0;"/><text fill="#000000" font-family="sans-serif" font-size="14" lengthAdjust="spacing" textLength="113" x="27" y="275.8545">run_test(): None</text><ellipse cx="18" cy="288.8047" fill="#84BE84" rx="3" ry="3" style="stroke:#038048;stroke-width:1.0;"/><text fill="#000000" font-family="sans-serif" font-size="14" lengthAdjust="spacing" textLength="139" x="27" y="292.1514">run_test_list(): None</text><ellipse cx="18" cy="305.1016" fill="#84BE84" rx="3" ry="3" style="stroke:#038048;stroke-width:1.0;"/><text fill="#000000" font-family="sans-serif" font-size="14" lengthAdjust="spacing" textLength="458" x="27" y="308.4482">report_regression(test_count: int, fail_count: int, fail_list: list): None</text><ellipse cx="18" cy="321.3984" fill="#84BE84" rx="3" ry="3" style="stroke:#038048;stroke-width:1.0;"/><text fill="#000000" font-family="sans-serif" font-size="14" lengthAdjust="spacing" textLength="292" x="27" y="324.7451">get_unique_dir_name(base_name: str): str</text><ellipse cx="18" cy="337.6953" fill="#84BE84" rx="3" ry="3" style="stroke:#038048;stroke-width:1.0;"/><text fill="#000000" font-family="sans-serif" font-size="14" lengthAdjust="spacing" textLength="258" x="27" y="341.042">process_results(output_file: str): bool</text><ellipse cx="18" cy="353.9922" fill="#84BE84" rx="3" ry="3" style="stroke:#038048;stroke-width:1.0;"/><text fill="#000000" font-family="sans-serif" font-size="14" lengthAdjust="spacing" textLength="454" x="27" y="357.3389">update_makefile(makefile_path: str, seed: str, params: dict): None</text><ellipse cx="18" cy="370.2891" fill="#84BE84" rx="3" ry="3" style="stroke:#038048;stroke-width:1.0;"/><text fill="#000000" font-family="sans-serif" font-size="14" lengthAdjust="spacing" textLength="706" x="27" y="373.6357">run_make(repo_root: str, test: str, base_test_path: str, path_out: str, env, seed: str, params: dict): bool</text></g><!--MD5=[20169669782aeab043f341f0a21d60df]
link RunTest to REMatcher--><g id="link_RunTest_REMatcher"><path codeLine="26" d="M373,381.14 C373,406.59 373,431.29 373,452.69 " fill="none" id="RunTest-to-REMatcher" style="stroke:#181818;stroke-width:1.0;"/><polygon fill="#181818" points="373,457.77,377,448.77,373,452.77,369,448.77,373,457.77" style="stroke:#181818;stroke-width:1.0;"/><text fill="#000000" font-family="sans-serif" font-size="13" lengthAdjust="spacing" textLength="30" x="374" y="424.0669">uses</text></g><!--MD5=[2a0df634258150e3dac4a90c3263254c]
@startuml ProjAuto_RunTestClass
!include ProjAuto_REMatcher_UML.puml

class RunTest {
  - original_directory: str
  - repo_root: str
  - env: dict
  - config_dct: dict
  - test_list: str
  - tag: str
  - test: str
  - seed: str
  - params: dict
  - regression_dir: str
  + __init__()
  + _ready_run_area(): None
  + _parse_makefile(makefile_path: str): tuple
  + run_test(): None
  + run_test_list(): None
  + report_regression(test_count: int, fail_count: int, fail_list: list): None
  + get_unique_dir_name(base_name: str): str
  + process_results(output_file: str): bool
  + update_makefile(makefile_path: str, seed: str, params: dict): None
  + run_make(repo_root: str, test: str, base_test_path: str, path_out: str, env, seed: str, params: dict): bool
}

RunTest - -> REMatcher: uses

@enduml

@startuml ProjAuto_RunTestClass

class REMatcher {
  - matchstring: str
  - rematch: Match
  + __init__(matchstring: str)
  + match(regexp: str): bool
  + group(i: int): str
}


class RunTest {
  - original_directory: str
  - repo_root: str
  - env: dict
  - config_dct: dict
  - test_list: str
  - tag: str
  - test: str
  - seed: str
  - params: dict
  - regression_dir: str
  + __init__()
  + _ready_run_area(): None
  + _parse_makefile(makefile_path: str): tuple
  + run_test(): None
  + run_test_list(): None
  + report_regression(test_count: int, fail_count: int, fail_list: list): None
  + get_unique_dir_name(base_name: str): str
  + process_results(output_file: str): bool
  + update_makefile(makefile_path: str, seed: str, params: dict): None
  + run_make(repo_root: str, test: str, base_test_path: str, path_out: str, env, seed: str, params: dict): bool
}

RunTest - -> REMatcher: uses

@enduml

PlantUML version 1.2022.7(Mon Aug 22 10:01:30 PDT 2022)
(GPL source distribution)
Java Runtime: OpenJDK Runtime Environment
JVM: OpenJDK 64-Bit Server VM
Default Encoding: UTF-8
Language: en
Country: US
--></g></svg>