<?xml version="1.0" encoding="UTF-8" standalone="no"?><svg xmlns="http://www.w3.org/2000/svg" xmlns:xlink="http://www.w3.org/1999/xlink" contentStyleType="text/css" height="366px" preserveAspectRatio="none" style="width:493px;height:366px;background:#FFFFFF;" version="1.1" viewBox="0 0 493 366" width="493px" zoomAndPan="magnify"><defs/><g><!--MD5=[905423cf6f2cdf96226207bc2e36c5da]
class REMatcher--><g id="elem_REMatcher"><rect codeLine="2" fill="#F1F1F1" height="129.4844" id="REMatcher" rx="2.5" ry="2.5" style="stroke:#181818;stroke-width:0.5;" width="193" x="150" y="230"/><ellipse cx="204.75" cy="246" fill="#ADD1B2" rx="11" ry="11" style="stroke:#181818;stroke-width:1.0;"/><path d="M207.7188,251.6406 Q207.1406,251.9375 206.5,252.0781 Q205.8594,252.2344 205.1563,252.2344 Q202.6563,252.2344 201.3281,250.5938 Q200.0156,248.9375 200.0156,245.8125 Q200.0156,242.6875 201.3281,241.0313 Q202.6563,239.375 205.1563,239.375 Q205.8594,239.375 206.5,239.5313 Q207.1563,239.6875 207.7188,239.9844 L207.7188,242.7031 Q207.0938,242.125 206.5,241.8594 Q205.9063,241.5781 205.2813,241.5781 Q203.9375,241.5781 203.25,242.6563 Q202.5625,243.7188 202.5625,245.8125 Q202.5625,247.9063 203.25,248.9844 Q203.9375,250.0469 205.2813,250.0469 Q205.9063,250.0469 206.5,249.7813 Q207.0938,249.5 207.7188,248.9219 L207.7188,251.6406 Z " fill="#000000"/><text fill="#000000" font-family="sans-serif" font-size="14" lengthAdjust="spacing" textLength="75" x="225.25" y="250.8467">REMatcher</text><line style="stroke:#181818;stroke-width:0.5;" x1="151" x2="342" y1="262" y2="262"/><rect fill="none" height="6" style="stroke:#C82930;stroke-width:1.0;" width="6" x="158" y="272.6484"/><text fill="#000000" font-family="sans-serif" font-size="14" lengthAdjust="spacing" textLength="109" x="170" y="278.9951">matchstring: str</text><rect fill="none" height="6" style="stroke:#C82930;stroke-width:1.0;" width="6" x="158" y="288.9453"/><text fill="#000000" font-family="sans-serif" font-size="14" lengthAdjust="spacing" textLength="108" x="170" y="295.292">rematch: Match</text><line style="stroke:#181818;stroke-width:0.5;" x1="151" x2="342" y1="302.5938" y2="302.5938"/><ellipse cx="161" cy="316.2422" fill="#84BE84" rx="3" ry="3" style="stroke:#038048;stroke-width:1.0;"/><text fill="#000000" font-family="sans-serif" font-size="14" lengthAdjust="spacing" textLength="167" x="170" y="319.5889">__init__(matchstring: str)</text><ellipse cx="161" cy="332.5391" fill="#84BE84" rx="3" ry="3" style="stroke:#038048;stroke-width:1.0;"/><text fill="#000000" font-family="sans-serif" font-size="14" lengthAdjust="spacing" textLength="167" x="170" y="335.8857">match(regexp: str): bool</text><ellipse cx="161" cy="348.8359" fill="#84BE84" rx="3" ry="3" style="stroke:#038048;stroke-width:1.0;"/><text fill="#000000" font-family="sans-serif" font-size="14" lengthAdjust="spacing" textLength="107" x="170" y="352.1826">group(i: int): str</text></g><!--MD5=[b5769ef62af30e388e972c2314c4373e]
class TestList--><g id="elem_TestList"><rect codeLine="3" fill="#F1F1F1" height="145.7813" id="TestList" rx="2.5" ry="2.5" style="stroke:#181818;stroke-width:0.5;" width="479" x="7" y="7"/><ellipse cx="215.25" cy="23" fill="#ADD1B2" rx="11" ry="11" style="stroke:#181818;stroke-width:1.0;"/><path d="M218.2188,28.6406 Q217.6406,28.9375 217,29.0781 Q216.3594,29.2344 215.6563,29.2344 Q213.1563,29.2344 211.8281,27.5938 Q210.5156,25.9375 210.5156,22.8125 Q210.5156,19.6875 211.8281,18.0313 Q213.1563,16.375 215.6563,16.375 Q216.3594,16.375 217,16.5313 Q217.6563,16.6875 218.2188,16.9844 L218.2188,19.7031 Q217.5938,19.125 217,18.8594 Q216.4063,18.5781 215.7813,18.5781 Q214.4375,18.5781 213.75,19.6563 Q213.0625,20.7188 213.0625,22.8125 Q213.0625,24.9063 213.75,25.9844 Q214.4375,27.0469 215.7813,27.0469 Q216.4063,27.0469 217,26.7813 Q217.5938,26.5 218.2188,25.9219 L218.2188,28.6406 Z " fill="#000000"/><text fill="#000000" font-family="sans-serif" font-size="14" lengthAdjust="spacing" textLength="54" x="235.75" y="27.8467">TestList</text><line style="stroke:#181818;stroke-width:0.5;" x1="8" x2="485" y1="39" y2="39"/><rect fill="none" height="6" style="stroke:#C82930;stroke-width:1.0;" width="6" x="15" y="49.6484"/><text fill="#000000" font-family="sans-serif" font-size="14" lengthAdjust="spacing" textLength="143" x="27" y="55.9951">original_directory: str</text><rect fill="none" height="6" style="stroke:#C82930;stroke-width:1.0;" width="6" x="15" y="65.9453"/><text fill="#000000" font-family="sans-serif" font-size="14" lengthAdjust="spacing" textLength="94" x="27" y="72.292">repo_root: str</text><rect fill="none" height="6" style="stroke:#C82930;stroke-width:1.0;" width="6" x="15" y="82.2422"/><text fill="#000000" font-family="sans-serif" font-size="14" lengthAdjust="spacing" textLength="59" x="27" y="88.5889">env: dict</text><line style="stroke:#181818;stroke-width:0.5;" x1="8" x2="485" y1="95.8906" y2="95.8906"/><ellipse cx="18" cy="109.5391" fill="#84BE84" rx="3" ry="3" style="stroke:#038048;stroke-width:1.0;"/><text fill="#000000" font-family="sans-serif" font-size="14" lengthAdjust="spacing" textLength="58" x="27" y="112.8857">__init__()</text><ellipse cx="18" cy="125.8359" fill="#84BE84" rx="3" ry="3" style="stroke:#038048;stroke-width:1.0;"/><text fill="#000000" font-family="sans-serif" font-size="14" lengthAdjust="spacing" textLength="453" x="27" y="129.1826">generate_run_test_commands(test_name_substring: str): List[str]</text><ellipse cx="18" cy="142.1328" fill="#84BE84" rx="3" ry="3" style="stroke:#038048;stroke-width:1.0;"/><text fill="#000000" font-family="sans-serif" font-size="14" lengthAdjust="spacing" textLength="426" x="27" y="145.4795">create_json_file_from_dirs(path: str, json_file_name: str): None</text></g><!--MD5=[b9c62911380a8f0401f51567e8c5875b]
link TestList to REMatcher--><g id="link_TestList_REMatcher"><path codeLine="12" d="M246.5,153.24 C246.5,176.39 246.5,201.96 246.5,224.85 " fill="none" id="TestList-to-REMatcher" style="stroke:#181818;stroke-width:1.0;"/><polygon fill="#181818" points="246.5,230,250.5,221,246.5,225,242.5,221,246.5,230" style="stroke:#181818;stroke-width:1.0;"/><text fill="#000000" font-family="sans-serif" font-size="13" lengthAdjust="spacing" textLength="30" x="247.5" y="196.0669">uses</text></g><!--MD5=[ab6ea5aeed981704520edc79b5517b5d]
@startuml ProjAuto_TestListClass
!include ProjAuto_REMatcher_UML.puml

class TestList {
  - original_directory: str
  - repo_root: str
  - env: dict
  + __init__()
  + generate_run_test_commands(test_name_substring: str): List[str]
  + create_json_file_from_dirs(path: str, json_file_name: str): None
}

TestList - -> REMatcher: uses
@enduml

@startuml ProjAuto_TestListClass

class REMatcher {
  - matchstring: str
  - rematch: Match
  + __init__(matchstring: str)
  + match(regexp: str): bool
  + group(i: int): str
}


class TestList {
  - original_directory: str
  - repo_root: str
  - env: dict
  + __init__()
  + generate_run_test_commands(test_name_substring: str): List[str]
  + create_json_file_from_dirs(path: str, json_file_name: str): None
}

TestList - -> REMatcher: uses
@enduml

PlantUML version 1.2022.7(Mon Aug 22 10:01:30 PDT 2022)
(GPL source distribution)
Java Runtime: OpenJDK Runtime Environment
JVM: OpenJDK 64-Bit Server VM
Default Encoding: UTF-8
Language: en
Country: US
--></g></svg>