<?xml version="1.0" encoding="UTF-8" standalone="no"?><svg xmlns="http://www.w3.org/2000/svg" xmlns:xlink="http://www.w3.org/1999/xlink" contentStyleType="text/css" height="150px" preserveAspectRatio="none" style="width:214px;height:150px;background:#FFFFFF;" version="1.1" viewBox="0 0 214 150" width="214px" zoomAndPan="magnify"><defs/><g><!--MD5=[905423cf6f2cdf96226207bc2e36c5da]
class REMatcher--><g id="elem_REMatcher"><rect codeLine="2" fill="#F1F1F1" height="129.4844" id="REMatcher" rx="2.5" ry="2.5" style="stroke:#181818;stroke-width:0.5;" width="193" x="7" y="7"/><ellipse cx="61.75" cy="23" fill="#ADD1B2" rx="11" ry="11" style="stroke:#181818;stroke-width:1.0;"/><path d="M64.7188,28.6406 Q64.1406,28.9375 63.5,29.0781 Q62.8594,29.2344 62.1563,29.2344 Q59.6563,29.2344 58.3281,27.5938 Q57.0156,25.9375 57.0156,22.8125 Q57.0156,19.6875 58.3281,18.0313 Q59.6563,16.375 62.1563,16.375 Q62.8594,16.375 63.5,16.5313 Q64.1563,16.6875 64.7188,16.9844 L64.7188,19.7031 Q64.0938,19.125 63.5,18.8594 Q62.9063,18.5781 62.2813,18.5781 Q60.9375,18.5781 60.25,19.6563 Q59.5625,20.7188 59.5625,22.8125 Q59.5625,24.9063 60.25,25.9844 Q60.9375,27.0469 62.2813,27.0469 Q62.9063,27.0469 63.5,26.7813 Q64.0938,26.5 64.7188,25.9219 L64.7188,28.6406 Z " fill="#000000"/><text fill="#000000" font-family="sans-serif" font-size="14" lengthAdjust="spacing" textLength="75" x="82.25" y="27.8467">REMatcher</text><line style="stroke:#181818;stroke-width:0.5;" x1="8" x2="199" y1="39" y2="39"/><rect fill="none" height="6" style="stroke:#C82930;stroke-width:1.0;" width="6" x="15" y="49.6484"/><text fill="#000000" font-family="sans-serif" font-size="14" lengthAdjust="spacing" textLength="109" x="27" y="55.9951">matchstring: str</text><rect fill="none" height="6" style="stroke:#C82930;stroke-width:1.0;" width="6" x="15" y="65.9453"/><text fill="#000000" font-family="sans-serif" font-size="14" lengthAdjust="spacing" textLength="108" x="27" y="72.292">rematch: Match</text><line style="stroke:#181818;stroke-width:0.5;" x1="8" x2="199" y1="79.5938" y2="79.5938"/><ellipse cx="18" cy="93.2422" fill="#84BE84" rx="3" ry="3" style="stroke:#038048;stroke-width:1.0;"/><text fill="#000000" font-family="sans-serif" font-size="14" lengthAdjust="spacing" textLength="167" x="27" y="96.5889">__init__(matchstring: str)</text><ellipse cx="18" cy="109.5391" fill="#84BE84" rx="3" ry="3" style="stroke:#038048;stroke-width:1.0;"/><text fill="#000000" font-family="sans-serif" font-size="14" lengthAdjust="spacing" textLength="167" x="27" y="112.8857">match(regexp: str): bool</text><ellipse cx="18" cy="125.8359" fill="#84BE84" rx="3" ry="3" style="stroke:#038048;stroke-width:1.0;"/><text fill="#000000" font-family="sans-serif" font-size="14" lengthAdjust="spacing" textLength="107" x="27" y="129.1826">group(i: int): str</text></g><!--MD5=[2b23e0956b4ba40d8467042db081b81c]
@startuml ProjAuto_REMatcherClass

class REMatcher {
  - matchstring: str
  - rematch: Match
  + __init__(matchstring: str)
  + match(regexp: str): bool
  + group(i: int): str
}

@enduml

PlantUML version 1.2022.7(Mon Aug 22 10:01:30 PDT 2022)
(GPL source distribution)
Java Runtime: OpenJDK Runtime Environment
JVM: OpenJDK 64-Bit Server VM
Default Encoding: UTF-8
Language: en
Country: US
--></g></svg>