<?xml version="1.0" encoding="UTF-8" standalone="no"?><svg xmlns="http://www.w3.org/2000/svg" xmlns:xlink="http://www.w3.org/1999/xlink" contentStyleType="text/css" height="522px" preserveAspectRatio="none" style="width:1095px;height:522px;background:#FFFFFF;" version="1.1" viewBox="0 0 1095 522" width="1095px" zoomAndPan="magnify"><defs/><g><!--MD5=[e09d57fb07e510e69aeb3a38c1463f7a]
class V2WConvert--><g id="elem_V2WConvert"><rect codeLine="2" fill="#F1F1F1" height="162.0781" id="V2WConvert" rx="2.5" ry="2.5" style="stroke:#181818;stroke-width:0.5;" width="711" x="7" y="245"/><ellipse cx="315.75" cy="261" fill="#ADD1B2" rx="11" ry="11" style="stroke:#181818;stroke-width:1.0;"/><path d="M318.7188,266.6406 Q318.1406,266.9375 317.5,267.0781 Q316.8594,267.2344 316.1563,267.2344 Q313.6563,267.2344 312.3281,265.5938 Q311.0156,263.9375 311.0156,260.8125 Q311.0156,257.6875 312.3281,256.0313 Q313.6563,254.375 316.1563,254.375 Q316.8594,254.375 317.5,254.5313 Q318.1563,254.6875 318.7188,254.9844 L318.7188,257.7031 Q318.0938,257.125 317.5,256.8594 Q316.9063,256.5781 316.2813,256.5781 Q314.9375,256.5781 314.25,257.6563 Q313.5625,258.7188 313.5625,260.8125 Q313.5625,262.9063 314.25,263.9844 Q314.9375,265.0469 316.2813,265.0469 Q316.9063,265.0469 317.5,264.7813 Q318.0938,264.5 318.7188,263.9219 L318.7188,266.6406 Z " fill="#000000"/><text fill="#000000" font-family="sans-serif" font-size="14" lengthAdjust="spacing" textLength="85" x="336.25" y="265.8467">V2WConvert</text><line style="stroke:#181818;stroke-width:0.5;" x1="8" x2="717" y1="277" y2="277"/><rect fill="none" height="6" style="stroke:#C82930;stroke-width:1.0;" width="6" x="15" y="287.6484"/><text fill="#000000" font-family="sans-serif" font-size="14" lengthAdjust="spacing" textLength="90" x="27" y="293.9951">cmn_unit: str</text><rect fill="none" height="6" style="stroke:#C82930;stroke-width:1.0;" width="6" x="15" y="303.9453"/><text fill="#000000" font-family="sans-serif" font-size="14" lengthAdjust="spacing" textLength="98" x="27" y="310.292">cmn_base: str</text><rect fill="none" height="6" style="stroke:#C82930;stroke-width:1.0;" width="6" x="15" y="320.2422"/><text fill="#000000" font-family="sans-serif" font-size="14" lengthAdjust="spacing" textLength="124" x="27" y="326.5889">ureg: UnitRegistry</text><line style="stroke:#181818;stroke-width:0.5;" x1="8" x2="717" y1="333.8906" y2="333.8906"/><ellipse cx="18" cy="347.5391" fill="#84BE84" rx="3" ry="3" style="stroke:#038048;stroke-width:1.0;"/><text fill="#000000" font-family="sans-serif" font-size="14" lengthAdjust="spacing" textLength="58" x="27" y="350.8857">__init__()</text><ellipse cx="18" cy="363.8359" fill="#84BE84" rx="3" ry="3" style="stroke:#038048;stroke-width:1.0;"/><text fill="#000000" font-family="sans-serif" font-size="14" lengthAdjust="spacing" textLength="685" x="27" y="367.1826">convert_timescale_to_cmn_units(value: int, current_timescale: str, cmn_unit: str, cmn_base: str): str</text><ellipse cx="18" cy="380.1328" fill="#84BE84" rx="3" ry="3" style="stroke:#038048;stroke-width:1.0;"/><text fill="#000000" font-family="sans-serif" font-size="14" lengthAdjust="spacing" textLength="566" x="27" y="383.4795">calculate_sampling_points(vcd_timescale: str, target_interval: str, endtime: str): list</text><rect fill="#F24D5C" height="6" style="stroke:#C82930;stroke-width:1.0;" width="6" x="15" y="393.4297"/><text fill="#000000" font-family="sans-serif" font-size="14" lengthAdjust="spacing" textLength="364" x="27" y="399.7764">_convert_to_magnitude(time_base: str, units: str): int</text></g><!--MD5=[a82044a48e0df163fb877a0fcc908a96]
class UnitRegistry--><g id="elem_UnitRegistry"><rect fill="#F1F1F1" height="48" id="UnitRegistry" rx="2.5" ry="2.5" style="stroke:#181818;stroke-width:0.5;" width="115" x="305" y="467"/><ellipse cx="320" cy="483" fill="#ADD1B2" rx="11" ry="11" style="stroke:#181818;stroke-width:1.0;"/><path d="M322.9688,488.6406 Q322.3906,488.9375 321.75,489.0781 Q321.1094,489.2344 320.4063,489.2344 Q317.9063,489.2344 316.5781,487.5938 Q315.2656,485.9375 315.2656,482.8125 Q315.2656,479.6875 316.5781,478.0313 Q317.9063,476.375 320.4063,476.375 Q321.1094,476.375 321.75,476.5313 Q322.4063,476.6875 322.9688,476.9844 L322.9688,479.7031 Q322.3438,479.125 321.75,478.8594 Q321.1563,478.5781 320.5313,478.5781 Q319.1875,478.5781 318.5,479.6563 Q317.8125,480.7188 317.8125,482.8125 Q317.8125,484.9063 318.5,485.9844 Q319.1875,487.0469 320.5313,487.0469 Q321.1563,487.0469 321.75,486.7813 Q322.3438,486.5 322.9688,485.9219 L322.9688,488.6406 Z " fill="#000000"/><text fill="#000000" font-family="sans-serif" font-size="14" lengthAdjust="spacing" textLength="83" x="334" y="487.8467">UnitRegistry</text><line style="stroke:#181818;stroke-width:0.5;" x1="306" x2="419" y1="499" y2="499"/><line style="stroke:#181818;stroke-width:0.5;" x1="306" x2="419" y1="507" y2="507"/></g><!--MD5=[9a6286723e1d6c676a2d90a17ff900ed]
class V2WConfig--><g id="elem_V2WConfig"><rect codeLine="3" fill="#F1F1F1" height="178.375" id="V2WConfig" rx="2.5" ry="2.5" style="stroke:#181818;stroke-width:0.5;" width="1016" x="72.5" y="7"/><ellipse cx="538.75" cy="23" fill="#ADD1B2" rx="11" ry="11" style="stroke:#181818;stroke-width:1.0;"/><path d="M541.7188,28.6406 Q541.1406,28.9375 540.5,29.0781 Q539.8594,29.2344 539.1563,29.2344 Q536.6563,29.2344 535.3281,27.5938 Q534.0156,25.9375 534.0156,22.8125 Q534.0156,19.6875 535.3281,18.0313 Q536.6563,16.375 539.1563,16.375 Q539.8594,16.375 540.5,16.5313 Q541.1563,16.6875 541.7188,16.9844 L541.7188,19.7031 Q541.0938,19.125 540.5,18.8594 Q539.9063,18.5781 539.2813,18.5781 Q537.9375,18.5781 537.25,19.6563 Q536.5625,20.7188 536.5625,22.8125 Q536.5625,24.9063 537.25,25.9844 Q537.9375,27.0469 539.2813,27.0469 Q539.9063,27.0469 540.5,26.7813 Q541.0938,26.5 541.7188,25.9219 L541.7188,28.6406 Z " fill="#000000"/><text fill="#000000" font-family="sans-serif" font-size="14" lengthAdjust="spacing" textLength="75" x="559.25" y="27.8467">V2WConfig</text><line style="stroke:#181818;stroke-width:0.5;" x1="73.5" x2="1087.5" y1="39" y2="39"/><rect fill="none" height="6" style="stroke:#C82930;stroke-width:1.0;" width="6" x="80.5" y="49.6484"/><text fill="#000000" font-family="sans-serif" font-size="14" lengthAdjust="spacing" textLength="76" x="92.5" y="55.9951">config: dict</text><rect fill="none" height="6" style="stroke:#C82930;stroke-width:1.0;" width="6" x="80.5" y="65.9453"/><text fill="#000000" font-family="sans-serif" font-size="14" lengthAdjust="spacing" textLength="160" x="92.5" y="72.292">converter: V2WConvert</text><rect fill="none" height="6" style="stroke:#C82930;stroke-width:1.0;" width="6" x="80.5" y="82.2422"/><text fill="#000000" font-family="sans-serif" font-size="14" lengthAdjust="spacing" textLength="93" x="92.5" y="88.5889">vcd: VCDVCD</text><line style="stroke:#181818;stroke-width:0.5;" x1="73.5" x2="1087.5" y1="95.8906" y2="95.8906"/><ellipse cx="83.5" cy="109.5391" fill="#84BE84" rx="3" ry="3" style="stroke:#038048;stroke-width:1.0;"/><text fill="#000000" font-family="sans-serif" font-size="14" lengthAdjust="spacing" textLength="115" x="92.5" y="112.8857">__init__(argv: list)</text><ellipse cx="83.5" cy="125.8359" fill="#84BE84" rx="3" ry="3" style="stroke:#038048;stroke-width:1.0;"/><text fill="#000000" font-family="sans-serif" font-size="14" lengthAdjust="spacing" textLength="277" x="92.5" y="129.1826">group_and_sort_signals(signals: list): list</text><ellipse cx="83.5" cy="142.1328" fill="#84BE84" rx="3" ry="3" style="stroke:#038048;stroke-width:1.0;"/><text fill="#000000" font-family="sans-serif" font-size="14" lengthAdjust="spacing" textLength="128" x="92.5" y="145.4795">argparse(argv: list)</text><ellipse cx="83.5" cy="158.4297" fill="#84BE84" rx="3" ry="3" style="stroke:#038048;stroke-width:1.0;"/><text fill="#000000" font-family="sans-serif" font-size="14" lengthAdjust="spacing" textLength="122" x="92.5" y="161.7764">generate_config()</text><ellipse cx="83.5" cy="174.7266" fill="#84BE84" rx="3" ry="3" style="stroke:#038048;stroke-width:1.0;"/><text fill="#000000" font-family="sans-serif" font-size="14" lengthAdjust="spacing" textLength="990" x="92.5" y="178.0732">loop_and_find_sigs_clks(vcd: dict, signals: set, clocks: set, clock_periods: dict, timescale: str, base_unit: str, cmn_unit: str, cmn_base: str): tuple</text></g><!--MD5=[2d36b8a12244ace85cc6dd8457e7f599]
class VCDVCD--><g id="elem_VCDVCD"><rect fill="#F1F1F1" height="48" id="VCDVCD" rx="2.5" ry="2.5" style="stroke:#181818;stroke-width:0.5;" width="92" x="753.5" y="302"/><ellipse cx="768.5" cy="318" fill="#ADD1B2" rx="11" ry="11" style="stroke:#181818;stroke-width:1.0;"/><path d="M771.4688,323.6406 Q770.8906,323.9375 770.25,324.0781 Q769.6094,324.2344 768.9063,324.2344 Q766.4063,324.2344 765.0781,322.5938 Q763.7656,320.9375 763.7656,317.8125 Q763.7656,314.6875 765.0781,313.0313 Q766.4063,311.375 768.9063,311.375 Q769.6094,311.375 770.25,311.5313 Q770.9063,311.6875 771.4688,311.9844 L771.4688,314.7031 Q770.8438,314.125 770.25,313.8594 Q769.6563,313.5781 769.0313,313.5781 Q767.6875,313.5781 767,314.6563 Q766.3125,315.7188 766.3125,317.8125 Q766.3125,319.9063 767,320.9844 Q767.6875,322.0469 769.0313,322.0469 Q769.6563,322.0469 770.25,321.7813 Q770.8438,321.5 771.4688,320.9219 L771.4688,323.6406 Z " fill="#000000"/><text fill="#000000" font-family="sans-serif" font-size="14" lengthAdjust="spacing" textLength="60" x="782.5" y="322.8467">VCDVCD</text><line style="stroke:#181818;stroke-width:0.5;" x1="754.5" x2="844.5" y1="334" y2="334"/><line style="stroke:#181818;stroke-width:0.5;" x1="754.5" x2="844.5" y1="342" y2="342"/></g><!--MD5=[aa9da4873eccfd6533cf43afe1947541]
link V2WConvert to UnitRegistry--><g id="link_V2WConvert_UnitRegistry"><path codeLine="13" d="M362.5,407.07 C362.5,426.74 362.5,446.53 362.5,461.84 " fill="none" id="V2WConvert-to-UnitRegistry" style="stroke:#181818;stroke-width:1.0;"/><polygon fill="#181818" points="362.5,466.85,366.5,457.85,362.5,461.85,358.5,457.85,362.5,466.85" style="stroke:#181818;stroke-width:1.0;"/></g><!--MD5=[5e1512636e8f98c51d464d5d829e9c4f]
link V2WConfig to V2WConvert--><g id="link_V2WConfig_V2WConvert"><path codeLine="15" d="M496.22,185.15 C478.58,203.59 460.03,222.99 442.56,241.27 " fill="none" id="V2WConfig-to-V2WConvert" style="stroke:#181818;stroke-width:1.0;"/><polygon fill="#181818" points="439.08,244.91,448.1916,241.1711,442.5361,241.2968,442.4104,235.6413,439.08,244.91" style="stroke:#181818;stroke-width:1.0;"/></g><!--MD5=[e5fad2f9fe7b0189cc83c3603f58f846]
link V2WConfig to VCDVCD--><g id="link_V2WConfig_VCDVCD"><path codeLine="16" d="M676.75,185.06 C696.67,204.33 717.15,224.97 735.5,245 C750.87,261.78 766.87,281.78 779.02,297.58 " fill="none" id="V2WConfig-to-VCDVCD" style="stroke:#181818;stroke-width:1.0;"/><polygon fill="#181818" points="782.35,301.92,780.0514,292.3431,779.309,297.951,773.7011,297.2087,782.35,301.92" style="stroke:#181818;stroke-width:1.0;"/></g><!--MD5=[75e8ddf98c7a74f50a73f28735d3b446]
@startuml V2WConfig
!include v2wconvert_UML.puml

class V2WConfig {
    - config: dict
    - converter: V2WConvert
    - vcd: VCDVCD

    + __init__(argv: list)
    + group_and_sort_signals(signals: list): list
    + argparse(argv: list)
    + generate_config()
    + loop_and_find_sigs_clks(vcd: dict, signals: set, clocks: set, clock_periods: dict, timescale: str, base_unit: str, cmn_unit: str, cmn_base: str): tuple
}

V2WConfig - -> V2WConvert
V2WConfig - -> VCDVCD

@enduml

@startuml V2WConfig

class V2WConvert {
    - cmn_unit: str
    - cmn_base: str
    - ureg: UnitRegistry

    + __init__()
    + convert_timescale_to_cmn_units(value: int, current_timescale: str, cmn_unit: str, cmn_base: str): str
    + calculate_sampling_points(vcd_timescale: str, target_interval: str, endtime: str): list
    - _convert_to_magnitude(time_base: str, units: str): int
}

V2WConvert - -> UnitRegistry


class V2WConfig {
    - config: dict
    - converter: V2WConvert
    - vcd: VCDVCD

    + __init__(argv: list)
    + group_and_sort_signals(signals: list): list
    + argparse(argv: list)
    + generate_config()
    + loop_and_find_sigs_clks(vcd: dict, signals: set, clocks: set, clock_periods: dict, timescale: str, base_unit: str, cmn_unit: str, cmn_base: str): tuple
}

V2WConfig - -> V2WConvert
V2WConfig - -> VCDVCD

@enduml

PlantUML version 1.2022.7(Mon Aug 22 10:01:30 PDT 2022)
(GPL source distribution)
Java Runtime: OpenJDK Runtime Environment
JVM: OpenJDK 64-Bit Server VM
Default Encoding: UTF-8
Language: en
Country: US
--></g></svg>