<?xml version="1.0" encoding="UTF-8" standalone="no"?><svg xmlns="http://www.w3.org/2000/svg" xmlns:xlink="http://www.w3.org/1999/xlink" contentStyleType="text/css" height="480px" preserveAspectRatio="none" style="width:423px;height:480px;background:#FFFFFF;" version="1.1" viewBox="0 0 423 480" width="423px" zoomAndPan="magnify"><defs/><g><!--MD5=[aa98b3393da0d3ee0d5cebf202cb5225]
class ParameterRecord--><g id="elem_ParameterRecord"><rect codeLine="2" fill="#F1F1F1" height="162.0781" id="ParameterRecord" rx="2.5" ry="2.5" style="stroke:#181818;stroke-width:0.5;" width="193" x="115" y="311"/><ellipse cx="148" cy="327" fill="#ADD1B2" rx="11" ry="11" style="stroke:#181818;stroke-width:1.0;"/><path d="M150.9688,332.6406 Q150.3906,332.9375 149.75,333.0781 Q149.1094,333.2344 148.4063,333.2344 Q145.9063,333.2344 144.5781,331.5938 Q143.2656,329.9375 143.2656,326.8125 Q143.2656,323.6875 144.5781,322.0313 Q145.9063,320.375 148.4063,320.375 Q149.1094,320.375 149.75,320.5313 Q150.4063,320.6875 150.9688,320.9844 L150.9688,323.7031 Q150.3438,323.125 149.75,322.8594 Q149.1563,322.5781 148.5313,322.5781 Q147.1875,322.5781 146.5,323.6563 Q145.8125,324.7188 145.8125,326.8125 Q145.8125,328.9063 146.5,329.9844 Q147.1875,331.0469 148.5313,331.0469 Q149.1563,331.0469 149.75,330.7813 Q150.3438,330.5 150.9688,329.9219 L150.9688,332.6406 Z " fill="#000000"/><text fill="#000000" font-family="sans-serif" font-size="14" lengthAdjust="spacing" textLength="121" x="166" y="331.8467">ParameterRecord</text><line style="stroke:#181818;stroke-width:0.5;" x1="116" x2="307" y1="343" y2="343"/><rect fill="none" height="6" style="stroke:#C82930;stroke-width:1.0;" width="6" x="123" y="353.6484"/><text fill="#000000" font-family="sans-serif" font-size="14" lengthAdjust="spacing" textLength="84" x="135" y="359.9951">sig_type: str</text><rect fill="none" height="6" style="stroke:#C82930;stroke-width:1.0;" width="6" x="123" y="369.9453"/><text fill="#000000" font-family="sans-serif" font-size="14" lengthAdjust="spacing" textLength="66" x="135" y="376.292">name: str</text><rect fill="none" height="6" style="stroke:#C82930;stroke-width:1.0;" width="6" x="123" y="386.2422"/><text fill="#000000" font-family="sans-serif" font-size="14" lengthAdjust="spacing" textLength="63" x="135" y="392.5889">value: str</text><rect fill="none" height="6" style="stroke:#C82930;stroke-width:1.0;" width="6" x="123" y="402.5391"/><text fill="#000000" font-family="sans-serif" font-size="14" lengthAdjust="spacing" textLength="78" x="135" y="408.8857">packed: str</text><rect fill="none" height="6" style="stroke:#C82930;stroke-width:1.0;" width="6" x="123" y="418.8359"/><text fill="#000000" font-family="sans-serif" font-size="14" lengthAdjust="spacing" textLength="96" x="135" y="425.1826">unpacked: str</text><rect fill="none" height="6" style="stroke:#C82930;stroke-width:1.0;" width="6" x="123" y="435.1328"/><text fill="#000000" font-family="sans-serif" font-size="14" lengthAdjust="spacing" textLength="167" x="135" y="441.4795">compilerDirectiveSig: str</text><rect fill="none" height="6" style="stroke:#C82930;stroke-width:1.0;" width="6" x="123" y="451.4297"/><text fill="#000000" font-family="sans-serif" font-size="14" lengthAdjust="spacing" textLength="146" x="135" y="457.7764">compilerDirective: str</text><line style="stroke:#181818;stroke-width:0.5;" x1="116" x2="307" y1="465.0781" y2="465.0781"/></g><!--MD5=[50e84904102f7674e527f8a673da424a]
class Param--><g id="elem_Param"><rect codeLine="12" fill="#F1F1F1" height="243.5625" id="Param" rx="2.5" ry="2.5" style="stroke:#181818;stroke-width:0.5;" width="409" x="7" y="7"/><ellipse cx="185.75" cy="23" fill="#ADD1B2" rx="11" ry="11" style="stroke:#181818;stroke-width:1.0;"/><path d="M188.7188,28.6406 Q188.1406,28.9375 187.5,29.0781 Q186.8594,29.2344 186.1563,29.2344 Q183.6563,29.2344 182.3281,27.5938 Q181.0156,25.9375 181.0156,22.8125 Q181.0156,19.6875 182.3281,18.0313 Q183.6563,16.375 186.1563,16.375 Q186.8594,16.375 187.5,16.5313 Q188.1563,16.6875 188.7188,16.9844 L188.7188,19.7031 Q188.0938,19.125 187.5,18.8594 Q186.9063,18.5781 186.2813,18.5781 Q184.9375,18.5781 184.25,19.6563 Q183.5625,20.7188 183.5625,22.8125 Q183.5625,24.9063 184.25,25.9844 Q184.9375,27.0469 186.2813,27.0469 Q186.9063,27.0469 187.5,26.7813 Q188.0938,26.5 188.7188,25.9219 L188.7188,28.6406 Z " fill="#000000"/><text fill="#000000" font-family="sans-serif" font-size="14" lengthAdjust="spacing" textLength="43" x="206.25" y="27.8467">Param</text><line style="stroke:#181818;stroke-width:0.5;" x1="8" x2="415" y1="39" y2="39"/><rect fill="none" height="6" style="stroke:#C82930;stroke-width:1.0;" width="6" x="15" y="49.6484"/><text fill="#000000" font-family="sans-serif" font-size="14" lengthAdjust="spacing" textLength="250" x="27" y="55.9951">paramrec_list: list[ParameterRecord]</text><line style="stroke:#181818;stroke-width:0.5;" x1="8" x2="415" y1="63.2969" y2="63.2969"/><ellipse cx="18" cy="76.9453" fill="#84BE84" rx="3" ry="3" style="stroke:#038048;stroke-width:1.0;"/><text fill="#000000" font-family="sans-serif" font-size="14" lengthAdjust="spacing" textLength="176" x="27" y="80.292">__init__(signal_str: str = '')</text><ellipse cx="18" cy="93.2422" fill="#84BE84" rx="3" ry="3" style="stroke:#038048;stroke-width:1.0;"/><text fill="#000000" font-family="sans-serif" font-size="14" lengthAdjust="spacing" textLength="225" x="27" y="96.5889">__repr__(): list[ParameterRecord]</text><rect fill="#F24D5C" height="6" style="stroke:#C82930;stroke-width:1.0;" width="6" x="15" y="106.5391"/><text fill="#000000" font-family="sans-serif" font-size="14" lengthAdjust="spacing" textLength="278" x="27" y="112.8857">_found_name(name: str): tuple[bool, int]</text><rect fill="#F24D5C" height="6" style="stroke:#C82930;stroke-width:1.0;" width="6" x="15" y="122.8359"/><text fill="#000000" font-family="sans-serif" font-size="14" lengthAdjust="spacing" textLength="280" x="27" y="129.1826">_convert_paramrec_list(rec_list: list): void</text><rect fill="#F24D5C" height="6" style="stroke:#C82930;stroke-width:1.0;" width="6" x="15" y="139.1328"/><text fill="#000000" font-family="sans-serif" font-size="14" lengthAdjust="spacing" textLength="293" x="27" y="145.4795">_convert_paramrec(rec): ParameterRecord</text><rect fill="#F24D5C" height="6" style="stroke:#C82930;stroke-width:1.0;" width="6" x="15" y="155.4297"/><text fill="#000000" font-family="sans-serif" font-size="14" lengthAdjust="spacing" textLength="262" x="27" y="161.7764">__get_max_lengths(): tuple[int, int, int]</text><ellipse cx="18" cy="174.7266" fill="#84BE84" rx="3" ry="3" style="stroke:#038048;stroke-width:1.0;"/><text fill="#000000" font-family="sans-serif" font-size="14" lengthAdjust="spacing" textLength="303" x="27" y="178.0732">set_param_value(param: str, value: str): void</text><ellipse cx="18" cy="191.0234" fill="#84BE84" rx="3" ry="3" style="stroke:#038048;stroke-width:1.0;"/><text fill="#000000" font-family="sans-serif" font-size="14" lengthAdjust="spacing" textLength="383" x="27" y="194.3701">add_param_string(signal_str: str): list[ParameterRecord]</text><ellipse cx="18" cy="207.3203" fill="#84BE84" rx="3" ry="3" style="stroke:#038048;stroke-width:1.0;"/><text fill="#000000" font-family="sans-serif" font-size="14" lengthAdjust="spacing" textLength="177" x="27" y="210.667">create_param_string(): str</text><ellipse cx="18" cy="223.6172" fill="#84BE84" rx="3" ry="3" style="stroke:#038048;stroke-width:1.0;"/><text fill="#000000" font-family="sans-serif" font-size="14" lengthAdjust="spacing" textLength="197" x="27" y="226.9639">create_param_instance(): str</text><ellipse cx="18" cy="239.9141" fill="#84BE84" rx="3" ry="3" style="stroke:#038048;stroke-width:1.0;"/><text fill="#000000" font-family="sans-serif" font-size="14" lengthAdjust="spacing" textLength="83" x="27" y="243.2607">__str__(): str</text></g><!--MD5=[c36bbd98fd3688b04f3c4d62c9754dcc]
link Param to ParameterRecord--><g id="link_Param_ParameterRecord"><path codeLine="28" d="M211.5,251.33 C211.5,264.45 211.5,277.7 211.5,290.53 " fill="none" id="Param-to-ParameterRecord" style="stroke:#181818;stroke-width:1.0;"/><polygon fill="none" points="218.5,290.96,211.5,310.96,204.5,290.96,218.5,290.96" style="stroke:#181818;stroke-width:1.0;"/></g><!--MD5=[ba348f25575a85950d32c8370ede4d68]
@startuml verilog_Param

class ParameterRecord {
  - sig_type: str
  - name: str
  - value: str
  - packed: str
  - unpacked: str
  - compilerDirectiveSig: str
  - compilerDirective: str
}

class Param {
  - paramrec_list: list[ParameterRecord]

  + __init__(signal_str: str = '')
  + __repr__(): list[ParameterRecord]
  - _found_name(name: str): tuple[bool, int]
  - _convert_paramrec_list(rec_list: list): void
  - _convert_paramrec(rec): ParameterRecord
  - __get_max_lengths(): tuple[int, int, int]
  + set_param_value(param: str, value: str): void
  + add_param_string(signal_str: str): list[ParameterRecord]
  + create_param_string(): str
  + create_param_instance(): str
  + __str__(): str
}

Param - -|> ParameterRecord

@enduml

PlantUML version 1.2022.7(Mon Aug 22 10:01:30 PDT 2022)
(GPL source distribution)
Java Runtime: OpenJDK Runtime Environment
JVM: OpenJDK 64-Bit Server VM
Default Encoding: UTF-8
Language: en
Country: US
--></g></svg>