<?xml version="1.0" encoding="UTF-8" standalone="no"?><svg xmlns="http://www.w3.org/2000/svg" xmlns:xlink="http://www.w3.org/1999/xlink" contentStyleType="text/css" height="511px" preserveAspectRatio="none" style="width:378px;height:511px;background:#FFFFFF;" version="1.1" viewBox="0 0 378 511" width="378px" zoomAndPan="magnify"><defs/><g><!--MD5=[9af86775dbec4d8fed326d998bf9f4d3]
class SignalRecord--><g id="elem_SignalRecord"><rect codeLine="2" fill="#F1F1F1" height="210.9688" id="SignalRecord" rx="2.5" ry="2.5" style="stroke:#181818;stroke-width:0.5;" width="193" x="92.5" y="294"/><ellipse cx="139.25" cy="310" fill="#ADD1B2" rx="11" ry="11" style="stroke:#181818;stroke-width:1.0;"/><path d="M142.2188,315.6406 Q141.6406,315.9375 141,316.0781 Q140.3594,316.2344 139.6563,316.2344 Q137.1563,316.2344 135.8281,314.5938 Q134.5156,312.9375 134.5156,309.8125 Q134.5156,306.6875 135.8281,305.0313 Q137.1563,303.375 139.6563,303.375 Q140.3594,303.375 141,303.5313 Q141.6563,303.6875 142.2188,303.9844 L142.2188,306.7031 Q141.5938,306.125 141,305.8594 Q140.4063,305.5781 139.7813,305.5781 Q138.4375,305.5781 137.75,306.6563 Q137.0625,307.7188 137.0625,309.8125 Q137.0625,311.9063 137.75,312.9844 Q138.4375,314.0469 139.7813,314.0469 Q140.4063,314.0469 141,313.7813 Q141.5938,313.5 142.2188,312.9219 L142.2188,315.6406 Z " fill="#000000"/><text fill="#000000" font-family="sans-serif" font-size="14" lengthAdjust="spacing" textLength="91" x="159.75" y="314.8467">SignalRecord</text><line style="stroke:#181818;stroke-width:0.5;" x1="93.5" x2="284.5" y1="326" y2="326"/><rect fill="none" height="6" style="stroke:#C82930;stroke-width:1.0;" width="6" x="100.5" y="336.6484"/><text fill="#000000" font-family="sans-serif" font-size="14" lengthAdjust="spacing" textLength="99" x="112.5" y="342.9951">interface: bool</text><rect fill="none" height="6" style="stroke:#C82930;stroke-width:1.0;" width="6" x="100.5" y="352.9453"/><text fill="#000000" font-family="sans-serif" font-size="14" lengthAdjust="spacing" textLength="84" x="112.5" y="359.292">sig_type: str</text><rect fill="none" height="6" style="stroke:#C82930;stroke-width:1.0;" width="6" x="100.5" y="369.2422"/><text fill="#000000" font-family="sans-serif" font-size="14" lengthAdjust="spacing" textLength="87" x="112.5" y="375.5889">direction: str</text><rect fill="none" height="6" style="stroke:#C82930;stroke-width:1.0;" width="6" x="100.5" y="385.5391"/><text fill="#000000" font-family="sans-serif" font-size="14" lengthAdjust="spacing" textLength="66" x="112.5" y="391.8857">name: str</text><rect fill="none" height="6" style="stroke:#C82930;stroke-width:1.0;" width="6" x="100.5" y="401.8359"/><text fill="#000000" font-family="sans-serif" font-size="14" lengthAdjust="spacing" textLength="78" x="112.5" y="408.1826">packed: str</text><rect fill="none" height="6" style="stroke:#C82930;stroke-width:1.0;" width="6" x="100.5" y="418.1328"/><text fill="#000000" font-family="sans-serif" font-size="14" lengthAdjust="spacing" textLength="96" x="112.5" y="424.4795">unpacked: str</text><rect fill="none" height="6" style="stroke:#C82930;stroke-width:1.0;" width="6" x="100.5" y="434.4297"/><text fill="#000000" font-family="sans-serif" font-size="14" lengthAdjust="spacing" textLength="167" x="112.5" y="440.7764">compilerDirectiveSig: str</text><rect fill="none" height="6" style="stroke:#C82930;stroke-width:1.0;" width="6" x="100.5" y="450.7266"/><text fill="#000000" font-family="sans-serif" font-size="14" lengthAdjust="spacing" textLength="146" x="112.5" y="457.0732">compilerDirective: str</text><rect fill="none" height="6" style="stroke:#C82930;stroke-width:1.0;" width="6" x="100.5" y="467.0234"/><text fill="#000000" font-family="sans-serif" font-size="14" lengthAdjust="spacing" textLength="72" x="112.5" y="473.3701">drivers: int</text><rect fill="none" height="6" style="stroke:#C82930;stroke-width:1.0;" width="6" x="100.5" y="483.3203"/><text fill="#000000" font-family="sans-serif" font-size="14" lengthAdjust="spacing" textLength="89" x="112.5" y="489.667">receivers: int</text><line style="stroke:#181818;stroke-width:0.5;" x1="93.5" x2="284.5" y1="496.9688" y2="496.9688"/></g><!--MD5=[0e770a5826b894b8746f65a5ff995c24]
class Signal--><g id="elem_Signal"><rect codeLine="15" fill="#F1F1F1" height="227.2656" id="Signal" rx="2.5" ry="2.5" style="stroke:#181818;stroke-width:0.5;" width="364" x="7" y="7"/><ellipse cx="164.25" cy="23" fill="#ADD1B2" rx="11" ry="11" style="stroke:#181818;stroke-width:1.0;"/><path d="M167.2188,28.6406 Q166.6406,28.9375 166,29.0781 Q165.3594,29.2344 164.6563,29.2344 Q162.1563,29.2344 160.8281,27.5938 Q159.5156,25.9375 159.5156,22.8125 Q159.5156,19.6875 160.8281,18.0313 Q162.1563,16.375 164.6563,16.375 Q165.3594,16.375 166,16.5313 Q166.6563,16.6875 167.2188,16.9844 L167.2188,19.7031 Q166.5938,19.125 166,18.8594 Q165.4063,18.5781 164.7813,18.5781 Q163.4375,18.5781 162.75,19.6563 Q162.0625,20.7188 162.0625,22.8125 Q162.0625,24.9063 162.75,25.9844 Q163.4375,27.0469 164.7813,27.0469 Q165.4063,27.0469 166,26.7813 Q166.5938,26.5 167.2188,25.9219 L167.2188,28.6406 Z " fill="#000000"/><text fill="#000000" font-family="sans-serif" font-size="14" lengthAdjust="spacing" textLength="41" x="184.75" y="27.8467">Signal</text><line style="stroke:#181818;stroke-width:0.5;" x1="8" x2="370" y1="39" y2="39"/><rect fill="none" height="6" style="stroke:#C82930;stroke-width:1.0;" width="6" x="15" y="49.6484"/><text fill="#000000" font-family="sans-serif" font-size="14" lengthAdjust="spacing" textLength="197" x="27" y="55.9951">sigrec_list: list[SignalRecord]</text><line style="stroke:#181818;stroke-width:0.5;" x1="8" x2="370" y1="63.2969" y2="63.2969"/><ellipse cx="18" cy="76.9453" fill="#84BE84" rx="3" ry="3" style="stroke:#038048;stroke-width:1.0;"/><text fill="#000000" font-family="sans-serif" font-size="14" lengthAdjust="spacing" textLength="176" x="27" y="80.292">__init__(signal_str: str = '')</text><ellipse cx="18" cy="93.2422" fill="#84BE84" rx="3" ry="3" style="stroke:#038048;stroke-width:1.0;"/><text fill="#000000" font-family="sans-serif" font-size="14" lengthAdjust="spacing" textLength="195" x="27" y="96.5889">__repr__(): list[SignalRecord]</text><rect fill="#F24D5C" height="6" style="stroke:#C82930;stroke-width:1.0;" width="6" x="15" y="106.5391"/><text fill="#000000" font-family="sans-serif" font-size="14" lengthAdjust="spacing" textLength="278" x="27" y="112.8857">_found_name(name: str): tuple[bool, int]</text><rect fill="#F24D5C" height="6" style="stroke:#C82930;stroke-width:1.0;" width="6" x="15" y="122.8359"/><text fill="#000000" font-family="sans-serif" font-size="14" lengthAdjust="spacing" textLength="257" x="27" y="129.1826">_convert_sigrec_list(rec_list: list): void</text><rect fill="#F24D5C" height="6" style="stroke:#C82930;stroke-width:1.0;" width="6" x="15" y="139.1328"/><text fill="#000000" font-family="sans-serif" font-size="14" lengthAdjust="spacing" textLength="240" x="27" y="145.4795">_convert_sigrec(rec): SignalRecord</text><rect fill="#F24D5C" height="6" style="stroke:#C82930;stroke-width:1.0;" width="6" x="15" y="155.4297"/><text fill="#000000" font-family="sans-serif" font-size="14" lengthAdjust="spacing" textLength="287" x="27" y="161.7764">__get_max_lengths(): tuple[int, int, int, int]</text><ellipse cx="18" cy="174.7266" fill="#84BE84" rx="3" ry="3" style="stroke:#038048;stroke-width:1.0;"/><text fill="#000000" font-family="sans-serif" font-size="14" lengthAdjust="spacing" textLength="338" x="27" y="178.0732">add_port_string(signal_str: str): list[SignalRecord]</text><ellipse cx="18" cy="191.0234" fill="#84BE84" rx="3" ry="3" style="stroke:#038048;stroke-width:1.0;"/><text fill="#000000" font-family="sans-serif" font-size="14" lengthAdjust="spacing" textLength="162" x="27" y="194.3701">create_wire_string(): str</text><ellipse cx="18" cy="207.3203" fill="#84BE84" rx="3" ry="3" style="stroke:#038048;stroke-width:1.0;"/><text fill="#000000" font-family="sans-serif" font-size="14" lengthAdjust="spacing" textLength="162" x="27" y="210.667">create_port_string(): str</text><ellipse cx="18" cy="223.6172" fill="#84BE84" rx="3" ry="3" style="stroke:#038048;stroke-width:1.0;"/><text fill="#000000" font-family="sans-serif" font-size="14" lengthAdjust="spacing" textLength="83" x="27" y="226.9639">__str__(): str</text></g><!--MD5=[58c7efa2ceff0313e9017cad0910c627]
link Signal to SignalRecord--><g id="link_Signal_SignalRecord"><path codeLine="30" d="M189,234.17 C189,247.14 189,260.43 189,273.55 " fill="none" id="Signal-to-SignalRecord" style="stroke:#181818;stroke-width:1.0;"/><polygon fill="none" points="196,273.98,189,293.98,182,273.98,196,273.98" style="stroke:#181818;stroke-width:1.0;"/></g><!--MD5=[51ab168da073f798690164b7f9a62723]
@startuml verilog_Signal

class SignalRecord {
  - interface: bool
  - sig_type: str
  - direction: str
  - name: str
  - packed: str
  - unpacked: str
  - compilerDirectiveSig: str
  - compilerDirective: str
  - drivers: int
  - receivers: int
}

class Signal {
  - sigrec_list: list[SignalRecord]

  + __init__(signal_str: str = '')
  + __repr__(): list[SignalRecord]
  - _found_name(name: str): tuple[bool, int]
  - _convert_sigrec_list(rec_list: list): void
  - _convert_sigrec(rec): SignalRecord
  - __get_max_lengths(): tuple[int, int, int, int]
  + add_port_string(signal_str: str): list[SignalRecord]
  + create_wire_string(): str
  + create_port_string(): str
  + __str__(): str
}

Signal - -|> SignalRecord

@enduml

PlantUML version 1.2022.7(Mon Aug 22 10:01:30 PDT 2022)
(GPL source distribution)
Java Runtime: OpenJDK Runtime Environment
JVM: OpenJDK 64-Bit Server VM
Default Encoding: UTF-8
Language: en
Country: US
--></g></svg>