<?xml version="1.0" encoding="UTF-8" standalone="no"?><svg xmlns="http://www.w3.org/2000/svg" xmlns:xlink="http://www.w3.org/1999/xlink" contentStyleType="text/css" height="1167px" preserveAspectRatio="none" style="width:822px;height:1167px;background:#FFFFFF;" version="1.1" viewBox="0 0 822 1167" width="822px" zoomAndPan="magnify"><defs/><g><!--MD5=[2b7409a316d9d2e410653e6983353aed]
class Module--><g id="elem_Module"><rect codeLine="2" fill="#F1F1F1" height="390.2344" id="Module" rx="2.5" ry="2.5" style="stroke:#181818;stroke-width:0.5;" width="436" x="186" y="7"/><ellipse cx="374.25" cy="23" fill="#ADD1B2" rx="11" ry="11" style="stroke:#181818;stroke-width:1.0;"/><path d="M377.2188,28.6406 Q376.6406,28.9375 376,29.0781 Q375.3594,29.2344 374.6563,29.2344 Q372.1563,29.2344 370.8281,27.5938 Q369.5156,25.9375 369.5156,22.8125 Q369.5156,19.6875 370.8281,18.0313 Q372.1563,16.375 374.6563,16.375 Q375.3594,16.375 376,16.5313 Q376.6563,16.6875 377.2188,16.9844 L377.2188,19.7031 Q376.5938,19.125 376,18.8594 Q375.4063,18.5781 374.7813,18.5781 Q373.4375,18.5781 372.75,19.6563 Q372.0625,20.7188 372.0625,22.8125 Q372.0625,24.9063 372.75,25.9844 Q373.4375,27.0469 374.7813,27.0469 Q375.4063,27.0469 376,26.7813 Q376.5938,26.5 377.2188,25.9219 L377.2188,28.6406 Z " fill="#000000"/><text fill="#000000" font-family="sans-serif" font-size="14" lengthAdjust="spacing" textLength="51" x="394.75" y="27.8467">Module</text><line style="stroke:#181818;stroke-width:0.5;" x1="187" x2="621" y1="39" y2="39"/><rect fill="none" height="6" style="stroke:#C82930;stroke-width:1.0;" width="6" x="194" y="49.6484"/><text fill="#000000" font-family="sans-serif" font-size="14" lengthAdjust="spacing" textLength="147" x="206" y="55.9951">start_instructions: list</text><rect fill="none" height="6" style="stroke:#C82930;stroke-width:1.0;" width="6" x="194" y="65.9453"/><text fill="#000000" font-family="sans-serif" font-size="14" lengthAdjust="spacing" textLength="109" x="206" y="72.292">instructions: list</text><rect fill="none" height="6" style="stroke:#C82930;stroke-width:1.0;" width="6" x="194" y="82.2422"/><text fill="#000000" font-family="sans-serif" font-size="14" lengthAdjust="spacing" textLength="143" x="206" y="88.5889">end_instructions: list</text><rect fill="none" height="6" style="stroke:#C82930;stroke-width:1.0;" width="6" x="194" y="98.5391"/><text fill="#000000" font-family="sans-serif" font-size="14" lengthAdjust="spacing" textLength="125" x="206" y="104.8857">module_name: str</text><rect fill="none" height="6" style="stroke:#C82930;stroke-width:1.0;" width="6" x="194" y="114.8359"/><text fill="#000000" font-family="sans-serif" font-size="14" lengthAdjust="spacing" textLength="132" x="206" y="121.1826">instance_name: str</text><rect fill="none" height="6" style="stroke:#C82930;stroke-width:1.0;" width="6" x="194" y="131.1328"/><text fill="#000000" font-family="sans-serif" font-size="14" lengthAdjust="spacing" textLength="103" x="206" y="137.4795">params: Param</text><rect fill="none" height="6" style="stroke:#C82930;stroke-width:1.0;" width="6" x="194" y="147.4297"/><text fill="#000000" font-family="sans-serif" font-size="14" lengthAdjust="spacing" textLength="86" x="206" y="153.7764">ports: Signal</text><rect fill="none" height="6" style="stroke:#C82930;stroke-width:1.0;" width="6" x="194" y="163.7266"/><text fill="#000000" font-family="sans-serif" font-size="14" lengthAdjust="spacing" textLength="64" x="206" y="170.0732">wires: list</text><line style="stroke:#181818;stroke-width:0.5;" x1="187" x2="621" y1="177.375" y2="177.375"/><ellipse cx="197" cy="191.0234" fill="#84BE84" rx="3" ry="3" style="stroke:#038048;stroke-width:1.0;"/><text fill="#000000" font-family="sans-serif" font-size="14" lengthAdjust="spacing" textLength="375" x="206" y="194.3701">__init__(module_name: str = '', instance_name: str = '')</text><ellipse cx="197" cy="207.3203" fill="#84BE84" rx="3" ry="3" style="stroke:#038048;stroke-width:1.0;"/><text fill="#000000" font-family="sans-serif" font-size="14" lengthAdjust="spacing" textLength="217" x="206" y="210.667">add_port_string(ports: str): void</text><ellipse cx="197" cy="223.6172" fill="#84BE84" rx="3" ry="3" style="stroke:#038048;stroke-width:1.0;"/><text fill="#000000" font-family="sans-serif" font-size="14" lengthAdjust="spacing" textLength="213" x="206" y="226.9639">wire(name: str, _type: str): void</text><ellipse cx="197" cy="239.9141" fill="#84BE84" rx="3" ry="3" style="stroke:#038048;stroke-width:1.0;"/><text fill="#000000" font-family="sans-serif" font-size="14" lengthAdjust="spacing" textLength="78" x="206" y="243.2607">start(): void</text><ellipse cx="197" cy="256.2109" fill="#84BE84" rx="3" ry="3" style="stroke:#038048;stroke-width:1.0;"/><text fill="#000000" font-family="sans-serif" font-size="14" lengthAdjust="spacing" textLength="74" x="206" y="259.5576">end(): void</text><ellipse cx="197" cy="272.5078" fill="#84BE84" rx="3" ry="3" style="stroke:#038048;stroke-width:1.0;"/><text fill="#000000" font-family="sans-serif" font-size="14" lengthAdjust="spacing" textLength="234" x="206" y="275.8545">stmt_assign(lhs: str, rhs: str): void</text><ellipse cx="197" cy="288.8047" fill="#84BE84" rx="3" ry="3" style="stroke:#038048;stroke-width:1.0;"/><text fill="#000000" font-family="sans-serif" font-size="14" lengthAdjust="spacing" textLength="220" x="206" y="292.1514">instruction(instruction: str): void</text><ellipse cx="197" cy="305.1016" fill="#84BE84" rx="3" ry="3" style="stroke:#038048;stroke-width:1.0;"/><text fill="#000000" font-family="sans-serif" font-size="14" lengthAdjust="spacing" textLength="148" x="206" y="308.4482">comment(c: str): void</text><ellipse cx="197" cy="321.3984" fill="#84BE84" rx="3" ry="3" style="stroke:#038048;stroke-width:1.0;"/><text fill="#000000" font-family="sans-serif" font-size="14" lengthAdjust="spacing" textLength="257" x="206" y="324.7451">write(file_path: str, filename: str): void</text><ellipse cx="197" cy="337.6953" fill="#84BE84" rx="3" ry="3" style="stroke:#038048;stroke-width:1.0;"/><text fill="#000000" font-family="sans-serif" font-size="14" lengthAdjust="spacing" textLength="410" x="206" y="341.042">instantiate(instance_name: str, inputs: list, outputs: list): str</text><ellipse cx="197" cy="353.9922" fill="#84BE84" rx="3" ry="3" style="stroke:#038048;stroke-width:1.0;"/><text fill="#000000" font-family="sans-serif" font-size="14" lengthAdjust="spacing" textLength="83" x="206" y="357.3389">__str__(): str</text><ellipse cx="197" cy="370.2891" fill="#84BE84" rx="3" ry="3" style="stroke:#038048;stroke-width:1.0;"/><text fill="#000000" font-family="sans-serif" font-size="14" lengthAdjust="spacing" textLength="295" x="206" y="373.6357">in_connector(port: str, connector: str): dict</text><ellipse cx="197" cy="386.5859" fill="#84BE84" rx="3" ry="3" style="stroke:#038048;stroke-width:1.0;"/><text fill="#000000" font-family="sans-serif" font-size="14" lengthAdjust="spacing" textLength="306" x="206" y="389.9326">out_connector(port: str, connector: str): dict</text></g><!--MD5=[e019d1a64a56e503b1e3a49267f1beab]
class ParserHelper--><g id="elem_ParserHelper"><rect codeLine="2" fill="#F1F1F1" height="129.4844" id="ParserHelper" rx="2.5" ry="2.5" style="stroke:#181818;stroke-width:0.5;" width="297" x="255.5" y="457"/><ellipse cx="355.25" cy="473" fill="#ADD1B2" rx="11" ry="11" style="stroke:#181818;stroke-width:1.0;"/><path d="M358.2188,478.6406 Q357.6406,478.9375 357,479.0781 Q356.3594,479.2344 355.6563,479.2344 Q353.1563,479.2344 351.8281,477.5938 Q350.5156,475.9375 350.5156,472.8125 Q350.5156,469.6875 351.8281,468.0313 Q353.1563,466.375 355.6563,466.375 Q356.3594,466.375 357,466.5313 Q357.6563,466.6875 358.2188,466.9844 L358.2188,469.7031 Q357.5938,469.125 357,468.8594 Q356.4063,468.5781 355.7813,468.5781 Q354.4375,468.5781 353.75,469.6563 Q353.0625,470.7188 353.0625,472.8125 Q353.0625,474.9063 353.75,475.9844 Q354.4375,477.0469 355.7813,477.0469 Q356.4063,477.0469 357,476.7813 Q357.5938,476.5 358.2188,475.9219 L358.2188,478.6406 Z " fill="#000000"/><text fill="#000000" font-family="sans-serif" font-size="14" lengthAdjust="spacing" textLength="89" x="375.75" y="477.8467">ParserHelper</text><line style="stroke:#181818;stroke-width:0.5;" x1="256.5" x2="551.5" y1="489" y2="489"/><line style="stroke:#181818;stroke-width:0.5;" x1="256.5" x2="551.5" y1="497" y2="497"/><ellipse cx="266.5" cy="510.6484" fill="#84BE84" rx="3" ry="3" style="stroke:#038048;stroke-width:1.0;"/><text fill="#000000" font-family="sans-serif" font-size="14" lengthAdjust="spacing" textLength="228" x="275.5" y="513.9951">parsePortsList(signal_str: str): list</text><ellipse cx="266.5" cy="526.9453" fill="#84BE84" rx="3" ry="3" style="stroke:#038048;stroke-width:1.0;"/><text fill="#000000" font-family="sans-serif" font-size="14" lengthAdjust="spacing" textLength="271" x="275.5" y="530.292">parseParametersList(signal_str: str): list</text><ellipse cx="266.5" cy="543.2422" fill="#84BE84" rx="3" ry="3" style="stroke:#038048;stroke-width:1.0;"/><text fill="#000000" font-family="sans-serif" font-size="14" lengthAdjust="spacing" textLength="206" x="275.5" y="546.5889">cleanString(signal_str: str): str</text><ellipse cx="266.5" cy="559.5391" fill="#84BE84" rx="3" ry="3" style="stroke:#038048;stroke-width:1.0;"/><text fill="#000000" font-family="sans-serif" font-size="14" lengthAdjust="spacing" textLength="255" x="275.5" y="562.8857">arrayMerge(current: str, new: str): str</text><ellipse cx="266.5" cy="575.8359" fill="#84BE84" rx="3" ry="3" style="stroke:#038048;stroke-width:1.0;"/><text fill="#000000" font-family="sans-serif" font-size="14" lengthAdjust="spacing" textLength="243" x="275.5" y="579.1826">padRight(string: str, length: int): str</text></g><!--MD5=[9af86775dbec4d8fed326d998bf9f4d3]
class SignalRecord--><g id="elem_SignalRecord"><rect codeLine="2" fill="#F1F1F1" height="210.9688" id="SignalRecord" rx="2.5" ry="2.5" style="stroke:#181818;stroke-width:0.5;" width="193" x="92.5" y="950"/><ellipse cx="139.25" cy="966" fill="#ADD1B2" rx="11" ry="11" style="stroke:#181818;stroke-width:1.0;"/><path d="M142.2188,971.6406 Q141.6406,971.9375 141,972.0781 Q140.3594,972.2344 139.6563,972.2344 Q137.1563,972.2344 135.8281,970.5938 Q134.5156,968.9375 134.5156,965.8125 Q134.5156,962.6875 135.8281,961.0313 Q137.1563,959.375 139.6563,959.375 Q140.3594,959.375 141,959.5313 Q141.6563,959.6875 142.2188,959.9844 L142.2188,962.7031 Q141.5938,962.125 141,961.8594 Q140.4063,961.5781 139.7813,961.5781 Q138.4375,961.5781 137.75,962.6563 Q137.0625,963.7188 137.0625,965.8125 Q137.0625,967.9063 137.75,968.9844 Q138.4375,970.0469 139.7813,970.0469 Q140.4063,970.0469 141,969.7813 Q141.5938,969.5 142.2188,968.9219 L142.2188,971.6406 Z " fill="#000000"/><text fill="#000000" font-family="sans-serif" font-size="14" lengthAdjust="spacing" textLength="91" x="159.75" y="970.8467">SignalRecord</text><line style="stroke:#181818;stroke-width:0.5;" x1="93.5" x2="284.5" y1="982" y2="982"/><rect fill="none" height="6" style="stroke:#C82930;stroke-width:1.0;" width="6" x="100.5" y="992.6484"/><text fill="#000000" font-family="sans-serif" font-size="14" lengthAdjust="spacing" textLength="99" x="112.5" y="998.9951">interface: bool</text><rect fill="none" height="6" style="stroke:#C82930;stroke-width:1.0;" width="6" x="100.5" y="1008.9453"/><text fill="#000000" font-family="sans-serif" font-size="14" lengthAdjust="spacing" textLength="84" x="112.5" y="1015.292">sig_type: str</text><rect fill="none" height="6" style="stroke:#C82930;stroke-width:1.0;" width="6" x="100.5" y="1025.2422"/><text fill="#000000" font-family="sans-serif" font-size="14" lengthAdjust="spacing" textLength="87" x="112.5" y="1031.5889">direction: str</text><rect fill="none" height="6" style="stroke:#C82930;stroke-width:1.0;" width="6" x="100.5" y="1041.5391"/><text fill="#000000" font-family="sans-serif" font-size="14" lengthAdjust="spacing" textLength="66" x="112.5" y="1047.8857">name: str</text><rect fill="none" height="6" style="stroke:#C82930;stroke-width:1.0;" width="6" x="100.5" y="1057.8359"/><text fill="#000000" font-family="sans-serif" font-size="14" lengthAdjust="spacing" textLength="78" x="112.5" y="1064.1826">packed: str</text><rect fill="none" height="6" style="stroke:#C82930;stroke-width:1.0;" width="6" x="100.5" y="1074.1328"/><text fill="#000000" font-family="sans-serif" font-size="14" lengthAdjust="spacing" textLength="96" x="112.5" y="1080.4795">unpacked: str</text><rect fill="none" height="6" style="stroke:#C82930;stroke-width:1.0;" width="6" x="100.5" y="1090.4297"/><text fill="#000000" font-family="sans-serif" font-size="14" lengthAdjust="spacing" textLength="167" x="112.5" y="1096.7764">compilerDirectiveSig: str</text><rect fill="none" height="6" style="stroke:#C82930;stroke-width:1.0;" width="6" x="100.5" y="1106.7266"/><text fill="#000000" font-family="sans-serif" font-size="14" lengthAdjust="spacing" textLength="146" x="112.5" y="1113.0732">compilerDirective: str</text><rect fill="none" height="6" style="stroke:#C82930;stroke-width:1.0;" width="6" x="100.5" y="1123.0234"/><text fill="#000000" font-family="sans-serif" font-size="14" lengthAdjust="spacing" textLength="72" x="112.5" y="1129.3701">drivers: int</text><rect fill="none" height="6" style="stroke:#C82930;stroke-width:1.0;" width="6" x="100.5" y="1139.3203"/><text fill="#000000" font-family="sans-serif" font-size="14" lengthAdjust="spacing" textLength="89" x="112.5" y="1145.667">receivers: int</text><line style="stroke:#181818;stroke-width:0.5;" x1="93.5" x2="284.5" y1="1152.9688" y2="1152.9688"/></g><!--MD5=[0e770a5826b894b8746f65a5ff995c24]
class Signal--><g id="elem_Signal"><rect codeLine="15" fill="#F1F1F1" height="227.2656" id="Signal" rx="2.5" ry="2.5" style="stroke:#181818;stroke-width:0.5;" width="364" x="7" y="654.5"/><ellipse cx="164.25" cy="670.5" fill="#ADD1B2" rx="11" ry="11" style="stroke:#181818;stroke-width:1.0;"/><path d="M167.2188,676.1406 Q166.6406,676.4375 166,676.5781 Q165.3594,676.7344 164.6563,676.7344 Q162.1563,676.7344 160.8281,675.0938 Q159.5156,673.4375 159.5156,670.3125 Q159.5156,667.1875 160.8281,665.5313 Q162.1563,663.875 164.6563,663.875 Q165.3594,663.875 166,664.0313 Q166.6563,664.1875 167.2188,664.4844 L167.2188,667.2031 Q166.5938,666.625 166,666.3594 Q165.4063,666.0781 164.7813,666.0781 Q163.4375,666.0781 162.75,667.1563 Q162.0625,668.2188 162.0625,670.3125 Q162.0625,672.4063 162.75,673.4844 Q163.4375,674.5469 164.7813,674.5469 Q165.4063,674.5469 166,674.2813 Q166.5938,674 167.2188,673.4219 L167.2188,676.1406 Z " fill="#000000"/><text fill="#000000" font-family="sans-serif" font-size="14" lengthAdjust="spacing" textLength="41" x="184.75" y="675.3467">Signal</text><line style="stroke:#181818;stroke-width:0.5;" x1="8" x2="370" y1="686.5" y2="686.5"/><rect fill="none" height="6" style="stroke:#C82930;stroke-width:1.0;" width="6" x="15" y="697.1484"/><text fill="#000000" font-family="sans-serif" font-size="14" lengthAdjust="spacing" textLength="197" x="27" y="703.4951">sigrec_list: list[SignalRecord]</text><line style="stroke:#181818;stroke-width:0.5;" x1="8" x2="370" y1="710.7969" y2="710.7969"/><ellipse cx="18" cy="724.4453" fill="#84BE84" rx="3" ry="3" style="stroke:#038048;stroke-width:1.0;"/><text fill="#000000" font-family="sans-serif" font-size="14" lengthAdjust="spacing" textLength="176" x="27" y="727.792">__init__(signal_str: str = '')</text><ellipse cx="18" cy="740.7422" fill="#84BE84" rx="3" ry="3" style="stroke:#038048;stroke-width:1.0;"/><text fill="#000000" font-family="sans-serif" font-size="14" lengthAdjust="spacing" textLength="195" x="27" y="744.0889">__repr__(): list[SignalRecord]</text><rect fill="#F24D5C" height="6" style="stroke:#C82930;stroke-width:1.0;" width="6" x="15" y="754.0391"/><text fill="#000000" font-family="sans-serif" font-size="14" lengthAdjust="spacing" textLength="278" x="27" y="760.3857">_found_name(name: str): tuple[bool, int]</text><rect fill="#F24D5C" height="6" style="stroke:#C82930;stroke-width:1.0;" width="6" x="15" y="770.3359"/><text fill="#000000" font-family="sans-serif" font-size="14" lengthAdjust="spacing" textLength="257" x="27" y="776.6826">_convert_sigrec_list(rec_list: list): void</text><rect fill="#F24D5C" height="6" style="stroke:#C82930;stroke-width:1.0;" width="6" x="15" y="786.6328"/><text fill="#000000" font-family="sans-serif" font-size="14" lengthAdjust="spacing" textLength="240" x="27" y="792.9795">_convert_sigrec(rec): SignalRecord</text><rect fill="#F24D5C" height="6" style="stroke:#C82930;stroke-width:1.0;" width="6" x="15" y="802.9297"/><text fill="#000000" font-family="sans-serif" font-size="14" lengthAdjust="spacing" textLength="287" x="27" y="809.2764">__get_max_lengths(): tuple[int, int, int, int]</text><ellipse cx="18" cy="822.2266" fill="#84BE84" rx="3" ry="3" style="stroke:#038048;stroke-width:1.0;"/><text fill="#000000" font-family="sans-serif" font-size="14" lengthAdjust="spacing" textLength="338" x="27" y="825.5732">add_port_string(signal_str: str): list[SignalRecord]</text><ellipse cx="18" cy="838.5234" fill="#84BE84" rx="3" ry="3" style="stroke:#038048;stroke-width:1.0;"/><text fill="#000000" font-family="sans-serif" font-size="14" lengthAdjust="spacing" textLength="162" x="27" y="841.8701">create_wire_string(): str</text><ellipse cx="18" cy="854.8203" fill="#84BE84" rx="3" ry="3" style="stroke:#038048;stroke-width:1.0;"/><text fill="#000000" font-family="sans-serif" font-size="14" lengthAdjust="spacing" textLength="162" x="27" y="858.167">create_port_string(): str</text><ellipse cx="18" cy="871.1172" fill="#84BE84" rx="3" ry="3" style="stroke:#038048;stroke-width:1.0;"/><text fill="#000000" font-family="sans-serif" font-size="14" lengthAdjust="spacing" textLength="83" x="27" y="874.4639">__str__(): str</text></g><!--MD5=[aa98b3393da0d3ee0d5cebf202cb5225]
class ParameterRecord--><g id="elem_ParameterRecord"><rect codeLine="2" fill="#F1F1F1" height="162.0781" id="ParameterRecord" rx="2.5" ry="2.5" style="stroke:#181818;stroke-width:0.5;" width="193" x="514.5" y="974.5"/><ellipse cx="547.5" cy="990.5" fill="#ADD1B2" rx="11" ry="11" style="stroke:#181818;stroke-width:1.0;"/><path d="M550.4688,996.1406 Q549.8906,996.4375 549.25,996.5781 Q548.6094,996.7344 547.9063,996.7344 Q545.4063,996.7344 544.0781,995.0938 Q542.7656,993.4375 542.7656,990.3125 Q542.7656,987.1875 544.0781,985.5313 Q545.4063,983.875 547.9063,983.875 Q548.6094,983.875 549.25,984.0313 Q549.9063,984.1875 550.4688,984.4844 L550.4688,987.2031 Q549.8438,986.625 549.25,986.3594 Q548.6563,986.0781 548.0313,986.0781 Q546.6875,986.0781 546,987.1563 Q545.3125,988.2188 545.3125,990.3125 Q545.3125,992.4063 546,993.4844 Q546.6875,994.5469 548.0313,994.5469 Q548.6563,994.5469 549.25,994.2813 Q549.8438,994 550.4688,993.4219 L550.4688,996.1406 Z " fill="#000000"/><text fill="#000000" font-family="sans-serif" font-size="14" lengthAdjust="spacing" textLength="121" x="565.5" y="995.3467">ParameterRecord</text><line style="stroke:#181818;stroke-width:0.5;" x1="515.5" x2="706.5" y1="1006.5" y2="1006.5"/><rect fill="none" height="6" style="stroke:#C82930;stroke-width:1.0;" width="6" x="522.5" y="1017.1484"/><text fill="#000000" font-family="sans-serif" font-size="14" lengthAdjust="spacing" textLength="84" x="534.5" y="1023.4951">sig_type: str</text><rect fill="none" height="6" style="stroke:#C82930;stroke-width:1.0;" width="6" x="522.5" y="1033.4453"/><text fill="#000000" font-family="sans-serif" font-size="14" lengthAdjust="spacing" textLength="66" x="534.5" y="1039.792">name: str</text><rect fill="none" height="6" style="stroke:#C82930;stroke-width:1.0;" width="6" x="522.5" y="1049.7422"/><text fill="#000000" font-family="sans-serif" font-size="14" lengthAdjust="spacing" textLength="63" x="534.5" y="1056.0889">value: str</text><rect fill="none" height="6" style="stroke:#C82930;stroke-width:1.0;" width="6" x="522.5" y="1066.0391"/><text fill="#000000" font-family="sans-serif" font-size="14" lengthAdjust="spacing" textLength="78" x="534.5" y="1072.3857">packed: str</text><rect fill="none" height="6" style="stroke:#C82930;stroke-width:1.0;" width="6" x="522.5" y="1082.3359"/><text fill="#000000" font-family="sans-serif" font-size="14" lengthAdjust="spacing" textLength="96" x="534.5" y="1088.6826">unpacked: str</text><rect fill="none" height="6" style="stroke:#C82930;stroke-width:1.0;" width="6" x="522.5" y="1098.6328"/><text fill="#000000" font-family="sans-serif" font-size="14" lengthAdjust="spacing" textLength="167" x="534.5" y="1104.9795">compilerDirectiveSig: str</text><rect fill="none" height="6" style="stroke:#C82930;stroke-width:1.0;" width="6" x="522.5" y="1114.9297"/><text fill="#000000" font-family="sans-serif" font-size="14" lengthAdjust="spacing" textLength="146" x="534.5" y="1121.2764">compilerDirective: str</text><line style="stroke:#181818;stroke-width:0.5;" x1="515.5" x2="706.5" y1="1128.5781" y2="1128.5781"/></g><!--MD5=[50e84904102f7674e527f8a673da424a]
class Param--><g id="elem_Param"><rect codeLine="12" fill="#F1F1F1" height="243.5625" id="Param" rx="2.5" ry="2.5" style="stroke:#181818;stroke-width:0.5;" width="409" x="406.5" y="646"/><ellipse cx="585.25" cy="662" fill="#ADD1B2" rx="11" ry="11" style="stroke:#181818;stroke-width:1.0;"/><path d="M588.2188,667.6406 Q587.6406,667.9375 587,668.0781 Q586.3594,668.2344 585.6563,668.2344 Q583.1563,668.2344 581.8281,666.5938 Q580.5156,664.9375 580.5156,661.8125 Q580.5156,658.6875 581.8281,657.0313 Q583.1563,655.375 585.6563,655.375 Q586.3594,655.375 587,655.5313 Q587.6563,655.6875 588.2188,655.9844 L588.2188,658.7031 Q587.5938,658.125 587,657.8594 Q586.4063,657.5781 585.7813,657.5781 Q584.4375,657.5781 583.75,658.6563 Q583.0625,659.7188 583.0625,661.8125 Q583.0625,663.9063 583.75,664.9844 Q584.4375,666.0469 585.7813,666.0469 Q586.4063,666.0469 587,665.7813 Q587.5938,665.5 588.2188,664.9219 L588.2188,667.6406 Z " fill="#000000"/><text fill="#000000" font-family="sans-serif" font-size="14" lengthAdjust="spacing" textLength="43" x="605.75" y="666.8467">Param</text><line style="stroke:#181818;stroke-width:0.5;" x1="407.5" x2="814.5" y1="678" y2="678"/><rect fill="none" height="6" style="stroke:#C82930;stroke-width:1.0;" width="6" x="414.5" y="688.6484"/><text fill="#000000" font-family="sans-serif" font-size="14" lengthAdjust="spacing" textLength="250" x="426.5" y="694.9951">paramrec_list: list[ParameterRecord]</text><line style="stroke:#181818;stroke-width:0.5;" x1="407.5" x2="814.5" y1="702.2969" y2="702.2969"/><ellipse cx="417.5" cy="715.9453" fill="#84BE84" rx="3" ry="3" style="stroke:#038048;stroke-width:1.0;"/><text fill="#000000" font-family="sans-serif" font-size="14" lengthAdjust="spacing" textLength="176" x="426.5" y="719.292">__init__(signal_str: str = '')</text><ellipse cx="417.5" cy="732.2422" fill="#84BE84" rx="3" ry="3" style="stroke:#038048;stroke-width:1.0;"/><text fill="#000000" font-family="sans-serif" font-size="14" lengthAdjust="spacing" textLength="225" x="426.5" y="735.5889">__repr__(): list[ParameterRecord]</text><rect fill="#F24D5C" height="6" style="stroke:#C82930;stroke-width:1.0;" width="6" x="414.5" y="745.5391"/><text fill="#000000" font-family="sans-serif" font-size="14" lengthAdjust="spacing" textLength="278" x="426.5" y="751.8857">_found_name(name: str): tuple[bool, int]</text><rect fill="#F24D5C" height="6" style="stroke:#C82930;stroke-width:1.0;" width="6" x="414.5" y="761.8359"/><text fill="#000000" font-family="sans-serif" font-size="14" lengthAdjust="spacing" textLength="280" x="426.5" y="768.1826">_convert_paramrec_list(rec_list: list): void</text><rect fill="#F24D5C" height="6" style="stroke:#C82930;stroke-width:1.0;" width="6" x="414.5" y="778.1328"/><text fill="#000000" font-family="sans-serif" font-size="14" lengthAdjust="spacing" textLength="293" x="426.5" y="784.4795">_convert_paramrec(rec): ParameterRecord</text><rect fill="#F24D5C" height="6" style="stroke:#C82930;stroke-width:1.0;" width="6" x="414.5" y="794.4297"/><text fill="#000000" font-family="sans-serif" font-size="14" lengthAdjust="spacing" textLength="262" x="426.5" y="800.7764">__get_max_lengths(): tuple[int, int, int]</text><ellipse cx="417.5" cy="813.7266" fill="#84BE84" rx="3" ry="3" style="stroke:#038048;stroke-width:1.0;"/><text fill="#000000" font-family="sans-serif" font-size="14" lengthAdjust="spacing" textLength="303" x="426.5" y="817.0732">set_param_value(param: str, value: str): void</text><ellipse cx="417.5" cy="830.0234" fill="#84BE84" rx="3" ry="3" style="stroke:#038048;stroke-width:1.0;"/><text fill="#000000" font-family="sans-serif" font-size="14" lengthAdjust="spacing" textLength="383" x="426.5" y="833.3701">add_param_string(signal_str: str): list[ParameterRecord]</text><ellipse cx="417.5" cy="846.3203" fill="#84BE84" rx="3" ry="3" style="stroke:#038048;stroke-width:1.0;"/><text fill="#000000" font-family="sans-serif" font-size="14" lengthAdjust="spacing" textLength="177" x="426.5" y="849.667">create_param_string(): str</text><ellipse cx="417.5" cy="862.6172" fill="#84BE84" rx="3" ry="3" style="stroke:#038048;stroke-width:1.0;"/><text fill="#000000" font-family="sans-serif" font-size="14" lengthAdjust="spacing" textLength="197" x="426.5" y="865.9639">create_param_instance(): str</text><ellipse cx="417.5" cy="878.9141" fill="#84BE84" rx="3" ry="3" style="stroke:#038048;stroke-width:1.0;"/><text fill="#000000" font-family="sans-serif" font-size="14" lengthAdjust="spacing" textLength="83" x="426.5" y="882.2607">__str__(): str</text></g><!--MD5=[58c7efa2ceff0313e9017cad0910c627]
link Signal to SignalRecord--><g id="link_Signal_SignalRecord"><path codeLine="30" d="M176.5,881.84 C176.23,897.62 176.18,913.91 176.34,929.89 " fill="none" id="Signal-to-SignalRecord" style="stroke:#181818;stroke-width:1.0;"/><polygon fill="none" points="183.34,929.8,176.66,949.91,169.34,930.03,183.34,929.8" style="stroke:#181818;stroke-width:1.0;"/></g><!--MD5=[58c7efa2ceff0313e9017cad0910c627]
link Signal to SignalRecord--><g id="link_Signal_SignalRecord"><path codeLine="8" d="M202.23,881.84 C202.61,902.53 202.59,924.1 202.18,944.7 " fill="none" id="Signal-to-SignalRecord-1" style="stroke:#181818;stroke-width:1.0;"/><polygon fill="#181818" points="202.06,949.91,206.2392,940.9918,202.16,944.911,198.2408,940.8318,202.06,949.91" style="stroke:#181818;stroke-width:1.0;"/></g><!--MD5=[c36bbd98fd3688b04f3c4d62c9754dcc]
link Param to ParameterRecord--><g id="link_Param_ParameterRecord"><path codeLine="28" d="M598.38,890.08 C598.12,911.39 598.25,933.37 598.76,954.04 " fill="none" id="Param-to-ParameterRecord" style="stroke:#181818;stroke-width:1.0;"/><polygon fill="none" points="605.76,954,599.4,974.21,591.77,954.44,605.76,954" style="stroke:#181818;stroke-width:1.0;"/></g><!--MD5=[c36bbd98fd3688b04f3c4d62c9754dcc]
link Param to ParameterRecord--><g id="link_Param_ParameterRecord"><path codeLine="9" d="M624.36,890.08 C624.7,916.61 624.41,944.17 623.49,968.96 " fill="none" id="Param-to-ParameterRecord-1" style="stroke:#181818;stroke-width:1.0;"/><polygon fill="#181818" points="623.28,974.21,627.6375,965.3776,623.4804,969.214,619.644,965.0569,623.28,974.21" style="stroke:#181818;stroke-width:1.0;"/></g><!--MD5=[550a4301e6b2b09da4902e6e6c9ff51d]
link ParserHelper to Signal--><g id="link_ParserHelper_Signal"><path codeLine="6" d="M348.07,586.1 C330.67,605.9 310.89,628.38 291.35,650.61 " fill="none" id="ParserHelper-to-Signal" style="stroke:#181818;stroke-width:1.0;"/><polygon fill="#181818" points="287.96,654.46,296.9046,650.3376,291.2596,650.7033,290.8939,645.0583,287.96,654.46" style="stroke:#181818;stroke-width:1.0;"/></g><!--MD5=[fea80709673ae4ecba13bfb76d9dac90]
link ParserHelper to Param--><g id="link_ParserHelper_Param"><path codeLine="7" d="M457.85,586.1 C472.45,603.35 488.77,622.63 505.18,642.01 " fill="none" id="ParserHelper-to-Param" style="stroke:#181818;stroke-width:1.0;"/><polygon fill="#181818" points="508.46,645.88,505.6985,636.4262,505.2296,642.0636,499.5923,641.5948,508.46,645.88" style="stroke:#181818;stroke-width:1.0;"/></g><!--MD5=[48ef3548163fd35053fd79f4921cbab9]
link Module to Param--><g id="link_Module_Param"><path codeLine="10" d="M542.89,397.05 C553.24,416.72 562.53,436.87 570,457 C591.58,515.18 602.06,583.2 607.06,640.68 " fill="none" id="Module-to-Param" style="stroke:#181818;stroke-width:1.0;"/><polygon fill="#181818" points="607.49,645.86,610.731,636.5597,607.076,640.8772,602.7585,637.2221,607.49,645.86" style="stroke:#181818;stroke-width:1.0;"/></g><!--MD5=[b932099c87a0ee66303ce9b0b8712df9]
link Module to Signal--><g id="link_Module_Signal"><path codeLine="11" d="M265.65,397.26 C255.19,416.88 245.72,436.97 238,457 C214.51,517.95 202.28,589.8 195.91,648.97 " fill="none" id="Module-to-Signal" style="stroke:#181818;stroke-width:1.0;"/><polygon fill="#181818" points="195.35,654.29,200.2549,645.7494,195.8645,649.3165,192.2973,644.9262,195.35,654.29" style="stroke:#181818;stroke-width:1.0;"/></g><!--MD5=[8f384a68fe36781dcc0558536dcd49ba]
link Module to ParserHelper--><g id="link_Module_ParserHelper"><path codeLine="12" d="M404,397.29 C404,416.54 404,435.06 404,451.62 " fill="none" id="Module-to-ParserHelper" style="stroke:#181818;stroke-width:1.0;"/><polygon fill="#181818" points="404,456.7,408,447.7,404,451.7,400,447.7,404,456.7" style="stroke:#181818;stroke-width:1.0;"/></g><!--MD5=[f8a0cb67b4b1afd681287578f01a1677]
@startuml Verilog-Classes
!include verilog_Module_UML.puml
!include verilog_ParserHelper_UML.puml
!include verilog_Signal_UML.puml
!include verilog_Param_UML.puml

ParserHelper - -> Signal
ParserHelper - -> Param
Signal - -> SignalRecord
Param - -> ParameterRecord
Module - -> Param
Module - -> Signal
Module - -> ParserHelper

@enduml

@startuml Verilog-Classes

class Module {
  - start_instructions: list
  - instructions: list
  - end_instructions: list
  - module_name: str
  - instance_name: str
  - params: Param
  - ports: Signal
  - wires: list

  + __init__(module_name: str = '', instance_name: str = '')
  + add_port_string(ports: str): void
  + wire(name: str, _type: str): void
  + start(): void
  + end(): void
  + stmt_assign(lhs: str, rhs: str): void
  + instruction(instruction: str): void
  + comment(c: str): void
  + write(file_path: str, filename: str): void
  + instantiate(instance_name: str, inputs: list, outputs: list): str
  + __str__(): str
  + in_connector(port: str, connector: str): dict
  + out_connector(port: str, connector: str): dict
}


class ParserHelper {
  + parsePortsList(signal_str: str): list
  + parseParametersList(signal_str: str): list
  + cleanString(signal_str: str): str
  + arrayMerge(current: str, new: str): str
  + padRight(string: str, length: int): str
}


class SignalRecord {
  - interface: bool
  - sig_type: str
  - direction: str
  - name: str
  - packed: str
  - unpacked: str
  - compilerDirectiveSig: str
  - compilerDirective: str
  - drivers: int
  - receivers: int
}

class Signal {
  - sigrec_list: list[SignalRecord]

  + __init__(signal_str: str = '')
  + __repr__(): list[SignalRecord]
  - _found_name(name: str): tuple[bool, int]
  - _convert_sigrec_list(rec_list: list): void
  - _convert_sigrec(rec): SignalRecord
  - __get_max_lengths(): tuple[int, int, int, int]
  + add_port_string(signal_str: str): list[SignalRecord]
  + create_wire_string(): str
  + create_port_string(): str
  + __str__(): str
}

Signal - -|> SignalRecord


class ParameterRecord {
  - sig_type: str
  - name: str
  - value: str
  - packed: str
  - unpacked: str
  - compilerDirectiveSig: str
  - compilerDirective: str
}

class Param {
  - paramrec_list: list[ParameterRecord]

  + __init__(signal_str: str = '')
  + __repr__(): list[ParameterRecord]
  - _found_name(name: str): tuple[bool, int]
  - _convert_paramrec_list(rec_list: list): void
  - _convert_paramrec(rec): ParameterRecord
  - __get_max_lengths(): tuple[int, int, int]
  + set_param_value(param: str, value: str): void
  + add_param_string(signal_str: str): list[ParameterRecord]
  + create_param_string(): str
  + create_param_instance(): str
  + __str__(): str
}

Param - -|> ParameterRecord


ParserHelper - -> Signal
ParserHelper - -> Param
Signal - -> SignalRecord
Param - -> ParameterRecord
Module - -> Param
Module - -> Signal
Module - -> ParserHelper

@enduml

PlantUML version 1.2022.7(Mon Aug 22 10:01:30 PDT 2022)
(GPL source distribution)
Java Runtime: OpenJDK Runtime Environment
JVM: OpenJDK 64-Bit Server VM
Default Encoding: UTF-8
Language: en
Country: US
--></g></svg>