<?xml version="1.0" encoding="UTF-8" standalone="no"?>
<!DOCTYPE svg PUBLIC "-//W3C//DTD SVG 1.1//EN"
 "http://www.w3.org/Graphics/SVG/1.1/DTD/svg11.dtd">
<!-- Generated by graphviz version 2.43.0 (0)
 -->
<!-- Title: apb_ioapic Pages: 1 -->
<svg width="346pt" height="1118pt"
 viewBox="0.00 0.00 345.50 1118.00" xmlns="http://www.w3.org/2000/svg" xmlns:xlink="http://www.w3.org/1999/xlink">
<g id="graph0" class="graph" transform="scale(1 1) rotate(0) translate(4 1114)">
<title>apb_ioapic</title>
<polygon fill="white" stroke="transparent" points="-4,4 -4,-1114 341.5,-1114 341.5,4 -4,4"/>
<g id="clust1" class="cluster">
<title>cluster_apb_ioapic</title>
<polygon fill="aliceblue" stroke="black" points="8,-8 8,-1016 212,-1016 212,-8 8,-8"/>
<text text-anchor="middle" x="110" y="-1000.8" font-family="Arial Bold" font-size="14.00">apb_ioapic</text>
</g>
<g id="clust2" class="cluster">
<title>cluster_apb_slave</title>
<polygon fill="lightblue" stroke="black" points="27,-893 27,-985 194,-985 194,-893 27,-893"/>
<text text-anchor="middle" x="110.5" y="-969.8" font-family="Arial Bold" font-size="14.00">apb_slave[_cdc]</text>
<text text-anchor="middle" x="110.5" y="-954.8" font-family="Arial Bold" font-size="14.00">(CDC_ENABLE selects)</text>
</g>
<g id="clust3" class="cluster">
<title>cluster_config</title>
<polygon fill="lightgreen" stroke="black" points="16,-544 16,-860 204,-860 204,-544 16,-544"/>
<text text-anchor="middle" x="110" y="-844.8" font-family="Arial Bold" font-size="14.00">ioapic_config_regs</text>
</g>
<g id="clust4" class="cluster">
<title>cluster_core</title>
<polygon fill="lightcoral" stroke="black" points="16,-16 16,-511 152,-511 152,-16 16,-16"/>
<text text-anchor="middle" x="84" y="-495.8" font-family="Arial Bold" font-size="14.00">ioapic_core</text>
</g>
<!-- apb_bus -->
<g id="node1" class="node">
<title>apb_bus</title>
<text text-anchor="middle" x="106" y="-1094.8" font-family="Times,serif" font-size="14.00">APB4 Bus</text>
<text text-anchor="middle" x="106" y="-1079.8" font-family="Times,serif" font-size="14.00">(CPU/Interconnect)</text>
</g>
<!-- apb_if -->
<g id="node4" class="node">
<title>apb_if</title>
<path fill="lightyellow" stroke="black" d="M149,-939C149,-939 63,-939 63,-939 57,-939 51,-933 51,-927 51,-927 51,-913 51,-913 51,-907 57,-901 63,-901 63,-901 149,-901 149,-901 155,-901 161,-907 161,-913 161,-913 161,-927 161,-927 161,-933 155,-939 149,-939"/>
<text text-anchor="middle" x="106" y="-923.8" font-family="Times,serif" font-size="14.00">APB Protocol</text>
<text text-anchor="middle" x="106" y="-908.8" font-family="Times,serif" font-size="14.00">Handler</text>
</g>
<!-- apb_bus&#45;&gt;apb_if -->
<g id="edge12" class="edge">
<title>apb_bus&#45;&gt;apb_if</title>
<path fill="none" stroke="black" d="M106,-1071.91C106,-1060.24 106,-1043.98 106,-1026.45"/>
<polygon fill="black" stroke="black" points="109.5,-1026 106,-1016 102.5,-1026 109.5,-1026"/>
<text text-anchor="middle" x="132.5" y="-1042.8" font-family="Times,serif" font-size="14.00">APB4</text>
<text text-anchor="middle" x="132.5" y="-1027.8" font-family="Times,serif" font-size="14.00">Signals</text>
</g>
<!-- irq_sources -->
<g id="node2" class="node">
<title>irq_sources</title>
<text text-anchor="middle" x="273" y="-574.8" font-family="Times,serif" font-size="14.00">IRQ Sources</text>
<text text-anchor="middle" x="273" y="-559.8" font-family="Times,serif" font-size="14.00">[23:0]</text>
</g>
<!-- sync -->
<g id="node8" class="node">
<title>sync</title>
<path fill="lightyellow" stroke="black" d="M131.5,-480C131.5,-480 36.5,-480 36.5,-480 30.5,-480 24.5,-474 24.5,-468 24.5,-468 24.5,-454 24.5,-454 24.5,-448 30.5,-442 36.5,-442 36.5,-442 131.5,-442 131.5,-442 137.5,-442 143.5,-448 143.5,-454 143.5,-454 143.5,-468 143.5,-468 143.5,-474 137.5,-480 131.5,-480"/>
<text text-anchor="middle" x="84" y="-464.8" font-family="Times,serif" font-size="14.00">IRQ Input</text>
<text text-anchor="middle" x="84" y="-449.8" font-family="Times,serif" font-size="14.00">Sync (3&#45;stage)</text>
</g>
<!-- irq_sources&#45;&gt;sync -->
<g id="edge13" class="edge">
<title>irq_sources&#45;&gt;sync</title>
<path fill="none" stroke="black" d="M241.37,-551.92C209.34,-533.62 159.68,-505.25 124.73,-485.28"/>
<polygon fill="black" stroke="black" points="126.16,-482.06 115.74,-480.14 122.68,-488.14 126.16,-482.06"/>
<text text-anchor="middle" x="247.5" y="-522.8" font-family="Times,serif" font-size="14.00">irq_in[23:0]</text>
</g>
<!-- cpu_lapic -->
<g id="node3" class="node">
<title>cpu_lapic</title>
<text text-anchor="middle" x="289" y="-143.3" font-family="Times,serif" font-size="14.00">CPU/LAPIC</text>
</g>
<!-- remote_irr -->
<g id="node13" class="node">
<title>remote_irr</title>
<path fill="lightyellow" stroke="black" d="M127,-62C127,-62 41,-62 41,-62 35,-62 29,-56 29,-50 29,-50 29,-36 29,-36 29,-30 35,-24 41,-24 41,-24 127,-24 127,-24 133,-24 139,-30 139,-36 139,-36 139,-50 139,-50 139,-56 133,-62 127,-62"/>
<text text-anchor="middle" x="84" y="-46.8" font-family="Times,serif" font-size="14.00">Remote IRR</text>
<text text-anchor="middle" x="84" y="-31.8" font-family="Times,serif" font-size="14.00">Management</text>
</g>
<!-- cpu_lapic&#45;&gt;remote_irr -->
<g id="edge15" class="edge">
<title>cpu_lapic&#45;&gt;remote_irr</title>
<path fill="none" stroke="black" stroke-dasharray="5,2" d="M254.69,-128.93C220.43,-111.88 167.58,-85.59 129.77,-66.77"/>
<polygon fill="black" stroke="black" points="131.01,-63.48 120.5,-62.16 127.89,-69.75 131.01,-63.48"/>
<text text-anchor="middle" x="246.5" y="-98.8" font-family="Times,serif" font-size="14.00">eoi_in</text>
<text text-anchor="middle" x="246.5" y="-83.8" font-family="Times,serif" font-size="14.00">eoi_vector</text>
</g>
<!-- adapter -->
<g id="node5" class="node">
<title>adapter</title>
<path fill="lightyellow" stroke="black" d="M170,-829C170,-829 42,-829 42,-829 36,-829 30,-823 30,-817 30,-817 30,-803 30,-803 30,-797 36,-791 42,-791 42,-791 170,-791 170,-791 176,-791 182,-797 182,-803 182,-803 182,-817 182,-817 182,-823 176,-829 170,-829"/>
<text text-anchor="middle" x="106" y="-813.8" font-family="Times,serif" font-size="14.00">peakrdl_to_cmdrsp</text>
<text text-anchor="middle" x="106" y="-798.8" font-family="Times,serif" font-size="14.00">Adapter</text>
</g>
<!-- apb_if&#45;&gt;adapter -->
<g id="edge9" class="edge">
<title>apb_if&#45;&gt;adapter</title>
<path fill="none" stroke="black" d="M106,-900.68C106,-883.82 106,-858.57 106,-839.15"/>
<polygon fill="black" stroke="black" points="109.5,-839.05 106,-829.05 102.5,-839.05 109.5,-839.05"/>
<text text-anchor="middle" x="141.5" y="-871.8" font-family="Times,serif" font-size="14.00">CMD/RSP</text>
</g>
<!-- regs -->
<g id="node6" class="node">
<title>regs</title>
<path fill="lightyellow" stroke="black" d="M183.5,-740C183.5,-740 36.5,-740 36.5,-740 30.5,-740 24.5,-734 24.5,-728 24.5,-728 24.5,-653 24.5,-653 24.5,-647 30.5,-641 36.5,-641 36.5,-641 183.5,-641 183.5,-641 189.5,-641 195.5,-647 195.5,-653 195.5,-653 195.5,-728 195.5,-728 195.5,-734 189.5,-740 183.5,-740"/>
<text text-anchor="middle" x="110" y="-724.8" font-family="Times,serif" font-size="14.00">ioapic_regs</text>
<text text-anchor="middle" x="110" y="-709.8" font-family="Times,serif" font-size="14.00">(PeakRDL Generated)</text>
<text text-anchor="middle" x="110" y="-678.8" font-family="Times,serif" font-size="14.00">IOREGSEL/IOWIN</text>
<text text-anchor="middle" x="110" y="-663.8" font-family="Times,serif" font-size="14.00">IOAPICID/VER/ARB</text>
<text text-anchor="middle" x="110" y="-648.8" font-family="Times,serif" font-size="14.00">IOREDTBL[24]</text>
</g>
<!-- adapter&#45;&gt;regs -->
<g id="edge1" class="edge">
<title>adapter&#45;&gt;regs</title>
<path fill="none" stroke="black" d="M106.62,-790.9C106.99,-779.86 107.5,-765.07 108,-750.28"/>
<polygon fill="black" stroke="black" points="111.5,-750.2 108.35,-740.08 104.51,-749.96 111.5,-750.2"/>
<text text-anchor="middle" x="152" y="-761.8" font-family="Times,serif" font-size="14.00">Passthrough</text>
</g>
<!-- hwif_map -->
<g id="node7" class="node">
<title>hwif_map</title>
<path fill="lightyellow" stroke="black" d="M156.5,-590C156.5,-590 83.5,-590 83.5,-590 77.5,-590 71.5,-584 71.5,-578 71.5,-578 71.5,-564 71.5,-564 71.5,-558 77.5,-552 83.5,-552 83.5,-552 156.5,-552 156.5,-552 162.5,-552 168.5,-558 168.5,-564 168.5,-564 168.5,-578 168.5,-578 168.5,-584 162.5,-590 156.5,-590"/>
<text text-anchor="middle" x="120" y="-574.8" font-family="Times,serif" font-size="14.00">hwif Signal</text>
<text text-anchor="middle" x="120" y="-559.8" font-family="Times,serif" font-size="14.00">Mapping</text>
</g>
<!-- regs&#45;&gt;hwif_map -->
<g id="edge2" class="edge">
<title>regs&#45;&gt;hwif_map</title>
<path fill="none" stroke="black" d="M53.43,-640.75C47.37,-630.15 45.46,-618.86 52,-608 54.93,-603.14 58.76,-598.9 63.11,-595.2"/>
<polygon fill="black" stroke="black" points="65.41,-597.86 71.43,-589.14 61.28,-592.2 65.41,-597.86"/>
<text text-anchor="middle" x="82.5" y="-611.8" font-family="Times,serif" font-size="14.00">hwif_out</text>
</g>
<!-- hwif_map&#45;&gt;regs -->
<g id="edge3" class="edge">
<title>hwif_map&#45;&gt;regs</title>
<path fill="none" stroke="black" d="M118.46,-590.08C117.53,-601.07 116.27,-615.79 115.02,-630.53"/>
<polygon fill="black" stroke="black" points="111.51,-630.43 114.15,-640.69 118.49,-631.02 111.51,-630.43"/>
<text text-anchor="middle" x="142" y="-611.8" font-family="Times,serif" font-size="14.00">hwif_in</text>
</g>
<!-- hwif_map&#45;&gt;sync -->
<g id="edge10" class="edge">
<title>hwif_map&#45;&gt;sync</title>
<path fill="none" stroke="black" d="M113.89,-551.68C108.22,-534.66 99.7,-509.1 93.2,-489.61"/>
<polygon fill="black" stroke="black" points="96.5,-488.43 90.02,-480.05 89.86,-490.64 96.5,-488.43"/>
<text text-anchor="middle" x="125" y="-522.8" font-family="Times,serif" font-size="14.00">cfg_*</text>
</g>
<!-- polarity -->
<g id="node9" class="node">
<title>polarity</title>
<path fill="lightyellow" stroke="black" d="M111,-405C111,-405 53,-405 53,-405 47,-405 41,-399 41,-393 41,-393 41,-379 41,-379 41,-373 47,-367 53,-367 53,-367 111,-367 111,-367 117,-367 123,-373 123,-379 123,-379 123,-393 123,-393 123,-399 117,-405 111,-405"/>
<text text-anchor="middle" x="82" y="-389.8" font-family="Times,serif" font-size="14.00">Polarity</text>
<text text-anchor="middle" x="82" y="-374.8" font-family="Times,serif" font-size="14.00">Handling</text>
</g>
<!-- sync&#45;&gt;polarity -->
<g id="edge4" class="edge">
<title>sync&#45;&gt;polarity</title>
<path fill="none" stroke="black" d="M83.51,-441.96C83.28,-433.88 83.02,-424.18 82.77,-415.18"/>
<polygon fill="black" stroke="black" points="86.27,-414.99 82.5,-405.09 79.27,-415.18 86.27,-414.99"/>
</g>
<!-- detect -->
<g id="node10" class="node">
<title>detect</title>
<path fill="lightyellow" stroke="black" d="M115,-316C115,-316 43,-316 43,-316 37,-316 31,-310 31,-304 31,-304 31,-290 31,-290 31,-284 37,-278 43,-278 43,-278 115,-278 115,-278 121,-278 127,-284 127,-290 127,-290 127,-304 127,-304 127,-310 121,-316 115,-316"/>
<text text-anchor="middle" x="79" y="-300.8" font-family="Times,serif" font-size="14.00">Edge/Level</text>
<text text-anchor="middle" x="79" y="-285.8" font-family="Times,serif" font-size="14.00">Detection</text>
</g>
<!-- polarity&#45;&gt;detect -->
<g id="edge5" class="edge">
<title>polarity&#45;&gt;detect</title>
<path fill="none" stroke="black" d="M81.38,-366.97C80.97,-355.19 80.43,-339.56 79.97,-326.16"/>
<polygon fill="black" stroke="black" points="83.46,-325.88 79.62,-316 76.47,-326.12 83.46,-325.88"/>
</g>
<!-- arb -->
<g id="node11" class="node">
<title>arb</title>
<path fill="lightyellow" stroke="black" d="M114.5,-241C114.5,-241 43.5,-241 43.5,-241 37.5,-241 31.5,-235 31.5,-229 31.5,-229 31.5,-215 31.5,-215 31.5,-209 37.5,-203 43.5,-203 43.5,-203 114.5,-203 114.5,-203 120.5,-203 126.5,-209 126.5,-215 126.5,-215 126.5,-229 126.5,-229 126.5,-235 120.5,-241 114.5,-241"/>
<text text-anchor="middle" x="79" y="-225.8" font-family="Times,serif" font-size="14.00">Priority</text>
<text text-anchor="middle" x="79" y="-210.8" font-family="Times,serif" font-size="14.00">Arbitration</text>
</g>
<!-- detect&#45;&gt;arb -->
<g id="edge6" class="edge">
<title>detect&#45;&gt;arb</title>
<path fill="none" stroke="black" d="M79,-277.96C79,-269.88 79,-260.18 79,-251.18"/>
<polygon fill="black" stroke="black" points="82.5,-251.09 79,-241.09 75.5,-251.09 82.5,-251.09"/>
</g>
<!-- fsm -->
<g id="node12" class="node">
<title>fsm</title>
<path fill="lightyellow" stroke="black" d="M107.5,-166C107.5,-166 54.5,-166 54.5,-166 48.5,-166 42.5,-160 42.5,-154 42.5,-154 42.5,-140 42.5,-140 42.5,-134 48.5,-128 54.5,-128 54.5,-128 107.5,-128 107.5,-128 113.5,-128 119.5,-134 119.5,-140 119.5,-140 119.5,-154 119.5,-154 119.5,-160 113.5,-166 107.5,-166"/>
<text text-anchor="middle" x="81" y="-150.8" font-family="Times,serif" font-size="14.00">Delivery</text>
<text text-anchor="middle" x="81" y="-135.8" font-family="Times,serif" font-size="14.00">FSM</text>
</g>
<!-- arb&#45;&gt;fsm -->
<g id="edge7" class="edge">
<title>arb&#45;&gt;fsm</title>
<path fill="none" stroke="black" d="M79.49,-202.96C79.72,-194.88 79.98,-185.18 80.23,-176.18"/>
<polygon fill="black" stroke="black" points="83.73,-176.18 80.5,-166.09 76.73,-175.99 83.73,-176.18"/>
</g>
<!-- fsm&#45;&gt;cpu_lapic -->
<g id="edge14" class="edge">
<title>fsm&#45;&gt;cpu_lapic</title>
<path fill="none" stroke="black" d="M119.64,-147C150.65,-147 194.69,-147 230.09,-147"/>
<polygon fill="black" stroke="black" points="230.31,-150.5 240.31,-147 230.31,-143.5 230.31,-150.5"/>
<text text-anchor="middle" x="180" y="-183.8" font-family="Times,serif" font-size="14.00">irq_out_valid</text>
<text text-anchor="middle" x="180" y="-168.8" font-family="Times,serif" font-size="14.00">irq_out_vector</text>
<text text-anchor="middle" x="180" y="-153.8" font-family="Times,serif" font-size="14.00">irq_out_dest</text>
</g>
<!-- fsm&#45;&gt;hwif_map -->
<g id="edge11" class="edge">
<title>fsm&#45;&gt;hwif_map</title>
<path fill="none" stroke="black" d="M105.95,-166.08C117.18,-175.69 129.38,-188.5 136,-203 150.66,-235.11 164.37,-422.33 153,-511 151.66,-521.48 151.59,-524.48 147,-534 145.46,-537.19 143.62,-540.39 141.63,-543.48"/>
<polygon fill="black" stroke="black" points="138.64,-541.64 135.76,-551.84 144.37,-545.66 138.64,-541.64"/>
<text text-anchor="middle" x="183" y="-337.8" font-family="Times,serif" font-size="14.00">status_*</text>
</g>
<!-- fsm&#45;&gt;remote_irr -->
<g id="edge8" class="edge">
<title>fsm&#45;&gt;remote_irr</title>
<path fill="none" stroke="black" d="M81.83,-117.65C82.25,-103.48 82.75,-86.38 83.17,-72.23"/>
<polygon fill="black" stroke="black" points="78.33,-117.67 81.54,-127.76 85.33,-117.87 78.33,-117.67"/>
<polygon fill="black" stroke="black" points="86.67,-72.18 83.47,-62.08 79.68,-71.97 86.67,-72.18"/>
</g>
</g>
</svg>
