<?xml version="1.0" encoding="UTF-8" standalone="no"?>
<!DOCTYPE svg PUBLIC "-//W3C//DTD SVG 1.1//EN"
 "http://www.w3.org/Graphics/SVG/1.1/DTD/svg11.dtd">
<!-- Generated by graphviz version 2.43.0 (0)
 -->
<!-- Title: indirect_access Pages: 1 -->
<svg width="889pt" height="434pt"
 viewBox="0.00 0.00 889.00 434.00" xmlns="http://www.w3.org/2000/svg" xmlns:xlink="http://www.w3.org/1999/xlink">
<g id="graph0" class="graph" transform="scale(1 1) rotate(0) translate(4 430)">
<title>indirect_access</title>
<polygon fill="white" stroke="transparent" points="-4,4 -4,-430 885,-430 885,4 -4,4"/>
<text text-anchor="middle" x="440.5" y="-410.8" font-family="Arial" font-size="14.00">IOAPIC Indirect Register Access Flow</text>
<g id="clust1" class="cluster">
<title>cluster_internal</title>
<polygon fill="lightgray" stroke="black" points="445,-23 445,-395 608,-395 608,-23 445,-23"/>
<text text-anchor="middle" x="526.5" y="-379.8" font-family="Arial" font-size="14.00">Internal Registers</text>
<text text-anchor="middle" x="526.5" y="-364.8" font-family="Arial" font-size="14.00">(Not Directly Accessible)</text>
</g>
<!-- cpu -->
<g id="node1" class="node">
<title>cpu</title>
<path fill="lightblue" stroke="black" d="M90,-125C90,-125 12,-125 12,-125 6,-125 0,-119 0,-113 0,-113 0,-101 0,-101 0,-95 6,-89 12,-89 12,-89 90,-89 90,-89 96,-89 102,-95 102,-101 102,-101 102,-113 102,-113 102,-119 96,-125 90,-125"/>
<text text-anchor="middle" x="51" y="-103.3" font-family="Arial" font-size="14.00">CPU/Software</text>
</g>
<!-- ioregsel -->
<g id="node2" class="node">
<title>ioregsel</title>
<path fill="lightyellow" stroke="black" d="M317,-204C317,-204 234,-204 234,-204 228,-204 222,-198 222,-192 222,-192 222,-132 222,-132 222,-126 228,-120 234,-120 234,-120 317,-120 317,-120 323,-120 329,-126 329,-132 329,-132 329,-192 329,-192 329,-198 323,-204 317,-204"/>
<text text-anchor="middle" x="275.5" y="-188.8" font-family="Arial" font-size="14.00">IOREGSEL</text>
<text text-anchor="middle" x="275.5" y="-173.8" font-family="Arial" font-size="14.00">(APB 0x00)</text>
<text text-anchor="middle" x="275.5" y="-142.8" font-family="Arial" font-size="14.00">Offset Selector</text>
<text text-anchor="middle" x="275.5" y="-127.8" font-family="Arial" font-size="14.00">8&#45;bit value</text>
</g>
<!-- cpu&#45;&gt;ioregsel -->
<g id="edge1" class="edge">
<title>cpu&#45;&gt;ioregsel</title>
<path fill="none" stroke="blue" stroke-width="2" d="M102.03,-122.11C108.07,-123.81 114.16,-125.48 120,-127 149.99,-134.8 183.51,-142.51 211.64,-148.7"/>
<polygon fill="blue" stroke="blue" stroke-width="2" points="211.22,-152.2 221.74,-150.91 212.72,-145.36 211.22,-152.2"/>
<text text-anchor="middle" x="162" y="-179.8" font-family="Times,serif" font-size="14.00">Step 1:</text>
<text text-anchor="middle" x="162" y="-164.8" font-family="Times,serif" font-size="14.00">Write offset</text>
<text text-anchor="middle" x="162" y="-149.8" font-family="Times,serif" font-size="14.00">(e.g., 0x10)</text>
</g>
<!-- iowin -->
<g id="node3" class="node">
<title>iowin</title>
<path fill="lightyellow" stroke="black" d="M312.5,-98C312.5,-98 238.5,-98 238.5,-98 232.5,-98 226.5,-92 226.5,-86 226.5,-86 226.5,-26 226.5,-26 226.5,-20 232.5,-14 238.5,-14 238.5,-14 312.5,-14 312.5,-14 318.5,-14 324.5,-20 324.5,-26 324.5,-26 324.5,-86 324.5,-86 324.5,-92 318.5,-98 312.5,-98"/>
<text text-anchor="middle" x="275.5" y="-82.8" font-family="Arial" font-size="14.00">IOWIN</text>
<text text-anchor="middle" x="275.5" y="-67.8" font-family="Arial" font-size="14.00">(APB 0x04)</text>
<text text-anchor="middle" x="275.5" y="-36.8" font-family="Arial" font-size="14.00">Data Window</text>
<text text-anchor="middle" x="275.5" y="-21.8" font-family="Arial" font-size="14.00">32&#45;bit value</text>
</g>
<!-- cpu&#45;&gt;iowin -->
<g id="edge3" class="edge">
<title>cpu&#45;&gt;iowin</title>
<path fill="none" stroke="darkgreen" stroke-width="2" d="M97.72,-88.88C105.1,-86.34 112.71,-83.94 120,-82 151.39,-73.66 187.12,-67.45 216.3,-63.19"/>
<polygon fill="darkgreen" stroke="darkgreen" stroke-width="2" points="216.93,-66.63 226.33,-61.76 215.94,-59.7 216.93,-66.63"/>
<text text-anchor="middle" x="162" y="-115.8" font-family="Times,serif" font-size="14.00">Step 2:</text>
<text text-anchor="middle" x="162" y="-100.8" font-family="Times,serif" font-size="14.00">Read/Write</text>
<text text-anchor="middle" x="162" y="-85.8" font-family="Times,serif" font-size="14.00">IOWIN</text>
</g>
<!-- ioapicid -->
<g id="node4" class="node">
<title>ioapicid</title>
<path fill="lightgreen" stroke="black" d="M560,-293C560,-293 492,-293 492,-293 486,-293 480,-287 480,-281 480,-281 480,-267 480,-267 480,-261 486,-255 492,-255 492,-255 560,-255 560,-255 566,-255 572,-261 572,-267 572,-267 572,-281 572,-281 572,-287 566,-293 560,-293"/>
<text text-anchor="middle" x="526" y="-277.8" font-family="Arial" font-size="14.00">IOAPICID</text>
<text text-anchor="middle" x="526" y="-262.8" font-family="Arial" font-size="14.00">(offset 0x00)</text>
</g>
<!-- ioregsel&#45;&gt;ioapicid -->
<g id="edge5" class="edge">
<title>ioregsel&#45;&gt;ioapicid</title>
<path fill="none" stroke="gray" stroke-dasharray="1,5" d="M329.01,-191.61C335.04,-194.84 341.13,-198.04 347,-201 389.78,-222.62 400.55,-228.06 445,-246 453.13,-249.28 461.81,-252.55 470.34,-255.64"/>
<polygon fill="gray" stroke="gray" points="469.28,-258.98 479.87,-259.04 471.63,-252.38 469.28,-258.98"/>
</g>
<!-- ioapicver -->
<g id="node5" class="node">
<title>ioapicver</title>
<path fill="lightgreen" stroke="black" d="M560,-237C560,-237 492,-237 492,-237 486,-237 480,-231 480,-225 480,-225 480,-211 480,-211 480,-205 486,-199 492,-199 492,-199 560,-199 560,-199 566,-199 572,-205 572,-211 572,-211 572,-225 572,-225 572,-231 566,-237 560,-237"/>
<text text-anchor="middle" x="526" y="-221.8" font-family="Arial" font-size="14.00">IOAPICVER</text>
<text text-anchor="middle" x="526" y="-206.8" font-family="Arial" font-size="14.00">(offset 0x01)</text>
</g>
<!-- ioregsel&#45;&gt;ioapicver -->
<g id="edge6" class="edge">
<title>ioregsel&#45;&gt;ioapicver</title>
<path fill="none" stroke="gray" stroke-dasharray="1,5" d="M329.2,-173.88C370.62,-183.21 428.12,-196.17 470.09,-205.63"/>
<polygon fill="gray" stroke="gray" points="469.35,-209.05 479.87,-207.83 470.89,-202.22 469.35,-209.05"/>
</g>
<!-- ioapicarb -->
<g id="node6" class="node">
<title>ioapicarb</title>
<path fill="lightgreen" stroke="black" d="M560,-181C560,-181 492,-181 492,-181 486,-181 480,-175 480,-169 480,-169 480,-155 480,-155 480,-149 486,-143 492,-143 492,-143 560,-143 560,-143 566,-143 572,-149 572,-155 572,-155 572,-169 572,-169 572,-175 566,-181 560,-181"/>
<text text-anchor="middle" x="526" y="-165.8" font-family="Arial" font-size="14.00">IOAPICARB</text>
<text text-anchor="middle" x="526" y="-150.8" font-family="Arial" font-size="14.00">(offset 0x02)</text>
</g>
<!-- ioregsel&#45;&gt;ioapicarb -->
<g id="edge7" class="edge">
<title>ioregsel&#45;&gt;ioapicarb</title>
<path fill="none" stroke="gray" stroke-dasharray="1,5" d="M329.2,-162C370.53,-162 427.88,-162 469.83,-162"/>
<polygon fill="gray" stroke="gray" points="469.87,-165.5 479.87,-162 469.87,-158.5 469.87,-165.5"/>
</g>
<!-- redtbl0_lo -->
<g id="node7" class="node">
<title>redtbl0_lo</title>
<path fill="lightgreen" stroke="black" d="M577,-69C577,-69 475,-69 475,-69 469,-69 463,-63 463,-57 463,-57 463,-43 463,-43 463,-37 469,-31 475,-31 475,-31 577,-31 577,-31 583,-31 589,-37 589,-43 589,-43 589,-57 589,-57 589,-63 583,-69 577,-69"/>
<text text-anchor="middle" x="526" y="-53.8" font-family="Arial" font-size="14.00">IOREDTBL[0]_LO</text>
<text text-anchor="middle" x="526" y="-38.8" font-family="Arial" font-size="14.00">(offset 0x10)</text>
</g>
<!-- ioregsel&#45;&gt;redtbl0_lo -->
<g id="edge2" class="edge">
<title>ioregsel&#45;&gt;redtbl0_lo</title>
<path fill="none" stroke="blue" stroke-dasharray="5,2" d="M326.96,-119.76C333.47,-115.4 340.23,-111.35 347,-108 383.33,-90 397.71,-99.91 435,-84 439.77,-81.97 440.31,-80.2 445,-78 448.75,-76.24 452.64,-74.53 456.59,-72.88"/>
<polygon fill="blue" stroke="blue" points="457.93,-76.12 465.9,-69.14 455.32,-69.62 457.93,-76.12"/>
<text text-anchor="middle" x="391" y="-111.8" font-family="Times,serif" font-size="14.00">Selects</text>
</g>
<!-- redtbl0_hi -->
<g id="node8" class="node">
<title>redtbl0_hi</title>
<path fill="lightgreen" stroke="black" d="M574.5,-125C574.5,-125 477.5,-125 477.5,-125 471.5,-125 465.5,-119 465.5,-113 465.5,-113 465.5,-99 465.5,-99 465.5,-93 471.5,-87 477.5,-87 477.5,-87 574.5,-87 574.5,-87 580.5,-87 586.5,-93 586.5,-99 586.5,-99 586.5,-113 586.5,-113 586.5,-119 580.5,-125 574.5,-125"/>
<text text-anchor="middle" x="526" y="-109.8" font-family="Arial" font-size="14.00">IOREDTBL[0]_HI</text>
<text text-anchor="middle" x="526" y="-94.8" font-family="Arial" font-size="14.00">(offset 0x11)</text>
</g>
<!-- ioregsel&#45;&gt;redtbl0_hi -->
<g id="edge8" class="edge">
<title>ioregsel&#45;&gt;redtbl0_hi</title>
<path fill="none" stroke="gray" stroke-dasharray="1,5" d="M329.2,-150.12C365.98,-141.84 415.44,-130.69 455.44,-121.67"/>
<polygon fill="gray" stroke="gray" points="456.41,-125.04 465.4,-119.43 454.87,-118.22 456.41,-125.04"/>
</g>
<!-- redtbl_etc -->
<g id="node9" class="node">
<title>redtbl_etc</title>
<path fill="lightgreen" stroke="black" d="M573.5,-349C573.5,-349 478.5,-349 478.5,-349 472.5,-349 466.5,-343 466.5,-337 466.5,-337 466.5,-323 466.5,-323 466.5,-317 472.5,-311 478.5,-311 478.5,-311 573.5,-311 573.5,-311 579.5,-311 585.5,-317 585.5,-323 585.5,-323 585.5,-337 585.5,-337 585.5,-343 579.5,-349 573.5,-349"/>
<text text-anchor="middle" x="526" y="-333.8" font-family="Arial" font-size="14.00">...</text>
<text text-anchor="middle" x="526" y="-318.8" font-family="Arial" font-size="14.00">IOREDTBL[1&#45;23]</text>
</g>
<!-- ioregsel&#45;&gt;redtbl_etc -->
<g id="edge9" class="edge">
<title>ioregsel&#45;&gt;redtbl_etc</title>
<path fill="none" stroke="gray" stroke-dasharray="1,5" d="M314.27,-204.03C324.49,-214.57 335.83,-225.57 347,-235 387.31,-269.04 397.92,-278.19 445,-302 448.77,-303.9 452.69,-305.73 456.7,-307.48"/>
<polygon fill="gray" stroke="gray" points="455.57,-310.8 466.14,-311.41 458.25,-304.34 455.57,-310.8"/>
</g>
<!-- iowin&#45;&gt;redtbl0_lo -->
<g id="edge4" class="edge">
<title>iowin&#45;&gt;redtbl0_lo</title>
<path fill="none" stroke="darkgreen" stroke-width="2" d="M334.87,-54.32C338.98,-54.21 343.05,-54.1 347,-54 381.71,-53.12 420.24,-52.24 452.55,-51.53"/>
<polygon fill="darkgreen" stroke="darkgreen" stroke-width="2" points="334.56,-50.82 324.66,-54.6 334.75,-57.82 334.56,-50.82"/>
<polygon fill="darkgreen" stroke="darkgreen" stroke-width="2" points="452.88,-55.03 462.8,-51.31 452.73,-48.03 452.88,-55.03"/>
<text text-anchor="middle" x="391" y="-72.8" font-family="Times,serif" font-size="14.00">Access</text>
<text text-anchor="middle" x="391" y="-57.8" font-family="Times,serif" font-size="14.00">selected reg</text>
</g>
<!-- legend -->
<g id="node10" class="node">
<title>legend</title>
<path fill="white" stroke="transparent" d="M869,-100C869,-100 630,-100 630,-100 624,-100 618,-94 618,-88 618,-88 618,-12 618,-12 618,-6 624,0 630,0 630,0 869,0 869,0 875,0 881,-6 881,-12 881,-12 881,-88 881,-88 881,-94 875,-100 869,-100"/>
<polygon fill="lightyellow" stroke="transparent" points="618.5,-75 618.5,-100 881.5,-100 881.5,-75 618.5,-75"/>
<polygon fill="none" stroke="black" points="618.5,-75 618.5,-100 881.5,-100 881.5,-75 618.5,-75"/>
<text text-anchor="start" x="658" y="-84.8" font-family="Arial" font-weight="bold" font-size="14.00">Intel Indirect Access Method</text>
<polygon fill="none" stroke="black" points="618.5,-50 618.5,-75 881.5,-75 881.5,-50 618.5,-50"/>
<text text-anchor="start" x="623.5" y="-58.8" font-family="Arial" font-size="14.00">1. Write offset to IOREGSEL</text>
<polygon fill="none" stroke="black" points="618.5,-25 618.5,-50 881.5,-50 881.5,-25 618.5,-25"/>
<text text-anchor="start" x="623.5" y="-33.8" font-family="Arial" font-size="14.00">2. Read/Write selected register via IOWIN</text>
<polygon fill="none" stroke="black" points="618.5,0 618.5,-25 881.5,-25 881.5,0 618.5,0"/>
<text text-anchor="start" x="623.5" y="-8.8" font-family="Arial" font-size="14.00">Benefits: Reduced address space</text>
</g>
</g>
</svg>
