<?xml version="1.0" encoding="UTF-8" standalone="no"?>
<!DOCTYPE svg PUBLIC "-//W3C//DTD SVG 1.1//EN"
 "http://www.w3.org/Graphics/SVG/1.1/DTD/svg11.dtd">
<!-- Generated by graphviz version 2.43.0 (0)
 -->
<!-- Title: smbus_top Pages: 1 -->
<svg width="750pt" height="267pt"
 viewBox="0.00 0.00 749.57 267.00" xmlns="http://www.w3.org/2000/svg" xmlns:xlink="http://www.w3.org/1999/xlink">
<g id="graph0" class="graph" transform="scale(1 1) rotate(0) translate(4 263)">
<title>smbus_top</title>
<polygon fill="white" stroke="transparent" points="-4,4 -4,-263 745.57,-263 745.57,4 -4,4"/>
<g id="clust1" class="cluster">
<title>cluster_smbus</title>
<path fill="none" stroke="black" d="M168.28,-118C168.28,-118 709.03,-118 709.03,-118 715.03,-118 721.03,-124 721.03,-130 721.03,-130 721.03,-239 721.03,-239 721.03,-245 715.03,-251 709.03,-251 709.03,-251 168.28,-251 168.28,-251 162.28,-251 156.28,-245 156.28,-239 156.28,-239 156.28,-130 156.28,-130 156.28,-124 162.28,-118 168.28,-118"/>
<text text-anchor="middle" x="438.65" y="-235.8" font-family="Times,serif" font-size="14.00">apb_smbus</text>
</g>
<!-- apb_in -->
<g id="node1" class="node">
<title>apb_in</title>
<ellipse fill="lightgreen" stroke="black" cx="63.64" cy="-173" rx="63.78" ry="26.74"/>
<text text-anchor="middle" x="63.64" y="-176.8" font-family="Times,serif" font-size="14.00">APB Slave</text>
<text text-anchor="middle" x="63.64" y="-161.8" font-family="Times,serif" font-size="14.00">Interface</text>
</g>
<!-- apb_if -->
<g id="node3" class="node">
<title>apb_if</title>
<path fill="lightyellow" stroke="black" d="M233.28,-192C233.28,-192 176.28,-192 176.28,-192 170.28,-192 164.28,-186 164.28,-180 164.28,-180 164.28,-166 164.28,-166 164.28,-160 170.28,-154 176.28,-154 176.28,-154 233.28,-154 233.28,-154 239.28,-154 245.28,-160 245.28,-166 245.28,-166 245.28,-180 245.28,-180 245.28,-186 239.28,-192 233.28,-192"/>
<text text-anchor="middle" x="204.78" y="-176.8" font-family="Times,serif" font-size="14.00">APB</text>
<text text-anchor="middle" x="204.78" y="-161.8" font-family="Times,serif" font-size="14.00">Interface</text>
</g>
<!-- apb_in&#45;&gt;apb_if -->
<g id="edge1" class="edge">
<title>apb_in&#45;&gt;apb_if</title>
<path fill="none" stroke="black" d="M127.29,-173C136.21,-173 145.29,-173 153.92,-173"/>
<polygon fill="black" stroke="black" points="154.2,-176.5 164.2,-173 154.2,-169.5 154.2,-176.5"/>
</g>
<!-- scl_sda -->
<g id="node2" class="node">
<title>scl_sda</title>
<ellipse fill="lightgreen" stroke="black" cx="668.03" cy="-81" rx="73.58" ry="26.74"/>
<text text-anchor="middle" x="668.03" y="-84.8" font-family="Times,serif" font-size="14.00">SCL/SDA</text>
<text text-anchor="middle" x="668.03" y="-69.8" font-family="Times,serif" font-size="14.00">(open&#45;drain)</text>
</g>
<!-- regs -->
<g id="node4" class="node">
<title>regs</title>
<path fill="lightyellow" stroke="black" d="M368.88,-220C368.88,-220 315.88,-220 315.88,-220 309.88,-220 303.88,-214 303.88,-208 303.88,-208 303.88,-194 303.88,-194 303.88,-188 309.88,-182 315.88,-182 315.88,-182 368.88,-182 368.88,-182 374.88,-182 380.88,-188 380.88,-194 380.88,-194 380.88,-208 380.88,-208 380.88,-214 374.88,-220 368.88,-220"/>
<text text-anchor="middle" x="342.38" y="-204.8" font-family="Times,serif" font-size="14.00">Register</text>
<text text-anchor="middle" x="342.38" y="-189.8" font-family="Times,serif" font-size="14.00">File</text>
</g>
<!-- apb_if&#45;&gt;regs -->
<g id="edge2" class="edge">
<title>apb_if&#45;&gt;regs</title>
<path fill="none" stroke="black" d="M245.37,-181.17C260.5,-184.3 277.92,-187.9 293.73,-191.16"/>
<polygon fill="black" stroke="black" points="293.34,-194.65 303.84,-193.25 294.76,-187.8 293.34,-194.65"/>
</g>
<!-- apb_out -->
<g id="node10" class="node">
<title>apb_out</title>
<ellipse fill="pink" stroke="black" cx="342.38" cy="-81" rx="60.21" ry="26.74"/>
<text text-anchor="middle" x="342.38" y="-84.8" font-family="Times,serif" font-size="14.00">APB</text>
<text text-anchor="middle" x="342.38" y="-69.8" font-family="Times,serif" font-size="14.00">Response</text>
</g>
<!-- apb_if&#45;&gt;apb_out -->
<g id="edge3" class="edge">
<title>apb_if&#45;&gt;apb_out</title>
<path fill="none" stroke="black" d="M228.89,-153.73C243.74,-141.73 263.66,-126.28 282.28,-114 286.02,-111.53 289.96,-109.06 293.96,-106.66"/>
<polygon fill="black" stroke="black" points="295.89,-109.58 302.74,-101.49 292.34,-103.54 295.89,-109.58"/>
</g>
<!-- host_ctrl -->
<g id="node5" class="node">
<title>host_ctrl</title>
<path fill="lightcyan" stroke="black" d="M545.49,-164C545.49,-164 480.49,-164 480.49,-164 474.49,-164 468.49,-158 468.49,-152 468.49,-152 468.49,-138 468.49,-138 468.49,-132 474.49,-126 480.49,-126 480.49,-126 545.49,-126 545.49,-126 551.49,-126 557.49,-132 557.49,-138 557.49,-138 557.49,-152 557.49,-152 557.49,-158 551.49,-164 545.49,-164"/>
<text text-anchor="middle" x="512.99" y="-148.8" font-family="Times,serif" font-size="14.00">Host</text>
<text text-anchor="middle" x="512.99" y="-133.8" font-family="Times,serif" font-size="14.00">Controller</text>
</g>
<!-- regs&#45;&gt;host_ctrl -->
<g id="edge4" class="edge">
<title>regs&#45;&gt;host_ctrl</title>
<path fill="none" stroke="black" d="M381.22,-182.69C404.02,-174.01 433.41,-164.05 458.56,-156.42"/>
<polygon fill="black" stroke="black" points="459.74,-159.72 468.32,-153.51 457.74,-153.01 459.74,-159.72"/>
</g>
<!-- host_ctrl&#45;&gt;scl_sda -->
<g id="edge7" class="edge">
<title>host_ctrl&#45;&gt;scl_sda</title>
<path fill="none" stroke="black" d="M567.47,-122.63C581.06,-116.95 595.72,-110.82 609.5,-105.06"/>
<polygon fill="black" stroke="black" points="565.72,-119.57 557.84,-126.66 568.42,-126.03 565.72,-119.57"/>
<polygon fill="black" stroke="black" points="611,-108.22 618.87,-101.14 608.3,-101.77 611,-108.22"/>
</g>
<!-- host_ctrl&#45;&gt;regs -->
<g id="edge5" class="edge">
<title>host_ctrl&#45;&gt;regs</title>
<path fill="none" stroke="black" d="M472.22,-164.04C447.93,-173.21 416.72,-183.69 391.1,-191.3"/>
<polygon fill="black" stroke="black" points="389.85,-188.02 381.22,-194.17 391.8,-194.74 389.85,-188.02"/>
</g>
<!-- pec_calc -->
<g id="node7" class="node">
<title>pec_calc</title>
<path fill="lightcyan" stroke="black" d="M701.03,-164C701.03,-164 635.03,-164 635.03,-164 629.03,-164 623.03,-158 623.03,-152 623.03,-152 623.03,-138 623.03,-138 623.03,-132 629.03,-126 635.03,-126 635.03,-126 701.03,-126 701.03,-126 707.03,-126 713.03,-132 713.03,-138 713.03,-138 713.03,-152 713.03,-152 713.03,-158 707.03,-164 701.03,-164"/>
<text text-anchor="middle" x="668.03" y="-148.8" font-family="Times,serif" font-size="14.00">PEC</text>
<text text-anchor="middle" x="668.03" y="-133.8" font-family="Times,serif" font-size="14.00">Calculator</text>
</g>
<!-- host_ctrl&#45;&gt;pec_calc -->
<g id="edge8" class="edge">
<title>host_ctrl&#45;&gt;pec_calc</title>
<path fill="none" stroke="black" d="M557.84,-145C574.98,-145 594.8,-145 612.82,-145"/>
<polygon fill="black" stroke="black" points="612.9,-148.5 622.9,-145 612.9,-141.5 612.9,-148.5"/>
</g>
<!-- block_buf -->
<g id="node8" class="node">
<title>block_buf</title>
<path fill="lightcyan" stroke="black" d="M686.53,-220C686.53,-220 649.53,-220 649.53,-220 643.53,-220 637.53,-214 637.53,-208 637.53,-208 637.53,-194 637.53,-194 637.53,-188 643.53,-182 649.53,-182 649.53,-182 686.53,-182 686.53,-182 692.53,-182 698.53,-188 698.53,-194 698.53,-194 698.53,-208 698.53,-208 698.53,-214 692.53,-220 686.53,-220"/>
<text text-anchor="middle" x="668.03" y="-204.8" font-family="Times,serif" font-size="14.00">Block</text>
<text text-anchor="middle" x="668.03" y="-189.8" font-family="Times,serif" font-size="14.00">Buffer</text>
</g>
<!-- host_ctrl&#45;&gt;block_buf -->
<g id="edge9" class="edge">
<title>host_ctrl&#45;&gt;block_buf</title>
<path fill="none" stroke="black" d="M557.84,-161.05C579.9,-169.12 606.42,-178.82 627.8,-186.65"/>
<polygon fill="black" stroke="black" points="626.63,-189.95 637.22,-190.09 629.04,-183.37 626.63,-189.95"/>
</g>
<!-- irq -->
<g id="node9" class="node">
<title>irq</title>
<ellipse fill="pink" stroke="black" cx="668.03" cy="-18" rx="27" ry="18"/>
<text text-anchor="middle" x="668.03" y="-14.3" font-family="Times,serif" font-size="14.00">irq</text>
</g>
<!-- host_ctrl&#45;&gt;irq -->
<g id="edge11" class="edge">
<title>host_ctrl&#45;&gt;irq</title>
<path fill="none" stroke="black" d="M524.97,-125.83C538.64,-103.55 563.93,-67.03 594.49,-45 605.75,-36.88 619.75,-30.91 632.43,-26.69"/>
<polygon fill="black" stroke="black" points="633.72,-29.95 642.24,-23.66 631.66,-23.26 633.72,-29.95"/>
</g>
<!-- clk_gen -->
<g id="node6" class="node">
<title>clk_gen</title>
<path fill="lightcyan" stroke="black" d="M374.88,-164C374.88,-164 309.88,-164 309.88,-164 303.88,-164 297.88,-158 297.88,-152 297.88,-152 297.88,-138 297.88,-138 297.88,-132 303.88,-126 309.88,-126 309.88,-126 374.88,-126 374.88,-126 380.88,-126 386.88,-132 386.88,-138 386.88,-138 386.88,-152 386.88,-152 386.88,-158 380.88,-164 374.88,-164"/>
<text text-anchor="middle" x="342.38" y="-148.8" font-family="Times,serif" font-size="14.00">Clock</text>
<text text-anchor="middle" x="342.38" y="-133.8" font-family="Times,serif" font-size="14.00">Generator</text>
</g>
<!-- clk_gen&#45;&gt;host_ctrl -->
<g id="edge6" class="edge">
<title>clk_gen&#45;&gt;host_ctrl</title>
<path fill="none" stroke="black" d="M387.24,-145C408.9,-145 435.23,-145 458.11,-145"/>
<polygon fill="black" stroke="black" points="458.35,-148.5 468.35,-145 458.35,-141.5 458.35,-148.5"/>
<text text-anchor="middle" x="435.49" y="-148.8" font-family="Times,serif" font-size="14.00">SCL</text>
</g>
<!-- block_buf&#45;&gt;regs -->
<g id="edge10" class="edge">
<title>block_buf&#45;&gt;regs</title>
<path fill="none" stroke="black" d="M637.14,-201C581.01,-201 459.38,-201 391.55,-201"/>
<polygon fill="black" stroke="black" points="391.14,-197.5 381.14,-201 391.14,-204.5 391.14,-197.5"/>
</g>
</g>
</svg>
