<?xml version="1.0" encoding="UTF-8" standalone="no"?>
<!DOCTYPE svg PUBLIC "-//W3C//DTD SVG 1.1//EN"
 "http://www.w3.org/Graphics/SVG/1.1/DTD/svg11.dtd">
<!-- Generated by graphviz version 2.43.0 (0)
 -->
<!-- Title: arbitration Pages: 1 -->
<svg width="1821pt" height="1218pt"
 viewBox="0.00 0.00 1821.00 1217.58" xmlns="http://www.w3.org/2000/svg" xmlns:xlink="http://www.w3.org/1999/xlink">
<g id="graph0" class="graph" transform="scale(1 1) rotate(0) translate(4 1213.58)">
<title>arbitration</title>
<polygon fill="white" stroke="transparent" points="-4,4 -4,-1213.58 1817,-1213.58 1817,4 -4,4"/>
<text text-anchor="middle" x="906.5" y="-1194.38" font-family="Times,serif" font-size="14.00">Arbitration State Machine</text>
<text text-anchor="middle" x="906.5" y="-1179.38" font-family="Times,serif" font-size="14.00">Per&#45;Slave AW/AR Channel Arbitration</text>
<g id="clust1" class="cluster">
<title>cluster_requests</title>
<polygon fill="lightgreen" stroke="black" points="278,-1003.08 278,-1157.08 487,-1157.08 487,-1003.08 278,-1003.08"/>
<text text-anchor="middle" x="382.5" y="-1141.88" font-family="Times,serif" font-size="14.00">Arbiter Inputs (M masters)</text>
</g>
<g id="clust2" class="cluster">
<title>cluster_fsm</title>
<polygon fill="lightyellow" stroke="black" points="8,-349 8,-623.58 754,-623.58 754,-349 8,-349"/>
<text text-anchor="middle" x="381" y="-608.38" font-family="Times,serif" font-size="14.00">Round&#45;Robin Arbiter FSM</text>
</g>
<g id="clust3" class="cluster">
<title>cluster_priority</title>
<polygon fill="wheat" stroke="black" points="237,-663.58 237,-928.58 529,-928.58 529,-663.58 237,-663.58"/>
<text text-anchor="middle" x="383" y="-913.38" font-family="Times,serif" font-size="14.00">Priority Selection Logic</text>
</g>
<g id="clust4" class="cluster">
<title>cluster_output</title>
<polygon fill="lightcoral" stroke="black" points="268,-8 268,-320 420,-320 420,-8 268,-8"/>
<text text-anchor="middle" x="344" y="-304.8" font-family="Times,serif" font-size="14.00">Arbiter Outputs</text>
</g>
<g id="clust5" class="cluster">
<title>cluster_legend</title>
<polygon fill="white" stroke="black" points="1126,-1042.58 1126,-1117.58 1805,-1117.58 1805,-1042.58 1126,-1042.58"/>
<text text-anchor="middle" x="1465.5" y="-1102.38" font-family="Times,serif" font-size="14.00">Legend</text>
</g>
<!-- req -->
<g id="node1" class="node">
<title>req</title>
<path fill="palegreen" stroke="black" d="M434.5,-1126.08C434.5,-1126.08 329.5,-1126.08 329.5,-1126.08 323.5,-1126.08 317.5,-1120.08 317.5,-1114.08 317.5,-1114.08 317.5,-1023.08 317.5,-1023.08 317.5,-1017.08 323.5,-1011.08 329.5,-1011.08 329.5,-1011.08 434.5,-1011.08 434.5,-1011.08 440.5,-1011.08 446.5,-1017.08 446.5,-1023.08 446.5,-1023.08 446.5,-1114.08 446.5,-1114.08 446.5,-1120.08 440.5,-1126.08 434.5,-1126.08"/>
<text text-anchor="middle" x="382" y="-1110.88" font-family="Times,serif" font-size="14.00">Requests from</text>
<text text-anchor="middle" x="382" y="-1095.88" font-family="Times,serif" font-size="14.00">M Masters</text>
<text text-anchor="middle" x="382" y="-1064.88" font-family="Times,serif" font-size="14.00">AWVALID[M] or</text>
<text text-anchor="middle" x="382" y="-1049.88" font-family="Times,serif" font-size="14.00">ARVALID[M]</text>
<text text-anchor="middle" x="382" y="-1018.88" font-family="Times,serif" font-size="14.00">To same slave</text>
</g>
<!-- rr_ptr -->
<g id="node6" class="node">
<title>rr_ptr</title>
<path fill="lightyellow" stroke="black" d="M361,-897.58C361,-897.58 257,-897.58 257,-897.58 251,-897.58 245,-891.58 245,-885.58 245,-885.58 245,-825.58 245,-825.58 245,-819.58 251,-813.58 257,-813.58 257,-813.58 361,-813.58 361,-813.58 367,-813.58 373,-819.58 373,-825.58 373,-825.58 373,-885.58 373,-885.58 373,-891.58 367,-897.58 361,-897.58"/>
<text text-anchor="middle" x="309" y="-882.38" font-family="Times,serif" font-size="14.00">Round&#45;Robin</text>
<text text-anchor="middle" x="309" y="-867.38" font-family="Times,serif" font-size="14.00">Pointer</text>
<text text-anchor="middle" x="309" y="-836.38" font-family="Times,serif" font-size="14.00">increment after</text>
<text text-anchor="middle" x="309" y="-821.38" font-family="Times,serif" font-size="14.00">each grant</text>
</g>
<!-- req&#45;&gt;rr_ptr -->
<g id="edge10" class="edge">
<title>req&#45;&gt;rr_ptr</title>
<path fill="none" stroke="blue" stroke-dasharray="1,5" d="M362.44,-1011.04C351.31,-978.87 337.48,-938.91 326.68,-907.69"/>
<polygon fill="blue" stroke="blue" points="329.87,-906.19 323.29,-897.88 323.25,-908.48 329.87,-906.19"/>
<text text-anchor="middle" x="378.5" y="-939.58" font-family="Times,serif" font-size="10.00">Active requests</text>
</g>
<!-- qos_check -->
<g id="node8" class="node">
<title>qos_check</title>
<path fill="lightcyan" stroke="black" d="M509,-897.58C509,-897.58 403,-897.58 403,-897.58 397,-897.58 391,-891.58 391,-885.58 391,-885.58 391,-825.58 391,-825.58 391,-819.58 397,-813.58 403,-813.58 403,-813.58 509,-813.58 509,-813.58 515,-813.58 521,-819.58 521,-825.58 521,-825.58 521,-885.58 521,-885.58 521,-891.58 515,-897.58 509,-897.58"/>
<text text-anchor="middle" x="456" y="-882.38" font-family="Times,serif" font-size="14.00">QoS Check</text>
<text text-anchor="middle" x="456" y="-867.38" font-family="Times,serif" font-size="14.00">(optional)</text>
<text text-anchor="middle" x="456" y="-836.38" font-family="Times,serif" font-size="14.00">ARQOS/AWQOS</text>
<text text-anchor="middle" x="456" y="-821.38" font-family="Times,serif" font-size="14.00">hints</text>
</g>
<!-- req&#45;&gt;qos_check -->
<g id="edge11" class="edge">
<title>req&#45;&gt;qos_check</title>
<path fill="none" stroke="green" stroke-dasharray="1,5" d="M401.83,-1011.04C413.11,-978.87 427.13,-938.91 438.08,-907.69"/>
<polygon fill="green" stroke="green" points="441.51,-908.48 441.52,-897.88 434.9,-906.16 441.51,-908.48"/>
<text text-anchor="middle" x="453" y="-939.58" font-family="Times,serif" font-size="10.00">QoS hints</text>
</g>
<!-- idle -->
<g id="node2" class="node">
<title>idle</title>
<ellipse fill="lightcyan" stroke="black" cx="364" cy="-543.79" rx="98.99" ry="48.58"/>
<text text-anchor="middle" x="364" y="-563.09" font-family="Times,serif" font-size="14.00">IDLE</text>
<text text-anchor="middle" x="364" y="-532.09" font-family="Times,serif" font-size="14.00">No grant</text>
<text text-anchor="middle" x="364" y="-517.09" font-family="Times,serif" font-size="14.00">Wait for requests</text>
</g>
<!-- grant_m0 -->
<g id="node3" class="node">
<title>grant_m0</title>
<path fill="khaki" stroke="black" d="M161.5,-426C161.5,-426 28.5,-426 28.5,-426 22.5,-426 16.5,-420 16.5,-414 16.5,-414 16.5,-369 16.5,-369 16.5,-363 22.5,-357 28.5,-357 28.5,-357 161.5,-357 161.5,-357 167.5,-357 173.5,-363 173.5,-369 173.5,-369 173.5,-414 173.5,-414 173.5,-420 167.5,-426 161.5,-426"/>
<text text-anchor="middle" x="95" y="-410.8" font-family="Times,serif" font-size="14.00">GRANT_M0</text>
<text text-anchor="middle" x="95" y="-379.8" font-family="Times,serif" font-size="14.00">Master 0 granted</text>
<text text-anchor="middle" x="95" y="-364.8" font-family="Times,serif" font-size="14.00">Lock until complete</text>
</g>
<!-- idle&#45;&gt;grant_m0 -->
<g id="edge1" class="edge">
<title>idle&#45;&gt;grant_m0</title>
<path fill="none" stroke="blue" stroke-width="2" d="M266.67,-534.41C189.32,-525.49 90.1,-508.22 65,-477 55.4,-465.06 57.62,-449.8 63.98,-435.55"/>
<polygon fill="blue" stroke="blue" stroke-width="2" points="67.24,-436.87 68.69,-426.38 61.01,-433.68 67.24,-436.87"/>
<text text-anchor="middle" x="114.5" y="-458" font-family="Times,serif" font-size="10.00">REQ[0] &amp;&amp; priority</text>
</g>
<!-- grant_m1 -->
<g id="node4" class="node">
<title>grant_m1</title>
<path fill="khaki" stroke="black" d="M410.5,-426C410.5,-426 277.5,-426 277.5,-426 271.5,-426 265.5,-420 265.5,-414 265.5,-414 265.5,-369 265.5,-369 265.5,-363 271.5,-357 277.5,-357 277.5,-357 410.5,-357 410.5,-357 416.5,-357 422.5,-363 422.5,-369 422.5,-369 422.5,-414 422.5,-414 422.5,-420 416.5,-426 410.5,-426"/>
<text text-anchor="middle" x="344" y="-410.8" font-family="Times,serif" font-size="14.00">GRANT_M1</text>
<text text-anchor="middle" x="344" y="-379.8" font-family="Times,serif" font-size="14.00">Master 1 granted</text>
<text text-anchor="middle" x="344" y="-364.8" font-family="Times,serif" font-size="14.00">Lock until complete</text>
</g>
<!-- idle&#45;&gt;grant_m1 -->
<g id="edge2" class="edge">
<title>idle&#45;&gt;grant_m1</title>
<path fill="none" stroke="green" stroke-width="2" d="M317.66,-500.6C312.09,-493.31 307.24,-485.36 304,-477 298.7,-463.32 299.24,-457.87 304,-444 305.06,-440.89 306.4,-437.83 307.93,-434.84"/>
<polygon fill="green" stroke="green" stroke-width="2" points="311.01,-436.52 313.05,-426.12 304.97,-432.97 311.01,-436.52"/>
<text text-anchor="middle" x="353.5" y="-458" font-family="Times,serif" font-size="10.00">REQ[1] &amp;&amp; priority</text>
</g>
<!-- grant_mn -->
<g id="node5" class="node">
<title>grant_mn</title>
<path fill="khaki" stroke="black" d="M659.5,-426C659.5,-426 526.5,-426 526.5,-426 520.5,-426 514.5,-420 514.5,-414 514.5,-414 514.5,-369 514.5,-369 514.5,-363 520.5,-357 526.5,-357 526.5,-357 659.5,-357 659.5,-357 665.5,-357 671.5,-363 671.5,-369 671.5,-369 671.5,-414 671.5,-414 671.5,-420 665.5,-426 659.5,-426"/>
<text text-anchor="middle" x="593" y="-410.8" font-family="Times,serif" font-size="14.00">GRANT_MN</text>
<text text-anchor="middle" x="593" y="-379.8" font-family="Times,serif" font-size="14.00">Master N granted</text>
<text text-anchor="middle" x="593" y="-364.8" font-family="Times,serif" font-size="14.00">Lock until complete</text>
</g>
<!-- idle&#45;&gt;grant_mn -->
<g id="edge3" class="edge">
<title>idle&#45;&gt;grant_mn</title>
<path fill="none" stroke="orange" stroke-width="2" d="M427.69,-506.43C442.55,-497.29 458.09,-487.17 472,-477 490.06,-463.8 491.99,-457.27 510,-444 515.5,-439.94 521.33,-435.89 527.24,-431.93"/>
<polygon fill="orange" stroke="orange" stroke-width="2" points="529.5,-434.64 535.94,-426.22 525.66,-428.78 529.5,-434.64"/>
<text text-anchor="middle" x="561" y="-458" font-family="Times,serif" font-size="10.00">REQ[N] &amp;&amp; priority</text>
</g>
<!-- grant_m0&#45;&gt;idle -->
<g id="edge4" class="edge">
<title>grant_m0&#45;&gt;idle</title>
<path fill="none" stroke="blue" stroke-dasharray="1,5" d="M140.95,-426.19C148.71,-432.04 156.63,-438.14 164,-444 181.77,-458.13 183.58,-465.23 203,-477 224.88,-490.27 249.92,-501.96 273.63,-511.67"/>
<polygon fill="blue" stroke="blue" points="272.4,-514.95 282.99,-515.43 275.01,-508.45 272.4,-514.95"/>
<text text-anchor="middle" x="250" y="-469" font-family="Times,serif" font-size="10.00">Transaction</text>
<text text-anchor="middle" x="250" y="-458" font-family="Times,serif" font-size="10.00">complete</text>
<text text-anchor="middle" x="250" y="-447" font-family="Times,serif" font-size="10.00">(WLAST or single)</text>
</g>
<!-- grant_m0&#45;&gt;grant_m0 -->
<g id="edge7" class="edge">
<title>grant_m0&#45;&gt;grant_m0</title>
<path fill="none" stroke="blue" stroke-dasharray="5,2" d="M173.76,-401.15C184.41,-399.53 191.5,-396.31 191.5,-391.5 191.5,-388.42 188.59,-385.99 183.7,-384.22"/>
<polygon fill="blue" stroke="blue" points="184.29,-380.76 173.76,-381.85 182.67,-387.57 184.29,-380.76"/>
<text text-anchor="middle" x="219.5" y="-394.5" font-family="Times,serif" font-size="10.00">Hold grant</text>
<text text-anchor="middle" x="219.5" y="-383.5" font-family="Times,serif" font-size="10.00">until done</text>
</g>
<!-- grant_out -->
<g id="node9" class="node">
<title>grant_out</title>
<path fill="lightpink" stroke="black" d="M396,-289C396,-289 292,-289 292,-289 286,-289 280,-283 280,-277 280,-277 280,-201 280,-201 280,-195 286,-189 292,-189 292,-189 396,-189 396,-189 402,-189 408,-195 408,-201 408,-201 408,-277 408,-277 408,-283 402,-289 396,-289"/>
<text text-anchor="middle" x="344" y="-273.8" font-family="Times,serif" font-size="14.00">Grant Signals</text>
<text text-anchor="middle" x="344" y="-242.8" font-family="Times,serif" font-size="14.00">GRANT[M]</text>
<text text-anchor="middle" x="344" y="-227.8" font-family="Times,serif" font-size="14.00">Only one active</text>
<text text-anchor="middle" x="344" y="-196.8" font-family="Times,serif" font-size="14.00">Controls muxes</text>
</g>
<!-- grant_m0&#45;&gt;grant_out -->
<g id="edge15" class="edge">
<title>grant_m0&#45;&gt;grant_out</title>
<path fill="none" stroke="blue" stroke-width="2" d="M150.57,-356.91C186.15,-335.41 232.69,-307.27 271.21,-284"/>
<polygon fill="blue" stroke="blue" stroke-width="2" points="273.06,-286.97 279.8,-278.8 269.43,-280.98 273.06,-286.97"/>
<text text-anchor="middle" x="222.5" y="-331" font-family="Times,serif" font-size="10.00">Grant M0</text>
</g>
<!-- grant_m1&#45;&gt;idle -->
<g id="edge5" class="edge">
<title>grant_m1&#45;&gt;idle</title>
<path fill="none" stroke="green" stroke-dasharray="1,5" d="M391.11,-426.23C395.9,-431.62 400.07,-437.56 403,-444 409.45,-458.18 407.39,-473.77 401.74,-488.28"/>
<polygon fill="green" stroke="green" points="398.44,-487.08 397.56,-497.64 404.83,-489.93 398.44,-487.08"/>
<text text-anchor="middle" x="437.5" y="-463.5" font-family="Times,serif" font-size="10.00">Transaction</text>
<text text-anchor="middle" x="437.5" y="-452.5" font-family="Times,serif" font-size="10.00">complete</text>
</g>
<!-- grant_m1&#45;&gt;grant_m1 -->
<g id="edge8" class="edge">
<title>grant_m1&#45;&gt;grant_m1</title>
<path fill="none" stroke="green" stroke-dasharray="5,2" d="M422.76,-401.15C433.41,-399.53 440.5,-396.31 440.5,-391.5 440.5,-388.42 437.59,-385.99 432.7,-384.22"/>
<polygon fill="green" stroke="green" points="433.29,-380.76 422.76,-381.85 431.67,-387.57 433.29,-380.76"/>
<text text-anchor="middle" x="468.5" y="-394.5" font-family="Times,serif" font-size="10.00">Hold grant</text>
<text text-anchor="middle" x="468.5" y="-383.5" font-family="Times,serif" font-size="10.00">until done</text>
</g>
<!-- grant_m1&#45;&gt;grant_out -->
<g id="edge16" class="edge">
<title>grant_m1&#45;&gt;grant_out</title>
<path fill="none" stroke="green" stroke-width="2" d="M344,-356.72C344,-339.75 344,-318.68 344,-299.14"/>
<polygon fill="green" stroke="green" stroke-width="2" points="347.5,-299.08 344,-289.08 340.5,-299.08 347.5,-299.08"/>
<text text-anchor="middle" x="368.5" y="-331" font-family="Times,serif" font-size="10.00">Grant M1</text>
</g>
<!-- grant_mn&#45;&gt;idle -->
<g id="edge6" class="edge">
<title>grant_mn&#45;&gt;idle</title>
<path fill="none" stroke="orange" stroke-dasharray="1,5" d="M612.53,-426.18C619.46,-442.91 623.09,-462.58 612,-477 594.03,-500.36 528.36,-517.15 469.11,-527.92"/>
<polygon fill="orange" stroke="orange" points="468.14,-524.54 458.9,-529.73 469.36,-531.43 468.14,-524.54"/>
<text text-anchor="middle" x="649.5" y="-463.5" font-family="Times,serif" font-size="10.00">Transaction</text>
<text text-anchor="middle" x="649.5" y="-452.5" font-family="Times,serif" font-size="10.00">complete</text>
</g>
<!-- grant_mn&#45;&gt;grant_mn -->
<g id="edge9" class="edge">
<title>grant_mn&#45;&gt;grant_mn</title>
<path fill="none" stroke="orange" stroke-dasharray="5,2" d="M671.76,-401.15C682.41,-399.53 689.5,-396.31 689.5,-391.5 689.5,-388.42 686.59,-385.99 681.7,-384.22"/>
<polygon fill="orange" stroke="orange" points="682.29,-380.76 671.76,-381.85 680.67,-387.57 682.29,-380.76"/>
<text text-anchor="middle" x="717.5" y="-394.5" font-family="Times,serif" font-size="10.00">Hold grant</text>
<text text-anchor="middle" x="717.5" y="-383.5" font-family="Times,serif" font-size="10.00">until done</text>
</g>
<!-- grant_mn&#45;&gt;grant_out -->
<g id="edge17" class="edge">
<title>grant_mn&#45;&gt;grant_out</title>
<path fill="none" stroke="orange" stroke-width="2" d="M537.43,-356.91C501.85,-335.41 455.31,-307.27 416.79,-284"/>
<polygon fill="orange" stroke="orange" stroke-width="2" points="418.57,-280.98 408.2,-278.8 414.94,-286.97 418.57,-280.98"/>
<text text-anchor="middle" x="531" y="-331" font-family="Times,serif" font-size="10.00">Grant MN</text>
</g>
<!-- priority_enc -->
<g id="node7" class="node">
<title>priority_enc</title>
<path fill="lightsteelblue" stroke="black" d="M420.5,-755.58C420.5,-755.58 307.5,-755.58 307.5,-755.58 301.5,-755.58 295.5,-749.58 295.5,-743.58 295.5,-743.58 295.5,-683.58 295.5,-683.58 295.5,-677.58 301.5,-671.58 307.5,-671.58 307.5,-671.58 420.5,-671.58 420.5,-671.58 426.5,-671.58 432.5,-677.58 432.5,-683.58 432.5,-683.58 432.5,-743.58 432.5,-743.58 432.5,-749.58 426.5,-755.58 420.5,-755.58"/>
<text text-anchor="middle" x="364" y="-740.38" font-family="Times,serif" font-size="14.00">Priority</text>
<text text-anchor="middle" x="364" y="-725.38" font-family="Times,serif" font-size="14.00">Encoder</text>
<text text-anchor="middle" x="364" y="-694.38" font-family="Times,serif" font-size="14.00">REQ &amp;&amp; priority</text>
<text text-anchor="middle" x="364" y="-679.38" font-family="Times,serif" font-size="14.00">→ grant</text>
</g>
<!-- rr_ptr&#45;&gt;priority_enc -->
<g id="edge12" class="edge">
<title>rr_ptr&#45;&gt;priority_enc</title>
<path fill="none" stroke="blue" d="M325.2,-813.33C331.08,-798.37 337.79,-781.29 343.96,-765.59"/>
<polygon fill="blue" stroke="blue" points="347.32,-766.6 347.72,-756.02 340.81,-764.04 347.32,-766.6"/>
<text text-anchor="middle" x="360" y="-787.58" font-family="Times,serif" font-size="10.00">Current</text>
<text text-anchor="middle" x="360" y="-776.58" font-family="Times,serif" font-size="10.00">priority</text>
</g>
<!-- priority_enc&#45;&gt;idle -->
<g id="edge14" class="edge">
<title>priority_enc&#45;&gt;idle</title>
<path fill="none" stroke="blue" d="M364,-671.53C364,-650.92 364,-625.59 364,-603.01"/>
<polygon fill="blue" stroke="blue" points="367.5,-602.85 364,-592.85 360.5,-602.85 367.5,-602.85"/>
<text text-anchor="middle" x="392.5" y="-645.58" font-family="Times,serif" font-size="10.00">Select next</text>
<text text-anchor="middle" x="392.5" y="-634.58" font-family="Times,serif" font-size="10.00">master</text>
</g>
<!-- qos_check&#45;&gt;priority_enc -->
<g id="edge13" class="edge">
<title>qos_check&#45;&gt;priority_enc</title>
<path fill="none" stroke="green" stroke-dasharray="1,5" d="M428.89,-813.33C418.88,-798.09 407.41,-780.64 396.93,-764.7"/>
<polygon fill="green" stroke="green" points="399.65,-762.45 391.23,-756.02 393.8,-766.3 399.65,-762.45"/>
<text text-anchor="middle" x="442" y="-787.58" font-family="Times,serif" font-size="10.00">QoS boost</text>
<text text-anchor="middle" x="442" y="-776.58" font-family="Times,serif" font-size="10.00">(optional)</text>
</g>
<!-- ready_out -->
<g id="node10" class="node">
<title>ready_out</title>
<path fill="lightpink" stroke="black" d="M400,-131C400,-131 288,-131 288,-131 282,-131 276,-125 276,-119 276,-119 276,-28 276,-28 276,-22 282,-16 288,-16 288,-16 400,-16 400,-16 406,-16 412,-22 412,-28 412,-28 412,-119 412,-119 412,-125 406,-131 400,-131"/>
<text text-anchor="middle" x="344" y="-115.8" font-family="Times,serif" font-size="14.00">READY Signals</text>
<text text-anchor="middle" x="344" y="-84.8" font-family="Times,serif" font-size="14.00">AWREADY[M] or</text>
<text text-anchor="middle" x="344" y="-69.8" font-family="Times,serif" font-size="14.00">ARREADY[M]</text>
<text text-anchor="middle" x="344" y="-38.8" font-family="Times,serif" font-size="14.00">Backpressure</text>
<text text-anchor="middle" x="344" y="-23.8" font-family="Times,serif" font-size="14.00">losers</text>
</g>
<!-- grant_out&#45;&gt;ready_out -->
<g id="edge18" class="edge">
<title>grant_out&#45;&gt;ready_out</title>
<path fill="none" stroke="purple" d="M344,-188.94C344,-174.05 344,-157.43 344,-141.57"/>
<polygon fill="purple" stroke="purple" points="347.5,-141.28 344,-131.28 340.5,-141.28 347.5,-141.28"/>
<text text-anchor="middle" x="368.5" y="-163" font-family="Times,serif" font-size="10.00">READY =</text>
<text text-anchor="middle" x="368.5" y="-152" font-family="Times,serif" font-size="10.00">grant</text>
</g>
<!-- example -->
<g id="node11" class="node">
<title>example</title>
<polygon fill="lightyellow" stroke="black" points="740.5,-1156.08 495.5,-1156.08 495.5,-981.08 746.5,-981.08 746.5,-1150.08 740.5,-1156.08"/>
<polyline fill="none" stroke="black" points="740.5,-1156.08 740.5,-1150.08 "/>
<polyline fill="none" stroke="black" points="746.5,-1150.08 740.5,-1150.08 "/>
<text text-anchor="middle" x="621" y="-1140.88" font-family="Times,serif" font-size="14.00">Grant Lock Behavior</text>
<text text-anchor="middle" x="621" y="-1109.88" font-family="Times,serif" font-size="14.00">AW Channel (with bursts):</text>
<text text-anchor="middle" x="621" y="-1094.88" font-family="Times,serif" font-size="14.00">• Grant locked until WLAST</text>
<text text-anchor="middle" x="621" y="-1079.88" font-family="Times,serif" font-size="14.00">• Prevents W channel corruption</text>
<text text-anchor="middle" x="621" y="-1064.88" font-family="Times,serif" font-size="14.00">• Other masters backpressured</text>
<text text-anchor="middle" x="621" y="-1033.88" font-family="Times,serif" font-size="14.00">AR Channel:</text>
<text text-anchor="middle" x="621" y="-1018.88" font-family="Times,serif" font-size="14.00">• Grant locked until transfer</text>
<text text-anchor="middle" x="621" y="-1003.88" font-family="Times,serif" font-size="14.00">• Single cycle for address</text>
<text text-anchor="middle" x="621" y="-988.88" font-family="Times,serif" font-size="14.00">• Quick re&#45;arbitration</text>
</g>
<!-- rr_example -->
<g id="node12" class="node">
<title>rr_example</title>
<polygon fill="lightgray" stroke="black" points="1111,-1171.58 765,-1171.58 765,-965.58 1117,-965.58 1117,-1165.58 1111,-1171.58"/>
<polyline fill="none" stroke="black" points="1111,-1171.58 1111,-1165.58 "/>
<polyline fill="none" stroke="black" points="1117,-1165.58 1111,-1165.58 "/>
<text text-anchor="middle" x="941" y="-1156.38" font-family="Times,serif" font-size="14.00">Round&#45;Robin Example</text>
<text text-anchor="middle" x="941" y="-1125.38" font-family="Times,serif" font-size="14.00">4 masters competing:</text>
<text text-anchor="middle" x="941" y="-1110.38" font-family="Times,serif" font-size="14.00">Grant sequence: M0 → M1 → M2 → M3 → M0...</text>
<text text-anchor="middle" x="941" y="-1079.38" font-family="Times,serif" font-size="14.00">Fair access:</text>
<text text-anchor="middle" x="941" y="-1064.38" font-family="Times,serif" font-size="14.00">• No starvation</text>
<text text-anchor="middle" x="941" y="-1049.38" font-family="Times,serif" font-size="14.00">• Equal opportunity</text>
<text text-anchor="middle" x="941" y="-1034.38" font-family="Times,serif" font-size="14.00">• Predictable latency</text>
<text text-anchor="middle" x="941" y="-1003.38" font-family="Times,serif" font-size="14.00">With QoS:</text>
<text text-anchor="middle" x="941" y="-988.38" font-family="Times,serif" font-size="14.00">• High QoS can break sequence</text>
<text text-anchor="middle" x="941" y="-973.38" font-family="Times,serif" font-size="14.00">• Returns to RR after priority request</text>
</g>
<!-- leg_state -->
<g id="node13" class="node">
<title>leg_state</title>
<ellipse fill="lightcyan" stroke="black" cx="1731" cy="-1068.58" rx="65.79" ry="18"/>
<text text-anchor="middle" x="1731" y="-1064.88" font-family="Times,serif" font-size="14.00">FSM States</text>
</g>
<!-- leg_grant -->
<g id="node14" class="node">
<title>leg_grant</title>
<polygon fill="khaki" stroke="black" points="1647.5,-1086.58 1546.5,-1086.58 1546.5,-1050.58 1647.5,-1050.58 1647.5,-1086.58"/>
<text text-anchor="middle" x="1597" y="-1064.88" font-family="Times,serif" font-size="14.00">Grant State</text>
</g>
<!-- leg_m0 -->
<g id="node15" class="node">
<title>leg_m0</title>
<polygon fill="none" stroke="blue" stroke-width="2" points="1528,-1086.58 1410,-1086.58 1410,-1050.58 1528,-1050.58 1528,-1086.58"/>
<text text-anchor="middle" x="1469" y="-1064.88" font-family="Times,serif" font-size="14.00">Master 0 Path</text>
</g>
<!-- leg_m1 -->
<g id="node16" class="node">
<title>leg_m1</title>
<polygon fill="none" stroke="green" stroke-width="2" points="1392,-1086.58 1274,-1086.58 1274,-1050.58 1392,-1050.58 1392,-1086.58"/>
<text text-anchor="middle" x="1333" y="-1064.88" font-family="Times,serif" font-size="14.00">Master 1 Path</text>
</g>
<!-- leg_mn -->
<g id="node17" class="node">
<title>leg_mn</title>
<polygon fill="none" stroke="orange" stroke-width="2" points="1255.5,-1086.58 1134.5,-1086.58 1134.5,-1050.58 1255.5,-1050.58 1255.5,-1086.58"/>
<text text-anchor="middle" x="1195" y="-1064.88" font-family="Times,serif" font-size="14.00">Master N Path</text>
</g>
</g>
</svg>
