<?xml version="1.0" encoding="UTF-8" standalone="no"?>
<!DOCTYPE svg PUBLIC "-//W3C//DTD SVG 1.1//EN"
 "http://www.w3.org/Graphics/SVG/1.1/DTD/svg11.dtd">
<!-- Generated by graphviz version 2.43.0 (0)
 -->
<!-- Title: bridge_1x4 Pages: 1 -->
<svg width="1066pt" height="1490pt"
 viewBox="0.00 0.00 1066.49 1489.74" xmlns="http://www.w3.org/2000/svg" xmlns:xlink="http://www.w3.org/1999/xlink">
<g id="graph0" class="graph" transform="scale(1 1) rotate(0) translate(4 1485.74)">
<title>bridge_1x4</title>
<polygon fill="white" stroke="transparent" points="-4,4 -4,-1485.74 1062.49,-1485.74 1062.49,4 -4,4"/>
<text text-anchor="middle" x="529.24" y="-1466.54" font-family="Times,serif" font-size="14.00">Bridge AXI4 Crossbar: 1 Master × 4 Slaves</text>
<text text-anchor="middle" x="529.24" y="-1451.54" font-family="Times,serif" font-size="14.00">Module: bridge_axi4_flat_1x4</text>
<g id="clust1" class="cluster">
<title>cluster_crossbar</title>
<polygon fill="lightyellow" stroke="black" points="8,-340.24 8,-937.24 816.49,-937.24 816.49,-340.24 8,-340.24"/>
<text text-anchor="middle" x="412.24" y="-922.04" font-family="Times,serif" font-size="14.00">Bridge Crossbar Core</text>
</g>
<g id="clust2" class="cluster">
<title>cluster_slaves</title>
<polygon fill="lightcoral" stroke="black" points="900.49,-181.24 900.49,-610.24 1053.49,-610.24 1053.49,-181.24 900.49,-181.24"/>
<text text-anchor="middle" x="976.99" y="-595.04" font-family="Times,serif" font-size="14.00">External Slaves (4)</text>
</g>
<g id="clust3" class="cluster">
<title>cluster_legend</title>
<polygon fill="white" stroke="black" points="46.5,-945.24 46.5,-1184.24 325.5,-1184.24 325.5,-945.24 46.5,-945.24"/>
<text text-anchor="middle" x="186" y="-1169.04" font-family="Times,serif" font-size="14.00">Legend</text>
</g>
<!-- master0 -->
<g id="node1" class="node">
<title>master0</title>
<path fill="palegreen" stroke="black" d="M608.48,-230.94C608.48,-230.94 608.48,-269.53 608.48,-269.53 608.48,-275.53 604.68,-286.17 600.87,-290.81 600.87,-290.81 579.78,-316.51 579.78,-316.51 575.98,-321.15 566.17,-325.79 560.17,-325.79 560.17,-325.79 532.82,-325.79 532.82,-325.79 526.82,-325.79 517.01,-321.15 513.21,-316.51 513.21,-316.51 492.12,-290.81 492.12,-290.81 488.31,-286.17 484.5,-275.53 484.5,-269.53 484.5,-269.53 484.5,-230.94 484.5,-230.94 484.5,-224.94 488.31,-214.3 492.12,-209.66 492.12,-209.66 513.21,-183.96 513.21,-183.96 517.01,-179.32 526.82,-174.68 532.82,-174.68 532.82,-174.68 560.17,-174.68 560.17,-174.68 566.17,-174.68 575.98,-179.32 579.78,-183.96 579.78,-183.96 600.87,-209.66 600.87,-209.66 604.68,-214.3 608.48,-224.94 608.48,-230.94"/>
<path fill="none" stroke="black" d="M612.48,-229.52C612.48,-229.52 612.48,-270.96 612.48,-270.96 612.48,-276.96 608.68,-287.6 604.87,-292.23 604.87,-292.23 581.68,-320.5 581.68,-320.5 577.87,-325.14 568.07,-329.78 562.07,-329.78 562.07,-329.78 530.92,-329.78 530.92,-329.78 524.92,-329.78 515.12,-325.14 511.31,-320.5 511.31,-320.5 488.12,-292.23 488.12,-292.23 484.31,-287.6 480.51,-276.96 480.51,-270.96 480.51,-270.96 480.51,-229.52 480.51,-229.52 480.51,-223.52 484.31,-212.88 488.12,-208.24 488.12,-208.24 511.31,-179.97 511.31,-179.97 515.12,-175.33 524.92,-170.69 530.92,-170.69 530.92,-170.69 562.07,-170.69 562.07,-170.69 568.07,-170.69 577.87,-175.33 581.68,-179.97 581.68,-179.97 604.87,-208.24 604.87,-208.24 608.68,-212.88 612.48,-223.52 612.48,-229.52"/>
<text text-anchor="middle" x="546.49" y="-284.54" font-family="Times,serif" font-size="14.00">Master 0</text>
<text text-anchor="middle" x="546.49" y="-269.54" font-family="Times,serif" font-size="14.00">(CPU)</text>
<text text-anchor="middle" x="546.49" y="-238.54" font-family="Times,serif" font-size="14.00">AW, W, B</text>
<text text-anchor="middle" x="546.49" y="-223.54" font-family="Times,serif" font-size="14.00">AR, R</text>
<text text-anchor="middle" x="546.49" y="-208.54" font-family="Times,serif" font-size="14.00">channels</text>
</g>
<!-- aw_decode -->
<g id="node2" class="node">
<title>aw_decode</title>
<path fill="lightcyan" stroke="black" d="M344,-784.74C344,-784.74 28,-784.74 28,-784.74 22,-784.74 16,-778.74 16,-772.74 16,-772.74 16,-697.74 16,-697.74 16,-691.74 22,-685.74 28,-685.74 28,-685.74 344,-685.74 344,-685.74 350,-685.74 356,-691.74 356,-697.74 356,-697.74 356,-772.74 356,-772.74 356,-778.74 350,-784.74 344,-784.74"/>
<text text-anchor="middle" x="186" y="-769.54" font-family="Times,serif" font-size="14.00">AW Address Decode</text>
<text text-anchor="middle" x="186" y="-738.54" font-family="Times,serif" font-size="14.00">0x00000000&#45;0x0FFFFFFF → Slave 0 (DDR)</text>
<text text-anchor="middle" x="186" y="-723.54" font-family="Times,serif" font-size="14.00">0x10000000&#45;0x1FFFFFFF → Slave 1 (SRAM)</text>
<text text-anchor="middle" x="186" y="-708.54" font-family="Times,serif" font-size="14.00">0x20000000&#45;0x2FFFFFFF → Slave 2 (Periph)</text>
<text text-anchor="middle" x="186" y="-693.54" font-family="Times,serif" font-size="14.00">0x30000000&#45;0x3FFFFFFF → Slave 3 (Flash)</text>
</g>
<!-- master0&#45;&gt;aw_decode -->
<g id="edge1" class="edge">
<title>master0&#45;&gt;aw_decode</title>
<path fill="none" stroke="blue" stroke-width="2" d="M501.92,-309.31C487.1,-328.26 471.92,-346.18 462.5,-353.24 430.92,-376.89 403.43,-355.13 380.5,-387.24 343.48,-439.05 400.89,-622.43 362.5,-673.24 361.26,-674.88 359.97,-676.48 358.64,-678.04"/>
<polygon fill="blue" stroke="blue" stroke-width="2" points="355.93,-675.8 351.62,-685.48 361.03,-680.61 355.93,-675.8"/>
<text text-anchor="middle" x="421.5" y="-390.24" font-family="Times,serif" font-size="10.00">AWADDR[0]</text>
</g>
<!-- ar_decode -->
<g id="node3" class="node">
<title>ar_decode</title>
<path fill="lightcyan" stroke="black" d="M344,-663.74C344,-663.74 28,-663.74 28,-663.74 22,-663.74 16,-657.74 16,-651.74 16,-651.74 16,-576.74 16,-576.74 16,-570.74 22,-564.74 28,-564.74 28,-564.74 344,-564.74 344,-564.74 350,-564.74 356,-570.74 356,-576.74 356,-576.74 356,-651.74 356,-651.74 356,-657.74 350,-663.74 344,-663.74"/>
<text text-anchor="middle" x="186" y="-648.54" font-family="Times,serif" font-size="14.00">AR Address Decode</text>
<text text-anchor="middle" x="186" y="-617.54" font-family="Times,serif" font-size="14.00">0x00000000&#45;0x0FFFFFFF → Slave 0 (DDR)</text>
<text text-anchor="middle" x="186" y="-602.54" font-family="Times,serif" font-size="14.00">0x10000000&#45;0x1FFFFFFF → Slave 1 (SRAM)</text>
<text text-anchor="middle" x="186" y="-587.54" font-family="Times,serif" font-size="14.00">0x20000000&#45;0x2FFFFFFF → Slave 2 (Periph)</text>
<text text-anchor="middle" x="186" y="-572.54" font-family="Times,serif" font-size="14.00">0x30000000&#45;0x3FFFFFFF → Slave 3 (Flash)</text>
</g>
<!-- master0&#45;&gt;ar_decode -->
<g id="edge26" class="edge">
<title>master0&#45;&gt;ar_decode</title>
<path fill="none" stroke="green" stroke-width="2" d="M491.53,-296.76C482.21,-303.52 472.34,-309.97 462.5,-315.24 428.67,-333.34 404.28,-312.13 380.5,-342.24 351.06,-379.51 391.83,-517.87 362.5,-555.24 362.02,-555.85 361.53,-556.46 361.03,-557.07"/>
<polygon fill="green" stroke="green" stroke-width="2" points="358.35,-554.81 354.21,-564.56 363.53,-559.52 358.35,-554.81"/>
<text text-anchor="middle" x="421.5" y="-345.24" font-family="Times,serif" font-size="10.00">ARADDR[0]</text>
</g>
<!-- w_mux0 -->
<g id="node12" class="node">
<title>w_mux0</title>
<path fill="lightsteelblue" stroke="black" d="M788.99,-762.24C788.99,-762.24 722.99,-762.24 722.99,-762.24 716.99,-762.24 710.99,-756.24 710.99,-750.24 710.99,-750.24 710.99,-738.24 710.99,-738.24 710.99,-732.24 716.99,-726.24 722.99,-726.24 722.99,-726.24 788.99,-726.24 788.99,-726.24 794.99,-726.24 800.99,-732.24 800.99,-738.24 800.99,-738.24 800.99,-750.24 800.99,-750.24 800.99,-756.24 794.99,-762.24 788.99,-762.24"/>
<text text-anchor="middle" x="755.99" y="-740.54" font-family="Times,serif" font-size="14.00">W Mux S0</text>
</g>
<!-- master0&#45;&gt;w_mux0 -->
<g id="edge14" class="edge">
<title>master0&#45;&gt;w_mux0</title>
<path fill="none" stroke="blue" stroke-dasharray="1,5" d="M594.73,-305.3C601.49,-315.14 607.75,-325.65 612.49,-336.24 629.35,-373.86 621.45,-387.01 630.49,-427.24 659.62,-556.92 621.24,-612.83 703.49,-717.24 704.06,-717.97 704.66,-718.68 705.28,-719.37"/>
<polygon fill="blue" stroke="blue" points="702.96,-721.99 712.69,-726.16 707.69,-716.82 702.96,-721.99"/>
<text text-anchor="middle" x="657.99" y="-690.24" font-family="Times,serif" font-size="10.00">WDATA[0]</text>
</g>
<!-- w_mux1 -->
<g id="node13" class="node">
<title>w_mux1</title>
<path fill="lightsteelblue" stroke="black" d="M788.99,-654.24C788.99,-654.24 722.99,-654.24 722.99,-654.24 716.99,-654.24 710.99,-648.24 710.99,-642.24 710.99,-642.24 710.99,-630.24 710.99,-630.24 710.99,-624.24 716.99,-618.24 722.99,-618.24 722.99,-618.24 788.99,-618.24 788.99,-618.24 794.99,-618.24 800.99,-624.24 800.99,-630.24 800.99,-630.24 800.99,-642.24 800.99,-642.24 800.99,-648.24 794.99,-654.24 788.99,-654.24"/>
<text text-anchor="middle" x="755.99" y="-632.54" font-family="Times,serif" font-size="14.00">W Mux S1</text>
</g>
<!-- master0&#45;&gt;w_mux1 -->
<g id="edge15" class="edge">
<title>master0&#45;&gt;w_mux1</title>
<path fill="none" stroke="blue" stroke-dasharray="1,5" d="M591.8,-308.74C611.2,-334.31 629.78,-358.69 630.49,-359.24 651.45,-375.44 669.95,-360.78 685.49,-382.24 715.18,-423.22 675.61,-567.01 703.49,-609.24 703.84,-609.76 704.2,-610.28 704.57,-610.79"/>
<polygon fill="blue" stroke="blue" points="702.19,-613.37 711.62,-618.21 707.27,-608.55 702.19,-613.37"/>
<text text-anchor="middle" x="657.99" y="-385.24" font-family="Times,serif" font-size="10.00">WDATA[0]</text>
</g>
<!-- w_mux2 -->
<g id="node14" class="node">
<title>w_mux2</title>
<path fill="lightsteelblue" stroke="black" d="M788.99,-438.24C788.99,-438.24 722.99,-438.24 722.99,-438.24 716.99,-438.24 710.99,-432.24 710.99,-426.24 710.99,-426.24 710.99,-414.24 710.99,-414.24 710.99,-408.24 716.99,-402.24 722.99,-402.24 722.99,-402.24 788.99,-402.24 788.99,-402.24 794.99,-402.24 800.99,-408.24 800.99,-414.24 800.99,-414.24 800.99,-426.24 800.99,-426.24 800.99,-432.24 794.99,-438.24 788.99,-438.24"/>
<text text-anchor="middle" x="755.99" y="-416.54" font-family="Times,serif" font-size="14.00">W Mux S2</text>
</g>
<!-- master0&#45;&gt;w_mux2 -->
<g id="edge16" class="edge">
<title>master0&#45;&gt;w_mux2</title>
<path fill="none" stroke="blue" stroke-dasharray="1,5" d="M612.74,-230.62C638.26,-227.1 666.02,-229 685.49,-246.24 710.13,-268.05 684.77,-366.17 703.49,-393.24 703.85,-393.76 704.22,-394.27 704.6,-394.77"/>
<polygon fill="blue" stroke="blue" points="702.28,-397.4 711.77,-402.1 707.29,-392.5 702.28,-397.4"/>
<text text-anchor="middle" x="657.99" y="-249.24" font-family="Times,serif" font-size="10.00">WDATA[0]</text>
</g>
<!-- w_mux3 -->
<g id="node15" class="node">
<title>w_mux3</title>
<path fill="lightsteelblue" stroke="black" d="M788.99,-546.24C788.99,-546.24 722.99,-546.24 722.99,-546.24 716.99,-546.24 710.99,-540.24 710.99,-534.24 710.99,-534.24 710.99,-522.24 710.99,-522.24 710.99,-516.24 716.99,-510.24 722.99,-510.24 722.99,-510.24 788.99,-510.24 788.99,-510.24 794.99,-510.24 800.99,-516.24 800.99,-522.24 800.99,-522.24 800.99,-534.24 800.99,-534.24 800.99,-540.24 794.99,-546.24 788.99,-546.24"/>
<text text-anchor="middle" x="755.99" y="-524.54" font-family="Times,serif" font-size="14.00">W Mux S3</text>
</g>
<!-- master0&#45;&gt;w_mux3 -->
<g id="edge17" class="edge">
<title>master0&#45;&gt;w_mux3</title>
<path fill="none" stroke="blue" stroke-dasharray="1,5" d="M612.55,-282.86C618.59,-285.74 624.64,-288.57 630.49,-291.24 654.6,-302.22 669.77,-292.91 685.49,-314.24 735.04,-381.44 656.9,-431.95 703.49,-501.24 703.84,-501.76 704.21,-502.27 704.59,-502.78"/>
<polygon fill="blue" stroke="blue" points="702.23,-505.38 711.68,-510.17 707.28,-500.53 702.23,-505.38"/>
<text text-anchor="middle" x="657.99" y="-317.24" font-family="Times,serif" font-size="10.00">WDATA[0]</text>
</g>
<!-- aw_arb0 -->
<g id="node4" class="node">
<title>aw_arb0</title>
<path fill="khaki" stroke="black" d="M594.99,-906.24C594.99,-906.24 497.99,-906.24 497.99,-906.24 491.99,-906.24 485.99,-900.24 485.99,-894.24 485.99,-894.24 485.99,-864.24 485.99,-864.24 485.99,-858.24 491.99,-852.24 497.99,-852.24 497.99,-852.24 594.99,-852.24 594.99,-852.24 600.99,-852.24 606.99,-858.24 606.99,-864.24 606.99,-864.24 606.99,-894.24 606.99,-894.24 606.99,-900.24 600.99,-906.24 594.99,-906.24"/>
<text text-anchor="middle" x="546.49" y="-891.04" font-family="Times,serif" font-size="14.00">AW Arbiter S0</text>
<text text-anchor="middle" x="546.49" y="-860.04" font-family="Times,serif" font-size="14.00">(Pass&#45;through)</text>
</g>
<!-- aw_decode&#45;&gt;aw_arb0 -->
<g id="edge2" class="edge">
<title>aw_decode&#45;&gt;aw_arb0</title>
<path fill="none" stroke="blue" d="M310.37,-784.79C365.89,-807.09 429.36,-832.59 476.35,-851.46"/>
<polygon fill="blue" stroke="blue" points="475.23,-854.79 485.82,-855.27 477.84,-848.29 475.23,-854.79"/>
<text text-anchor="middle" x="421.5" y="-847.24" font-family="Times,serif" font-size="10.00">Slave 0 selected</text>
</g>
<!-- aw_arb1 -->
<g id="node5" class="node">
<title>aw_arb1</title>
<path fill="khaki" stroke="black" d="M594.99,-834.24C594.99,-834.24 497.99,-834.24 497.99,-834.24 491.99,-834.24 485.99,-828.24 485.99,-822.24 485.99,-822.24 485.99,-792.24 485.99,-792.24 485.99,-786.24 491.99,-780.24 497.99,-780.24 497.99,-780.24 594.99,-780.24 594.99,-780.24 600.99,-780.24 606.99,-786.24 606.99,-792.24 606.99,-792.24 606.99,-822.24 606.99,-822.24 606.99,-828.24 600.99,-834.24 594.99,-834.24"/>
<text text-anchor="middle" x="546.49" y="-819.04" font-family="Times,serif" font-size="14.00">AW Arbiter S1</text>
<text text-anchor="middle" x="546.49" y="-788.04" font-family="Times,serif" font-size="14.00">(Pass&#45;through)</text>
</g>
<!-- aw_decode&#45;&gt;aw_arb1 -->
<g id="edge3" class="edge">
<title>aw_decode&#45;&gt;aw_arb1</title>
<path fill="none" stroke="blue" d="M356.01,-769.18C398.29,-777.67 441.33,-786.32 475.68,-793.22"/>
<polygon fill="blue" stroke="blue" points="475.1,-796.67 485.59,-795.21 476.48,-789.81 475.1,-796.67"/>
<text text-anchor="middle" x="421.5" y="-792.24" font-family="Times,serif" font-size="10.00">Slave 1 selected</text>
</g>
<!-- aw_arb2 -->
<g id="node6" class="node">
<title>aw_arb2</title>
<path fill="khaki" stroke="black" d="M594.99,-618.24C594.99,-618.24 497.99,-618.24 497.99,-618.24 491.99,-618.24 485.99,-612.24 485.99,-606.24 485.99,-606.24 485.99,-576.24 485.99,-576.24 485.99,-570.24 491.99,-564.24 497.99,-564.24 497.99,-564.24 594.99,-564.24 594.99,-564.24 600.99,-564.24 606.99,-570.24 606.99,-576.24 606.99,-576.24 606.99,-606.24 606.99,-606.24 606.99,-612.24 600.99,-618.24 594.99,-618.24"/>
<text text-anchor="middle" x="546.49" y="-603.04" font-family="Times,serif" font-size="14.00">AW Arbiter S2</text>
<text text-anchor="middle" x="546.49" y="-572.04" font-family="Times,serif" font-size="14.00">(Pass&#45;through)</text>
</g>
<!-- aw_decode&#45;&gt;aw_arb2 -->
<g id="edge4" class="edge">
<title>aw_decode&#45;&gt;aw_arb2</title>
<path fill="none" stroke="blue" d="M348.04,-685.52C353.14,-681.72 357.99,-677.63 362.5,-673.24 378.52,-657.63 363.49,-640.77 380.5,-626.24 406.62,-603.92 443.44,-594.71 475.68,-591.28"/>
<polygon fill="blue" stroke="blue" points="476.32,-594.73 485.96,-590.36 475.69,-587.76 476.32,-594.73"/>
<text text-anchor="middle" x="421.5" y="-629.24" font-family="Times,serif" font-size="10.00">Slave 2 selected</text>
</g>
<!-- aw_arb3 -->
<g id="node7" class="node">
<title>aw_arb3</title>
<path fill="khaki" stroke="black" d="M594.99,-762.24C594.99,-762.24 497.99,-762.24 497.99,-762.24 491.99,-762.24 485.99,-756.24 485.99,-750.24 485.99,-750.24 485.99,-720.24 485.99,-720.24 485.99,-714.24 491.99,-708.24 497.99,-708.24 497.99,-708.24 594.99,-708.24 594.99,-708.24 600.99,-708.24 606.99,-714.24 606.99,-720.24 606.99,-720.24 606.99,-750.24 606.99,-750.24 606.99,-756.24 600.99,-762.24 594.99,-762.24"/>
<text text-anchor="middle" x="546.49" y="-747.04" font-family="Times,serif" font-size="14.00">AW Arbiter S3</text>
<text text-anchor="middle" x="546.49" y="-716.04" font-family="Times,serif" font-size="14.00">(Pass&#45;through)</text>
</g>
<!-- aw_decode&#45;&gt;aw_arb3 -->
<g id="edge5" class="edge">
<title>aw_decode&#45;&gt;aw_arb3</title>
<path fill="none" stroke="blue" d="M356.01,-735.24C398.11,-735.24 440.96,-735.24 475.24,-735.24"/>
<polygon fill="blue" stroke="blue" points="475.59,-738.74 485.59,-735.24 475.59,-731.74 475.59,-738.74"/>
<text text-anchor="middle" x="421.5" y="-738.24" font-family="Times,serif" font-size="10.00">Slave 3 selected</text>
</g>
<!-- ar_arb0 -->
<g id="node8" class="node">
<title>ar_arb0</title>
<path fill="khaki" stroke="black" d="M594.99,-690.24C594.99,-690.24 497.99,-690.24 497.99,-690.24 491.99,-690.24 485.99,-684.24 485.99,-678.24 485.99,-678.24 485.99,-648.24 485.99,-648.24 485.99,-642.24 491.99,-636.24 497.99,-636.24 497.99,-636.24 594.99,-636.24 594.99,-636.24 600.99,-636.24 606.99,-642.24 606.99,-648.24 606.99,-648.24 606.99,-678.24 606.99,-678.24 606.99,-684.24 600.99,-690.24 594.99,-690.24"/>
<text text-anchor="middle" x="546.49" y="-675.04" font-family="Times,serif" font-size="14.00">AR Arbiter S0</text>
<text text-anchor="middle" x="546.49" y="-644.04" font-family="Times,serif" font-size="14.00">(Pass&#45;through)</text>
</g>
<!-- ar_decode&#45;&gt;ar_arb0 -->
<g id="edge27" class="edge">
<title>ar_decode&#45;&gt;ar_arb0</title>
<path fill="none" stroke="green" d="M356.01,-637.34C398.29,-643.12 441.33,-649 475.68,-653.69"/>
<polygon fill="green" stroke="green" points="475.21,-657.16 485.59,-655.05 476.16,-650.23 475.21,-657.16"/>
<text text-anchor="middle" x="421.5" y="-654.24" font-family="Times,serif" font-size="10.00">Slave 0 selected</text>
</g>
<!-- ar_arb1 -->
<g id="node9" class="node">
<title>ar_arb1</title>
<path fill="khaki" stroke="black" d="M594.99,-546.24C594.99,-546.24 497.99,-546.24 497.99,-546.24 491.99,-546.24 485.99,-540.24 485.99,-534.24 485.99,-534.24 485.99,-504.24 485.99,-504.24 485.99,-498.24 491.99,-492.24 497.99,-492.24 497.99,-492.24 594.99,-492.24 594.99,-492.24 600.99,-492.24 606.99,-498.24 606.99,-504.24 606.99,-504.24 606.99,-534.24 606.99,-534.24 606.99,-540.24 600.99,-546.24 594.99,-546.24"/>
<text text-anchor="middle" x="546.49" y="-531.04" font-family="Times,serif" font-size="14.00">AR Arbiter S1</text>
<text text-anchor="middle" x="546.49" y="-500.04" font-family="Times,serif" font-size="14.00">(Pass&#45;through)</text>
</g>
<!-- ar_decode&#45;&gt;ar_arb1 -->
<g id="edge28" class="edge">
<title>ar_decode&#45;&gt;ar_arb1</title>
<path fill="none" stroke="green" d="M356.01,-569.45C398.29,-558.25 441.33,-546.84 475.68,-537.74"/>
<polygon fill="green" stroke="green" points="476.82,-541.06 485.59,-535.11 475.03,-534.29 476.82,-541.06"/>
<text text-anchor="middle" x="421.5" y="-563.24" font-family="Times,serif" font-size="10.00">Slave 1 selected</text>
</g>
<!-- ar_arb2 -->
<g id="node10" class="node">
<title>ar_arb2</title>
<path fill="khaki" stroke="black" d="M594.99,-402.24C594.99,-402.24 497.99,-402.24 497.99,-402.24 491.99,-402.24 485.99,-396.24 485.99,-390.24 485.99,-390.24 485.99,-360.24 485.99,-360.24 485.99,-354.24 491.99,-348.24 497.99,-348.24 497.99,-348.24 594.99,-348.24 594.99,-348.24 600.99,-348.24 606.99,-354.24 606.99,-360.24 606.99,-360.24 606.99,-390.24 606.99,-390.24 606.99,-396.24 600.99,-402.24 594.99,-402.24"/>
<text text-anchor="middle" x="546.49" y="-387.04" font-family="Times,serif" font-size="14.00">AR Arbiter S2</text>
<text text-anchor="middle" x="546.49" y="-356.04" font-family="Times,serif" font-size="14.00">(Pass&#45;through)</text>
</g>
<!-- ar_decode&#45;&gt;ar_arb2 -->
<g id="edge29" class="edge">
<title>ar_decode&#45;&gt;ar_arb2</title>
<path fill="none" stroke="green" d="M353.4,-564.51C356.6,-561.59 359.65,-558.51 362.5,-555.24 390.48,-523.2 355.11,-495.36 380.5,-461.24 403.94,-429.73 442.33,-408.76 476.18,-395.41"/>
<polygon fill="green" stroke="green" points="477.48,-398.66 485.59,-391.85 475,-392.12 477.48,-398.66"/>
<text text-anchor="middle" x="421.5" y="-464.24" font-family="Times,serif" font-size="10.00">Slave 2 selected</text>
</g>
<!-- ar_arb3 -->
<g id="node11" class="node">
<title>ar_arb3</title>
<path fill="khaki" stroke="black" d="M594.99,-474.24C594.99,-474.24 497.99,-474.24 497.99,-474.24 491.99,-474.24 485.99,-468.24 485.99,-462.24 485.99,-462.24 485.99,-432.24 485.99,-432.24 485.99,-426.24 491.99,-420.24 497.99,-420.24 497.99,-420.24 594.99,-420.24 594.99,-420.24 600.99,-420.24 606.99,-426.24 606.99,-432.24 606.99,-432.24 606.99,-462.24 606.99,-462.24 606.99,-468.24 600.99,-474.24 594.99,-474.24"/>
<text text-anchor="middle" x="546.49" y="-459.04" font-family="Times,serif" font-size="14.00">AR Arbiter S3</text>
<text text-anchor="middle" x="546.49" y="-428.04" font-family="Times,serif" font-size="14.00">(Pass&#45;through)</text>
</g>
<!-- ar_decode&#45;&gt;ar_arb3 -->
<g id="edge30" class="edge">
<title>ar_decode&#45;&gt;ar_arb3</title>
<path fill="none" stroke="green" d="M349.49,-564.59C353.99,-561.64 358.34,-558.53 362.5,-555.24 374.39,-545.82 369.21,-536.36 380.5,-526.24 407.93,-501.64 444.38,-483.12 476.04,-470.21"/>
<polygon fill="green" stroke="green" points="477.69,-473.32 485.7,-466.38 475.11,-466.81 477.69,-473.32"/>
<text text-anchor="middle" x="421.5" y="-529.24" font-family="Times,serif" font-size="10.00">Slave 3 selected</text>
</g>
<!-- aw_arb0&#45;&gt;w_mux0 -->
<g id="edge6" class="edge">
<title>aw_arb0&#45;&gt;w_mux0</title>
<path fill="none" stroke="blue" d="M597.47,-852.23C602.59,-849.27 607.67,-846.24 612.49,-843.24 651.08,-819.23 693.69,-789.13 722.17,-768.46"/>
<polygon fill="blue" stroke="blue" points="724.51,-771.08 730.53,-762.36 720.39,-765.42 724.51,-771.08"/>
</g>
<!-- aw_arb1&#45;&gt;w_mux1 -->
<g id="edge7" class="edge">
<title>aw_arb1&#45;&gt;w_mux1</title>
<path fill="none" stroke="blue" d="M600.38,-780.15C604.61,-777.33 608.7,-774.35 612.49,-771.24 660.97,-731.37 654.56,-702.55 703.49,-663.24 704.87,-662.13 706.3,-661.05 707.77,-659.99"/>
<polygon fill="blue" stroke="blue" points="710.09,-662.66 716.53,-654.25 706.25,-656.8 710.09,-662.66"/>
</g>
<!-- aw_arb2&#45;&gt;w_mux2 -->
<g id="edge8" class="edge">
<title>aw_arb2&#45;&gt;w_mux2</title>
<path fill="none" stroke="blue" d="M600.38,-564.15C604.61,-561.33 608.7,-558.35 612.49,-555.24 615.52,-552.75 700.43,-449.69 703.49,-447.24 704.87,-446.13 706.3,-445.05 707.77,-443.99"/>
<polygon fill="blue" stroke="blue" points="710.09,-446.66 716.53,-438.25 706.25,-440.8 710.09,-446.66"/>
</g>
<!-- aw_arb3&#45;&gt;w_mux3 -->
<g id="edge9" class="edge">
<title>aw_arb3&#45;&gt;w_mux3</title>
<path fill="none" stroke="blue" d="M601.51,-708.23C605.4,-705.43 609.11,-702.42 612.49,-699.24 640.02,-673.25 675.66,-580.9 703.49,-555.24 704.6,-554.21 705.76,-553.21 706.96,-552.24"/>
<polygon fill="blue" stroke="blue" points="709.22,-554.92 715.3,-546.24 705.14,-549.24 709.22,-554.92"/>
</g>
<!-- r_demux0 -->
<g id="node16" class="node">
<title>r_demux0</title>
<path fill="lightsteelblue" stroke="black" d="M796.49,-708.24C796.49,-708.24 715.49,-708.24 715.49,-708.24 709.49,-708.24 703.49,-702.24 703.49,-696.24 703.49,-696.24 703.49,-684.24 703.49,-684.24 703.49,-678.24 709.49,-672.24 715.49,-672.24 715.49,-672.24 796.49,-672.24 796.49,-672.24 802.49,-672.24 808.49,-678.24 808.49,-684.24 808.49,-684.24 808.49,-696.24 808.49,-696.24 808.49,-702.24 802.49,-708.24 796.49,-708.24"/>
<text text-anchor="middle" x="755.99" y="-686.54" font-family="Times,serif" font-size="14.00">R Demux S0</text>
</g>
<!-- ar_arb0&#45;&gt;r_demux0 -->
<g id="edge31" class="edge">
<title>ar_arb0&#45;&gt;r_demux0</title>
<path fill="none" stroke="green" d="M607.23,-671.01C634.2,-674.52 666.03,-678.66 693.23,-682.2"/>
<polygon fill="green" stroke="green" points="693.04,-685.71 703.41,-683.53 693.95,-678.76 693.04,-685.71"/>
</g>
<!-- r_demux1 -->
<g id="node17" class="node">
<title>r_demux1</title>
<path fill="lightsteelblue" stroke="black" d="M796.49,-600.24C796.49,-600.24 715.49,-600.24 715.49,-600.24 709.49,-600.24 703.49,-594.24 703.49,-588.24 703.49,-588.24 703.49,-576.24 703.49,-576.24 703.49,-570.24 709.49,-564.24 715.49,-564.24 715.49,-564.24 796.49,-564.24 796.49,-564.24 802.49,-564.24 808.49,-570.24 808.49,-576.24 808.49,-576.24 808.49,-588.24 808.49,-588.24 808.49,-594.24 802.49,-600.24 796.49,-600.24"/>
<text text-anchor="middle" x="755.99" y="-578.54" font-family="Times,serif" font-size="14.00">R Demux S1</text>
</g>
<!-- ar_arb1&#45;&gt;r_demux1 -->
<g id="edge32" class="edge">
<title>ar_arb1&#45;&gt;r_demux1</title>
<path fill="none" stroke="green" d="M607.23,-537.37C634.32,-545.6 666.31,-555.31 693.59,-563.6"/>
<polygon fill="green" stroke="green" points="692.82,-567.02 703.41,-566.58 694.86,-560.32 692.82,-567.02"/>
</g>
<!-- r_demux2 -->
<g id="node18" class="node">
<title>r_demux2</title>
<path fill="lightsteelblue" stroke="black" d="M796.49,-384.24C796.49,-384.24 715.49,-384.24 715.49,-384.24 709.49,-384.24 703.49,-378.24 703.49,-372.24 703.49,-372.24 703.49,-360.24 703.49,-360.24 703.49,-354.24 709.49,-348.24 715.49,-348.24 715.49,-348.24 796.49,-348.24 796.49,-348.24 802.49,-348.24 808.49,-354.24 808.49,-360.24 808.49,-360.24 808.49,-372.24 808.49,-372.24 808.49,-378.24 802.49,-384.24 796.49,-384.24"/>
<text text-anchor="middle" x="755.99" y="-362.54" font-family="Times,serif" font-size="14.00">R Demux S2</text>
</g>
<!-- ar_arb2&#45;&gt;r_demux2 -->
<g id="edge33" class="edge">
<title>ar_arb2&#45;&gt;r_demux2</title>
<path fill="none" stroke="green" d="M603.55,-402.47C606.79,-405.17 609.81,-408.09 612.49,-411.24 627.8,-429.22 611.17,-447.66 630.49,-461.24 640.49,-468.27 675.8,-468.69 685.49,-461.24 710.26,-442.17 683.99,-417.68 703.49,-393.24 704.07,-392.51 704.67,-391.8 705.3,-391.11"/>
<polygon fill="green" stroke="green" points="707.69,-393.66 712.74,-384.35 702.98,-388.49 707.69,-393.66"/>
</g>
<!-- r_demux3 -->
<g id="node19" class="node">
<title>r_demux3</title>
<path fill="lightsteelblue" stroke="black" d="M796.49,-492.24C796.49,-492.24 715.49,-492.24 715.49,-492.24 709.49,-492.24 703.49,-486.24 703.49,-480.24 703.49,-480.24 703.49,-468.24 703.49,-468.24 703.49,-462.24 709.49,-456.24 715.49,-456.24 715.49,-456.24 796.49,-456.24 796.49,-456.24 802.49,-456.24 808.49,-462.24 808.49,-468.24 808.49,-468.24 808.49,-480.24 808.49,-480.24 808.49,-486.24 802.49,-492.24 796.49,-492.24"/>
<text text-anchor="middle" x="755.99" y="-470.54" font-family="Times,serif" font-size="14.00">R Demux S3</text>
</g>
<!-- ar_arb3&#45;&gt;r_demux3 -->
<g id="edge34" class="edge">
<title>ar_arb3&#45;&gt;r_demux3</title>
<path fill="none" stroke="green" d="M607.05,-463.82C614.88,-465.55 622.85,-467.1 630.49,-468.24 650.72,-471.25 672.98,-472.86 693.02,-473.69"/>
<polygon fill="green" stroke="green" points="693.16,-477.19 703.28,-474.05 693.41,-470.2 693.16,-477.19"/>
</g>
<!-- slave0 -->
<g id="node24" class="node">
<title>slave0</title>
<path fill="lightpink" stroke="black" d="M1030.49,-579.24C1030.49,-579.24 923.49,-579.24 923.49,-579.24 917.49,-579.24 911.49,-573.24 911.49,-567.24 911.49,-567.24 911.49,-507.24 911.49,-507.24 911.49,-501.24 917.49,-495.24 923.49,-495.24 923.49,-495.24 1030.49,-495.24 1030.49,-495.24 1036.49,-495.24 1042.49,-501.24 1042.49,-507.24 1042.49,-507.24 1042.49,-567.24 1042.49,-567.24 1042.49,-573.24 1036.49,-579.24 1030.49,-579.24"/>
<text text-anchor="middle" x="976.99" y="-564.04" font-family="Times,serif" font-size="14.00">Slave 0</text>
<text text-anchor="middle" x="976.99" y="-549.04" font-family="Times,serif" font-size="14.00">(DDR)</text>
<text text-anchor="middle" x="976.99" y="-534.04" font-family="Times,serif" font-size="14.00">@ 0x0000_0000</text>
<text text-anchor="middle" x="976.99" y="-503.04" font-family="Times,serif" font-size="14.00">AW, W, B, AR, R</text>
</g>
<!-- w_mux0&#45;&gt;slave0 -->
<g id="edge10" class="edge">
<title>w_mux0&#45;&gt;slave0</title>
<path fill="none" stroke="blue" stroke-width="2" d="M801.13,-743.07C829.37,-740.22 865.29,-732.44 890.49,-712.24 929.04,-681.33 951.44,-628.69 963.56,-589.2"/>
<polygon fill="blue" stroke="blue" stroke-width="2" points="966.96,-590.05 966.43,-579.47 960.25,-588.07 966.96,-590.05"/>
<text text-anchor="middle" x="858.49" y="-752.24" font-family="Times,serif" font-size="10.00">AWVALID[0]</text>
<text text-anchor="middle" x="858.49" y="-741.24" font-family="Times,serif" font-size="10.00">AW signals</text>
</g>
<!-- slave1 -->
<g id="node25" class="node">
<title>slave1</title>
<path fill="lightpink" stroke="black" d="M1030.49,-477.24C1030.49,-477.24 923.49,-477.24 923.49,-477.24 917.49,-477.24 911.49,-471.24 911.49,-465.24 911.49,-465.24 911.49,-405.24 911.49,-405.24 911.49,-399.24 917.49,-393.24 923.49,-393.24 923.49,-393.24 1030.49,-393.24 1030.49,-393.24 1036.49,-393.24 1042.49,-399.24 1042.49,-405.24 1042.49,-405.24 1042.49,-465.24 1042.49,-465.24 1042.49,-471.24 1036.49,-477.24 1030.49,-477.24"/>
<text text-anchor="middle" x="976.99" y="-462.04" font-family="Times,serif" font-size="14.00">Slave 1</text>
<text text-anchor="middle" x="976.99" y="-447.04" font-family="Times,serif" font-size="14.00">(SRAM)</text>
<text text-anchor="middle" x="976.99" y="-432.04" font-family="Times,serif" font-size="14.00">@ 0x1000_0000</text>
<text text-anchor="middle" x="976.99" y="-401.04" font-family="Times,serif" font-size="14.00">AW, W, B, AR, R</text>
</g>
<!-- w_mux1&#45;&gt;slave1 -->
<g id="edge11" class="edge">
<title>w_mux1&#45;&gt;slave1</title>
<path fill="none" stroke="blue" stroke-width="2" d="M801.27,-620.6C806.81,-617.41 812.08,-613.65 816.49,-609.24 824.09,-601.64 818.54,-594.46 826.49,-587.24 848.75,-567.01 871.51,-588.57 890.49,-565.24 912.82,-537.78 881.95,-516.38 900.49,-486.24 901.7,-484.27 903.02,-482.35 904.43,-480.5"/>
<polygon fill="blue" stroke="blue" stroke-width="2" points="907.25,-482.6 911.16,-472.75 901.96,-478.01 907.25,-482.6"/>
<text text-anchor="middle" x="858.49" y="-601.24" font-family="Times,serif" font-size="10.00">AWVALID[1]</text>
<text text-anchor="middle" x="858.49" y="-590.24" font-family="Times,serif" font-size="10.00">AW signals</text>
</g>
<!-- slave2 -->
<g id="node26" class="node">
<title>slave2</title>
<path fill="lightpink" stroke="black" d="M1030.49,-273.24C1030.49,-273.24 923.49,-273.24 923.49,-273.24 917.49,-273.24 911.49,-267.24 911.49,-261.24 911.49,-261.24 911.49,-201.24 911.49,-201.24 911.49,-195.24 917.49,-189.24 923.49,-189.24 923.49,-189.24 1030.49,-189.24 1030.49,-189.24 1036.49,-189.24 1042.49,-195.24 1042.49,-201.24 1042.49,-201.24 1042.49,-261.24 1042.49,-261.24 1042.49,-267.24 1036.49,-273.24 1030.49,-273.24"/>
<text text-anchor="middle" x="976.99" y="-258.04" font-family="Times,serif" font-size="14.00">Slave 2</text>
<text text-anchor="middle" x="976.99" y="-243.04" font-family="Times,serif" font-size="14.00">(Peripherals)</text>
<text text-anchor="middle" x="976.99" y="-228.04" font-family="Times,serif" font-size="14.00">@ 0x2000_0000</text>
<text text-anchor="middle" x="976.99" y="-197.04" font-family="Times,serif" font-size="14.00">AW, W, B, AR, R</text>
</g>
<!-- w_mux2&#45;&gt;slave2 -->
<g id="edge12" class="edge">
<title>w_mux2&#45;&gt;slave2</title>
<path fill="none" stroke="blue" stroke-width="2" d="M801.06,-406.98C807.07,-403.41 812.52,-398.91 816.49,-393.24 833.35,-369.13 807,-283.27 826.49,-261.24 845.08,-240.22 873.9,-231.47 901.29,-228.42"/>
<polygon fill="blue" stroke="blue" stroke-width="2" points="901.64,-231.9 911.3,-227.54 901.03,-224.93 901.64,-231.9"/>
<text text-anchor="middle" x="858.49" y="-275.24" font-family="Times,serif" font-size="10.00">AWVALID[2]</text>
<text text-anchor="middle" x="858.49" y="-264.24" font-family="Times,serif" font-size="10.00">AW signals</text>
</g>
<!-- slave3 -->
<g id="node27" class="node">
<title>slave3</title>
<path fill="lightpink" stroke="black" d="M1030.49,-375.24C1030.49,-375.24 923.49,-375.24 923.49,-375.24 917.49,-375.24 911.49,-369.24 911.49,-363.24 911.49,-363.24 911.49,-303.24 911.49,-303.24 911.49,-297.24 917.49,-291.24 923.49,-291.24 923.49,-291.24 1030.49,-291.24 1030.49,-291.24 1036.49,-291.24 1042.49,-297.24 1042.49,-303.24 1042.49,-303.24 1042.49,-363.24 1042.49,-363.24 1042.49,-369.24 1036.49,-375.24 1030.49,-375.24"/>
<text text-anchor="middle" x="976.99" y="-360.04" font-family="Times,serif" font-size="14.00">Slave 3</text>
<text text-anchor="middle" x="976.99" y="-345.04" font-family="Times,serif" font-size="14.00">(Flash)</text>
<text text-anchor="middle" x="976.99" y="-330.04" font-family="Times,serif" font-size="14.00">@ 0x3000_0000</text>
<text text-anchor="middle" x="976.99" y="-299.04" font-family="Times,serif" font-size="14.00">AW, W, B, AR, R</text>
</g>
<!-- w_mux3&#45;&gt;slave3 -->
<g id="edge13" class="edge">
<title>w_mux3&#45;&gt;slave3</title>
<path fill="none" stroke="blue" stroke-width="2" d="M801.19,-514.68C807.11,-511.16 812.5,-506.75 816.49,-501.24 840.37,-468.29 803.44,-443.77 826.49,-410.24 831.61,-402.78 866.81,-384.5 901.76,-367.62"/>
<polygon fill="blue" stroke="blue" stroke-width="2" points="903.6,-370.62 911.11,-363.14 900.58,-364.31 903.6,-370.62"/>
<text text-anchor="middle" x="858.49" y="-424.24" font-family="Times,serif" font-size="10.00">AWVALID[3]</text>
<text text-anchor="middle" x="858.49" y="-413.24" font-family="Times,serif" font-size="10.00">AW signals</text>
</g>
<!-- r_demux0&#45;&gt;master0 -->
<g id="edge43" class="edge">
<title>r_demux0&#45;&gt;master0</title>
<path fill="none" stroke="green" stroke-dasharray="1,5" d="M711.6,-672.22C708.48,-669.59 705.7,-666.61 703.49,-663.24 673.31,-617.21 717.63,-460.91 685.49,-416.24 670.01,-394.73 648.36,-412.8 630.49,-393.24 612.57,-373.62 624.68,-359.84 612.49,-336.24 608.81,-329.1 604.53,-321.95 599.97,-314.98"/>
<polygon fill="green" stroke="green" points="602.57,-312.57 594.06,-306.26 596.78,-316.5 602.57,-312.57"/>
<text text-anchor="middle" x="657.99" y="-419.24" font-family="Times,serif" font-size="10.00">RDATA[0]</text>
</g>
<!-- r_demux0&#45;&gt;slave0 -->
<g id="edge35" class="edge">
<title>r_demux0&#45;&gt;slave0</title>
<path fill="none" stroke="green" stroke-width="2" d="M805.08,-672.18C809.2,-669.54 813.09,-666.57 816.49,-663.24 823.87,-656 819.11,-649.48 826.49,-642.24 848.78,-620.37 864.3,-630.25 890.49,-613.24 902.67,-605.33 914.87,-595.73 926.08,-586.07"/>
<polygon fill="green" stroke="green" stroke-width="2" points="928.48,-588.62 933.67,-579.38 923.85,-583.36 928.48,-588.62"/>
<text text-anchor="middle" x="858.49" y="-656.24" font-family="Times,serif" font-size="10.00">ARVALID[0]</text>
<text text-anchor="middle" x="858.49" y="-645.24" font-family="Times,serif" font-size="10.00">AR signals</text>
</g>
<!-- r_demux1&#45;&gt;master0 -->
<g id="edge44" class="edge">
<title>r_demux1&#45;&gt;master0</title>
<path fill="none" stroke="green" stroke-dasharray="1,5" d="M711.65,-564.19C708.52,-561.57 705.73,-558.6 703.49,-555.24 677.9,-516.8 712.72,-385.53 685.49,-348.24 669.86,-326.84 652.86,-339.43 630.49,-325.24 622.13,-319.93 613.8,-313.76 605.83,-307.28"/>
<polygon fill="green" stroke="green" points="607.91,-304.46 597.99,-300.73 603.42,-309.83 607.91,-304.46"/>
<text text-anchor="middle" x="657.99" y="-351.24" font-family="Times,serif" font-size="10.00">RDATA[1]</text>
</g>
<!-- r_demux1&#45;&gt;slave1 -->
<g id="edge36" class="edge">
<title>r_demux1&#45;&gt;slave1</title>
<path fill="none" stroke="green" stroke-width="2" d="M802.73,-564.09C807.56,-561.42 812.25,-558.47 816.49,-555.24 822.01,-551.03 821.49,-548.05 826.49,-543.24 856.4,-514.45 866.83,-510.53 900.49,-486.24 901.9,-485.22 903.33,-484.19 904.77,-483.16"/>
<polygon fill="green" stroke="green" stroke-width="2" points="907.01,-485.87 913.16,-477.24 902.97,-480.15 907.01,-485.87"/>
<text text-anchor="middle" x="858.49" y="-557.24" font-family="Times,serif" font-size="10.00">ARVALID[1]</text>
<text text-anchor="middle" x="858.49" y="-546.24" font-family="Times,serif" font-size="10.00">AR signals</text>
</g>
<!-- r_demux2&#45;&gt;master0 -->
<g id="edge45" class="edge">
<title>r_demux2&#45;&gt;master0</title>
<path fill="none" stroke="green" stroke-dasharray="1,5" d="M747.48,-348.22C730.8,-308.43 691.67,-216.23 685.49,-212.24 665.49,-199.32 641.13,-201.4 618.48,-209.05"/>
<polygon fill="green" stroke="green" points="617.02,-205.86 608.89,-212.64 619.48,-212.41 617.02,-205.86"/>
<text text-anchor="middle" x="657.99" y="-215.24" font-family="Times,serif" font-size="10.00">RDATA[2]</text>
</g>
<!-- r_demux2&#45;&gt;slave2 -->
<g id="edge37" class="edge">
<title>r_demux2&#45;&gt;slave2</title>
<path fill="none" stroke="green" stroke-width="2" d="M757.73,-348.01C760.35,-310.33 772.3,-224.33 826.49,-187.24 848.96,-171.86 876.87,-175.37 902.46,-185.3"/>
<polygon fill="green" stroke="green" stroke-width="2" points="901.2,-188.56 911.78,-189.22 903.92,-182.11 901.2,-188.56"/>
<text text-anchor="middle" x="858.49" y="-201.24" font-family="Times,serif" font-size="10.00">ARVALID[2]</text>
<text text-anchor="middle" x="858.49" y="-190.24" font-family="Times,serif" font-size="10.00">AR signals</text>
</g>
<!-- r_demux3&#45;&gt;master0 -->
<g id="edge46" class="edge">
<title>r_demux3&#45;&gt;master0</title>
<path fill="none" stroke="green" stroke-dasharray="1,5" d="M711.72,-456.14C708.58,-453.53 705.76,-450.58 703.49,-447.24 682.49,-416.38 710.44,-308 685.49,-280.24 676.55,-270.29 650.17,-263.37 622.83,-258.71"/>
<polygon fill="green" stroke="green" points="623.18,-255.22 612.75,-257.09 622.07,-262.13 623.18,-255.22"/>
<text text-anchor="middle" x="657.99" y="-283.24" font-family="Times,serif" font-size="10.00">RDATA[3]</text>
</g>
<!-- r_demux3&#45;&gt;slave3 -->
<g id="edge38" class="edge">
<title>r_demux3&#45;&gt;slave3</title>
<path fill="none" stroke="green" stroke-width="2" d="M808.13,-456.12C811.31,-453.54 814.16,-450.59 816.49,-447.24 834.91,-420.7 802.88,-324.28 826.49,-302.24 846.59,-283.47 874.96,-285.01 901.59,-293.48"/>
<polygon fill="green" stroke="green" stroke-width="2" points="900.71,-296.87 911.3,-296.88 903.03,-290.27 900.71,-296.87"/>
<text text-anchor="middle" x="858.49" y="-316.24" font-family="Times,serif" font-size="10.00">ARVALID[3]</text>
<text text-anchor="middle" x="858.49" y="-305.24" font-family="Times,serif" font-size="10.00">AR signals</text>
</g>
<!-- b_demux0 -->
<g id="node20" class="node">
<title>b_demux0</title>
<path fill="plum" stroke="black" d="M226.5,-546.24C226.5,-546.24 145.5,-546.24 145.5,-546.24 139.5,-546.24 133.5,-540.24 133.5,-534.24 133.5,-534.24 133.5,-522.24 133.5,-522.24 133.5,-516.24 139.5,-510.24 145.5,-510.24 145.5,-510.24 226.5,-510.24 226.5,-510.24 232.5,-510.24 238.5,-516.24 238.5,-522.24 238.5,-522.24 238.5,-534.24 238.5,-534.24 238.5,-540.24 232.5,-546.24 226.5,-546.24"/>
<text text-anchor="middle" x="186" y="-524.54" font-family="Times,serif" font-size="14.00">B Demux S0</text>
</g>
<!-- b_demux0&#45;&gt;master0 -->
<g id="edge22" class="edge">
<title>b_demux0&#45;&gt;master0</title>
<path fill="none" stroke="purple" stroke-dasharray="1,5" d="M238.88,-535.7C278.56,-538.23 331.56,-534.14 362.5,-501.24 392.61,-469.21 353.1,-338.62 380.5,-304.24 392.35,-289.36 432.63,-276.03 470.42,-266.33"/>
<polygon fill="purple" stroke="purple" points="471.61,-269.64 480.47,-263.82 469.92,-262.85 471.61,-269.64"/>
<text text-anchor="middle" x="421.5" y="-307.24" font-family="Times,serif" font-size="10.00">BRESP[0]</text>
</g>
<!-- b_demux1 -->
<g id="node21" class="node">
<title>b_demux1</title>
<path fill="plum" stroke="black" d="M226.5,-438.24C226.5,-438.24 145.5,-438.24 145.5,-438.24 139.5,-438.24 133.5,-432.24 133.5,-426.24 133.5,-426.24 133.5,-414.24 133.5,-414.24 133.5,-408.24 139.5,-402.24 145.5,-402.24 145.5,-402.24 226.5,-402.24 226.5,-402.24 232.5,-402.24 238.5,-408.24 238.5,-414.24 238.5,-414.24 238.5,-426.24 238.5,-426.24 238.5,-432.24 232.5,-438.24 226.5,-438.24"/>
<text text-anchor="middle" x="186" y="-416.54" font-family="Times,serif" font-size="14.00">B Demux S1</text>
</g>
<!-- b_demux1&#45;&gt;master0 -->
<g id="edge23" class="edge">
<title>b_demux1&#45;&gt;master0</title>
<path fill="none" stroke="purple" stroke-dasharray="1,5" d="M238.5,-427.71C278.25,-430.3 331.52,-426.31 362.5,-393.24 393.77,-359.87 346.78,-219.13 380.5,-188.24 408.89,-162.23 449.24,-176.77 482.93,-198.28"/>
<polygon fill="purple" stroke="purple" points="481.07,-201.25 491.34,-203.88 484.95,-195.42 481.07,-201.25"/>
<text text-anchor="middle" x="421.5" y="-191.24" font-family="Times,serif" font-size="10.00">BRESP[1]</text>
</g>
<!-- b_demux2 -->
<g id="node22" class="node">
<title>b_demux2</title>
<path fill="plum" stroke="black" d="M226.5,-384.24C226.5,-384.24 145.5,-384.24 145.5,-384.24 139.5,-384.24 133.5,-378.24 133.5,-372.24 133.5,-372.24 133.5,-360.24 133.5,-360.24 133.5,-354.24 139.5,-348.24 145.5,-348.24 145.5,-348.24 226.5,-348.24 226.5,-348.24 232.5,-348.24 238.5,-354.24 238.5,-360.24 238.5,-360.24 238.5,-372.24 238.5,-372.24 238.5,-378.24 232.5,-384.24 226.5,-384.24"/>
<text text-anchor="middle" x="186" y="-362.54" font-family="Times,serif" font-size="14.00">B Demux S2</text>
</g>
<!-- b_demux2&#45;&gt;master0 -->
<g id="edge24" class="edge">
<title>b_demux2&#45;&gt;master0</title>
<path fill="none" stroke="purple" stroke-dasharray="1,5" d="M194.95,-348.01C216.59,-301.02 281.64,-176.15 380.5,-129.24 413.43,-113.61 430.26,-112.25 462.5,-129.24 480.16,-138.54 494.78,-153.48 506.57,-169.73"/>
<polygon fill="purple" stroke="purple" points="503.93,-172.07 512.48,-178.33 509.7,-168.11 503.93,-172.07"/>
<text text-anchor="middle" x="421.5" y="-132.24" font-family="Times,serif" font-size="10.00">BRESP[2]</text>
</g>
<!-- b_demux3 -->
<g id="node23" class="node">
<title>b_demux3</title>
<path fill="plum" stroke="black" d="M226.5,-492.24C226.5,-492.24 145.5,-492.24 145.5,-492.24 139.5,-492.24 133.5,-486.24 133.5,-480.24 133.5,-480.24 133.5,-468.24 133.5,-468.24 133.5,-462.24 139.5,-456.24 145.5,-456.24 145.5,-456.24 226.5,-456.24 226.5,-456.24 232.5,-456.24 238.5,-462.24 238.5,-468.24 238.5,-468.24 238.5,-480.24 238.5,-480.24 238.5,-486.24 232.5,-492.24 226.5,-492.24"/>
<text text-anchor="middle" x="186" y="-470.54" font-family="Times,serif" font-size="14.00">B Demux S3</text>
</g>
<!-- b_demux3&#45;&gt;master0 -->
<g id="edge25" class="edge">
<title>b_demux3&#45;&gt;master0</title>
<path fill="none" stroke="purple" stroke-dasharray="1,5" d="M238.83,-481.65C278.48,-484.15 331.47,-480.05 362.5,-447.24 390.88,-417.23 350.94,-291.09 380.5,-262.24 403.68,-239.61 438.47,-234.59 470.13,-236.06"/>
<polygon fill="purple" stroke="purple" points="470.07,-239.56 480.28,-236.75 470.54,-232.58 470.07,-239.56"/>
<text text-anchor="middle" x="421.5" y="-265.24" font-family="Times,serif" font-size="10.00">BRESP[3]</text>
</g>
<!-- slave0&#45;&gt;r_demux0 -->
<g id="edge39" class="edge">
<title>slave0&#45;&gt;r_demux0</title>
<path fill="none" stroke="green" stroke-width="2" d="M958.19,-579.48C944.01,-607.88 921.4,-643.75 890.49,-664.24 869.48,-678.16 842.78,-685 818.78,-688.23"/>
<polygon fill="green" stroke="green" stroke-width="2" points="818.22,-684.77 808.69,-689.41 819.03,-691.72 818.22,-684.77"/>
<text text-anchor="middle" x="858.49" y="-700.24" font-family="Times,serif" font-size="10.00">RVALID[0]</text>
<text text-anchor="middle" x="858.49" y="-689.24" font-family="Times,serif" font-size="10.00">RDATA</text>
</g>
<!-- slave0&#45;&gt;b_demux0 -->
<g id="edge18" class="edge">
<title>slave0&#45;&gt;b_demux0</title>
<path fill="none" stroke="purple" stroke-width="2" d="M911.37,-500.3C904.36,-496.49 897.3,-492.74 890.49,-489.24 862.55,-474.87 844.43,-485.03 826.49,-459.24 811.21,-437.27 826.84,-363.91 816.49,-339.24 769.94,-228.28 731.06,-181.72 612.49,-161.24 554.68,-151.25 526.74,-125.14 480.5,-161.24 454.5,-181.54 484.3,-208.48 462.5,-233.24 436.65,-262.6 403.78,-233.8 380.5,-265.24 349.2,-307.51 398.24,-462.65 362.5,-501.24 334.23,-531.76 287,-537.6 248.66,-536.31"/>
<polygon fill="purple" stroke="purple" stroke-width="2" points="248.77,-532.81 238.61,-535.8 248.42,-539.8 248.77,-532.81"/>
<text text-anchor="middle" x="657.99" y="-183.24" font-family="Times,serif" font-size="10.00">BVALID[0]</text>
</g>
<!-- slave1&#45;&gt;r_demux1 -->
<g id="edge40" class="edge">
<title>slave1&#45;&gt;r_demux1</title>
<path fill="none" stroke="green" stroke-width="2" d="M911.22,-432.85C881.22,-435.35 847.62,-443.94 826.49,-467.24 800.05,-496.4 839.65,-523.41 816.49,-555.24 816.03,-555.87 815.54,-556.5 815.05,-557.1"/>
<polygon fill="green" stroke="green" stroke-width="2" points="812.45,-554.75 807.7,-564.22 817.32,-559.78 812.45,-554.75"/>
<text text-anchor="middle" x="858.49" y="-481.24" font-family="Times,serif" font-size="10.00">RVALID[1]</text>
<text text-anchor="middle" x="858.49" y="-470.24" font-family="Times,serif" font-size="10.00">RDATA</text>
</g>
<!-- slave1&#45;&gt;b_demux1 -->
<g id="edge19" class="edge">
<title>slave1&#45;&gt;b_demux1</title>
<path fill="none" stroke="purple" stroke-width="2" d="M911.41,-397.57C907.31,-393.46 903.59,-389.02 900.49,-384.24 886.5,-362.66 906.38,-347.46 890.49,-327.24 871.31,-302.82 844.6,-324.45 826.49,-299.24 811.65,-278.58 828.03,-207.9 816.49,-185.24 781.46,-116.46 757.78,-98.29 685.49,-71.24 621.44,-47.27 425.03,-60.34 380.5,-112.24 339.76,-159.73 404.74,-347.07 362.5,-393.24 334.42,-423.93 287.18,-429.76 248.78,-428.42"/>
<polygon fill="purple" stroke="purple" stroke-width="2" points="248.88,-424.92 238.72,-427.9 248.52,-431.91 248.88,-424.92"/>
<text text-anchor="middle" x="657.99" y="-74.24" font-family="Times,serif" font-size="10.00">BVALID[1]</text>
</g>
<!-- slave2&#45;&gt;r_demux2 -->
<g id="edge41" class="edge">
<title>slave2&#45;&gt;r_demux2</title>
<path fill="none" stroke="green" stroke-width="2" d="M943.47,-189.09C929.09,-173.82 910.81,-158.34 890.49,-150.24 864.07,-139.71 849.48,-133.48 826.49,-150.24 766.68,-193.82 757.22,-289.76 756.43,-337.74"/>
<polygon fill="green" stroke="green" stroke-width="2" points="752.93,-338.02 756.38,-348.03 759.93,-338.05 752.93,-338.02"/>
<text text-anchor="middle" x="858.49" y="-164.24" font-family="Times,serif" font-size="10.00">RVALID[2]</text>
<text text-anchor="middle" x="858.49" y="-153.24" font-family="Times,serif" font-size="10.00">RDATA</text>
</g>
<!-- slave2&#45;&gt;b_demux2 -->
<g id="edge20" class="edge">
<title>slave2&#45;&gt;b_demux2</title>
<path fill="none" stroke="purple" stroke-width="2" d="M946.1,-189.17C917.37,-152.28 870.45,-100.54 816.49,-74.24 642.3,10.69 544.04,34.72 380.5,-69.24 277.15,-134.93 217.56,-277.94 196.14,-338.38"/>
<polygon fill="purple" stroke="purple" stroke-width="2" points="192.77,-337.42 192.8,-348.01 199.38,-339.71 192.77,-337.42"/>
<text text-anchor="middle" x="657.99" y="-20.24" font-family="Times,serif" font-size="10.00">BVALID[2]</text>
</g>
<!-- slave3&#45;&gt;r_demux3 -->
<g id="edge42" class="edge">
<title>slave3&#45;&gt;r_demux3</title>
<path fill="none" stroke="green" stroke-width="2" d="M911.32,-331.4C876.58,-331.9 838.46,-335.34 826.49,-347.24 810.65,-362.98 829.51,-429.09 816.49,-447.24 816.12,-447.76 815.73,-448.26 815.34,-448.76"/>
<polygon fill="green" stroke="green" stroke-width="2" points="812.64,-446.51 808.02,-456.04 817.58,-451.47 812.64,-446.51"/>
<text text-anchor="middle" x="858.49" y="-361.24" font-family="Times,serif" font-size="10.00">RVALID[3]</text>
<text text-anchor="middle" x="858.49" y="-350.24" font-family="Times,serif" font-size="10.00">RDATA</text>
</g>
<!-- slave3&#45;&gt;b_demux3 -->
<g id="edge21" class="edge">
<title>slave3&#45;&gt;b_demux3</title>
<path fill="none" stroke="purple" stroke-width="2" d="M911.3,-296.19C907.16,-291.92 903.47,-287.28 900.49,-282.24 888,-261.11 907.57,-189.86 890.49,-172.24 844.11,-124.4 556.98,-90.97 480.5,-138.24 465.28,-147.64 474.21,-160.71 462.5,-174.24 433.45,-207.8 402.68,-192.79 380.5,-231.24 356.43,-272.96 395.35,-412.02 362.5,-447.24 334.13,-477.66 286.9,-483.51 248.58,-482.24"/>
<polygon fill="purple" stroke="purple" stroke-width="2" points="248.71,-478.74 238.54,-481.74 248.36,-485.73 248.71,-478.74"/>
<text text-anchor="middle" x="657.99" y="-121.24" font-family="Times,serif" font-size="10.00">BVALID[3]</text>
</g>
<!-- leg_aw -->
<g id="node28" class="node">
<title>leg_aw</title>
<polygon fill="none" stroke="blue" stroke-width="2" points="271,-1153.24 101,-1153.24 101,-1117.24 271,-1117.24 271,-1153.24"/>
<text text-anchor="middle" x="186" y="-1131.54" font-family="Times,serif" font-size="14.00">Write Path (AW, W, B)</text>
</g>
<!-- leg_ar -->
<g id="node29" class="node">
<title>leg_ar</title>
<polygon fill="none" stroke="green" stroke-width="2" points="258,-1099.24 114,-1099.24 114,-1063.24 258,-1063.24 258,-1099.24"/>
<text text-anchor="middle" x="186" y="-1077.54" font-family="Times,serif" font-size="14.00">Read Path (AR, R)</text>
</g>
<!-- leg_resp -->
<g id="node30" class="node">
<title>leg_resp</title>
<polygon fill="none" stroke="purple" stroke-width="2" points="259,-1045.24 113,-1045.24 113,-1009.24 259,-1009.24 259,-1045.24"/>
<text text-anchor="middle" x="186" y="-1023.54" font-family="Times,serif" font-size="14.00">Response Routing</text>
</g>
<!-- leg_note -->
<g id="node31" class="node">
<title>leg_note</title>
<polygon fill="lightyellow" stroke="black" points="311.5,-991.24 54.5,-991.24 54.5,-953.24 317.5,-953.24 317.5,-985.24 311.5,-991.24"/>
<polyline fill="none" stroke="black" points="311.5,-991.24 311.5,-985.24 "/>
<polyline fill="none" stroke="black" points="317.5,-985.24 311.5,-985.24 "/>
<text text-anchor="middle" x="186" y="-976.04" font-family="Times,serif" font-size="14.00">Note: Arbiters are pass&#45;through</text>
<text text-anchor="middle" x="186" y="-961.04" font-family="Times,serif" font-size="14.00">with single master (no contention)</text>
</g>
<!-- config -->
<g id="node32" class="node">
<title>config</title>
<polygon fill="lightgray" stroke="black" points="356.5,-1443.74 9.5,-1443.74 9.5,-1192.74 362.5,-1192.74 362.5,-1437.74 356.5,-1443.74"/>
<polyline fill="none" stroke="black" points="356.5,-1443.74 356.5,-1437.74 "/>
<polyline fill="none" stroke="black" points="362.5,-1437.74 356.5,-1437.74 "/>
<text text-anchor="middle" x="186" y="-1428.54" font-family="Times,serif" font-size="14.00">Configuration</text>
<text text-anchor="middle" x="186" y="-1397.54" font-family="Times,serif" font-size="14.00">NUM_MASTERS: 1</text>
<text text-anchor="middle" x="186" y="-1382.54" font-family="Times,serif" font-size="14.00">NUM_SLAVES: 4</text>
<text text-anchor="middle" x="186" y="-1367.54" font-family="Times,serif" font-size="14.00">DATA_WIDTH: 32</text>
<text text-anchor="middle" x="186" y="-1352.54" font-family="Times,serif" font-size="14.00">ADDR_WIDTH: 32</text>
<text text-anchor="middle" x="186" y="-1337.54" font-family="Times,serif" font-size="14.00">ID_WIDTH: 4</text>
<text text-anchor="middle" x="186" y="-1306.54" font-family="Times,serif" font-size="14.00">Address Map (256MB each):</text>
<text text-anchor="middle" x="186" y="-1291.54" font-family="Times,serif" font-size="14.00">Slave 0 (DDR): &#160;&#160;0x0000_0000 &#45; 0x0FFF_FFFF</text>
<text text-anchor="middle" x="186" y="-1276.54" font-family="Times,serif" font-size="14.00">Slave 1 (SRAM): &#160;0x1000_0000 &#45; 0x1FFF_FFFF</text>
<text text-anchor="middle" x="186" y="-1261.54" font-family="Times,serif" font-size="14.00">Slave 2 (Periph):0x2000_0000 &#45; 0x2FFF_FFFF</text>
<text text-anchor="middle" x="186" y="-1246.54" font-family="Times,serif" font-size="14.00">Slave 3 (Flash): 0x3000_0000 &#45; 0x3FFF_FFFF</text>
<text text-anchor="middle" x="186" y="-1215.54" font-family="Times,serif" font-size="14.00">Use Case: Single&#45;core CPU</text>
<text text-anchor="middle" x="186" y="-1200.54" font-family="Times,serif" font-size="14.00">accessing memory&#45;mapped resources</text>
</g>
</g>
</svg>
