<?xml version="1.0" encoding="UTF-8" standalone="no"?>
<!DOCTYPE svg PUBLIC "-//W3C//DTD SVG 1.1//EN"
 "http://www.w3.org/Graphics/SVG/1.1/DTD/svg11.dtd">
<!-- Generated by graphviz version 2.43.0 (0)
 -->
<!-- Title: bridge_2x2 Pages: 1 -->
<svg width="1140pt" height="1204pt"
 viewBox="0.00 0.00 1140.00 1203.68" xmlns="http://www.w3.org/2000/svg" xmlns:xlink="http://www.w3.org/1999/xlink">
<g id="graph0" class="graph" transform="scale(1 1) rotate(0) translate(4 1199.68)">
<title>bridge_2x2</title>
<polygon fill="white" stroke="transparent" points="-4,4 -4,-1199.68 1136,-1199.68 1136,4 -4,4"/>
<text text-anchor="middle" x="566" y="-1180.48" font-family="Times,serif" font-size="14.00">Bridge AXI4 Crossbar: 2 Masters × 2 Slaves</text>
<text text-anchor="middle" x="566" y="-1165.48" font-family="Times,serif" font-size="14.00">Module: bridge_axi4_flat_2x2</text>
<g id="clust1" class="cluster">
<title>cluster_masters</title>
<polygon fill="lightgreen" stroke="black" points="95.5,-341.18 95.5,-597.18 260.5,-597.18 260.5,-341.18 95.5,-341.18"/>
<text text-anchor="middle" x="178" y="-581.98" font-family="Times,serif" font-size="14.00">External Masters (2)</text>
</g>
<g id="clust2" class="cluster">
<title>cluster_crossbar</title>
<polygon fill="lightyellow" stroke="black" points="496,-86.18 496,-834.18 1094.5,-834.18 1094.5,-86.18 496,-86.18"/>
<text text-anchor="middle" x="795.25" y="-818.98" font-family="Times,serif" font-size="14.00">Bridge Crossbar Core</text>
</g>
<g id="clust3" class="cluster">
<title>cluster_slave0_arb</title>
<polygon fill="wheat" stroke="black" points="954.5,-256.18 954.5,-452.18 1086.5,-452.18 1086.5,-256.18 954.5,-256.18"/>
<text text-anchor="middle" x="1020.5" y="-436.98" font-family="Times,serif" font-size="14.00">Slave 0 Arbiters</text>
</g>
<g id="clust4" class="cluster">
<title>cluster_slave1_arb</title>
<polygon fill="wheat" stroke="black" points="954.5,-607.18 954.5,-803.18 1086.5,-803.18 1086.5,-607.18 954.5,-607.18"/>
<text text-anchor="middle" x="1020.5" y="-787.98" font-family="Times,serif" font-size="14.00">Slave 1 Arbiters</text>
</g>
<g id="clust5" class="cluster">
<title>cluster_slaves</title>
<polygon fill="lightcoral" stroke="black" points="917,-842.18 917,-1098.18 1124,-1098.18 1124,-842.18 917,-842.18"/>
<text text-anchor="middle" x="1020.5" y="-1082.98" font-family="Times,serif" font-size="14.00">External Slaves (2)</text>
</g>
<g id="clust6" class="cluster">
<title>cluster_legend</title>
<polygon fill="white" stroke="black" points="58,-737.18 58,-974.18 298,-974.18 298,-737.18 58,-737.18"/>
<text text-anchor="middle" x="178" y="-958.98" font-family="Times,serif" font-size="14.00">Legend</text>
</g>
<!-- master0 -->
<g id="node1" class="node">
<title>master0</title>
<path fill="palegreen" stroke="black" d="M206.5,-448.68C206.5,-448.68 149.5,-448.68 149.5,-448.68 143.5,-448.68 137.5,-442.68 137.5,-436.68 137.5,-436.68 137.5,-361.68 137.5,-361.68 137.5,-355.68 143.5,-349.68 149.5,-349.68 149.5,-349.68 206.5,-349.68 206.5,-349.68 212.5,-349.68 218.5,-355.68 218.5,-361.68 218.5,-361.68 218.5,-436.68 218.5,-436.68 218.5,-442.68 212.5,-448.68 206.5,-448.68"/>
<text text-anchor="middle" x="178" y="-433.48" font-family="Times,serif" font-size="14.00">Master 0</text>
<text text-anchor="middle" x="178" y="-418.48" font-family="Times,serif" font-size="14.00">(CPU)</text>
<text text-anchor="middle" x="178" y="-387.48" font-family="Times,serif" font-size="14.00">AW, W, B</text>
<text text-anchor="middle" x="178" y="-372.48" font-family="Times,serif" font-size="14.00">AR, R</text>
<text text-anchor="middle" x="178" y="-357.48" font-family="Times,serif" font-size="14.00">channels</text>
</g>
<!-- aw_decode -->
<g id="node3" class="node">
<title>aw_decode</title>
<path fill="lightcyan" stroke="black" d="M770,-280.18C770,-280.18 516,-280.18 516,-280.18 510,-280.18 504,-274.18 504,-268.18 504,-268.18 504,-208.18 504,-208.18 504,-202.18 510,-196.18 516,-196.18 516,-196.18 770,-196.18 770,-196.18 776,-196.18 782,-202.18 782,-208.18 782,-208.18 782,-268.18 782,-268.18 782,-274.18 776,-280.18 770,-280.18"/>
<text text-anchor="middle" x="643" y="-264.98" font-family="Times,serif" font-size="14.00">AW Address</text>
<text text-anchor="middle" x="643" y="-249.98" font-family="Times,serif" font-size="14.00">Decode</text>
<text text-anchor="middle" x="643" y="-218.98" font-family="Times,serif" font-size="14.00">0x00000000&#45;0x0FFFFFFF → Slave 0</text>
<text text-anchor="middle" x="643" y="-203.98" font-family="Times,serif" font-size="14.00">0x10000000&#45;0x1FFFFFFF → Slave 1</text>
</g>
<!-- master0&#45;&gt;aw_decode -->
<g id="edge1" class="edge">
<title>master0&#45;&gt;aw_decode</title>
<path fill="none" stroke="blue" stroke-width="2" d="M218.77,-358.05C255.42,-323.15 313.2,-275.33 374,-253.18 411.54,-239.51 453.99,-233.31 493.86,-231.12"/>
<polygon fill="blue" stroke="blue" stroke-width="2" points="494.11,-234.61 503.94,-230.64 493.78,-227.62 494.11,-234.61"/>
<text text-anchor="middle" x="430" y="-256.18" font-family="Times,serif" font-size="10.00">AWADDR[0]</text>
</g>
<!-- ar_decode -->
<g id="node4" class="node">
<title>ar_decode</title>
<path fill="lightcyan" stroke="black" d="M770,-178.18C770,-178.18 516,-178.18 516,-178.18 510,-178.18 504,-172.18 504,-166.18 504,-166.18 504,-106.18 504,-106.18 504,-100.18 510,-94.18 516,-94.18 516,-94.18 770,-94.18 770,-94.18 776,-94.18 782,-100.18 782,-106.18 782,-106.18 782,-166.18 782,-166.18 782,-172.18 776,-178.18 770,-178.18"/>
<text text-anchor="middle" x="643" y="-162.98" font-family="Times,serif" font-size="14.00">AR Address</text>
<text text-anchor="middle" x="643" y="-147.98" font-family="Times,serif" font-size="14.00">Decode</text>
<text text-anchor="middle" x="643" y="-116.98" font-family="Times,serif" font-size="14.00">0x00000000&#45;0x0FFFFFFF → Slave 0</text>
<text text-anchor="middle" x="643" y="-101.98" font-family="Times,serif" font-size="14.00">0x10000000&#45;0x1FFFFFFF → Slave 1</text>
</g>
<!-- master0&#45;&gt;ar_decode -->
<g id="edge19" class="edge">
<title>master0&#45;&gt;ar_decode</title>
<path fill="none" stroke="green" stroke-width="2" d="M206.09,-349.46C238.4,-295.47 297.76,-211.42 374,-170.18 410.21,-150.6 453.08,-140.45 493.81,-135.56"/>
<polygon fill="green" stroke="green" stroke-width="2" points="494.27,-139.03 503.83,-134.46 493.51,-132.08 494.27,-139.03"/>
<text text-anchor="middle" x="430" y="-173.18" font-family="Times,serif" font-size="10.00">ARADDR[0]</text>
</g>
<!-- w_mux0 -->
<g id="node9" class="node">
<title>w_mux0</title>
<path fill="lightsteelblue" stroke="black" d="M702.5,-628.68C702.5,-628.68 583.5,-628.68 583.5,-628.68 577.5,-628.68 571.5,-622.68 571.5,-616.68 571.5,-616.68 571.5,-571.68 571.5,-571.68 571.5,-565.68 577.5,-559.68 583.5,-559.68 583.5,-559.68 702.5,-559.68 702.5,-559.68 708.5,-559.68 714.5,-565.68 714.5,-571.68 714.5,-571.68 714.5,-616.68 714.5,-616.68 714.5,-622.68 708.5,-628.68 702.5,-628.68"/>
<text text-anchor="middle" x="643" y="-613.48" font-family="Times,serif" font-size="14.00">W Mux</text>
<text text-anchor="middle" x="643" y="-598.48" font-family="Times,serif" font-size="14.00">Slave 0</text>
<text text-anchor="middle" x="643" y="-567.48" font-family="Times,serif" font-size="14.00">Follows AW grant</text>
</g>
<!-- master0&#45;&gt;w_mux0 -->
<g id="edge7" class="edge">
<title>master0&#45;&gt;w_mux0</title>
<path fill="none" stroke="blue" stroke-dasharray="1,5" d="M218.57,-401.71C258.79,-406.42 320.15,-419.86 356,-458.18 377.65,-481.33 351.19,-505.18 374,-527.18 410.7,-562.6 436.47,-540 486,-552.18 510.66,-558.25 537.38,-565.28 561.63,-571.83"/>
<polygon fill="blue" stroke="blue" points="560.93,-575.27 571.5,-574.51 562.76,-568.51 560.93,-575.27"/>
<text text-anchor="middle" x="430" y="-555.18" font-family="Times,serif" font-size="10.00">WDATA[0], WSTRB[0]</text>
</g>
<!-- w_mux1 -->
<g id="node10" class="node">
<title>w_mux1</title>
<path fill="lightsteelblue" stroke="black" d="M702.5,-367.68C702.5,-367.68 583.5,-367.68 583.5,-367.68 577.5,-367.68 571.5,-361.68 571.5,-355.68 571.5,-355.68 571.5,-310.68 571.5,-310.68 571.5,-304.68 577.5,-298.68 583.5,-298.68 583.5,-298.68 702.5,-298.68 702.5,-298.68 708.5,-298.68 714.5,-304.68 714.5,-310.68 714.5,-310.68 714.5,-355.68 714.5,-355.68 714.5,-361.68 708.5,-367.68 702.5,-367.68"/>
<text text-anchor="middle" x="643" y="-352.48" font-family="Times,serif" font-size="14.00">W Mux</text>
<text text-anchor="middle" x="643" y="-337.48" font-family="Times,serif" font-size="14.00">Slave 1</text>
<text text-anchor="middle" x="643" y="-306.48" font-family="Times,serif" font-size="14.00">Follows AW grant</text>
</g>
<!-- master0&#45;&gt;w_mux1 -->
<g id="edge8" class="edge">
<title>master0&#45;&gt;w_mux1</title>
<path fill="none" stroke="blue" stroke-dasharray="1,5" d="M218.86,-382.7C257.69,-367.57 318.78,-346.17 374,-337.18 436.24,-327.05 507.68,-326.53 561.15,-328.27"/>
<polygon fill="blue" stroke="blue" points="561.13,-331.78 571.25,-328.64 561.39,-324.78 561.13,-331.78"/>
<text text-anchor="middle" x="430" y="-340.18" font-family="Times,serif" font-size="10.00">WDATA[0], WSTRB[0]</text>
</g>
<!-- master1 -->
<g id="node2" class="node">
<title>master1</title>
<path fill="palegreen" stroke="black" d="M206.5,-565.68C206.5,-565.68 149.5,-565.68 149.5,-565.68 143.5,-565.68 137.5,-559.68 137.5,-553.68 137.5,-553.68 137.5,-478.68 137.5,-478.68 137.5,-472.68 143.5,-466.68 149.5,-466.68 149.5,-466.68 206.5,-466.68 206.5,-466.68 212.5,-466.68 218.5,-472.68 218.5,-478.68 218.5,-478.68 218.5,-553.68 218.5,-553.68 218.5,-559.68 212.5,-565.68 206.5,-565.68"/>
<text text-anchor="middle" x="178" y="-550.48" font-family="Times,serif" font-size="14.00">Master 1</text>
<text text-anchor="middle" x="178" y="-535.48" font-family="Times,serif" font-size="14.00">(DMA)</text>
<text text-anchor="middle" x="178" y="-504.48" font-family="Times,serif" font-size="14.00">AW, W, B</text>
<text text-anchor="middle" x="178" y="-489.48" font-family="Times,serif" font-size="14.00">AR, R</text>
<text text-anchor="middle" x="178" y="-474.48" font-family="Times,serif" font-size="14.00">channels</text>
</g>
<!-- master1&#45;&gt;aw_decode -->
<g id="edge2" class="edge">
<title>master1&#45;&gt;aw_decode</title>
<path fill="none" stroke="blue" stroke-width="2" d="M218.85,-514.9C259.91,-511.27 322.51,-498.89 356,-458.18 397.54,-407.69 331.28,-361.68 374,-312.18 391.03,-292.45 441.41,-276.19 493.96,-263.99"/>
<polygon fill="blue" stroke="blue" stroke-width="2" points="494.82,-267.39 503.79,-261.76 493.27,-260.56 494.82,-267.39"/>
<text text-anchor="middle" x="430" y="-315.18" font-family="Times,serif" font-size="10.00">AWADDR[1]</text>
</g>
<!-- master1&#45;&gt;ar_decode -->
<g id="edge20" class="edge">
<title>master1&#45;&gt;ar_decode</title>
<path fill="none" stroke="green" stroke-width="2" d="M218.86,-515.24C260.25,-511.93 323.41,-499.82 356,-458.18 389.24,-415.72 340.2,-258.2 374,-216.18 375.13,-214.78 432.55,-197.56 493.95,-179.46"/>
<polygon fill="green" stroke="green" stroke-width="2" points="495.23,-182.73 503.83,-176.54 493.25,-176.01 495.23,-182.73"/>
<text text-anchor="middle" x="430" y="-219.18" font-family="Times,serif" font-size="10.00">ARADDR[1]</text>
</g>
<!-- master1&#45;&gt;w_mux0 -->
<g id="edge9" class="edge">
<title>master1&#45;&gt;w_mux0</title>
<path fill="none" stroke="blue" stroke-dasharray="1,5" d="M218.56,-528.47C257.67,-540.15 319.41,-557.36 374,-567.18 436.37,-578.41 507.81,-585.32 561.23,-589.33"/>
<polygon fill="blue" stroke="blue" points="561.1,-592.83 571.33,-590.07 561.62,-585.85 561.1,-592.83"/>
<text text-anchor="middle" x="430" y="-585.18" font-family="Times,serif" font-size="10.00">WDATA[1], WSTRB[1]</text>
</g>
<!-- master1&#45;&gt;w_mux1 -->
<g id="edge10" class="edge">
<title>master1&#45;&gt;w_mux1</title>
<path fill="none" stroke="blue" stroke-dasharray="1,5" d="M218.58,-513.93C258.81,-509.48 320.18,-496.41 356,-458.18 377.96,-434.74 350.73,-410.33 374,-388.18 400.56,-362.9 492.58,-348.11 561.43,-340.35"/>
<polygon fill="blue" stroke="blue" points="561.85,-343.82 571.41,-339.26 561.08,-336.87 561.85,-343.82"/>
<text text-anchor="middle" x="430" y="-391.18" font-family="Times,serif" font-size="10.00">WDATA[1], WSTRB[1]</text>
</g>
<!-- aw_arb0 -->
<g id="node5" class="node">
<title>aw_arb0</title>
<path fill="khaki" stroke="black" d="M1060.5,-420.68C1060.5,-420.68 980.5,-420.68 980.5,-420.68 974.5,-420.68 968.5,-414.68 968.5,-408.68 968.5,-408.68 968.5,-363.68 968.5,-363.68 968.5,-357.68 974.5,-351.68 980.5,-351.68 980.5,-351.68 1060.5,-351.68 1060.5,-351.68 1066.5,-351.68 1072.5,-357.68 1072.5,-363.68 1072.5,-363.68 1072.5,-408.68 1072.5,-408.68 1072.5,-414.68 1066.5,-420.68 1060.5,-420.68"/>
<text text-anchor="middle" x="1020.5" y="-405.48" font-family="Times,serif" font-size="14.00">AW Arbiter</text>
<text text-anchor="middle" x="1020.5" y="-374.48" font-family="Times,serif" font-size="14.00">Round&#45;robin</text>
<text text-anchor="middle" x="1020.5" y="-359.48" font-family="Times,serif" font-size="14.00">Grant lock</text>
</g>
<!-- aw_decode&#45;&gt;aw_arb0 -->
<g id="edge3" class="edge">
<title>aw_decode&#45;&gt;aw_arb0</title>
<path fill="none" stroke="blue" d="M756.3,-280.25C765.01,-283.58 773.65,-286.92 782,-290.18 842.39,-313.76 911.02,-341.62 958.92,-361.23"/>
<polygon fill="blue" stroke="blue" points="957.63,-364.49 968.22,-365.04 960.29,-358.01 957.63,-364.49"/>
<text text-anchor="middle" x="853.5" y="-353.18" font-family="Times,serif" font-size="10.00">AW requests</text>
<text text-anchor="middle" x="853.5" y="-342.18" font-family="Times,serif" font-size="10.00">for Slave 0</text>
</g>
<!-- aw_arb1 -->
<g id="node7" class="node">
<title>aw_arb1</title>
<path fill="khaki" stroke="black" d="M1060.5,-771.68C1060.5,-771.68 980.5,-771.68 980.5,-771.68 974.5,-771.68 968.5,-765.68 968.5,-759.68 968.5,-759.68 968.5,-714.68 968.5,-714.68 968.5,-708.68 974.5,-702.68 980.5,-702.68 980.5,-702.68 1060.5,-702.68 1060.5,-702.68 1066.5,-702.68 1072.5,-708.68 1072.5,-714.68 1072.5,-714.68 1072.5,-759.68 1072.5,-759.68 1072.5,-765.68 1066.5,-771.68 1060.5,-771.68"/>
<text text-anchor="middle" x="1020.5" y="-756.48" font-family="Times,serif" font-size="14.00">AW Arbiter</text>
<text text-anchor="middle" x="1020.5" y="-725.48" font-family="Times,serif" font-size="14.00">Round&#45;robin</text>
<text text-anchor="middle" x="1020.5" y="-710.48" font-family="Times,serif" font-size="14.00">Grant lock</text>
</g>
<!-- aw_decode&#45;&gt;aw_arb1 -->
<g id="edge4" class="edge">
<title>aw_decode&#45;&gt;aw_arb1</title>
<path fill="none" stroke="blue" d="M773.43,-280.42C776.52,-283.45 779.39,-286.7 782,-290.18 813.8,-332.63 782.08,-478.26 800,-528.18 803.81,-538.8 908.21,-687.12 917,-694.18 929.34,-704.1 944.29,-712.08 958.92,-718.34"/>
<polygon fill="blue" stroke="blue" points="957.88,-721.69 968.46,-722.21 960.51,-715.21 957.88,-721.69"/>
<text text-anchor="middle" x="853.5" y="-694.18" font-family="Times,serif" font-size="10.00">AW requests</text>
<text text-anchor="middle" x="853.5" y="-683.18" font-family="Times,serif" font-size="10.00">for Slave 1</text>
</g>
<!-- ar_arb0 -->
<g id="node6" class="node">
<title>ar_arb0</title>
<path fill="khaki" stroke="black" d="M1060.5,-333.68C1060.5,-333.68 980.5,-333.68 980.5,-333.68 974.5,-333.68 968.5,-327.68 968.5,-321.68 968.5,-321.68 968.5,-276.68 968.5,-276.68 968.5,-270.68 974.5,-264.68 980.5,-264.68 980.5,-264.68 1060.5,-264.68 1060.5,-264.68 1066.5,-264.68 1072.5,-270.68 1072.5,-276.68 1072.5,-276.68 1072.5,-321.68 1072.5,-321.68 1072.5,-327.68 1066.5,-333.68 1060.5,-333.68"/>
<text text-anchor="middle" x="1020.5" y="-318.48" font-family="Times,serif" font-size="14.00">AR Arbiter</text>
<text text-anchor="middle" x="1020.5" y="-287.48" font-family="Times,serif" font-size="14.00">Round&#45;robin</text>
<text text-anchor="middle" x="1020.5" y="-272.48" font-family="Times,serif" font-size="14.00">Grant lock</text>
</g>
<!-- ar_decode&#45;&gt;ar_arb0 -->
<g id="edge21" class="edge">
<title>ar_decode&#45;&gt;ar_arb0</title>
<path fill="none" stroke="green" d="M760.24,-178.31C767.63,-181.25 774.93,-184.22 782,-187.18 843.08,-212.82 911.34,-245.44 958.95,-268.85"/>
<polygon fill="green" stroke="green" points="957.67,-272.12 968.19,-273.41 960.77,-265.85 957.67,-272.12"/>
<text text-anchor="middle" x="853.5" y="-257.18" font-family="Times,serif" font-size="10.00">AR requests</text>
<text text-anchor="middle" x="853.5" y="-246.18" font-family="Times,serif" font-size="10.00">for Slave 0</text>
</g>
<!-- ar_arb1 -->
<g id="node8" class="node">
<title>ar_arb1</title>
<path fill="khaki" stroke="black" d="M1060.5,-684.68C1060.5,-684.68 980.5,-684.68 980.5,-684.68 974.5,-684.68 968.5,-678.68 968.5,-672.68 968.5,-672.68 968.5,-627.68 968.5,-627.68 968.5,-621.68 974.5,-615.68 980.5,-615.68 980.5,-615.68 1060.5,-615.68 1060.5,-615.68 1066.5,-615.68 1072.5,-621.68 1072.5,-627.68 1072.5,-627.68 1072.5,-672.68 1072.5,-672.68 1072.5,-678.68 1066.5,-684.68 1060.5,-684.68"/>
<text text-anchor="middle" x="1020.5" y="-669.48" font-family="Times,serif" font-size="14.00">AR Arbiter</text>
<text text-anchor="middle" x="1020.5" y="-638.48" font-family="Times,serif" font-size="14.00">Round&#45;robin</text>
<text text-anchor="middle" x="1020.5" y="-623.48" font-family="Times,serif" font-size="14.00">Grant lock</text>
</g>
<!-- ar_decode&#45;&gt;ar_arb1 -->
<g id="edge22" class="edge">
<title>ar_decode&#45;&gt;ar_arb1</title>
<path fill="none" stroke="green" d="M774.13,-178.36C776.94,-181.11 779.58,-184.05 782,-187.18 806.34,-218.62 785.18,-328.29 800,-365.18 828.79,-436.88 859.84,-440.98 907,-502.18 934.19,-537.47 964.76,-577.73 987.17,-607.34"/>
<polygon fill="green" stroke="green" points="984.44,-609.53 993.26,-615.4 990.02,-605.31 984.44,-609.53"/>
<text text-anchor="middle" x="853.5" y="-516.18" font-family="Times,serif" font-size="10.00">AR requests</text>
<text text-anchor="middle" x="853.5" y="-505.18" font-family="Times,serif" font-size="10.00">for Slave 1</text>
</g>
<!-- slave0 -->
<g id="node15" class="node">
<title>slave0</title>
<path fill="lightpink" stroke="black" d="M1098,-1066.68C1098,-1066.68 943,-1066.68 943,-1066.68 937,-1066.68 931,-1060.68 931,-1054.68 931,-1054.68 931,-979.68 931,-979.68 931,-973.68 937,-967.68 943,-967.68 943,-967.68 1098,-967.68 1098,-967.68 1104,-967.68 1110,-973.68 1110,-979.68 1110,-979.68 1110,-1054.68 1110,-1054.68 1110,-1060.68 1104,-1066.68 1098,-1066.68"/>
<text text-anchor="middle" x="1020.5" y="-1051.48" font-family="Times,serif" font-size="14.00">Slave 0</text>
<text text-anchor="middle" x="1020.5" y="-1036.48" font-family="Times,serif" font-size="14.00">(DDR @ 0x0000_0000)</text>
<text text-anchor="middle" x="1020.5" y="-1005.48" font-family="Times,serif" font-size="14.00">AW, W, B</text>
<text text-anchor="middle" x="1020.5" y="-990.48" font-family="Times,serif" font-size="14.00">AR, R</text>
<text text-anchor="middle" x="1020.5" y="-975.48" font-family="Times,serif" font-size="14.00">channels</text>
</g>
<!-- aw_arb0&#45;&gt;slave0 -->
<g id="edge5" class="edge">
<title>aw_arb0&#45;&gt;slave0</title>
<path fill="none" stroke="blue" stroke-width="2" d="M995.79,-420.75C951.46,-485.12 859.99,-629.38 827,-767.18 807.29,-849.5 869.28,-910.31 917,-959.18 918.83,-961.05 920.72,-962.88 922.69,-964.66"/>
<polygon fill="blue" stroke="blue" stroke-width="2" points="920.64,-967.52 930.53,-971.33 925.17,-962.19 920.64,-967.52"/>
<text text-anchor="middle" x="853.5" y="-781.18" font-family="Times,serif" font-size="10.00">AWVALID[0]</text>
<text text-anchor="middle" x="853.5" y="-770.18" font-family="Times,serif" font-size="10.00">AWADDR, AWID, etc.</text>
</g>
<!-- ar_arb0&#45;&gt;slave0 -->
<g id="edge23" class="edge">
<title>ar_arb0&#45;&gt;slave0</title>
<path fill="none" stroke="green" stroke-width="2" d="M968.37,-310.7C949.69,-317.29 930.05,-327.5 917,-343.18 795.84,-488.78 789.85,-574.86 829,-760.18 848.99,-854.8 851.92,-887.65 917,-959.18 918.95,-961.33 921,-963.41 923.13,-965.43"/>
<polygon fill="green" stroke="green" stroke-width="2" points="920.84,-968.08 930.65,-972.07 925.47,-962.83 920.84,-968.08"/>
<text text-anchor="middle" x="853.5" y="-752.18" font-family="Times,serif" font-size="10.00">ARVALID[0]</text>
<text text-anchor="middle" x="853.5" y="-741.18" font-family="Times,serif" font-size="10.00">ARADDR, ARID, etc.</text>
</g>
<!-- slave1 -->
<g id="node16" class="node">
<title>slave1</title>
<path fill="lightpink" stroke="black" d="M1104,-949.68C1104,-949.68 937,-949.68 937,-949.68 931,-949.68 925,-943.68 925,-937.68 925,-937.68 925,-862.68 925,-862.68 925,-856.68 931,-850.68 937,-850.68 937,-850.68 1104,-850.68 1104,-850.68 1110,-850.68 1116,-856.68 1116,-862.68 1116,-862.68 1116,-937.68 1116,-937.68 1116,-943.68 1110,-949.68 1104,-949.68"/>
<text text-anchor="middle" x="1020.5" y="-934.48" font-family="Times,serif" font-size="14.00">Slave 1</text>
<text text-anchor="middle" x="1020.5" y="-919.48" font-family="Times,serif" font-size="14.00">(SRAM @ 0x1000_0000)</text>
<text text-anchor="middle" x="1020.5" y="-888.48" font-family="Times,serif" font-size="14.00">AW, W, B</text>
<text text-anchor="middle" x="1020.5" y="-873.48" font-family="Times,serif" font-size="14.00">AR, R</text>
<text text-anchor="middle" x="1020.5" y="-858.48" font-family="Times,serif" font-size="14.00">channels</text>
</g>
<!-- aw_arb1&#45;&gt;slave1 -->
<g id="edge6" class="edge">
<title>aw_arb1&#45;&gt;slave1</title>
<path fill="none" stroke="blue" stroke-width="2" d="M1020.5,-771.75C1020.5,-791.7 1020.5,-817.33 1020.5,-840.44"/>
<polygon fill="blue" stroke="blue" stroke-width="2" points="1017,-840.51 1020.5,-850.51 1024,-840.51 1017,-840.51"/>
<text text-anchor="middle" x="1006.5" y="-814.18" font-family="Times,serif" font-size="10.00">AWVALID[1]</text>
<text text-anchor="middle" x="1006.5" y="-803.18" font-family="Times,serif" font-size="10.00">AWADDR, AWID, etc.</text>
</g>
<!-- ar_arb1&#45;&gt;slave1 -->
<g id="edge24" class="edge">
<title>ar_arb1&#45;&gt;slave1</title>
<path fill="none" stroke="green" stroke-width="2" d="M968.27,-650.04C923.29,-653.04 860.77,-665.36 829,-708.18 789.35,-761.63 851.87,-814.59 915.82,-851.31"/>
<polygon fill="green" stroke="green" stroke-width="2" points="914.41,-854.53 924.84,-856.38 917.84,-848.43 914.41,-854.53"/>
<text text-anchor="middle" x="853.5" y="-722.18" font-family="Times,serif" font-size="10.00">ARVALID[1]</text>
<text text-anchor="middle" x="853.5" y="-711.18" font-family="Times,serif" font-size="10.00">ARADDR, ARID, etc.</text>
</g>
<!-- w_mux0&#45;&gt;slave0 -->
<g id="edge11" class="edge">
<title>w_mux0&#45;&gt;slave0</title>
<path fill="none" stroke="blue" stroke-width="2" d="M714.78,-600.42C739.85,-606.35 765.82,-617.48 782,-638.18 819.99,-686.78 758.87,-869.22 800,-915.18 832.21,-951.18 869.54,-903.7 907,-934.18 916.28,-941.74 909.13,-950.17 917,-959.18 918.96,-961.42 921.02,-963.59 923.17,-965.69"/>
<polygon fill="blue" stroke="blue" stroke-width="2" points="921.04,-968.49 930.81,-972.59 925.73,-963.29 921.04,-968.49"/>
<text text-anchor="middle" x="853.5" y="-948.18" font-family="Times,serif" font-size="10.00">WVALID[0]</text>
<text text-anchor="middle" x="853.5" y="-937.18" font-family="Times,serif" font-size="10.00">WDATA, WSTRB</text>
</g>
<!-- w_mux1&#45;&gt;slave1 -->
<g id="edge12" class="edge">
<title>w_mux1&#45;&gt;slave1</title>
<path fill="none" stroke="blue" stroke-width="2" d="M714.66,-339.16C739.86,-345.04 765.96,-356.21 782,-377.18 809.97,-413.76 769.67,-756.55 800,-791.18 831.82,-827.52 863,-790.26 907,-810.18 925.9,-818.74 944.35,-831.2 960.68,-844.13"/>
<polygon fill="blue" stroke="blue" stroke-width="2" points="958.54,-846.91 968.51,-850.5 962.96,-841.48 958.54,-846.91"/>
<text text-anchor="middle" x="853.5" y="-824.18" font-family="Times,serif" font-size="10.00">WVALID[1]</text>
<text text-anchor="middle" x="853.5" y="-813.18" font-family="Times,serif" font-size="10.00">WDATA, WSTRB</text>
</g>
<!-- r_demux0 -->
<g id="node11" class="node">
<title>r_demux0</title>
<path fill="lightsteelblue" stroke="black" d="M700.5,-802.68C700.5,-802.68 585.5,-802.68 585.5,-802.68 579.5,-802.68 573.5,-796.68 573.5,-790.68 573.5,-790.68 573.5,-745.68 573.5,-745.68 573.5,-739.68 579.5,-733.68 585.5,-733.68 585.5,-733.68 700.5,-733.68 700.5,-733.68 706.5,-733.68 712.5,-739.68 712.5,-745.68 712.5,-745.68 712.5,-790.68 712.5,-790.68 712.5,-796.68 706.5,-802.68 700.5,-802.68"/>
<text text-anchor="middle" x="643" y="-787.48" font-family="Times,serif" font-size="14.00">R Demux</text>
<text text-anchor="middle" x="643" y="-772.48" font-family="Times,serif" font-size="14.00">Slave 0</text>
<text text-anchor="middle" x="643" y="-741.48" font-family="Times,serif" font-size="14.00">Follows AR grant</text>
</g>
<!-- r_demux0&#45;&gt;master0 -->
<g id="edge27" class="edge">
<title>r_demux0&#45;&gt;master0</title>
<path fill="none" stroke="green" stroke-dasharray="1,5" d="M573.28,-748.32C546.1,-740.47 514.58,-731.39 486,-723.18 436.24,-708.9 406.75,-731.28 374,-691.18 341.15,-650.96 387.97,-499.11 356,-458.18 325.95,-419.71 269.93,-406.09 228.93,-401.39"/>
<polygon fill="green" stroke="green" points="229.16,-397.89 218.86,-400.38 228.46,-404.86 229.16,-397.89"/>
<text text-anchor="middle" x="430" y="-726.18" font-family="Times,serif" font-size="10.00">RDATA[0]</text>
</g>
<!-- r_demux0&#45;&gt;master1 -->
<g id="edge28" class="edge">
<title>r_demux0&#45;&gt;master1</title>
<path fill="none" stroke="green" stroke-dasharray="1,5" d="M573.38,-773.74C516.76,-775.33 435.96,-770.5 374,-738.18 303.13,-701.22 246.28,-627 212.65,-574.58"/>
<polygon fill="green" stroke="green" points="215.55,-572.62 207.25,-566.04 209.64,-576.36 215.55,-572.62"/>
<text text-anchor="middle" x="430" y="-772.18" font-family="Times,serif" font-size="10.00">RDATA[0]</text>
</g>
<!-- r_demux1 -->
<g id="node12" class="node">
<title>r_demux1</title>
<path fill="lightsteelblue" stroke="black" d="M700.5,-541.68C700.5,-541.68 585.5,-541.68 585.5,-541.68 579.5,-541.68 573.5,-535.68 573.5,-529.68 573.5,-529.68 573.5,-484.68 573.5,-484.68 573.5,-478.68 579.5,-472.68 585.5,-472.68 585.5,-472.68 700.5,-472.68 700.5,-472.68 706.5,-472.68 712.5,-478.68 712.5,-484.68 712.5,-484.68 712.5,-529.68 712.5,-529.68 712.5,-535.68 706.5,-541.68 700.5,-541.68"/>
<text text-anchor="middle" x="643" y="-526.48" font-family="Times,serif" font-size="14.00">R Demux</text>
<text text-anchor="middle" x="643" y="-511.48" font-family="Times,serif" font-size="14.00">Slave 1</text>
<text text-anchor="middle" x="643" y="-480.48" font-family="Times,serif" font-size="14.00">Follows AR grant</text>
</g>
<!-- r_demux1&#45;&gt;master0 -->
<g id="edge29" class="edge">
<title>r_demux1&#45;&gt;master0</title>
<path fill="none" stroke="green" stroke-dasharray="1,5" d="M573.41,-494.76C519.09,-484.58 441.4,-469.28 374,-453.18 324.08,-441.26 267.62,-425.35 228.34,-413.9"/>
<polygon fill="green" stroke="green" points="229.33,-410.54 218.74,-411.09 227.36,-417.26 229.33,-410.54"/>
<text text-anchor="middle" x="430" y="-480.18" font-family="Times,serif" font-size="10.00">RDATA[1]</text>
</g>
<!-- r_demux1&#45;&gt;master1 -->
<g id="edge30" class="edge">
<title>r_demux1&#45;&gt;master1</title>
<path fill="none" stroke="green" stroke-dasharray="1,5" d="M573.15,-508.52C478.98,-510.35 312.24,-513.59 229.08,-515.21"/>
<polygon fill="green" stroke="green" points="228.81,-511.71 218.88,-515.41 228.94,-518.71 228.81,-511.71"/>
<text text-anchor="middle" x="430" y="-515.18" font-family="Times,serif" font-size="10.00">RDATA[1]</text>
</g>
<!-- b_demux0 -->
<g id="node13" class="node">
<title>b_demux0</title>
<path fill="plum" stroke="black" d="M699.5,-715.68C699.5,-715.68 586.5,-715.68 586.5,-715.68 580.5,-715.68 574.5,-709.68 574.5,-703.68 574.5,-703.68 574.5,-658.68 574.5,-658.68 574.5,-652.68 580.5,-646.68 586.5,-646.68 586.5,-646.68 699.5,-646.68 699.5,-646.68 705.5,-646.68 711.5,-652.68 711.5,-658.68 711.5,-658.68 711.5,-703.68 711.5,-703.68 711.5,-709.68 705.5,-715.68 699.5,-715.68"/>
<text text-anchor="middle" x="643" y="-700.48" font-family="Times,serif" font-size="14.00">B Demux</text>
<text text-anchor="middle" x="643" y="-685.48" font-family="Times,serif" font-size="14.00">Slave 0</text>
<text text-anchor="middle" x="643" y="-654.48" font-family="Times,serif" font-size="14.00">ID&#45;based routing</text>
</g>
<!-- b_demux0&#45;&gt;master0 -->
<g id="edge15" class="edge">
<title>b_demux0&#45;&gt;master0</title>
<path fill="none" stroke="purple" stroke-dasharray="1,5" d="M574.49,-662.02C497.28,-639.81 380.6,-605.21 374,-597.18 334.46,-549.05 395.6,-506.27 356,-458.18 325.06,-420.61 269.46,-406.82 228.81,-401.84"/>
<polygon fill="purple" stroke="purple" points="229.14,-398.35 218.82,-400.75 228.38,-405.31 229.14,-398.35"/>
<text text-anchor="middle" x="430" y="-637.18" font-family="Times,serif" font-size="10.00">BRESP[0]</text>
</g>
<!-- b_demux0&#45;&gt;master1 -->
<g id="edge16" class="edge">
<title>b_demux0&#45;&gt;master1</title>
<path fill="none" stroke="purple" stroke-dasharray="1,5" d="M574.34,-683.03C518.84,-682.42 439.08,-676.56 374,-652.18 318.43,-631.37 263.77,-591.04 226.53,-559.68"/>
<polygon fill="purple" stroke="purple" points="228.73,-556.96 218.85,-553.13 224.19,-562.28 228.73,-556.96"/>
<text text-anchor="middle" x="430" y="-679.18" font-family="Times,serif" font-size="10.00">BRESP[0]</text>
</g>
<!-- b_demux1 -->
<g id="node14" class="node">
<title>b_demux1</title>
<path fill="plum" stroke="black" d="M699.5,-454.68C699.5,-454.68 586.5,-454.68 586.5,-454.68 580.5,-454.68 574.5,-448.68 574.5,-442.68 574.5,-442.68 574.5,-397.68 574.5,-397.68 574.5,-391.68 580.5,-385.68 586.5,-385.68 586.5,-385.68 699.5,-385.68 699.5,-385.68 705.5,-385.68 711.5,-391.68 711.5,-397.68 711.5,-397.68 711.5,-442.68 711.5,-442.68 711.5,-448.68 705.5,-454.68 699.5,-454.68"/>
<text text-anchor="middle" x="643" y="-439.48" font-family="Times,serif" font-size="14.00">B Demux</text>
<text text-anchor="middle" x="643" y="-424.48" font-family="Times,serif" font-size="14.00">Slave 1</text>
<text text-anchor="middle" x="643" y="-393.48" font-family="Times,serif" font-size="14.00">ID&#45;based routing</text>
</g>
<!-- b_demux1&#45;&gt;master0 -->
<g id="edge17" class="edge">
<title>b_demux1&#45;&gt;master0</title>
<path fill="none" stroke="purple" stroke-dasharray="1,5" d="M574.47,-414.29C547.04,-412.07 515.02,-409.72 486,-408.18 395.4,-403.37 289.61,-400.98 228.85,-399.92"/>
<polygon fill="purple" stroke="purple" points="228.82,-396.42 218.77,-399.75 228.7,-403.42 228.82,-396.42"/>
<text text-anchor="middle" x="430" y="-411.18" font-family="Times,serif" font-size="10.00">BRESP[1]</text>
</g>
<!-- b_demux1&#45;&gt;master1 -->
<g id="edge18" class="edge">
<title>b_demux1&#45;&gt;master1</title>
<path fill="none" stroke="purple" stroke-dasharray="1,5" d="M574.2,-420.89C506.85,-422.45 408.77,-427.31 374,-442.18 364.16,-446.39 365.28,-452.85 356,-458.18 315.89,-481.23 265.34,-496.63 228.54,-505.74"/>
<polygon fill="purple" stroke="purple" points="227.45,-502.4 218.55,-508.14 229.09,-509.21 227.45,-502.4"/>
<text text-anchor="middle" x="430" y="-445.18" font-family="Times,serif" font-size="10.00">BRESP[1]</text>
</g>
<!-- slave0&#45;&gt;r_demux0 -->
<g id="edge25" class="edge">
<title>slave0&#45;&gt;r_demux0</title>
<path fill="none" stroke="green" stroke-width="2" d="M930.81,-1024.45C888.56,-1023.94 838.88,-1017.26 800,-994.18 729.75,-952.5 683.66,-865.38 660.85,-812.31"/>
<polygon fill="green" stroke="green" stroke-width="2" points="663.96,-810.68 656.86,-802.82 657.51,-813.39 663.96,-810.68"/>
<text text-anchor="middle" x="853.5" y="-1036.18" font-family="Times,serif" font-size="10.00">RVALID[0]</text>
<text text-anchor="middle" x="853.5" y="-1025.18" font-family="Times,serif" font-size="10.00">RDATA, RID</text>
</g>
<!-- slave0&#45;&gt;b_demux0 -->
<g id="edge13" class="edge">
<title>slave0&#45;&gt;b_demux0</title>
<path fill="none" stroke="purple" stroke-width="2" d="M930.73,-987.73C922.74,-985.4 914.75,-983.18 907,-981.18 860.06,-969.11 832.2,-996.4 800,-960.18 765.2,-921.04 814.5,-766.26 782,-725.18 767.19,-706.46 744.38,-695.57 721.55,-689.28"/>
<polygon fill="purple" stroke="purple" stroke-width="2" points="722.34,-685.87 711.79,-686.86 720.65,-692.67 722.34,-685.87"/>
<text text-anchor="middle" x="853.5" y="-984.18" font-family="Times,serif" font-size="10.00">BVALID[0], BID[0]</text>
</g>
<!-- slave1&#45;&gt;r_demux1 -->
<g id="edge26" class="edge">
<title>slave1&#45;&gt;r_demux1</title>
<path fill="none" stroke="green" stroke-width="2" d="M924.95,-892.83C869.59,-887.57 808.82,-879.74 800,-870.18 751.83,-818.02 825.49,-607.31 782,-551.18 767.58,-532.57 745.24,-521.69 722.71,-515.37"/>
<polygon fill="green" stroke="green" stroke-width="2" points="723.27,-511.9 712.72,-512.85 721.56,-518.69 723.27,-511.9"/>
<text text-anchor="middle" x="853.5" y="-904.18" font-family="Times,serif" font-size="10.00">RVALID[1]</text>
<text text-anchor="middle" x="853.5" y="-893.18" font-family="Times,serif" font-size="10.00">RDATA, RID</text>
</g>
<!-- slave1&#45;&gt;b_demux1 -->
<g id="edge14" class="edge">
<title>slave1&#45;&gt;b_demux1</title>
<path fill="none" stroke="purple" stroke-width="2" d="M924.75,-862.66C918.78,-860.7 912.83,-858.86 907,-857.18 860.42,-843.82 831.69,-872.85 800,-836.18 772.94,-804.87 807.22,-497 782,-464.18 767.39,-445.17 744.51,-434.21 721.55,-427.95"/>
<polygon fill="purple" stroke="purple" stroke-width="2" points="722.27,-424.53 711.73,-425.55 720.61,-431.33 722.27,-424.53"/>
<text text-anchor="middle" x="853.5" y="-860.18" font-family="Times,serif" font-size="10.00">BVALID[1], BID[1]</text>
</g>
<!-- clocks -->
<g id="node17" class="node">
<title>clocks</title>
<ellipse fill="#eedd82" stroke="black" cx="643" cy="-38.18" rx="83.38" ry="38.37"/>
<text text-anchor="middle" x="643" y="-49.98" font-family="Times,serif" font-size="14.00">Clock &amp; Reset</text>
<text text-anchor="middle" x="643" y="-18.98" font-family="Times,serif" font-size="14.00">aclk, aresetn</text>
</g>
<!-- clocks&#45;&gt;aw_arb0 -->
<g id="edge31" class="edge">
<title>clocks&#45;&gt;aw_arb0</title>
<path fill="none" stroke="black" stroke-dasharray="5,2" d="M718.52,-54.76C744.3,-60.4 773.4,-66.68 800,-72.18 847.46,-82.01 875.47,-56.38 907,-93.18 925.09,-114.29 901.15,-320.35 917,-343.18 926.93,-357.5 942.61,-367.06 958.74,-373.45"/>
<polygon fill="black" stroke="black" points="957.66,-376.78 968.25,-376.85 960.02,-370.19 957.66,-376.78"/>
<text text-anchor="middle" x="853.5" y="-96.18" font-family="Times,serif" font-size="10.00">clk/rst</text>
</g>
<!-- clocks&#45;&gt;ar_arb0 -->
<g id="edge32" class="edge">
<title>clocks&#45;&gt;ar_arb0</title>
<path fill="none" stroke="black" stroke-dasharray="5,2" d="M721.94,-25.7C778.25,-20.97 853.49,-23.93 907,-61.18 971.79,-106.3 1000.37,-198.9 1012.1,-254.36"/>
<polygon fill="black" stroke="black" points="1008.69,-255.15 1014.1,-264.26 1015.55,-253.77 1008.69,-255.15"/>
<text text-anchor="middle" x="853.5" y="-64.18" font-family="Times,serif" font-size="10.00">clk/rst</text>
</g>
<!-- leg_aw -->
<g id="node18" class="node">
<title>leg_aw</title>
<polygon fill="none" stroke="blue" stroke-width="2" points="263,-943.18 93,-943.18 93,-907.18 263,-907.18 263,-943.18"/>
<text text-anchor="middle" x="178" y="-921.48" font-family="Times,serif" font-size="14.00">Write Path (AW, W, B)</text>
</g>
<!-- leg_ar -->
<g id="node19" class="node">
<title>leg_ar</title>
<polygon fill="none" stroke="green" stroke-width="2" points="250,-889.18 106,-889.18 106,-853.18 250,-853.18 250,-889.18"/>
<text text-anchor="middle" x="178" y="-867.48" font-family="Times,serif" font-size="14.00">Read Path (AR, R)</text>
</g>
<!-- leg_resp -->
<g id="node20" class="node">
<title>leg_resp</title>
<polygon fill="none" stroke="purple" stroke-width="2" points="290,-835.18 66,-835.18 66,-799.18 290,-799.18 290,-835.18"/>
<text text-anchor="middle" x="178" y="-813.48" font-family="Times,serif" font-size="14.00">Response Routing (ID&#45;based)</text>
</g>
<!-- leg_arb -->
<g id="node21" class="node">
<title>leg_arb</title>
<polygon fill="khaki" stroke="black" points="263.5,-781.18 92.5,-781.18 92.5,-745.18 263.5,-745.18 263.5,-781.18"/>
<text text-anchor="middle" x="178" y="-759.48" font-family="Times,serif" font-size="14.00">Round&#45;Robin Arbiters</text>
</g>
<!-- config -->
<g id="node22" class="node">
<title>config</title>
<polygon fill="lightgray" stroke="black" points="350,-1157.68 0,-1157.68 0,-982.68 356,-982.68 356,-1151.68 350,-1157.68"/>
<polyline fill="none" stroke="black" points="350,-1157.68 350,-1151.68 "/>
<polyline fill="none" stroke="black" points="356,-1151.68 350,-1151.68 "/>
<text text-anchor="middle" x="178" y="-1142.48" font-family="Times,serif" font-size="14.00">Configuration</text>
<text text-anchor="middle" x="178" y="-1111.48" font-family="Times,serif" font-size="14.00">NUM_MASTERS: 2</text>
<text text-anchor="middle" x="178" y="-1096.48" font-family="Times,serif" font-size="14.00">NUM_SLAVES: 2</text>
<text text-anchor="middle" x="178" y="-1081.48" font-family="Times,serif" font-size="14.00">DATA_WIDTH: 32</text>
<text text-anchor="middle" x="178" y="-1066.48" font-family="Times,serif" font-size="14.00">ADDR_WIDTH: 32</text>
<text text-anchor="middle" x="178" y="-1051.48" font-family="Times,serif" font-size="14.00">ID_WIDTH: 4</text>
<text text-anchor="middle" x="178" y="-1020.48" font-family="Times,serif" font-size="14.00">Address Map:</text>
<text text-anchor="middle" x="178" y="-1005.48" font-family="Times,serif" font-size="14.00">Slave 0: 0x0000_0000 &#45; 0x0FFF_FFFF (256MB)</text>
<text text-anchor="middle" x="178" y="-990.48" font-family="Times,serif" font-size="14.00">Slave 1: 0x1000_0000 &#45; 0x1FFF_FFFF (256MB)</text>
</g>
</g>
</svg>
