<?xml version="1.0" encoding="UTF-8" standalone="no"?>
<!DOCTYPE svg PUBLIC "-//W3C//DTD SVG 1.1//EN"
 "http://www.w3.org/Graphics/SVG/1.1/DTD/svg11.dtd">
<!-- Generated by graphviz version 2.43.0 (0)
 -->
<!-- Title: crossbar_core Pages: 1 -->
<svg width="972pt" height="1460pt"
 viewBox="0.00 0.00 972.00 1460.00" xmlns="http://www.w3.org/2000/svg" xmlns:xlink="http://www.w3.org/1999/xlink">
<g id="graph0" class="graph" transform="scale(1 1) rotate(0) translate(4 1456)">
<title>crossbar_core</title>
<polygon fill="white" stroke="transparent" points="-4,4 -4,-1456 968,-1456 968,4 -4,4"/>
<text text-anchor="middle" x="482" y="-1436.8" font-family="Times,serif" font-size="14.00">Crossbar Core Architecture</text>
<text text-anchor="middle" x="482" y="-1421.8" font-family="Times,serif" font-size="14.00">Full 5&#45;Channel AXI4 Switching Fabric</text>
<g id="clust1" class="cluster">
<title>cluster_masters</title>
<polygon fill="lightgreen" stroke="black" points="399,-929 399,-1149 670,-1149 670,-929 399,-929"/>
<text text-anchor="middle" x="534.5" y="-1133.8" font-family="Times,serif" font-size="14.00">From Master Adapters (M masters)</text>
</g>
<g id="clust2" class="cluster">
<title>cluster_crossbar</title>
<polygon fill="lightyellow" stroke="black" points="59.5,-424 59.5,-921 942,-921 942,-424 59.5,-424"/>
<text text-anchor="middle" x="500.75" y="-905.8" font-family="Times,serif" font-size="14.00">Crossbar Core</text>
</g>
<g id="clust3" class="cluster">
<title>cluster_decode</title>
<polygon fill="lightcyan" stroke="black" points="77,-665 77,-890 596.5,-890 596.5,-665 77,-665"/>
<text text-anchor="middle" x="336.75" y="-874.8" font-family="Times,serif" font-size="14.00">Address Decode &amp; Arbitration</text>
</g>
<g id="clust4" class="cluster">
<title>cluster_data_mux</title>
<polygon fill="wheat" stroke="black" points="752,-774 752,-883 934,-883 934,-774 752,-774"/>
<text text-anchor="middle" x="843" y="-867.8" font-family="Times,serif" font-size="14.00">Data Path Multiplexing</text>
</g>
<g id="clust5" class="cluster">
<title>cluster_resp_demux</title>
<polygon fill="plum" stroke="black" points="416.5,-432 416.5,-657 652.5,-657 652.5,-432 416.5,-432"/>
<text text-anchor="middle" x="534.5" y="-641.8" font-family="Times,serif" font-size="14.00">Response Path Demultiplexing</text>
</g>
<g id="clust6" class="cluster">
<title>cluster_slaves</title>
<polygon fill="lightcoral" stroke="black" points="729,-8 729,-416 956,-416 956,-8 729,-8"/>
<text text-anchor="middle" x="842.5" y="-400.8" font-family="Times,serif" font-size="14.00">To Slave Interfaces (S slaves)</text>
</g>
<g id="clust7" class="cluster">
<title>cluster_legend</title>
<polygon fill="white" stroke="black" points="56.5,-1115 56.5,-1406 242.5,-1406 242.5,-1115 56.5,-1115"/>
<text text-anchor="middle" x="149.5" y="-1390.8" font-family="Times,serif" font-size="14.00">Legend</text>
</g>
<!-- m_ar -->
<g id="node1" class="node">
<title>m_ar</title>
<path fill="palegreen" stroke="black" d="M579.5,-1117.5C579.5,-1117.5 488.5,-1117.5 488.5,-1117.5 482.5,-1117.5 476.5,-1111.5 476.5,-1105.5 476.5,-1105.5 476.5,-1076.5 476.5,-1076.5 476.5,-1070.5 482.5,-1064.5 488.5,-1064.5 488.5,-1064.5 579.5,-1064.5 579.5,-1064.5 585.5,-1064.5 591.5,-1070.5 591.5,-1076.5 591.5,-1076.5 591.5,-1105.5 591.5,-1105.5 591.5,-1111.5 585.5,-1117.5 579.5,-1117.5"/>
<text text-anchor="middle" x="534" y="-1102.3" font-family="Times,serif" font-size="14.00">AR[M]</text>
<text text-anchor="middle" x="534" y="-1087.3" font-family="Times,serif" font-size="14.00">Address Read</text>
<text text-anchor="middle" x="534" y="-1072.3" font-family="Times,serif" font-size="14.00">requests</text>
</g>
<!-- router -->
<g id="node4" class="node">
<title>router</title>
<path fill="lightsteelblue" stroke="black" d="M202,-859C202,-859 97,-859 97,-859 91,-859 85,-853 85,-847 85,-847 85,-787 85,-787 85,-781 91,-775 97,-775 97,-775 202,-775 202,-775 208,-775 214,-781 214,-787 214,-787 214,-847 214,-847 214,-853 208,-859 202,-859"/>
<text text-anchor="middle" x="149.5" y="-843.8" font-family="Times,serif" font-size="14.00">Slave</text>
<text text-anchor="middle" x="149.5" y="-828.8" font-family="Times,serif" font-size="14.00">Router</text>
<text text-anchor="middle" x="149.5" y="-797.8" font-family="Times,serif" font-size="14.00">Address decode</text>
<text text-anchor="middle" x="149.5" y="-782.8" font-family="Times,serif" font-size="14.00">per master</text>
</g>
<!-- m_ar&#45;&gt;router -->
<g id="edge2" class="edge">
<title>m_ar&#45;&gt;router</title>
<path fill="none" stroke="green" stroke-width="2" d="M476.29,-1080.28C451.92,-1074.64 423.47,-1066.65 399,-1056 359.43,-1038.79 341.71,-1039.38 317,-1004 295.39,-973.05 319.9,-952.43 299,-921 280.21,-892.74 250.9,-869.83 223.27,-852.78"/>
<polygon fill="green" stroke="green" stroke-width="2" points="224.75,-849.59 214.37,-847.46 221.16,-855.6 224.75,-849.59"/>
<text text-anchor="middle" x="354" y="-1066" font-family="Times,serif" font-size="10.00">ARADDR</text>
<text text-anchor="middle" x="354" y="-1055" font-family="Times,serif" font-size="10.00">decode</text>
</g>
<!-- m_aw -->
<g id="node2" class="node">
<title>m_aw</title>
<path fill="palegreen" stroke="black" d="M581,-1046.5C581,-1046.5 487,-1046.5 487,-1046.5 481,-1046.5 475,-1040.5 475,-1034.5 475,-1034.5 475,-1005.5 475,-1005.5 475,-999.5 481,-993.5 487,-993.5 487,-993.5 581,-993.5 581,-993.5 587,-993.5 593,-999.5 593,-1005.5 593,-1005.5 593,-1034.5 593,-1034.5 593,-1040.5 587,-1046.5 581,-1046.5"/>
<text text-anchor="middle" x="534" y="-1031.3" font-family="Times,serif" font-size="14.00">AW[M]</text>
<text text-anchor="middle" x="534" y="-1016.3" font-family="Times,serif" font-size="14.00">Address Write</text>
<text text-anchor="middle" x="534" y="-1001.3" font-family="Times,serif" font-size="14.00">requests</text>
</g>
<!-- m_aw&#45;&gt;router -->
<g id="edge1" class="edge">
<title>m_aw&#45;&gt;router</title>
<path fill="none" stroke="blue" stroke-width="2" d="M474.83,-1008.78C450.74,-1003.02 422.9,-994.88 399,-984 379.89,-975.3 285.9,-911.05 219.17,-864.84"/>
<polygon fill="blue" stroke="blue" stroke-width="2" points="220.98,-861.83 210.76,-859.01 216.99,-867.59 220.98,-861.83"/>
<text text-anchor="middle" x="354" y="-992" font-family="Times,serif" font-size="10.00">AWADDR</text>
<text text-anchor="middle" x="354" y="-981" font-family="Times,serif" font-size="10.00">decode</text>
</g>
<!-- m_w -->
<g id="node3" class="node">
<title>m_w</title>
<path fill="palegreen" stroke="black" d="M568,-975C568,-975 500,-975 500,-975 494,-975 488,-969 488,-963 488,-963 488,-949 488,-949 488,-943 494,-937 500,-937 500,-937 568,-937 568,-937 574,-937 580,-943 580,-949 580,-949 580,-963 580,-963 580,-969 574,-975 568,-975"/>
<text text-anchor="middle" x="534" y="-959.8" font-family="Times,serif" font-size="14.00">W[M]</text>
<text text-anchor="middle" x="534" y="-944.8" font-family="Times,serif" font-size="14.00">Write data</text>
</g>
<!-- w_mux -->
<g id="node7" class="node">
<title>w_mux</title>
<path fill="lightsteelblue" stroke="black" d="M898,-851.5C898,-851.5 787,-851.5 787,-851.5 781,-851.5 775,-845.5 775,-839.5 775,-839.5 775,-794.5 775,-794.5 775,-788.5 781,-782.5 787,-782.5 787,-782.5 898,-782.5 898,-782.5 904,-782.5 910,-788.5 910,-794.5 910,-794.5 910,-839.5 910,-839.5 910,-845.5 904,-851.5 898,-851.5"/>
<text text-anchor="middle" x="842.5" y="-836.3" font-family="Times,serif" font-size="14.00">W Multiplexers</text>
<text text-anchor="middle" x="842.5" y="-821.3" font-family="Times,serif" font-size="14.00">(S instances)</text>
<text text-anchor="middle" x="842.5" y="-790.3" font-family="Times,serif" font-size="14.00">Follow AW grant</text>
</g>
<!-- m_w&#45;&gt;w_mux -->
<g id="edge7" class="edge">
<title>m_w&#45;&gt;w_mux</title>
<path fill="none" stroke="blue" stroke-width="2" d="M576.97,-936.96C625.37,-915.01 705.9,-878.5 765.42,-851.5"/>
<polygon fill="blue" stroke="blue" stroke-width="2" points="767.12,-854.58 774.78,-847.26 764.23,-848.2 767.12,-854.58"/>
<text text-anchor="middle" x="699.5" y="-915" font-family="Times,serif" font-size="10.00">WDATA</text>
<text text-anchor="middle" x="699.5" y="-904" font-family="Times,serif" font-size="10.00">from all</text>
<text text-anchor="middle" x="699.5" y="-893" font-family="Times,serif" font-size="10.00">masters</text>
</g>
<!-- aw_arb -->
<g id="node5" class="node">
<title>aw_arb</title>
<path fill="khaki" stroke="black" d="M576.5,-859C576.5,-859 491.5,-859 491.5,-859 485.5,-859 479.5,-853 479.5,-847 479.5,-847 479.5,-787 479.5,-787 479.5,-781 485.5,-775 491.5,-775 491.5,-775 576.5,-775 576.5,-775 582.5,-775 588.5,-781 588.5,-787 588.5,-787 588.5,-847 588.5,-847 588.5,-853 582.5,-859 576.5,-859"/>
<text text-anchor="middle" x="534" y="-843.8" font-family="Times,serif" font-size="14.00">AW Arbiters</text>
<text text-anchor="middle" x="534" y="-828.8" font-family="Times,serif" font-size="14.00">(S instances)</text>
<text text-anchor="middle" x="534" y="-797.8" font-family="Times,serif" font-size="14.00">Round&#45;robin</text>
<text text-anchor="middle" x="534" y="-782.8" font-family="Times,serif" font-size="14.00">per slave</text>
</g>
<!-- router&#45;&gt;aw_arb -->
<g id="edge3" class="edge">
<title>router&#45;&gt;aw_arb</title>
<path fill="none" stroke="blue" d="M214.09,-817C284.86,-817 398.54,-817 469.33,-817"/>
<polygon fill="blue" stroke="blue" points="469.46,-820.5 479.46,-817 469.46,-813.5 469.46,-820.5"/>
<text text-anchor="middle" x="354" y="-831" font-family="Times,serif" font-size="10.00">Slave</text>
<text text-anchor="middle" x="354" y="-820" font-family="Times,serif" font-size="10.00">selection</text>
</g>
<!-- ar_arb -->
<g id="node6" class="node">
<title>ar_arb</title>
<path fill="khaki" stroke="black" d="M576.5,-757C576.5,-757 491.5,-757 491.5,-757 485.5,-757 479.5,-751 479.5,-745 479.5,-745 479.5,-685 479.5,-685 479.5,-679 485.5,-673 491.5,-673 491.5,-673 576.5,-673 576.5,-673 582.5,-673 588.5,-679 588.5,-685 588.5,-685 588.5,-745 588.5,-745 588.5,-751 582.5,-757 576.5,-757"/>
<text text-anchor="middle" x="534" y="-741.8" font-family="Times,serif" font-size="14.00">AR Arbiters</text>
<text text-anchor="middle" x="534" y="-726.8" font-family="Times,serif" font-size="14.00">(S instances)</text>
<text text-anchor="middle" x="534" y="-695.8" font-family="Times,serif" font-size="14.00">Round&#45;robin</text>
<text text-anchor="middle" x="534" y="-680.8" font-family="Times,serif" font-size="14.00">per slave</text>
</g>
<!-- router&#45;&gt;ar_arb -->
<g id="edge4" class="edge">
<title>router&#45;&gt;ar_arb</title>
<path fill="none" stroke="green" d="M214.12,-809.39C242.86,-803.13 275.55,-791.74 299,-771 313.6,-758.08 301.03,-742.18 317,-731 360.81,-700.32 422.62,-698.79 468.9,-703.49"/>
<polygon fill="green" stroke="green" points="468.79,-707 479.12,-704.66 469.58,-700.05 468.79,-707"/>
<text text-anchor="middle" x="354" y="-745" font-family="Times,serif" font-size="10.00">Slave</text>
<text text-anchor="middle" x="354" y="-734" font-family="Times,serif" font-size="10.00">selection</text>
</g>
<!-- aw_arb&#45;&gt;w_mux -->
<g id="edge8" class="edge">
<title>aw_arb&#45;&gt;w_mux</title>
<path fill="none" stroke="blue" stroke-dasharray="1,5" d="M588.74,-817C637.55,-817 710.09,-817 764.95,-817"/>
<polygon fill="blue" stroke="blue" points="764.98,-820.5 774.98,-817 764.98,-813.5 764.98,-820.5"/>
<text text-anchor="middle" x="699.5" y="-831" font-family="Times,serif" font-size="10.00">Grant</text>
<text text-anchor="middle" x="699.5" y="-820" font-family="Times,serif" font-size="10.00">control</text>
</g>
<!-- s_aw -->
<g id="node11" class="node">
<title>s_aw</title>
<path fill="lightpink" stroke="black" d="M870.5,-314C870.5,-314 814.5,-314 814.5,-314 808.5,-314 802.5,-308 802.5,-302 802.5,-302 802.5,-242 802.5,-242 802.5,-236 808.5,-230 814.5,-230 814.5,-230 870.5,-230 870.5,-230 876.5,-230 882.5,-236 882.5,-242 882.5,-242 882.5,-302 882.5,-302 882.5,-308 876.5,-314 870.5,-314"/>
<text text-anchor="middle" x="842.5" y="-298.8" font-family="Times,serif" font-size="14.00">AW[S]</text>
<text text-anchor="middle" x="842.5" y="-283.8" font-family="Times,serif" font-size="14.00">Addre</text>
<text text-anchor="middle" x="842.5" y="-252.8" font-family="Times,serif" font-size="14.00">ss Write</text>
<text text-anchor="middle" x="842.5" y="-237.8" font-family="Times,serif" font-size="14.00">to slaves</text>
</g>
<!-- aw_arb&#45;&gt;s_aw -->
<g id="edge5" class="edge">
<title>aw_arb&#45;&gt;s_aw</title>
<path fill="none" stroke="blue" stroke-width="2" d="M588.7,-809.51C616.92,-802.79 649.76,-790.06 670,-766 747.5,-673.89 706.91,-619.55 721,-500 723.3,-480.45 717.96,-339.3 729,-323 743.52,-301.56 769.37,-289 792.63,-281.71"/>
<polygon fill="blue" stroke="blue" stroke-width="2" points="793.76,-285.03 802.4,-278.9 791.83,-278.3 793.76,-285.03"/>
<text text-anchor="middle" x="699.5" y="-769" font-family="Times,serif" font-size="10.00">Granted</text>
<text text-anchor="middle" x="699.5" y="-758" font-family="Times,serif" font-size="10.00">AW</text>
</g>
<!-- s_ar -->
<g id="node13" class="node">
<title>s_ar</title>
<path fill="lightpink" stroke="black" d="M888,-211.5C888,-211.5 797,-211.5 797,-211.5 791,-211.5 785,-205.5 785,-199.5 785,-199.5 785,-170.5 785,-170.5 785,-164.5 791,-158.5 797,-158.5 797,-158.5 888,-158.5 888,-158.5 894,-158.5 900,-164.5 900,-170.5 900,-170.5 900,-199.5 900,-199.5 900,-205.5 894,-211.5 888,-211.5"/>
<text text-anchor="middle" x="842.5" y="-196.3" font-family="Times,serif" font-size="14.00">AR[S]</text>
<text text-anchor="middle" x="842.5" y="-181.3" font-family="Times,serif" font-size="14.00">Address Read</text>
<text text-anchor="middle" x="842.5" y="-166.3" font-family="Times,serif" font-size="14.00">to slaves</text>
</g>
<!-- ar_arb&#45;&gt;s_ar -->
<g id="edge6" class="edge">
<title>ar_arb&#45;&gt;s_ar</title>
<path fill="none" stroke="green" stroke-width="2" d="M588.82,-707.68C617.82,-700.75 651.38,-687.25 670,-661 681.78,-644.4 675.57,-498.21 678,-478 691.92,-362.39 651.47,-307.89 729,-221 740.93,-207.63 757.81,-199.2 774.89,-193.88"/>
<polygon fill="green" stroke="green" stroke-width="2" points="776.22,-197.14 784.92,-191.1 774.35,-190.4 776.22,-197.14"/>
<text text-anchor="middle" x="699.5" y="-492" font-family="Times,serif" font-size="10.00">Granted</text>
<text text-anchor="middle" x="699.5" y="-481" font-family="Times,serif" font-size="10.00">AR</text>
</g>
<!-- s_w -->
<g id="node12" class="node">
<title>s_w</title>
<path fill="lightpink" stroke="black" d="M876.5,-384.5C876.5,-384.5 808.5,-384.5 808.5,-384.5 802.5,-384.5 796.5,-378.5 796.5,-372.5 796.5,-372.5 796.5,-343.5 796.5,-343.5 796.5,-337.5 802.5,-331.5 808.5,-331.5 808.5,-331.5 876.5,-331.5 876.5,-331.5 882.5,-331.5 888.5,-337.5 888.5,-343.5 888.5,-343.5 888.5,-372.5 888.5,-372.5 888.5,-378.5 882.5,-384.5 876.5,-384.5"/>
<text text-anchor="middle" x="842.5" y="-369.3" font-family="Times,serif" font-size="14.00">W[S]</text>
<text text-anchor="middle" x="842.5" y="-354.3" font-family="Times,serif" font-size="14.00">Write data</text>
<text text-anchor="middle" x="842.5" y="-339.3" font-family="Times,serif" font-size="14.00">to slaves</text>
</g>
<!-- w_mux&#45;&gt;s_w -->
<g id="edge9" class="edge">
<title>w_mux&#45;&gt;s_w</title>
<path fill="none" stroke="blue" stroke-width="2" d="M842.5,-782.35C842.5,-697.8 842.5,-481.57 842.5,-394.82"/>
<polygon fill="blue" stroke="blue" stroke-width="2" points="846,-394.66 842.5,-384.66 839,-394.66 846,-394.66"/>
<text text-anchor="middle" x="828.5" y="-586.5" font-family="Times,serif" font-size="10.00">Selected</text>
<text text-anchor="middle" x="828.5" y="-575.5" font-family="Times,serif" font-size="10.00">W data</text>
</g>
<!-- b_demux -->
<g id="node8" class="node">
<title>b_demux</title>
<path fill="thistle" stroke="black" d="M590.5,-524C590.5,-524 477.5,-524 477.5,-524 471.5,-524 465.5,-518 465.5,-512 465.5,-512 465.5,-452 465.5,-452 465.5,-446 471.5,-440 477.5,-440 477.5,-440 590.5,-440 590.5,-440 596.5,-440 602.5,-446 602.5,-452 602.5,-452 602.5,-512 602.5,-512 602.5,-518 596.5,-524 590.5,-524"/>
<text text-anchor="middle" x="534" y="-508.8" font-family="Times,serif" font-size="14.00">B Demux</text>
<text text-anchor="middle" x="534" y="-493.8" font-family="Times,serif" font-size="14.00">(M instances)</text>
<text text-anchor="middle" x="534" y="-462.8" font-family="Times,serif" font-size="14.00">ID&#45;based routing</text>
<text text-anchor="middle" x="534" y="-447.8" font-family="Times,serif" font-size="14.00">to masters</text>
</g>
<!-- b_demux&#45;&gt;m_aw -->
<g id="edge14" class="edge">
<title>b_demux&#45;&gt;m_aw</title>
<path fill="none" stroke="purple" stroke-width="2" d="M455.97,-501.95C436.04,-509.5 415.58,-519.62 399,-533 358.63,-565.58 342.07,-585.27 346,-637 357.81,-792.56 294.86,-867.84 399,-984 418.03,-1005.22 448.03,-1014.55 474.92,-1018.42"/>
<polygon fill="purple" stroke="purple" stroke-width="2" points="457.16,-505.24 465.38,-498.56 454.79,-498.66 457.16,-505.24"/>
<text text-anchor="middle" x="354" y="-629" font-family="Times,serif" font-size="10.00">BRESP to</text>
<text text-anchor="middle" x="354" y="-618" font-family="Times,serif" font-size="10.00">correct master</text>
</g>
<!-- r_demux -->
<g id="node9" class="node">
<title>r_demux</title>
<path fill="thistle" stroke="black" d="M590.5,-626C590.5,-626 477.5,-626 477.5,-626 471.5,-626 465.5,-620 465.5,-614 465.5,-614 465.5,-554 465.5,-554 465.5,-548 471.5,-542 477.5,-542 477.5,-542 590.5,-542 590.5,-542 596.5,-542 602.5,-548 602.5,-554 602.5,-554 602.5,-614 602.5,-614 602.5,-620 596.5,-626 590.5,-626"/>
<text text-anchor="middle" x="534" y="-610.8" font-family="Times,serif" font-size="14.00">R Demux</text>
<text text-anchor="middle" x="534" y="-595.8" font-family="Times,serif" font-size="14.00">(M instances)</text>
<text text-anchor="middle" x="534" y="-564.8" font-family="Times,serif" font-size="14.00">ID&#45;based routing</text>
<text text-anchor="middle" x="534" y="-549.8" font-family="Times,serif" font-size="14.00">to masters</text>
</g>
<!-- r_demux&#45;&gt;m_ar -->
<g id="edge15" class="edge">
<title>r_demux&#45;&gt;m_ar</title>
<path fill="none" stroke="purple" stroke-width="2" d="M456.5,-618.64C436.2,-630.15 415.42,-644.35 399,-661 364.78,-695.7 358.16,-709.8 346,-757 332.74,-808.44 265.33,-913.4 399,-1056 418.7,-1077.02 449.26,-1086.06 476.32,-1089.72"/>
<polygon fill="purple" stroke="purple" stroke-width="2" points="458.39,-621.6 465.46,-613.71 455.01,-615.46 458.39,-621.6"/>
<text text-anchor="middle" x="354" y="-771" font-family="Times,serif" font-size="10.00">RDATA to</text>
<text text-anchor="middle" x="354" y="-760" font-family="Times,serif" font-size="10.00">correct master</text>
</g>
<!-- id_mgmt -->
<g id="node10" class="node">
<title>id_mgmt</title>
<path fill="lightyellow" stroke="black" d="M219.5,-520C219.5,-520 79.5,-520 79.5,-520 73.5,-520 67.5,-514 67.5,-508 67.5,-508 67.5,-448 67.5,-448 67.5,-442 73.5,-436 79.5,-436 79.5,-436 219.5,-436 219.5,-436 225.5,-436 231.5,-442 231.5,-448 231.5,-448 231.5,-508 231.5,-508 231.5,-514 225.5,-520 219.5,-520"/>
<text text-anchor="middle" x="149.5" y="-504.8" font-family="Times,serif" font-size="14.00">ID Management</text>
<text text-anchor="middle" x="149.5" y="-473.8" font-family="Times,serif" font-size="14.00">CAM/FIFO tracking</text>
<text text-anchor="middle" x="149.5" y="-458.8" font-family="Times,serif" font-size="14.00">bridge_id matching</text>
<text text-anchor="middle" x="149.5" y="-443.8" font-family="Times,serif" font-size="14.00">Out&#45;of&#45;order support</text>
</g>
<!-- id_mgmt&#45;&gt;b_demux -->
<g id="edge12" class="edge">
<title>id_mgmt&#45;&gt;b_demux</title>
<path fill="none" stroke="purple" stroke-dasharray="1,5" d="M231.62,-478.85C297.61,-479.54 390.13,-480.51 455.2,-481.19"/>
<polygon fill="purple" stroke="purple" points="455.36,-484.69 465.4,-481.29 455.44,-477.69 455.36,-484.69"/>
<text text-anchor="middle" x="354" y="-494" font-family="Times,serif" font-size="10.00">Match</text>
<text text-anchor="middle" x="354" y="-483" font-family="Times,serif" font-size="10.00">bridge_id</text>
</g>
<!-- id_mgmt&#45;&gt;r_demux -->
<g id="edge13" class="edge">
<title>id_mgmt&#45;&gt;r_demux</title>
<path fill="none" stroke="purple" stroke-dasharray="1,5" d="M231.62,-500.48C297.74,-518.8 390.51,-544.51 455.6,-562.55"/>
<polygon fill="purple" stroke="purple" points="454.83,-565.97 465.4,-565.27 456.7,-559.22 454.83,-565.97"/>
<text text-anchor="middle" x="354" y="-557" font-family="Times,serif" font-size="10.00">Match</text>
<text text-anchor="middle" x="354" y="-546" font-family="Times,serif" font-size="10.00">bridge_id</text>
</g>
<!-- s_b -->
<g id="node14" class="node">
<title>s_b</title>
<path fill="lightpink" stroke="black" d="M893,-140.5C893,-140.5 792,-140.5 792,-140.5 786,-140.5 780,-134.5 780,-128.5 780,-128.5 780,-99.5 780,-99.5 780,-93.5 786,-87.5 792,-87.5 792,-87.5 893,-87.5 893,-87.5 899,-87.5 905,-93.5 905,-99.5 905,-99.5 905,-128.5 905,-128.5 905,-134.5 899,-140.5 893,-140.5"/>
<text text-anchor="middle" x="842.5" y="-125.3" font-family="Times,serif" font-size="14.00">B[S]</text>
<text text-anchor="middle" x="842.5" y="-110.3" font-family="Times,serif" font-size="14.00">Write response</text>
<text text-anchor="middle" x="842.5" y="-95.3" font-family="Times,serif" font-size="14.00">from slaves</text>
</g>
<!-- s_b&#45;&gt;id_mgmt -->
<g id="edge10" class="edge">
<title>s_b&#45;&gt;id_mgmt</title>
<path fill="none" stroke="purple" stroke-width="2" d="M779.87,-129.65C762.92,-135.04 744.85,-141.82 729,-150 725.05,-152.04 724.72,-153.57 721,-156 556.91,-263.19 355.21,-371.99 240.9,-431.65"/>
<polygon fill="purple" stroke="purple" stroke-width="2" points="239.06,-428.66 231.81,-436.39 242.29,-434.87 239.06,-428.66"/>
<text text-anchor="middle" x="534" y="-356" font-family="Times,serif" font-size="10.00">BID from</text>
<text text-anchor="middle" x="534" y="-345" font-family="Times,serif" font-size="10.00">slaves</text>
</g>
<!-- s_r -->
<g id="node15" class="node">
<title>s_r</title>
<path fill="lightpink" stroke="black" d="M880,-69.5C880,-69.5 805,-69.5 805,-69.5 799,-69.5 793,-63.5 793,-57.5 793,-57.5 793,-28.5 793,-28.5 793,-22.5 799,-16.5 805,-16.5 805,-16.5 880,-16.5 880,-16.5 886,-16.5 892,-22.5 892,-28.5 892,-28.5 892,-57.5 892,-57.5 892,-63.5 886,-69.5 880,-69.5"/>
<text text-anchor="middle" x="842.5" y="-54.3" font-family="Times,serif" font-size="14.00">R[S]</text>
<text text-anchor="middle" x="842.5" y="-39.3" font-family="Times,serif" font-size="14.00">Read data</text>
<text text-anchor="middle" x="842.5" y="-24.3" font-family="Times,serif" font-size="14.00">from slaves</text>
</g>
<!-- s_r&#45;&gt;id_mgmt -->
<g id="edge11" class="edge">
<title>s_r&#45;&gt;id_mgmt</title>
<path fill="none" stroke="purple" stroke-width="2" d="M792.95,-46.86C706.95,-55.69 525.05,-83.52 399,-167 296.98,-234.56 217.21,-357.43 177.72,-426.79"/>
<polygon fill="purple" stroke="purple" stroke-width="2" points="174.5,-425.36 172.64,-435.79 180.6,-428.8 174.5,-425.36"/>
<text text-anchor="middle" x="534" y="-181" font-family="Times,serif" font-size="10.00">RID from</text>
<text text-anchor="middle" x="534" y="-170" font-family="Times,serif" font-size="10.00">slaves</text>
</g>
<!-- config -->
<g id="node16" class="node">
<title>config</title>
<polygon fill="lightgray" stroke="black" points="293,-1104.5 0,-1104.5 0,-929.5 299,-929.5 299,-1098.5 293,-1104.5"/>
<polyline fill="none" stroke="black" points="293,-1104.5 293,-1098.5 "/>
<polyline fill="none" stroke="black" points="299,-1098.5 293,-1098.5 "/>
<text text-anchor="middle" x="149.5" y="-1089.3" font-family="Times,serif" font-size="14.00">Crossbar Configuration</text>
<text text-anchor="middle" x="149.5" y="-1058.3" font-family="Times,serif" font-size="14.00">Dimensions: M masters × S slaves</text>
<text text-anchor="middle" x="149.5" y="-1043.3" font-family="Times,serif" font-size="14.00">Arbiter per slave: 2 × S (AW + AR)</text>
<text text-anchor="middle" x="149.5" y="-1028.3" font-family="Times,serif" font-size="14.00">Data mux per slave: S</text>
<text text-anchor="middle" x="149.5" y="-1013.3" font-family="Times,serif" font-size="14.00">Resp demux per master: M</text>
<text text-anchor="middle" x="149.5" y="-982.3" font-family="Times,serif" font-size="14.00">ID Extension:</text>
<text text-anchor="middle" x="149.5" y="-967.3" font-family="Times,serif" font-size="14.00">• bridge_id injected by adapters</text>
<text text-anchor="middle" x="149.5" y="-952.3" font-family="Times,serif" font-size="14.00">• CAM/FIFO tracks transactions</text>
<text text-anchor="middle" x="149.5" y="-937.3" font-family="Times,serif" font-size="14.00">• Responses routed by bridge_id match</text>
</g>
<!-- leg_write -->
<g id="node17" class="node">
<title>leg_write</title>
<polygon fill="none" stroke="blue" stroke-width="2" points="234.5,-1375 64.5,-1375 64.5,-1339 234.5,-1339 234.5,-1375"/>
<text text-anchor="middle" x="149.5" y="-1353.3" font-family="Times,serif" font-size="14.00">Write Path (AW, W, B)</text>
</g>
<!-- leg_read -->
<g id="node18" class="node">
<title>leg_read</title>
<polygon fill="none" stroke="green" stroke-width="2" points="221.5,-1321 77.5,-1321 77.5,-1285 221.5,-1285 221.5,-1321"/>
<text text-anchor="middle" x="149.5" y="-1299.3" font-family="Times,serif" font-size="14.00">Read Path (AR, R)</text>
</g>
<!-- leg_resp -->
<g id="node19" class="node">
<title>leg_resp</title>
<polygon fill="none" stroke="purple" stroke-width="2" points="222.5,-1267 76.5,-1267 76.5,-1231 222.5,-1231 222.5,-1267"/>
<text text-anchor="middle" x="149.5" y="-1245.3" font-family="Times,serif" font-size="14.00">Response Routing</text>
</g>
<!-- leg_arb -->
<g id="node20" class="node">
<title>leg_arb</title>
<polygon fill="khaki" stroke="black" points="218.5,-1213 80.5,-1213 80.5,-1177 218.5,-1177 218.5,-1213"/>
<text text-anchor="middle" x="149.5" y="-1191.3" font-family="Times,serif" font-size="14.00">Arbitration Logic</text>
</g>
<!-- leg_id -->
<g id="node21" class="node">
<title>leg_id</title>
<polygon fill="lightyellow" stroke="black" points="215,-1159 84,-1159 84,-1123 215,-1123 215,-1159"/>
<text text-anchor="middle" x="149.5" y="-1137.3" font-family="Times,serif" font-size="14.00">ID Management</text>
</g>
</g>
</svg>
