<?xml version="1.0" encoding="UTF-8" standalone="no"?>
<!DOCTYPE svg PUBLIC "-//W3C//DTD SVG 1.1//EN"
 "http://www.w3.org/Graphics/SVG/1.1/DTD/svg11.dtd">
<!-- Generated by graphviz version 2.43.0 (0)
 -->
<!-- Title: error_handling Pages: 1 -->
<svg width="1962pt" height="1073pt"
 viewBox="0.00 0.00 1962.00 1073.00" xmlns="http://www.w3.org/2000/svg" xmlns:xlink="http://www.w3.org/1999/xlink">
<g id="graph0" class="graph" transform="scale(1 1) rotate(0) translate(4 1069)">
<title>error_handling</title>
<polygon fill="white" stroke="transparent" points="-4,4 -4,-1069 1958,-1069 1958,4 -4,4"/>
<text text-anchor="middle" x="977" y="-1049.8" font-family="Times,serif" font-size="14.00">Error Handling System</text>
<text text-anchor="middle" x="977" y="-1034.8" font-family="Times,serif" font-size="14.00">Detection, Generation, and Reporting</text>
<g id="clust1" class="cluster">
<title>cluster_monitors</title>
<polygon fill="lightgreen" stroke="black" points="180,-851.5 180,-974.5 612,-974.5 612,-851.5 180,-851.5"/>
<text text-anchor="middle" x="396" y="-959.3" font-family="Times,serif" font-size="14.00">Error Monitors</text>
</g>
<g id="clust2" class="cluster">
<title>cluster_detection</title>
<polygon fill="lightyellow" stroke="black" points="8,-574 8,-728 622,-728 622,-574 8,-574"/>
<text text-anchor="middle" x="315" y="-712.8" font-family="Times,serif" font-size="14.00">Error Detection Logic</text>
</g>
<g id="clust3" class="cluster">
<title>cluster_generation</title>
<polygon fill="wheat" stroke="black" points="308,-202 308,-356 612,-356 612,-202 308,-202"/>
<text text-anchor="middle" x="460" y="-340.8" font-family="Times,serif" font-size="14.00">Error Response Generation</text>
</g>
<g id="clust4" class="cluster">
<title>cluster_logging</title>
<polygon fill="plum" stroke="black" points="28,-202 28,-534 300,-534 300,-202 28,-202"/>
<text text-anchor="middle" x="164" y="-518.8" font-family="Times,serif" font-size="14.00">Error Logging &amp; Reporting</text>
</g>
<g id="clust5" class="cluster">
<title>cluster_output</title>
<polygon fill="lightcoral" stroke="black" points="185,-8 185,-162 433,-162 433,-8 185,-8"/>
<text text-anchor="middle" x="309" y="-146.8" font-family="Times,serif" font-size="14.00">Error Outputs</text>
</g>
<g id="clust6" class="cluster">
<title>cluster_legend</title>
<polygon fill="white" stroke="black" points="1212,-875.5 1212,-950.5 1946,-950.5 1946,-875.5 1212,-875.5"/>
<text text-anchor="middle" x="1579" y="-935.3" font-family="Times,serif" font-size="14.00">Legend</text>
</g>
<!-- aw_mon -->
<g id="node1" class="node">
<title>aw_mon</title>
<path fill="palegreen" stroke="black" d="M305.5,-943.5C305.5,-943.5 200.5,-943.5 200.5,-943.5 194.5,-943.5 188.5,-937.5 188.5,-931.5 188.5,-931.5 188.5,-871.5 188.5,-871.5 188.5,-865.5 194.5,-859.5 200.5,-859.5 200.5,-859.5 305.5,-859.5 305.5,-859.5 311.5,-859.5 317.5,-865.5 317.5,-871.5 317.5,-871.5 317.5,-931.5 317.5,-931.5 317.5,-937.5 311.5,-943.5 305.5,-943.5"/>
<text text-anchor="middle" x="253" y="-928.3" font-family="Times,serif" font-size="14.00">AW/AR</text>
<text text-anchor="middle" x="253" y="-913.3" font-family="Times,serif" font-size="14.00">Monitors</text>
<text text-anchor="middle" x="253" y="-882.3" font-family="Times,serif" font-size="14.00">Address decode</text>
<text text-anchor="middle" x="253" y="-867.3" font-family="Times,serif" font-size="14.00">Protocol check</text>
</g>
<!-- oor_detect -->
<g id="node4" class="node">
<title>oor_detect</title>
<path fill="lightcoral" stroke="black" d="M280,-697C280,-697 170,-697 170,-697 164,-697 158,-691 158,-685 158,-685 158,-594 158,-594 158,-588 164,-582 170,-582 170,-582 280,-582 280,-582 286,-582 292,-588 292,-594 292,-594 292,-685 292,-685 292,-691 286,-697 280,-697"/>
<text text-anchor="middle" x="225" y="-681.8" font-family="Times,serif" font-size="14.00">Out&#45;of&#45;Range</text>
<text text-anchor="middle" x="225" y="-666.8" font-family="Times,serif" font-size="14.00">Detection</text>
<text text-anchor="middle" x="225" y="-635.8" font-family="Times,serif" font-size="14.00">Address not</text>
<text text-anchor="middle" x="225" y="-620.8" font-family="Times,serif" font-size="14.00">mapped to slave</text>
<text text-anchor="middle" x="225" y="-589.8" font-family="Times,serif" font-size="14.00">→ DECERR</text>
</g>
<!-- aw_mon&#45;&gt;oor_detect -->
<g id="edge1" class="edge">
<title>aw_mon&#45;&gt;oor_detect</title>
<path fill="none" stroke="red" stroke-width="2" d="M241.25,-859.44C233.79,-831.19 224.84,-792.65 221,-758 219.92,-748.28 220.8,-745.78 221,-736 221.2,-726.64 221.5,-716.77 221.85,-707.07"/>
<polygon fill="red" stroke="red" stroke-width="2" points="225.35,-707.17 222.24,-697.05 218.36,-706.9 225.35,-707.17"/>
<text text-anchor="middle" x="252.5" y="-750" font-family="Times,serif" font-size="10.00">Address</text>
<text text-anchor="middle" x="252.5" y="-739" font-family="Times,serif" font-size="10.00">out of range</text>
</g>
<!-- protocol_check -->
<g id="node5" class="node">
<title>protocol_check</title>
<path fill="lightcoral" stroke="black" d="M128,-697C128,-697 28,-697 28,-697 22,-697 16,-691 16,-685 16,-685 16,-594 16,-594 16,-588 22,-582 28,-582 28,-582 128,-582 128,-582 134,-582 140,-588 140,-594 140,-594 140,-685 140,-685 140,-691 134,-697 128,-697"/>
<text text-anchor="middle" x="78" y="-681.8" font-family="Times,serif" font-size="14.00">Protocol</text>
<text text-anchor="middle" x="78" y="-666.8" font-family="Times,serif" font-size="14.00">Checker</text>
<text text-anchor="middle" x="78" y="-635.8" font-family="Times,serif" font-size="14.00">AXI4 violations</text>
<text text-anchor="middle" x="78" y="-620.8" font-family="Times,serif" font-size="14.00">Invalid params</text>
<text text-anchor="middle" x="78" y="-589.8" font-family="Times,serif" font-size="14.00">→ SLVERR</text>
</g>
<!-- aw_mon&#45;&gt;protocol_check -->
<g id="edge2" class="edge">
<title>aw_mon&#45;&gt;protocol_check</title>
<path fill="none" stroke="red" stroke-width="2" d="M225.27,-859.3C197.54,-818.1 154.47,-754.11 122.06,-705.95"/>
<polygon fill="red" stroke="red" stroke-width="2" points="124.83,-703.8 116.34,-697.46 119.02,-707.71 124.83,-703.8"/>
<text text-anchor="middle" x="178" y="-750" font-family="Times,serif" font-size="10.00">Protocol</text>
<text text-anchor="middle" x="178" y="-739" font-family="Times,serif" font-size="10.00">violation</text>
</g>
<!-- w_mon -->
<g id="node2" class="node">
<title>w_mon</title>
<path fill="palegreen" stroke="black" d="M440,-936C440,-936 348,-936 348,-936 342,-936 336,-930 336,-924 336,-924 336,-879 336,-879 336,-873 342,-867 348,-867 348,-867 440,-867 440,-867 446,-867 452,-873 452,-879 452,-879 452,-924 452,-924 452,-930 446,-936 440,-936"/>
<text text-anchor="middle" x="394" y="-920.8" font-family="Times,serif" font-size="14.00">W Monitor</text>
<text text-anchor="middle" x="394" y="-889.8" font-family="Times,serif" font-size="14.00">Beat counting</text>
<text text-anchor="middle" x="394" y="-874.8" font-family="Times,serif" font-size="14.00">WLAST check</text>
</g>
<!-- cam_overflow -->
<g id="node7" class="node">
<title>cam_overflow</title>
<path fill="orange" stroke="black" d="M429.5,-697C429.5,-697 322.5,-697 322.5,-697 316.5,-697 310.5,-691 310.5,-685 310.5,-685 310.5,-594 310.5,-594 310.5,-588 316.5,-582 322.5,-582 322.5,-582 429.5,-582 429.5,-582 435.5,-582 441.5,-588 441.5,-594 441.5,-594 441.5,-685 441.5,-685 441.5,-691 435.5,-697 429.5,-697"/>
<text text-anchor="middle" x="376" y="-681.8" font-family="Times,serif" font-size="14.00">CAM</text>
<text text-anchor="middle" x="376" y="-666.8" font-family="Times,serif" font-size="14.00">Overflow</text>
<text text-anchor="middle" x="376" y="-635.8" font-family="Times,serif" font-size="14.00">Too many</text>
<text text-anchor="middle" x="376" y="-620.8" font-family="Times,serif" font-size="14.00">outstanding</text>
<text text-anchor="middle" x="376" y="-589.8" font-family="Times,serif" font-size="14.00">→ Backpressure</text>
</g>
<!-- w_mon&#45;&gt;cam_overflow -->
<g id="edge8" class="edge">
<title>w_mon&#45;&gt;cam_overflow</title>
<path fill="none" stroke="orange" stroke-dasharray="1,5" d="M391.67,-866.78C388.89,-826.67 384.19,-758.75 380.66,-707.76"/>
<polygon fill="orange" stroke="orange" points="384.13,-707.22 379.94,-697.48 377.14,-707.7 384.13,-707.22"/>
<text text-anchor="middle" x="407" y="-744.5" font-family="Times,serif" font-size="10.00">CAM full</text>
</g>
<!-- resp_mon -->
<g id="node3" class="node">
<title>resp_mon</title>
<path fill="palegreen" stroke="black" d="M592,-943.5C592,-943.5 482,-943.5 482,-943.5 476,-943.5 470,-937.5 470,-931.5 470,-931.5 470,-871.5 470,-871.5 470,-865.5 476,-859.5 482,-859.5 482,-859.5 592,-859.5 592,-859.5 598,-859.5 604,-865.5 604,-871.5 604,-871.5 604,-931.5 604,-931.5 604,-937.5 598,-943.5 592,-943.5"/>
<text text-anchor="middle" x="537" y="-928.3" font-family="Times,serif" font-size="14.00">B/R</text>
<text text-anchor="middle" x="537" y="-913.3" font-family="Times,serif" font-size="14.00">Monitors</text>
<text text-anchor="middle" x="537" y="-882.3" font-family="Times,serif" font-size="14.00">Response errors</text>
<text text-anchor="middle" x="537" y="-867.3" font-family="Times,serif" font-size="14.00">Timeout detect</text>
</g>
<!-- timeout_detect -->
<g id="node6" class="node">
<title>timeout_detect</title>
<path fill="lightcoral" stroke="black" d="M602,-697C602,-697 472,-697 472,-697 466,-697 460,-691 460,-685 460,-685 460,-594 460,-594 460,-588 466,-582 472,-582 472,-582 602,-582 602,-582 608,-582 614,-588 614,-594 614,-594 614,-685 614,-685 614,-691 608,-697 602,-697"/>
<text text-anchor="middle" x="537" y="-681.8" font-family="Times,serif" font-size="14.00">Timeout</text>
<text text-anchor="middle" x="537" y="-666.8" font-family="Times,serif" font-size="14.00">Detection</text>
<text text-anchor="middle" x="537" y="-635.8" font-family="Times,serif" font-size="14.00">Watchdog counters</text>
<text text-anchor="middle" x="537" y="-620.8" font-family="Times,serif" font-size="14.00">Per transaction</text>
<text text-anchor="middle" x="537" y="-589.8" font-family="Times,serif" font-size="14.00">→ DECERR</text>
</g>
<!-- resp_mon&#45;&gt;timeout_detect -->
<g id="edge5" class="edge">
<title>resp_mon&#45;&gt;timeout_detect</title>
<path fill="none" stroke="orange" stroke-width="2" d="M537,-859.3C537,-818.61 537,-755.7 537,-707.76"/>
<polygon fill="orange" stroke="orange" stroke-width="2" points="540.5,-707.46 537,-697.46 533.5,-707.46 540.5,-707.46"/>
<text text-anchor="middle" x="569.5" y="-750" font-family="Times,serif" font-size="10.00">No response</text>
<text text-anchor="middle" x="569.5" y="-739" font-family="Times,serif" font-size="10.00">received</text>
</g>
<!-- oor_resp -->
<g id="node8" class="node">
<title>oor_resp</title>
<path fill="lightcyan" stroke="black" d="M426,-325C426,-325 328,-325 328,-325 322,-325 316,-319 316,-313 316,-313 316,-222 316,-222 316,-216 322,-210 328,-210 328,-210 426,-210 426,-210 432,-210 438,-216 438,-222 438,-222 438,-313 438,-313 438,-319 432,-325 426,-325"/>
<text text-anchor="middle" x="377" y="-309.8" font-family="Times,serif" font-size="14.00">OOR Response</text>
<text text-anchor="middle" x="377" y="-294.8" font-family="Times,serif" font-size="14.00">Generator</text>
<text text-anchor="middle" x="377" y="-263.8" font-family="Times,serif" font-size="14.00">Generate R/B</text>
<text text-anchor="middle" x="377" y="-248.8" font-family="Times,serif" font-size="14.00">with DECERR</text>
<text text-anchor="middle" x="377" y="-217.8" font-family="Times,serif" font-size="14.00">Sink W data</text>
</g>
<!-- oor_detect&#45;&gt;oor_resp -->
<g id="edge3" class="edge">
<title>oor_detect&#45;&gt;oor_resp</title>
<path fill="none" stroke="red" stroke-width="2" d="M286.64,-581.83C291.33,-578.9 296.13,-576.25 301,-574 325.94,-562.47 343.69,-584.48 362,-564 417.04,-502.44 408.87,-401.68 395.17,-335.22"/>
<polygon fill="red" stroke="red" stroke-width="2" points="398.56,-334.3 393.03,-325.26 391.71,-335.78 398.56,-334.3"/>
<text text-anchor="middle" x="429" y="-456.5" font-family="Times,serif" font-size="10.00">Generate</text>
<text text-anchor="middle" x="429" y="-445.5" font-family="Times,serif" font-size="10.00">DECERR</text>
</g>
<!-- error_log -->
<g id="node10" class="node">
<title>error_log</title>
<path fill="thistle" stroke="black" d="M272.5,-503C272.5,-503 177.5,-503 177.5,-503 171.5,-503 165.5,-497 165.5,-491 165.5,-491 165.5,-416 165.5,-416 165.5,-410 171.5,-404 177.5,-404 177.5,-404 272.5,-404 272.5,-404 278.5,-404 284.5,-410 284.5,-416 284.5,-416 284.5,-491 284.5,-491 284.5,-497 278.5,-503 272.5,-503"/>
<text text-anchor="middle" x="225" y="-487.8" font-family="Times,serif" font-size="14.00">Error</text>
<text text-anchor="middle" x="225" y="-472.8" font-family="Times,serif" font-size="14.00">History</text>
<text text-anchor="middle" x="225" y="-457.8" font-family="Times,serif" font-size="14.00">Buffer</text>
<text text-anchor="middle" x="225" y="-426.8" font-family="Times,serif" font-size="14.00">16&#45;entry</text>
<text text-anchor="middle" x="225" y="-411.8" font-family="Times,serif" font-size="14.00">circular buffer</text>
</g>
<!-- oor_detect&#45;&gt;error_log -->
<g id="edge10" class="edge">
<title>oor_detect&#45;&gt;error_log</title>
<path fill="none" stroke="purple" stroke-dasharray="1,5" d="M225,-581.79C225,-560.1 225,-535.32 225,-513.42"/>
<polygon fill="purple" stroke="purple" points="228.5,-513.26 225,-503.26 221.5,-513.26 228.5,-513.26"/>
<text text-anchor="middle" x="248.5" y="-556" font-family="Times,serif" font-size="10.00">Log OOR</text>
<text text-anchor="middle" x="248.5" y="-545" font-family="Times,serif" font-size="10.00">error</text>
</g>
<!-- protocol_check&#45;&gt;error_log -->
<g id="edge11" class="edge">
<title>protocol_check&#45;&gt;error_log</title>
<path fill="none" stroke="purple" stroke-dasharray="1,5" d="M123.3,-581.79C141.19,-559.41 161.69,-533.74 179.58,-511.35"/>
<polygon fill="purple" stroke="purple" points="182.54,-513.25 186.05,-503.26 177.07,-508.88 182.54,-513.25"/>
<text text-anchor="middle" x="184" y="-556" font-family="Times,serif" font-size="10.00">Log protocol</text>
<text text-anchor="middle" x="184" y="-545" font-family="Times,serif" font-size="10.00">violation</text>
</g>
<!-- timeout_resp -->
<g id="node9" class="node">
<title>timeout_resp</title>
<path fill="lightcyan" stroke="black" d="M592,-325C592,-325 468,-325 468,-325 462,-325 456,-319 456,-313 456,-313 456,-222 456,-222 456,-216 462,-210 468,-210 468,-210 592,-210 592,-210 598,-210 604,-216 604,-222 604,-222 604,-313 604,-313 604,-319 598,-325 592,-325"/>
<text text-anchor="middle" x="530" y="-309.8" font-family="Times,serif" font-size="14.00">Timeout Response</text>
<text text-anchor="middle" x="530" y="-294.8" font-family="Times,serif" font-size="14.00">Generator</text>
<text text-anchor="middle" x="530" y="-263.8" font-family="Times,serif" font-size="14.00">Force completion</text>
<text text-anchor="middle" x="530" y="-248.8" font-family="Times,serif" font-size="14.00">with DECERR</text>
<text text-anchor="middle" x="530" y="-217.8" font-family="Times,serif" font-size="14.00">Free CAM entry</text>
</g>
<!-- timeout_detect&#45;&gt;timeout_resp -->
<g id="edge6" class="edge">
<title>timeout_detect&#45;&gt;timeout_resp</title>
<path fill="none" stroke="orange" stroke-width="2" d="M535.93,-581.9C534.67,-515.53 532.59,-405.64 531.26,-335.19"/>
<polygon fill="orange" stroke="orange" stroke-width="2" points="534.76,-335.02 531.07,-325.09 527.76,-335.16 534.76,-335.02"/>
<text text-anchor="middle" x="554" y="-456.5" font-family="Times,serif" font-size="10.00">Force</text>
<text text-anchor="middle" x="554" y="-445.5" font-family="Times,serif" font-size="10.00">timeout</text>
</g>
<!-- timeout_detect&#45;&gt;error_log -->
<g id="edge12" class="edge">
<title>timeout_detect&#45;&gt;error_log</title>
<path fill="none" stroke="purple" stroke-dasharray="1,5" d="M464.18,-581.98C459.79,-579.18 455.38,-576.49 451,-574 410.47,-550.94 395.54,-555.19 354,-534 333.78,-523.69 312.54,-511.29 293.25,-499.39"/>
<polygon fill="purple" stroke="purple" points="294.88,-496.28 284.54,-493.97 291.18,-502.23 294.88,-496.28"/>
<text text-anchor="middle" x="462" y="-550.5" font-family="Times,serif" font-size="10.00">Log timeout</text>
</g>
<!-- cam_overflow&#45;&gt;aw_mon -->
<g id="edge9" class="edge">
<title>cam_overflow&#45;&gt;aw_mon</title>
<path fill="none" stroke="orange" stroke-dasharray="1,5" d="M326.65,-705.73C320.25,-715.6 314.14,-725.87 309,-736 288.64,-776.08 273.01,-825.23 263.5,-859.31"/>
<polygon fill="orange" stroke="orange" points="329.71,-707.45 332.33,-697.18 323.88,-703.57 329.71,-707.45"/>
<text text-anchor="middle" x="344" y="-750" font-family="Times,serif" font-size="10.00">Backpressure</text>
<text text-anchor="middle" x="344" y="-739" font-family="Times,serif" font-size="10.00">AWREADY=0</text>
</g>
<!-- error_resp -->
<g id="node13" class="node">
<title>error_resp</title>
<path fill="lightpink" stroke="black" d="M412.5,-131C412.5,-131 341.5,-131 341.5,-131 335.5,-131 329.5,-125 329.5,-119 329.5,-119 329.5,-28 329.5,-28 329.5,-22 335.5,-16 341.5,-16 341.5,-16 412.5,-16 412.5,-16 418.5,-16 424.5,-22 424.5,-28 424.5,-28 424.5,-119 424.5,-119 424.5,-125 418.5,-131 412.5,-131"/>
<text text-anchor="middle" x="377" y="-115.8" font-family="Times,serif" font-size="14.00">Error</text>
<text text-anchor="middle" x="377" y="-100.8" font-family="Times,serif" font-size="14.00">Responses</text>
<text text-anchor="middle" x="377" y="-69.8" font-family="Times,serif" font-size="14.00">DECERR</text>
<text text-anchor="middle" x="377" y="-54.8" font-family="Times,serif" font-size="14.00">SLVERR</text>
<text text-anchor="middle" x="377" y="-23.8" font-family="Times,serif" font-size="14.00">To masters</text>
</g>
<!-- oor_resp&#45;&gt;error_resp -->
<g id="edge4" class="edge">
<title>oor_resp&#45;&gt;error_resp</title>
<path fill="none" stroke="red" stroke-width="2" d="M377,-209.93C377,-188.45 377,-163.77 377,-141.41"/>
<polygon fill="red" stroke="red" stroke-width="2" points="380.5,-141.33 377,-131.33 373.5,-141.33 380.5,-141.33"/>
<text text-anchor="middle" x="400.5" y="-184" font-family="Times,serif" font-size="10.00">R or B</text>
<text text-anchor="middle" x="400.5" y="-173" font-family="Times,serif" font-size="10.00">response</text>
</g>
<!-- timeout_resp&#45;&gt;error_resp -->
<g id="edge7" class="edge">
<title>timeout_resp&#45;&gt;error_resp</title>
<path fill="none" stroke="orange" stroke-width="2" d="M484.92,-209.93C467.26,-187.77 446.89,-162.21 428.64,-139.31"/>
<polygon fill="orange" stroke="orange" stroke-width="2" points="431.25,-136.97 422.28,-131.33 425.78,-141.33 431.25,-136.97"/>
<text text-anchor="middle" x="490" y="-184" font-family="Times,serif" font-size="10.00">R or B</text>
<text text-anchor="middle" x="490" y="-173" font-family="Times,serif" font-size="10.00">DECERR</text>
</g>
<!-- status_reg -->
<g id="node11" class="node">
<title>status_reg</title>
<path fill="thistle" stroke="black" d="M143.5,-325C143.5,-325 48.5,-325 48.5,-325 42.5,-325 36.5,-319 36.5,-313 36.5,-313 36.5,-222 36.5,-222 36.5,-216 42.5,-210 48.5,-210 48.5,-210 143.5,-210 143.5,-210 149.5,-210 155.5,-216 155.5,-222 155.5,-222 155.5,-313 155.5,-313 155.5,-319 149.5,-325 143.5,-325"/>
<text text-anchor="middle" x="96" y="-309.8" font-family="Times,serif" font-size="14.00">Error Status</text>
<text text-anchor="middle" x="96" y="-294.8" font-family="Times,serif" font-size="14.00">Register</text>
<text text-anchor="middle" x="96" y="-263.8" font-family="Times,serif" font-size="14.00">OOR, timeout,</text>
<text text-anchor="middle" x="96" y="-248.8" font-family="Times,serif" font-size="14.00">protocol, CAM</text>
<text text-anchor="middle" x="96" y="-217.8" font-family="Times,serif" font-size="14.00">W1C bits</text>
</g>
<!-- error_log&#45;&gt;status_reg -->
<g id="edge13" class="edge">
<title>error_log&#45;&gt;status_reg</title>
<path fill="none" stroke="purple" d="M190.77,-403.67C175.68,-382.15 157.73,-356.55 141.53,-333.44"/>
<polygon fill="purple" stroke="purple" points="144.26,-331.24 135.65,-325.06 138.53,-335.25 144.26,-331.24"/>
<text text-anchor="middle" x="195" y="-378" font-family="Times,serif" font-size="10.00">Update</text>
<text text-anchor="middle" x="195" y="-367" font-family="Times,serif" font-size="10.00">status</text>
</g>
<!-- error_count -->
<g id="node12" class="node">
<title>error_count</title>
<path fill="thistle" stroke="black" d="M280,-309.5C280,-309.5 186,-309.5 186,-309.5 180,-309.5 174,-303.5 174,-297.5 174,-297.5 174,-237.5 174,-237.5 174,-231.5 180,-225.5 186,-225.5 186,-225.5 280,-225.5 280,-225.5 286,-225.5 292,-231.5 292,-237.5 292,-237.5 292,-297.5 292,-297.5 292,-303.5 286,-309.5 280,-309.5"/>
<text text-anchor="middle" x="233" y="-294.3" font-family="Times,serif" font-size="14.00">Error</text>
<text text-anchor="middle" x="233" y="-279.3" font-family="Times,serif" font-size="14.00">Counters</text>
<text text-anchor="middle" x="233" y="-248.3" font-family="Times,serif" font-size="14.00">Per error type</text>
<text text-anchor="middle" x="233" y="-233.3" font-family="Times,serif" font-size="14.00">Saturating</text>
</g>
<!-- error_log&#45;&gt;error_count -->
<g id="edge14" class="edge">
<title>error_log&#45;&gt;error_count</title>
<path fill="none" stroke="purple" d="M227.12,-403.67C228.25,-377.83 229.63,-346.1 230.77,-319.88"/>
<polygon fill="purple" stroke="purple" points="234.27,-319.9 231.21,-309.76 227.28,-319.59 234.27,-319.9"/>
<text text-anchor="middle" x="255.5" y="-378" font-family="Times,serif" font-size="10.00">Increment</text>
<text text-anchor="middle" x="255.5" y="-367" font-family="Times,serif" font-size="10.00">counter</text>
</g>
<!-- error_int -->
<g id="node14" class="node">
<title>error_int</title>
<path fill="lightpink" stroke="black" d="M299,-123C299,-123 205,-123 205,-123 199,-123 193,-117 193,-111 193,-111 193,-36 193,-36 193,-30 199,-24 205,-24 205,-24 299,-24 299,-24 305,-24 311,-30 311,-36 311,-36 311,-111 311,-111 311,-117 305,-123 299,-123"/>
<text text-anchor="middle" x="252" y="-107.8" font-family="Times,serif" font-size="14.00">Error</text>
<text text-anchor="middle" x="252" y="-92.8" font-family="Times,serif" font-size="14.00">Interrupts</text>
<text text-anchor="middle" x="252" y="-77.8" font-family="Times,serif" font-size="14.00">(optional)</text>
<text text-anchor="middle" x="252" y="-46.8" font-family="Times,serif" font-size="14.00">Configurable</text>
<text text-anchor="middle" x="252" y="-31.8" font-family="Times,serif" font-size="14.00">per error type</text>
</g>
<!-- status_reg&#45;&gt;error_int -->
<g id="edge15" class="edge">
<title>status_reg&#45;&gt;error_int</title>
<path fill="none" stroke="red" stroke-dasharray="1,5" d="M141.96,-209.93C162.15,-185.08 185.82,-155.96 206.01,-131.1"/>
<polygon fill="red" stroke="red" points="208.85,-133.16 212.44,-123.19 203.42,-128.74 208.85,-133.16"/>
<text text-anchor="middle" x="198" y="-184" font-family="Times,serif" font-size="10.00">Generate</text>
<text text-anchor="middle" x="198" y="-173" font-family="Times,serif" font-size="10.00">interrupt</text>
</g>
<!-- error_types -->
<g id="node15" class="node">
<title>error_types</title>
<polygon fill="lightyellow" stroke="black" points="904.5,-1027 621.5,-1027 621.5,-776 910.5,-776 910.5,-1021 904.5,-1027"/>
<polyline fill="none" stroke="black" points="904.5,-1027 904.5,-1021 "/>
<polyline fill="none" stroke="black" points="910.5,-1021 904.5,-1021 "/>
<text text-anchor="middle" x="766" y="-1011.8" font-family="Times,serif" font-size="14.00">Error Categories</text>
<text text-anchor="middle" x="766" y="-980.8" font-family="Times,serif" font-size="14.00">Transaction Errors:</text>
<text text-anchor="middle" x="766" y="-965.8" font-family="Times,serif" font-size="14.00">• Out&#45;of&#45;Range addresses → DECERR</text>
<text text-anchor="middle" x="766" y="-950.8" font-family="Times,serif" font-size="14.00">• Protocol violations → SLVERR/log</text>
<text text-anchor="middle" x="766" y="-935.8" font-family="Times,serif" font-size="14.00">• Slave errors → Forward unchanged</text>
<text text-anchor="middle" x="766" y="-904.8" font-family="Times,serif" font-size="14.00">System Errors:</text>
<text text-anchor="middle" x="766" y="-889.8" font-family="Times,serif" font-size="14.00">• Timeout conditions → DECERR</text>
<text text-anchor="middle" x="766" y="-874.8" font-family="Times,serif" font-size="14.00">• CAM overflow → Backpressure</text>
<text text-anchor="middle" x="766" y="-859.8" font-family="Times,serif" font-size="14.00">• Configuration errors → Gen&#45;time fail</text>
<text text-anchor="middle" x="766" y="-828.8" font-family="Times,serif" font-size="14.00">Recovery:</text>
<text text-anchor="middle" x="766" y="-813.8" font-family="Times,serif" font-size="14.00">• OOR: Auto&#45;generate response</text>
<text text-anchor="middle" x="766" y="-798.8" font-family="Times,serif" font-size="14.00">• Timeout: Force completion</text>
<text text-anchor="middle" x="766" y="-783.8" font-family="Times,serif" font-size="14.00">• CAM full: Wait for free entries</text>
</g>
<!-- config -->
<g id="node16" class="node">
<title>config</title>
<polygon fill="lightgray" stroke="black" points="1195.5,-1012 928.5,-1012 928.5,-791 1201.5,-791 1201.5,-1006 1195.5,-1012"/>
<polyline fill="none" stroke="black" points="1195.5,-1012 1195.5,-1006 "/>
<polyline fill="none" stroke="black" points="1201.5,-1006 1195.5,-1006 "/>
<text text-anchor="middle" x="1065" y="-996.8" font-family="Times,serif" font-size="14.00">Configuration</text>
<text text-anchor="middle" x="1065" y="-965.8" font-family="Times,serif" font-size="14.00">OOR Handling:</text>
<text text-anchor="middle" x="1065" y="-950.8" font-family="Times,serif" font-size="14.00">• enable_oor_errors = true</text>
<text text-anchor="middle" x="1065" y="-935.8" font-family="Times,serif" font-size="14.00">• oor_response_type = &quot;decerr&quot;</text>
<text text-anchor="middle" x="1065" y="-920.8" font-family="Times,serif" font-size="14.00">• oor_read_pattern = 0xDEADCAFE</text>
<text text-anchor="middle" x="1065" y="-889.8" font-family="Times,serif" font-size="14.00">Timeout:</text>
<text text-anchor="middle" x="1065" y="-874.8" font-family="Times,serif" font-size="14.00">• enable_timeout = true</text>
<text text-anchor="middle" x="1065" y="-859.8" font-family="Times,serif" font-size="14.00">• timeout_cycles = 10000</text>
<text text-anchor="middle" x="1065" y="-828.8" font-family="Times,serif" font-size="14.00">Logging:</text>
<text text-anchor="middle" x="1065" y="-813.8" font-family="Times,serif" font-size="14.00">• enable_error_log = true</text>
<text text-anchor="middle" x="1065" y="-798.8" font-family="Times,serif" font-size="14.00">• error_log_depth = 16</text>
</g>
<!-- leg_detect -->
<g id="node17" class="node">
<title>leg_detect</title>
<polygon fill="lightcoral" stroke="black" points="1937.5,-919.5 1808.5,-919.5 1808.5,-883.5 1937.5,-883.5 1937.5,-919.5"/>
<text text-anchor="middle" x="1873" y="-897.8" font-family="Times,serif" font-size="14.00">Error Detection</text>
</g>
<!-- leg_gen -->
<g id="node18" class="node">
<title>leg_gen</title>
<polygon fill="lightcyan" stroke="black" points="1790.5,-919.5 1621.5,-919.5 1621.5,-883.5 1790.5,-883.5 1790.5,-919.5"/>
<text text-anchor="middle" x="1706" y="-897.8" font-family="Times,serif" font-size="14.00">Response Generation</text>
</g>
<!-- leg_log -->
<g id="node19" class="node">
<title>leg_log</title>
<polygon fill="thistle" stroke="black" points="1603.5,-919.5 1460.5,-919.5 1460.5,-883.5 1603.5,-883.5 1603.5,-919.5"/>
<text text-anchor="middle" x="1532" y="-897.8" font-family="Times,serif" font-size="14.00">Logging &amp; Status</text>
</g>
<!-- leg_error -->
<g id="node20" class="node">
<title>leg_error</title>
<polygon fill="none" stroke="red" stroke-width="2" points="1442,-919.5 1350,-919.5 1350,-883.5 1442,-883.5 1442,-919.5"/>
<text text-anchor="middle" x="1396" y="-897.8" font-family="Times,serif" font-size="14.00">Error Path</text>
</g>
<!-- leg_timeout -->
<g id="node21" class="node">
<title>leg_timeout</title>
<polygon fill="none" stroke="orange" stroke-width="2" points="1332,-919.5 1220,-919.5 1220,-883.5 1332,-883.5 1332,-919.5"/>
<text text-anchor="middle" x="1276" y="-897.8" font-family="Times,serif" font-size="14.00">Timeout Path</text>
</g>
</g>
</svg>
