<?xml version="1.0" encoding="UTF-8" standalone="no"?>
<!DOCTYPE svg PUBLIC "-//W3C//DTD SVG 1.1//EN"
 "http://www.w3.org/Graphics/SVG/1.1/DTD/svg11.dtd">
<!-- Generated by graphviz version 2.43.0 (0)
 -->
<!-- Title: id_management Pages: 1 -->
<svg width="844pt" height="1360pt"
 viewBox="0.00 0.00 844.00 1360.00" xmlns="http://www.w3.org/2000/svg" xmlns:xlink="http://www.w3.org/1999/xlink">
<g id="graph0" class="graph" transform="scale(1 1) rotate(0) translate(4 1356)">
<title>id_management</title>
<polygon fill="white" stroke="transparent" points="-4,4 -4,-1356 840,-1356 840,4 -4,4"/>
<text text-anchor="middle" x="418" y="-1336.8" font-family="Times,serif" font-size="14.00">ID Management Architecture</text>
<text text-anchor="middle" x="418" y="-1321.8" font-family="Times,serif" font-size="14.00">CAM/FIFO Transaction Tracking</text>
<g id="clust1" class="cluster">
<title>cluster_request</title>
<polygon fill="lightgreen" stroke="black" points="53.5,-366 53.5,-591 224.5,-591 224.5,-366 53.5,-366"/>
<text text-anchor="middle" x="139" y="-575.8" font-family="Times,serif" font-size="14.00">Transaction Requests</text>
</g>
<g id="clust2" class="cluster">
<title>cluster_cam</title>
<polygon fill="lightyellow" stroke="black" points="368,-388 368,-645 828,-645 828,-388 368,-388"/>
<text text-anchor="middle" x="598" y="-629.8" font-family="Times,serif" font-size="14.00">CAM Mode (enable_ooo=1)</text>
</g>
<g id="clust3" class="cluster">
<title>cluster_fifo</title>
<polygon fill="wheat" stroke="black" points="379,-8 379,-233 804,-233 804,-8 379,-8"/>
<text text-anchor="middle" x="591.5" y="-217.8" font-family="Times,serif" font-size="14.00">FIFO Mode (enable_ooo=0)</text>
</g>
<g id="clust4" class="cluster">
<title>cluster_response</title>
<polygon fill="lightcoral" stroke="black" points="48.5,-44 48.5,-269 229.5,-269 229.5,-44 48.5,-44"/>
<text text-anchor="middle" x="139" y="-253.8" font-family="Times,serif" font-size="14.00">Transaction Responses</text>
</g>
<g id="clust5" class="cluster">
<title>cluster_routing</title>
<polygon fill="plum" stroke="black" points="634,-241 634,-380 782,-380 782,-241 634,-241"/>
<text text-anchor="middle" x="708" y="-364.8" font-family="Times,serif" font-size="14.00">Response Routing</text>
</g>
<g id="clust6" class="cluster">
<title>cluster_legend</title>
<polygon fill="white" stroke="black" points="34,-1069 34,-1306 243,-1306 243,-1069 34,-1069"/>
<text text-anchor="middle" x="138.5" y="-1290.8" font-family="Times,serif" font-size="14.00">Legend</text>
</g>
<!-- aw_req -->
<g id="node1" class="node">
<title>aw_req</title>
<path fill="palegreen" stroke="black" d="M198.5,-560C198.5,-560 78.5,-560 78.5,-560 72.5,-560 66.5,-554 66.5,-548 66.5,-548 66.5,-488 66.5,-488 66.5,-482 72.5,-476 78.5,-476 78.5,-476 198.5,-476 198.5,-476 204.5,-476 210.5,-482 210.5,-488 210.5,-488 210.5,-548 210.5,-548 210.5,-554 204.5,-560 198.5,-560"/>
<text text-anchor="middle" x="138.5" y="-544.8" font-family="Times,serif" font-size="14.00">AW Request</text>
<text text-anchor="middle" x="138.5" y="-513.8" font-family="Times,serif" font-size="14.00">AWID (extended)</text>
<text text-anchor="middle" x="138.5" y="-498.8" font-family="Times,serif" font-size="14.00">{bridge_id, awid}</text>
<text text-anchor="middle" x="138.5" y="-483.8" font-family="Times,serif" font-size="14.00">to slave</text>
</g>
<!-- cam_alloc -->
<g id="node5" class="node">
<title>cam_alloc</title>
<path fill="lightsteelblue" stroke="black" d="M486,-614C486,-614 391,-614 391,-614 385,-614 379,-608 379,-602 379,-602 379,-542 379,-542 379,-536 385,-530 391,-530 391,-530 486,-530 486,-530 492,-530 498,-536 498,-542 498,-542 498,-602 498,-602 498,-608 492,-614 486,-614"/>
<text text-anchor="middle" x="438.5" y="-598.8" font-family="Times,serif" font-size="14.00">Entry</text>
<text text-anchor="middle" x="438.5" y="-583.8" font-family="Times,serif" font-size="14.00">Allocation</text>
<text text-anchor="middle" x="438.5" y="-552.8" font-family="Times,serif" font-size="14.00">Find free slot</text>
<text text-anchor="middle" x="438.5" y="-537.8" font-family="Times,serif" font-size="14.00">Write tag/data</text>
</g>
<!-- aw_req&#45;&gt;cam_alloc -->
<g id="edge1" class="edge">
<title>aw_req&#45;&gt;cam_alloc</title>
<path fill="none" stroke="blue" stroke-width="2" d="M210.88,-530.93C258.78,-539.62 321.54,-550.99 368.86,-559.56"/>
<polygon fill="blue" stroke="blue" stroke-width="2" points="368.25,-563.01 378.72,-561.35 369.5,-556.12 368.25,-563.01"/>
<text text-anchor="middle" x="326.5" y="-571" font-family="Times,serif" font-size="10.00">Store on</text>
<text text-anchor="middle" x="326.5" y="-560" font-family="Times,serif" font-size="10.00">AW transfer</text>
</g>
<!-- fifo_push -->
<g id="node8" class="node">
<title>fifo_push</title>
<path fill="lightsteelblue" stroke="black" d="M473,-202C473,-202 404,-202 404,-202 398,-202 392,-196 392,-190 392,-190 392,-130 392,-130 392,-124 398,-118 404,-118 404,-118 473,-118 473,-118 479,-118 485,-124 485,-130 485,-130 485,-190 485,-190 485,-196 479,-202 473,-202"/>
<text text-anchor="middle" x="438.5" y="-186.8" font-family="Times,serif" font-size="14.00">FIFO Push</text>
<text text-anchor="middle" x="438.5" y="-155.8" font-family="Times,serif" font-size="14.00">Enqueue</text>
<text text-anchor="middle" x="438.5" y="-140.8" font-family="Times,serif" font-size="14.00">bridge_id</text>
<text text-anchor="middle" x="438.5" y="-125.8" font-family="Times,serif" font-size="14.00">on request</text>
</g>
<!-- aw_req&#45;&gt;fifo_push -->
<g id="edge9" class="edge">
<title>aw_req&#45;&gt;fifo_push</title>
<path fill="none" stroke="blue" stroke-dasharray="5,2" d="M210.67,-522.96C259.33,-522.17 321.41,-512.21 358,-472 371.25,-457.44 363.95,-403.26 368,-384 380.63,-323.86 402.52,-256.77 418.37,-211.84"/>
<polygon fill="blue" stroke="blue" points="421.7,-212.91 421.75,-202.31 415.11,-210.56 421.7,-212.91"/>
<text text-anchor="middle" x="326.5" y="-523" font-family="Times,serif" font-size="10.00">Enqueue on</text>
<text text-anchor="middle" x="326.5" y="-512" font-family="Times,serif" font-size="10.00">AW transfer</text>
</g>
<!-- ar_req -->
<g id="node2" class="node">
<title>ar_req</title>
<path fill="palegreen" stroke="black" d="M196,-458C196,-458 81,-458 81,-458 75,-458 69,-452 69,-446 69,-446 69,-386 69,-386 69,-380 75,-374 81,-374 81,-374 196,-374 196,-374 202,-374 208,-380 208,-386 208,-386 208,-446 208,-446 208,-452 202,-458 196,-458"/>
<text text-anchor="middle" x="138.5" y="-442.8" font-family="Times,serif" font-size="14.00">AR Request</text>
<text text-anchor="middle" x="138.5" y="-411.8" font-family="Times,serif" font-size="14.00">ARID (extended)</text>
<text text-anchor="middle" x="138.5" y="-396.8" font-family="Times,serif" font-size="14.00">{bridge_id, arid}</text>
<text text-anchor="middle" x="138.5" y="-381.8" font-family="Times,serif" font-size="14.00">to slave</text>
</g>
<!-- ar_req&#45;&gt;cam_alloc -->
<g id="edge2" class="edge">
<title>ar_req&#45;&gt;cam_alloc</title>
<path fill="none" stroke="green" stroke-width="2" d="M208.13,-407.12C256.69,-404.96 319.73,-411.18 358,-450 380.37,-472.7 351.65,-493.65 368,-521 369.31,-523.19 370.75,-525.32 372.31,-527.38"/>
<polygon fill="green" stroke="green" stroke-width="2" points="369.65,-529.65 378.8,-534.99 374.98,-525.11 369.65,-529.65"/>
<text text-anchor="middle" x="326.5" y="-464" font-family="Times,serif" font-size="10.00">Store on</text>
<text text-anchor="middle" x="326.5" y="-453" font-family="Times,serif" font-size="10.00">AR transfer</text>
</g>
<!-- ar_req&#45;&gt;fifo_push -->
<g id="edge10" class="edge">
<title>ar_req&#45;&gt;fifo_push</title>
<path fill="none" stroke="green" stroke-dasharray="5,2" d="M187.89,-373.83C216.49,-347.06 251.91,-310.5 277,-273 288.07,-256.46 281.31,-246.45 295,-232 318.72,-206.96 353.05,-189.25 382.07,-177.66"/>
<polygon fill="green" stroke="green" points="383.6,-180.82 391.68,-173.97 381.09,-174.29 383.6,-180.82"/>
<text text-anchor="middle" x="326.5" y="-246" font-family="Times,serif" font-size="10.00">Enqueue on</text>
<text text-anchor="middle" x="326.5" y="-235" font-family="Times,serif" font-size="10.00">AR transfer</text>
</g>
<!-- cam_store -->
<g id="node3" class="node">
<title>cam_store</title>
<path fill="lightcyan" stroke="black" d="M808,-614C808,-614 608,-614 608,-614 602,-614 596,-608 596,-602 596,-602 596,-526 596,-526 596,-520 602,-514 608,-514 608,-514 808,-514 808,-514 814,-514 820,-520 820,-526 820,-526 820,-602 820,-602 820,-608 814,-614 808,-614"/>
<text text-anchor="middle" x="708" y="-598.8" font-family="Times,serif" font-size="14.00">CAM Storage</text>
<text text-anchor="middle" x="708" y="-567.8" font-family="Times,serif" font-size="14.00">Tag: Transaction ID</text>
<text text-anchor="middle" x="708" y="-552.8" font-family="Times,serif" font-size="14.00">Data: {bridge_id, master_id}</text>
<text text-anchor="middle" x="708" y="-521.8" font-family="Times,serif" font-size="14.00">Depth: 16&#45;64 entries</text>
</g>
<!-- cam_lookup -->
<g id="node4" class="node">
<title>cam_lookup</title>
<path fill="khaki" stroke="black" d="M489,-511.5C489,-511.5 388,-511.5 388,-511.5 382,-511.5 376,-505.5 376,-499.5 376,-499.5 376,-408.5 376,-408.5 376,-402.5 382,-396.5 388,-396.5 388,-396.5 489,-396.5 489,-396.5 495,-396.5 501,-402.5 501,-408.5 501,-408.5 501,-499.5 501,-499.5 501,-505.5 495,-511.5 489,-511.5"/>
<text text-anchor="middle" x="438.5" y="-496.3" font-family="Times,serif" font-size="14.00">CAM Lookup</text>
<text text-anchor="middle" x="438.5" y="-465.3" font-family="Times,serif" font-size="14.00">Match RID/BID</text>
<text text-anchor="middle" x="438.5" y="-450.3" font-family="Times,serif" font-size="14.00">→ bridge_id</text>
<text text-anchor="middle" x="438.5" y="-419.3" font-family="Times,serif" font-size="14.00">Associative</text>
<text text-anchor="middle" x="438.5" y="-404.3" font-family="Times,serif" font-size="14.00">search</text>
</g>
<!-- cam_lookup&#45;&gt;cam_store -->
<g id="edge6" class="edge">
<title>cam_lookup&#45;&gt;cam_store</title>
<path fill="none" stroke="purple" stroke-dasharray="1,5" d="M501.21,-479.37C526.61,-489.82 556.97,-502.3 586.46,-514.43"/>
<polygon fill="purple" stroke="purple" points="585.41,-517.79 595.99,-518.35 588.08,-511.31 585.41,-517.79"/>
<text text-anchor="middle" x="548.5" y="-523" font-family="Times,serif" font-size="10.00">Search</text>
<text text-anchor="middle" x="548.5" y="-512" font-family="Times,serif" font-size="10.00">CAM</text>
</g>
<!-- cam_free -->
<g id="node6" class="node">
<title>cam_free</title>
<path fill="lightcoral" stroke="black" d="M748.5,-496C748.5,-496 667.5,-496 667.5,-496 661.5,-496 655.5,-490 655.5,-484 655.5,-484 655.5,-424 655.5,-424 655.5,-418 661.5,-412 667.5,-412 667.5,-412 748.5,-412 748.5,-412 754.5,-412 760.5,-418 760.5,-424 760.5,-424 760.5,-484 760.5,-484 760.5,-490 754.5,-496 748.5,-496"/>
<text text-anchor="middle" x="708" y="-480.8" font-family="Times,serif" font-size="14.00">Entry</text>
<text text-anchor="middle" x="708" y="-465.8" font-family="Times,serif" font-size="14.00">Deallocation</text>
<text text-anchor="middle" x="708" y="-434.8" font-family="Times,serif" font-size="14.00">Clear on</text>
<text text-anchor="middle" x="708" y="-419.8" font-family="Times,serif" font-size="14.00">response</text>
</g>
<!-- cam_lookup&#45;&gt;cam_free -->
<g id="edge8" class="edge">
<title>cam_lookup&#45;&gt;cam_free</title>
<path fill="none" stroke="red" stroke-dasharray="1,5" d="M501.21,-454C544.49,-454 602.12,-454 645.38,-454"/>
<polygon fill="red" stroke="red" points="645.49,-457.5 655.49,-454 645.49,-450.5 645.49,-457.5"/>
<text text-anchor="middle" x="548.5" y="-468" font-family="Times,serif" font-size="10.00">Free entry</text>
<text text-anchor="middle" x="548.5" y="-457" font-family="Times,serif" font-size="10.00">after match</text>
</g>
<!-- route_out -->
<g id="node12" class="node">
<title>route_out</title>
<path fill="thistle" stroke="black" d="M762,-349C762,-349 654,-349 654,-349 648,-349 642,-343 642,-337 642,-337 642,-261 642,-261 642,-255 648,-249 654,-249 654,-249 762,-249 762,-249 768,-249 774,-255 774,-261 774,-261 774,-337 774,-337 774,-343 768,-349 762,-349"/>
<text text-anchor="middle" x="708" y="-333.8" font-family="Times,serif" font-size="14.00">Route Control</text>
<text text-anchor="middle" x="708" y="-302.8" font-family="Times,serif" font-size="14.00">bridge_id match</text>
<text text-anchor="middle" x="708" y="-287.8" font-family="Times,serif" font-size="14.00">→ select master</text>
<text text-anchor="middle" x="708" y="-256.8" font-family="Times,serif" font-size="14.00">Demux control</text>
</g>
<!-- cam_lookup&#45;&gt;route_out -->
<g id="edge7" class="edge">
<title>cam_lookup&#45;&gt;route_out</title>
<path fill="none" stroke="purple" stroke-width="2" d="M501.21,-418.25C540.53,-395.46 591.7,-365.81 633.18,-341.78"/>
<polygon fill="purple" stroke="purple" stroke-width="2" points="634.98,-344.78 641.87,-336.74 631.47,-338.72 634.98,-344.78"/>
<text text-anchor="middle" x="548.5" y="-418" font-family="Times,serif" font-size="10.00">bridge_id</text>
<text text-anchor="middle" x="548.5" y="-407" font-family="Times,serif" font-size="10.00">found</text>
</g>
<!-- cam_alloc&#45;&gt;cam_store -->
<g id="edge3" class="edge">
<title>cam_alloc&#45;&gt;cam_store</title>
<path fill="none" stroke="blue" d="M498.2,-570.24C523.97,-569.47 555.24,-568.54 585.64,-567.63"/>
<polygon fill="blue" stroke="blue" points="586.02,-571.12 595.91,-567.32 585.81,-564.12 586.02,-571.12"/>
<text text-anchor="middle" x="548.5" y="-583" font-family="Times,serif" font-size="10.00">Write</text>
<text text-anchor="middle" x="548.5" y="-572" font-family="Times,serif" font-size="10.00">entry</text>
</g>
<!-- fifo_store -->
<g id="node7" class="node">
<title>fifo_store</title>
<path fill="lightcyan" stroke="black" d="M784,-148C784,-148 632,-148 632,-148 626,-148 620,-142 620,-136 620,-136 620,-60 620,-60 620,-54 626,-48 632,-48 632,-48 784,-48 784,-48 790,-48 796,-54 796,-60 796,-60 796,-136 796,-136 796,-142 790,-148 784,-148"/>
<text text-anchor="middle" x="708" y="-132.8" font-family="Times,serif" font-size="14.00">FIFO Storage</text>
<text text-anchor="middle" x="708" y="-101.8" font-family="Times,serif" font-size="14.00">FIFO: bridge_id queue</text>
<text text-anchor="middle" x="708" y="-86.8" font-family="Times,serif" font-size="14.00">Depth: configurable</text>
<text text-anchor="middle" x="708" y="-55.8" font-family="Times,serif" font-size="14.00">Fast, simple</text>
</g>
<!-- fifo_push&#45;&gt;fifo_store -->
<g id="edge11" class="edge">
<title>fifo_push&#45;&gt;fifo_store</title>
<path fill="none" stroke="blue" stroke-dasharray="5,2" d="M485.18,-149.41C519.38,-141.49 567.39,-130.36 610.01,-120.48"/>
<polygon fill="blue" stroke="blue" points="610.91,-123.86 619.87,-118.2 609.33,-117.04 610.91,-123.86"/>
<text text-anchor="middle" x="548.5" y="-154" font-family="Times,serif" font-size="10.00">Push</text>
<text text-anchor="middle" x="548.5" y="-143" font-family="Times,serif" font-size="10.00">bridge_id</text>
</g>
<!-- fifo_pop -->
<g id="node9" class="node">
<title>fifo_pop</title>
<path fill="lightcoral" stroke="black" d="M478,-100C478,-100 399,-100 399,-100 393,-100 387,-94 387,-88 387,-88 387,-28 387,-28 387,-22 393,-16 399,-16 399,-16 478,-16 478,-16 484,-16 490,-22 490,-28 490,-28 490,-88 490,-88 490,-94 484,-100 478,-100"/>
<text text-anchor="middle" x="438.5" y="-84.8" font-family="Times,serif" font-size="14.00">FIFO Pop</text>
<text text-anchor="middle" x="438.5" y="-53.8" font-family="Times,serif" font-size="14.00">Dequeue</text>
<text text-anchor="middle" x="438.5" y="-38.8" font-family="Times,serif" font-size="14.00">bridge_id</text>
<text text-anchor="middle" x="438.5" y="-23.8" font-family="Times,serif" font-size="14.00">on response</text>
</g>
<!-- fifo_pop&#45;&gt;fifo_store -->
<g id="edge14" class="edge">
<title>fifo_pop&#45;&gt;fifo_store</title>
<path fill="none" stroke="purple" stroke-dasharray="5,2" d="M490.13,-65.57C523.92,-70.62 569.44,-77.43 610.06,-83.5"/>
<polygon fill="purple" stroke="purple" points="609.58,-86.97 619.99,-84.99 610.62,-80.05 609.58,-86.97"/>
<text text-anchor="middle" x="548.5" y="-92" font-family="Times,serif" font-size="10.00">Pop</text>
<text text-anchor="middle" x="548.5" y="-81" font-family="Times,serif" font-size="10.00">bridge_id</text>
</g>
<!-- fifo_pop&#45;&gt;route_out -->
<g id="edge15" class="edge">
<title>fifo_pop&#45;&gt;route_out</title>
<path fill="none" stroke="purple" stroke-dasharray="5,2" d="M490.06,-95.51C494.09,-99.77 497.83,-104.28 501,-109 515.83,-131.04 504.76,-143.58 519,-166 543.96,-205.29 558.31,-209.68 596,-237 607.54,-245.37 620.33,-253.46 633,-260.88"/>
<polygon fill="purple" stroke="purple" points="631.32,-263.95 641.73,-265.91 634.81,-257.89 631.32,-263.95"/>
<text text-anchor="middle" x="548.5" y="-239" font-family="Times,serif" font-size="10.00">bridge_id</text>
<text text-anchor="middle" x="548.5" y="-228" font-family="Times,serif" font-size="10.00">to route</text>
</g>
<!-- b_resp -->
<g id="node10" class="node">
<title>b_resp</title>
<path fill="lightpink" stroke="black" d="M188,-238C188,-238 89,-238 89,-238 83,-238 77,-232 77,-226 77,-226 77,-166 77,-166 77,-160 83,-154 89,-154 89,-154 188,-154 188,-154 194,-154 200,-160 200,-166 200,-166 200,-226 200,-226 200,-232 194,-238 188,-238"/>
<text text-anchor="middle" x="138.5" y="-222.8" font-family="Times,serif" font-size="14.00">B Response</text>
<text text-anchor="middle" x="138.5" y="-191.8" font-family="Times,serif" font-size="14.00">BID from slave</text>
<text text-anchor="middle" x="138.5" y="-176.8" font-family="Times,serif" font-size="14.00">Match to</text>
<text text-anchor="middle" x="138.5" y="-161.8" font-family="Times,serif" font-size="14.00">bridge_id</text>
</g>
<!-- b_resp&#45;&gt;cam_lookup -->
<g id="edge4" class="edge">
<title>b_resp&#45;&gt;cam_lookup</title>
<path fill="none" stroke="purple" stroke-width="2" d="M188.04,-238.03C236.95,-280.37 312.89,-346.12 368.14,-393.95"/>
<polygon fill="purple" stroke="purple" stroke-width="2" points="365.94,-396.68 375.79,-400.58 370.53,-391.39 365.94,-396.68"/>
<text text-anchor="middle" x="326.5" y="-399" font-family="Times,serif" font-size="10.00">BID</text>
<text text-anchor="middle" x="326.5" y="-388" font-family="Times,serif" font-size="10.00">lookup</text>
</g>
<!-- b_resp&#45;&gt;fifo_pop -->
<g id="edge12" class="edge">
<title>b_resp&#45;&gt;fifo_pop</title>
<path fill="none" stroke="purple" stroke-dasharray="5,2" d="M200.15,-175.6C224.36,-166.91 252.31,-156.2 277,-145 311.13,-129.51 347.98,-109.77 377.76,-93"/>
<polygon fill="purple" stroke="purple" points="379.78,-95.88 386.76,-87.9 376.33,-89.79 379.78,-95.88"/>
<text text-anchor="middle" x="326.5" y="-149" font-family="Times,serif" font-size="10.00">Dequeue</text>
<text text-anchor="middle" x="326.5" y="-138" font-family="Times,serif" font-size="10.00">(in&#45;order)</text>
</g>
<!-- r_resp -->
<g id="node11" class="node">
<title>r_resp</title>
<path fill="lightpink" stroke="black" d="M193.5,-136C193.5,-136 83.5,-136 83.5,-136 77.5,-136 71.5,-130 71.5,-124 71.5,-124 71.5,-64 71.5,-64 71.5,-58 77.5,-52 83.5,-52 83.5,-52 193.5,-52 193.5,-52 199.5,-52 205.5,-58 205.5,-64 205.5,-64 205.5,-124 205.5,-124 205.5,-130 199.5,-136 193.5,-136"/>
<text text-anchor="middle" x="138.5" y="-120.8" font-family="Times,serif" font-size="14.00">R Response</text>
<text text-anchor="middle" x="138.5" y="-89.8" font-family="Times,serif" font-size="14.00">RID from slave</text>
<text text-anchor="middle" x="138.5" y="-74.8" font-family="Times,serif" font-size="14.00">RLAST indicates</text>
<text text-anchor="middle" x="138.5" y="-59.8" font-family="Times,serif" font-size="14.00">complete</text>
</g>
<!-- r_resp&#45;&gt;cam_lookup -->
<g id="edge5" class="edge">
<title>r_resp&#45;&gt;cam_lookup</title>
<path fill="none" stroke="purple" stroke-width="2" d="M205.62,-103.86C231.54,-111.05 259.26,-123.49 277,-145 308.24,-182.88 270.71,-211.33 295,-254 313.1,-285.8 334.89,-278.63 358,-307 377.67,-331.15 394.82,-360.89 408.11,-387.29"/>
<polygon fill="purple" stroke="purple" stroke-width="2" points="405.08,-389.06 412.65,-396.47 411.36,-385.96 405.08,-389.06"/>
<text text-anchor="middle" x="326.5" y="-321" font-family="Times,serif" font-size="10.00">RID</text>
<text text-anchor="middle" x="326.5" y="-310" font-family="Times,serif" font-size="10.00">lookup</text>
</g>
<!-- r_resp&#45;&gt;fifo_pop -->
<g id="edge13" class="edge">
<title>r_resp&#45;&gt;fifo_pop</title>
<path fill="none" stroke="purple" stroke-dasharray="5,2" d="M205.64,-86.01C256.81,-79.83 327.1,-71.34 376.84,-65.33"/>
<polygon fill="purple" stroke="purple" points="377.31,-68.8 386.82,-64.12 376.47,-61.85 377.31,-68.8"/>
<text text-anchor="middle" x="326.5" y="-89" font-family="Times,serif" font-size="10.00">Dequeue</text>
<text text-anchor="middle" x="326.5" y="-78" font-family="Times,serif" font-size="10.00">(in&#45;order)</text>
</g>
<!-- example -->
<g id="node13" class="node">
<title>example</title>
<polygon fill="lightyellow" stroke="black" points="271,-834.5 0,-834.5 0,-599.5 277,-599.5 277,-828.5 271,-834.5"/>
<polyline fill="none" stroke="black" points="271,-834.5 271,-828.5 "/>
<polyline fill="none" stroke="black" points="277,-828.5 271,-828.5 "/>
<text text-anchor="middle" x="138.5" y="-819.3" font-family="Times,serif" font-size="14.00">Mode Selection</text>
<text text-anchor="middle" x="138.5" y="-788.3" font-family="Times,serif" font-size="14.00">CAM Mode (enable_ooo=1):</text>
<text text-anchor="middle" x="138.5" y="-773.3" font-family="Times,serif" font-size="14.00">• Out&#45;of&#45;order completion supported</text>
<text text-anchor="middle" x="138.5" y="-758.3" font-family="Times,serif" font-size="14.00">• Associative lookup by ID</text>
<text text-anchor="middle" x="138.5" y="-743.3" font-family="Times,serif" font-size="14.00">• Higher resource cost</text>
<text text-anchor="middle" x="138.5" y="-728.3" font-family="Times,serif" font-size="14.00">• 1&#45;cycle lookup latency</text>
<text text-anchor="middle" x="138.5" y="-713.3" font-family="Times,serif" font-size="14.00">• Use for: Memory, cache slaves</text>
<text text-anchor="middle" x="138.5" y="-682.3" font-family="Times,serif" font-size="14.00">FIFO Mode (enable_ooo=0):</text>
<text text-anchor="middle" x="138.5" y="-667.3" font-family="Times,serif" font-size="14.00">• In&#45;order completion required</text>
<text text-anchor="middle" x="138.5" y="-652.3" font-family="Times,serif" font-size="14.00">• Pop from head of FIFO</text>
<text text-anchor="middle" x="138.5" y="-637.3" font-family="Times,serif" font-size="14.00">• Lower resource cost &#160;</text>
<text text-anchor="middle" x="138.5" y="-622.3" font-family="Times,serif" font-size="14.00">• Zero latency</text>
<text text-anchor="middle" x="138.5" y="-607.3" font-family="Times,serif" font-size="14.00">• Use for: Peripherals, registers</text>
</g>
<!-- config -->
<g id="node14" class="node">
<title>config</title>
<polygon fill="lightgray" stroke="black" points="249,-1059 22,-1059 22,-853 255,-853 255,-1053 249,-1059"/>
<polyline fill="none" stroke="black" points="249,-1059 249,-1053 "/>
<polyline fill="none" stroke="black" points="255,-1053 249,-1053 "/>
<text text-anchor="middle" x="138.5" y="-1043.8" font-family="Times,serif" font-size="14.00">Configuration (per slave)</text>
<text text-anchor="middle" x="138.5" y="-1012.8" font-family="Times,serif" font-size="14.00">enable_ooo parameter:</text>
<text text-anchor="middle" x="138.5" y="-997.8" font-family="Times,serif" font-size="14.00">• 1: Use CAM (out&#45;of&#45;order)</text>
<text text-anchor="middle" x="138.5" y="-982.8" font-family="Times,serif" font-size="14.00">• 0: Use FIFO (in&#45;order)</text>
<text text-anchor="middle" x="138.5" y="-951.8" font-family="Times,serif" font-size="14.00">CAM Depth:</text>
<text text-anchor="middle" x="138.5" y="-936.8" font-family="Times,serif" font-size="14.00">• Typical: 16&#45;32 entries</text>
<text text-anchor="middle" x="138.5" y="-921.8" font-family="Times,serif" font-size="14.00">• Match outstanding txn limit</text>
<text text-anchor="middle" x="138.5" y="-890.8" font-family="Times,serif" font-size="14.00">FIFO Depth:</text>
<text text-anchor="middle" x="138.5" y="-875.8" font-family="Times,serif" font-size="14.00">• Typical: 8&#45;16 entries</text>
<text text-anchor="middle" x="138.5" y="-860.8" font-family="Times,serif" font-size="14.00">• Sufficient for in&#45;order slaves</text>
</g>
<!-- leg_cam -->
<g id="node15" class="node">
<title>leg_cam</title>
<polygon fill="none" stroke="blue" stroke-width="2" points="235,-1275 42,-1275 42,-1239 235,-1239 235,-1275"/>
<text text-anchor="middle" x="138.5" y="-1253.3" font-family="Times,serif" font-size="14.00">CAM Path (Out&#45;of&#45;Order)</text>
</g>
<!-- leg_fifo -->
<g id="node16" class="node">
<title>leg_fifo</title>
<polygon fill="none" stroke="blue" stroke-dasharray="5,2" points="221,-1221 56,-1221 56,-1185 221,-1185 221,-1221"/>
<text text-anchor="middle" x="138.5" y="-1199.3" font-family="Times,serif" font-size="14.00">FIFO Path (In&#45;Order)</text>
</g>
<!-- leg_req -->
<g id="node17" class="node">
<title>leg_req</title>
<polygon fill="lightsteelblue" stroke="black" points="206.5,-1167 70.5,-1167 70.5,-1131 206.5,-1131 206.5,-1167"/>
<text text-anchor="middle" x="138.5" y="-1145.3" font-family="Times,serif" font-size="14.00">Request Storage</text>
</g>
<!-- leg_resp -->
<g id="node18" class="node">
<title>leg_resp</title>
<polygon fill="none" stroke="purple" stroke-width="2" points="209,-1113 68,-1113 68,-1077 209,-1077 209,-1113"/>
<text text-anchor="middle" x="138.5" y="-1091.3" font-family="Times,serif" font-size="14.00">Response Lookup</text>
</g>
</g>
</svg>
