<?xml version="1.0" encoding="UTF-8" standalone="no"?>
<!DOCTYPE svg PUBLIC "-//W3C//DTD SVG 1.1//EN"
 "http://www.w3.org/Graphics/SVG/1.1/DTD/svg11.dtd">
<!-- Generated by graphviz version 2.43.0 (0)
 -->
<!-- Title: master_adapter Pages: 1 -->
<svg width="776pt" height="434pt"
 viewBox="0.00 0.00 776.00 433.63" xmlns="http://www.w3.org/2000/svg" xmlns:xlink="http://www.w3.org/1999/xlink">
<g id="graph0" class="graph" transform="scale(1 1) rotate(0) translate(4 429.63)">
<title>master_adapter</title>
<polygon fill="white" stroke="transparent" points="-4,4 -4,-429.63 772,-429.63 772,4 -4,4"/>
<text text-anchor="middle" x="384" y="-412.03" font-family="Times,serif" font-size="12.00">Master Adapter Architecture &#45; Per&#45;Master Instance</text>
<text text-anchor="middle" x="384" y="-385.03" font-family="Times,serif" font-size="12.00">Config: rd/wr/rw channels | BID=log2(M) | Latency: 1&#45;cycle | Legend: Blue=Write Path, Green=Read Path, Purple=Response</text>
<g id="clust1" class="cluster">
<title>cluster_master</title>
<polygon fill="lightgreen" stroke="black" points="148.5,-177.63 148.5,-268.63 245.5,-268.63 245.5,-177.63 148.5,-177.63"/>
<text text-anchor="middle" x="197" y="-255.03" font-family="Times,serif" font-size="12.00">Master Port</text>
</g>
<g id="clust2" class="cluster">
<title>cluster_write</title>
<polygon fill="lightcyan" stroke="black" points="329,-177.63 329,-364.63 619.5,-364.63 619.5,-177.63 329,-177.63"/>
<text text-anchor="middle" x="474.25" y="-351.03" font-family="Times,serif" font-size="12.00">Write Path (if wr/rw)</text>
</g>
<g id="clust3" class="cluster">
<title>cluster_read</title>
<polygon fill="lightyellow" stroke="black" points="152.5,-22.63 152.5,-169.63 434.5,-169.63 434.5,-22.63 152.5,-22.63"/>
<text text-anchor="middle" x="293.5" y="-156.03" font-family="Times,serif" font-size="12.00">Read Path (if rd/rw)</text>
</g>
<g id="clust4" class="cluster">
<title>cluster_crossbar</title>
<polygon fill="lightcoral" stroke="black" points="510,-94.63 510,-169.63 607,-169.63 607,-94.63 510,-94.63"/>
<text text-anchor="middle" x="558.5" y="-156.03" font-family="Times,serif" font-size="12.00">To Crossbar</text>
</g>
<!-- master -->
<g id="node1" class="node">
<title>master</title>
<path fill="palegreen" stroke="black" d="M225.5,-239.13C225.5,-239.13 168.5,-239.13 168.5,-239.13 162.5,-239.13 156.5,-233.13 156.5,-227.13 156.5,-227.13 156.5,-198.13 156.5,-198.13 156.5,-192.13 162.5,-186.13 168.5,-186.13 168.5,-186.13 225.5,-186.13 225.5,-186.13 231.5,-186.13 237.5,-192.13 237.5,-198.13 237.5,-198.13 237.5,-227.13 237.5,-227.13 237.5,-233.13 231.5,-239.13 225.5,-239.13"/>
<text text-anchor="middle" x="197" y="-223.93" font-family="Times,serif" font-size="14.00">External</text>
<text text-anchor="middle" x="197" y="-208.93" font-family="Times,serif" font-size="14.00">Master</text>
<text text-anchor="middle" x="197" y="-193.93" font-family="Times,serif" font-size="14.00">Interface</text>
</g>
<!-- aw_skid -->
<g id="node2" class="node">
<title>aw_skid</title>
<path fill="lightsteelblue" stroke="black" d="M402,-279.63C402,-279.63 349,-279.63 349,-279.63 343,-279.63 337,-273.63 337,-267.63 337,-267.63 337,-253.63 337,-253.63 337,-247.63 343,-241.63 349,-241.63 349,-241.63 402,-241.63 402,-241.63 408,-241.63 414,-247.63 414,-253.63 414,-253.63 414,-267.63 414,-267.63 414,-273.63 408,-279.63 402,-279.63"/>
<text text-anchor="middle" x="375.5" y="-264.43" font-family="Times,serif" font-size="14.00">AW Skid</text>
<text text-anchor="middle" x="375.5" y="-249.43" font-family="Times,serif" font-size="14.00">Buffer</text>
</g>
<!-- master&#45;&gt;aw_skid -->
<g id="edge1" class="edge">
<title>master&#45;&gt;aw_skid</title>
<path fill="none" stroke="blue" stroke-width="2" d="M237.68,-227.87C243.62,-229.93 249.69,-231.92 255.5,-233.63 278.74,-240.49 304.97,-246.6 326.88,-251.28"/>
<polygon fill="blue" stroke="blue" stroke-width="2" points="326.43,-254.76 336.93,-253.39 327.87,-247.91 326.43,-254.76"/>
<text text-anchor="middle" x="281" y="-270.63" font-family="Times,serif" font-size="10.00">AWVALID</text>
<text text-anchor="middle" x="281" y="-259.63" font-family="Times,serif" font-size="10.00">AWADDR</text>
<text text-anchor="middle" x="281" y="-248.63" font-family="Times,serif" font-size="10.00">AWID</text>
</g>
<!-- w_skid -->
<g id="node4" class="node">
<title>w_skid</title>
<path fill="lightsteelblue" stroke="black" d="M397,-223.63C397,-223.63 354,-223.63 354,-223.63 348,-223.63 342,-217.63 342,-211.63 342,-211.63 342,-197.63 342,-197.63 342,-191.63 348,-185.63 354,-185.63 354,-185.63 397,-185.63 397,-185.63 403,-185.63 409,-191.63 409,-197.63 409,-197.63 409,-211.63 409,-211.63 409,-217.63 403,-223.63 397,-223.63"/>
<text text-anchor="middle" x="375.5" y="-208.43" font-family="Times,serif" font-size="14.00">W Skid</text>
<text text-anchor="middle" x="375.5" y="-193.43" font-family="Times,serif" font-size="14.00">Buffer</text>
</g>
<!-- master&#45;&gt;w_skid -->
<g id="edge4" class="edge">
<title>master&#45;&gt;w_skid</title>
<path fill="none" stroke="blue" stroke-width="2" d="M237.61,-210.84C265.58,-209.57 303.03,-207.87 331.69,-206.57"/>
<polygon fill="blue" stroke="blue" stroke-width="2" points="331.99,-210.06 341.82,-206.12 331.67,-203.07 331.99,-210.06"/>
<text text-anchor="middle" x="281" y="-223.63" font-family="Times,serif" font-size="10.00">WVALID</text>
<text text-anchor="middle" x="281" y="-212.63" font-family="Times,serif" font-size="10.00">WDATA</text>
</g>
<!-- ar_skid -->
<g id="node7" class="node">
<title>ar_skid</title>
<path fill="lightsteelblue" stroke="black" d="M221.5,-131.63C221.5,-131.63 172.5,-131.63 172.5,-131.63 166.5,-131.63 160.5,-125.63 160.5,-119.63 160.5,-119.63 160.5,-105.63 160.5,-105.63 160.5,-99.63 166.5,-93.63 172.5,-93.63 172.5,-93.63 221.5,-93.63 221.5,-93.63 227.5,-93.63 233.5,-99.63 233.5,-105.63 233.5,-105.63 233.5,-119.63 233.5,-119.63 233.5,-125.63 227.5,-131.63 221.5,-131.63"/>
<text text-anchor="middle" x="197" y="-116.43" font-family="Times,serif" font-size="14.00">AR Skid</text>
<text text-anchor="middle" x="197" y="-101.43" font-family="Times,serif" font-size="14.00">Buffer</text>
</g>
<!-- master&#45;&gt;ar_skid -->
<g id="edge9" class="edge">
<title>master&#45;&gt;ar_skid</title>
<path fill="none" stroke="green" stroke-width="2" d="M197,-185.85C197,-172.3 197,-155.83 197,-141.94"/>
<polygon fill="green" stroke="green" stroke-width="2" points="200.5,-141.92 197,-131.92 193.5,-141.92 200.5,-141.92"/>
<text text-anchor="middle" x="177.5" y="-167.38" font-family="Times,serif" font-size="10.00">ARVALID</text>
<text text-anchor="middle" x="177.5" y="-156.38" font-family="Times,serif" font-size="10.00">ARADDR</text>
<text text-anchor="middle" x="177.5" y="-145.38" font-family="Times,serif" font-size="10.00">ARID</text>
</g>
<!-- aw_bid -->
<g id="node3" class="node">
<title>aw_bid</title>
<path fill="khaki" stroke="black" d="M599.5,-269.13C599.5,-269.13 517.5,-269.13 517.5,-269.13 511.5,-269.13 505.5,-263.13 505.5,-257.13 505.5,-257.13 505.5,-228.13 505.5,-228.13 505.5,-222.13 511.5,-216.13 517.5,-216.13 517.5,-216.13 599.5,-216.13 599.5,-216.13 605.5,-216.13 611.5,-222.13 611.5,-228.13 611.5,-228.13 611.5,-257.13 611.5,-257.13 611.5,-263.13 605.5,-269.13 599.5,-269.13"/>
<text text-anchor="middle" x="558.5" y="-253.93" font-family="Times,serif" font-size="14.00">AW BID</text>
<text text-anchor="middle" x="558.5" y="-238.93" font-family="Times,serif" font-size="14.00">Injection</text>
<text text-anchor="middle" x="558.5" y="-223.93" font-family="Times,serif" font-size="14.00">{BID,AWID}</text>
</g>
<!-- aw_skid&#45;&gt;aw_bid -->
<g id="edge2" class="edge">
<title>aw_skid&#45;&gt;aw_bid</title>
<path fill="none" stroke="blue" d="M414,-256.9C437.42,-254.58 468.14,-251.52 495.14,-248.84"/>
<polygon fill="blue" stroke="blue" points="495.69,-252.3 505.29,-247.83 494.99,-245.33 495.69,-252.3"/>
</g>
<!-- crossbar -->
<g id="node11" class="node">
<title>crossbar</title>
<path fill="lightpink" stroke="black" d="M587,-140.63C587,-140.63 530,-140.63 530,-140.63 524,-140.63 518,-134.63 518,-128.63 518,-128.63 518,-114.63 518,-114.63 518,-108.63 524,-102.63 530,-102.63 530,-102.63 587,-102.63 587,-102.63 593,-102.63 599,-108.63 599,-114.63 599,-114.63 599,-128.63 599,-128.63 599,-134.63 593,-140.63 587,-140.63"/>
<text text-anchor="middle" x="558.5" y="-125.43" font-family="Times,serif" font-size="14.00">Crossbar</text>
<text text-anchor="middle" x="558.5" y="-110.43" font-family="Times,serif" font-size="14.00">Fabric</text>
</g>
<!-- aw_bid&#45;&gt;crossbar -->
<g id="edge3" class="edge">
<title>aw_bid&#45;&gt;crossbar</title>
<path fill="none" stroke="blue" stroke-width="2" d="M558.5,-215.9C558.5,-196.63 558.5,-170.63 558.5,-150.82"/>
<polygon fill="blue" stroke="blue" stroke-width="2" points="562,-150.81 558.5,-140.81 555,-150.81 562,-150.81"/>
<text text-anchor="middle" x="550" y="-175.88" font-family="Times,serif" font-size="10.00">AW+BID</text>
</g>
<!-- w_skid&#45;&gt;crossbar -->
<g id="edge5" class="edge">
<title>w_skid&#45;&gt;crossbar</title>
<path fill="none" stroke="blue" stroke-width="2" d="M409.28,-189.6C436.88,-176.95 476.78,-158.65 508.23,-144.23"/>
<polygon fill="blue" stroke="blue" stroke-width="2" points="510.07,-147.23 517.7,-139.88 507.15,-140.87 510.07,-147.23"/>
<text text-anchor="middle" x="466" y="-176.63" font-family="Times,serif" font-size="10.00">W</text>
</g>
<!-- b_skid -->
<g id="node5" class="node">
<title>b_skid</title>
<path fill="lightsteelblue" stroke="black" d="M395,-335.63C395,-335.63 356,-335.63 356,-335.63 350,-335.63 344,-329.63 344,-323.63 344,-323.63 344,-309.63 344,-309.63 344,-303.63 350,-297.63 356,-297.63 356,-297.63 395,-297.63 395,-297.63 401,-297.63 407,-303.63 407,-309.63 407,-309.63 407,-323.63 407,-323.63 407,-329.63 401,-335.63 395,-335.63"/>
<text text-anchor="middle" x="375.5" y="-320.43" font-family="Times,serif" font-size="14.00">B Skid</text>
<text text-anchor="middle" x="375.5" y="-305.43" font-family="Times,serif" font-size="14.00">Buffer</text>
</g>
<!-- b_strip -->
<g id="node6" class="node">
<title>b_strip</title>
<path fill="plum" stroke="black" d="M576,-335.63C576,-335.63 541,-335.63 541,-335.63 535,-335.63 529,-329.63 529,-323.63 529,-323.63 529,-309.63 529,-309.63 529,-303.63 535,-297.63 541,-297.63 541,-297.63 576,-297.63 576,-297.63 582,-297.63 588,-303.63 588,-309.63 588,-309.63 588,-323.63 588,-323.63 588,-329.63 582,-335.63 576,-335.63"/>
<text text-anchor="middle" x="558.5" y="-320.43" font-family="Times,serif" font-size="14.00">B BID</text>
<text text-anchor="middle" x="558.5" y="-305.43" font-family="Times,serif" font-size="14.00">Strip</text>
</g>
<!-- b_skid&#45;&gt;b_strip -->
<g id="edge7" class="edge">
<title>b_skid&#45;&gt;b_strip</title>
<path fill="none" stroke="purple" d="M407.2,-316.63C437.87,-316.63 485.13,-316.63 518.45,-316.63"/>
<polygon fill="purple" stroke="purple" points="518.74,-320.13 528.74,-316.63 518.74,-313.13 518.74,-320.13"/>
</g>
<!-- b_strip&#45;&gt;master -->
<g id="edge8" class="edge">
<title>b_strip&#45;&gt;master</title>
<path fill="none" stroke="purple" stroke-width="2" d="M528.82,-328.54C483.76,-345.4 394.31,-371.39 324.5,-344.63 277.77,-326.72 240.61,-280.8 218.97,-248.17"/>
<polygon fill="purple" stroke="purple" stroke-width="2" points="221.64,-245.85 213.28,-239.35 215.76,-249.65 221.64,-245.85"/>
<text text-anchor="middle" x="375.5" y="-369.63" font-family="Times,serif" font-size="10.00">BVALID</text>
<text text-anchor="middle" x="375.5" y="-358.63" font-family="Times,serif" font-size="10.00">BRESP</text>
</g>
<!-- ar_bid -->
<g id="node8" class="node">
<title>ar_bid</title>
<path fill="khaki" stroke="black" d="M414.5,-84.13C414.5,-84.13 336.5,-84.13 336.5,-84.13 330.5,-84.13 324.5,-78.13 324.5,-72.13 324.5,-72.13 324.5,-43.13 324.5,-43.13 324.5,-37.13 330.5,-31.13 336.5,-31.13 336.5,-31.13 414.5,-31.13 414.5,-31.13 420.5,-31.13 426.5,-37.13 426.5,-43.13 426.5,-43.13 426.5,-72.13 426.5,-72.13 426.5,-78.13 420.5,-84.13 414.5,-84.13"/>
<text text-anchor="middle" x="375.5" y="-68.93" font-family="Times,serif" font-size="14.00">AR BID</text>
<text text-anchor="middle" x="375.5" y="-53.93" font-family="Times,serif" font-size="14.00">Injection</text>
<text text-anchor="middle" x="375.5" y="-38.93" font-family="Times,serif" font-size="14.00">{BID,ARID}</text>
</g>
<!-- ar_skid&#45;&gt;ar_bid -->
<g id="edge10" class="edge">
<title>ar_skid&#45;&gt;ar_bid</title>
<path fill="none" stroke="green" d="M233.72,-101.5C256.95,-94.26 287.83,-84.64 314.74,-76.26"/>
<polygon fill="green" stroke="green" points="315.95,-79.54 324.46,-73.23 313.87,-72.86 315.95,-79.54"/>
</g>
<!-- ar_bid&#45;&gt;crossbar -->
<g id="edge11" class="edge">
<title>ar_bid&#45;&gt;crossbar</title>
<path fill="none" stroke="green" stroke-width="2" d="M426.92,-75.46C452.31,-84.44 482.98,-95.29 508.22,-104.21"/>
<polygon fill="green" stroke="green" stroke-width="2" points="507.36,-107.62 517.96,-107.65 509.69,-101.02 507.36,-107.62"/>
<text text-anchor="middle" x="466" y="-98.63" font-family="Times,serif" font-size="10.00">AR+BID</text>
</g>
<!-- r_skid -->
<g id="node9" class="node">
<title>r_skid</title>
<path fill="lightsteelblue" stroke="black" d="M216.5,-70.63C216.5,-70.63 177.5,-70.63 177.5,-70.63 171.5,-70.63 165.5,-64.63 165.5,-58.63 165.5,-58.63 165.5,-44.63 165.5,-44.63 165.5,-38.63 171.5,-32.63 177.5,-32.63 177.5,-32.63 216.5,-32.63 216.5,-32.63 222.5,-32.63 228.5,-38.63 228.5,-44.63 228.5,-44.63 228.5,-58.63 228.5,-58.63 228.5,-64.63 222.5,-70.63 216.5,-70.63"/>
<text text-anchor="middle" x="197" y="-55.43" font-family="Times,serif" font-size="14.00">R Skid</text>
<text text-anchor="middle" x="197" y="-40.43" font-family="Times,serif" font-size="14.00">Buffer</text>
</g>
<!-- r_strip -->
<g id="node10" class="node">
<title>r_strip</title>
<path fill="plum" stroke="black" d="M393,-140.63C393,-140.63 358,-140.63 358,-140.63 352,-140.63 346,-134.63 346,-128.63 346,-128.63 346,-114.63 346,-114.63 346,-108.63 352,-102.63 358,-102.63 358,-102.63 393,-102.63 393,-102.63 399,-102.63 405,-108.63 405,-114.63 405,-114.63 405,-128.63 405,-128.63 405,-134.63 399,-140.63 393,-140.63"/>
<text text-anchor="middle" x="375.5" y="-125.43" font-family="Times,serif" font-size="14.00">R BID</text>
<text text-anchor="middle" x="375.5" y="-110.43" font-family="Times,serif" font-size="14.00">Strip</text>
</g>
<!-- r_skid&#45;&gt;r_strip -->
<g id="edge13" class="edge">
<title>r_skid&#45;&gt;r_strip</title>
<path fill="none" stroke="green" d="M228.74,-63.83C258.64,-75.68 304.13,-93.73 336.33,-106.49"/>
<polygon fill="green" stroke="green" points="335.27,-109.84 345.86,-110.28 337.85,-103.34 335.27,-109.84"/>
</g>
<!-- r_strip&#45;&gt;master -->
<g id="edge14" class="edge">
<title>r_strip&#45;&gt;master</title>
<path fill="none" stroke="green" stroke-width="2" d="M345.53,-135.96C321.36,-147.98 286.07,-165.69 255.5,-181.63 252.58,-183.16 249.59,-184.73 246.57,-186.32"/>
<polygon fill="green" stroke="green" stroke-width="2" points="244.7,-183.36 237.52,-191.15 247.99,-189.54 244.7,-183.36"/>
<text text-anchor="middle" x="281" y="-195.63" font-family="Times,serif" font-size="10.00">RVALID</text>
<text text-anchor="middle" x="281" y="-184.63" font-family="Times,serif" font-size="10.00">RDATA</text>
</g>
<!-- crossbar&#45;&gt;b_skid -->
<g id="edge6" class="edge">
<title>crossbar&#45;&gt;b_skid</title>
<path fill="none" stroke="purple" stroke-width="2" d="M536.1,-140.86C526.23,-150.25 514.69,-162.02 505.5,-173.63 468.23,-220.74 479.11,-248.41 434.5,-288.63 429.08,-293.52 422.64,-297.74 416.07,-301.31"/>
<polygon fill="purple" stroke="purple" stroke-width="2" points="414.49,-298.19 407.11,-305.78 417.62,-304.45 414.49,-298.19"/>
<text text-anchor="middle" x="466" y="-279.63" font-family="Times,serif" font-size="10.00">B+BID</text>
</g>
<!-- crossbar&#45;&gt;r_skid -->
<g id="edge12" class="edge">
<title>crossbar&#45;&gt;r_skid</title>
<path fill="none" stroke="green" stroke-width="2" d="M543.85,-102.56C523.55,-76.02 482.56,-29.11 434.5,-10.63 368.64,14.69 286.43,-11.43 238.32,-32.01"/>
<polygon fill="green" stroke="green" stroke-width="2" points="236.62,-28.94 228.88,-36.17 239.44,-35.34 236.62,-28.94"/>
<text text-anchor="middle" x="375.5" y="-13.63" font-family="Times,serif" font-size="10.00">R+BID</text>
</g>
</g>
</svg>
