<?xml version="1.0" encoding="UTF-8" standalone="no"?>
<!DOCTYPE svg PUBLIC "-//W3C//DTD SVG 1.1//EN"
 "http://www.w3.org/Graphics/SVG/1.1/DTD/svg11.dtd">
<!-- Generated by graphviz version 2.43.0 (0)
 -->
<!-- Title: protocol_conversion_apb Pages: 1 -->
<svg width="1799pt" height="1007pt"
 viewBox="0.00 0.00 1799.00 1006.82" xmlns="http://www.w3.org/2000/svg" xmlns:xlink="http://www.w3.org/1999/xlink">
<g id="graph0" class="graph" transform="scale(1 1) rotate(0) translate(4 1002.82)">
<title>protocol_conversion_apb</title>
<polygon fill="white" stroke="transparent" points="-4,4 -4,-1002.82 1795,-1002.82 1795,4 -4,4"/>
<text text-anchor="middle" x="895.5" y="-983.62" font-family="Times,serif" font-size="14.00">Protocol Conversion: AXI4 → APB</text>
<text text-anchor="middle" x="895.5" y="-968.62" font-family="Times,serif" font-size="14.00">Burst Decomposition and State Machine</text>
<g id="clust1" class="cluster">
<title>cluster_axi_in</title>
<polygon fill="lightgreen" stroke="black" points="433,-8 433,-146 629,-146 629,-8 433,-8"/>
<text text-anchor="middle" x="531" y="-130.8" font-family="Times,serif" font-size="14.00">From AXI4 Crossbar</text>
</g>
<g id="clust2" class="cluster">
<title>cluster_fsm</title>
<polygon fill="lightyellow" stroke="black" points="8,-201 8,-952.82 325,-952.82 325,-201 8,-201"/>
<text text-anchor="middle" x="166.5" y="-937.62" font-family="Times,serif" font-size="14.00">APB Converter State Machine</text>
</g>
<g id="clust3" class="cluster">
<title>cluster_burst</title>
<polygon fill="wheat" stroke="black" points="448,-387 448,-698 657,-698 657,-387 448,-387"/>
<text text-anchor="middle" x="552.5" y="-682.8" font-family="Times,serif" font-size="14.00">Burst Decomposition Logic</text>
</g>
<g id="clust4" class="cluster">
<title>cluster_apb_out</title>
<polygon fill="lightcoral" stroke="black" points="333,-186 333,-339 503,-339 503,-186 333,-186"/>
<text text-anchor="middle" x="418" y="-323.8" font-family="Times,serif" font-size="14.00">To APB Peripheral</text>
</g>
<g id="clust5" class="cluster">
<title>cluster_legend</title>
<polygon fill="white" stroke="black" points="1297,-814.5 1297,-889.5 1783,-889.5 1783,-814.5 1297,-814.5"/>
<text text-anchor="middle" x="1540" y="-874.3" font-family="Times,serif" font-size="14.00">Legend</text>
</g>
<!-- axi_in -->
<g id="node1" class="node">
<title>axi_in</title>
<path fill="palegreen" stroke="black" d="M608.5,-115C608.5,-115 453.5,-115 453.5,-115 447.5,-115 441.5,-109 441.5,-103 441.5,-103 441.5,-28 441.5,-28 441.5,-22 447.5,-16 453.5,-16 453.5,-16 608.5,-16 608.5,-16 614.5,-16 620.5,-22 620.5,-28 620.5,-28 620.5,-103 620.5,-103 620.5,-109 614.5,-115 608.5,-115"/>
<text text-anchor="middle" x="531" y="-99.8" font-family="Times,serif" font-size="14.00">AXI4</text>
<text text-anchor="middle" x="531" y="-84.8" font-family="Times,serif" font-size="14.00">Interface</text>
<text text-anchor="middle" x="531" y="-53.8" font-family="Times,serif" font-size="14.00">AR/AW: burst requests</text>
<text text-anchor="middle" x="531" y="-38.8" font-family="Times,serif" font-size="14.00">W: burst data</text>
<text text-anchor="middle" x="531" y="-23.8" font-family="Times,serif" font-size="14.00">R/B: responses</text>
</g>
<!-- idle -->
<g id="node2" class="node">
<title>idle</title>
<ellipse fill="lightcyan" stroke="black" cx="239" cy="-840.5" rx="77.56" ry="81.13"/>
<text text-anchor="middle" x="239" y="-882.8" font-family="Times,serif" font-size="14.00">IDLE</text>
<text text-anchor="middle" x="239" y="-851.8" font-family="Times,serif" font-size="14.00">PSEL=0</text>
<text text-anchor="middle" x="239" y="-836.8" font-family="Times,serif" font-size="14.00">PENABLE=0</text>
<text text-anchor="middle" x="239" y="-805.8" font-family="Times,serif" font-size="14.00">Wait for</text>
<text text-anchor="middle" x="239" y="-790.8" font-family="Times,serif" font-size="14.00">AXI request</text>
</g>
<!-- axi_in&#45;&gt;idle -->
<g id="edge7" class="edge">
<title>axi_in&#45;&gt;idle</title>
<path fill="none" stroke="blue" d="M602.99,-115.14C642.28,-147.96 683,-195.19 683,-250 683,-618.5 683,-618.5 683,-618.5 683,-655.16 688.52,-673.78 661,-698 604.54,-747.68 392.64,-711.15 326,-746 314.57,-751.98 303.84,-760.07 294.09,-769"/>
<polygon fill="blue" stroke="blue" points="291.61,-766.52 286.82,-775.97 296.46,-771.57 291.61,-766.52"/>
<text text-anchor="middle" x="716" y="-442" font-family="Times,serif" font-size="10.00">AXI requests</text>
</g>
<!-- setup -->
<g id="node3" class="node">
<title>setup</title>
<path fill="lightsteelblue" stroke="black" d="M291.5,-675C291.5,-675 186.5,-675 186.5,-675 180.5,-675 174.5,-669 174.5,-663 174.5,-663 174.5,-572 174.5,-572 174.5,-566 180.5,-560 186.5,-560 186.5,-560 291.5,-560 291.5,-560 297.5,-560 303.5,-566 303.5,-572 303.5,-572 303.5,-663 303.5,-663 303.5,-669 297.5,-675 291.5,-675"/>
<text text-anchor="middle" x="239" y="-659.8" font-family="Times,serif" font-size="14.00">SETUP</text>
<text text-anchor="middle" x="239" y="-628.8" font-family="Times,serif" font-size="14.00">PSEL=1</text>
<text text-anchor="middle" x="239" y="-613.8" font-family="Times,serif" font-size="14.00">PENABLE=0</text>
<text text-anchor="middle" x="239" y="-582.8" font-family="Times,serif" font-size="14.00">Address/control</text>
<text text-anchor="middle" x="239" y="-567.8" font-family="Times,serif" font-size="14.00">valid</text>
</g>
<!-- idle&#45;&gt;setup -->
<g id="edge1" class="edge">
<title>idle&#45;&gt;setup</title>
<path fill="none" stroke="blue" stroke-width="2" d="M239,-759.09C239,-734.9 239,-708.63 239,-685.41"/>
<polygon fill="blue" stroke="blue" stroke-width="2" points="242.5,-685.32 239,-675.32 235.5,-685.32 242.5,-685.32"/>
<text text-anchor="middle" x="270" y="-720" font-family="Times,serif" font-size="10.00">ARVALID or</text>
<text text-anchor="middle" x="270" y="-709" font-family="Times,serif" font-size="10.00">AWVALID</text>
</g>
<!-- burst_ctrl -->
<g id="node6" class="node">
<title>burst_ctrl</title>
<path fill="lightyellow" stroke="black" d="M596,-667C596,-667 468,-667 468,-667 462,-667 456,-661 456,-655 456,-655 456,-580 456,-580 456,-574 462,-568 468,-568 468,-568 596,-568 596,-568 602,-568 608,-574 608,-580 608,-580 608,-655 608,-655 608,-661 602,-667 596,-667"/>
<text text-anchor="middle" x="532" y="-651.8" font-family="Times,serif" font-size="14.00">Burst</text>
<text text-anchor="middle" x="532" y="-636.8" font-family="Times,serif" font-size="14.00">Controller</text>
<text text-anchor="middle" x="532" y="-605.8" font-family="Times,serif" font-size="14.00">AWLEN → N beats</text>
<text text-anchor="middle" x="532" y="-590.8" font-family="Times,serif" font-size="14.00">Address increment</text>
<text text-anchor="middle" x="532" y="-575.8" font-family="Times,serif" font-size="14.00">Beat counter</text>
</g>
<!-- idle&#45;&gt;burst_ctrl -->
<g id="edge8" class="edge">
<title>idle&#45;&gt;burst_ctrl</title>
<path fill="none" stroke="blue" stroke-dasharray="1,5" d="M290.58,-779.24C301.73,-767.64 313.84,-755.99 326,-746 363.16,-715.47 408.21,-686.78 446.7,-664.37"/>
<polygon fill="blue" stroke="blue" points="448.91,-667.14 455.82,-659.11 445.41,-661.08 448.91,-667.14"/>
<text text-anchor="middle" x="408" y="-720" font-family="Times,serif" font-size="10.00">Capture</text>
<text text-anchor="middle" x="408" y="-709" font-family="Times,serif" font-size="10.00">AR/AW info</text>
</g>
<!-- access -->
<g id="node4" class="node">
<title>access</title>
<path fill="khaki" stroke="black" d="M228,-502C228,-502 142,-502 142,-502 136,-502 130,-496 130,-490 130,-490 130,-399 130,-399 130,-393 136,-387 142,-387 142,-387 228,-387 228,-387 234,-387 240,-393 240,-399 240,-399 240,-490 240,-490 240,-496 234,-502 228,-502"/>
<text text-anchor="middle" x="185" y="-486.8" font-family="Times,serif" font-size="14.00">ACCESS</text>
<text text-anchor="middle" x="185" y="-455.8" font-family="Times,serif" font-size="14.00">PSEL=1</text>
<text text-anchor="middle" x="185" y="-440.8" font-family="Times,serif" font-size="14.00">PENABLE=1</text>
<text text-anchor="middle" x="185" y="-409.8" font-family="Times,serif" font-size="14.00">Wait for</text>
<text text-anchor="middle" x="185" y="-394.8" font-family="Times,serif" font-size="14.00">PREADY</text>
</g>
<!-- setup&#45;&gt;access -->
<g id="edge2" class="edge">
<title>setup&#45;&gt;access</title>
<path fill="none" stroke="green" d="M221.02,-559.56C216.19,-544.27 210.93,-527.61 205.96,-511.86"/>
<polygon fill="green" stroke="green" points="209.25,-510.67 202.9,-502.19 202.58,-512.78 209.25,-510.67"/>
<text text-anchor="middle" x="246.5" y="-528.5" font-family="Times,serif" font-size="10.00">After 1 cycle</text>
</g>
<!-- apb_out -->
<g id="node8" class="node">
<title>apb_out</title>
<path fill="lightpink" stroke="black" d="M482.5,-308C482.5,-308 353.5,-308 353.5,-308 347.5,-308 341.5,-302 341.5,-296 341.5,-296 341.5,-206 341.5,-206 341.5,-200 347.5,-194 353.5,-194 353.5,-194 482.5,-194 482.5,-194 488.5,-194 494.5,-200 494.5,-206 494.5,-206 494.5,-296 494.5,-296 494.5,-302 488.5,-308 482.5,-308"/>
<text text-anchor="middle" x="418" y="-292.8" font-family="Times,serif" font-size="14.00">APB</text>
<text text-anchor="middle" x="418" y="-277.8" font-family="Times,serif" font-size="14.00">Interface</text>
<text text-anchor="middle" x="418" y="-246.8" font-family="Times,serif" font-size="14.00">PSEL, PENABLE</text>
<text text-anchor="middle" x="418" y="-231.8" font-family="Times,serif" font-size="14.00">PADDR, PWRITE</text>
<text text-anchor="middle" x="418" y="-216.8" font-family="Times,serif" font-size="14.00">PWDATA/PRDATA</text>
<text text-anchor="middle" x="418" y="-201.8" font-family="Times,serif" font-size="14.00">PREADY, PSLVERR</text>
</g>
<!-- setup&#45;&gt;apb_out -->
<g id="edge10" class="edge">
<title>setup&#45;&gt;apb_out</title>
<path fill="none" stroke="green" stroke-width="2" d="M288.81,-559.95C302.4,-542.31 316.09,-522.17 326,-502 349.34,-454.49 339.15,-436.84 357,-387 365.27,-363.91 375.84,-339.28 385.86,-317.47"/>
<polygon fill="green" stroke="green" stroke-width="2" points="389.07,-318.86 390.11,-308.31 382.72,-315.91 389.07,-318.86"/>
<text text-anchor="middle" x="400.5" y="-447.5" font-family="Times,serif" font-size="10.00">PSEL=1</text>
<text text-anchor="middle" x="400.5" y="-436.5" font-family="Times,serif" font-size="10.00">PADDR, PWRITE</text>
</g>
<!-- access&#45;&gt;access -->
<g id="edge3" class="edge">
<title>access&#45;&gt;access</title>
<path fill="none" stroke="orange" stroke-dasharray="1,5" d="M240.07,-459.85C250.57,-458.02 258,-452.9 258,-444.5 258,-438.99 254.8,-434.89 249.64,-432.2"/>
<polygon fill="orange" stroke="orange" points="250.66,-428.86 240.07,-429.15 248.53,-435.53 250.66,-428.86"/>
<text text-anchor="middle" x="287.5" y="-447.5" font-family="Times,serif" font-size="10.00">PREADY=0</text>
<text text-anchor="middle" x="287.5" y="-436.5" font-family="Times,serif" font-size="10.00">(wait)</text>
</g>
<!-- complete -->
<g id="node5" class="node">
<title>complete</title>
<path fill="lightgreen" stroke="black" d="M180,-293C180,-293 52,-293 52,-293 46,-293 40,-287 40,-281 40,-281 40,-221 40,-221 40,-215 46,-209 52,-209 52,-209 180,-209 180,-209 186,-209 192,-215 192,-221 192,-221 192,-281 192,-281 192,-287 186,-293 180,-293"/>
<text text-anchor="middle" x="116" y="-277.8" font-family="Times,serif" font-size="14.00">COMPLETE</text>
<text text-anchor="middle" x="116" y="-246.8" font-family="Times,serif" font-size="14.00">Capture data/error</text>
<text text-anchor="middle" x="116" y="-231.8" font-family="Times,serif" font-size="14.00">Increment beat</text>
<text text-anchor="middle" x="116" y="-216.8" font-family="Times,serif" font-size="14.00">Generate AXI resp</text>
</g>
<!-- access&#45;&gt;complete -->
<g id="edge4" class="edge">
<title>access&#45;&gt;complete</title>
<path fill="none" stroke="green" stroke-width="2" d="M164.58,-386.82C154.96,-360.12 143.58,-328.53 134.25,-302.64"/>
<polygon fill="green" stroke="green" stroke-width="2" points="137.46,-301.24 130.78,-293.02 130.88,-303.62 137.46,-301.24"/>
<text text-anchor="middle" x="185.5" y="-355.5" font-family="Times,serif" font-size="10.00">PREADY=1</text>
</g>
<!-- access&#45;&gt;apb_out -->
<g id="edge11" class="edge">
<title>access&#45;&gt;apb_out</title>
<path fill="none" stroke="green" stroke-width="2" d="M222.52,-386.85C235.44,-371.54 251.2,-356.58 269,-347 292.69,-334.25 304.81,-350.78 329,-339 341.51,-332.91 353.35,-324.38 364.07,-315.02"/>
<polygon fill="green" stroke="green" stroke-width="2" points="366.65,-317.41 371.68,-308.09 361.93,-312.24 366.65,-317.41"/>
<text text-anchor="middle" x="304" y="-361" font-family="Times,serif" font-size="10.00">PENABLE=1</text>
<text text-anchor="middle" x="304" y="-350" font-family="Times,serif" font-size="10.00">Wait PREADY</text>
</g>
<!-- complete&#45;&gt;axi_in -->
<g id="edge12" class="edge">
<title>complete&#45;&gt;axi_in</title>
<path fill="none" stroke="purple" stroke-width="2" d="M192.12,-216.34C259.55,-186.53 358.43,-142.81 431.99,-110.28"/>
<polygon fill="purple" stroke="purple" stroke-width="2" points="433.56,-113.41 441.29,-106.17 430.73,-107.01 433.56,-113.41"/>
<text text-anchor="middle" x="346.5" y="-168" font-family="Times,serif" font-size="10.00">R or B</text>
<text text-anchor="middle" x="346.5" y="-157" font-family="Times,serif" font-size="10.00">response</text>
</g>
<!-- complete&#45;&gt;idle -->
<g id="edge6" class="edge">
<title>complete&#45;&gt;idle</title>
<path fill="none" stroke="purple" stroke-width="2" d="M86.55,-293.18C75.89,-309.4 64.41,-328.54 56,-347 19.81,-426.47 5.87,-458.68 32,-542 60.28,-632.17 126.62,-718.93 176.64,-775.25"/>
<polygon fill="purple" stroke="purple" stroke-width="2" points="174.3,-777.89 183.58,-782.99 179.51,-773.21 174.3,-777.89"/>
<text text-anchor="middle" x="59" y="-534" font-family="Times,serif" font-size="10.00">LAST beat</text>
<text text-anchor="middle" x="59" y="-523" font-family="Times,serif" font-size="10.00">complete</text>
</g>
<!-- complete&#45;&gt;setup -->
<g id="edge5" class="edge">
<title>complete&#45;&gt;setup</title>
<path fill="none" stroke="blue" stroke-dasharray="1,5" d="M90.87,-293.42C63.05,-345.13 26.61,-434.92 63,-502 63.77,-503.42 117.82,-538.48 165.81,-569.44"/>
<polygon fill="blue" stroke="blue" points="164.08,-572.48 174.38,-574.96 167.87,-566.6 164.08,-572.48"/>
<text text-anchor="middle" x="92" y="-447.5" font-family="Times,serif" font-size="10.00">More beats</text>
<text text-anchor="middle" x="92" y="-436.5" font-family="Times,serif" font-size="10.00">(not LAST)</text>
</g>
<!-- addr_gen -->
<g id="node7" class="node">
<title>addr_gen</title>
<path fill="lightcyan" stroke="black" d="M585.5,-494C585.5,-494 472.5,-494 472.5,-494 466.5,-494 460.5,-488 460.5,-482 460.5,-482 460.5,-407 460.5,-407 460.5,-401 466.5,-395 472.5,-395 472.5,-395 585.5,-395 585.5,-395 591.5,-395 597.5,-401 597.5,-407 597.5,-407 597.5,-482 597.5,-482 597.5,-488 591.5,-494 585.5,-494"/>
<text text-anchor="middle" x="529" y="-478.8" font-family="Times,serif" font-size="14.00">Address</text>
<text text-anchor="middle" x="529" y="-463.8" font-family="Times,serif" font-size="14.00">Generator</text>
<text text-anchor="middle" x="529" y="-432.8" font-family="Times,serif" font-size="14.00">INCR: addr+size</text>
<text text-anchor="middle" x="529" y="-417.8" font-family="Times,serif" font-size="14.00">WRAP: wrapping</text>
<text text-anchor="middle" x="529" y="-402.8" font-family="Times,serif" font-size="14.00">FIXED: constant</text>
</g>
<!-- burst_ctrl&#45;&gt;addr_gen -->
<g id="edge9" class="edge">
<title>burst_ctrl&#45;&gt;addr_gen</title>
<path fill="none" stroke="blue" stroke-dasharray="1,5" d="M531.15,-567.96C530.8,-548.19 530.4,-525.16 530.03,-504.44"/>
<polygon fill="blue" stroke="blue" points="533.53,-504.1 529.85,-494.17 526.53,-504.23 533.53,-504.1"/>
<text text-anchor="middle" x="565" y="-528.5" font-family="Times,serif" font-size="10.00">Burst params</text>
</g>
<!-- addr_gen&#45;&gt;setup -->
<g id="edge13" class="edge">
<title>addr_gen&#45;&gt;setup</title>
<path fill="none" stroke="blue" stroke-dasharray="1,5" d="M460.17,-491.9C454.73,-495.37 449.29,-498.77 444,-502 401.32,-528.05 352.47,-555.43 313.17,-576.88"/>
<polygon fill="blue" stroke="blue" points="311.02,-574.06 303.91,-581.92 314.36,-580.21 311.02,-574.06"/>
<text text-anchor="middle" x="445.5" y="-528.5" font-family="Times,serif" font-size="10.00">Next address</text>
</g>
<!-- example -->
<g id="node9" class="node">
<title>example</title>
<polygon fill="lightyellow" stroke="black" points="671,-935 335,-935 335,-746 677,-746 677,-929 671,-935"/>
<polyline fill="none" stroke="black" points="671,-935 671,-929 "/>
<polyline fill="none" stroke="black" points="677,-929 671,-929 "/>
<text text-anchor="middle" x="506" y="-919.8" font-family="Times,serif" font-size="14.00">Example: AXI Burst → APB Singles</text>
<text text-anchor="middle" x="506" y="-888.8" font-family="Times,serif" font-size="14.00">AXI: AWLEN=3 (4 beats, 16 bytes)</text>
<text text-anchor="middle" x="506" y="-873.8" font-family="Times,serif" font-size="14.00">↓</text>
<text text-anchor="middle" x="506" y="-858.8" font-family="Times,serif" font-size="14.00">APB Beat 0: PADDR=0x1000, 4 bytes</text>
<text text-anchor="middle" x="506" y="-843.8" font-family="Times,serif" font-size="14.00"> &#160;SETUP (1 cycle) → ACCESS (wait PREADY)</text>
<text text-anchor="middle" x="506" y="-828.8" font-family="Times,serif" font-size="14.00">APB Beat 1: PADDR=0x1004, 4 bytes</text>
<text text-anchor="middle" x="506" y="-813.8" font-family="Times,serif" font-size="14.00"> &#160;SETUP (1 cycle) → ACCESS (wait PREADY)</text>
<text text-anchor="middle" x="506" y="-798.8" font-family="Times,serif" font-size="14.00">APB Beat 2: PADDR=0x1008, 4 bytes</text>
<text text-anchor="middle" x="506" y="-783.8" font-family="Times,serif" font-size="14.00">APB Beat 3: PADDR=0x100C, 4 bytes</text>
<text text-anchor="middle" x="506" y="-768.8" font-family="Times,serif" font-size="14.00">↓</text>
<text text-anchor="middle" x="506" y="-753.8" font-family="Times,serif" font-size="14.00">AXI: BRESP=OKAY (after all 4 APB transfers)</text>
</g>
<!-- timing -->
<g id="node10" class="node">
<title>timing</title>
<polygon fill="lightgray" stroke="black" points="987,-898 695,-898 695,-783 993,-783 993,-892 987,-898"/>
<polyline fill="none" stroke="black" points="987,-898 987,-892 "/>
<polyline fill="none" stroke="black" points="993,-892 987,-892 "/>
<text text-anchor="middle" x="844" y="-882.8" font-family="Times,serif" font-size="14.00">Latency per Beat</text>
<text text-anchor="middle" x="844" y="-851.8" font-family="Times,serif" font-size="14.00">Best case: 2 cycles (SETUP + ACCESS)</text>
<text text-anchor="middle" x="844" y="-836.8" font-family="Times,serif" font-size="14.00">Typical: 3&#45;5 cycles (PREADY wait)</text>
<text text-anchor="middle" x="844" y="-821.8" font-family="Times,serif" font-size="14.00">Worst: Timeout (configurable)</text>
<text text-anchor="middle" x="844" y="-790.8" font-family="Times,serif" font-size="14.00">Total for 4&#45;beat burst: 8&#45;20 cycles</text>
</g>
<!-- resp_map -->
<g id="node11" class="node">
<title>resp_map</title>
<polygon fill="lightcoral" stroke="black" points="1281,-898 1011,-898 1011,-783 1287,-783 1287,-892 1281,-898"/>
<polyline fill="none" stroke="black" points="1281,-898 1281,-892 "/>
<polyline fill="none" stroke="black" points="1287,-892 1281,-892 "/>
<text text-anchor="middle" x="1149" y="-882.8" font-family="Times,serif" font-size="14.00">Response Mapping</text>
<text text-anchor="middle" x="1149" y="-851.8" font-family="Times,serif" font-size="14.00">PREADY=1, PSLVERR=0 → OKAY</text>
<text text-anchor="middle" x="1149" y="-836.8" font-family="Times,serif" font-size="14.00">PREADY=1, PSLVERR=1 → SLVERR</text>
<text text-anchor="middle" x="1149" y="-821.8" font-family="Times,serif" font-size="14.00">Timeout → DECERR</text>
<text text-anchor="middle" x="1149" y="-790.8" font-family="Times,serif" font-size="14.00">All beats use same response</text>
</g>
<!-- leg_state -->
<g id="node12" class="node">
<title>leg_state</title>
<ellipse fill="lightcyan" stroke="black" cx="1709" cy="-840.5" rx="65.79" ry="18"/>
<text text-anchor="middle" x="1709" y="-836.8" font-family="Times,serif" font-size="14.00">FSM States</text>
</g>
<!-- leg_axi -->
<g id="node13" class="node">
<title>leg_axi</title>
<polygon fill="none" stroke="blue" stroke-width="2" points="1625,-858.5 1547,-858.5 1547,-822.5 1625,-822.5 1625,-858.5"/>
<text text-anchor="middle" x="1586" y="-836.8" font-family="Times,serif" font-size="14.00">AXI Path</text>
</g>
<!-- leg_apb -->
<g id="node14" class="node">
<title>leg_apb</title>
<polygon fill="none" stroke="green" stroke-width="2" points="1528.5,-858.5 1445.5,-858.5 1445.5,-822.5 1528.5,-822.5 1528.5,-858.5"/>
<text text-anchor="middle" x="1487" y="-836.8" font-family="Times,serif" font-size="14.00">APB Path</text>
</g>
<!-- leg_resp -->
<g id="node15" class="node">
<title>leg_resp</title>
<polygon fill="none" stroke="purple" stroke-width="2" points="1427,-858.5 1305,-858.5 1305,-822.5 1427,-822.5 1427,-858.5"/>
<text text-anchor="middle" x="1366" y="-836.8" font-family="Times,serif" font-size="14.00">Response Path</text>
</g>
</g>
</svg>
