<?xml version="1.0" encoding="UTF-8" standalone="no"?>
<!DOCTYPE svg PUBLIC "-//W3C//DTD SVG 1.1//EN"
 "http://www.w3.org/Graphics/SVG/1.1/DTD/svg11.dtd">
<!-- Generated by graphviz version 2.43.0 (0)
 -->
<!-- Title: response_routing Pages: 1 -->
<svg width="1206pt" height="1502pt"
 viewBox="0.00 0.00 1206.00 1502.00" xmlns="http://www.w3.org/2000/svg" xmlns:xlink="http://www.w3.org/1999/xlink">
<g id="graph0" class="graph" transform="scale(1 1) rotate(0) translate(4 1498)">
<title>response_routing</title>
<polygon fill="white" stroke="transparent" points="-4,4 -4,-1498 1202,-1498 1202,4 -4,4"/>
<text text-anchor="middle" x="599" y="-1478.8" font-family="Times,serif" font-size="14.00">Response Routing Architecture</text>
<text text-anchor="middle" x="599" y="-1463.8" font-family="Times,serif" font-size="14.00">ID&#45;Based Response Demultiplexing</text>
<g id="clust1" class="cluster">
<title>cluster_slaves</title>
<polygon fill="lightcoral" stroke="black" points="118.5,-424 118.5,-695 297.5,-695 297.5,-424 118.5,-424"/>
<text text-anchor="middle" x="208" y="-679.8" font-family="Times,serif" font-size="14.00">From Slaves (S slaves)</text>
</g>
<g id="clust2" class="cluster">
<title>cluster_routing</title>
<polygon fill="lightyellow" stroke="black" points="489,-287 489,-879 1190,-879 1190,-287 489,-287"/>
<text text-anchor="middle" x="839.5" y="-863.8" font-family="Times,serif" font-size="14.00">Response Routing Logic</text>
</g>
<g id="clust3" class="cluster">
<title>cluster_b_route</title>
<polygon fill="lightcyan" stroke="black" points="497,-607 497,-848 912,-848 912,-607 497,-607"/>
<text text-anchor="middle" x="704.5" y="-832.8" font-family="Times,serif" font-size="14.00">B Response Routing</text>
</g>
<g id="clust4" class="cluster">
<title>cluster_r_route</title>
<polygon fill="lightcyan" stroke="black" points="497,-295 497,-599 912,-599 912,-295 497,-295"/>
<text text-anchor="middle" x="704.5" y="-583.8" font-family="Times,serif" font-size="14.00">R Response Routing</text>
</g>
<g id="clust5" class="cluster">
<title>cluster_masters</title>
<polygon fill="lightgreen" stroke="black" points="753,-8 753,-279 941,-279 941,-8 753,-8"/>
<text text-anchor="middle" x="847" y="-263.8" font-family="Times,serif" font-size="14.00">To Masters (M masters)</text>
</g>
<g id="clust6" class="cluster">
<title>cluster_legend</title>
<polygon fill="white" stroke="black" points="131.5,-1157 131.5,-1448 284.5,-1448 284.5,-1157 131.5,-1157"/>
<text text-anchor="middle" x="208" y="-1432.8" font-family="Times,serif" font-size="14.00">Legend</text>
</g>
<!-- b_slaves -->
<g id="node1" class="node">
<title>b_slaves</title>
<path fill="lightpink" stroke="black" d="M258.5,-663.5C258.5,-663.5 157.5,-663.5 157.5,-663.5 151.5,-663.5 145.5,-657.5 145.5,-651.5 145.5,-651.5 145.5,-576.5 145.5,-576.5 145.5,-570.5 151.5,-564.5 157.5,-564.5 157.5,-564.5 258.5,-564.5 258.5,-564.5 264.5,-564.5 270.5,-570.5 270.5,-576.5 270.5,-576.5 270.5,-651.5 270.5,-651.5 270.5,-657.5 264.5,-663.5 258.5,-663.5"/>
<text text-anchor="middle" x="208" y="-648.3" font-family="Times,serif" font-size="14.00">B Responses</text>
<text text-anchor="middle" x="208" y="-633.3" font-family="Times,serif" font-size="14.00">(S slaves)</text>
<text text-anchor="middle" x="208" y="-602.3" font-family="Times,serif" font-size="14.00">BVALID[S]</text>
<text text-anchor="middle" x="208" y="-587.3" font-family="Times,serif" font-size="14.00">BID (extended)</text>
<text text-anchor="middle" x="208" y="-572.3" font-family="Times,serif" font-size="14.00">BRESP</text>
</g>
<!-- b_merge -->
<g id="node3" class="node">
<title>b_merge</title>
<path fill="lightsteelblue" stroke="black" d="M638,-699C638,-699 517,-699 517,-699 511,-699 505,-693 505,-687 505,-687 505,-627 505,-627 505,-621 511,-615 517,-615 517,-615 638,-615 638,-615 644,-615 650,-621 650,-627 650,-627 650,-687 650,-687 650,-693 644,-699 638,-699"/>
<text text-anchor="middle" x="577.5" y="-683.8" font-family="Times,serif" font-size="14.00">B Channel</text>
<text text-anchor="middle" x="577.5" y="-668.8" font-family="Times,serif" font-size="14.00">Merge</text>
<text text-anchor="middle" x="577.5" y="-637.8" font-family="Times,serif" font-size="14.00">Arbitrate S slaves</text>
<text text-anchor="middle" x="577.5" y="-622.8" font-family="Times,serif" font-size="14.00">→ 1 stream</text>
</g>
<!-- b_slaves&#45;&gt;b_merge -->
<g id="edge1" class="edge">
<title>b_slaves&#45;&gt;b_merge</title>
<path fill="none" stroke="purple" stroke-width="2" d="M270.51,-621.2C331.93,-628.38 426.69,-639.47 494.48,-647.4"/>
<polygon fill="purple" stroke="purple" stroke-width="2" points="494.36,-650.91 504.69,-648.6 495.17,-643.96 494.36,-650.91"/>
<text text-anchor="middle" x="457.5" y="-659" font-family="Times,serif" font-size="10.00">B from</text>
<text text-anchor="middle" x="457.5" y="-648" font-family="Times,serif" font-size="10.00">all slaves</text>
</g>
<!-- r_slaves -->
<g id="node2" class="node">
<title>r_slaves</title>
<path fill="lightpink" stroke="black" d="M258.5,-546C258.5,-546 157.5,-546 157.5,-546 151.5,-546 145.5,-540 145.5,-534 145.5,-534 145.5,-444 145.5,-444 145.5,-438 151.5,-432 157.5,-432 157.5,-432 258.5,-432 258.5,-432 264.5,-432 270.5,-438 270.5,-444 270.5,-444 270.5,-534 270.5,-534 270.5,-540 264.5,-546 258.5,-546"/>
<text text-anchor="middle" x="208" y="-530.8" font-family="Times,serif" font-size="14.00">R Responses</text>
<text text-anchor="middle" x="208" y="-515.8" font-family="Times,serif" font-size="14.00">(S slaves)</text>
<text text-anchor="middle" x="208" y="-484.8" font-family="Times,serif" font-size="14.00">RVALID[S]</text>
<text text-anchor="middle" x="208" y="-469.8" font-family="Times,serif" font-size="14.00">RID (extended)</text>
<text text-anchor="middle" x="208" y="-454.8" font-family="Times,serif" font-size="14.00">RDATA</text>
<text text-anchor="middle" x="208" y="-439.8" font-family="Times,serif" font-size="14.00">RRESP</text>
</g>
<!-- r_merge -->
<g id="node6" class="node">
<title>r_merge</title>
<path fill="lightsteelblue" stroke="black" d="M638,-418.5C638,-418.5 517,-418.5 517,-418.5 511,-418.5 505,-412.5 505,-406.5 505,-406.5 505,-315.5 505,-315.5 505,-309.5 511,-303.5 517,-303.5 517,-303.5 638,-303.5 638,-303.5 644,-303.5 650,-309.5 650,-315.5 650,-315.5 650,-406.5 650,-406.5 650,-412.5 644,-418.5 638,-418.5"/>
<text text-anchor="middle" x="577.5" y="-403.3" font-family="Times,serif" font-size="14.00">R Channel</text>
<text text-anchor="middle" x="577.5" y="-388.3" font-family="Times,serif" font-size="14.00">Merge</text>
<text text-anchor="middle" x="577.5" y="-357.3" font-family="Times,serif" font-size="14.00">Arbitrate S slaves</text>
<text text-anchor="middle" x="577.5" y="-342.3" font-family="Times,serif" font-size="14.00">→ 1 stream</text>
<text text-anchor="middle" x="577.5" y="-311.3" font-family="Times,serif" font-size="14.00">Preserve bursts</text>
</g>
<!-- r_slaves&#45;&gt;r_merge -->
<g id="edge6" class="edge">
<title>r_slaves&#45;&gt;r_merge</title>
<path fill="none" stroke="green" stroke-width="2" d="M270.51,-467.58C332.05,-446.14 427.08,-413.04 494.89,-389.42"/>
<polygon fill="green" stroke="green" stroke-width="2" points="496.4,-392.6 504.69,-386.01 494.1,-385.99 496.4,-392.6"/>
<text text-anchor="middle" x="457.5" y="-424" font-family="Times,serif" font-size="10.00">R from</text>
<text text-anchor="middle" x="457.5" y="-413" font-family="Times,serif" font-size="10.00">all slaves</text>
</g>
<!-- b_id_extract -->
<g id="node4" class="node">
<title>b_id_extract</title>
<path fill="khaki" stroke="black" d="M892,-699C892,-699 801,-699 801,-699 795,-699 789,-693 789,-687 789,-687 789,-627 789,-627 789,-621 795,-615 801,-615 801,-615 892,-615 892,-615 898,-615 904,-621 904,-627 904,-627 904,-687 904,-687 904,-693 898,-699 892,-699"/>
<text text-anchor="middle" x="846.5" y="-683.8" font-family="Times,serif" font-size="14.00">Bridge ID</text>
<text text-anchor="middle" x="846.5" y="-668.8" font-family="Times,serif" font-size="14.00">Extraction</text>
<text text-anchor="middle" x="846.5" y="-637.8" font-family="Times,serif" font-size="14.00">Extract</text>
<text text-anchor="middle" x="846.5" y="-622.8" font-family="Times,serif" font-size="14.00">bridge_id bits</text>
</g>
<!-- b_merge&#45;&gt;b_id_extract -->
<g id="edge2" class="edge">
<title>b_merge&#45;&gt;b_id_extract</title>
<path fill="none" stroke="purple" d="M650.22,-646.53C656.23,-645.91 662.21,-645.39 668,-645 700.82,-642.81 709.17,-643.1 742,-645 753.92,-645.69 766.58,-646.82 778.8,-648.12"/>
<polygon fill="purple" stroke="purple" points="778.61,-651.62 788.93,-649.25 779.38,-644.66 778.61,-651.62"/>
<text text-anchor="middle" x="705" y="-659" font-family="Times,serif" font-size="10.00">Merged</text>
<text text-anchor="middle" x="705" y="-648" font-family="Times,serif" font-size="10.00">B stream</text>
</g>
<!-- id_lookup -->
<g id="node9" class="node">
<title>id_lookup</title>
<path fill="wheat" stroke="black" d="M1170,-648C1170,-648 1030,-648 1030,-648 1024,-648 1018,-642 1018,-636 1018,-636 1018,-560 1018,-560 1018,-554 1024,-548 1030,-548 1030,-548 1170,-548 1170,-548 1176,-548 1182,-554 1182,-560 1182,-560 1182,-636 1182,-636 1182,-642 1176,-648 1170,-648"/>
<text text-anchor="middle" x="1100" y="-632.8" font-family="Times,serif" font-size="14.00">ID Management</text>
<text text-anchor="middle" x="1100" y="-601.8" font-family="Times,serif" font-size="14.00">CAM/FIFO lookup</text>
<text text-anchor="middle" x="1100" y="-586.8" font-family="Times,serif" font-size="14.00">bridge_id → master</text>
<text text-anchor="middle" x="1100" y="-555.8" font-family="Times,serif" font-size="14.00">Transaction tracking</text>
</g>
<!-- b_id_extract&#45;&gt;id_lookup -->
<g id="edge3" class="edge">
<title>b_id_extract&#45;&gt;id_lookup</title>
<path fill="none" stroke="purple" stroke-dasharray="1,5" d="M904.26,-643.69C934.72,-636.54 973,-627.56 1007.54,-619.46"/>
<polygon fill="purple" stroke="purple" points="1008.71,-622.78 1017.65,-617.08 1007.12,-615.96 1008.71,-622.78"/>
<text text-anchor="middle" x="975.5" y="-645" font-family="Times,serif" font-size="10.00">Extract</text>
<text text-anchor="middle" x="975.5" y="-634" font-family="Times,serif" font-size="10.00">bridge_id</text>
</g>
<!-- b_demux -->
<g id="node5" class="node">
<title>b_demux</title>
<path fill="plum" stroke="black" d="M626.5,-817C626.5,-817 528.5,-817 528.5,-817 522.5,-817 516.5,-811 516.5,-805 516.5,-805 516.5,-729 516.5,-729 516.5,-723 522.5,-717 528.5,-717 528.5,-717 626.5,-717 626.5,-717 632.5,-717 638.5,-723 638.5,-729 638.5,-729 638.5,-805 638.5,-805 638.5,-811 632.5,-817 626.5,-817"/>
<text text-anchor="middle" x="577.5" y="-801.8" font-family="Times,serif" font-size="14.00">B Demux</text>
<text text-anchor="middle" x="577.5" y="-770.8" font-family="Times,serif" font-size="14.00">Route to</text>
<text text-anchor="middle" x="577.5" y="-755.8" font-family="Times,serif" font-size="14.00">correct master</text>
<text text-anchor="middle" x="577.5" y="-724.8" font-family="Times,serif" font-size="14.00">1:M demux</text>
</g>
<!-- b_masters -->
<g id="node10" class="node">
<title>b_masters</title>
<path fill="palegreen" stroke="black" d="M891,-247.5C891,-247.5 802,-247.5 802,-247.5 796,-247.5 790,-241.5 790,-235.5 790,-235.5 790,-160.5 790,-160.5 790,-154.5 796,-148.5 802,-148.5 802,-148.5 891,-148.5 891,-148.5 897,-148.5 903,-154.5 903,-160.5 903,-160.5 903,-235.5 903,-235.5 903,-241.5 897,-247.5 891,-247.5"/>
<text text-anchor="middle" x="846.5" y="-232.3" font-family="Times,serif" font-size="14.00">B Responses</text>
<text text-anchor="middle" x="846.5" y="-217.3" font-family="Times,serif" font-size="14.00">(M masters)</text>
<text text-anchor="middle" x="846.5" y="-186.3" font-family="Times,serif" font-size="14.00">BVALID[M]</text>
<text text-anchor="middle" x="846.5" y="-171.3" font-family="Times,serif" font-size="14.00">BID (original)</text>
<text text-anchor="middle" x="846.5" y="-156.3" font-family="Times,serif" font-size="14.00">BRESP</text>
</g>
<!-- b_demux&#45;&gt;b_masters -->
<g id="edge5" class="edge">
<title>b_demux&#45;&gt;b_masters</title>
<path fill="none" stroke="purple" stroke-width="2" d="M638.56,-724.93C643.05,-719.71 646.99,-714.05 650,-708 671.71,-664.28 639.81,-308.86 668,-269 693.42,-233.06 740.16,-215.3 779.29,-206.53"/>
<polygon fill="purple" stroke="purple" stroke-width="2" points="780.5,-209.86 789.58,-204.39 779.07,-203 780.5,-209.86"/>
<text text-anchor="middle" x="705" y="-283" font-family="Times,serif" font-size="10.00">Route B to</text>
<text text-anchor="middle" x="705" y="-272" font-family="Times,serif" font-size="10.00">correct master</text>
</g>
<!-- r_id_extract -->
<g id="node7" class="node">
<title>r_id_extract</title>
<path fill="khaki" stroke="black" d="M892,-454C892,-454 801,-454 801,-454 795,-454 789,-448 789,-442 789,-442 789,-382 789,-382 789,-376 795,-370 801,-370 801,-370 892,-370 892,-370 898,-370 904,-376 904,-382 904,-382 904,-442 904,-442 904,-448 898,-454 892,-454"/>
<text text-anchor="middle" x="846.5" y="-438.8" font-family="Times,serif" font-size="14.00">Bridge ID</text>
<text text-anchor="middle" x="846.5" y="-423.8" font-family="Times,serif" font-size="14.00">Extraction</text>
<text text-anchor="middle" x="846.5" y="-392.8" font-family="Times,serif" font-size="14.00">Extract</text>
<text text-anchor="middle" x="846.5" y="-377.8" font-family="Times,serif" font-size="14.00">bridge_id bits</text>
</g>
<!-- r_merge&#45;&gt;r_id_extract -->
<g id="edge7" class="edge">
<title>r_merge&#45;&gt;r_id_extract</title>
<path fill="none" stroke="green" d="M650.09,-356.59C678.97,-356.4 712.39,-358.21 742,-365 754.57,-367.88 767.47,-372.35 779.7,-377.42"/>
<polygon fill="green" stroke="green" points="778.35,-380.64 788.91,-381.39 781.12,-374.22 778.35,-380.64"/>
<text text-anchor="middle" x="705" y="-379" font-family="Times,serif" font-size="10.00">Merged</text>
<text text-anchor="middle" x="705" y="-368" font-family="Times,serif" font-size="10.00">R stream</text>
</g>
<!-- r_id_extract&#45;&gt;id_lookup -->
<g id="edge8" class="edge">
<title>r_id_extract&#45;&gt;id_lookup</title>
<path fill="none" stroke="green" stroke-dasharray="1,5" d="M904.29,-438.91C916.51,-444.99 929.27,-451.55 941,-458 967.92,-472.8 976.09,-474.71 1000,-494 1017.09,-507.79 1034.14,-524.4 1049.15,-540.26"/>
<polygon fill="green" stroke="green" points="1046.97,-543.05 1056.35,-547.97 1052.09,-538.28 1046.97,-543.05"/>
<text text-anchor="middle" x="975.5" y="-508" font-family="Times,serif" font-size="10.00">Extract</text>
<text text-anchor="middle" x="975.5" y="-497" font-family="Times,serif" font-size="10.00">bridge_id</text>
</g>
<!-- r_demux -->
<g id="node8" class="node">
<title>r_demux</title>
<path fill="plum" stroke="black" d="M626.5,-567.5C626.5,-567.5 528.5,-567.5 528.5,-567.5 522.5,-567.5 516.5,-561.5 516.5,-555.5 516.5,-555.5 516.5,-448.5 516.5,-448.5 516.5,-442.5 522.5,-436.5 528.5,-436.5 528.5,-436.5 626.5,-436.5 626.5,-436.5 632.5,-436.5 638.5,-442.5 638.5,-448.5 638.5,-448.5 638.5,-555.5 638.5,-555.5 638.5,-561.5 632.5,-567.5 626.5,-567.5"/>
<text text-anchor="middle" x="577.5" y="-552.3" font-family="Times,serif" font-size="14.00">R Demux</text>
<text text-anchor="middle" x="577.5" y="-521.3" font-family="Times,serif" font-size="14.00">Route to</text>
<text text-anchor="middle" x="577.5" y="-506.3" font-family="Times,serif" font-size="14.00">correct master</text>
<text text-anchor="middle" x="577.5" y="-475.3" font-family="Times,serif" font-size="14.00">1:M demux</text>
<text text-anchor="middle" x="577.5" y="-444.3" font-family="Times,serif" font-size="14.00">Interleave OK</text>
</g>
<!-- r_masters -->
<g id="node11" class="node">
<title>r_masters</title>
<path fill="palegreen" stroke="black" d="M891,-130C891,-130 802,-130 802,-130 796,-130 790,-124 790,-118 790,-118 790,-28 790,-28 790,-22 796,-16 802,-16 802,-16 891,-16 891,-16 897,-16 903,-22 903,-28 903,-28 903,-118 903,-118 903,-124 897,-130 891,-130"/>
<text text-anchor="middle" x="846.5" y="-114.8" font-family="Times,serif" font-size="14.00">R Responses</text>
<text text-anchor="middle" x="846.5" y="-99.8" font-family="Times,serif" font-size="14.00">(M masters)</text>
<text text-anchor="middle" x="846.5" y="-68.8" font-family="Times,serif" font-size="14.00">RVALID[M]</text>
<text text-anchor="middle" x="846.5" y="-53.8" font-family="Times,serif" font-size="14.00">RID (original)</text>
<text text-anchor="middle" x="846.5" y="-38.8" font-family="Times,serif" font-size="14.00">RDATA</text>
<text text-anchor="middle" x="846.5" y="-23.8" font-family="Times,serif" font-size="14.00">RRESP</text>
</g>
<!-- r_demux&#45;&gt;r_masters -->
<g id="edge10" class="edge">
<title>r_demux&#45;&gt;r_masters</title>
<path fill="none" stroke="green" stroke-width="2" d="M638.75,-446.42C643.13,-440.25 647,-433.74 650,-427 671.72,-378.13 640.62,-232.95 668,-187 693.17,-144.77 740.75,-115.48 780.31,-97.17"/>
<polygon fill="green" stroke="green" stroke-width="2" points="781.97,-100.27 789.66,-92.98 779.1,-93.88 781.97,-100.27"/>
<text text-anchor="middle" x="705" y="-201" font-family="Times,serif" font-size="10.00">Route R to</text>
<text text-anchor="middle" x="705" y="-190" font-family="Times,serif" font-size="10.00">correct master</text>
</g>
<!-- id_lookup&#45;&gt;b_demux -->
<g id="edge4" class="edge">
<title>id_lookup&#45;&gt;b_demux</title>
<path fill="none" stroke="purple" stroke-dasharray="1,5" d="M1040.43,-648.22C1012.13,-669.91 976.63,-693.57 941,-708 844.62,-747.03 723.93,-760.27 649.01,-764.75"/>
<polygon fill="purple" stroke="purple" points="648.54,-761.27 638.75,-765.32 648.93,-768.26 648.54,-761.27"/>
<text text-anchor="middle" x="846.5" y="-768" font-family="Times,serif" font-size="10.00">Master</text>
<text text-anchor="middle" x="846.5" y="-757" font-family="Times,serif" font-size="10.00">select</text>
</g>
<!-- id_lookup&#45;&gt;r_demux -->
<g id="edge9" class="edge">
<title>id_lookup&#45;&gt;r_demux</title>
<path fill="none" stroke="green" stroke-dasharray="1,5" d="M1017.6,-582.99C916.15,-564.28 744.48,-532.61 648.6,-514.93"/>
<polygon fill="green" stroke="green" points="649.19,-511.48 638.72,-513.11 647.92,-518.36 649.19,-511.48"/>
<text text-anchor="middle" x="846.5" y="-582" font-family="Times,serif" font-size="10.00">Master</text>
<text text-anchor="middle" x="846.5" y="-571" font-family="Times,serif" font-size="10.00">select</text>
</g>
<!-- id_example -->
<g id="node12" class="node">
<title>id_example</title>
<polygon fill="lightyellow" stroke="black" points="410,-938.5 0,-938.5 0,-703.5 416,-703.5 416,-932.5 410,-938.5"/>
<polyline fill="none" stroke="black" points="410,-938.5 410,-932.5 "/>
<polyline fill="none" stroke="black" points="416,-932.5 410,-932.5 "/>
<text text-anchor="middle" x="208" y="-923.3" font-family="Times,serif" font-size="14.00">Extended ID Structure</text>
<text text-anchor="middle" x="208" y="-892.3" font-family="Times,serif" font-size="14.00">Internal ID (crossbar):</text>
<text text-anchor="middle" x="208" y="-877.3" font-family="Times,serif" font-size="14.00"> &#160;[BID_WIDTH+ID_WIDTH&#45;1:0]</text>
<text text-anchor="middle" x="208" y="-862.3" font-family="Times,serif" font-size="14.00"> &#160;{bridge_id, master_id}</text>
<text text-anchor="middle" x="208" y="-847.3" font-family="Times,serif" font-size="14.00"> &#160;</text>
<text text-anchor="middle" x="208" y="-832.3" font-family="Times,serif" font-size="14.00">Example (2 masters, AWID_WIDTH=4):</text>
<text text-anchor="middle" x="208" y="-817.3" font-family="Times,serif" font-size="14.00"> &#160;Master 0: {1&#39;b0, 4&#39;b0101} = 5&#39;b0_0101</text>
<text text-anchor="middle" x="208" y="-802.3" font-family="Times,serif" font-size="14.00"> &#160;Master 1: {1&#39;b1, 4&#39;b0101} = 5&#39;b1_0101</text>
<text text-anchor="middle" x="208" y="-787.3" font-family="Times,serif" font-size="14.00"> &#160;&#160;&#160;&#160;&#160;&#160;&#160;&#160;&#160;&#160;^^^^^ ^^^^^</text>
<text text-anchor="middle" x="208" y="-772.3" font-family="Times,serif" font-size="14.00"> &#160;&#160;&#160;&#160;&#160;&#160;&#160;&#160;&#160;&#160;BID &#160;&#160;Master ID</text>
<text text-anchor="middle" x="208" y="-741.3" font-family="Times,serif" font-size="14.00">Extraction:</text>
<text text-anchor="middle" x="208" y="-726.3" font-family="Times,serif" font-size="14.00"> &#160;bridge_id = BID[BID_WIDTH+ID_WIDTH&#45;1:ID_WIDTH]</text>
<text text-anchor="middle" x="208" y="-711.3" font-family="Times,serif" font-size="14.00"> &#160;master_id = BID[ID_WIDTH&#45;1:0]</text>
</g>
<!-- merge_example -->
<g id="node13" class="node">
<title>merge_example</title>
<polygon fill="lightgray" stroke="black" points="364,-1147 46,-1147 46,-957 370,-957 370,-1141 364,-1147"/>
<polyline fill="none" stroke="black" points="364,-1147 364,-1141 "/>
<polyline fill="none" stroke="black" points="370,-1141 364,-1141 "/>
<text text-anchor="middle" x="208" y="-1131.8" font-family="Times,serif" font-size="14.00">Response Merge Arbitration</text>
<text text-anchor="middle" x="208" y="-1100.8" font-family="Times,serif" font-size="14.00">Multiple slaves may have responses ready:</text>
<text text-anchor="middle" x="208" y="-1085.8" font-family="Times,serif" font-size="14.00">• Round&#45;robin grants per cycle</text>
<text text-anchor="middle" x="208" y="-1070.8" font-family="Times,serif" font-size="14.00">• Cannot split bursts (wait for RLAST)</text>
<text text-anchor="middle" x="208" y="-1055.8" font-family="Times,serif" font-size="14.00">• B responses are single&#45;beat (no burst)</text>
<text text-anchor="middle" x="208" y="-1040.8" font-family="Times,serif" font-size="14.00">• R responses may be multi&#45;beat</text>
<text text-anchor="middle" x="208" y="-1009.8" font-family="Times,serif" font-size="14.00">Interleaving:</text>
<text text-anchor="middle" x="208" y="-994.8" font-family="Times,serif" font-size="14.00">• R channel CAN interleave by RID</text>
<text text-anchor="middle" x="208" y="-979.8" font-family="Times,serif" font-size="14.00">• Different RIDs can merge together</text>
<text text-anchor="middle" x="208" y="-964.8" font-family="Times,serif" font-size="14.00">• Same RID must stay together</text>
</g>
<!-- leg_b -->
<g id="node14" class="node">
<title>leg_b</title>
<polygon fill="none" stroke="purple" stroke-width="2" points="276.5,-1417 139.5,-1417 139.5,-1381 276.5,-1381 276.5,-1417"/>
<text text-anchor="middle" x="208" y="-1395.3" font-family="Times,serif" font-size="14.00">B Response Path</text>
</g>
<!-- leg_r -->
<g id="node15" class="node">
<title>leg_r</title>
<polygon fill="none" stroke="green" stroke-width="2" points="276.5,-1363 139.5,-1363 139.5,-1327 276.5,-1327 276.5,-1363"/>
<text text-anchor="middle" x="208" y="-1341.3" font-family="Times,serif" font-size="14.00">R Response Path</text>
</g>
<!-- leg_merge -->
<g id="node16" class="node">
<title>leg_merge</title>
<polygon fill="lightsteelblue" stroke="black" points="261,-1309 155,-1309 155,-1273 261,-1273 261,-1309"/>
<text text-anchor="middle" x="208" y="-1287.3" font-family="Times,serif" font-size="14.00">Merge Logic</text>
</g>
<!-- leg_id -->
<g id="node17" class="node">
<title>leg_id</title>
<polygon fill="khaki" stroke="black" points="264.5,-1255 151.5,-1255 151.5,-1219 264.5,-1219 264.5,-1255"/>
<text text-anchor="middle" x="208" y="-1233.3" font-family="Times,serif" font-size="14.00">ID Extraction</text>
</g>
<!-- leg_demux -->
<g id="node18" class="node">
<title>leg_demux</title>
<polygon fill="plum" stroke="black" points="271,-1201 145,-1201 145,-1165 271,-1165 271,-1201"/>
<text text-anchor="middle" x="208" y="-1179.3" font-family="Times,serif" font-size="14.00">Demultiplexing</text>
</g>
</g>
</svg>
