<?xml version="1.0" encoding="UTF-8" standalone="no"?>
<!DOCTYPE svg PUBLIC "-//W3C//DTD SVG 1.1//EN"
 "http://www.w3.org/Graphics/SVG/1.1/DTD/svg11.dtd">
<!-- Generated by graphviz version 2.43.0 (0)
 -->
<!-- Title: slave_router Pages: 1 -->
<svg width="2168pt" height="874pt"
 viewBox="0.00 0.00 2168.00 873.75" xmlns="http://www.w3.org/2000/svg" xmlns:xlink="http://www.w3.org/1999/xlink">
<g id="graph0" class="graph" transform="scale(1 1) rotate(0) translate(4 869.75)">
<title>slave_router</title>
<polygon fill="white" stroke="transparent" points="-4,4 -4,-869.75 2164,-869.75 2164,4 -4,4"/>
<text text-anchor="middle" x="1080" y="-850.55" font-family="Times,serif" font-size="14.00">Slave Router Architecture</text>
<text text-anchor="middle" x="1080" y="-835.55" font-family="Times,serif" font-size="14.00">Address Decode and Selection</text>
<g id="clust1" class="cluster">
<title>cluster_input</title>
<polygon fill="lightgreen" stroke="black" points="341,-659.75 341,-797.75 592,-797.75 592,-659.75 341,-659.75"/>
<text text-anchor="middle" x="466.5" y="-782.55" font-family="Times,serif" font-size="14.00">From Master Adapters</text>
</g>
<g id="clust2" class="cluster">
<title>cluster_router</title>
<polygon fill="lightyellow" stroke="black" points="8,-201 8,-569.75 805,-569.75 805,-201 8,-201"/>
<text text-anchor="middle" x="406.5" y="-554.55" font-family="Times,serif" font-size="14.00">Slave Router Module</text>
</g>
<g id="clust3" class="cluster">
<title>cluster_aw_decode</title>
<polygon fill="lightcyan" stroke="black" points="16,-244.88 16,-538.75 289,-538.75 289,-244.88 16,-244.88"/>
<text text-anchor="middle" x="152.5" y="-523.55" font-family="Times,serif" font-size="14.00">AW Address Decode</text>
</g>
<g id="clust4" class="cluster">
<title>cluster_ar_decode</title>
<polygon fill="lightcyan" stroke="black" points="524,-244.88 524,-538.75 797,-538.75 797,-244.88 524,-244.88"/>
<text text-anchor="middle" x="660.5" y="-523.55" font-family="Times,serif" font-size="14.00">AR Address Decode</text>
</g>
<g id="clust5" class="cluster">
<title>cluster_output</title>
<polygon fill="lightcoral" stroke="black" points="241,-8 241,-161 523,-161 523,-8 241,-8"/>
<text text-anchor="middle" x="382" y="-145.8" font-family="Times,serif" font-size="14.00">To Slave Arbiters</text>
</g>
<g id="clust6" class="cluster">
<title>cluster_legend</title>
<polygon fill="white" stroke="black" points="1388,-691.25 1388,-766.25 2152,-766.25 2152,-691.25 1388,-691.25"/>
<text text-anchor="middle" x="1770" y="-751.05" font-family="Times,serif" font-size="14.00">Legend</text>
</g>
<!-- aw_in -->
<g id="node1" class="node">
<title>aw_in</title>
<path fill="palegreen" stroke="black" d="M447.5,-766.75C447.5,-766.75 360.5,-766.75 360.5,-766.75 354.5,-766.75 348.5,-760.75 348.5,-754.75 348.5,-754.75 348.5,-679.75 348.5,-679.75 348.5,-673.75 354.5,-667.75 360.5,-667.75 360.5,-667.75 447.5,-667.75 447.5,-667.75 453.5,-667.75 459.5,-673.75 459.5,-679.75 459.5,-679.75 459.5,-754.75 459.5,-754.75 459.5,-760.75 453.5,-766.75 447.5,-766.75"/>
<text text-anchor="middle" x="404" y="-751.55" font-family="Times,serif" font-size="14.00">AW Channels</text>
<text text-anchor="middle" x="404" y="-736.55" font-family="Times,serif" font-size="14.00">(N masters)</text>
<text text-anchor="middle" x="404" y="-705.55" font-family="Times,serif" font-size="14.00">AWVALID</text>
<text text-anchor="middle" x="404" y="-690.55" font-family="Times,serif" font-size="14.00">AWADDR</text>
<text text-anchor="middle" x="404" y="-675.55" font-family="Times,serif" font-size="14.00">AWID</text>
</g>
<!-- aw_decode -->
<g id="node3" class="node">
<title>aw_decode</title>
<path fill="lightsteelblue" stroke="black" d="M269,-507.75C269,-507.75 183,-507.75 183,-507.75 177,-507.75 171,-501.75 171,-495.75 171,-495.75 171,-435.75 171,-435.75 171,-429.75 177,-423.75 183,-423.75 183,-423.75 269,-423.75 269,-423.75 275,-423.75 281,-429.75 281,-435.75 281,-435.75 281,-495.75 281,-495.75 281,-501.75 275,-507.75 269,-507.75"/>
<text text-anchor="middle" x="226" y="-492.55" font-family="Times,serif" font-size="14.00">Address</text>
<text text-anchor="middle" x="226" y="-477.55" font-family="Times,serif" font-size="14.00">Decoder</text>
<text text-anchor="middle" x="226" y="-446.55" font-family="Times,serif" font-size="14.00">Per&#45;Master</text>
<text text-anchor="middle" x="226" y="-431.55" font-family="Times,serif" font-size="14.00">Comparators</text>
</g>
<!-- aw_in&#45;&gt;aw_decode -->
<g id="edge1" class="edge">
<title>aw_in&#45;&gt;aw_decode</title>
<path fill="none" stroke="blue" stroke-width="2" d="M369.26,-667.55C338.08,-623.85 292.54,-560.02 261.22,-516.12"/>
<polygon fill="blue" stroke="blue" stroke-width="2" points="264.01,-514 255.35,-507.89 258.31,-518.06 264.01,-514"/>
<text text-anchor="middle" x="343.5" y="-580.75" font-family="Times,serif" font-size="10.00">AWADDR[M]</text>
</g>
<!-- ar_in -->
<g id="node2" class="node">
<title>ar_in</title>
<path fill="palegreen" stroke="black" d="M572.5,-766.75C572.5,-766.75 489.5,-766.75 489.5,-766.75 483.5,-766.75 477.5,-760.75 477.5,-754.75 477.5,-754.75 477.5,-679.75 477.5,-679.75 477.5,-673.75 483.5,-667.75 489.5,-667.75 489.5,-667.75 572.5,-667.75 572.5,-667.75 578.5,-667.75 584.5,-673.75 584.5,-679.75 584.5,-679.75 584.5,-754.75 584.5,-754.75 584.5,-760.75 578.5,-766.75 572.5,-766.75"/>
<text text-anchor="middle" x="531" y="-751.55" font-family="Times,serif" font-size="14.00">AR Channels</text>
<text text-anchor="middle" x="531" y="-736.55" font-family="Times,serif" font-size="14.00">(N masters)</text>
<text text-anchor="middle" x="531" y="-705.55" font-family="Times,serif" font-size="14.00">ARVALID</text>
<text text-anchor="middle" x="531" y="-690.55" font-family="Times,serif" font-size="14.00">ARADDR</text>
<text text-anchor="middle" x="531" y="-675.55" font-family="Times,serif" font-size="14.00">ARID</text>
</g>
<!-- ar_decode -->
<g id="node6" class="node">
<title>ar_decode</title>
<path fill="lightsteelblue" stroke="black" d="M634,-507.75C634,-507.75 548,-507.75 548,-507.75 542,-507.75 536,-501.75 536,-495.75 536,-495.75 536,-435.75 536,-435.75 536,-429.75 542,-423.75 548,-423.75 548,-423.75 634,-423.75 634,-423.75 640,-423.75 646,-429.75 646,-435.75 646,-435.75 646,-495.75 646,-495.75 646,-501.75 640,-507.75 634,-507.75"/>
<text text-anchor="middle" x="591" y="-492.55" font-family="Times,serif" font-size="14.00">Address</text>
<text text-anchor="middle" x="591" y="-477.55" font-family="Times,serif" font-size="14.00">Decoder</text>
<text text-anchor="middle" x="591" y="-446.55" font-family="Times,serif" font-size="14.00">Per&#45;Master</text>
<text text-anchor="middle" x="591" y="-431.55" font-family="Times,serif" font-size="14.00">Comparators</text>
</g>
<!-- ar_in&#45;&gt;ar_decode -->
<g id="edge7" class="edge">
<title>ar_in&#45;&gt;ar_decode</title>
<path fill="none" stroke="green" stroke-width="2" d="M542.71,-667.55C553.09,-624.4 568.19,-561.61 578.73,-517.77"/>
<polygon fill="green" stroke="green" stroke-width="2" points="582.17,-518.43 581.11,-507.89 575.37,-516.79 582.17,-518.43"/>
<text text-anchor="middle" x="594.5" y="-580.75" font-family="Times,serif" font-size="10.00">ARADDR[M]</text>
</g>
<!-- aw_matrix -->
<g id="node4" class="node">
<title>aw_matrix</title>
<path fill="khaki" stroke="black" d="M140,-321.88C140,-321.88 36,-321.88 36,-321.88 30,-321.88 24,-315.88 24,-309.88 24,-309.88 24,-264.88 24,-264.88 24,-258.88 30,-252.88 36,-252.88 36,-252.88 140,-252.88 140,-252.88 146,-252.88 152,-258.88 152,-264.88 152,-264.88 152,-309.88 152,-309.88 152,-315.88 146,-321.88 140,-321.88"/>
<text text-anchor="middle" x="88" y="-306.68" font-family="Times,serif" font-size="14.00">Routing</text>
<text text-anchor="middle" x="88" y="-291.68" font-family="Times,serif" font-size="14.00">Matrix</text>
<text text-anchor="middle" x="88" y="-260.68" font-family="Times,serif" font-size="14.00">M×S selections</text>
</g>
<!-- aw_decode&#45;&gt;aw_matrix -->
<g id="edge3" class="edge">
<title>aw_decode&#45;&gt;aw_matrix</title>
<path fill="none" stroke="blue" d="M170.83,-445.77C151.25,-436.51 130.69,-423.45 117,-405.75 100.83,-384.85 93.55,-356.13 90.33,-332.33"/>
<polygon fill="blue" stroke="blue" points="93.78,-331.66 89.15,-322.12 86.82,-332.46 93.78,-331.66"/>
<text text-anchor="middle" x="148.5" y="-397.75" font-family="Times,serif" font-size="10.00">Slave match</text>
<text text-anchor="middle" x="148.5" y="-386.75" font-family="Times,serif" font-size="10.00">per master</text>
</g>
<!-- aw_oor -->
<g id="node5" class="node">
<title>aw_oor</title>
<path fill="lightcoral" stroke="black" d="M269.5,-321.88C269.5,-321.88 182.5,-321.88 182.5,-321.88 176.5,-321.88 170.5,-315.88 170.5,-309.88 170.5,-309.88 170.5,-264.88 170.5,-264.88 170.5,-258.88 176.5,-252.88 182.5,-252.88 182.5,-252.88 269.5,-252.88 269.5,-252.88 275.5,-252.88 281.5,-258.88 281.5,-264.88 281.5,-264.88 281.5,-309.88 281.5,-309.88 281.5,-315.88 275.5,-321.88 269.5,-321.88"/>
<text text-anchor="middle" x="226" y="-306.68" font-family="Times,serif" font-size="14.00">Out&#45;of&#45;Range</text>
<text text-anchor="middle" x="226" y="-291.68" font-family="Times,serif" font-size="14.00">Detection</text>
<text text-anchor="middle" x="226" y="-260.68" font-family="Times,serif" font-size="14.00">DECERR gen</text>
</g>
<!-- aw_decode&#45;&gt;aw_oor -->
<g id="edge4" class="edge">
<title>aw_decode&#45;&gt;aw_oor</title>
<path fill="none" stroke="red" stroke-dasharray="1,5" d="M193.69,-423.45C190.55,-417.75 187.85,-411.78 186,-405.75 178.34,-380.79 186.91,-353.13 198.06,-330.94"/>
<polygon fill="red" stroke="red" points="201.16,-332.57 202.78,-322.1 194.98,-329.27 201.16,-332.57"/>
<text text-anchor="middle" x="211" y="-392.25" font-family="Times,serif" font-size="10.00">No match</text>
</g>
<!-- addr_map -->
<g id="node9" class="node">
<title>addr_map</title>
<path fill="wheat" stroke="black" d="M514,-351.4C514,-359.25 466.04,-365.63 407,-365.63 347.96,-365.63 300,-359.25 300,-351.4 300,-351.4 300,-223.35 300,-223.35 300,-215.5 347.96,-209.12 407,-209.12 466.04,-209.12 514,-215.5 514,-223.35 514,-223.35 514,-351.4 514,-351.4"/>
<path fill="none" stroke="black" d="M514,-351.4C514,-343.55 466.04,-337.17 407,-337.17 347.96,-337.17 300,-343.55 300,-351.4"/>
<text text-anchor="middle" x="407" y="-329.18" font-family="Times,serif" font-size="14.00">Address Map</text>
<text text-anchor="middle" x="407" y="-314.18" font-family="Times,serif" font-size="14.00">Configuration</text>
<text text-anchor="middle" x="407" y="-283.18" font-family="Times,serif" font-size="14.00">Slave 0: BASE[0] &#45; END[0]</text>
<text text-anchor="middle" x="407" y="-268.18" font-family="Times,serif" font-size="14.00">Slave 1: BASE[1] &#45; END[1]</text>
<text text-anchor="middle" x="407" y="-253.18" font-family="Times,serif" font-size="14.00">...</text>
<text text-anchor="middle" x="407" y="-238.18" font-family="Times,serif" font-size="14.00">Slave N: BASE[N] &#45; END[N]</text>
</g>
<!-- aw_decode&#45;&gt;addr_map -->
<g id="edge2" class="edge">
<title>aw_decode&#45;&gt;addr_map</title>
<path fill="none" stroke="blue" stroke-dasharray="1,5" d="M268.44,-423.4C284.67,-407.58 303.81,-388.92 322.6,-370.62"/>
<polygon fill="blue" stroke="blue" points="325.34,-372.84 330.06,-363.35 320.45,-367.82 325.34,-372.84"/>
<text text-anchor="middle" x="331" y="-397.75" font-family="Times,serif" font-size="10.00">Compare</text>
<text text-anchor="middle" x="331" y="-386.75" font-family="Times,serif" font-size="10.00">vs ranges</text>
</g>
<!-- aw_out -->
<g id="node10" class="node">
<title>aw_out</title>
<path fill="lightpink" stroke="black" d="M361,-130C361,-130 261,-130 261,-130 255,-130 249,-124 249,-118 249,-118 249,-28 249,-28 249,-22 255,-16 261,-16 261,-16 361,-16 361,-16 367,-16 373,-22 373,-28 373,-28 373,-118 373,-118 373,-124 367,-130 361,-130"/>
<text text-anchor="middle" x="311" y="-114.8" font-family="Times,serif" font-size="14.00">AW Requests</text>
<text text-anchor="middle" x="311" y="-99.8" font-family="Times,serif" font-size="14.00">per Slave</text>
<text text-anchor="middle" x="311" y="-68.8" font-family="Times,serif" font-size="14.00">S0: M masters</text>
<text text-anchor="middle" x="311" y="-53.8" font-family="Times,serif" font-size="14.00">S1: M masters</text>
<text text-anchor="middle" x="311" y="-38.8" font-family="Times,serif" font-size="14.00">...</text>
<text text-anchor="middle" x="311" y="-23.8" font-family="Times,serif" font-size="14.00">SN: M masters</text>
</g>
<!-- aw_matrix&#45;&gt;aw_out -->
<g id="edge5" class="edge">
<title>aw_matrix&#45;&gt;aw_out</title>
<path fill="none" stroke="blue" stroke-width="2" d="M116.08,-252.82C129.51,-236.96 145.91,-217.85 161,-201 174,-186.48 176.65,-182.2 191,-169 206.55,-154.7 224.01,-140.12 240.7,-126.82"/>
<polygon fill="blue" stroke="blue" stroke-width="2" points="243.15,-129.34 248.82,-120.39 238.8,-123.85 243.15,-129.34"/>
<text text-anchor="middle" x="226.5" y="-183" font-family="Times,serif" font-size="10.00">Route to</text>
<text text-anchor="middle" x="226.5" y="-172" font-family="Times,serif" font-size="10.00">Slave arbiters</text>
</g>
<!-- aw_oor&#45;&gt;aw_out -->
<g id="edge6" class="edge">
<title>aw_oor&#45;&gt;aw_out</title>
<path fill="none" stroke="red" stroke-dasharray="1,5" d="M239.47,-252.72C251.59,-222.43 269.76,-177.04 284.75,-139.58"/>
<polygon fill="red" stroke="red" points="288.02,-140.83 288.49,-130.24 281.52,-138.23 288.02,-140.83"/>
<text text-anchor="middle" x="295.5" y="-183" font-family="Times,serif" font-size="10.00">Error</text>
<text text-anchor="middle" x="295.5" y="-172" font-family="Times,serif" font-size="10.00">response</text>
</g>
<!-- ar_matrix -->
<g id="node7" class="node">
<title>ar_matrix</title>
<path fill="khaki" stroke="black" d="M648,-321.88C648,-321.88 544,-321.88 544,-321.88 538,-321.88 532,-315.88 532,-309.88 532,-309.88 532,-264.88 532,-264.88 532,-258.88 538,-252.88 544,-252.88 544,-252.88 648,-252.88 648,-252.88 654,-252.88 660,-258.88 660,-264.88 660,-264.88 660,-309.88 660,-309.88 660,-315.88 654,-321.88 648,-321.88"/>
<text text-anchor="middle" x="596" y="-306.68" font-family="Times,serif" font-size="14.00">Routing</text>
<text text-anchor="middle" x="596" y="-291.68" font-family="Times,serif" font-size="14.00">Matrix</text>
<text text-anchor="middle" x="596" y="-260.68" font-family="Times,serif" font-size="14.00">M×S selections</text>
</g>
<!-- ar_decode&#45;&gt;ar_matrix -->
<g id="edge9" class="edge">
<title>ar_decode&#45;&gt;ar_matrix</title>
<path fill="none" stroke="green" d="M592.17,-423.4C592.95,-396.04 593.96,-360.21 594.75,-332.34"/>
<polygon fill="green" stroke="green" points="598.26,-332.18 595.04,-322.08 591.26,-331.98 598.26,-332.18"/>
<text text-anchor="middle" x="624.5" y="-397.75" font-family="Times,serif" font-size="10.00">Slave match</text>
<text text-anchor="middle" x="624.5" y="-386.75" font-family="Times,serif" font-size="10.00">per master</text>
</g>
<!-- ar_oor -->
<g id="node8" class="node">
<title>ar_oor</title>
<path fill="lightcoral" stroke="black" d="M777.5,-321.88C777.5,-321.88 690.5,-321.88 690.5,-321.88 684.5,-321.88 678.5,-315.88 678.5,-309.88 678.5,-309.88 678.5,-264.88 678.5,-264.88 678.5,-258.88 684.5,-252.88 690.5,-252.88 690.5,-252.88 777.5,-252.88 777.5,-252.88 783.5,-252.88 789.5,-258.88 789.5,-264.88 789.5,-264.88 789.5,-309.88 789.5,-309.88 789.5,-315.88 783.5,-321.88 777.5,-321.88"/>
<text text-anchor="middle" x="734" y="-306.68" font-family="Times,serif" font-size="14.00">Out&#45;of&#45;Range</text>
<text text-anchor="middle" x="734" y="-291.68" font-family="Times,serif" font-size="14.00">Detection</text>
<text text-anchor="middle" x="734" y="-260.68" font-family="Times,serif" font-size="14.00">DECERR gen</text>
</g>
<!-- ar_decode&#45;&gt;ar_oor -->
<g id="edge10" class="edge">
<title>ar_decode&#45;&gt;ar_oor</title>
<path fill="none" stroke="red" stroke-dasharray="1,5" d="M642.76,-423.54C648.84,-417.83 654.74,-411.83 660,-405.75 679.75,-382.91 697.9,-354.29 711.29,-331.03"/>
<polygon fill="red" stroke="red" points="714.47,-332.51 716.36,-322.08 708.38,-329.06 714.47,-332.51"/>
<text text-anchor="middle" x="701" y="-392.25" font-family="Times,serif" font-size="10.00">No match</text>
</g>
<!-- ar_decode&#45;&gt;addr_map -->
<g id="edge8" class="edge">
<title>ar_decode&#45;&gt;addr_map</title>
<path fill="none" stroke="green" stroke-dasharray="1,5" d="M547.86,-423.4C531.28,-407.51 511.72,-388.76 492.54,-370.37"/>
<polygon fill="green" stroke="green" points="494.86,-367.74 485.22,-363.35 490.01,-372.8 494.86,-367.74"/>
<text text-anchor="middle" x="551" y="-397.75" font-family="Times,serif" font-size="10.00">Compare</text>
<text text-anchor="middle" x="551" y="-386.75" font-family="Times,serif" font-size="10.00">vs ranges</text>
</g>
<!-- ar_out -->
<g id="node11" class="node">
<title>ar_out</title>
<path fill="lightpink" stroke="black" d="M503,-130C503,-130 403,-130 403,-130 397,-130 391,-124 391,-118 391,-118 391,-28 391,-28 391,-22 397,-16 403,-16 403,-16 503,-16 503,-16 509,-16 515,-22 515,-28 515,-28 515,-118 515,-118 515,-124 509,-130 503,-130"/>
<text text-anchor="middle" x="453" y="-114.8" font-family="Times,serif" font-size="14.00">AR Requests</text>
<text text-anchor="middle" x="453" y="-99.8" font-family="Times,serif" font-size="14.00">per Slave</text>
<text text-anchor="middle" x="453" y="-68.8" font-family="Times,serif" font-size="14.00">S0: M masters</text>
<text text-anchor="middle" x="453" y="-53.8" font-family="Times,serif" font-size="14.00">S1: M masters</text>
<text text-anchor="middle" x="453" y="-38.8" font-family="Times,serif" font-size="14.00">...</text>
<text text-anchor="middle" x="453" y="-23.8" font-family="Times,serif" font-size="14.00">SN: M masters</text>
</g>
<!-- ar_matrix&#45;&gt;ar_out -->
<g id="edge11" class="edge">
<title>ar_matrix&#45;&gt;ar_out</title>
<path fill="none" stroke="green" stroke-width="2" d="M573.34,-252.72C552.77,-222.17 521.86,-176.26 496.52,-138.63"/>
<polygon fill="green" stroke="green" stroke-width="2" points="499.36,-136.58 490.87,-130.24 493.55,-140.49 499.36,-136.58"/>
<text text-anchor="middle" x="563.5" y="-183" font-family="Times,serif" font-size="10.00">Route to</text>
<text text-anchor="middle" x="563.5" y="-172" font-family="Times,serif" font-size="10.00">Slave arbiters</text>
</g>
<!-- ar_oor&#45;&gt;ar_out -->
<g id="edge12" class="edge">
<title>ar_oor&#45;&gt;ar_out</title>
<path fill="none" stroke="red" stroke-dasharray="1,5" d="M712.9,-252.67C701.3,-235.85 685.86,-215.96 669,-201 625.62,-162.51 568.85,-129.66 524.39,-107.03"/>
<polygon fill="red" stroke="red" points="525.89,-103.86 515.38,-102.49 522.74,-110.12 525.89,-103.86"/>
<text text-anchor="middle" x="676.5" y="-183" font-family="Times,serif" font-size="10.00">Error</text>
<text text-anchor="middle" x="676.5" y="-172" font-family="Times,serif" font-size="10.00">response</text>
</g>
<!-- example -->
<g id="node12" class="node">
<title>example</title>
<polygon fill="lightyellow" stroke="black" points="1069.5,-796.75 602.5,-796.75 602.5,-637.75 1075.5,-637.75 1075.5,-790.75 1069.5,-796.75"/>
<polyline fill="none" stroke="black" points="1069.5,-796.75 1069.5,-790.75 "/>
<polyline fill="none" stroke="black" points="1075.5,-790.75 1069.5,-790.75 "/>
<text text-anchor="middle" x="839" y="-781.55" font-family="Times,serif" font-size="14.00">Decode Logic (per master)</text>
<text text-anchor="middle" x="839" y="-750.55" font-family="Times,serif" font-size="14.00">for each AWADDR:</text>
<text text-anchor="middle" x="839" y="-735.55" font-family="Times,serif" font-size="14.00"> &#160;if (ADDR &gt;= SLAVE0_BASE &amp;&amp; ADDR &lt;= SLAVE0_END)</text>
<text text-anchor="middle" x="839" y="-720.55" font-family="Times,serif" font-size="14.00"> &#160;&#160;&#160;route_to_slave[0] = 1</text>
<text text-anchor="middle" x="839" y="-705.55" font-family="Times,serif" font-size="14.00"> &#160;else if (ADDR &gt;= SLAVE1_BASE &amp;&amp; ADDR &lt;= SLAVE1_END)</text>
<text text-anchor="middle" x="839" y="-690.55" font-family="Times,serif" font-size="14.00"> &#160;&#160;&#160;route_to_slave[1] = 1</text>
<text text-anchor="middle" x="839" y="-675.55" font-family="Times,serif" font-size="14.00"> &#160;...</text>
<text text-anchor="middle" x="839" y="-660.55" font-family="Times,serif" font-size="14.00"> &#160;else</text>
<text text-anchor="middle" x="839" y="-645.55" font-family="Times,serif" font-size="14.00"> &#160;&#160;&#160;out_of_range = 1 &#160;// Generate DECERR</text>
</g>
<!-- config -->
<g id="node13" class="node">
<title>config</title>
<polygon fill="lightgray" stroke="black" points="1372,-827.75 1094,-827.75 1094,-606.75 1378,-606.75 1378,-821.75 1372,-827.75"/>
<polyline fill="none" stroke="black" points="1372,-827.75 1372,-821.75 "/>
<polyline fill="none" stroke="black" points="1378,-821.75 1372,-821.75 "/>
<text text-anchor="middle" x="1236" y="-812.55" font-family="Times,serif" font-size="14.00">Configuration</text>
<text text-anchor="middle" x="1236" y="-781.55" font-family="Times,serif" font-size="14.00">Address Map:</text>
<text text-anchor="middle" x="1236" y="-766.55" font-family="Times,serif" font-size="14.00">• Per&#45;slave BASE and SIZE</text>
<text text-anchor="middle" x="1236" y="-751.55" font-family="Times,serif" font-size="14.00">• Non&#45;overlapping ranges required</text>
<text text-anchor="middle" x="1236" y="-736.55" font-family="Times,serif" font-size="14.00">• Gaps allowed (→ DECERR)</text>
<text text-anchor="middle" x="1236" y="-705.55" font-family="Times,serif" font-size="14.00">Default Slave:</text>
<text text-anchor="middle" x="1236" y="-690.55" font-family="Times,serif" font-size="14.00">• Optional catch&#45;all</text>
<text text-anchor="middle" x="1236" y="-675.55" font-family="Times,serif" font-size="14.00">• Handles unmapped addresses</text>
<text text-anchor="middle" x="1236" y="-644.55" font-family="Times,serif" font-size="14.00">Priority:</text>
<text text-anchor="middle" x="1236" y="-629.55" font-family="Times,serif" font-size="14.00">• Lower slave index = higher priority</text>
<text text-anchor="middle" x="1236" y="-614.55" font-family="Times,serif" font-size="14.00">• In case of overlaps</text>
</g>
<!-- leg_write -->
<g id="node14" class="node">
<title>leg_write</title>
<polygon fill="none" stroke="blue" stroke-width="2" points="2144,-735.25 1992,-735.25 1992,-699.25 2144,-699.25 2144,-735.25"/>
<text text-anchor="middle" x="2068" y="-713.55" font-family="Times,serif" font-size="14.00">Write Decode (AW)</text>
</g>
<!-- leg_read -->
<g id="node15" class="node">
<title>leg_read</title>
<polygon fill="none" stroke="green" stroke-width="2" points="1973.5,-735.25 1828.5,-735.25 1828.5,-699.25 1973.5,-699.25 1973.5,-735.25"/>
<text text-anchor="middle" x="1901" y="-713.55" font-family="Times,serif" font-size="14.00">Read Decode (AR)</text>
</g>
<!-- leg_error -->
<g id="node16" class="node">
<title>leg_error</title>
<polygon fill="none" stroke="red" stroke-width="2" points="1810,-735.25 1670,-735.25 1670,-699.25 1810,-699.25 1810,-735.25"/>
<text text-anchor="middle" x="1740" y="-713.55" font-family="Times,serif" font-size="14.00">Error Path (OOR)</text>
</g>
<!-- leg_decode -->
<g id="node17" class="node">
<title>leg_decode</title>
<polygon fill="lightsteelblue" stroke="black" points="1652,-735.25 1540,-735.25 1540,-699.25 1652,-699.25 1652,-735.25"/>
<text text-anchor="middle" x="1596" y="-713.55" font-family="Times,serif" font-size="14.00">Decode Logic</text>
</g>
<!-- leg_route -->
<g id="node18" class="node">
<title>leg_route</title>
<polygon fill="khaki" stroke="black" points="1521.5,-735.25 1396.5,-735.25 1396.5,-699.25 1521.5,-699.25 1521.5,-735.25"/>
<text text-anchor="middle" x="1459" y="-713.55" font-family="Times,serif" font-size="14.00">Routing Matrix</text>
</g>
</g>
</svg>
