<?xml version="1.0" encoding="UTF-8" standalone="no"?>
<!DOCTYPE svg PUBLIC "-//W3C//DTD SVG 1.1//EN"
 "http://www.w3.org/Graphics/SVG/1.1/DTD/svg11.dtd">
<!-- Generated by graphviz version 2.43.0 (0)
 -->
<!-- Title: width_conversion Pages: 1 -->
<svg width="997pt" height="1141pt"
 viewBox="0.00 0.00 997.00 1141.00" xmlns="http://www.w3.org/2000/svg" xmlns:xlink="http://www.w3.org/1999/xlink">
<g id="graph0" class="graph" transform="scale(1 1) rotate(0) translate(4 1137)">
<title>width_conversion</title>
<polygon fill="white" stroke="transparent" points="-4,4 -4,-1137 993,-1137 993,4 -4,4"/>
<text text-anchor="middle" x="494.5" y="-1117.8" font-family="Times,serif" font-size="14.00">Width Conversion Architecture</text>
<text text-anchor="middle" x="494.5" y="-1102.8" font-family="Times,serif" font-size="14.00">Data Width Upsizing and Downsizing</text>
<g id="clust1" class="cluster">
<title>cluster_narrow</title>
<polygon fill="lightgreen" stroke="black" points="11.5,-123 11.5,-402 272.5,-402 272.5,-123 11.5,-123"/>
<text text-anchor="middle" x="142" y="-386.8" font-family="Times,serif" font-size="14.00">Narrow Interface (32&#45;bit example)</text>
</g>
<g id="clust2" class="cluster">
<title>cluster_upsize</title>
<polygon fill="lightyellow" stroke="black" points="399,-421 399,-826 650,-826 650,-421 399,-421"/>
<text text-anchor="middle" x="524.5" y="-810.8" font-family="Times,serif" font-size="14.00">Upsizing Converter (32→64 bits)</text>
</g>
<g id="clust3" class="cluster">
<title>cluster_downsize</title>
<polygon fill="wheat" stroke="black" points="390,-8 390,-413 660,-413 660,-8 390,-8"/>
<text text-anchor="middle" x="525" y="-397.8" font-family="Times,serif" font-size="14.00">Downsizing Converter (64→32 bits)</text>
</g>
<g id="clust4" class="cluster">
<title>cluster_wide</title>
<polygon fill="lightcoral" stroke="black" points="746,-274 746,-553 989,-553 989,-274 746,-274"/>
<text text-anchor="middle" x="867.5" y="-537.8" font-family="Times,serif" font-size="14.00">Wide Interface (64&#45;bit example)</text>
</g>
<g id="clust5" class="cluster">
<title>cluster_legend</title>
<polygon fill="white" stroke="black" points="21.5,-850 21.5,-1087 262.5,-1087 262.5,-850 21.5,-850"/>
<text text-anchor="middle" x="142" y="-1071.8" font-family="Times,serif" font-size="14.00">Legend</text>
</g>
<!-- narrow_aw -->
<g id="node1" class="node">
<title>narrow_aw</title>
<path fill="palegreen" stroke="black" d="M208.5,-371C208.5,-371 75.5,-371 75.5,-371 69.5,-371 63.5,-365 63.5,-359 63.5,-359 63.5,-315 63.5,-315 63.5,-309 69.5,-303 75.5,-303 75.5,-303 208.5,-303 208.5,-303 214.5,-303 220.5,-309 220.5,-315 220.5,-315 220.5,-359 220.5,-359 220.5,-365 214.5,-371 208.5,-371"/>
<text text-anchor="middle" x="142" y="-355.8" font-family="Times,serif" font-size="14.00">AW</text>
<text text-anchor="middle" x="142" y="-340.8" font-family="Times,serif" font-size="14.00">32&#45;bit addr</text>
<text text-anchor="middle" x="142" y="-325.8" font-family="Times,serif" font-size="14.00">ARSIZE=2 (4B)</text>
<text text-anchor="middle" x="142" y="-310.8" font-family="Times,serif" font-size="14.00">ARLEN=3 (4 beats)</text>
</g>
<!-- up_addr -->
<g id="node4" class="node">
<title>up_addr</title>
<path fill="lightcyan" stroke="black" d="M568,-794.5C568,-794.5 481,-794.5 481,-794.5 475,-794.5 469,-788.5 469,-782.5 469,-782.5 469,-707.5 469,-707.5 469,-701.5 475,-695.5 481,-695.5 481,-695.5 568,-695.5 568,-695.5 574,-695.5 580,-701.5 580,-707.5 580,-707.5 580,-782.5 580,-782.5 580,-788.5 574,-794.5 568,-794.5"/>
<text text-anchor="middle" x="524.5" y="-779.3" font-family="Times,serif" font-size="14.00">Address</text>
<text text-anchor="middle" x="524.5" y="-764.3" font-family="Times,serif" font-size="14.00">Adjustment</text>
<text text-anchor="middle" x="524.5" y="-733.3" font-family="Times,serif" font-size="14.00">ARSIZE: 2→3</text>
<text text-anchor="middle" x="524.5" y="-718.3" font-family="Times,serif" font-size="14.00">ARLEN: 3→1</text>
<text text-anchor="middle" x="524.5" y="-703.3" font-family="Times,serif" font-size="14.00">(4→2 beats)</text>
</g>
<!-- narrow_aw&#45;&gt;up_addr -->
<g id="edge1" class="edge">
<title>narrow_aw&#45;&gt;up_addr</title>
<path fill="none" stroke="blue" stroke-width="2" d="M220.61,-359.39C243.44,-369.11 266.87,-382.61 284,-401 376.39,-500.21 296.81,-588.55 390,-687 408.56,-706.6 434.87,-719.95 459.24,-728.84"/>
<polygon fill="blue" stroke="blue" stroke-width="2" points="458.22,-732.19 468.82,-732.15 460.51,-725.58 458.22,-732.19"/>
<text text-anchor="middle" x="341" y="-689" font-family="Times,serif" font-size="10.00">AW with</text>
<text text-anchor="middle" x="341" y="-678" font-family="Times,serif" font-size="10.00">narrow params</text>
</g>
<!-- narrow_w -->
<g id="node2" class="node">
<title>narrow_w</title>
<path fill="palegreen" stroke="black" d="M182,-199C182,-199 102,-199 102,-199 96,-199 90,-193 90,-187 90,-187 90,-143 90,-143 90,-137 96,-131 102,-131 102,-131 182,-131 182,-131 188,-131 194,-137 194,-143 194,-143 194,-187 194,-187 194,-193 188,-199 182,-199"/>
<text text-anchor="middle" x="142" y="-183.8" font-family="Times,serif" font-size="14.00">W</text>
<text text-anchor="middle" x="142" y="-168.8" font-family="Times,serif" font-size="14.00">32&#45;bit data</text>
<text text-anchor="middle" x="142" y="-153.8" font-family="Times,serif" font-size="14.00">WSTRB[3:0]</text>
<text text-anchor="middle" x="142" y="-138.8" font-family="Times,serif" font-size="14.00">4 beats</text>
</g>
<!-- up_pack -->
<g id="node5" class="node">
<title>up_pack</title>
<path fill="lightsteelblue" stroke="black" d="M572,-544.5C572,-544.5 477,-544.5 477,-544.5 471,-544.5 465,-538.5 465,-532.5 465,-532.5 465,-441.5 465,-441.5 465,-435.5 471,-429.5 477,-429.5 477,-429.5 572,-429.5 572,-429.5 578,-429.5 584,-435.5 584,-441.5 584,-441.5 584,-532.5 584,-532.5 584,-538.5 578,-544.5 572,-544.5"/>
<text text-anchor="middle" x="524.5" y="-529.3" font-family="Times,serif" font-size="14.00">Data</text>
<text text-anchor="middle" x="524.5" y="-514.3" font-family="Times,serif" font-size="14.00">Packing</text>
<text text-anchor="middle" x="524.5" y="-483.3" font-family="Times,serif" font-size="14.00">Collect 2×32b</text>
<text text-anchor="middle" x="524.5" y="-468.3" font-family="Times,serif" font-size="14.00">→ 1×64b</text>
<text text-anchor="middle" x="524.5" y="-437.3" font-family="Times,serif" font-size="14.00">Strobe merge</text>
</g>
<!-- narrow_w&#45;&gt;up_pack -->
<g id="edge3" class="edge">
<title>narrow_w&#45;&gt;up_pack</title>
<path fill="none" stroke="blue" stroke-width="2" d="M194.02,-155.1C248.67,-147.77 333.76,-146.46 380,-197 396.52,-215.05 376.86,-396.35 390,-417 404.95,-440.49 430.53,-456.55 455.33,-467.29"/>
<polygon fill="blue" stroke="blue" stroke-width="2" points="454.19,-470.61 464.77,-471.16 456.84,-464.13 454.19,-470.61"/>
<text text-anchor="middle" x="341" y="-211" font-family="Times,serif" font-size="10.00">32&#45;bit</text>
<text text-anchor="middle" x="341" y="-200" font-family="Times,serif" font-size="10.00">W beats (4)</text>
</g>
<!-- narrow_r -->
<g id="node3" class="node">
<title>narrow_r</title>
<path fill="lightgreen" stroke="black" d="M183.5,-285C183.5,-285 100.5,-285 100.5,-285 94.5,-285 88.5,-279 88.5,-273 88.5,-273 88.5,-229 88.5,-229 88.5,-223 94.5,-217 100.5,-217 100.5,-217 183.5,-217 183.5,-217 189.5,-217 195.5,-223 195.5,-229 195.5,-229 195.5,-273 195.5,-273 195.5,-279 189.5,-285 183.5,-285"/>
<text text-anchor="middle" x="142" y="-269.8" font-family="Times,serif" font-size="14.00">R</text>
<text text-anchor="middle" x="142" y="-254.8" font-family="Times,serif" font-size="14.00">32&#45;bit data</text>
<text text-anchor="middle" x="142" y="-239.8" font-family="Times,serif" font-size="14.00">RDATA[31:0]</text>
<text text-anchor="middle" x="142" y="-224.8" font-family="Times,serif" font-size="14.00">4 beats</text>
</g>
<!-- down_merge -->
<g id="node9" class="node">
<title>down_merge</title>
<path fill="khaki" stroke="black" d="M577,-264.5C577,-264.5 472,-264.5 472,-264.5 466,-264.5 460,-258.5 460,-252.5 460,-252.5 460,-161.5 460,-161.5 460,-155.5 466,-149.5 472,-149.5 472,-149.5 577,-149.5 577,-149.5 583,-149.5 589,-155.5 589,-161.5 589,-161.5 589,-252.5 589,-252.5 589,-258.5 583,-264.5 577,-264.5"/>
<text text-anchor="middle" x="524.5" y="-249.3" font-family="Times,serif" font-size="14.00">Data</text>
<text text-anchor="middle" x="524.5" y="-234.3" font-family="Times,serif" font-size="14.00">Merging</text>
<text text-anchor="middle" x="524.5" y="-203.3" font-family="Times,serif" font-size="14.00">Collect 2×32b</text>
<text text-anchor="middle" x="524.5" y="-188.3" font-family="Times,serif" font-size="14.00">→ 1×64b</text>
<text text-anchor="middle" x="524.5" y="-157.3" font-family="Times,serif" font-size="14.00">Strobe combine</text>
</g>
<!-- narrow_r&#45;&gt;down_merge -->
<g id="edge11" class="edge">
<title>narrow_r&#45;&gt;down_merge</title>
<path fill="none" stroke="orange" stroke-width="2" d="M205.69,-242.86C234.94,-239.13 270.24,-234.72 302,-231 355.21,-224.77 415.68,-218.26 459.97,-213.59"/>
<polygon fill="orange" stroke="orange" stroke-width="2" points="205.09,-239.41 195.61,-244.15 205.97,-246.35 205.09,-239.41"/>
<text text-anchor="middle" x="341" y="-245" font-family="Times,serif" font-size="10.00">32&#45;bit</text>
<text text-anchor="middle" x="341" y="-234" font-family="Times,serif" font-size="10.00">R beats (4)</text>
</g>
<!-- wide_aw -->
<g id="node10" class="node">
<title>wide_aw</title>
<path fill="lightpink" stroke="black" d="M934,-522C934,-522 801,-522 801,-522 795,-522 789,-516 789,-510 789,-510 789,-466 789,-466 789,-460 795,-454 801,-454 801,-454 934,-454 934,-454 940,-454 946,-460 946,-466 946,-466 946,-510 946,-510 946,-516 940,-522 934,-522"/>
<text text-anchor="middle" x="867.5" y="-506.8" font-family="Times,serif" font-size="14.00">AW</text>
<text text-anchor="middle" x="867.5" y="-491.8" font-family="Times,serif" font-size="14.00">64&#45;bit addr</text>
<text text-anchor="middle" x="867.5" y="-476.8" font-family="Times,serif" font-size="14.00">ARSIZE=3 (8B)</text>
<text text-anchor="middle" x="867.5" y="-461.8" font-family="Times,serif" font-size="14.00">ARLEN=1 (2 beats)</text>
</g>
<!-- up_addr&#45;&gt;wide_aw -->
<g id="edge2" class="edge">
<title>up_addr&#45;&gt;wide_aw</title>
<path fill="none" stroke="blue" stroke-width="2" d="M580.14,-726.59C605.52,-716.78 635.44,-703.34 660,-687 727.65,-641.99 792.97,-573.5 831.44,-529.75"/>
<polygon fill="blue" stroke="blue" stroke-width="2" points="834.13,-531.98 838.07,-522.15 828.86,-527.38 834.13,-531.98"/>
<text text-anchor="middle" x="703" y="-692" font-family="Times,serif" font-size="10.00">AW with</text>
<text text-anchor="middle" x="703" y="-681" font-family="Times,serif" font-size="10.00">wide params</text>
</g>
<!-- wide_w -->
<g id="node11" class="node">
<title>wide_w</title>
<path fill="lightpink" stroke="black" d="M907.5,-350C907.5,-350 827.5,-350 827.5,-350 821.5,-350 815.5,-344 815.5,-338 815.5,-338 815.5,-294 815.5,-294 815.5,-288 821.5,-282 827.5,-282 827.5,-282 907.5,-282 907.5,-282 913.5,-282 919.5,-288 919.5,-294 919.5,-294 919.5,-338 919.5,-338 919.5,-344 913.5,-350 907.5,-350"/>
<text text-anchor="middle" x="867.5" y="-334.8" font-family="Times,serif" font-size="14.00">W</text>
<text text-anchor="middle" x="867.5" y="-319.8" font-family="Times,serif" font-size="14.00">64&#45;bit data</text>
<text text-anchor="middle" x="867.5" y="-304.8" font-family="Times,serif" font-size="14.00">WSTRB[7:0]</text>
<text text-anchor="middle" x="867.5" y="-289.8" font-family="Times,serif" font-size="14.00">2 beats</text>
</g>
<!-- up_pack&#45;&gt;wide_w -->
<g id="edge4" class="edge">
<title>up_pack&#45;&gt;wide_w</title>
<path fill="none" stroke="blue" stroke-width="2" d="M584.38,-481.16C632.34,-473.19 698.09,-454.38 736,-410 751,-392.44 730.93,-376.5 746,-359 761.08,-341.48 783.81,-331.1 805.48,-324.95"/>
<polygon fill="blue" stroke="blue" stroke-width="2" points="806.52,-328.3 815.33,-322.41 804.78,-321.52 806.52,-328.3"/>
<text text-anchor="middle" x="703" y="-469" font-family="Times,serif" font-size="10.00">64&#45;bit</text>
<text text-anchor="middle" x="703" y="-458" font-family="Times,serif" font-size="10.00">W beats (2)</text>
</g>
<!-- up_unpack -->
<g id="node6" class="node">
<title>up_unpack</title>
<path fill="khaki" stroke="black" d="M559,-677.5C559,-677.5 490,-677.5 490,-677.5 484,-677.5 478,-671.5 478,-665.5 478,-665.5 478,-574.5 478,-574.5 478,-568.5 484,-562.5 490,-562.5 490,-562.5 559,-562.5 559,-562.5 565,-562.5 571,-568.5 571,-574.5 571,-574.5 571,-665.5 571,-665.5 571,-671.5 565,-677.5 559,-677.5"/>
<text text-anchor="middle" x="524.5" y="-662.3" font-family="Times,serif" font-size="14.00">Data</text>
<text text-anchor="middle" x="524.5" y="-647.3" font-family="Times,serif" font-size="14.00">Unpacking</text>
<text text-anchor="middle" x="524.5" y="-616.3" font-family="Times,serif" font-size="14.00">1×64b</text>
<text text-anchor="middle" x="524.5" y="-601.3" font-family="Times,serif" font-size="14.00">→ 2×32b</text>
<text text-anchor="middle" x="524.5" y="-570.3" font-family="Times,serif" font-size="14.00">Beat split</text>
</g>
<!-- up_unpack&#45;&gt;narrow_r -->
<g id="edge6" class="edge">
<title>up_unpack&#45;&gt;narrow_r</title>
<path fill="none" stroke="green" stroke-width="2" d="M477.93,-610.23C447.52,-601.13 409.65,-584.25 390,-554 375.04,-530.97 397.48,-328.19 380,-307 338.47,-256.64 260.83,-246.66 205.74,-246.66"/>
<polygon fill="green" stroke="green" stroke-width="2" points="205.69,-243.16 195.73,-246.77 205.77,-250.16 205.69,-243.16"/>
<text text-anchor="middle" x="341" y="-321" font-family="Times,serif" font-size="10.00">32&#45;bit</text>
<text text-anchor="middle" x="341" y="-310" font-family="Times,serif" font-size="10.00">R beats (4)</text>
</g>
<!-- down_addr -->
<g id="node7" class="node">
<title>down_addr</title>
<path fill="lightcyan" stroke="black" d="M568,-381.5C568,-381.5 481,-381.5 481,-381.5 475,-381.5 469,-375.5 469,-369.5 469,-369.5 469,-294.5 469,-294.5 469,-288.5 475,-282.5 481,-282.5 481,-282.5 568,-282.5 568,-282.5 574,-282.5 580,-288.5 580,-294.5 580,-294.5 580,-369.5 580,-369.5 580,-375.5 574,-381.5 568,-381.5"/>
<text text-anchor="middle" x="524.5" y="-366.3" font-family="Times,serif" font-size="14.00">Address</text>
<text text-anchor="middle" x="524.5" y="-351.3" font-family="Times,serif" font-size="14.00">Adjustment</text>
<text text-anchor="middle" x="524.5" y="-320.3" font-family="Times,serif" font-size="14.00">ARSIZE: 3→2</text>
<text text-anchor="middle" x="524.5" y="-305.3" font-family="Times,serif" font-size="14.00">ARLEN: 1→3</text>
<text text-anchor="middle" x="524.5" y="-290.3" font-family="Times,serif" font-size="14.00">(2→4 beats)</text>
</g>
<!-- down_addr&#45;&gt;narrow_aw -->
<g id="edge8" class="edge">
<title>down_addr&#45;&gt;narrow_aw</title>
<path fill="none" stroke="purple" stroke-width="2" d="M458.5,-332.85C392.72,-333.72 290.98,-335.06 220.92,-335.98"/>
<polygon fill="purple" stroke="purple" stroke-width="2" points="458.79,-336.35 468.74,-332.72 458.7,-329.35 458.79,-336.35"/>
<text text-anchor="middle" x="341" y="-348" font-family="Times,serif" font-size="10.00">AW with</text>
<text text-anchor="middle" x="341" y="-337" font-family="Times,serif" font-size="10.00">narrow params</text>
</g>
<!-- down_split -->
<g id="node8" class="node">
<title>down_split</title>
<path fill="lightsteelblue" stroke="black" d="M575.5,-131.5C575.5,-131.5 473.5,-131.5 473.5,-131.5 467.5,-131.5 461.5,-125.5 461.5,-119.5 461.5,-119.5 461.5,-28.5 461.5,-28.5 461.5,-22.5 467.5,-16.5 473.5,-16.5 473.5,-16.5 575.5,-16.5 575.5,-16.5 581.5,-16.5 587.5,-22.5 587.5,-28.5 587.5,-28.5 587.5,-119.5 587.5,-119.5 587.5,-125.5 581.5,-131.5 575.5,-131.5"/>
<text text-anchor="middle" x="524.5" y="-116.3" font-family="Times,serif" font-size="14.00">Data</text>
<text text-anchor="middle" x="524.5" y="-101.3" font-family="Times,serif" font-size="14.00">Splitting</text>
<text text-anchor="middle" x="524.5" y="-70.3" font-family="Times,serif" font-size="14.00">1×64b</text>
<text text-anchor="middle" x="524.5" y="-55.3" font-family="Times,serif" font-size="14.00">→ 2×32b</text>
<text text-anchor="middle" x="524.5" y="-24.3" font-family="Times,serif" font-size="14.00">Beat expansion</text>
</g>
<!-- down_split&#45;&gt;narrow_w -->
<g id="edge10" class="edge">
<title>down_split&#45;&gt;narrow_w</title>
<path fill="none" stroke="purple" stroke-width="2" d="M451.52,-90.71C408.17,-100.82 351.89,-114.03 302,-126 265.93,-134.66 225.32,-144.62 194.17,-152.31"/>
<polygon fill="purple" stroke="purple" stroke-width="2" points="452.46,-94.08 461.4,-88.4 450.87,-87.27 452.46,-94.08"/>
<text text-anchor="middle" x="341" y="-140" font-family="Times,serif" font-size="10.00">32&#45;bit</text>
<text text-anchor="middle" x="341" y="-129" font-family="Times,serif" font-size="10.00">W beats (4)</text>
</g>
<!-- wide_r -->
<g id="node12" class="node">
<title>wide_r</title>
<path fill="lightpink" stroke="black" d="M909,-436C909,-436 826,-436 826,-436 820,-436 814,-430 814,-424 814,-424 814,-380 814,-380 814,-374 820,-368 826,-368 826,-368 909,-368 909,-368 915,-368 921,-374 921,-380 921,-380 921,-424 921,-424 921,-430 915,-436 909,-436"/>
<text text-anchor="middle" x="867.5" y="-420.8" font-family="Times,serif" font-size="14.00">R</text>
<text text-anchor="middle" x="867.5" y="-405.8" font-family="Times,serif" font-size="14.00">64&#45;bit data</text>
<text text-anchor="middle" x="867.5" y="-390.8" font-family="Times,serif" font-size="14.00">RDATA[63:0]</text>
<text text-anchor="middle" x="867.5" y="-375.8" font-family="Times,serif" font-size="14.00">2 beats</text>
</g>
<!-- down_merge&#45;&gt;wide_r -->
<g id="edge12" class="edge">
<title>down_merge&#45;&gt;wide_r</title>
<path fill="none" stroke="orange" stroke-width="2" d="M598.74,-228.93C645.16,-246.62 702.56,-276.23 736,-322 746.05,-335.75 734.44,-346.49 746,-359 763.56,-378 790.1,-388.62 813.8,-394.54"/>
<polygon fill="orange" stroke="orange" stroke-width="2" points="599.91,-225.63 589.32,-225.44 597.48,-232.19 599.91,-225.63"/>
<text text-anchor="middle" x="703" y="-336" font-family="Times,serif" font-size="10.00">64&#45;bit</text>
<text text-anchor="middle" x="703" y="-325" font-family="Times,serif" font-size="10.00">R beats (2)</text>
</g>
<!-- wide_aw&#45;&gt;down_addr -->
<g id="edge7" class="edge">
<title>wide_aw&#45;&gt;down_addr</title>
<path fill="none" stroke="purple" stroke-width="2" d="M779.55,-469.7C766.82,-463.67 754.99,-455.66 746,-445 729.41,-425.34 753.39,-406.95 736,-388 696.64,-345.08 628.46,-333.53 580.38,-331.15"/>
<polygon fill="purple" stroke="purple" stroke-width="2" points="778.38,-473.01 788.95,-473.75 781.15,-466.58 778.38,-473.01"/>
<text text-anchor="middle" x="703" y="-402" font-family="Times,serif" font-size="10.00">AW with</text>
<text text-anchor="middle" x="703" y="-391" font-family="Times,serif" font-size="10.00">wide params</text>
</g>
<!-- wide_w&#45;&gt;down_split -->
<g id="edge9" class="edge">
<title>wide_w&#45;&gt;down_split</title>
<path fill="none" stroke="purple" stroke-width="2" d="M824.42,-274.6C784.37,-236.59 721.28,-180.24 660,-140 637.39,-125.15 610.95,-111.48 587.53,-100.47"/>
<polygon fill="purple" stroke="purple" stroke-width="2" points="822.46,-277.58 832.11,-281.95 827.3,-272.51 822.46,-277.58"/>
<text text-anchor="middle" x="703" y="-208" font-family="Times,serif" font-size="10.00">64&#45;bit</text>
<text text-anchor="middle" x="703" y="-197" font-family="Times,serif" font-size="10.00">W beats (2)</text>
</g>
<!-- wide_r&#45;&gt;up_unpack -->
<g id="edge5" class="edge">
<title>wide_r&#45;&gt;up_unpack</title>
<path fill="none" stroke="green" stroke-width="2" d="M813.86,-409.51C790.17,-415.45 763.63,-426.06 746,-445 734.69,-457.16 744.51,-466.74 736,-481 711.99,-521.21 698.37,-527.14 660,-554 635.44,-571.19 605.72,-586.29 580.48,-597.68"/>
<polygon fill="green" stroke="green" stroke-width="2" points="578.77,-594.61 571.04,-601.87 581.6,-601.01 578.77,-594.61"/>
<text text-anchor="middle" x="703" y="-560" font-family="Times,serif" font-size="10.00">64&#45;bit</text>
<text text-anchor="middle" x="703" y="-549" font-family="Times,serif" font-size="10.00">R beats (2)</text>
</g>
<!-- up_example -->
<g id="node13" class="node">
<title>up_example</title>
<polygon fill="lightyellow" stroke="black" points="278,-616 0,-616 0,-410 284,-410 284,-610 278,-616"/>
<polyline fill="none" stroke="black" points="278,-616 278,-610 "/>
<polyline fill="none" stroke="black" points="284,-610 278,-610 "/>
<text text-anchor="middle" x="142" y="-600.8" font-family="Times,serif" font-size="14.00">Upsizing Example (32→64)</text>
<text text-anchor="middle" x="142" y="-569.8" font-family="Times,serif" font-size="14.00">Master sends (32&#45;bit):</text>
<text text-anchor="middle" x="142" y="-554.8" font-family="Times,serif" font-size="14.00">Beat 0: 0xAAAA_AAAA</text>
<text text-anchor="middle" x="142" y="-539.8" font-family="Times,serif" font-size="14.00">Beat 1: 0xBBBB_BBBB</text>
<text text-anchor="middle" x="142" y="-524.8" font-family="Times,serif" font-size="14.00">Beat 2: 0xCCCC_CCCC</text>
<text text-anchor="middle" x="142" y="-509.8" font-family="Times,serif" font-size="14.00">Beat 3: 0xDDDD_DDDD</text>
<text text-anchor="middle" x="142" y="-478.8" font-family="Times,serif" font-size="14.00">↓ Pack 2:1 ↓</text>
<text text-anchor="middle" x="142" y="-447.8" font-family="Times,serif" font-size="14.00">Slave receives (64&#45;bit):</text>
<text text-anchor="middle" x="142" y="-432.8" font-family="Times,serif" font-size="14.00">Beat 0: 0xBBBB_BBBB_AAAA_AAAA</text>
<text text-anchor="middle" x="142" y="-417.8" font-family="Times,serif" font-size="14.00">Beat 1: 0xDDDD_DDDD_CCCC_CCCC</text>
</g>
<!-- down_example -->
<g id="node14" class="node">
<title>down_example</title>
<polygon fill="lightgray" stroke="black" points="278,-840 0,-840 0,-634 284,-634 284,-834 278,-840"/>
<polyline fill="none" stroke="black" points="278,-840 278,-834 "/>
<polyline fill="none" stroke="black" points="284,-834 278,-834 "/>
<text text-anchor="middle" x="142" y="-824.8" font-family="Times,serif" font-size="14.00">Downsizing Example (64→32)</text>
<text text-anchor="middle" x="142" y="-793.8" font-family="Times,serif" font-size="14.00">Master sends (64&#45;bit):</text>
<text text-anchor="middle" x="142" y="-778.8" font-family="Times,serif" font-size="14.00">Beat 0: 0xBBBB_BBBB_AAAA_AAAA</text>
<text text-anchor="middle" x="142" y="-763.8" font-family="Times,serif" font-size="14.00">Beat 1: 0xDDDD_DDDD_CCCC_CCCC</text>
<text text-anchor="middle" x="142" y="-732.8" font-family="Times,serif" font-size="14.00">↓ Split 1:2 ↓</text>
<text text-anchor="middle" x="142" y="-701.8" font-family="Times,serif" font-size="14.00">Slave receives (32&#45;bit):</text>
<text text-anchor="middle" x="142" y="-686.8" font-family="Times,serif" font-size="14.00">Beat 0: 0xAAAA_AAAA</text>
<text text-anchor="middle" x="142" y="-671.8" font-family="Times,serif" font-size="14.00">Beat 1: 0xBBBB_BBBB</text>
<text text-anchor="middle" x="142" y="-656.8" font-family="Times,serif" font-size="14.00">Beat 2: 0xCCCC_CCCC</text>
<text text-anchor="middle" x="142" y="-641.8" font-family="Times,serif" font-size="14.00">Beat 3: 0xDDDD_DDDD</text>
</g>
<!-- leg_up -->
<g id="node15" class="node">
<title>leg_up</title>
<polygon fill="none" stroke="blue" stroke-width="2" points="245,-1056 39,-1056 39,-1020 245,-1020 245,-1056"/>
<text text-anchor="middle" x="142" y="-1034.3" font-family="Times,serif" font-size="14.00">Upsizing (Narrow → Wide)</text>
</g>
<!-- leg_down -->
<g id="node16" class="node">
<title>leg_down</title>
<polygon fill="none" stroke="purple" stroke-width="2" points="254.5,-1002 29.5,-1002 29.5,-966 254.5,-966 254.5,-1002"/>
<text text-anchor="middle" x="142" y="-980.3" font-family="Times,serif" font-size="14.00">Downsizing (Wide → Narrow)</text>
</g>
<!-- leg_addr -->
<g id="node17" class="node">
<title>leg_addr</title>
<polygon fill="lightcyan" stroke="black" points="222.5,-948 61.5,-948 61.5,-912 222.5,-912 222.5,-948"/>
<text text-anchor="middle" x="142" y="-926.3" font-family="Times,serif" font-size="14.00">Address Adjustment</text>
</g>
<!-- leg_data -->
<g id="node18" class="node">
<title>leg_data</title>
<polygon fill="lightsteelblue" stroke="black" points="230.5,-894 53.5,-894 53.5,-858 230.5,-858 230.5,-894"/>
<text text-anchor="middle" x="142" y="-872.3" font-family="Times,serif" font-size="14.00">Data Packing/Splitting</text>
</g>
</g>
</svg>
