<?xml version="1.0" encoding="UTF-8" standalone="no"?>
<!DOCTYPE svg PUBLIC "-//W3C//DTD SVG 1.1//EN"
 "http://www.w3.org/Graphics/SVG/1.1/DTD/svg11.dtd">
<!-- Generated by graphviz version 2.43.0 (0)
 -->
<!-- Title: pic_8259_top Pages: 1 -->
<svg width="1047pt" height="253pt"
 viewBox="0.00 0.00 1047.27 253.48" xmlns="http://www.w3.org/2000/svg" xmlns:xlink="http://www.w3.org/1999/xlink">
<g id="graph0" class="graph" transform="scale(1 1) rotate(0) translate(4 249.48)">
<title>pic_8259_top</title>
<polygon fill="white" stroke="transparent" points="-4,4 -4,-249.48 1043.27,-249.48 1043.27,4 -4,4"/>
<g id="clust1" class="cluster">
<title>cluster_pic</title>
<path fill="none" stroke="black" d="M167.28,-84.48C167.28,-84.48 881.89,-84.48 881.89,-84.48 887.89,-84.48 893.89,-90.48 893.89,-96.48 893.89,-96.48 893.89,-225.48 893.89,-225.48 893.89,-231.48 887.89,-237.48 881.89,-237.48 881.89,-237.48 167.28,-237.48 167.28,-237.48 161.28,-237.48 155.28,-231.48 155.28,-225.48 155.28,-225.48 155.28,-96.48 155.28,-96.48 155.28,-90.48 161.28,-84.48 167.28,-84.48"/>
<text text-anchor="middle" x="524.58" y="-222.28" font-family="Times,serif" font-size="14.00">apb_pic_8259</text>
</g>
<!-- apb_in -->
<g id="node1" class="node">
<title>apb_in</title>
<ellipse fill="lightgreen" stroke="black" cx="63.64" cy="-149.48" rx="63.78" ry="26.74"/>
<text text-anchor="middle" x="63.64" y="-153.28" font-family="Times,serif" font-size="14.00">APB Slave</text>
<text text-anchor="middle" x="63.64" y="-138.28" font-family="Times,serif" font-size="14.00">Interface</text>
</g>
<!-- apb_if -->
<g id="node4" class="node">
<title>apb_if</title>
<path fill="lightyellow" stroke="black" d="M232.28,-168.48C232.28,-168.48 175.28,-168.48 175.28,-168.48 169.28,-168.48 163.28,-162.48 163.28,-156.48 163.28,-156.48 163.28,-142.48 163.28,-142.48 163.28,-136.48 169.28,-130.48 175.28,-130.48 175.28,-130.48 232.28,-130.48 232.28,-130.48 238.28,-130.48 244.28,-136.48 244.28,-142.48 244.28,-142.48 244.28,-156.48 244.28,-156.48 244.28,-162.48 238.28,-168.48 232.28,-168.48"/>
<text text-anchor="middle" x="203.78" y="-153.28" font-family="Times,serif" font-size="14.00">APB</text>
<text text-anchor="middle" x="203.78" y="-138.28" font-family="Times,serif" font-size="14.00">Interface</text>
</g>
<!-- apb_in&#45;&gt;apb_if -->
<g id="edge1" class="edge">
<title>apb_in&#45;&gt;apb_if</title>
<path fill="none" stroke="black" d="M127.65,-149.48C136.15,-149.48 144.78,-149.48 153.01,-149.48"/>
<polygon fill="black" stroke="black" points="153.19,-152.98 163.19,-149.48 153.19,-145.98 153.19,-152.98"/>
</g>
<!-- irq_in -->
<g id="node2" class="node">
<title>irq_in</title>
<ellipse fill="lightgreen" stroke="black" cx="512.15" cy="-37.48" rx="58.88" ry="37.45"/>
<text text-anchor="middle" x="512.15" y="-48.78" font-family="Times,serif" font-size="14.00">IR[7:0]</text>
<text text-anchor="middle" x="512.15" y="-33.78" font-family="Times,serif" font-size="14.00">Interrupt</text>
<text text-anchor="middle" x="512.15" y="-18.78" font-family="Times,serif" font-size="14.00">Requests</text>
</g>
<!-- irr -->
<g id="node6" class="node">
<title>irr</title>
<path fill="lightcyan" stroke="black" d="M719.86,-130.48C719.86,-130.48 657.86,-130.48 657.86,-130.48 651.86,-130.48 645.86,-124.48 645.86,-118.48 645.86,-118.48 645.86,-104.48 645.86,-104.48 645.86,-98.48 651.86,-92.48 657.86,-92.48 657.86,-92.48 719.86,-92.48 719.86,-92.48 725.86,-92.48 731.86,-98.48 731.86,-104.48 731.86,-104.48 731.86,-118.48 731.86,-118.48 731.86,-124.48 725.86,-130.48 719.86,-130.48"/>
<text text-anchor="middle" x="688.86" y="-115.28" font-family="Times,serif" font-size="14.00">IRR</text>
<text text-anchor="middle" x="688.86" y="-100.28" font-family="Times,serif" font-size="14.00">(Request)</text>
</g>
<!-- irq_in&#45;&gt;irr -->
<g id="edge3" class="edge">
<title>irq_in&#45;&gt;irr</title>
<path fill="none" stroke="black" d="M558.37,-61.09C573.59,-68.65 590.78,-76.79 606.84,-83.48 616.21,-87.38 626.35,-91.19 636.17,-94.69"/>
<polygon fill="black" stroke="black" points="635.26,-98.07 645.86,-98.06 637.57,-91.47 635.26,-98.07"/>
</g>
<!-- cascade_in -->
<g id="node3" class="node">
<title>cascade_in</title>
<ellipse fill="lightgreen" stroke="black" cx="688.86" cy="-47.48" rx="82.05" ry="26.74"/>
<text text-anchor="middle" x="688.86" y="-51.28" font-family="Times,serif" font-size="14.00">CAS[2:0]</text>
<text text-anchor="middle" x="688.86" y="-36.28" font-family="Times,serif" font-size="14.00">(from master)</text>
</g>
<!-- priority -->
<g id="node9" class="node">
<title>priority</title>
<path fill="lightcyan" stroke="black" d="M873.89,-158.48C873.89,-158.48 818.89,-158.48 818.89,-158.48 812.89,-158.48 806.89,-152.48 806.89,-146.48 806.89,-146.48 806.89,-132.48 806.89,-132.48 806.89,-126.48 812.89,-120.48 818.89,-120.48 818.89,-120.48 873.89,-120.48 873.89,-120.48 879.89,-120.48 885.89,-126.48 885.89,-132.48 885.89,-132.48 885.89,-146.48 885.89,-146.48 885.89,-152.48 879.89,-158.48 873.89,-158.48"/>
<text text-anchor="middle" x="846.39" y="-143.28" font-family="Times,serif" font-size="14.00">Priority</text>
<text text-anchor="middle" x="846.39" y="-128.28" font-family="Times,serif" font-size="14.00">Resolver</text>
</g>
<!-- cascade_in&#45;&gt;priority -->
<g id="edge13" class="edge">
<title>cascade_in&#45;&gt;priority</title>
<path fill="none" stroke="black" stroke-dasharray="5,2" d="M744.49,-67.24C753.52,-71.21 762.62,-75.65 770.89,-80.48 787.05,-89.91 803.52,-102.57 816.85,-113.75"/>
<polygon fill="black" stroke="black" points="814.84,-116.63 824.71,-120.47 819.39,-111.31 814.84,-116.63"/>
</g>
<!-- regs -->
<g id="node5" class="node">
<title>regs</title>
<path fill="lightyellow" stroke="black" d="M385.87,-175.98C385.87,-175.98 311.87,-175.98 311.87,-175.98 305.87,-175.98 299.87,-169.98 299.87,-163.98 299.87,-163.98 299.87,-134.98 299.87,-134.98 299.87,-128.98 305.87,-122.98 311.87,-122.98 311.87,-122.98 385.87,-122.98 385.87,-122.98 391.87,-122.98 397.87,-128.98 397.87,-134.98 397.87,-134.98 397.87,-163.98 397.87,-163.98 397.87,-169.98 391.87,-175.98 385.87,-175.98"/>
<text text-anchor="middle" x="348.87" y="-160.78" font-family="Times,serif" font-size="14.00">Control</text>
<text text-anchor="middle" x="348.87" y="-145.78" font-family="Times,serif" font-size="14.00">Registers</text>
<text text-anchor="middle" x="348.87" y="-130.78" font-family="Times,serif" font-size="14.00">(ICW/OCW)</text>
</g>
<!-- apb_if&#45;&gt;regs -->
<g id="edge2" class="edge">
<title>apb_if&#45;&gt;regs</title>
<path fill="none" stroke="black" d="M244.64,-149.48C258.55,-149.48 274.46,-149.48 289.55,-149.48"/>
<polygon fill="black" stroke="black" points="289.84,-152.98 299.84,-149.48 289.84,-145.98 289.84,-152.98"/>
</g>
<!-- isr -->
<g id="node7" class="node">
<title>isr</title>
<path fill="lightcyan" stroke="black" d="M726.36,-186.48C726.36,-186.48 651.36,-186.48 651.36,-186.48 645.36,-186.48 639.36,-180.48 639.36,-174.48 639.36,-174.48 639.36,-160.48 639.36,-160.48 639.36,-154.48 645.36,-148.48 651.36,-148.48 651.36,-148.48 726.36,-148.48 726.36,-148.48 732.36,-148.48 738.36,-154.48 738.36,-160.48 738.36,-160.48 738.36,-174.48 738.36,-174.48 738.36,-180.48 732.36,-186.48 726.36,-186.48"/>
<text text-anchor="middle" x="688.86" y="-171.28" font-family="Times,serif" font-size="14.00">ISR</text>
<text text-anchor="middle" x="688.86" y="-156.28" font-family="Times,serif" font-size="14.00">(In&#45;Service)</text>
</g>
<!-- regs&#45;&gt;isr -->
<g id="edge8" class="edge">
<title>regs&#45;&gt;isr</title>
<path fill="none" stroke="black" d="M398.16,-151.34C442.94,-153.15 511.41,-156.1 570.84,-159.48 589.79,-160.55 610.46,-161.91 629.09,-163.19"/>
<polygon fill="black" stroke="black" points="628.98,-166.69 639.2,-163.9 629.46,-159.71 628.98,-166.69"/>
</g>
<!-- imr -->
<g id="node8" class="node">
<title>imr</title>
<path fill="lightcyan" stroke="black" d="M532.65,-206.48C532.65,-206.48 491.65,-206.48 491.65,-206.48 485.65,-206.48 479.65,-200.48 479.65,-194.48 479.65,-194.48 479.65,-180.48 479.65,-180.48 479.65,-174.48 485.65,-168.48 491.65,-168.48 491.65,-168.48 532.65,-168.48 532.65,-168.48 538.65,-168.48 544.65,-174.48 544.65,-180.48 544.65,-180.48 544.65,-194.48 544.65,-194.48 544.65,-200.48 538.65,-206.48 532.65,-206.48"/>
<text text-anchor="middle" x="512.15" y="-191.28" font-family="Times,serif" font-size="14.00">IMR</text>
<text text-anchor="middle" x="512.15" y="-176.28" font-family="Times,serif" font-size="14.00">(Mask)</text>
</g>
<!-- regs&#45;&gt;imr -->
<g id="edge7" class="edge">
<title>regs&#45;&gt;imr</title>
<path fill="none" stroke="black" d="M398.26,-160.88C421.01,-166.24 447.85,-172.56 469.66,-177.7"/>
<polygon fill="black" stroke="black" points="469.07,-181.16 479.6,-180.04 470.67,-174.34 469.07,-181.16"/>
</g>
<!-- vector -->
<g id="node10" class="node">
<title>vector</title>
<path fill="lightcyan" stroke="black" d="M544.65,-130.48C544.65,-130.48 479.65,-130.48 479.65,-130.48 473.65,-130.48 467.65,-124.48 467.65,-118.48 467.65,-118.48 467.65,-104.48 467.65,-104.48 467.65,-98.48 473.65,-92.48 479.65,-92.48 479.65,-92.48 544.65,-92.48 544.65,-92.48 550.65,-92.48 556.65,-98.48 556.65,-104.48 556.65,-104.48 556.65,-118.48 556.65,-118.48 556.65,-124.48 550.65,-130.48 544.65,-130.48"/>
<text text-anchor="middle" x="512.15" y="-115.28" font-family="Times,serif" font-size="14.00">Vector</text>
<text text-anchor="middle" x="512.15" y="-100.28" font-family="Times,serif" font-size="14.00">Generator</text>
</g>
<!-- regs&#45;&gt;vector -->
<g id="edge12" class="edge">
<title>regs&#45;&gt;vector</title>
<path fill="none" stroke="black" d="M398.26,-138.08C416.98,-133.66 438.49,-128.6 457.67,-124.08"/>
<polygon fill="black" stroke="black" points="458.53,-127.47 467.46,-121.77 456.93,-120.66 458.53,-127.47"/>
</g>
<!-- irr&#45;&gt;priority -->
<g id="edge4" class="edge">
<title>irr&#45;&gt;priority</title>
<path fill="none" stroke="black" d="M731.95,-119.05C751.97,-122.66 776.02,-126.99 796.82,-130.73"/>
<polygon fill="black" stroke="black" points="796.27,-134.19 806.73,-132.52 797.51,-127.3 796.27,-134.19"/>
</g>
<!-- isr&#45;&gt;priority -->
<g id="edge6" class="edge">
<title>isr&#45;&gt;priority</title>
<path fill="none" stroke="black" d="M738.64,-158.69C757.21,-155.35 778.35,-151.55 796.89,-148.21"/>
<polygon fill="black" stroke="black" points="797.66,-151.62 806.89,-146.41 796.42,-144.74 797.66,-151.62"/>
</g>
<!-- imr&#45;&gt;priority -->
<g id="edge5" class="edge">
<title>imr&#45;&gt;priority</title>
<path fill="none" stroke="black" d="M544.71,-195.3C594.33,-206.1 692.97,-221.5 770.89,-195.48 788.93,-189.45 806.12,-177.14 819.43,-165.6"/>
<polygon fill="black" stroke="black" points="822.13,-167.88 827.19,-158.57 817.43,-162.69 822.13,-167.88"/>
</g>
<!-- int_out -->
<g id="node11" class="node">
<title>int_out</title>
<ellipse fill="pink" stroke="black" cx="980.58" cy="-175.48" rx="54.39" ry="26.74"/>
<text text-anchor="middle" x="980.58" y="-179.28" font-family="Times,serif" font-size="14.00">INT</text>
<text text-anchor="middle" x="980.58" y="-164.28" font-family="Times,serif" font-size="14.00">(to CPU)</text>
</g>
<!-- priority&#45;&gt;int_out -->
<g id="edge9" class="edge">
<title>priority&#45;&gt;int_out</title>
<path fill="none" stroke="black" d="M885.98,-149.99C897.4,-153.1 910.16,-156.57 922.49,-159.93"/>
<polygon fill="black" stroke="black" points="921.69,-163.34 932.26,-162.59 923.53,-156.59 921.69,-163.34"/>
</g>
<!-- cascade_out -->
<g id="node12" class="node">
<title>cascade_out</title>
<ellipse fill="pink" stroke="black" cx="980.58" cy="-103.48" rx="58.88" ry="26.74"/>
<text text-anchor="middle" x="980.58" y="-107.28" font-family="Times,serif" font-size="14.00">CAS[2:0]</text>
<text text-anchor="middle" x="980.58" y="-92.28" font-family="Times,serif" font-size="14.00">(to slave)</text>
</g>
<!-- priority&#45;&gt;cascade_out -->
<g id="edge14" class="edge">
<title>priority&#45;&gt;cascade_out</title>
<path fill="none" stroke="black" stroke-dasharray="5,2" d="M885.98,-128.97C896.69,-126.05 908.58,-122.81 920.2,-119.65"/>
<polygon fill="black" stroke="black" points="921.12,-123.02 929.85,-117.02 919.28,-116.27 921.12,-123.02"/>
</g>
<!-- vector&#45;&gt;isr -->
<g id="edge11" class="edge">
<title>vector&#45;&gt;isr</title>
<path fill="none" stroke="black" d="M556.78,-125.46C578.82,-132.52 605.84,-141.19 629.62,-148.81"/>
<polygon fill="black" stroke="black" points="628.65,-152.17 639.25,-151.89 630.79,-145.51 628.65,-152.17"/>
</g>
<!-- ack_in -->
<g id="node13" class="node">
<title>ack_in</title>
<ellipse fill="lightgreen" stroke="black" cx="348.87" cy="-49.48" rx="68.68" ry="26.74"/>
<text text-anchor="middle" x="348.87" y="-53.28" font-family="Times,serif" font-size="14.00">INTA</text>
<text text-anchor="middle" x="348.87" y="-38.28" font-family="Times,serif" font-size="14.00">(from CPU)</text>
</g>
<!-- ack_in&#45;&gt;vector -->
<g id="edge10" class="edge">
<title>ack_in&#45;&gt;vector</title>
<path fill="none" stroke="black" d="M398.7,-68.25C417.41,-75.44 438.85,-83.69 457.96,-91.03"/>
<polygon fill="black" stroke="black" points="456.83,-94.35 467.42,-94.67 459.34,-87.81 456.83,-94.35"/>
</g>
</g>
</svg>
