<?xml version="1.0" encoding="UTF-8" standalone="no"?>
<!DOCTYPE svg PUBLIC "-//W3C//DTD SVG 1.1//EN"
 "http://www.w3.org/Graphics/SVG/1.1/DTD/svg11.dtd">
<!-- Generated by graphviz version 2.40.1 (20161225.0304)
 -->
<!-- Title: state transitions Pages: 1 -->
<svg width="571pt" height="434pt"
 viewBox="0.00 0.00 571.00 434.00" xmlns="http://www.w3.org/2000/svg" xmlns:xlink="http://www.w3.org/1999/xlink">
<g id="graph0" class="graph" transform="scale(1 1) rotate(0) translate(4 430)">
<title>state transitions</title>
<polygon fill="#ffffff" stroke="transparent" points="-4,4 -4,-430 567,-430 567,4 -4,4"/>
<g id="clust1" class="cluster state regular">
<title>cluster_r_fsm_main</title>
<path fill="none" stroke="#000000" stroke-width="2" d="M20,-8C20,-8 543,-8 543,-8 549,-8 555,-14 555,-20 555,-20 555,-406 555,-406 555,-412 549,-418 543,-418 543,-418 20,-418 20,-418 14,-418 8,-412 8,-406 8,-406 8,-20 8,-20 8,-14 14,-8 20,-8"/>
<text text-anchor="start" x="250.1674" y="-399.2" font-family="Helvetica,sans-Serif" font-size="12.00" fill="#000000">r_fsm_main</text>
</g>
<!-- r_fsm_main -->
<!-- IDLE -->
<g id="node2" class="node state regular">
<title>IDLE</title>
<polygon fill="#ffffff" fill-opacity="0.003922" stroke="transparent" stroke-width="2" points="279,-380 223,-380 223,-344 279,-344 279,-380"/>
<text text-anchor="start" x="237.6644" y="-358.2" font-family="Helvetica,sans-Serif" font-size="12.00" fill="#000000">IDLE</text>
<path fill="none" stroke="#000000" stroke-width="2" d="M235.3333,-345C235.3333,-345 266.6667,-345 266.6667,-345 272.3333,-345 278,-350.6667 278,-356.3333 278,-356.3333 278,-367.6667 278,-367.6667 278,-373.3333 272.3333,-379 266.6667,-379 266.6667,-379 235.3333,-379 235.3333,-379 229.6667,-379 224,-373.3333 224,-367.6667 224,-367.6667 224,-356.3333 224,-356.3333 224,-350.6667 229.6667,-345 235.3333,-345"/>
</g>
<!-- IDLE&#45;&gt;IDLE -->
<g id="edge2" class="edge transition">
<title>IDLE&#45;&gt;IDLE</title>
<path fill="none" stroke="#000000" d="M279.0183,-366.8247C290.888,-367.1883 301,-365.5801 301,-362 301,-359.5387 296.2205,-358.0094 289.3762,-357.4121"/>
<polygon fill="#000000" stroke="#000000" points="289.0957,-353.9049 279.0183,-357.1753 288.9356,-360.903 289.0957,-353.9049"/>
<text text-anchor="start" x="301" y="-359" font-family="Helvetica,sans-Serif" font-size="10.00" fill="#000000">not (i_start == 1&#39;b1) &#160;&#160;</text>
</g>
<!-- SHIFT -->
<g id="node3" class="node state regular">
<title>SHIFT</title>
<polygon fill="#ffffff" fill-opacity="0.003922" stroke="transparent" stroke-width="2" points="245,-298 189,-298 189,-262 245,-262 245,-298"/>
<text text-anchor="start" x="199.669" y="-276.2" font-family="Helvetica,sans-Serif" font-size="12.00" fill="#000000">SHIFT</text>
<path fill="none" stroke="#000000" stroke-width="2" d="M201.3333,-263C201.3333,-263 232.6667,-263 232.6667,-263 238.3333,-263 244,-268.6667 244,-274.3333 244,-274.3333 244,-285.6667 244,-285.6667 244,-291.3333 238.3333,-297 232.6667,-297 232.6667,-297 201.3333,-297 201.3333,-297 195.6667,-297 190,-291.3333 190,-285.6667 190,-285.6667 190,-274.3333 190,-274.3333 190,-268.6667 195.6667,-263 201.3333,-263"/>
</g>
<!-- IDLE&#45;&gt;SHIFT -->
<g id="edge1" class="edge transition">
<title>IDLE&#45;&gt;SHIFT</title>
<path fill="none" stroke="#000000" d="M243.4543,-343.8015C239.0524,-333.1853 233.4106,-319.5784 228.4686,-307.6596"/>
<polygon fill="#000000" stroke="#000000" points="231.5879,-306.0444 224.5246,-298.1476 225.1217,-308.7256 231.5879,-306.0444"/>
<text text-anchor="start" x="236" y="-318" font-family="Helvetica,sans-Serif" font-size="10.00" fill="#000000">i_start == 1&#39;b1 &#160;&#160;</text>
</g>
<!-- CK_S_IDX -->
<g id="node4" class="node state regular">
<title>CK_S_IDX</title>
<polygon fill="#ffffff" fill-opacity="0.003922" stroke="transparent" stroke-width="2" points="257,-216 177,-216 177,-180 257,-180 257,-216"/>
<text text-anchor="start" x="187.9948" y="-194.2" font-family="Helvetica,sans-Serif" font-size="12.00" fill="#000000">CK_S_IDX</text>
<path fill="none" stroke="#000000" stroke-width="2" d="M189.3333,-181C189.3333,-181 244.6667,-181 244.6667,-181 250.3333,-181 256,-186.6667 256,-192.3333 256,-192.3333 256,-203.6667 256,-203.6667 256,-209.3333 250.3333,-215 244.6667,-215 244.6667,-215 189.3333,-215 189.3333,-215 183.6667,-215 178,-209.3333 178,-203.6667 178,-203.6667 178,-192.3333 178,-192.3333 178,-186.6667 183.6667,-181 189.3333,-181"/>
</g>
<!-- SHIFT&#45;&gt;CK_S_IDX -->
<g id="edge3" class="edge transition">
<title>SHIFT&#45;&gt;CK_S_IDX</title>
<path fill="none" stroke="#000000" d="M217,-261.8015C217,-251.3976 217,-238.1215 217,-226.3768"/>
<polygon fill="#000000" stroke="#000000" points="220.5001,-226.1476 217,-216.1476 213.5001,-226.1476 220.5001,-226.1476"/>
<text text-anchor="middle" x="218.3895" y="-236" font-family="Helvetica,sans-Serif" font-size="10.00" fill="#000000"> </text>
</g>
<!-- ADD -->
<g id="node5" class="node state regular">
<title>ADD</title>
<polygon fill="#ffffff" fill-opacity="0.003922" stroke="transparent" stroke-width="2" points="196,-134 140,-134 140,-98 196,-98 196,-134"/>
<text text-anchor="start" x="155.3358" y="-112.2" font-family="Helvetica,sans-Serif" font-size="12.00" fill="#000000">ADD</text>
<path fill="none" stroke="#000000" stroke-width="2" d="M152.3333,-99C152.3333,-99 183.6667,-99 183.6667,-99 189.3333,-99 195,-104.6667 195,-110.3333 195,-110.3333 195,-121.6667 195,-121.6667 195,-127.3333 189.3333,-133 183.6667,-133 183.6667,-133 152.3333,-133 152.3333,-133 146.6667,-133 141,-127.3333 141,-121.6667 141,-121.6667 141,-110.3333 141,-110.3333 141,-104.6667 146.6667,-99 152.3333,-99"/>
</g>
<!-- CK_S_IDX&#45;&gt;ADD -->
<g id="edge5" class="edge transition">
<title>CK_S_IDX&#45;&gt;ADD</title>
<path fill="none" stroke="#000000" d="M206.1253,-179.8015C199.6546,-168.973 191.3246,-155.033 184.1022,-142.9466"/>
<polygon fill="#000000" stroke="#000000" points="186.9783,-140.9364 178.8443,-134.1476 180.9694,-144.5271 186.9783,-140.9364"/>
<text text-anchor="start" x="195" y="-154" font-family="Helvetica,sans-Serif" font-size="10.00" fill="#000000">not (r_loop_count == WIDTH&#45;1) &#160;&#160;</text>
</g>
<!-- BCD_DONE -->
<g id="node7" class="node state regular">
<title>BCD_DONE</title>
<polygon fill="#ffffff" fill-opacity="0.003922" stroke="transparent" stroke-width="2" points="495,-134 407,-134 407,-98 495,-98 495,-134"/>
<text text-anchor="start" x="417.6688" y="-112.2" font-family="Helvetica,sans-Serif" font-size="12.00" fill="#000000">BCD_DONE</text>
<path fill="none" stroke="#000000" stroke-width="2" d="M419.3333,-99C419.3333,-99 482.6667,-99 482.6667,-99 488.3333,-99 494,-104.6667 494,-110.3333 494,-110.3333 494,-121.6667 494,-121.6667 494,-127.3333 488.3333,-133 482.6667,-133 482.6667,-133 419.3333,-133 419.3333,-133 413.6667,-133 408,-127.3333 408,-121.6667 408,-121.6667 408,-110.3333 408,-110.3333 408,-104.6667 413.6667,-99 419.3333,-99"/>
</g>
<!-- CK_S_IDX&#45;&gt;BCD_DONE -->
<g id="edge4" class="edge transition">
<title>CK_S_IDX&#45;&gt;BCD_DONE</title>
<path fill="none" stroke="#000000" d="M257.085,-189.1291C283.2939,-182.8816 318.0881,-173.7355 348,-163 367.5351,-155.9888 388.4787,-146.7651 406.3452,-138.347"/>
<polygon fill="#000000" stroke="#000000" points="407.866,-141.4994 415.3841,-134.0342 404.8515,-135.1817 407.866,-141.4994"/>
<text text-anchor="start" x="376" y="-154" font-family="Helvetica,sans-Serif" font-size="10.00" fill="#000000">r_loop_count == WIDTH&#45;1 &#160;&#160;</text>
</g>
<!-- CK_D_IDX -->
<g id="node6" class="node state regular">
<title>CK_D_IDX</title>
<polygon fill="#ffffff" fill-opacity="0.003922" stroke="transparent" stroke-width="2" points="161,-52 81,-52 81,-16 161,-16 161,-52"/>
<text text-anchor="start" x="91.6648" y="-30.2" font-family="Helvetica,sans-Serif" font-size="12.00" fill="#000000">CK_D_IDX</text>
<path fill="none" stroke="#000000" stroke-width="2" d="M93.3333,-17C93.3333,-17 148.6667,-17 148.6667,-17 154.3333,-17 160,-22.6667 160,-28.3333 160,-28.3333 160,-39.6667 160,-39.6667 160,-45.3333 154.3333,-51 148.6667,-51 148.6667,-51 93.3333,-51 93.3333,-51 87.6667,-51 82,-45.3333 82,-39.6667 82,-39.6667 82,-28.3333 82,-28.3333 82,-22.6667 87.6667,-17 93.3333,-17"/>
</g>
<!-- ADD&#45;&gt;CK_D_IDX -->
<g id="edge6" class="edge transition">
<title>ADD&#45;&gt;CK_D_IDX</title>
<path fill="none" stroke="#000000" d="M150.3086,-97.6713C145.9649,-92.5469 141.5979,-86.7887 138.221,-81 134.7726,-75.0888 131.8162,-68.3668 129.3754,-61.8922"/>
<polygon fill="#000000" stroke="#000000" points="132.5531,-60.3733 125.9677,-52.0737 125.9401,-62.6685 132.5531,-60.3733"/>
<text text-anchor="middle" x="139.3895" y="-72" font-family="Helvetica,sans-Serif" font-size="10.00" fill="#000000"> </text>
</g>
<!-- CK_D_IDX&#45;&gt;SHIFT -->
<g id="edge7" class="edge transition">
<title>CK_D_IDX&#45;&gt;SHIFT</title>
<path fill="none" stroke="#000000" d="M80.9587,-46.2499C59.7341,-53.9835 38,-64.4729 38,-75 38,-239 38,-239 38,-239 38,-267.6183 126.0346,-276.2613 178.6275,-278.8712"/>
<polygon fill="#000000" stroke="#000000" points="178.4911,-282.3685 188.6369,-279.3169 178.8025,-275.3754 178.4911,-282.3685"/>
<text text-anchor="start" x="38" y="-154" font-family="Helvetica,sans-Serif" font-size="10.00" fill="#000000">r_digit_index == DIGITS&#45;1 &#160;&#160;</text>
</g>
<!-- CK_D_IDX&#45;&gt;ADD -->
<g id="edge8" class="edge transition">
<title>CK_D_IDX&#45;&gt;ADD</title>
<path fill="none" stroke="#000000" d="M132.0212,-52.094C135.2743,-57.5082 138.8153,-63.4745 142,-69 145.6292,-75.2967 149.4584,-82.1157 153.0295,-88.5553"/>
<polygon fill="#000000" stroke="#000000" points="150.1304,-90.5462 158.0236,-97.6136 156.2605,-87.1665 150.1304,-90.5462"/>
<text text-anchor="start" x="148" y="-72" font-family="Helvetica,sans-Serif" font-size="10.00" fill="#000000">not (r_digit_index == DIGITS&#45;1) &#160;&#160;</text>
</g>
<!-- BCD_DONE&#45;&gt;IDLE -->
<g id="edge9" class="edge transition">
<title>BCD_DONE&#45;&gt;IDLE</title>
<path fill="none" stroke="#000000" d="M486.3462,-134.0596C493.493,-138.8607 500.4936,-144.5397 506,-151 533.635,-183.4226 544,-196.3982 544,-239 544,-321 544,-321 544,-321 544,-346.4386 368.539,-357.0584 289.1778,-360.5608"/>
<polygon fill="#000000" stroke="#000000" points="288.9361,-357.0678 279.0941,-360.9902 289.234,-364.0615 288.9361,-357.0678"/>
<text text-anchor="middle" x="545.3895" y="-236" font-family="Helvetica,sans-Serif" font-size="10.00" fill="#000000"> </text>
</g>
</g>
</svg>
