<?xml version="1.0" encoding="UTF-8" standalone="no"?>
<!DOCTYPE svg PUBLIC "-//W3C//DTD SVG 1.1//EN"
 "http://www.w3.org/Graphics/SVG/1.1/DTD/svg11.dtd">
<!-- Generated by graphviz version 2.43.0 (0)
 -->
<!-- Title: uart_tx_engine Pages: 1 -->
<svg width="958pt" height="318pt"
 viewBox="0.00 0.00 958.33 317.78" xmlns="http://www.w3.org/2000/svg" xmlns:xlink="http://www.w3.org/1999/xlink">
<g id="graph0" class="graph" transform="scale(1 1) rotate(0) translate(4 313.78)">
<title>uart_tx_engine</title>
<polygon fill="white" stroke="transparent" points="-4,4 -4,-313.78 954.33,-313.78 954.33,4 -4,4"/>
<g id="clust1" class="cluster">
<title>cluster_serializer</title>
<polygon fill="none" stroke="black" stroke-dasharray="5,2" points="440.05,-98.91 440.05,-247.91 825.18,-247.91 825.18,-98.91 440.05,-98.91"/>
<text text-anchor="middle" x="632.61" y="-232.71" font-family="Times,serif" font-size="14.00">TX Serializer</text>
</g>
<!-- thr_write -->
<g id="node1" class="node">
<title>thr_write</title>
<ellipse fill="lightgreen" stroke="black" cx="59.79" cy="-256.91" rx="59.59" ry="18"/>
<text text-anchor="middle" x="59.79" y="-253.21" font-family="Times,serif" font-size="14.00">THR Write</text>
</g>
<!-- tx_fifo -->
<g id="node4" class="node">
<title>tx_fifo</title>
<path fill="lightyellow" stroke="black" d="M273.78,-275.91C273.78,-275.91 205.78,-275.91 205.78,-275.91 199.78,-275.91 193.78,-269.91 193.78,-263.91 193.78,-263.91 193.78,-249.91 193.78,-249.91 193.78,-243.91 199.78,-237.91 205.78,-237.91 205.78,-237.91 273.78,-237.91 273.78,-237.91 279.78,-237.91 285.78,-243.91 285.78,-249.91 285.78,-249.91 285.78,-263.91 285.78,-263.91 285.78,-269.91 279.78,-275.91 273.78,-275.91"/>
<text text-anchor="middle" x="239.78" y="-260.71" font-family="Times,serif" font-size="14.00">TX FIFO</text>
<text text-anchor="middle" x="239.78" y="-245.71" font-family="Times,serif" font-size="14.00">16 x 8 bits</text>
</g>
<!-- thr_write&#45;&gt;tx_fifo -->
<g id="edge1" class="edge">
<title>thr_write&#45;&gt;tx_fifo</title>
<path fill="none" stroke="black" d="M120.06,-256.91C140.47,-256.91 163.24,-256.91 183.33,-256.91"/>
<polygon fill="black" stroke="black" points="183.57,-260.41 193.57,-256.91 183.57,-253.41 183.57,-260.41"/>
</g>
<!-- lcr -->
<g id="node2" class="node">
<title>lcr</title>
<ellipse fill="lightgreen" stroke="black" cx="486.55" cy="-63.91" rx="126.64" ry="26.74"/>
<text text-anchor="middle" x="486.55" y="-67.71" font-family="Times,serif" font-size="14.00">LCR Config</text>
<text text-anchor="middle" x="486.55" y="-52.71" font-family="Times,serif" font-size="14.00">(data bits, parity, stop)</text>
</g>
<!-- parity_gen -->
<g id="node6" class="node">
<title>parity_gen</title>
<path fill="lightcyan" stroke="black" d="M799.18,-216.91C799.18,-216.91 734.18,-216.91 734.18,-216.91 728.18,-216.91 722.18,-210.91 722.18,-204.91 722.18,-204.91 722.18,-190.91 722.18,-190.91 722.18,-184.91 728.18,-178.91 734.18,-178.91 734.18,-178.91 799.18,-178.91 799.18,-178.91 805.18,-178.91 811.18,-184.91 811.18,-190.91 811.18,-190.91 811.18,-204.91 811.18,-204.91 811.18,-210.91 805.18,-216.91 799.18,-216.91"/>
<text text-anchor="middle" x="766.68" y="-201.71" font-family="Times,serif" font-size="14.00">Parity</text>
<text text-anchor="middle" x="766.68" y="-186.71" font-family="Times,serif" font-size="14.00">Generator</text>
</g>
<!-- lcr&#45;&gt;parity_gen -->
<g id="edge5" class="edge">
<title>lcr&#45;&gt;parity_gen</title>
<path fill="none" stroke="black" d="M583.53,-81.23C593.88,-84.94 603.96,-89.44 613.12,-94.91 651.75,-117.97 643.41,-145.36 681.12,-169.91 690.55,-176.05 701.44,-180.96 712.21,-184.84"/>
<polygon fill="black" stroke="black" points="711.43,-188.27 722.02,-188.13 713.65,-181.63 711.43,-188.27"/>
</g>
<!-- frame_gen -->
<g id="node7" class="node">
<title>frame_gen</title>
<path fill="lightcyan" stroke="black" d="M805.18,-160.41C805.18,-160.41 728.18,-160.41 728.18,-160.41 722.18,-160.41 716.18,-154.41 716.18,-148.41 716.18,-148.41 716.18,-119.41 716.18,-119.41 716.18,-113.41 722.18,-107.41 728.18,-107.41 728.18,-107.41 805.18,-107.41 805.18,-107.41 811.18,-107.41 817.18,-113.41 817.18,-119.41 817.18,-119.41 817.18,-148.41 817.18,-148.41 817.18,-154.41 811.18,-160.41 805.18,-160.41"/>
<text text-anchor="middle" x="766.68" y="-145.21" font-family="Times,serif" font-size="14.00">Frame</text>
<text text-anchor="middle" x="766.68" y="-130.21" font-family="Times,serif" font-size="14.00">Generator</text>
<text text-anchor="middle" x="766.68" y="-115.21" font-family="Times,serif" font-size="14.00">(Start/Stop)</text>
</g>
<!-- lcr&#45;&gt;frame_gen -->
<g id="edge4" class="edge">
<title>lcr&#45;&gt;frame_gen</title>
<path fill="none" stroke="black" d="M589.89,-79.46C614.08,-83.98 639.66,-89.48 663.12,-95.91 677.4,-99.83 692.5,-104.88 706.6,-110.02"/>
<polygon fill="black" stroke="black" points="705.58,-113.38 716.17,-113.58 708.02,-106.82 705.58,-113.38"/>
</g>
<!-- baud_clk -->
<g id="node3" class="node">
<title>baud_clk</title>
<ellipse fill="lightgreen" stroke="black" cx="239.78" cy="-134.91" rx="83.39" ry="18"/>
<text text-anchor="middle" x="239.78" y="-131.21" font-family="Times,serif" font-size="14.00">16x Baud Clock</text>
</g>
<!-- shift_reg -->
<g id="node5" class="node">
<title>shift_reg</title>
<path fill="lightcyan" stroke="black" d="M513.05,-216.91C513.05,-216.91 460.05,-216.91 460.05,-216.91 454.05,-216.91 448.05,-210.91 448.05,-204.91 448.05,-204.91 448.05,-190.91 448.05,-190.91 448.05,-184.91 454.05,-178.91 460.05,-178.91 460.05,-178.91 513.05,-178.91 513.05,-178.91 519.05,-178.91 525.05,-184.91 525.05,-190.91 525.05,-190.91 525.05,-204.91 525.05,-204.91 525.05,-210.91 519.05,-216.91 513.05,-216.91"/>
<text text-anchor="middle" x="486.55" y="-201.71" font-family="Times,serif" font-size="14.00">Shift</text>
<text text-anchor="middle" x="486.55" y="-186.71" font-family="Times,serif" font-size="14.00">Register</text>
</g>
<!-- baud_clk&#45;&gt;shift_reg -->
<g id="edge6" class="edge">
<title>baud_clk&#45;&gt;shift_reg</title>
<path fill="none" stroke="black" d="M294.19,-148.66C337.08,-159.7 396.73,-175.05 437.99,-185.67"/>
<polygon fill="black" stroke="black" points="437.24,-189.09 447.8,-188.19 438.98,-182.31 437.24,-189.09"/>
</g>
<!-- baud_clk&#45;&gt;frame_gen -->
<g id="edge7" class="edge">
<title>baud_clk&#45;&gt;frame_gen</title>
<path fill="none" stroke="black" d="M253.7,-116.95C273.29,-91.44 313.23,-45.81 359.97,-27.91 465.04,12.33 505.76,5.73 613.12,-27.91 658.41,-42.1 702.05,-75.01 730.96,-100.42"/>
<polygon fill="black" stroke="black" points="728.93,-103.3 738.71,-107.37 733.6,-98.09 728.93,-103.3"/>
</g>
<!-- tx_fifo&#45;&gt;shift_reg -->
<g id="edge2" class="edge">
<title>tx_fifo&#45;&gt;shift_reg</title>
<path fill="none" stroke="black" d="M285.96,-246.02C329.15,-235.61 394.01,-219.97 437.98,-209.38"/>
<polygon fill="black" stroke="black" points="438.95,-212.74 447.85,-207 437.31,-205.94 438.95,-212.74"/>
</g>
<!-- lsr_status -->
<g id="node9" class="node">
<title>lsr_status</title>
<ellipse fill="pink" stroke="black" cx="766.68" cy="-282.91" rx="85.62" ry="26.74"/>
<text text-anchor="middle" x="766.68" y="-286.71" font-family="Times,serif" font-size="14.00">LSR Status</text>
<text text-anchor="middle" x="766.68" y="-271.71" font-family="Times,serif" font-size="14.00">(THRE, TEMT)</text>
</g>
<!-- tx_fifo&#45;&gt;lsr_status -->
<g id="edge3" class="edge">
<title>tx_fifo&#45;&gt;lsr_status</title>
<path fill="none" stroke="black" d="M285.99,-259.15C371.44,-263.38 558.26,-272.64 671.9,-278.27"/>
<polygon fill="black" stroke="black" points="671.82,-281.77 681.98,-278.76 672.16,-274.77 671.82,-281.77"/>
<text text-anchor="middle" x="486.55" y="-277.91" font-family="Times,serif" font-size="10.00">FIFO status</text>
</g>
<!-- shift_reg&#45;&gt;parity_gen -->
<g id="edge8" class="edge">
<title>shift_reg&#45;&gt;parity_gen</title>
<path fill="none" stroke="black" d="M525.06,-197.91C573.12,-197.91 656.75,-197.91 711.67,-197.91"/>
<polygon fill="black" stroke="black" points="711.91,-201.41 721.91,-197.91 711.91,-194.41 711.91,-201.41"/>
</g>
<!-- shift_reg&#45;&gt;frame_gen -->
<g id="edge9" class="edge">
<title>shift_reg&#45;&gt;frame_gen</title>
<path fill="none" stroke="black" d="M525.06,-189.28C571.54,-178.58 651.31,-160.23 706.18,-147.6"/>
<polygon fill="black" stroke="black" points="707.16,-150.97 716.12,-145.32 705.59,-144.15 707.16,-150.97"/>
</g>
<!-- shift_reg&#45;&gt;lsr_status -->
<g id="edge11" class="edge">
<title>shift_reg&#45;&gt;lsr_status</title>
<path fill="none" stroke="black" d="M525.06,-209.37C568.47,-222.64 640.91,-244.78 694.99,-261.31"/>
<polygon fill="black" stroke="black" points="694.28,-264.75 704.86,-264.33 696.32,-258.06 694.28,-264.75"/>
<text text-anchor="middle" x="647.12" y="-252.91" font-family="Times,serif" font-size="10.00">TEMT</text>
</g>
<!-- txd -->
<g id="node8" class="node">
<title>txd</title>
<ellipse fill="pink" stroke="black" cx="919.79" cy="-133.91" rx="30.59" ry="18"/>
<text text-anchor="middle" x="919.79" y="-130.21" font-family="Times,serif" font-size="14.00">TXD</text>
</g>
<!-- frame_gen&#45;&gt;txd -->
<g id="edge10" class="edge">
<title>frame_gen&#45;&gt;txd</title>
<path fill="none" stroke="black" d="M817.58,-133.91C837.59,-133.91 860.34,-133.91 879.19,-133.91"/>
<polygon fill="black" stroke="black" points="879.22,-137.41 889.22,-133.91 879.22,-130.41 879.22,-137.41"/>
</g>
</g>
</svg>
