<?xml version="1.0" encoding="UTF-8" standalone="no"?>
<!DOCTYPE svg PUBLIC "-//W3C//DTD SVG 1.1//EN"
 "http://www.w3.org/Graphics/SVG/1.1/DTD/svg11.dtd">
<!-- Generated by graphviz version 2.43.0 (0)
 -->
<!-- Title: apb_hpet Pages: 1 -->
<svg width="1304pt" height="601pt"
 viewBox="0.00 0.00 1304.49 601.18" xmlns="http://www.w3.org/2000/svg" xmlns:xlink="http://www.w3.org/1999/xlink">
<g id="graph0" class="graph" transform="scale(1 1) rotate(0) translate(4 597.18)">
<title>apb_hpet</title>
<polygon fill="white" stroke="transparent" points="-4,4 -4,-597.18 1300.49,-597.18 1300.49,4 -4,4"/>
<g id="clust1" class="cluster">
<title>cluster_pclk</title>
<polygon fill="lightyellow" stroke="black" points="163.49,-133.87 163.49,-431.37 367.49,-431.37 367.49,-133.87 163.49,-133.87"/>
<text text-anchor="middle" x="265.49" y="-416.17" font-family="Times,serif" font-size="14.00">PCLK Domain (APB Clock)</text>
</g>
<g id="clust2" class="cluster">
<title>cluster_hpet_clk</title>
<polygon fill="lightgreen" stroke="black" points="451.49,-126.37 451.49,-264.37 705.49,-264.37 705.49,-126.37 451.49,-126.37"/>
<text text-anchor="middle" x="578.49" y="-249.17" font-family="Times,serif" font-size="14.00">HPET_CLK Domain (Timer Clock)</text>
</g>
<g id="clust3" class="cluster">
<title>cluster_legend</title>
<polygon fill="white" stroke="black" points="676.49,-510.18 676.49,-585.18 1288.49,-585.18 1288.49,-510.18 676.49,-510.18"/>
<text text-anchor="middle" x="982.49" y="-569.98" font-family="Times,serif" font-size="14.00">Legend</text>
</g>
<!-- apb_master -->
<g id="node1" class="node">
<title>apb_master</title>
<path fill="lightgreen" stroke="black" d="M176.96,-526.38C176.96,-526.38 176.96,-545.98 176.96,-545.98 176.96,-551.98 171.83,-561.1 166.71,-564.22 166.71,-564.22 136.56,-582.57 136.56,-582.57 131.43,-585.69 120.3,-588.81 114.3,-588.81 114.3,-588.81 66.67,-588.81 66.67,-588.81 60.67,-588.81 49.54,-585.69 44.42,-582.57 44.42,-582.57 14.26,-564.22 14.26,-564.22 9.14,-561.1 4.01,-551.98 4.01,-545.98 4.01,-545.98 4.01,-526.38 4.01,-526.38 4.01,-520.38 9.14,-511.26 14.26,-508.14 14.26,-508.14 44.42,-489.78 44.42,-489.78 49.54,-486.66 60.67,-483.54 66.67,-483.54 66.67,-483.54 114.3,-483.54 114.3,-483.54 120.3,-483.54 131.43,-486.66 136.56,-489.78 136.56,-489.78 166.71,-508.14 166.71,-508.14 171.83,-511.26 176.96,-520.38 176.96,-526.38"/>
<path fill="none" stroke="black" d="M180.96,-524.14C180.96,-524.14 180.96,-548.22 180.96,-548.22 180.96,-554.22 175.83,-563.34 170.71,-566.46 170.71,-566.46 137.68,-586.56 137.68,-586.56 132.55,-589.68 121.43,-592.8 115.43,-592.8 115.43,-592.8 65.54,-592.8 65.54,-592.8 59.54,-592.8 48.42,-589.68 43.29,-586.56 43.29,-586.56 10.26,-566.46 10.26,-566.46 5.14,-563.34 0.01,-554.22 0.01,-548.22 0.01,-548.22 0.01,-524.14 0.01,-524.14 0.01,-518.14 5.14,-509.02 10.26,-505.9 10.26,-505.9 43.29,-485.8 43.29,-485.8 48.42,-482.68 59.54,-479.56 65.54,-479.56 65.54,-479.56 115.43,-479.56 115.43,-479.56 121.43,-479.56 132.55,-482.68 137.68,-485.8 137.68,-485.8 170.71,-505.9 170.71,-505.9 175.83,-509.02 180.96,-518.14 180.96,-524.14"/>
<text text-anchor="middle" x="90.49" y="-555.48" font-family="Times,serif" font-size="14.00">APB Master</text>
<text text-anchor="middle" x="90.49" y="-540.48" font-family="Times,serif" font-size="14.00">(CPU/DMA)</text>
<text text-anchor="middle" x="90.49" y="-509.48" font-family="Times,serif" font-size="14.00">PCLK domain</text>
</g>
<!-- apb_slave -->
<g id="node3" class="node">
<title>apb_slave</title>
<path fill="lightcyan" stroke="black" d="M341.49,-400.37C341.49,-400.37 243.49,-400.37 243.49,-400.37 237.49,-400.37 231.49,-394.37 231.49,-388.37 231.49,-388.37 231.49,-313.37 231.49,-313.37 231.49,-307.37 237.49,-301.37 243.49,-301.37 243.49,-301.37 341.49,-301.37 341.49,-301.37 347.49,-301.37 353.49,-307.37 353.49,-313.37 353.49,-313.37 353.49,-388.37 353.49,-388.37 353.49,-394.37 347.49,-400.37 341.49,-400.37"/>
<text text-anchor="middle" x="292.49" y="-385.17" font-family="Times,serif" font-size="14.00">APB Slave</text>
<text text-anchor="middle" x="292.49" y="-370.17" font-family="Times,serif" font-size="14.00">(apb_slave or</text>
<text text-anchor="middle" x="292.49" y="-355.17" font-family="Times,serif" font-size="14.00">apb_slave_cdc)</text>
<text text-anchor="middle" x="292.49" y="-324.17" font-family="Times,serif" font-size="14.00">CDC_ENABLE</text>
<text text-anchor="middle" x="292.49" y="-309.17" font-family="Times,serif" font-size="14.00">selects variant</text>
</g>
<!-- apb_master&#45;&gt;apb_slave -->
<g id="edge1" class="edge">
<title>apb_master&#45;&gt;apb_slave</title>
<path fill="none" stroke="black" stroke-width="2" d="M142.24,-488.21C169.39,-463.57 202.82,-433.23 231.25,-407.43"/>
<polygon fill="black" stroke="black" stroke-width="2" points="233.7,-409.95 238.75,-400.63 228.99,-404.76 233.7,-409.95"/>
<text text-anchor="middle" x="235.49" y="-453.37" font-family="Times,serif" font-size="10.00">APB transactions</text>
<text text-anchor="middle" x="235.49" y="-442.37" font-family="Times,serif" font-size="10.00">(PCLK)</text>
</g>
<!-- interrupts -->
<g id="node2" class="node">
<title>interrupts</title>
<ellipse fill="pink" stroke="black" cx="578.49" cy="-38.18" rx="158.28" ry="38.37"/>
<text text-anchor="middle" x="578.49" y="-49.98" font-family="Times,serif" font-size="14.00">Interrupt Outputs</text>
<text text-anchor="middle" x="578.49" y="-18.98" font-family="Times,serif" font-size="14.00">timer_irq[NUM_TIMERS&#45;1:0]</text>
</g>
<!-- config_regs -->
<g id="node4" class="node">
<title>config_regs</title>
<path fill="lightblue" stroke="black" d="M347.49,-225.87C347.49,-225.87 225.49,-225.87 225.49,-225.87 219.49,-225.87 213.49,-219.87 213.49,-213.87 213.49,-213.87 213.49,-153.87 213.49,-153.87 213.49,-147.87 219.49,-141.87 225.49,-141.87 225.49,-141.87 347.49,-141.87 347.49,-141.87 353.49,-141.87 359.49,-147.87 359.49,-153.87 359.49,-153.87 359.49,-213.87 359.49,-213.87 359.49,-219.87 353.49,-225.87 347.49,-225.87"/>
<text text-anchor="middle" x="286.49" y="-210.67" font-family="Times,serif" font-size="14.00">hpet_config_regs</text>
<text text-anchor="middle" x="286.49" y="-179.67" font-family="Times,serif" font-size="14.00">Register Interface</text>
<text text-anchor="middle" x="286.49" y="-164.67" font-family="Times,serif" font-size="14.00">Edge Detection</text>
<text text-anchor="middle" x="286.49" y="-149.67" font-family="Times,serif" font-size="14.00">Per&#45;Timer Buses</text>
</g>
<!-- apb_slave&#45;&gt;config_regs -->
<g id="edge2" class="edge">
<title>apb_slave&#45;&gt;config_regs</title>
<path fill="none" stroke="black" d="M290.72,-301.25C289.97,-280.76 289.11,-256.89 288.35,-236.12"/>
<polygon fill="black" stroke="black" points="291.84,-235.76 287.98,-225.89 284.84,-236.01 291.84,-235.76"/>
<text text-anchor="middle" x="319.99" y="-275.37" font-family="Times,serif" font-size="10.00">APB signals</text>
</g>
<!-- hpet_core -->
<g id="node5" class="node">
<title>hpet_core</title>
<path fill="lightyellow" stroke="black" d="M655.99,-233.37C655.99,-233.37 500.99,-233.37 500.99,-233.37 494.99,-233.37 488.99,-227.37 488.99,-221.37 488.99,-221.37 488.99,-146.37 488.99,-146.37 488.99,-140.37 494.99,-134.37 500.99,-134.37 500.99,-134.37 655.99,-134.37 655.99,-134.37 661.99,-134.37 667.99,-140.37 667.99,-146.37 667.99,-146.37 667.99,-221.37 667.99,-221.37 667.99,-227.37 661.99,-233.37 655.99,-233.37"/>
<text text-anchor="middle" x="578.49" y="-218.17" font-family="Times,serif" font-size="14.00">hpet_core</text>
<text text-anchor="middle" x="578.49" y="-187.17" font-family="Times,serif" font-size="14.00">64&#45;bit Main Counter</text>
<text text-anchor="middle" x="578.49" y="-172.17" font-family="Times,serif" font-size="14.00">Timer Comparators[N]</text>
<text text-anchor="middle" x="578.49" y="-157.17" font-family="Times,serif" font-size="14.00">Match Detection</text>
<text text-anchor="middle" x="578.49" y="-142.17" font-family="Times,serif" font-size="14.00">Interrupt Generation</text>
</g>
<!-- config_regs&#45;&gt;hpet_core -->
<g id="edge3" class="edge">
<title>config_regs&#45;&gt;hpet_core</title>
<path fill="none" stroke="blue" stroke-width="2" d="M359.79,-183.87C395.77,-183.87 439.66,-183.87 478.65,-183.87"/>
<polygon fill="blue" stroke="blue" stroke-width="2" points="478.97,-187.37 488.97,-183.87 478.97,-180.37 478.97,-187.37"/>
<text text-anchor="middle" x="424.24" y="-245.87" font-family="Times,serif" font-size="10.00">Control/Data</text>
<text text-anchor="middle" x="424.24" y="-234.87" font-family="Times,serif" font-size="10.00">(cross domain if CDC)</text>
<text text-anchor="middle" x="424.24" y="-211.87" font-family="Times,serif" font-size="10.00">hpet_enable</text>
<text text-anchor="middle" x="424.24" y="-200.87" font-family="Times,serif" font-size="10.00">counter_write</text>
<text text-anchor="middle" x="424.24" y="-189.87" font-family="Times,serif" font-size="10.00">timer config</text>
</g>
<!-- hpet_core&#45;&gt;interrupts -->
<g id="edge5" class="edge">
<title>hpet_core&#45;&gt;interrupts</title>
<path fill="none" stroke="red" stroke-width="2" d="M578.49,-134.22C578.49,-118.88 578.49,-101.95 578.49,-86.68"/>
<polygon fill="red" stroke="red" stroke-width="2" points="581.99,-86.42 578.49,-76.42 574.99,-86.42 581.99,-86.42"/>
<text text-anchor="middle" x="631.49" y="-108.37" font-family="Times,serif" font-size="10.00">timer_irq[N&#45;1:0]</text>
<text text-anchor="middle" x="631.49" y="-97.37" font-family="Times,serif" font-size="10.00">(HPET_CLK domain)</text>
</g>
<!-- hpet_core&#45;&gt;config_regs -->
<g id="edge4" class="edge">
<title>hpet_core&#45;&gt;config_regs</title>
<path fill="none" stroke="blue" stroke-width="2" d="M488.97,-183.87C451.12,-183.87 407.28,-183.87 370.1,-183.87"/>
<polygon fill="blue" stroke="blue" stroke-width="2" points="369.79,-180.37 359.79,-183.87 369.79,-187.37 369.79,-180.37"/>
<text text-anchor="middle" x="424.24" y="-234.87" font-family="Times,serif" font-size="10.00">Status/Data</text>
<text text-anchor="middle" x="424.24" y="-223.87" font-family="Times,serif" font-size="10.00">(cross domain if CDC)</text>
<text text-anchor="middle" x="424.24" y="-200.87" font-family="Times,serif" font-size="10.00">counter_rdata</text>
<text text-anchor="middle" x="424.24" y="-189.87" font-family="Times,serif" font-size="10.00">timer status</text>
</g>
<!-- cdc_note -->
<g id="node6" class="node">
<title>cdc_note</title>
<polygon fill="lightyellow" stroke="black" points="403.99,-570.18 198.99,-570.18 198.99,-502.18 409.99,-502.18 409.99,-564.18 403.99,-570.18"/>
<polyline fill="none" stroke="black" points="403.99,-570.18 403.99,-564.18 "/>
<polyline fill="none" stroke="black" points="409.99,-564.18 403.99,-564.18 "/>
<text text-anchor="middle" x="304.49" y="-554.98" font-family="Times,serif" font-size="14.00">If CDC_ENABLE=1:</text>
<text text-anchor="middle" x="304.49" y="-539.98" font-family="Times,serif" font-size="14.00">apb_slave_cdc provides</text>
<text text-anchor="middle" x="304.49" y="-524.98" font-family="Times,serif" font-size="14.00">handshake synchronization</text>
<text text-anchor="middle" x="304.49" y="-509.98" font-family="Times,serif" font-size="14.00">between clock domains</text>
</g>
<!-- cdc_note&#45;&gt;apb_slave -->
<g id="edge6" class="edge">
<title>cdc_note&#45;&gt;apb_slave</title>
<path fill="none" stroke="black" stroke-dasharray="5,2" d="M302.31,-501.98C300.65,-476.58 298.32,-440.91 296.34,-410.71"/>
<polygon fill="black" stroke="black" points="299.83,-410.45 295.68,-400.7 292.84,-410.9 299.83,-410.45"/>
<text text-anchor="middle" x="328.99" y="-447.87" font-family="Times,serif" font-size="10.00">CDC option</text>
</g>
<!-- params -->
<g id="node7" class="node">
<title>params</title>
<polygon fill="lightgray" stroke="black" points="535.99,-400.37 374.99,-400.37 374.99,-301.37 541.99,-301.37 541.99,-394.37 535.99,-400.37"/>
<polyline fill="none" stroke="black" points="535.99,-400.37 535.99,-394.37 "/>
<polyline fill="none" stroke="black" points="541.99,-394.37 535.99,-394.37 "/>
<text text-anchor="middle" x="458.49" y="-385.17" font-family="Times,serif" font-size="14.00">Parameters</text>
<text text-anchor="middle" x="458.49" y="-354.17" font-family="Times,serif" font-size="14.00">NUM_TIMERS (1&#45;32)</text>
<text text-anchor="middle" x="458.49" y="-339.17" font-family="Times,serif" font-size="14.00">VENDOR_ID</text>
<text text-anchor="middle" x="458.49" y="-324.17" font-family="Times,serif" font-size="14.00">REVISION_ID</text>
<text text-anchor="middle" x="458.49" y="-309.17" font-family="Times,serif" font-size="14.00">CDC_ENABLE (0/1)</text>
</g>
<!-- params&#45;&gt;config_regs -->
<g id="edge7" class="edge">
<title>params&#45;&gt;config_regs</title>
<path fill="none" stroke="black" stroke-dasharray="5,2" d="M407.81,-301.25C385.38,-279.73 359.06,-254.49 336.68,-233.02"/>
<polygon fill="black" stroke="black" points="338.89,-230.29 329.25,-225.89 334.05,-235.34 338.89,-230.29"/>
</g>
<!-- params&#45;&gt;hpet_core -->
<g id="edge8" class="edge">
<title>params&#45;&gt;hpet_core</title>
<path fill="none" stroke="black" stroke-dasharray="5,2" d="M493.84,-301.25C507.45,-282.54 523.11,-261.01 537.23,-241.59"/>
<polygon fill="black" stroke="black" points="540.13,-243.56 543.18,-233.42 534.46,-239.45 540.13,-243.56"/>
</g>
<!-- clocks -->
<g id="node8" class="node">
<title>clocks</title>
<ellipse fill="#eedd82" stroke="black" cx="553.49" cy="-536.18" rx="113.27" ry="48.58"/>
<text text-anchor="middle" x="553.49" y="-555.48" font-family="Times,serif" font-size="14.00">Clocks &amp; Reset</text>
<text text-anchor="middle" x="553.49" y="-524.48" font-family="Times,serif" font-size="14.00">pclk, presetn</text>
<text text-anchor="middle" x="553.49" y="-509.48" font-family="Times,serif" font-size="14.00">hpet_clk, hpet_rst_n</text>
</g>
<!-- clocks&#45;&gt;apb_slave -->
<g id="edge9" class="edge">
<title>clocks&#45;&gt;apb_slave</title>
<path fill="none" stroke="black" d="M477.31,-499.81C441.98,-481.72 400.41,-457.91 366.49,-431.37 357.53,-424.36 348.68,-416.24 340.39,-407.92"/>
<polygon fill="black" stroke="black" points="342.74,-405.31 333.26,-400.58 337.72,-410.19 342.74,-405.31"/>
<text text-anchor="middle" x="435.99" y="-447.87" font-family="Times,serif" font-size="10.00">pclk domain</text>
</g>
<!-- clocks&#45;&gt;hpet_core -->
<g id="edge10" class="edge">
<title>clocks&#45;&gt;hpet_core</title>
<path fill="none" stroke="black" d="M556.91,-487.2C561.44,-423.75 569.41,-311.99 574.3,-243.57"/>
<polygon fill="black" stroke="black" points="577.8,-243.61 575.02,-233.39 570.82,-243.11 577.8,-243.61"/>
<text text-anchor="middle" x="611.99" y="-348.37" font-family="Times,serif" font-size="10.00">hpet_clk domain</text>
</g>
<!-- leg_apb -->
<g id="node9" class="node">
<title>leg_apb</title>
<polygon fill="lightyellow" stroke="black" points="1280.49,-554.18 1174.49,-554.18 1174.49,-518.18 1280.49,-518.18 1280.49,-554.18"/>
<text text-anchor="middle" x="1227.49" y="-532.48" font-family="Times,serif" font-size="14.00">APB Domain</text>
</g>
<!-- leg_hpet -->
<g id="node10" class="node">
<title>leg_hpet</title>
<polygon fill="lightgreen" stroke="black" points="1155.99,-554.18 1038.99,-554.18 1038.99,-518.18 1155.99,-518.18 1155.99,-554.18"/>
<text text-anchor="middle" x="1097.49" y="-532.48" font-family="Times,serif" font-size="14.00">HPET Domain</text>
</g>
<!-- leg_cdc -->
<g id="node11" class="node">
<title>leg_cdc</title>
<polygon fill="none" stroke="blue" stroke-width="2" points="1020.99,-554.18 847.99,-554.18 847.99,-518.18 1020.99,-518.18 1020.99,-554.18"/>
<text text-anchor="middle" x="934.49" y="-532.48" font-family="Times,serif" font-size="14.00">Cross&#45;Domain Signals</text>
</g>
<!-- leg_irq -->
<g id="node12" class="node">
<title>leg_irq</title>
<polygon fill="none" stroke="red" stroke-width="2" points="829.99,-554.18 684.99,-554.18 684.99,-518.18 829.99,-518.18 829.99,-554.18"/>
<text text-anchor="middle" x="757.49" y="-532.48" font-family="Times,serif" font-size="14.00">Interrupt Outputs</text>
</g>
</g>
</svg>
