<?xml version="1.0" encoding="UTF-8" standalone="no"?>
<!DOCTYPE svg PUBLIC "-//W3C//DTD SVG 1.1//EN"
 "http://www.w3.org/Graphics/SVG/1.1/DTD/svg11.dtd">
<!-- Generated by graphviz version 2.43.0 (0)
 -->
<!-- Title: hpet_config_regs Pages: 1 -->
<svg width="1253pt" height="837pt"
 viewBox="0.00 0.00 1253.00 837.23" xmlns="http://www.w3.org/2000/svg" xmlns:xlink="http://www.w3.org/1999/xlink">
<g id="graph0" class="graph" transform="scale(1 1) rotate(0) translate(4 833.23)">
<title>hpet_config_regs</title>
<polygon fill="white" stroke="transparent" points="-4,4 -4,-833.23 1249,-833.23 1249,4 -4,4"/>
<g id="clust1" class="cluster">
<title>cluster_edge</title>
<polygon fill="lightcyan" stroke="black" points="8,-56.72 8,-455.43 388,-455.43 388,-56.72 8,-56.72"/>
<text text-anchor="middle" x="198" y="-440.23" font-family="Times,serif" font-size="14.00">Edge Detection (Write Strobes)</text>
</g>
<g id="clust2" class="cluster">
<title>cluster_buses</title>
<polygon fill="#eedd82" stroke="black" points="396,-232.43 396,-471.43 822,-471.43 822,-232.43 396,-232.43"/>
<text text-anchor="middle" x="609" y="-456.23" font-family="Times,serif" font-size="14.00">Per&#45;Timer Data Buses (Prevent Corruption)</text>
</g>
<g id="clust3" class="cluster">
<title>cluster_legend</title>
<polygon fill="white" stroke="black" points="929,-743.83 929,-818.83 1237,-818.83 1237,-743.83 929,-743.83"/>
<text text-anchor="middle" x="1083" y="-803.63" font-family="Times,serif" font-size="14.00">Legend</text>
</g>
<!-- apb_if -->
<g id="node1" class="node">
<title>apb_if</title>
<path fill="lightgreen" stroke="black" d="M608.96,-760.26C608.96,-760.26 608.96,-779.41 608.96,-779.41 608.96,-785.41 603.53,-793.96 598.09,-796.5 598.09,-796.5 554.82,-816.82 554.82,-816.82 549.39,-819.37 537.96,-821.92 531.96,-821.92 531.96,-821.92 464.04,-821.92 464.04,-821.92 458.04,-821.92 446.61,-819.37 441.18,-816.82 441.18,-816.82 397.91,-796.5 397.91,-796.5 392.47,-793.96 387.04,-785.41 387.04,-779.41 387.04,-779.41 387.04,-760.26 387.04,-760.26 387.04,-754.26 392.47,-745.71 397.91,-743.16 397.91,-743.16 441.18,-722.84 441.18,-722.84 446.61,-720.29 458.04,-717.74 464.04,-717.74 464.04,-717.74 531.96,-717.74 531.96,-717.74 537.96,-717.74 549.39,-720.29 554.82,-722.84 554.82,-722.84 598.09,-743.16 598.09,-743.16 603.53,-745.71 608.96,-754.26 608.96,-760.26"/>
<path fill="none" stroke="black" d="M612.96,-757.71C612.96,-757.71 612.96,-781.95 612.96,-781.95 612.96,-787.95 607.53,-796.5 602.09,-799.05 602.09,-799.05 555.71,-820.82 555.71,-820.82 550.28,-823.37 538.85,-825.92 532.85,-825.92 532.85,-825.92 463.15,-825.92 463.15,-825.92 457.15,-825.92 445.72,-823.37 440.29,-820.82 440.29,-820.82 393.91,-799.05 393.91,-799.05 388.47,-796.5 383.04,-787.95 383.04,-781.95 383.04,-781.95 383.04,-757.71 383.04,-757.71 383.04,-751.71 388.47,-743.16 393.91,-740.61 393.91,-740.61 440.29,-718.84 440.29,-718.84 445.72,-716.29 457.15,-713.74 463.15,-713.74 463.15,-713.74 532.85,-713.74 532.85,-713.74 538.85,-713.74 550.28,-716.29 555.71,-718.84 555.71,-718.84 602.09,-740.61 602.09,-740.61 607.53,-743.16 612.96,-751.71 612.96,-757.71"/>
<text text-anchor="middle" x="498" y="-788.63" font-family="Times,serif" font-size="14.00">APB Interface</text>
<text text-anchor="middle" x="498" y="-773.63" font-family="Times,serif" font-size="14.00">PSEL, PENABLE</text>
<text text-anchor="middle" x="498" y="-758.63" font-family="Times,serif" font-size="14.00">PADDR, PWDATA</text>
<text text-anchor="middle" x="498" y="-743.63" font-family="Times,serif" font-size="14.00">PRDATA, PREADY</text>
</g>
<!-- peak_regs -->
<g id="node2" class="node">
<title>peak_regs</title>
<path fill="lightyellow" stroke="black" d="M717.5,-663.43C717.5,-663.43 500.5,-663.43 500.5,-663.43 494.5,-663.43 488.5,-657.43 488.5,-651.43 488.5,-651.43 488.5,-531.43 488.5,-531.43 488.5,-525.43 494.5,-519.43 500.5,-519.43 500.5,-519.43 717.5,-519.43 717.5,-519.43 723.5,-519.43 729.5,-525.43 729.5,-531.43 729.5,-531.43 729.5,-651.43 729.5,-651.43 729.5,-657.43 723.5,-663.43 717.5,-663.43"/>
<text text-anchor="middle" x="609" y="-648.23" font-family="Times,serif" font-size="14.00">hpet_regs</text>
<text text-anchor="middle" x="609" y="-633.23" font-family="Times,serif" font-size="14.00">(PeakRDL Generated)</text>
<text text-anchor="middle" x="609" y="-602.23" font-family="Times,serif" font-size="14.00">HPET_CONFIG</text>
<text text-anchor="middle" x="609" y="-587.23" font-family="Times,serif" font-size="14.00">HPET_STATUS (W1C)</text>
<text text-anchor="middle" x="609" y="-572.23" font-family="Times,serif" font-size="14.00">HPET_COUNTER_LO/HI</text>
<text text-anchor="middle" x="609" y="-557.23" font-family="Times,serif" font-size="14.00">HPET_CAPABILITIES</text>
<text text-anchor="middle" x="609" y="-542.23" font-family="Times,serif" font-size="14.00">TIMER[i]_CONFIG</text>
<text text-anchor="middle" x="609" y="-527.23" font-family="Times,serif" font-size="14.00">TIMER[i]_COMPARATOR_LO/HI</text>
</g>
<!-- apb_if&#45;&gt;peak_regs -->
<g id="edge1" class="edge">
<title>apb_if&#45;&gt;peak_regs</title>
<path fill="none" stroke="black" stroke-width="2" d="M491.43,-713.52C492.08,-702.48 494.24,-691.27 499,-681.43 500.57,-678.18 502.33,-675.02 504.24,-671.93"/>
<polygon fill="black" stroke="black" stroke-width="2" points="507.28,-673.68 510.02,-663.44 501.5,-669.74 507.28,-673.68"/>
<text text-anchor="middle" x="543" y="-684.43" font-family="Times,serif" font-size="10.00">APB transactions</text>
</g>
<!-- peak_regs&#45;&gt;apb_if -->
<g id="edge8" class="edge">
<title>peak_regs&#45;&gt;apb_if</title>
<path fill="none" stroke="black" d="M599.37,-663.48C596.32,-673.61 592.29,-683.59 587,-692.43 582.32,-700.26 576.55,-707.69 570.22,-714.62"/>
<polygon fill="black" stroke="black" points="567.58,-712.31 563.15,-721.94 572.62,-717.17 567.58,-712.31"/>
<text text-anchor="middle" x="629" y="-684.43" font-family="Times,serif" font-size="10.00">APB read data</text>
</g>
<!-- edge_detect -->
<g id="node3" class="node">
<title>edge_detect</title>
<path fill="lightblue" stroke="black" d="M187.1,-419.4C187.1,-419.4 26.9,-345.46 26.9,-345.46 21.45,-342.95 21.45,-337.92 26.9,-335.4 26.9,-335.4 187.1,-261.46 187.1,-261.46 192.55,-258.95 203.45,-258.95 208.9,-261.46 208.9,-261.46 369.1,-335.4 369.1,-335.4 374.55,-337.92 374.55,-342.95 369.1,-345.46 369.1,-345.46 208.9,-419.4 208.9,-419.4 203.45,-421.92 192.55,-421.92 187.1,-419.4"/>
<text text-anchor="middle" x="198" y="-367.23" font-family="Times,serif" font-size="14.00">Edge Detectors</text>
<text text-anchor="middle" x="198" y="-336.23" font-family="Times,serif" font-size="14.00">counter_wr_edge</text>
<text text-anchor="middle" x="198" y="-321.23" font-family="Times,serif" font-size="14.00">timer_comp_wr_edge[i]</text>
<text text-anchor="middle" x="198" y="-306.23" font-family="Times,serif" font-size="14.00">timer_cfg_wr_edge[i]</text>
</g>
<!-- peak_regs&#45;&gt;edge_detect -->
<g id="edge2" class="edge">
<title>peak_regs&#45;&gt;edge_detect</title>
<path fill="none" stroke="black" d="M488.25,-526.69C456.61,-509.31 422.75,-490.12 392,-471.43 353.99,-448.34 312.93,-421.16 278.42,-397.65"/>
<polygon fill="black" stroke="black" points="280.02,-394.5 269.79,-391.75 276.07,-400.28 280.02,-394.5"/>
<text text-anchor="middle" x="481" y="-493.43" font-family="Times,serif" font-size="10.00">hwif.*.swacc</text>
<text text-anchor="middle" x="481" y="-482.43" font-family="Times,serif" font-size="10.00">(register access)</text>
</g>
<!-- timer_data -->
<g id="node5" class="node">
<title>timer_data</title>
<path fill="lightblue" stroke="black" d="M802.05,-440.43C802.05,-440.43 499.86,-440.43 499.86,-440.43 493.86,-440.43 485.54,-434.9 483.22,-429.37 483.22,-429.37 408.59,-251.5 408.59,-251.5 406.27,-245.97 409.95,-240.43 415.95,-240.43 415.95,-240.43 718.14,-240.43 718.14,-240.43 724.14,-240.43 732.46,-245.97 734.78,-251.5 734.78,-251.5 809.41,-429.37 809.41,-429.37 811.73,-434.9 808.05,-440.43 802.05,-440.43"/>
<text text-anchor="middle" x="609" y="-375.23" font-family="Times,serif" font-size="14.00">Dedicated Buses</text>
<text text-anchor="middle" x="609" y="-344.23" font-family="Times,serif" font-size="14.00">timer_comparator_data[i]</text>
<text text-anchor="middle" x="609" y="-329.23" font-family="Times,serif" font-size="14.00">timer_config_data[i]</text>
<text text-anchor="middle" x="609" y="-298.23" font-family="Times,serif" font-size="14.00">(One bus per timer)</text>
</g>
<!-- peak_regs&#45;&gt;timer_data -->
<g id="edge5" class="edge">
<title>peak_regs&#45;&gt;timer_data</title>
<path fill="none" stroke="black" d="M609,-519.41C609,-498.13 609,-474.26 609,-451.1"/>
<polygon fill="black" stroke="black" points="612.5,-450.87 609,-440.87 605.5,-450.87 612.5,-450.87"/>
<text text-anchor="middle" x="647" y="-487.93" font-family="Times,serif" font-size="10.00">register values</text>
</g>
<!-- status_clear -->
<g id="node8" class="node">
<title>status_clear</title>
<path fill="lightcoral" stroke="black" d="M1076.64,-348.4C1076.64,-348.4 1031.28,-388.65 1031.28,-388.65 1026.79,-392.63 1016.31,-396.61 1010.31,-396.61 1010.31,-396.61 907.69,-396.61 907.69,-396.61 901.69,-396.61 891.21,-392.63 886.72,-388.65 886.72,-388.65 841.36,-348.4 841.36,-348.4 836.87,-344.42 836.87,-336.45 841.36,-332.47 841.36,-332.47 886.72,-292.22 886.72,-292.22 891.21,-288.24 901.69,-284.26 907.69,-284.26 907.69,-284.26 1010.31,-284.26 1010.31,-284.26 1016.31,-284.26 1026.79,-288.24 1031.28,-292.22 1031.28,-292.22 1076.64,-332.47 1076.64,-332.47 1081.13,-336.45 1081.13,-344.42 1076.64,-348.4"/>
<text text-anchor="middle" x="959" y="-359.73" font-family="Times,serif" font-size="14.00">W1C Logic</text>
<text text-anchor="middle" x="959" y="-328.73" font-family="Times,serif" font-size="14.00">Write&#45;1&#45;to&#45;Clear</text>
<text text-anchor="middle" x="959" y="-313.73" font-family="Times,serif" font-size="14.00">for interrupt status</text>
</g>
<!-- peak_regs&#45;&gt;status_clear -->
<g id="edge9" class="edge">
<title>peak_regs&#45;&gt;status_clear</title>
<path fill="none" stroke="black" d="M729.71,-531.81C762.08,-514.08 796.31,-493.44 826,-471.43 852.68,-451.66 879.4,-426.78 901.81,-404.1"/>
<polygon fill="black" stroke="black" points="904.44,-406.42 908.93,-396.82 899.43,-401.53 904.44,-406.42"/>
<text text-anchor="middle" x="844" y="-487.93" font-family="Times,serif" font-size="10.00">STATUS write</text>
</g>
<!-- prev_regs -->
<g id="node4" class="node">
<title>prev_regs</title>
<path fill="white" stroke="black" d="M272.5,-117.72C272.5,-117.72 123.5,-117.72 123.5,-117.72 117.5,-117.72 111.5,-111.72 111.5,-105.72 111.5,-105.72 111.5,-76.72 111.5,-76.72 111.5,-70.72 117.5,-64.72 123.5,-64.72 123.5,-64.72 272.5,-64.72 272.5,-64.72 278.5,-64.72 284.5,-70.72 284.5,-76.72 284.5,-76.72 284.5,-105.72 284.5,-105.72 284.5,-111.72 278.5,-117.72 272.5,-117.72"/>
<text text-anchor="middle" x="198" y="-102.52" font-family="Times,serif" font-size="14.00">Previous Values</text>
<text text-anchor="middle" x="198" y="-87.52" font-family="Times,serif" font-size="14.00">r_prev_swacc</text>
<text text-anchor="middle" x="198" y="-72.52" font-family="Times,serif" font-size="14.00">r_prev_timer_swacc[i]</text>
</g>
<!-- edge_detect&#45;&gt;prev_regs -->
<g id="edge3" class="edge">
<title>edge_detect&#45;&gt;prev_regs</title>
<path fill="none" stroke="black" d="M198,-256.43C198,-212.76 198,-161.49 198,-128"/>
<polygon fill="black" stroke="black" points="201.5,-127.78 198,-117.78 194.5,-127.78 201.5,-127.78"/>
<text text-anchor="middle" x="234.5" y="-208.93" font-family="Times,serif" font-size="10.00">store previous</text>
</g>
<!-- core_if -->
<g id="node6" class="node">
<title>core_if</title>
<ellipse fill="pink" stroke="black" cx="609" cy="-91.22" rx="150.73" ry="91.43"/>
<text text-anchor="middle" x="609" y="-140.52" font-family="Times,serif" font-size="14.00">To hpet_core</text>
<text text-anchor="middle" x="609" y="-109.52" font-family="Times,serif" font-size="14.00">hpet_enable</text>
<text text-anchor="middle" x="609" y="-94.52" font-family="Times,serif" font-size="14.00">counter_write (pulse)</text>
<text text-anchor="middle" x="609" y="-79.52" font-family="Times,serif" font-size="14.00">counter_wdata[63:0]</text>
<text text-anchor="middle" x="609" y="-64.52" font-family="Times,serif" font-size="14.00">timer_enable[i]</text>
<text text-anchor="middle" x="609" y="-49.52" font-family="Times,serif" font-size="14.00">timer_comp_write[i] (pulse)</text>
<text text-anchor="middle" x="609" y="-34.52" font-family="Times,serif" font-size="14.00">timer_comp_wdata[i][63:0]</text>
</g>
<!-- edge_detect&#45;&gt;core_if -->
<g id="edge4" class="edge">
<title>edge_detect&#45;&gt;core_if</title>
<path fill="none" stroke="red" stroke-width="2" d="M276.27,-292.35C337.81,-255.34 424.43,-203.23 493.87,-161.47"/>
<polygon fill="red" stroke="red" stroke-width="2" points="495.92,-164.32 502.68,-156.17 492.31,-158.32 495.92,-164.32"/>
<text text-anchor="middle" x="460" y="-214.43" font-family="Times,serif" font-size="10.00">write pulses</text>
<text text-anchor="middle" x="460" y="-203.43" font-family="Times,serif" font-size="10.00">(1 clk wide)</text>
</g>
<!-- timer_data&#45;&gt;core_if -->
<g id="edge6" class="edge">
<title>timer_data&#45;&gt;core_if</title>
<path fill="none" stroke="black" stroke-width="2" d="M609,-240.31C609,-224.66 609,-208.47 609,-192.79"/>
<polygon fill="black" stroke="black" stroke-width="2" points="612.5,-192.57 609,-182.57 605.5,-192.57 612.5,-192.57"/>
<text text-anchor="middle" x="655" y="-214.43" font-family="Times,serif" font-size="10.00">per&#45;timer data</text>
<text text-anchor="middle" x="655" y="-203.43" font-family="Times,serif" font-size="10.00">(avoid corruption)</text>
</g>
<!-- core_status -->
<g id="node7" class="node">
<title>core_status</title>
<ellipse fill="lightgreen" stroke="black" cx="775" cy="-769.83" rx="143.59" ry="59.29"/>
<text text-anchor="middle" x="775" y="-796.63" font-family="Times,serif" font-size="14.00">From hpet_core</text>
<text text-anchor="middle" x="775" y="-765.63" font-family="Times,serif" font-size="14.00">counter_rdata[63:0]</text>
<text text-anchor="middle" x="775" y="-750.63" font-family="Times,serif" font-size="14.00">timer_comp_rdata[i][63:0]</text>
<text text-anchor="middle" x="775" y="-735.63" font-family="Times,serif" font-size="14.00">timer_int_status[i]</text>
</g>
<!-- core_status&#45;&gt;peak_regs -->
<g id="edge7" class="edge">
<title>core_status&#45;&gt;peak_regs</title>
<path fill="none" stroke="black" d="M723.39,-713.98C710.58,-700.38 696.61,-685.53 682.96,-671.03"/>
<polygon fill="black" stroke="black" points="685.27,-668.37 675.86,-663.49 680.17,-673.17 685.27,-668.37"/>
<text text-anchor="middle" x="739" y="-684.43" font-family="Times,serif" font-size="10.00">status updates</text>
</g>
<!-- status_clear&#45;&gt;core_if -->
<g id="edge10" class="edge">
<title>status_clear&#45;&gt;core_if</title>
<path fill="none" stroke="black" d="M894.43,-285.26C873.02,-267.9 848.82,-248.92 826,-232.43 793.07,-208.64 756.27,-184.14 722.48,-162.4"/>
<polygon fill="black" stroke="black" points="724.26,-159.38 713.95,-156.93 720.48,-165.27 724.26,-159.38"/>
<text text-anchor="middle" x="851.5" y="-208.93" font-family="Times,serif" font-size="10.00">timer_int_clear[i]</text>
</g>
<!-- leg_pulse -->
<g id="node9" class="node">
<title>leg_pulse</title>
<polygon fill="none" stroke="red" stroke-width="2" points="1228.5,-787.83 1067.5,-787.83 1067.5,-751.83 1228.5,-751.83 1228.5,-787.83"/>
<text text-anchor="middle" x="1148" y="-766.13" font-family="Times,serif" font-size="14.00">Pulse Signals (1 clk)</text>
</g>
<!-- leg_level -->
<g id="node10" class="node">
<title>leg_level</title>
<polygon fill="none" stroke="black" points="1049,-787.83 937,-787.83 937,-751.83 1049,-751.83 1049,-787.83"/>
<text text-anchor="middle" x="993" y="-766.13" font-family="Times,serif" font-size="14.00">Level Signals</text>
</g>
</g>
</svg>
