<?xml version="1.0" encoding="UTF-8" standalone="no"?>
<!DOCTYPE svg PUBLIC "-//W3C//DTD SVG 1.1//EN"
 "http://www.w3.org/Graphics/SVG/1.1/DTD/svg11.dtd">
<!-- Generated by graphviz version 2.43.0 (0)
 -->
<!-- Title: hpet_core Pages: 1 -->
<svg width="1663pt" height="596pt"
 viewBox="0.00 0.00 1662.55 596.00" xmlns="http://www.w3.org/2000/svg" xmlns:xlink="http://www.w3.org/1999/xlink">
<g id="graph0" class="graph" transform="scale(1 1) rotate(0) translate(4 592)">
<title>hpet_core</title>
<polygon fill="white" stroke="transparent" points="-4,4 -4,-592 1658.55,-592 1658.55,4 -4,4"/>
<g id="clust1" class="cluster">
<title>cluster_timers</title>
<polygon fill="none" stroke="black" stroke-dasharray="5,2" points="367.06,-100 367.06,-303 1332.97,-303 1332.97,-100 367.06,-100"/>
<text text-anchor="middle" x="850.01" y="-287.8" font-family="Times,serif" font-size="14.00">Timer Comparators (NUM_TIMERS instances)</text>
</g>
<g id="clust2" class="cluster">
<title>cluster_legend</title>
<polygon fill="white" stroke="black" points="40.16,-397 40.16,-580 263.89,-580 263.89,-397 40.16,-397"/>
<text text-anchor="middle" x="152.03" y="-564.8" font-family="Times,serif" font-size="14.00">Legend</text>
</g>
<!-- hpet_enable -->
<g id="node1" class="node">
<title>hpet_enable</title>
<ellipse fill="lightgreen" stroke="black" cx="152.03" cy="-369" rx="66.89" ry="18"/>
<text text-anchor="middle" x="152.03" y="-365.3" font-family="Times,serif" font-size="14.00">hpet_enable</text>
</g>
<!-- main_counter -->
<g id="node6" class="node">
<title>main_counter</title>
<path fill="lightyellow" stroke="black" d="M513.06,-364.5C513.06,-364.5 410.06,-364.5 410.06,-364.5 404.06,-364.5 398.06,-358.5 398.06,-352.5 398.06,-352.5 398.06,-323.5 398.06,-323.5 398.06,-317.5 404.06,-311.5 410.06,-311.5 410.06,-311.5 513.06,-311.5 513.06,-311.5 519.06,-311.5 525.06,-317.5 525.06,-323.5 525.06,-323.5 525.06,-352.5 525.06,-352.5 525.06,-358.5 519.06,-364.5 513.06,-364.5"/>
<text text-anchor="middle" x="461.56" y="-349.3" font-family="Times,serif" font-size="14.00">Main Counter</text>
<text text-anchor="middle" x="461.56" y="-334.3" font-family="Times,serif" font-size="14.00">64&#45;bit</text>
<text text-anchor="middle" x="461.56" y="-319.3" font-family="Times,serif" font-size="14.00">r_main_counter</text>
</g>
<!-- hpet_enable&#45;&gt;main_counter -->
<g id="edge1" class="edge">
<title>hpet_enable&#45;&gt;main_counter</title>
<path fill="none" stroke="black" d="M214.89,-362.76C264.8,-357.73 335.1,-350.65 387.72,-345.34"/>
<polygon fill="black" stroke="black" points="388.4,-348.79 398,-344.31 387.7,-341.83 388.4,-348.79"/>
<text text-anchor="middle" x="339.56" y="-355" font-family="Times,serif" font-size="10.00">enable</text>
</g>
<!-- counter_write -->
<g id="node2" class="node">
<title>counter_write</title>
<ellipse fill="lightgreen" stroke="black" cx="152.03" cy="-306" rx="115.93" ry="26.74"/>
<text text-anchor="middle" x="152.03" y="-309.8" font-family="Times,serif" font-size="14.00">counter_write</text>
<text text-anchor="middle" x="152.03" y="-294.8" font-family="Times,serif" font-size="14.00">counter_wdata[63:0]</text>
</g>
<!-- counter_write&#45;&gt;main_counter -->
<g id="edge2" class="edge">
<title>counter_write&#45;&gt;main_counter</title>
<path fill="none" stroke="black" d="M258,-316.92C300.65,-321.36 348.88,-326.38 387.58,-330.41"/>
<polygon fill="black" stroke="black" points="387.41,-333.91 397.72,-331.46 388.13,-326.94 387.41,-333.91"/>
<text text-anchor="middle" x="339.56" y="-330" font-family="Times,serif" font-size="10.00">write</text>
</g>
<!-- timer_cfg -->
<g id="node3" class="node">
<title>timer_cfg</title>
<ellipse fill="lightgreen" stroke="black" cx="152.03" cy="-90" rx="112.36" ry="37.45"/>
<text text-anchor="middle" x="152.03" y="-101.3" font-family="Times,serif" font-size="14.00">timer_enable[N&#45;1:0]</text>
<text text-anchor="middle" x="152.03" y="-86.3" font-family="Times,serif" font-size="14.00">timer_type[N&#45;1:0]</text>
<text text-anchor="middle" x="152.03" y="-71.3" font-family="Times,serif" font-size="14.00">timer_size[N&#45;1:0]</text>
</g>
<!-- timer_comp -->
<g id="node7" class="node">
<title>timer_comp</title>
<path fill="lightcyan" stroke="black" d="M536.06,-176C536.06,-176 387.06,-176 387.06,-176 381.06,-176 375.06,-170 375.06,-164 375.06,-164 375.06,-120 375.06,-120 375.06,-114 381.06,-108 387.06,-108 387.06,-108 536.06,-108 536.06,-108 542.06,-108 548.06,-114 548.06,-120 548.06,-120 548.06,-164 548.06,-164 548.06,-170 542.06,-176 536.06,-176"/>
<text text-anchor="middle" x="461.56" y="-160.8" font-family="Times,serif" font-size="14.00">Timer[i] Comparator</text>
<text text-anchor="middle" x="461.56" y="-145.8" font-family="Times,serif" font-size="14.00">64&#45;bit</text>
<text text-anchor="middle" x="461.56" y="-130.8" font-family="Times,serif" font-size="14.00">r_timer_comparator[i]</text>
<text text-anchor="middle" x="461.56" y="-115.8" font-family="Times,serif" font-size="14.00">r_timer_period[i]</text>
</g>
<!-- timer_cfg&#45;&gt;timer_comp -->
<g id="edge5" class="edge">
<title>timer_cfg&#45;&gt;timer_comp</title>
<path fill="none" stroke="black" d="M252.87,-106.88C288.86,-112.97 329.37,-119.82 364.98,-125.84"/>
<polygon fill="black" stroke="black" points="364.45,-129.3 374.89,-127.51 365.61,-122.4 364.45,-129.3"/>
<text text-anchor="middle" x="339.56" y="-127" font-family="Times,serif" font-size="10.00">config</text>
</g>
<!-- timer_comp_write -->
<g id="node4" class="node">
<title>timer_comp_write</title>
<ellipse fill="lightgreen" stroke="black" cx="152.03" cy="-172" rx="152.06" ry="26.74"/>
<text text-anchor="middle" x="152.03" y="-175.8" font-family="Times,serif" font-size="14.00">timer_comp_write[N&#45;1:0]</text>
<text text-anchor="middle" x="152.03" y="-160.8" font-family="Times,serif" font-size="14.00">timer_comp_wdata[N][63:0]</text>
</g>
<!-- timer_comp_write&#45;&gt;timer_comp -->
<g id="edge6" class="edge">
<title>timer_comp_write&#45;&gt;timer_comp</title>
<path fill="none" stroke="black" d="M285.68,-159.06C312.25,-156.47 339.69,-153.79 364.72,-151.35"/>
<polygon fill="black" stroke="black" points="365.31,-154.81 374.92,-150.35 364.63,-147.84 365.31,-154.81"/>
<text text-anchor="middle" x="339.56" y="-159" font-family="Times,serif" font-size="10.00">write</text>
</g>
<!-- timer_int_clear -->
<g id="node5" class="node">
<title>timer_int_clear</title>
<ellipse fill="lightgreen" stroke="black" cx="822.06" cy="-18" rx="112.38" ry="18"/>
<text text-anchor="middle" x="822.06" y="-14.3" font-family="Times,serif" font-size="14.00">timer_int_clear[N&#45;1:0]</text>
</g>
<!-- timer_int -->
<g id="node10" class="node">
<title>timer_int</title>
<path fill="lightcyan" stroke="black" d="M1314.89,-157.58C1314.89,-157.58 1269.26,-187.47 1269.26,-187.47 1264.24,-190.76 1253.22,-194.05 1247.22,-194.05 1247.22,-194.05 1139.81,-194.05 1139.81,-194.05 1133.81,-194.05 1122.79,-190.76 1117.77,-187.47 1117.77,-187.47 1072.14,-157.58 1072.14,-157.58 1067.12,-154.29 1067.12,-147.71 1072.14,-144.42 1072.14,-144.42 1117.77,-114.53 1117.77,-114.53 1122.79,-111.24 1133.81,-107.95 1139.81,-107.95 1139.81,-107.95 1247.22,-107.95 1247.22,-107.95 1253.22,-107.95 1264.24,-111.24 1269.26,-114.53 1269.26,-114.53 1314.89,-144.42 1314.89,-144.42 1319.91,-147.71 1319.91,-154.29 1314.89,-157.58"/>
<text text-anchor="middle" x="1193.51" y="-162.3" font-family="Times,serif" font-size="14.00">Interrupt</text>
<text text-anchor="middle" x="1193.51" y="-147.3" font-family="Times,serif" font-size="14.00">Generation</text>
<text text-anchor="middle" x="1193.51" y="-132.3" font-family="Times,serif" font-size="14.00">r_timer_int_status[i]</text>
</g>
<!-- timer_int_clear&#45;&gt;timer_int -->
<g id="edge12" class="edge">
<title>timer_int_clear&#45;&gt;timer_int</title>
<path fill="none" stroke="black" d="M904,-30.34C923.26,-34.2 943.57,-39.05 962.06,-45 1013.32,-61.51 1068.2,-86.43 1111.54,-107.97"/>
<polygon fill="black" stroke="black" points="1110.1,-111.16 1120.61,-112.51 1113.24,-104.9 1110.1,-111.16"/>
<text text-anchor="middle" x="1012.06" y="-78" font-family="Times,serif" font-size="10.00">clear</text>
</g>
<!-- timer_match -->
<g id="node8" class="node">
<title>timer_match</title>
<path fill="lightcyan" stroke="black" d="M810.83,-267.75C810.83,-267.75 693.28,-223.25 693.28,-223.25 687.67,-221.12 687.67,-216.88 693.28,-214.75 693.28,-214.75 810.83,-170.25 810.83,-170.25 816.44,-168.12 827.67,-168.12 833.28,-170.25 833.28,-170.25 950.83,-214.75 950.83,-214.75 956.44,-216.88 956.44,-221.12 950.83,-223.25 950.83,-223.25 833.28,-267.75 833.28,-267.75 827.67,-269.88 816.44,-269.88 810.83,-267.75"/>
<text text-anchor="middle" x="822.06" y="-230.3" font-family="Times,serif" font-size="14.00">Match Detection</text>
<text text-anchor="middle" x="822.06" y="-215.3" font-family="Times,serif" font-size="14.00">w_timer_match[i]</text>
<text text-anchor="middle" x="822.06" y="-200.3" font-family="Times,serif" font-size="14.00">Edge Detection</text>
</g>
<!-- main_counter&#45;&gt;timer_match -->
<g id="edge4" class="edge">
<title>main_counter&#45;&gt;timer_match</title>
<path fill="none" stroke="black" stroke-width="2" d="M525.41,-317.14C584.15,-297.64 672.26,-268.39 737.01,-246.9"/>
<polygon fill="black" stroke="black" stroke-width="2" points="738.4,-250.12 746.79,-243.65 736.2,-243.48 738.4,-250.12"/>
<text text-anchor="middle" x="615.06" y="-317" font-family="Times,serif" font-size="10.00">counter[63:0]</text>
<text text-anchor="middle" x="615.06" y="-306" font-family="Times,serif" font-size="10.00">compare</text>
</g>
<!-- counter_rdata -->
<g id="node11" class="node">
<title>counter_rdata</title>
<ellipse fill="pink" stroke="black" cx="822.06" cy="-338" rx="102.88" ry="18"/>
<text text-anchor="middle" x="822.06" y="-334.3" font-family="Times,serif" font-size="14.00">counter_rdata[63:0]</text>
</g>
<!-- main_counter&#45;&gt;counter_rdata -->
<g id="edge3" class="edge">
<title>main_counter&#45;&gt;counter_rdata</title>
<path fill="none" stroke="black" d="M525.41,-338C576,-338 648.38,-338 708.87,-338"/>
<polygon fill="black" stroke="black" points="709.24,-341.5 719.24,-338 709.24,-334.5 709.24,-341.5"/>
<text text-anchor="middle" x="615.06" y="-341" font-family="Times,serif" font-size="10.00">read</text>
</g>
<!-- timer_comp&#45;&gt;timer_match -->
<g id="edge8" class="edge">
<title>timer_comp&#45;&gt;timer_match</title>
<path fill="none" stroke="black" d="M548.43,-160.44C600.69,-171.67 667.64,-186.05 722.12,-197.75"/>
<polygon fill="black" stroke="black" points="721.63,-201.22 732.14,-199.9 723.1,-194.38 721.63,-201.22"/>
<text text-anchor="middle" x="615.06" y="-189" font-family="Times,serif" font-size="10.00">comparator[i][63:0]</text>
</g>
<!-- timer_comp_rdata -->
<g id="node12" class="node">
<title>timer_comp_rdata</title>
<ellipse fill="pink" stroke="black" cx="822.06" cy="-72" rx="136.48" ry="18"/>
<text text-anchor="middle" x="822.06" y="-68.3" font-family="Times,serif" font-size="14.00">timer_comp_rdata[N][63:0]</text>
</g>
<!-- timer_comp&#45;&gt;timer_comp_rdata -->
<g id="edge7" class="edge">
<title>timer_comp&#45;&gt;timer_comp_rdata</title>
<path fill="none" stroke="black" d="M548.13,-114.44C554.17,-112.84 560.19,-111.34 566.06,-110 612.11,-99.51 663.52,-91.22 708.05,-85.08"/>
<polygon fill="black" stroke="black" points="708.59,-88.54 718.03,-83.73 707.65,-81.61 708.59,-88.54"/>
<text text-anchor="middle" x="615.06" y="-113" font-family="Times,serif" font-size="10.00">read</text>
</g>
<!-- timer_mode -->
<g id="node9" class="node">
<title>timer_mode</title>
<path fill="lightcyan" stroke="black" d="M1261.01,-265.5C1261.01,-265.5 1126.01,-265.5 1126.01,-265.5 1120.01,-265.5 1114.01,-259.5 1114.01,-253.5 1114.01,-253.5 1114.01,-224.5 1114.01,-224.5 1114.01,-218.5 1120.01,-212.5 1126.01,-212.5 1126.01,-212.5 1261.01,-212.5 1261.01,-212.5 1267.01,-212.5 1273.01,-218.5 1273.01,-224.5 1273.01,-224.5 1273.01,-253.5 1273.01,-253.5 1273.01,-259.5 1267.01,-265.5 1261.01,-265.5"/>
<text text-anchor="middle" x="1193.51" y="-250.3" font-family="Times,serif" font-size="14.00">Mode Logic</text>
<text text-anchor="middle" x="1193.51" y="-235.3" font-family="Times,serif" font-size="14.00">(One&#45;shot/Periodic)</text>
<text text-anchor="middle" x="1193.51" y="-220.3" font-family="Times,serif" font-size="14.00">Comparator Update</text>
</g>
<!-- timer_match&#45;&gt;timer_mode -->
<g id="edge9" class="edge">
<title>timer_match&#45;&gt;timer_mode</title>
<path fill="none" stroke="black" d="M944.8,-225.59C996.61,-228.39 1055.93,-231.61 1103.52,-234.18"/>
<polygon fill="black" stroke="black" points="1103.63,-237.69 1113.81,-234.74 1104.01,-230.7 1103.63,-237.69"/>
<text text-anchor="middle" x="1012.06" y="-234" font-family="Times,serif" font-size="10.00">match event</text>
</g>
<!-- timer_match&#45;&gt;timer_int -->
<g id="edge11" class="edge">
<title>timer_match&#45;&gt;timer_int</title>
<path fill="none" stroke="black" d="M916.76,-201.75C966.57,-192.59 1028.15,-181.25 1080.47,-171.62"/>
<polygon fill="black" stroke="black" points="1081.26,-175.03 1090.46,-169.78 1080,-168.15 1081.26,-175.03"/>
<text text-anchor="middle" x="1012.06" y="-193" font-family="Times,serif" font-size="10.00">fire</text>
</g>
<!-- timer_mode&#45;&gt;timer_comp -->
<g id="edge10" class="edge">
<title>timer_mode&#45;&gt;timer_comp</title>
<path fill="none" stroke="black" stroke-dasharray="5,2" d="M1113.78,-227.15C1095.61,-221.83 1077.2,-214.14 1062.06,-203 1050.14,-194.23 1055.11,-184.83 1044.06,-175 1013.75,-148.06 1001.57,-144.12 962.06,-135 888.03,-117.91 681.38,-127.49 558.3,-135.24"/>
<polygon fill="black" stroke="black" points="557.88,-131.76 548.13,-135.89 558.33,-138.75 557.88,-131.76"/>
<text text-anchor="middle" x="822.06" y="-149" font-family="Times,serif" font-size="10.00">auto&#45;increment</text>
<text text-anchor="middle" x="822.06" y="-138" font-family="Times,serif" font-size="10.00">(periodic mode)</text>
</g>
<!-- timer_int_status -->
<g id="node13" class="node">
<title>timer_int_status</title>
<ellipse fill="pink" stroke="black" cx="1536.26" cy="-178" rx="118.08" ry="18"/>
<text text-anchor="middle" x="1536.26" y="-174.3" font-family="Times,serif" font-size="14.00">timer_int_status[N&#45;1:0]</text>
</g>
<!-- timer_int&#45;&gt;timer_int_status -->
<g id="edge13" class="edge">
<title>timer_int&#45;&gt;timer_int_status</title>
<path fill="none" stroke="black" d="M1311.3,-160.25C1346.63,-163.05 1385.39,-166.12 1420.58,-168.91"/>
<polygon fill="black" stroke="black" points="1420.65,-172.43 1430.89,-169.73 1421.2,-165.45 1420.65,-172.43"/>
<text text-anchor="middle" x="1371.47" y="-170" font-family="Times,serif" font-size="10.00">status</text>
</g>
<!-- timer_irq -->
<g id="node14" class="node">
<title>timer_irq</title>
<ellipse fill="pink" stroke="black" cx="1536.26" cy="-124" rx="85.59" ry="18"/>
<text text-anchor="middle" x="1536.26" y="-120.3" font-family="Times,serif" font-size="14.00">timer_irq[N&#45;1:0]</text>
</g>
<!-- timer_int&#45;&gt;timer_irq -->
<g id="edge14" class="edge">
<title>timer_int&#45;&gt;timer_irq</title>
<path fill="none" stroke="black" d="M1311.3,-141.75C1355.26,-138.26 1404.52,-134.36 1445.63,-131.1"/>
<polygon fill="black" stroke="black" points="1445.93,-134.59 1455.62,-130.31 1445.37,-127.61 1445.93,-134.59"/>
<text text-anchor="middle" x="1371.47" y="-143" font-family="Times,serif" font-size="10.00">IRQ output</text>
</g>
<!-- leg_data -->
<g id="node15" class="node">
<title>leg_data</title>
<path fill="lightblue" stroke="black" d="M183.53,-549C183.53,-549 120.53,-549 120.53,-549 114.53,-549 108.53,-543 108.53,-537 108.53,-537 108.53,-525 108.53,-525 108.53,-519 114.53,-513 120.53,-513 120.53,-513 183.53,-513 183.53,-513 189.53,-513 195.53,-519 195.53,-525 195.53,-525 195.53,-537 195.53,-537 195.53,-543 189.53,-549 183.53,-549"/>
<text text-anchor="middle" x="152.03" y="-527.3" font-family="Times,serif" font-size="14.00">Data Path</text>
</g>
<!-- leg_control -->
<g id="node16" class="node">
<title>leg_control</title>
<path fill="lightcyan" stroke="black" d="M140.2,-492.95C140.2,-492.95 60.12,-479.05 60.12,-479.05 54.21,-478.03 54.21,-475.97 60.12,-474.95 60.12,-474.95 140.2,-461.05 140.2,-461.05 146.12,-460.03 157.94,-460.03 163.85,-461.05 163.85,-461.05 243.93,-474.95 243.93,-474.95 249.85,-475.97 249.85,-478.03 243.93,-479.05 243.93,-479.05 163.85,-492.95 163.85,-492.95 157.94,-493.97 146.12,-493.97 140.2,-492.95"/>
<text text-anchor="middle" x="152.03" y="-473.3" font-family="Times,serif" font-size="14.00">Control Logic</text>
</g>
<!-- leg_output -->
<g id="node17" class="node">
<title>leg_output</title>
<path fill="lightcyan" stroke="black" d="M243.34,-426.97C243.34,-426.97 214.67,-437.03 214.67,-437.03 209.01,-439.01 197.35,-441 191.35,-441 191.35,-441 112.71,-441 112.71,-441 106.71,-441 95.05,-439.01 89.39,-437.03 89.39,-437.03 60.72,-426.97 60.72,-426.97 55.06,-424.99 55.06,-421.01 60.72,-419.03 60.72,-419.03 89.39,-408.97 89.39,-408.97 95.05,-406.99 106.71,-405 112.71,-405 112.71,-405 191.35,-405 191.35,-405 197.35,-405 209.01,-406.99 214.67,-408.97 214.67,-408.97 243.34,-419.03 243.34,-419.03 249,-421.01 249,-424.99 243.34,-426.97"/>
<text text-anchor="middle" x="152.03" y="-419.3" font-family="Times,serif" font-size="14.00">Interrupt Output</text>
</g>
</g>
</svg>
