<svg xmlns="http://www.w3.org/2000/svg" xmlns:xlink="http://www.w3.org/1999/xlink" xmlns:s="https://github.com/nturley/netlistsvg" width="973" height="515.5">
  
<rect width="100%" height="100%" fill="white"/>
  
<style>svg {
  stroke:#000;
  fill:none;
}

text {
  fill:#000;
  stroke:none;
  font-size:10px;
  font-weight: bold;
  font-family: "Courier New", monospace;
}
line {
    stroke-linecap: round;
}
.nodelabel {
  text-anchor: middle;
}
.inputPortLabel {
  text-anchor: end;
}
.splitjoinBody {
  fill:#000;
}</style><g s:type="and" transform="translate(514,371.5)" s:width="30" s:height="25" id="cell_$logic_and$arbiter_fixed_priority.sv:20$10"><s:alias val="$and"/><s:alias val="$logic_and"/><s:alias val="$_AND_"/><path d="M0,0 L0,25 L15,25 A15 12.5 0 0 0 15,0 Z" fill="#eebaff" class="cell_$logic_and$arbiter_fixed_priority.sv:20$10"/><g s:x="0" s:y="5" s:pid="A"/><g s:x="0" s:y="20" s:pid="B"/><g s:x="30" s:y="12.5" s:pid="Y"/></g><g s:type="and" transform="translate(700,473.5)" s:width="30" s:height="25" id="cell_$logic_and$arbiter_fixed_priority.sv:20$12"><s:alias val="$and"/><s:alias val="$logic_and"/><s:alias val="$_AND_"/><path d="M0,0 L0,25 L15,25 A15 12.5 0 0 0 15,0 Z" fill="#eebaff" class="cell_$logic_and$arbiter_fixed_priority.sv:20$12"/><g s:x="0" s:y="5" s:pid="A"/><g s:x="0" s:y="20" s:pid="B"/><g s:x="30" s:y="12.5" s:pid="Y"/></g><g s:type="and" transform="translate(328,330.5)" s:width="30" s:height="25" id="cell_$logic_and$arbiter_fixed_priority.sv:20$8"><s:alias val="$and"/><s:alias val="$logic_and"/><s:alias val="$_AND_"/><path d="M0,0 L0,25 L15,25 A15 12.5 0 0 0 15,0 Z" fill="#eebaff" class="cell_$logic_and$arbiter_fixed_priority.sv:20$8"/><g s:x="0" s:y="5" s:pid="A"/><g s:x="0" s:y="20" s:pid="B"/><g s:x="30" s:y="12.5" s:pid="Y"/></g><g s:type="not" transform="translate(635,483.5)" s:width="30" s:height="20" id="cell_$logic_not$arbiter_fixed_priority.sv:20$11"><s:alias val="$_NOT_"/><s:alias val="$not"/><s:alias val="$logic_not"/><path d="M0,0 L0,20 L20,10 Z" fill="#eebaff" class="cell_$logic_not$arbiter_fixed_priority.sv:20$11"/><circle cx="24" cy="10" r="3" fill="#eebaff" class="cell_$logic_not$arbiter_fixed_priority.sv:20$11"/><g s:x="-1" s:y="10" s:pid="A"/><g s:x="27" s:y="10" s:pid="Y"/></g><g s:type="not" transform="translate(263,340.5)" s:width="30" s:height="20" id="cell_$logic_not$arbiter_fixed_priority.sv:20$7"><s:alias val="$_NOT_"/><s:alias val="$not"/><s:alias val="$logic_not"/><path d="M0,0 L0,20 L20,10 Z" fill="#eebaff" class="cell_$logic_not$arbiter_fixed_priority.sv:20$7"/><circle cx="24" cy="10" r="3" fill="#eebaff" class="cell_$logic_not$arbiter_fixed_priority.sv:20$7"/><g s:x="-1" s:y="10" s:pid="A"/><g s:x="27" s:y="10" s:pid="Y"/></g><g s:type="not" transform="translate(449,381.5)" s:width="30" s:height="20" id="cell_$logic_not$arbiter_fixed_priority.sv:20$9"><s:alias val="$_NOT_"/><s:alias val="$not"/><s:alias val="$logic_not"/><path d="M0,0 L0,20 L20,10 Z" fill="#eebaff" class="cell_$logic_not$arbiter_fixed_priority.sv:20$9"/><circle cx="24" cy="10" r="3" fill="#eebaff" class="cell_$logic_not$arbiter_fixed_priority.sv:20$9"/><g s:x="-1" s:y="10" s:pid="A"/><g s:x="27" s:y="10" s:pid="Y"/></g><g s:type="mux" transform="translate(913,431.5)" s:width="20" s:height="40" id="cell_$procmux$14"><s:alias val="$pmux"/><s:alias val="$mux"/><s:alias val="$_MUX_"/><path d="M0,0 L20,10 L20,30 L0,40 Z" fill="#ffffff" class="cell_$procmux$14"/><text x="5" y="32" class="nodelabel cell_$procmux$14" s:attribute="">1</text><text x="5" y="13" class="nodelabel cell_$procmux$14" s:attribute="">0</text><g s:x="0" s:y="10" s:pid="A"/><g s:x="0" s:y="30" s:pid="B"/><g s:x="10" s:y="35" s:pid="S"/><g s:x="20" s:y="20" s:pid="Y"/></g><g s:type="mux" transform="translate(765,390.5)" s:width="20" s:height="40" id="cell_$procmux$17"><s:alias val="$pmux"/><s:alias val="$mux"/><s:alias val="$_MUX_"/><path d="M0,0 L20,10 L20,30 L0,40 Z" fill="#ffffff" class="cell_$procmux$17"/><text x="5" y="32" class="nodelabel cell_$procmux$17" s:attribute="">1</text><text x="5" y="13" class="nodelabel cell_$procmux$17" s:attribute="">0</text><g s:x="0" s:y="10" s:pid="A"/><g s:x="0" s:y="30" s:pid="B"/><g s:x="10" s:y="35" s:pid="S"/><g s:x="20" s:y="20" s:pid="Y"/></g><g s:type="mux" transform="translate(579,401.5)" s:width="20" s:height="40" id="cell_$procmux$20"><s:alias val="$pmux"/><s:alias val="$mux"/><s:alias val="$_MUX_"/><path d="M0,0 L20,10 L20,30 L0,40 Z" fill="#ffffff" class="cell_$procmux$20"/><text x="5" y="32" class="nodelabel cell_$procmux$20" s:attribute="">1</text><text x="5" y="13" class="nodelabel cell_$procmux$20" s:attribute="">0</text><g s:x="0" s:y="10" s:pid="A"/><g s:x="0" s:y="30" s:pid="B"/><g s:x="10" s:y="35" s:pid="S"/><g s:x="20" s:y="20" s:pid="Y"/></g><g s:type="mux" transform="translate(765,132)" s:width="20" s:height="40" id="cell_$procmux$23"><s:alias val="$pmux"/><s:alias val="$mux"/><s:alias val="$_MUX_"/><path d="M0,0 L20,10 L20,30 L0,40 Z" fill="#ffffff" class="cell_$procmux$23"/><text x="5" y="32" class="nodelabel cell_$procmux$23" s:attribute="">1</text><text x="5" y="13" class="nodelabel cell_$procmux$23" s:attribute="">0</text><g s:x="0" s:y="10" s:pid="A"/><g s:x="0" s:y="30" s:pid="B"/><g s:x="10" s:y="35" s:pid="S"/><g s:x="20" s:y="20" s:pid="Y"/></g><g s:type="mux" transform="translate(393,391.5)" s:width="20" s:height="40" id="cell_$procmux$26"><s:alias val="$pmux"/><s:alias val="$mux"/><s:alias val="$_MUX_"/><path d="M0,0 L20,10 L20,30 L0,40 Z" fill="#ffffff" class="cell_$procmux$26"/><text x="5" y="32" class="nodelabel cell_$procmux$26" s:attribute="">1</text><text x="5" y="13" class="nodelabel cell_$procmux$26" s:attribute="">0</text><g s:x="0" s:y="10" s:pid="A"/><g s:x="0" s:y="30" s:pid="B"/><g s:x="10" s:y="35" s:pid="S"/><g s:x="20" s:y="20" s:pid="Y"/></g><g s:type="mux" transform="translate(765,72)" s:width="20" s:height="40" id="cell_$procmux$29"><s:alias val="$pmux"/><s:alias val="$mux"/><s:alias val="$_MUX_"/><path d="M0,0 L20,10 L20,30 L0,40 Z" fill="#ffffff" class="cell_$procmux$29"/><text x="5" y="32" class="nodelabel cell_$procmux$29" s:attribute="">1</text><text x="5" y="13" class="nodelabel cell_$procmux$29" s:attribute="">0</text><g s:x="0" s:y="10" s:pid="A"/><g s:x="0" s:y="30" s:pid="B"/><g s:x="10" s:y="35" s:pid="S"/><g s:x="20" s:y="20" s:pid="Y"/></g><g s:type="mux" transform="translate(207,204)" s:width="20" s:height="40" id="cell_$procmux$32"><s:alias val="$pmux"/><s:alias val="$mux"/><s:alias val="$_MUX_"/><path d="M0,0 L20,10 L20,30 L0,40 Z" fill="#ffffff" class="cell_$procmux$32"/><text x="5" y="32" class="nodelabel cell_$procmux$32" s:attribute="">1</text><text x="5" y="13" class="nodelabel cell_$procmux$32" s:attribute="">0</text><g s:x="0" s:y="10" s:pid="A"/><g s:x="0" s:y="30" s:pid="B"/><g s:x="10" s:y="35" s:pid="S"/><g s:x="20" s:y="20" s:pid="Y"/></g><g s:type="mux" transform="translate(765,12)" s:width="20" s:height="40" id="cell_$procmux$35"><s:alias val="$pmux"/><s:alias val="$mux"/><s:alias val="$_MUX_"/><path d="M0,0 L20,10 L20,30 L0,40 Z" fill="#ffffff" class="cell_$procmux$35"/><text x="5" y="32" class="nodelabel cell_$procmux$35" s:attribute="">1</text><text x="5" y="13" class="nodelabel cell_$procmux$35" s:attribute="">0</text><g s:x="0" s:y="10" s:pid="A"/><g s:x="0" s:y="30" s:pid="B"/><g s:x="10" s:y="35" s:pid="S"/><g s:x="20" s:y="20" s:pid="Y"/></g><g s:type="inputExt" transform="translate(12,309.5)" s:width="30" s:height="20" id="cell_i_req"><text x="15" y="-4" class="nodelabel cell_i_req" s:attribute="ref">i_req</text><s:alias val="$_inputExt_"/><path d="M0,0 L0,20 L15,20 L30,10 L15,0 Z" fill="#8bcaff" class="cell_i_req"/><g s:x="30" s:y="10" s:pid="Y"/></g><g s:type="outputExt" transform="translate(913,370.5)" s:width="30" s:height="20" id="cell_ow_grant"><text x="15" y="-4" class="nodelabel cell_ow_grant" s:attribute="ref">ow_grant</text><s:alias val="$_outputExt_"/><path d="M30,0 L30,20 L15,20 L0,10 L15,0 Z" fill="#169300" class="cell_ow_grant"/><g s:x="0" s:y="10" s:pid="A"/></g><g s:type="constant" transform="translate(116,224)" s:width="30" s:height="20" id="cell_1"><text x="15" y="-4" class="nodelabel cell_1" s:attribute="ref">1</text><s:alias val="$_constant_"/><rect width="30" height="20" fill="#745bff" class="cell_1"/><g s:x="31" s:y="10" s:pid="Y"/></g><g s:type="constant" transform="translate(116,132)" s:width="30" s:height="20" id="cell_0"><text x="15" y="-4" class="nodelabel cell_0" s:attribute="ref">0</text><s:alias val="$_constant_"/><rect width="30" height="20" fill="#745bff" class="cell_0"/><g s:x="31" s:y="10" s:pid="Y"/></g><g s:type="join" transform="translate(833,340)" s:width="5" s:height="40" id="cell_$join$,6,7,8,9,"><rect width="5" height="80" class="splitjoinBody" s:generic="body"/><s:alias val="$_join_"/><g s:x="5" s:y="20" s:pid="out"/><g transform="translate(-1,10)" s:x="-1" s:y="10" s:pid="in0"><text x="-3" y="-4" class="inputPortLabel">0</text></g><g transform="translate(-1,30)" s:x="-1" s:y="10" s:pid="in0"><text x="-3" y="-4" class="inputPortLabel">1</text></g><g transform="translate(-1,50)" s:x="-1" s:y="10" s:pid="in0"><text x="-3" y="-4" class="inputPortLabel">2</text></g><g transform="translate(-1,70)" s:x="-1" s:y="10" s:pid="in0"><text x="-3" y="-4" class="inputPortLabel">3</text></g></g><g s:type="split" transform="translate(132,279)" s:width="5" s:height="40" id="cell_$split$,2,3,4,5,"><rect width="5" height="80" class="splitjoinBody" s:generic="body"/><s:alias val="$_split_"/><g s:x="-1" s:y="20" s:pid="in"/><g transform="translate(5,10)" s:x="5" s:y="10" s:pid="out0"><text x="5" y="-4">2</text></g><g transform="translate(5,30)" s:x="5" s:y="10" s:pid="out0"><text x="5" y="-4">3</text></g><g transform="translate(5,50)" s:x="5" s:y="10" s:pid="out0"><text x="5" y="-4">1</text></g><g transform="translate(5,70)" s:x="5" s:y="10" s:pid="out0"><text x="5" y="-4">0</text></g></g><line x1="138" x2="167" y1="289.5" y2="289.5" class="net_4 width_1" style="stroke-width: 1"/><line x1="167" x2="167" y1="289.5" y2="370.5" class="net_4 width_1" style="stroke-width: 1"/><line x1="167" x2="489" y1="370.5" y2="370.5" class="net_4 width_1" style="stroke-width: 1"/><line x1="489" x2="489" y1="370.5" y2="376.5" class="net_4 width_1" style="stroke-width: 1"/><line x1="489" x2="514" y1="376.5" y2="376.5" class="net_4 width_1" style="stroke-width: 1"/><line x1="476" x2="514" y1="391.5" y2="391.5" class="net_10 width_1" style="stroke-width: 1"/><line x1="138" x2="157" y1="309.5" y2="309.5" class="net_5 width_1" style="stroke-width: 1"/><line x1="157" x2="157" y1="309.5" y2="472.5" class="net_5 width_1" style="stroke-width: 1"/><line x1="157" x2="675" y1="472.5" y2="472.5" class="net_5 width_1" style="stroke-width: 1"/><line x1="675" x2="675" y1="472.5" y2="478.5" class="net_5 width_1" style="stroke-width: 1"/><line x1="675" x2="700" y1="478.5" y2="478.5" class="net_5 width_1" style="stroke-width: 1"/><line x1="662" x2="700" y1="493.5" y2="493.5" class="net_12 width_1" style="stroke-width: 1"/><line x1="138" x2="303" y1="329.5" y2="329.5" class="net_3 width_1" style="stroke-width: 1"/><line x1="303" x2="303" y1="329.5" y2="335.5" class="net_3 width_1" style="stroke-width: 1"/><line x1="303" x2="328" y1="335.5" y2="335.5" class="net_3 width_1" style="stroke-width: 1"/><line x1="290" x2="328" y1="350.5" y2="350.5" class="net_14 width_1" style="stroke-width: 1"/><line x1="599" x2="609" y1="421.5" y2="421.5" class="net_16 width_1" style="stroke-width: 1"/><line x1="609" x2="609" y1="421.5" y2="493.5" class="net_16 width_1" style="stroke-width: 1"/><line x1="609" x2="634" y1="493.5" y2="493.5" class="net_16 width_1" style="stroke-width: 1"/><line x1="599" x2="609" y1="421.5" y2="421.5" class="net_16 width_1" style="stroke-width: 1"/><line x1="609" x2="609" y1="421.5" y2="440.5" class="net_16 width_1" style="stroke-width: 1"/><line x1="609" x2="888" y1="440.5" y2="440.5" class="net_16 width_1" style="stroke-width: 1"/><line x1="888" x2="888" y1="440.5" y2="441.5" class="net_16 width_1" style="stroke-width: 1"/><circle cx="609" cy="440.5" r="2" style="fill:#000" class="net_16 width_1"/><line x1="888" x2="913" y1="441.5" y2="441.5" class="net_16 width_1" style="stroke-width: 1"/><line x1="227" x2="237" y1="224" y2="224" class="net_17 width_1" style="stroke-width: 1"/><line x1="237" x2="237" y1="224" y2="350.5" class="net_17 width_1" style="stroke-width: 1"/><circle cx="237" cy="350.5" r="2" style="fill:#000" class="net_17 width_1"/><line x1="237" x2="262" y1="350.5" y2="350.5" class="net_17 width_1" style="stroke-width: 1"/><line x1="227" x2="237" y1="224" y2="224" class="net_17 width_1" style="stroke-width: 1"/><line x1="237" x2="237" y1="224" y2="401.5" class="net_17 width_1" style="stroke-width: 1"/><line x1="237" x2="393" y1="401.5" y2="401.5" class="net_17 width_1" style="stroke-width: 1"/><line x1="413" x2="423" y1="411.5" y2="411.5" class="net_18 width_1" style="stroke-width: 1"/><line x1="423" x2="423" y1="411.5" y2="391.5" class="net_18 width_1" style="stroke-width: 1"/><circle cx="423" cy="411.5" r="2" style="fill:#000" class="net_18 width_1"/><line x1="423" x2="448" y1="391.5" y2="391.5" class="net_18 width_1" style="stroke-width: 1"/><line x1="413" x2="579" y1="411.5" y2="411.5" class="net_18 width_1" style="stroke-width: 1"/><line x1="147" x2="187" y1="234" y2="234" class="net_20 width_1" style="stroke-width: 1"/><line x1="187" x2="187" y1="234" y2="461.5" class="net_20 width_1" style="stroke-width: 1"/><circle cx="187" cy="234" r="2" style="fill:#000" class="net_20 width_1"/><line x1="187" x2="913" y1="461.5" y2="461.5" class="net_20 width_1" style="stroke-width: 1"/><line x1="147" x2="187" y1="234" y2="234" class="net_20 width_1" style="stroke-width: 1"/><line x1="187" x2="187" y1="234" y2="461.5" class="net_20 width_1" style="stroke-width: 1"/><line x1="187" x2="619" y1="461.5" y2="461.5" class="net_20 width_1" style="stroke-width: 1"/><line x1="619" x2="619" y1="461.5" y2="420.5" class="net_20 width_1" style="stroke-width: 1"/><circle cx="619" cy="461.5" r="2" style="fill:#000" class="net_20 width_1"/><line x1="619" x2="765" y1="420.5" y2="420.5" class="net_20 width_1" style="stroke-width: 1"/><line x1="147" x2="187" y1="234" y2="234" class="net_20 width_1" style="stroke-width: 1"/><line x1="187" x2="187" y1="234" y2="461.5" class="net_20 width_1" style="stroke-width: 1"/><line x1="187" x2="554" y1="461.5" y2="461.5" class="net_20 width_1" style="stroke-width: 1"/><line x1="554" x2="554" y1="461.5" y2="431.5" class="net_20 width_1" style="stroke-width: 1"/><circle cx="554" cy="461.5" r="2" style="fill:#000" class="net_20 width_1"/><line x1="554" x2="579" y1="431.5" y2="431.5" class="net_20 width_1" style="stroke-width: 1"/><line x1="147" x2="187" y1="234" y2="234" class="net_20 width_1" style="stroke-width: 1"/><line x1="187" x2="187" y1="234" y2="162" class="net_20 width_1" style="stroke-width: 1"/><circle cx="187" cy="162" r="2" style="fill:#000" class="net_20 width_1"/><line x1="187" x2="765" y1="162" y2="162" class="net_20 width_1" style="stroke-width: 1"/><line x1="147" x2="187" y1="234" y2="234" class="net_20 width_1" style="stroke-width: 1"/><line x1="187" x2="187" y1="234" y2="461.5" class="net_20 width_1" style="stroke-width: 1"/><line x1="187" x2="368" y1="461.5" y2="461.5" class="net_20 width_1" style="stroke-width: 1"/><line x1="368" x2="368" y1="461.5" y2="421.5" class="net_20 width_1" style="stroke-width: 1"/><circle cx="368" cy="461.5" r="2" style="fill:#000" class="net_20 width_1"/><line x1="368" x2="393" y1="421.5" y2="421.5" class="net_20 width_1" style="stroke-width: 1"/><line x1="147" x2="187" y1="234" y2="234" class="net_20 width_1" style="stroke-width: 1"/><line x1="187" x2="187" y1="234" y2="102" class="net_20 width_1" style="stroke-width: 1"/><circle cx="187" cy="102" r="2" style="fill:#000" class="net_20 width_1"/><line x1="187" x2="765" y1="102" y2="102" class="net_20 width_1" style="stroke-width: 1"/><line x1="147" x2="207" y1="234" y2="234" class="net_20 width_1" style="stroke-width: 1"/><line x1="147" x2="187" y1="234" y2="234" class="net_20 width_1" style="stroke-width: 1"/><line x1="187" x2="187" y1="234" y2="42" class="net_20 width_1" style="stroke-width: 1"/><line x1="187" x2="765" y1="42" y2="42" class="net_20 width_1" style="stroke-width: 1"/><line x1="730" x2="923" y1="486" y2="486" class="net_13 width_1" style="stroke-width: 1"/><line x1="923" x2="923" y1="486" y2="466.5" class="net_13 width_1" style="stroke-width: 1"/><line x1="730" x2="740" y1="486" y2="486" class="net_13 width_1" style="stroke-width: 1"/><line x1="740" x2="740" y1="486" y2="451.5" class="net_13 width_1" style="stroke-width: 1"/><line x1="740" x2="775" y1="451.5" y2="451.5" class="net_13 width_1" style="stroke-width: 1"/><circle cx="740" cy="486" r="2" style="fill:#000" class="net_13 width_1"/><line x1="775" x2="775" y1="451.5" y2="425.5" class="net_13 width_1" style="stroke-width: 1"/><line x1="147" x2="197" y1="142" y2="142" class="net_21 width_1" style="stroke-width: 1"/><line x1="197" x2="197" y1="142" y2="193" class="net_21 width_1" style="stroke-width: 1"/><line x1="197" x2="740" y1="193" y2="193" class="net_21 width_1" style="stroke-width: 1"/><line x1="740" x2="740" y1="193" y2="400.5" class="net_21 width_1" style="stroke-width: 1"/><circle cx="197" cy="142" r="2" style="fill:#000" class="net_21 width_1"/><circle cx="197" cy="193" r="2" style="fill:#000" class="net_21 width_1"/><line x1="740" x2="765" y1="400.5" y2="400.5" class="net_21 width_1" style="stroke-width: 1"/><line x1="147" x2="765" y1="142" y2="142" class="net_21 width_1" style="stroke-width: 1"/><line x1="147" x2="197" y1="142" y2="142" class="net_21 width_1" style="stroke-width: 1"/><line x1="197" x2="197" y1="142" y2="82" class="net_21 width_1" style="stroke-width: 1"/><circle cx="197" cy="82" r="2" style="fill:#000" class="net_21 width_1"/><line x1="197" x2="765" y1="82" y2="82" class="net_21 width_1" style="stroke-width: 1"/><line x1="147" x2="197" y1="142" y2="142" class="net_21 width_1" style="stroke-width: 1"/><line x1="197" x2="197" y1="142" y2="214" class="net_21 width_1" style="stroke-width: 1"/><line x1="197" x2="207" y1="214" y2="214" class="net_21 width_1" style="stroke-width: 1"/><line x1="147" x2="197" y1="142" y2="142" class="net_21 width_1" style="stroke-width: 1"/><line x1="197" x2="197" y1="142" y2="22" class="net_21 width_1" style="stroke-width: 1"/><line x1="197" x2="765" y1="22" y2="22" class="net_21 width_1" style="stroke-width: 1"/><line x1="544" x2="564" y1="384" y2="384" class="net_11 width_1" style="stroke-width: 1"/><line x1="564" x2="564" y1="384" y2="451.5" class="net_11 width_1" style="stroke-width: 1"/><line x1="564" x2="589" y1="451.5" y2="451.5" class="net_11 width_1" style="stroke-width: 1"/><circle cx="564" cy="384" r="2" style="fill:#000" class="net_11 width_1"/><line x1="589" x2="589" y1="451.5" y2="436.5" class="net_11 width_1" style="stroke-width: 1"/><line x1="544" x2="564" y1="384" y2="384" class="net_11 width_1" style="stroke-width: 1"/><line x1="564" x2="564" y1="384" y2="182" class="net_11 width_1" style="stroke-width: 1"/><line x1="564" x2="775" y1="182" y2="182" class="net_11 width_1" style="stroke-width: 1"/><line x1="775" x2="775" y1="182" y2="167" class="net_11 width_1" style="stroke-width: 1"/><line x1="358" x2="378" y1="343" y2="343" class="net_15 width_1" style="stroke-width: 1"/><line x1="378" x2="378" y1="343" y2="451.5" class="net_15 width_1" style="stroke-width: 1"/><line x1="378" x2="403" y1="451.5" y2="451.5" class="net_15 width_1" style="stroke-width: 1"/><circle cx="378" cy="343" r="2" style="fill:#000" class="net_15 width_1"/><line x1="403" x2="403" y1="451.5" y2="426.5" class="net_15 width_1" style="stroke-width: 1"/><line x1="358" x2="378" y1="343" y2="343" class="net_15 width_1" style="stroke-width: 1"/><line x1="378" x2="378" y1="343" y2="122" class="net_15 width_1" style="stroke-width: 1"/><line x1="378" x2="775" y1="122" y2="122" class="net_15 width_1" style="stroke-width: 1"/><line x1="775" x2="775" y1="122" y2="107" class="net_15 width_1" style="stroke-width: 1"/><line x1="138" x2="177" y1="349.5" y2="349.5" class="net_2 width_1" style="stroke-width: 1"/><line x1="177" x2="177" y1="349.5" y2="319.5" class="net_2 width_1" style="stroke-width: 1"/><line x1="177" x2="217" y1="319.5" y2="319.5" class="net_2 width_1" style="stroke-width: 1"/><circle cx="177" cy="319.5" r="2" style="fill:#000" class="net_2 width_1"/><line x1="217" x2="217" y1="319.5" y2="239" class="net_2 width_1" style="stroke-width: 1"/><line x1="138" x2="177" y1="349.5" y2="349.5" class="net_2 width_1" style="stroke-width: 1"/><line x1="177" x2="177" y1="349.5" y2="62" class="net_2 width_1" style="stroke-width: 1"/><line x1="177" x2="775" y1="62" y2="62" class="net_2 width_1" style="stroke-width: 1"/><line x1="775" x2="775" y1="62" y2="47" class="net_2 width_1" style="stroke-width: 1"/><line x1="839" x2="913" y1="380.5" y2="380.5" class="net_6,7,8,9 width_4" style="stroke-width: 2"/><line x1="785" x2="815" y1="32" y2="32" class="net_6 width_1" style="stroke-width: 1"/><line x1="815" x2="815" y1="32" y2="350.5" class="net_6 width_1" style="stroke-width: 1"/><line x1="815" x2="832" y1="350.5" y2="350.5" class="net_6 width_1" style="stroke-width: 1"/><line x1="785" x2="805" y1="92" y2="92" class="net_7 width_1" style="stroke-width: 1"/><line x1="805" x2="805" y1="92" y2="370.5" class="net_7 width_1" style="stroke-width: 1"/><line x1="805" x2="832" y1="370.5" y2="370.5" class="net_7 width_1" style="stroke-width: 1"/><line x1="785" x2="795" y1="152" y2="152" class="net_8 width_1" style="stroke-width: 1"/><line x1="795" x2="795" y1="152" y2="390.5" class="net_8 width_1" style="stroke-width: 1"/><line x1="795" x2="832" y1="390.5" y2="390.5" class="net_8 width_1" style="stroke-width: 1"/><line x1="785" x2="832" y1="410.5" y2="410.5" class="net_9 width_1" style="stroke-width: 1"/><line x1="42" x2="131" y1="319.5" y2="319.5" class="net_2,3,4,5 width_4" style="stroke-width: 2"/><rect x="875" y="375.5" width="16" height="9" class="net_6,7,8,9 width_4 busLabel_4" style="fill: white; stroke: none"/><text x="874" y="383.5" class="net_6,7,8,9 width_4 busLabel_4">/4/</text><rect x="78" y="314.5" width="16" height="9" class="net_2,3,4,5 width_4 busLabel_4" style="fill: white; stroke: none"/><text x="77" y="322.5" class="net_2,3,4,5 width_4 busLabel_4">/4/</text></svg>