<svg xmlns="http://www.w3.org/2000/svg" xmlns:xlink="http://www.w3.org/1999/xlink" xmlns:s="https://github.com/nturley/netlistsvg" width="971.5" height="456">
  
<rect width="100%" height="100%" fill="white"/>
  
<style>svg {
  stroke:#000;
  fill:none;
}
text {
  fill:#000;
  stroke:none;
  font-size:10px;
  font-weight: bold;
  font-family: "Courier New", monospace;
}
line {
    stroke-linecap: round;
}
.nodelabel {
  text-anchor: middle;
}
.inputPortLabel {
  text-anchor: end;
}
.splitjoinBody {
  fill:#000;
}</style>
<g s:type="and" transform="translate(459.3333333333333,186)" s:width="30" s:height="25" id="cell_$and$arbiter_round_robin_subinst.sv:35$7"><s:alias val="$and"/><s:alias val="$logic_and"/><s:alias val="$_AND_"/><path d="M0,0 L0,25 L15,25 A15 12.5 0 0 0 15,0 Z" fill="#eebaff" class="cell_$and$arbiter_round_robin_subinst.sv:35$7"/><g s:x="0" s:y="5" s:pid="A"/><g s:x="0" s:y="20" s:pid="B"/><g s:x="30" s:y="12.5" s:pid="Y"/></g><g s:type="mux-bus" transform="translate(741,62)" s:width="24" s:height="40" id="cell_$auto$proc_dff.cc:309:proc_dff$20"><s:alias val="$pmux-bus"/><s:alias val="$mux-bus"/><s:alias val="$_MUX_-bus"/><path d="M8,2 L8,0 L24,8 L24,32 L8,40 L8,38" fill="#ffffff" class="cell_$auto$proc_dff.cc:309:proc_dff$20"/><path d="M4,2 L4,0 L22,9 L22,31 L4,40 L4,38" fill="#ffffff" class="cell_$auto$proc_dff.cc:309:proc_dff$20"/><path d="M0,0 L20,10 L20,30 L0,40 Z" fill="#ffffff" class="cell_$auto$proc_dff.cc:309:proc_dff$20"/><text x="5" y="32" class="nodelabel cell_$auto$proc_dff.cc:309:proc_dff$20" s:attribute="">1</text><text x="5" y="13" class="nodelabel cell_$auto$proc_dff.cc:309:proc_dff$20" s:attribute="">0</text><g s:x="-1" s:y="10" s:pid="A"/><g s:x="-1" s:y="30" s:pid="B"/><g s:x="12" s:y="38" s:pid="S"/><g s:x="24.5" s:y="20" s:pid="Y"/></g><g s:type="not" transform="translate(587,382)" s:width="30" s:height="20" id="cell_$eq$arbiter_round_robin_subinst.sv:50$8"><s:alias val="$_NOT_"/><s:alias val="$not"/><s:alias val="$logic_not"/><path d="M0,0 L0,20 L20,10 Z" fill="#eebaff" class="cell_$eq$arbiter_round_robin_subinst.sv:50$8"/><circle cx="24" cy="10" r="3" fill="#eebaff" class="cell_$eq$arbiter_round_robin_subinst.sv:50$8"/><g s:x="-1" s:y="10" s:pid="A"/><g s:x="27" s:y="10" s:pid="Y"/></g><g s:type="or" transform="translate(675,332)" s:width="30" s:height="25" id="cell_$logic_or$arbiter_round_robin_subinst.sv:50$9"><s:alias val="$or"/><s:alias val="$logic_or"/><s:alias val="$_OR_"/><path d="M0,25 L0,25 L15,25 A15 12.5 0 0 0 15,0 L0,0 A30 25 0 0 1 0,25 Z" fill="#eebaff" class="cell_$logic_or$arbiter_round_robin_subinst.sv:50$9"/><g s:x="2" s:y="5" s:pid="A"/><g s:x="2" s:y="20" s:pid="B"/><g s:x="30" s:y="12.5" s:pid="Y"/></g><g s:type="not" transform="translate(889.5,22)" s:width="30" s:height="20" id="cell_$not$arbiter_round_robin_subinst.sv:25$5"><s:alias val="$_NOT_"/><s:alias val="$not"/><s:alias val="$logic_not"/><path d="M0,0 L0,20 L20,10 Z" fill="#eebaff" class="cell_$not$arbiter_round_robin_subinst.sv:25$5"/><circle cx="24" cy="10" r="3" fill="#eebaff" class="cell_$not$arbiter_round_robin_subinst.sv:25$5"/><g s:x="-1" s:y="10" s:pid="A"/><g s:x="27" s:y="10" s:pid="Y"/></g><g s:type="generic" transform="translate(319,230)" s:width="30" s:height="40" id="cell_$procdff$19"><text x="15" y="-4" class="nodelabel cell_$procdff$19" s:attribute="ref">$adff-bus</text><rect width="30" height="60" s:generic="body" fill="#ffae46" rx="0" class="cell_$procdff$19"/><g transform="translate(0,10)" s:x="0" s:y="10" s:pid="in0" id="port_$procdff$19~ARST"><text x="-3" y="-4" class="inputPortLabel cell_$procdff$19">ARST</text></g><g transform="translate(0,30)" s:x="0" s:y="10" s:pid="in0" id="port_$procdff$19~CLK"><text x="-3" y="-4" class="inputPortLabel cell_$procdff$19">CLK</text></g><g transform="translate(0,50)" s:x="0" s:y="10" s:pid="in0" id="port_$procdff$19~D"><text x="-3" y="-4" class="inputPortLabel cell_$procdff$19">D</text></g><g transform="translate(30,10)" s:x="30" s:y="10" s:pid="out0" id="port_$procdff$19~Q"><text x="5" y="-4" style="fill:#000; stroke:none" class="cell_$procdff$19">Q</text></g></g><g s:type="dff" transform="translate(889.5,72)" s:width="30" s:height="40" id="cell_$procdff$22"><s:alias val="$dff"/><s:alias val="$_DFF_"/><s:alias val="$_DFF_P_"/><s:alias val="dff-bus"/><s:alias val="$dff-bus"/><s:alias val="$_DFF_-bus"/><s:alias val="$_DFF_P_-bus"/><rect width="30" height="40" x="0" y="0" fill="#ffef8b" class="cell_$procdff$22"/><path d="M0,35 L5,30 L0,25" class="cell_$procdff$22"/><g s:x="31" s:y="10" s:pid="Q"/><g s:x="-1" s:y="30" s:pid="CLK"/><g s:x="-1" s:y="30" s:pid="C"/><g s:x="-1" s:y="10" s:pid="D"/></g><g s:type="mux" transform="translate(113,377)" s:width="20" s:height="40" id="cell_$procmux$11"><s:alias val="$pmux"/><s:alias val="$mux"/><s:alias val="$_MUX_"/><path d="M0,0 L20,10 L20,30 L0,40 Z" fill="#ffffff" class="cell_$procmux$11"/><text x="5" y="32" class="nodelabel cell_$procmux$11" s:attribute="">1</text><text x="5" y="13" class="nodelabel cell_$procmux$11" s:attribute="">0</text><g s:x="0" s:y="10" s:pid="A"/><g s:x="0" s:y="30" s:pid="B"/><g s:x="10" s:y="35" s:pid="S"/><g s:x="20" s:y="20" s:pid="Y"/></g><g s:type="mux" transform="translate(113,317)" s:width="20" s:height="40" id="cell_$procmux$13"><s:alias val="$pmux"/><s:alias val="$mux"/><s:alias val="$_MUX_"/><path d="M0,0 L20,10 L20,30 L0,40 Z" fill="#ffffff" class="cell_$procmux$13"/><text x="5" y="32" class="nodelabel cell_$procmux$13" s:attribute="">1</text><text x="5" y="13" class="nodelabel cell_$procmux$13" s:attribute="">0</text><g s:x="0" s:y="10" s:pid="A"/><g s:x="0" s:y="30" s:pid="B"/><g s:x="10" s:y="35" s:pid="S"/><g s:x="20" s:y="20" s:pid="Y"/></g><g s:type="mux" transform="translate(113,257)" s:width="20" s:height="40" id="cell_$procmux$15"><s:alias val="$pmux"/><s:alias val="$mux"/><s:alias val="$_MUX_"/><path d="M0,0 L20,10 L20,30 L0,40 Z" fill="#ffffff" class="cell_$procmux$15"/><text x="5" y="32" class="nodelabel cell_$procmux$15" s:attribute="">1</text><text x="5" y="13" class="nodelabel cell_$procmux$15" s:attribute="">0</text><g s:x="0" s:y="10" s:pid="A"/><g s:x="0" s:y="30" s:pid="B"/><g s:x="10" s:y="35" s:pid="S"/><g s:x="20" s:y="20" s:pid="Y"/></g><g s:type="mux" transform="translate(113,56.5)" s:width="20" s:height="40" id="cell_$procmux$17"><s:alias val="$pmux"/><s:alias val="$mux"/><s:alias val="$_MUX_"/><path d="M0,0 L20,10 L20,30 L0,40 Z" fill="#ffffff" class="cell_$procmux$17"/><text x="5" y="32" class="nodelabel cell_$procmux$17" s:attribute="">1</text><text x="5" y="13" class="nodelabel cell_$procmux$17" s:attribute="">0</text><g s:x="0" s:y="10" s:pid="A"/><g s:x="0" s:y="30" s:pid="B"/><g s:x="10" s:y="35" s:pid="S"/><g s:x="20" s:y="20" s:pid="Y"/></g><g s:type="mux-bus" transform="translate(741,274)" s:width="24" s:height="40" id="cell_$ternary$arbiter_round_robin_subinst.sv:51$10"><s:alias val="$pmux-bus"/><s:alias val="$mux-bus"/><s:alias val="$_MUX_-bus"/><path d="M8,2 L8,0 L24,8 L24,32 L8,40 L8,38" fill="#ffffff" class="cell_$ternary$arbiter_round_robin_subinst.sv:51$10"/><path d="M4,2 L4,0 L22,9 L22,31 L4,40 L4,38" fill="#ffffff" class="cell_$ternary$arbiter_round_robin_subinst.sv:51$10"/><path d="M0,0 L20,10 L20,30 L0,40 Z" fill="#ffffff" class="cell_$ternary$arbiter_round_robin_subinst.sv:51$10"/><text x="5" y="32" class="nodelabel cell_$ternary$arbiter_round_robin_subinst.sv:51$10" s:attribute="">1</text><text x="5" y="13" class="nodelabel cell_$ternary$arbiter_round_robin_subinst.sv:51$10" s:attribute="">0</text><g s:x="-1" s:y="10" s:pid="A"/><g s:x="-1" s:y="30" s:pid="B"/><g s:x="12" s:y="38" s:pid="S"/><g s:x="24.5" s:y="20" s:pid="Y"/></g><g s:type="generic" transform="translate(889.5,252.5)" s:width="30" s:height="40" id="cell_u_arb_mask"><text x="15" y="-4" class="nodelabel cell_u_arb_mask" s:attribute="ref">arbiter_fixed_priority</text><rect width="30" height="40" s:generic="body" fill="#ffae46" rx="0" class="cell_u_arb_mask"/><g transform="translate(0,10)" s:x="0" s:y="10" s:pid="in0" id="port_u_arb_mask~i_req"><text x="-3" y="-4" class="inputPortLabel cell_u_arb_mask">i_req</text></g><g transform="translate(0,30)" s:x="0" s:y="10" s:pid="in0" id="port_u_arb_mask~ow_grant"><text x="-3" y="-4" class="inputPortLabel cell_u_arb_mask">ow_grant</text></g></g><g s:type="generic" transform="translate(889.5,164.5)" s:width="30" s:height="40" id="cell_u_arb_raw"><text x="15" y="-4" class="nodelabel cell_u_arb_raw" s:attribute="ref">arbiter_fixed_priority</text><rect width="30" height="40" s:generic="body" fill="#ffae46" rx="0" class="cell_u_arb_raw"/><g transform="translate(0,10)" s:x="0" s:y="10" s:pid="in0" id="port_u_arb_raw~i_req"><text x="-3" y="-4" class="inputPortLabel cell_u_arb_raw">i_req</text></g><g transform="translate(0,30)" s:x="0" s:y="10" s:pid="in0" id="port_u_arb_raw~ow_grant"><text x="-3" y="-4" class="inputPortLabel cell_u_arb_raw">ow_grant</text></g></g><g s:type="inputExt" transform="translate(217,113)" s:width="30" s:height="20" id="cell_i_clk"><text x="15" y="-4" class="nodelabel cell_i_clk" s:attribute="ref">i_clk</text><s:alias val="$_inputExt_"/><path d="M0,0 L0,20 L15,20 L30,10 L15,0 Z" fill="#8bcaff" class="cell_i_clk"/><g s:x="30" s:y="10" s:pid="Y"/></g><g s:type="inputExt" transform="translate(217,22)" s:width="30" s:height="20" id="cell_i_rst_n"><text x="15" y="-4" class="nodelabel cell_i_rst_n" s:attribute="ref">i_rst_n</text><s:alias val="$_inputExt_"/><path d="M0,0 L0,20 L15,20 L30,10 L15,0 Z" fill="#8bcaff" class="cell_i_rst_n"/><g s:x="30" s:y="10" s:pid="Y"/></g><g s:type="inputExt" transform="translate(319,165)" s:width="30" s:height="20" id="cell_i_req"><text x="15" y="-4" class="nodelabel cell_i_req" s:attribute="ref">i_req</text><s:alias val="$_inputExt_"/><path d="M0,0 L0,20 L15,20 L30,10 L15,0 Z" fill="#8bcaff" class="cell_i_req"/><g s:x="30" s:y="10" s:pid="Y"/></g><g s:type="inputExt" transform="translate(569,327)" s:width="30" s:height="20" id="cell_i_replenish"><text x="15" y="-4" class="nodelabel cell_i_replenish" s:attribute="ref">i_replenish</text><s:alias val="$_inputExt_"/><path d="M0,0 L0,20 L15,20 L30,10 L15,0 Z" fill="#8bcaff" class="cell_i_replenish"/><g s:x="30" s:y="10" s:pid="Y"/></g><g s:type="outputExt" transform="translate(889.5,358.5)" s:width="30" s:height="20" id="cell_ow_grant"><text x="15" y="-4" class="nodelabel cell_ow_grant" s:attribute="ref">ow_grant</text><s:alias val="$_outputExt_"/><path d="M30,0 L30,20 L15,20 L0,10 L15,0 Z" fill="#169300" class="cell_ow_grant"/><g s:x="0" s:y="10" s:pid="A"/></g><g s:type="constant" transform="translate(459,144)" s:width="30" s:height="20" id="cell_00000000000000000000000000000100"><text x="15" y="-4" class="nodelabel cell_00000000000000000000000000000100" s:attribute="ref">0x4</text><s:alias val="$_constant_"/><rect width="30" height="20" fill="#745bff" class="cell_00000000000000000000000000000100"/><g s:x="31" s:y="10" s:pid="Y"/></g><g s:type="constant" transform="translate(22,56.5)" s:width="30" s:height="20" id="cell_0"><text x="15" y="-4" class="nodelabel cell_0" s:attribute="ref">0</text><s:alias val="$_constant_"/><rect width="30" height="20" fill="#745bff" class="cell_0"/><g s:x="31" s:y="10" s:pid="Y"/></g><g s:type="constant" transform="translate(22,121.5)" s:width="30" s:height="20" id="cell_1"><text x="15" y="-4" class="nodelabel cell_1" s:attribute="ref">1</text><s:alias val="$_constant_"/><rect width="30" height="20" fill="#745bff" class="cell_1"/><g s:x="31" s:y="10" s:pid="Y"/></g><g s:type="join" transform="translate(176,246.5)" s:width="5" s:height="40" id="cell_$join$,88,89,90,91,"><rect width="5" height="80" class="splitjoinBody" s:generic="body"/><s:alias val="$_join_"/><g s:x="5" s:y="20" s:pid="out"/><g transform="translate(-1,10)" s:x="-1" s:y="10" s:pid="in0"><text x="-3" y="-4" class="inputPortLabel">0</text></g><g transform="translate(-1,30)" s:x="-1" s:y="10" s:pid="in0"><text x="-3" y="-4" class="inputPortLabel">1</text></g><g transform="translate(-1,50)" s:x="-1" s:y="10" s:pid="in0"><text x="-3" y="-4" class="inputPortLabel">2</text></g><g transform="translate(-1,70)" s:x="-1" s:y="10" s:pid="in0"><text x="-3" y="-4" class="inputPortLabel">3</text></g></g><g s:type="split" transform="translate(40,176.5)" s:width="5" s:height="40" id="cell_$split$,9,10,11,12,"><rect width="5" height="80" class="splitjoinBody" s:generic="body"/><s:alias val="$_split_"/><g s:x="-1" s:y="20" s:pid="in"/><g transform="translate(5,10)" s:x="5" s:y="10" s:pid="out0"><text x="5" y="-4">3</text></g><g transform="translate(5,30)" s:x="5" s:y="10" s:pid="out0"><text x="5" y="-4">2</text></g><g transform="translate(5,50)" s:x="5" s:y="10" s:pid="out0"><text x="5" y="-4">1</text></g><g transform="translate(5,70)" s:x="5" s:y="10" s:pid="out0"><text x="5" y="-4">0</text></g></g><g s:type="split" transform="translate(597.6666666666666,211.5)" s:width="5" s:height="40" id="cell_$split$,92,93,94,95,96,97,98,99,100,101,102,103,104,105,106,107,108,109,110,111,112,113,114,115,116,117,118,119,120,121,122,123,"><rect width="5" height="40" class="splitjoinBody" s:generic="body"/><s:alias val="$_split_"/><g s:x="-1" s:y="20" s:pid="in"/><g transform="translate(5,10)" s:x="5" s:y="10" s:pid="out0"><text x="5" y="-4">0:3</text></g><g transform="translate(5,30)" s:x="5" s:y="10" s:pid="out0"><text x="5" y="-4">4:7</text></g></g><line x1="349" x2="395" y1="175" y2="175" class="net_4,5,6,7 width_4" style="stroke-width: 2"/><line x1="395" x2="395" y1="175" y2="191" class="net_4,5,6,7 width_4" style="stroke-width: 2"/><circle cx="395" cy="175" r="3" style="fill:#000" class="net_4,5,6,7 width_4"/><line x1="395" x2="459.3333333333333" y1="191" y2="191" class="net_4,5,6,7 width_4" style="stroke-width: 2"/><line x1="349" x2="889.5" y1="175" y2="175" class="net_4,5,6,7 width_4" style="stroke-width: 2"/><line x1="350" x2="434" y1="240.5" y2="240.5" class="net_13,14,15,16 width_4" style="stroke-width: 2"/><line x1="434" x2="434" y1="240.5" y2="206" class="net_13,14,15,16 width_4" style="stroke-width: 2"/><line x1="434" x2="459.3333333333333" y1="206" y2="206" class="net_13,14,15,16 width_4" style="stroke-width: 2"/><line x1="920.5" x2="959.5" y1="82" y2="82" class="net_21,22,23,24,25,26,27,28,29,30,31,32,33,34,35,36,37,38,39,40,41,42,43,44,45,46,47,48,49,50,51,52 width_32" style="stroke-width: 2"/><line x1="959.5" x2="959.5" y1="82" y2="52" class="net_21,22,23,24,25,26,27,28,29,30,31,32,33,34,35,36,37,38,39,40,41,42,43,44,45,46,47,48,49,50,51,52 width_32" style="stroke-width: 2"/><line x1="959.5" x2="715" y1="52" y2="52" class="net_21,22,23,24,25,26,27,28,29,30,31,32,33,34,35,36,37,38,39,40,41,42,43,44,45,46,47,48,49,50,51,52 width_32" style="stroke-width: 2"/><line x1="715" x2="715" y1="52" y2="72" class="net_21,22,23,24,25,26,27,28,29,30,31,32,33,34,35,36,37,38,39,40,41,42,43,44,45,46,47,48,49,50,51,52 width_32" style="stroke-width: 2"/><line x1="715" x2="740" y1="72" y2="72" class="net_21,22,23,24,25,26,27,28,29,30,31,32,33,34,35,36,37,38,39,40,41,42,43,44,45,46,47,48,49,50,51,52 width_32" style="stroke-width: 2"/><line x1="490" x2="510" y1="154" y2="154" class="net_92,93,94,95,96,97,98,99,100,101,102,103,104,105,106,107,108,109,110,111,112,113,114,115,116,117,118,119,120,121,122,123 width_32" style="stroke-width: 2"/><line x1="510" x2="510" y1="154" y2="92" class="net_92,93,94,95,96,97,98,99,100,101,102,103,104,105,106,107,108,109,110,111,112,113,114,115,116,117,118,119,120,121,122,123 width_32" style="stroke-width: 2"/><circle cx="510" cy="154" r="3" style="fill:#000" class="net_92,93,94,95,96,97,98,99,100,101,102,103,104,105,106,107,108,109,110,111,112,113,114,115,116,117,118,119,120,121,122,123 width_32"/><line x1="510" x2="740" y1="92" y2="92" class="net_92,93,94,95,96,97,98,99,100,101,102,103,104,105,106,107,108,109,110,111,112,113,114,115,116,117,118,119,120,121,122,123 width_32" style="stroke-width: 2"/><line x1="490" x2="510" y1="154" y2="154" class="net_92,93,94,95,96,97,98,99,100,101,102,103,104,105,106,107,108,109,110,111,112,113,114,115,116,117,118,119,120,121,122,123 width_32" style="stroke-width: 2"/><line x1="510" x2="510" y1="154" y2="232" class="net_92,93,94,95,96,97,98,99,100,101,102,103,104,105,106,107,108,109,110,111,112,113,114,115,116,117,118,119,120,121,122,123 width_32" style="stroke-width: 2"/><line x1="510" x2="596.6666666666666" y1="232" y2="232" class="net_92,93,94,95,96,97,98,99,100,101,102,103,104,105,106,107,108,109,110,111,112,113,114,115,116,117,118,119,120,121,122,123 width_32" style="stroke-width: 2"/><line x1="247" x2="520" y1="32" y2="32" class="net_3 width_1" style="stroke-width: 1"/><line x1="520" x2="520" y1="32" y2="112" class="net_3 width_1" style="stroke-width: 1"/><line x1="520" x2="753" y1="112" y2="112" class="net_3 width_1" style="stroke-width: 1"/><circle cx="520" cy="32" r="2" style="fill:#000" class="net_3 width_1"/><line x1="753" x2="753" y1="112" y2="100" class="net_3 width_1" style="stroke-width: 1"/><line x1="247" x2="888.5" y1="32" y2="32" class="net_3 width_1" style="stroke-width: 1"/><line x1="247" x2="279" y1="32" y2="32" class="net_3 width_1" style="stroke-width: 1"/><line x1="279" x2="279" y1="32" y2="240.5" class="net_3 width_1" style="stroke-width: 1"/><circle cx="279" cy="32" r="2" style="fill:#000" class="net_3 width_1"/><line x1="279" x2="319" y1="240.5" y2="240.5" class="net_3 width_1" style="stroke-width: 1"/><line x1="489.3333333333333" x2="500" y1="198.5" y2="198.5" class="net_17,18,19,20 width_4" style="stroke-width: 2"/><line x1="500" x2="500" y1="198.5" y2="392" class="net_17,18,19,20 width_4" style="stroke-width: 2"/><circle cx="500" cy="198.5" r="3" style="fill:#000" class="net_17,18,19,20 width_4"/><line x1="500" x2="586" y1="392" y2="392" class="net_17,18,19,20 width_4" style="stroke-width: 2"/><line x1="489.3333333333333" x2="665" y1="198.5" y2="198.5" class="net_17,18,19,20 width_4" style="stroke-width: 2"/><line x1="665" x2="665" y1="198.5" y2="263" class="net_17,18,19,20 width_4" style="stroke-width: 2"/><line x1="665" x2="889.5" y1="263" y2="263" class="net_17,18,19,20 width_4" style="stroke-width: 2"/><line x1="599" x2="677" y1="337" y2="337" class="net_8 width_1" style="stroke-width: 1"/><line x1="614" x2="645" y1="392" y2="392" class="net_85 width_1" style="stroke-width: 1"/><line x1="645" x2="645" y1="392" y2="352" class="net_85 width_1" style="stroke-width: 1"/><line x1="645" x2="677" y1="352" y2="352" class="net_85 width_1" style="stroke-width: 1"/><line x1="247" x2="269" y1="123" y2="123" class="net_2 width_1" style="stroke-width: 1"/><line x1="269" x2="269" y1="123" y2="260.5" class="net_2 width_1" style="stroke-width: 1"/><circle cx="269" cy="123" r="2" style="fill:#000" class="net_2 width_1"/><line x1="269" x2="318" y1="260.5" y2="260.5" class="net_2 width_1" style="stroke-width: 1"/><line x1="247" x2="814.5" y1="123" y2="123" class="net_2 width_1" style="stroke-width: 1"/><line x1="814.5" x2="814.5" y1="123" y2="102" class="net_2 width_1" style="stroke-width: 1"/><line x1="814.5" x2="888.5" y1="102" y2="102" class="net_2 width_1" style="stroke-width: 1"/><line x1="182" x2="269" y1="287" y2="287" class="net_88,89,90,91 width_4" style="stroke-width: 2"/><line x1="269" x2="269" y1="287" y2="280.5" class="net_88,89,90,91 width_4" style="stroke-width: 2"/><line x1="269" x2="318" y1="280.5" y2="280.5" class="net_88,89,90,91 width_4" style="stroke-width: 2"/><line x1="765.5" x2="888.5" y1="82" y2="82" class="net_53,54,55,56,57,58,59,60,61,62,63,64,65,66,67,68,69,70,71,72,73,74,75,76,77,78,79,80,81,82,83,84 width_32" style="stroke-width: 2"/><line x1="53" x2="103" y1="66.5" y2="66.5" class="net_124 width_1" style="stroke-width: 1"/><line x1="103" x2="103" y1="66.5" y2="387" class="net_124 width_1" style="stroke-width: 1"/><circle cx="103" cy="66.5" r="2" style="fill:#000" class="net_124 width_1"/><line x1="103" x2="113" y1="387" y2="387" class="net_124 width_1" style="stroke-width: 1"/><line x1="53" x2="103" y1="66.5" y2="66.5" class="net_124 width_1" style="stroke-width: 1"/><line x1="103" x2="103" y1="66.5" y2="327" class="net_124 width_1" style="stroke-width: 1"/><circle cx="103" cy="327" r="2" style="fill:#000" class="net_124 width_1"/><line x1="103" x2="113" y1="327" y2="327" class="net_124 width_1" style="stroke-width: 1"/><line x1="53" x2="103" y1="66.5" y2="66.5" class="net_124 width_1" style="stroke-width: 1"/><line x1="103" x2="103" y1="66.5" y2="267" class="net_124 width_1" style="stroke-width: 1"/><circle cx="103" cy="267" r="2" style="fill:#000" class="net_124 width_1"/><line x1="103" x2="113" y1="267" y2="267" class="net_124 width_1" style="stroke-width: 1"/><line x1="53" x2="113" y1="66.5" y2="66.5" class="net_124 width_1" style="stroke-width: 1"/><line x1="53" x2="93" y1="131.5" y2="131.5" class="net_125 width_1" style="stroke-width: 1"/><line x1="93" x2="93" y1="131.5" y2="407" class="net_125 width_1" style="stroke-width: 1"/><circle cx="93" cy="131.5" r="2" style="fill:#000" class="net_125 width_1"/><line x1="93" x2="113" y1="407" y2="407" class="net_125 width_1" style="stroke-width: 1"/><line x1="53" x2="93" y1="131.5" y2="131.5" class="net_125 width_1" style="stroke-width: 1"/><line x1="93" x2="93" y1="131.5" y2="347" class="net_125 width_1" style="stroke-width: 1"/><circle cx="93" cy="347" r="2" style="fill:#000" class="net_125 width_1"/><line x1="93" x2="113" y1="347" y2="347" class="net_125 width_1" style="stroke-width: 1"/><line x1="53" x2="93" y1="131.5" y2="131.5" class="net_125 width_1" style="stroke-width: 1"/><line x1="93" x2="93" y1="131.5" y2="287" class="net_125 width_1" style="stroke-width: 1"/><circle cx="93" cy="287" r="2" style="fill:#000" class="net_125 width_1"/><line x1="93" x2="113" y1="287" y2="287" class="net_125 width_1" style="stroke-width: 1"/><line x1="53" x2="93" y1="131.5" y2="131.5" class="net_125 width_1" style="stroke-width: 1"/><line x1="93" x2="93" y1="131.5" y2="86.5" class="net_125 width_1" style="stroke-width: 1"/><line x1="93" x2="113" y1="86.5" y2="86.5" class="net_125 width_1" style="stroke-width: 1"/><line x1="46" x2="63" y1="187" y2="187" class="net_12 width_1" style="stroke-width: 1"/><line x1="63" x2="63" y1="187" y2="427" class="net_12 width_1" style="stroke-width: 1"/><line x1="63" x2="123" y1="427" y2="427" class="net_12 width_1" style="stroke-width: 1"/><line x1="123" x2="123" y1="427" y2="412" class="net_12 width_1" style="stroke-width: 1"/><line x1="46" x2="73" y1="207" y2="207" class="net_11 width_1" style="stroke-width: 1"/><line x1="73" x2="73" y1="207" y2="367" class="net_11 width_1" style="stroke-width: 1"/><line x1="73" x2="123" y1="367" y2="367" class="net_11 width_1" style="stroke-width: 1"/><line x1="123" x2="123" y1="367" y2="352" class="net_11 width_1" style="stroke-width: 1"/><line x1="46" x2="83" y1="227" y2="227" class="net_10 width_1" style="stroke-width: 1"/><line x1="83" x2="83" y1="227" y2="307" class="net_10 width_1" style="stroke-width: 1"/><line x1="83" x2="123" y1="307" y2="307" class="net_10 width_1" style="stroke-width: 1"/><line x1="123" x2="123" y1="307" y2="292" class="net_10 width_1" style="stroke-width: 1"/><line x1="46" x2="123" y1="247" y2="247" class="net_9 width_1" style="stroke-width: 1"/><line x1="123" x2="123" y1="247" y2="91.5" class="net_9 width_1" style="stroke-width: 1"/><line x1="603.6666666666666" x2="645" y1="222" y2="222" class="net_92,93,94,95 width_4" style="stroke-width: 2"/><line x1="645" x2="645" y1="222" y2="284" class="net_92,93,94,95 width_4" style="stroke-width: 2"/><circle cx="645" cy="284" r="3" style="fill:#000" class="net_92,93,94,95 width_4"/><line x1="645" x2="740" y1="284" y2="284" class="net_92,93,94,95 width_4" style="stroke-width: 2"/><line x1="603.6666666666666" x2="645" y1="222" y2="222" class="net_92,93,94,95 width_4" style="stroke-width: 2"/><line x1="645" x2="645" y1="222" y2="321" class="net_92,93,94,95 width_4" style="stroke-width: 2"/><line x1="645" x2="715" y1="321" y2="321" class="net_92,93,94,95 width_4" style="stroke-width: 2"/><line x1="715" x2="715" y1="321" y2="353.5" class="net_92,93,94,95 width_4" style="stroke-width: 2"/><line x1="715" x2="814.5" y1="353.5" y2="353.5" class="net_92,93,94,95 width_4" style="stroke-width: 2"/><line x1="814.5" x2="814.5" y1="353.5" y2="283" class="net_92,93,94,95 width_4" style="stroke-width: 2"/><line x1="814.5" x2="888.5" y1="283" y2="283" class="net_92,93,94,95 width_4" style="stroke-width: 2"/><line x1="603.6666666666666" x2="655" y1="242" y2="242" class="net_96,97,98,99 width_4" style="stroke-width: 2"/><line x1="655" x2="655" y1="242" y2="304" class="net_96,97,98,99 width_4" style="stroke-width: 2"/><circle cx="655" cy="242" r="3" style="fill:#000" class="net_96,97,98,99 width_4"/><line x1="655" x2="740" y1="304" y2="304" class="net_96,97,98,99 width_4" style="stroke-width: 2"/><line x1="603.6666666666666" x2="814.5" y1="242" y2="242" class="net_96,97,98,99 width_4" style="stroke-width: 2"/><line x1="814.5" x2="814.5" y1="242" y2="195" class="net_96,97,98,99 width_4" style="stroke-width: 2"/><line x1="814.5" x2="888.5" y1="195" y2="195" class="net_96,97,98,99 width_4" style="stroke-width: 2"/><line x1="705" x2="753" y1="344.5" y2="344.5" class="net_86 width_1" style="stroke-width: 1"/><line x1="753" x2="753" y1="344.5" y2="312" class="net_86 width_1" style="stroke-width: 1"/><line x1="765.5" x2="775.5" y1="294" y2="294" class="net_9,10,11,12 width_4" style="stroke-width: 2"/><line x1="775.5" x2="775.5" y1="294" y2="368.5" class="net_9,10,11,12 width_4" style="stroke-width: 2"/><circle cx="775.5" cy="368.5" r="3" style="fill:#000" class="net_9,10,11,12 width_4"/><line x1="775.5" x2="889.5" y1="368.5" y2="368.5" class="net_9,10,11,12 width_4" style="stroke-width: 2"/><line x1="765.5" x2="775.5" y1="294" y2="294" class="net_9,10,11,12 width_4" style="stroke-width: 2"/><line x1="775.5" x2="775.5" y1="294" y2="438" class="net_9,10,11,12 width_4" style="stroke-width: 2"/><line x1="775.5" x2="12" y1="438" y2="438" class="net_9,10,11,12 width_4" style="stroke-width: 2"/><line x1="12" x2="12" y1="438" y2="217" class="net_9,10,11,12 width_4" style="stroke-width: 2"/><line x1="12" x2="39" y1="217" y2="217" class="net_9,10,11,12 width_4" style="stroke-width: 2"/><line x1="133" x2="143" y1="76.5" y2="76.5" class="net_88 width_1" style="stroke-width: 1"/><line x1="143" x2="143" y1="76.5" y2="257" class="net_88 width_1" style="stroke-width: 1"/><line x1="143" x2="175" y1="257" y2="257" class="net_88 width_1" style="stroke-width: 1"/><line x1="133" x2="175" y1="277" y2="277" class="net_89 width_1" style="stroke-width: 1"/><line x1="133" x2="143" y1="337" y2="337" class="net_90 width_1" style="stroke-width: 1"/><line x1="143" x2="143" y1="337" y2="297" class="net_90 width_1" style="stroke-width: 1"/><line x1="143" x2="175" y1="297" y2="297" class="net_90 width_1" style="stroke-width: 1"/><line x1="133" x2="153" y1="397" y2="397" class="net_91 width_1" style="stroke-width: 1"/><line x1="153" x2="153" y1="397" y2="317" class="net_91 width_1" style="stroke-width: 1"/><line x1="153" x2="175" y1="317" y2="317" class="net_91 width_1" style="stroke-width: 1"/><rect x="601" y="170" width="16" height="9" class="net_4,5,6,7 width_4 busLabel_4" style="fill: white; stroke: none"/><text x="600" y="178" class="net_4,5,6,7 width_4 busLabel_4">/4/</text><rect x="601" y="170" width="16" height="9" class="net_4,5,6,7 width_4 busLabel_4" style="fill: white; stroke: none"/><text x="600" y="178" class="net_4,5,6,7 width_4 busLabel_4">/4/</text><rect x="421" y="235.5" width="16" height="9" class="net_13,14,15,16 width_4 busLabel_4" style="fill: white; stroke: none"/><text x="420" y="243.5" class="net_13,14,15,16 width_4 busLabel_4">/4/</text><rect x="801.5" y="47" width="22" height="9" class="net_21,22,23,24,25,26,27,28,29,30,31,32,33,34,35,36,37,38,39,40,41,42,43,44,45,46,47,48,49,50,51,52 width_32 busLabel_32" style="fill: white; stroke: none"/><text x="800.5" y="55" class="net_21,22,23,24,25,26,27,28,29,30,31,32,33,34,35,36,37,38,39,40,41,42,43,44,45,46,47,48,49,50,51,52 width_32 busLabel_32">/32/</text><rect x="531" y="227" width="22" height="9" class="net_92,93,94,95,96,97,98,99,100,101,102,103,104,105,106,107,108,109,110,111,112,113,114,115,116,117,118,119,120,121,122,123 width_32 busLabel_32" style="fill: white; stroke: none"/><text x="530" y="235" class="net_92,93,94,95,96,97,98,99,100,101,102,103,104,105,106,107,108,109,110,111,112,113,114,115,116,117,118,119,120,121,122,123 width_32 busLabel_32">/32/</text><rect x="531" y="227" width="22" height="9" class="net_92,93,94,95,96,97,98,99,100,101,102,103,104,105,106,107,108,109,110,111,112,113,114,115,116,117,118,119,120,121,122,123 width_32 busLabel_32" style="fill: white; stroke: none"/><text x="530" y="235" class="net_92,93,94,95,96,97,98,99,100,101,102,103,104,105,106,107,108,109,110,111,112,113,114,115,116,117,118,119,120,121,122,123 width_32 busLabel_32">/32/</text><rect x="689" y="258" width="16" height="9" class="net_17,18,19,20 width_4 busLabel_4" style="fill: white; stroke: none"/><text x="688" y="266" class="net_17,18,19,20 width_4 busLabel_4">/4/</text><rect x="689" y="258" width="16" height="9" class="net_17,18,19,20 width_4 busLabel_4" style="fill: white; stroke: none"/><text x="688" y="266" class="net_17,18,19,20 width_4 busLabel_4">/4/</text><rect x="237" y="282" width="16" height="9" class="net_88,89,90,91 width_4 busLabel_4" style="fill: white; stroke: none"/><text x="236" y="290" class="net_88,89,90,91 width_4 busLabel_4">/4/</text><rect x="801.5" y="77" width="22" height="9" class="net_53,54,55,56,57,58,59,60,61,62,63,64,65,66,67,68,69,70,71,72,73,74,75,76,77,78,79,80,81,82,83,84 width_32 busLabel_32" style="fill: white; stroke: none"/><text x="800.5" y="85" class="net_53,54,55,56,57,58,59,60,61,62,63,64,65,66,67,68,69,70,71,72,73,74,75,76,77,78,79,80,81,82,83,84 width_32 busLabel_32">/32/</text><rect x="751.75" y="348.5" width="16" height="9" class="net_92,93,94,95 width_4 busLabel_4" style="fill: white; stroke: none"/><text x="750.75" y="356.5" class="net_92,93,94,95 width_4 busLabel_4">/4/</text><rect x="751.75" y="348.5" width="16" height="9" class="net_92,93,94,95 width_4 busLabel_4" style="fill: white; stroke: none"/><text x="750.75" y="356.5" class="net_92,93,94,95 width_4 busLabel_4">/4/</text><rect x="751.75" y="237" width="16" height="9" class="net_96,97,98,99 width_4 busLabel_4" style="fill: white; stroke: none"/><text x="750.75" y="245" class="net_96,97,98,99 width_4 busLabel_4">/4/</text><rect x="751.75" y="237" width="16" height="9" class="net_96,97,98,99 width_4 busLabel_4" style="fill: white; stroke: none"/><text x="750.75" y="245" class="net_96,97,98,99 width_4 busLabel_4">/4/</text><rect x="421" y="433" width="16" height="9" class="net_9,10,11,12 width_4 busLabel_4" style="fill: white; stroke: none"/><text x="420" y="441" class="net_9,10,11,12 width_4 busLabel_4">/4/</text><rect x="421" y="433" width="16" height="9" class="net_9,10,11,12 width_4 busLabel_4" style="fill: white; stroke: none"/><text x="420" y="441" class="net_9,10,11,12 width_4 busLabel_4">/4/</text></svg>