<svg xmlns="http://www.w3.org/2000/svg" xmlns:xlink="http://www.w3.org/1999/xlink" xmlns:s="https://github.com/nturley/netlistsvg" width="282" height="204.5">
  
<rect width="100%" height="100%" fill="white"/>
  
<style>svg {
  stroke:#000;
  fill:none;
}
text {
  fill:#000;
  stroke:none;
  font-size:10px;
  font-weight: bold;
  font-family: "Courier New", monospace;
}
line {
    stroke-linecap: round;
}
.nodelabel {
  text-anchor: middle;
}
.inputPortLabel {
  text-anchor: end;
}
.splitjoinBody {
  fill:#000;
}</style><g s:type="generic" transform="translate(138,87)" s:width="30" s:height="40" id="cell_rd_ptr_gray_cross_inst"><text x="15" y="-4" class="nodelabel cell_rd_ptr_gray_cross_inst" s:attribute="ref">glitch_free_n_dff_arn</text><rect width="30" height="80" s:generic="body" fill="#ffae46" rx="0" class="cell_rd_ptr_gray_cross_inst"/><g transform="translate(0,10)" s:x="0" s:y="10" s:pid="in0" id="port_rd_ptr_gray_cross_inst~i_clk"><text x="-3" y="-4" class="inputPortLabel cell_rd_ptr_gray_cross_inst">i_clk</text></g><g transform="translate(0,30)" s:x="0" s:y="10" s:pid="in0" id="port_rd_ptr_gray_cross_inst~i_d"><text x="-3" y="-4" class="inputPortLabel cell_rd_ptr_gray_cross_inst">i_d</text></g><g transform="translate(0,50)" s:x="0" s:y="10" s:pid="in0" id="port_rd_ptr_gray_cross_inst~i_rst_n"><text x="-3" y="-4" class="inputPortLabel cell_rd_ptr_gray_cross_inst">i_rst_n</text></g><g transform="translate(0,70)" s:x="0" s:y="10" s:pid="in0" id="port_rd_ptr_gray_cross_inst~o_q"><text x="-3" y="-4" class="inputPortLabel cell_rd_ptr_gray_cross_inst">o_q</text></g></g><g s:type="inputExt" transform="translate(12,42.5)" s:width="30" s:height="20" id="cell_i_clk"><text x="15" y="-4" class="nodelabel cell_i_clk" s:attribute="ref">i_clk</text><s:alias val="$_inputExt_"/><path d="M0,0 L0,20 L15,20 L30,10 L15,0 Z" fill="#8bcaff" class="cell_i_clk"/><g s:x="30" s:y="10" s:pid="Y"/></g><g s:type="inputExt" transform="translate(12,172.5)" s:width="30" s:height="20" id="cell_i_rst_n"><text x="15" y="-4" class="nodelabel cell_i_rst_n" s:attribute="ref">i_rst_n</text><s:alias val="$_inputExt_"/><path d="M0,0 L0,20 L15,20 L30,10 L15,0 Z" fill="#8bcaff" class="cell_i_rst_n"/><g s:x="30" s:y="10" s:pid="Y"/></g><g s:type="outputExt" transform="translate(138,22)" s:width="30" s:height="20" id="cell_o_sync_rst_n"><text x="15" y="-4" class="nodelabel cell_o_sync_rst_n" s:attribute="ref">o_sync_rst_n</text><s:alias val="$_outputExt_"/><path d="M30,0 L30,20 L15,20 L0,10 L15,0 Z" fill="#169300" class="cell_o_sync_rst_n"/><g s:x="0" s:y="10" s:pid="A"/></g><g s:type="constant" transform="translate(12,107.5)" s:width="30" s:height="20" id="cell_1"><text x="15" y="-4" class="nodelabel cell_1" s:attribute="ref">1</text><s:alias val="$_constant_"/><rect width="30" height="20" fill="#745bff" class="cell_1"/><g s:x="31" s:y="10" s:pid="Y"/></g><line x1="42" x2="84" y1="52.5" y2="52.5" class="net_2 width_1" style="stroke-width: 1"/><line x1="84" x2="84" y1="52.5" y2="97.5" class="net_2 width_1" style="stroke-width: 1"/><line x1="84" x2="138" y1="97.5" y2="97.5" class="net_2 width_1" style="stroke-width: 1"/><line x1="43" x2="137" y1="117.5" y2="117.5" class="net_4 width_1" style="stroke-width: 1"/><line x1="43" x2="74" y1="117.5" y2="117.5" class="net_4 width_1" style="stroke-width: 1"/><line x1="74" x2="74" y1="117.5" y2="157.5" class="net_4 width_1" style="stroke-width: 1"/><circle cx="74" cy="117.5" r="2" style="fill:#000" class="net_4 width_1"/><line x1="74" x2="137" y1="157.5" y2="157.5" class="net_4 width_1" style="stroke-width: 1"/><line x1="43" x2="74" y1="117.5" y2="117.5" class="net_4 width_1" style="stroke-width: 1"/><line x1="74" x2="74" y1="117.5" y2="32" class="net_4 width_1" style="stroke-width: 1"/><line x1="74" x2="138" y1="32" y2="32" class="net_4 width_1" style="stroke-width: 1"/><line x1="42" x2="64" y1="182.5" y2="182.5" class="net_3 width_1" style="stroke-width: 1"/><line x1="64" x2="64" y1="182.5" y2="137.5" class="net_3 width_1" style="stroke-width: 1"/><line x1="64" x2="137" y1="137.5" y2="137.5" class="net_3 width_1" style="stroke-width: 1"/></svg>