<?xml version="1.0" encoding="UTF-8" standalone="no"?>
<!DOCTYPE svg PUBLIC "-//W3C//DTD SVG 1.1//EN"
 "http://www.w3.org/Graphics/SVG/1.1/DTD/svg11.dtd">
<!-- Generated by graphviz version 2.43.0 (0)
 -->
<!-- Title: address_decode_flow Pages: 1 -->
<svg width="1140pt" height="1205pt"
 viewBox="0.00 0.00 1140.00 1204.75" xmlns="http://www.w3.org/2000/svg" xmlns:xlink="http://www.w3.org/1999/xlink">
<g id="graph0" class="graph" transform="scale(1 1) rotate(0) translate(4 1200.75)">
<title>address_decode_flow</title>
<polygon fill="white" stroke="transparent" points="-4,4 -4,-1200.75 1136,-1200.75 1136,4 -4,4"/>
<g id="clust1" class="cluster">
<title>cluster_slaves</title>
<polygon fill="#eedd82" stroke="black" points="8,-475.75 8,-721.75 1118,-721.75 1118,-475.75 8,-475.75"/>
<text text-anchor="middle" x="563" y="-706.55" font-family="Times,serif" font-size="14.00">Slave Selection (Parallel Decode)</text>
</g>
<g id="clust2" class="cluster">
<title>cluster_legend</title>
<polygon fill="white" stroke="black" points="760,-1105.75 760,-1180.75 1124,-1180.75 1124,-1105.75 760,-1105.75"/>
<text text-anchor="middle" x="942" y="-1165.55" font-family="Times,serif" font-size="14.00">Legend</text>
</g>
<!-- incoming -->
<g id="node1" class="node">
<title>incoming</title>
<ellipse fill="lightgreen" stroke="black" cx="242" cy="-1131.75" rx="153.38" ry="48.58"/>
<text text-anchor="middle" x="242" y="-1151.05" font-family="Times,serif" font-size="14.00">Incoming Transaction</text>
<text text-anchor="middle" x="242" y="-1120.05" font-family="Times,serif" font-size="14.00">PADDR = 0x10023456</text>
<text text-anchor="middle" x="242" y="-1105.05" font-family="Times,serif" font-size="14.00">BASE_ADDR = 0x10000000</text>
</g>
<!-- calc_offset -->
<g id="node2" class="node">
<title>calc_offset</title>
<path fill="lightyellow" stroke="black" d="M427,-996.75C427,-996.75 219,-996.75 219,-996.75 213,-996.75 207,-990.75 207,-984.75 207,-984.75 207,-924.75 207,-924.75 207,-918.75 213,-912.75 219,-912.75 219,-912.75 427,-912.75 427,-912.75 433,-912.75 439,-918.75 439,-924.75 439,-924.75 439,-984.75 439,-984.75 439,-990.75 433,-996.75 427,-996.75"/>
<text text-anchor="middle" x="323" y="-981.55" font-family="Times,serif" font-size="14.00">Calculate Offset</text>
<text text-anchor="middle" x="323" y="-950.55" font-family="Times,serif" font-size="14.00">offset = PADDR &#45; BASE_ADDR</text>
<text text-anchor="middle" x="323" y="-935.55" font-family="Times,serif" font-size="14.00">= 0x10023456 &#45; 0x10000000</text>
<text text-anchor="middle" x="323" y="-920.55" font-family="Times,serif" font-size="14.00">= 0x00023456</text>
</g>
<!-- incoming&#45;&gt;calc_offset -->
<g id="edge1" class="edge">
<title>incoming&#45;&gt;calc_offset</title>
<path fill="none" stroke="black" stroke-width="2" d="M263.92,-1083.39C275.01,-1059.43 288.48,-1030.33 299.75,-1005.98"/>
<polygon fill="black" stroke="black" stroke-width="2" points="302.93,-1007.44 303.96,-996.89 296.58,-1004.5 302.93,-1007.44"/>
<text text-anchor="middle" x="310" y="-1040.75" font-family="Times,serif" font-size="10.00">1. Receive</text>
</g>
<!-- extract_idx -->
<g id="node3" class="node">
<title>extract_idx</title>
<path fill="lightcyan" stroke="black" d="M574,-842.75C574,-842.75 404,-842.75 404,-842.75 398,-842.75 392,-836.75 392,-830.75 392,-830.75 392,-770.75 392,-770.75 392,-764.75 398,-758.75 404,-758.75 404,-758.75 574,-758.75 574,-758.75 580,-758.75 586,-764.75 586,-770.75 586,-770.75 586,-830.75 586,-830.75 586,-836.75 580,-842.75 574,-842.75"/>
<text text-anchor="middle" x="489" y="-827.55" font-family="Times,serif" font-size="14.00">Extract Slave Index</text>
<text text-anchor="middle" x="489" y="-796.55" font-family="Times,serif" font-size="14.00">slave_idx = offset[19:16]</text>
<text text-anchor="middle" x="489" y="-781.55" font-family="Times,serif" font-size="14.00">= 0x00023456 &gt;&gt; 16</text>
<text text-anchor="middle" x="489" y="-766.55" font-family="Times,serif" font-size="14.00">= 0x2</text>
</g>
<!-- calc_offset&#45;&gt;extract_idx -->
<g id="edge2" class="edge">
<title>calc_offset&#45;&gt;extract_idx</title>
<path fill="none" stroke="black" stroke-width="2" d="M367.92,-912.62C389.05,-893.27 414.38,-870.07 436.4,-849.91"/>
<polygon fill="black" stroke="black" stroke-width="2" points="439.03,-852.25 444.04,-842.92 434.3,-847.09 439.03,-852.25"/>
<text text-anchor="middle" x="450" y="-863.75" font-family="Times,serif" font-size="10.00">2. Calculate</text>
</g>
<!-- decode -->
<g id="node4" class="node">
<title>decode</title>
<path fill="lightblue" stroke="black" d="M477.48,-687.41C477.48,-687.41 369.52,-656.09 369.52,-656.09 363.76,-654.42 363.76,-651.08 369.52,-649.41 369.52,-649.41 477.48,-618.09 477.48,-618.09 483.24,-616.42 494.76,-616.42 500.52,-618.09 500.52,-618.09 608.48,-649.41 608.48,-649.41 614.24,-651.08 614.24,-654.42 608.48,-656.09 608.48,-656.09 500.52,-687.41 500.52,-687.41 494.76,-689.08 483.24,-689.08 477.48,-687.41"/>
<text text-anchor="middle" x="489" y="-656.55" font-family="Times,serif" font-size="14.00">Decode Logic</text>
<text text-anchor="middle" x="489" y="-641.55" font-family="Times,serif" font-size="14.00">(Combinational)</text>
</g>
<!-- extract_idx&#45;&gt;decode -->
<g id="edge3" class="edge">
<title>extract_idx&#45;&gt;decode</title>
<path fill="none" stroke="black" stroke-width="2" d="M489,-758.69C489,-740.76 489,-719.62 489,-701.04"/>
<polygon fill="black" stroke="black" stroke-width="2" points="492.5,-701.01 489,-691.01 485.5,-701.01 492.5,-701.01"/>
<text text-anchor="middle" x="513.5" y="-732.75" font-family="Times,serif" font-size="10.00">3. Extract</text>
</g>
<!-- s0 -->
<g id="node5" class="node">
<title>s0</title>
<path fill="white" stroke="black" d="M264,-567.75C264,-567.75 28,-567.75 28,-567.75 22,-567.75 16,-561.75 16,-555.75 16,-555.75 16,-495.75 16,-495.75 16,-489.75 22,-483.75 28,-483.75 28,-483.75 264,-483.75 264,-483.75 270,-483.75 276,-489.75 276,-495.75 276,-495.75 276,-555.75 276,-555.75 276,-561.75 270,-567.75 264,-567.75"/>
<text text-anchor="middle" x="146" y="-552.55" font-family="Times,serif" font-size="14.00">Slave 0</text>
<text text-anchor="middle" x="146" y="-521.55" font-family="Times,serif" font-size="14.00">Match: idx == 0</text>
<text text-anchor="middle" x="146" y="-506.55" font-family="Times,serif" font-size="14.00">Range: BASE+0x00000..0x0FFFF</text>
<text text-anchor="middle" x="146" y="-491.55" font-family="Times,serif" font-size="14.00">Result: NO MATCH</text>
</g>
<!-- decode&#45;&gt;s0 -->
<g id="edge4" class="edge">
<title>decode&#45;&gt;s0</title>
<path fill="none" stroke="black" stroke-dasharray="5,2" d="M432.36,-631.11C387.84,-614.88 324.21,-591.7 268.24,-571.3"/>
<polygon fill="black" stroke="black" points="269.2,-567.92 258.6,-567.79 266.8,-574.5 269.2,-567.92"/>
<text text-anchor="middle" x="361.5" y="-588.75" font-family="Times,serif" font-size="10.00">Compare</text>
</g>
<!-- s1 -->
<g id="node6" class="node">
<title>s1</title>
<path fill="white" stroke="black" d="M542,-567.75C542,-567.75 306,-567.75 306,-567.75 300,-567.75 294,-561.75 294,-555.75 294,-555.75 294,-495.75 294,-495.75 294,-489.75 300,-483.75 306,-483.75 306,-483.75 542,-483.75 542,-483.75 548,-483.75 554,-489.75 554,-495.75 554,-495.75 554,-555.75 554,-555.75 554,-561.75 548,-567.75 542,-567.75"/>
<text text-anchor="middle" x="424" y="-552.55" font-family="Times,serif" font-size="14.00">Slave 1</text>
<text text-anchor="middle" x="424" y="-521.55" font-family="Times,serif" font-size="14.00">Match: idx == 1</text>
<text text-anchor="middle" x="424" y="-506.55" font-family="Times,serif" font-size="14.00">Range: BASE+0x10000..0x1FFFF</text>
<text text-anchor="middle" x="424" y="-491.55" font-family="Times,serif" font-size="14.00">Result: NO MATCH</text>
</g>
<!-- decode&#45;&gt;s1 -->
<g id="edge5" class="edge">
<title>decode&#45;&gt;s1</title>
<path fill="none" stroke="black" stroke-dasharray="5,2" d="M472.26,-619.56C465.53,-606.62 457.62,-591.4 450.17,-577.07"/>
<polygon fill="black" stroke="black" points="453.07,-575.07 445.35,-567.81 446.86,-578.3 453.07,-575.07"/>
<text text-anchor="middle" x="483.5" y="-588.75" font-family="Times,serif" font-size="10.00">Compare</text>
</g>
<!-- s2 -->
<g id="node7" class="node">
<title>s2</title>
<path fill="lightgreen" stroke="black" d="M820,-567.75C820,-567.75 584,-567.75 584,-567.75 578,-567.75 572,-561.75 572,-555.75 572,-555.75 572,-495.75 572,-495.75 572,-489.75 578,-483.75 584,-483.75 584,-483.75 820,-483.75 820,-483.75 826,-483.75 832,-489.75 832,-495.75 832,-495.75 832,-555.75 832,-555.75 832,-561.75 826,-567.75 820,-567.75"/>
<text text-anchor="middle" x="702" y="-552.55" font-family="Times,serif" font-size="14.00">Slave 2</text>
<text text-anchor="middle" x="702" y="-521.55" font-family="Times,serif" font-size="14.00">Match: idx == 2</text>
<text text-anchor="middle" x="702" y="-506.55" font-family="Times,serif" font-size="14.00">Range: BASE+0x20000..0x2FFFF</text>
<text text-anchor="middle" x="702" y="-491.55" font-family="Times,serif" font-size="14.00">Result: MATCH ✓</text>
</g>
<!-- decode&#45;&gt;s2 -->
<g id="edge6" class="edge">
<title>decode&#45;&gt;s2</title>
<path fill="none" stroke="green" stroke-dasharray="5,2" d="M531.34,-626.9C557.62,-611.48 592.21,-591.18 623.38,-572.89"/>
<polygon fill="green" stroke="green" points="625.22,-575.87 632.07,-567.79 621.67,-569.83 625.22,-575.87"/>
<text text-anchor="middle" x="618.5" y="-588.75" font-family="Times,serif" font-size="10.00">Compare</text>
</g>
<!-- s3 -->
<g id="node8" class="node">
<title>s3</title>
<path fill="white" stroke="black" d="M1098,-567.75C1098,-567.75 862,-567.75 862,-567.75 856,-567.75 850,-561.75 850,-555.75 850,-555.75 850,-495.75 850,-495.75 850,-489.75 856,-483.75 862,-483.75 862,-483.75 1098,-483.75 1098,-483.75 1104,-483.75 1110,-489.75 1110,-495.75 1110,-495.75 1110,-555.75 1110,-555.75 1110,-561.75 1104,-567.75 1098,-567.75"/>
<text text-anchor="middle" x="980" y="-552.55" font-family="Times,serif" font-size="14.00">Slave 3</text>
<text text-anchor="middle" x="980" y="-521.55" font-family="Times,serif" font-size="14.00">Match: idx == 3</text>
<text text-anchor="middle" x="980" y="-506.55" font-family="Times,serif" font-size="14.00">Range: BASE+0x30000..0x3FFFF</text>
<text text-anchor="middle" x="980" y="-491.55" font-family="Times,serif" font-size="14.00">Result: NO MATCH</text>
</g>
<!-- decode&#45;&gt;s3 -->
<g id="edge7" class="edge">
<title>decode&#45;&gt;s3</title>
<path fill="none" stroke="black" stroke-dasharray="5,2" d="M561.41,-635.64C630.54,-619.99 737.82,-595.02 839.97,-567.99"/>
<polygon fill="black" stroke="black" points="841.07,-571.32 849.84,-565.37 839.27,-564.55 841.07,-571.32"/>
<text text-anchor="middle" x="787.5" y="-588.75" font-family="Times,serif" font-size="10.00">Compare</text>
</g>
<!-- route_arb -->
<g id="node9" class="node">
<title>route_arb</title>
<path fill="lightcoral" stroke="black" d="M817.93,-388.44C817.93,-388.44 773.34,-428.56 773.34,-428.56 768.88,-432.58 758.42,-436.59 752.42,-436.59 752.42,-436.59 651.58,-436.59 651.58,-436.59 645.58,-436.59 635.12,-432.58 630.66,-428.56 630.66,-428.56 586.07,-388.44 586.07,-388.44 581.61,-384.43 581.61,-376.4 586.07,-372.38 586.07,-372.38 630.66,-332.26 630.66,-332.26 635.12,-328.25 645.58,-324.23 651.58,-324.23 651.58,-324.23 752.42,-324.23 752.42,-324.23 758.42,-324.23 768.88,-328.25 773.34,-332.26 773.34,-332.26 817.93,-372.38 817.93,-372.38 822.39,-376.4 822.39,-384.43 817.93,-388.44"/>
<text text-anchor="middle" x="702" y="-399.71" font-family="Times,serif" font-size="14.00">Route to Arbiter[2]</text>
<text text-anchor="middle" x="702" y="-368.71" font-family="Times,serif" font-size="14.00">Request forwarded</text>
<text text-anchor="middle" x="702" y="-353.71" font-family="Times,serif" font-size="14.00">to Slave 2&#39;s arbiter</text>
</g>
<!-- s2&#45;&gt;route_arb -->
<g id="edge8" class="edge">
<title>s2&#45;&gt;route_arb</title>
<path fill="none" stroke="green" stroke-width="2" d="M702,-483.67C702,-472.12 702,-459.26 702,-446.67"/>
<polygon fill="green" stroke="green" stroke-width="2" points="705.5,-446.65 702,-436.65 698.5,-446.65 705.5,-446.65"/>
<text text-anchor="middle" x="723.5" y="-457.75" font-family="Times,serif" font-size="10.00">4. Route</text>
</g>
<!-- arb_decision -->
<g id="node10" class="node">
<title>arb_decision</title>
<path fill="lightcyan" stroke="black" d="M796.5,-277.07C796.5,-277.07 607.5,-277.07 607.5,-277.07 601.5,-277.07 595.5,-271.07 595.5,-265.07 595.5,-265.07 595.5,-220.07 595.5,-220.07 595.5,-214.07 601.5,-208.07 607.5,-208.07 607.5,-208.07 796.5,-208.07 796.5,-208.07 802.5,-208.07 808.5,-214.07 808.5,-220.07 808.5,-220.07 808.5,-265.07 808.5,-265.07 808.5,-271.07 802.5,-277.07 796.5,-277.07"/>
<text text-anchor="middle" x="702" y="-261.87" font-family="Times,serif" font-size="14.00">Arbitration Decision</text>
<text text-anchor="middle" x="702" y="-230.87" font-family="Times,serif" font-size="14.00">Grant to requesting master</text>
<text text-anchor="middle" x="702" y="-215.87" font-family="Times,serif" font-size="14.00">(if no conflict)</text>
</g>
<!-- route_arb&#45;&gt;arb_decision -->
<g id="edge9" class="edge">
<title>route_arb&#45;&gt;arb_decision</title>
<path fill="none" stroke="black" d="M702,-324.16C702,-312.01 702,-299.31 702,-287.67"/>
<polygon fill="black" stroke="black" points="705.5,-287.33 702,-277.33 698.5,-287.33 705.5,-287.33"/>
<text text-anchor="middle" x="731" y="-298.07" font-family="Times,serif" font-size="10.00">5. Arbitrate</text>
</g>
<!-- route_slave -->
<g id="node11" class="node">
<title>route_slave</title>
<path fill="pink" stroke="black" d="M838.46,-60.82C838.46,-60.82 838.46,-100.25 838.46,-100.25 838.46,-106.25 833.23,-115.19 828,-118.13 828,-118.13 768.99,-151.24 768.99,-151.24 763.76,-154.17 752.53,-157.11 746.53,-157.11 746.53,-157.11 657.47,-157.11 657.47,-157.11 651.47,-157.11 640.24,-154.17 635.01,-151.24 635.01,-151.24 576,-118.13 576,-118.13 570.77,-115.19 565.54,-106.25 565.54,-100.25 565.54,-100.25 565.54,-60.82 565.54,-60.82 565.54,-54.82 570.77,-45.88 576,-42.95 576,-42.95 635.01,-9.84 635.01,-9.84 640.24,-6.9 651.47,-3.97 657.47,-3.97 657.47,-3.97 746.53,-3.97 746.53,-3.97 752.53,-3.97 763.76,-6.9 768.99,-9.84 768.99,-9.84 828,-42.95 828,-42.95 833.23,-45.88 838.46,-54.82 838.46,-60.82"/>
<path fill="none" stroke="black" d="M842.47,-58.48C842.47,-58.48 842.47,-102.6 842.47,-102.6 842.47,-108.6 837.24,-117.53 832.01,-120.47 832.01,-120.47 770.04,-155.24 770.04,-155.24 764.81,-158.17 753.57,-161.11 747.57,-161.11 747.57,-161.11 656.43,-161.11 656.43,-161.11 650.43,-161.11 639.19,-158.17 633.96,-155.24 633.96,-155.24 571.99,-120.47 571.99,-120.47 566.76,-117.53 561.53,-108.6 561.53,-102.6 561.53,-102.6 561.53,-58.48 561.53,-58.48 561.53,-52.48 566.76,-43.54 571.99,-40.61 571.99,-40.61 633.96,-5.84 633.96,-5.84 639.19,-2.9 650.43,0.04 656.43,0.04 656.43,0.04 747.57,0.04 747.57,0.04 753.57,0.04 764.81,-2.9 770.04,-5.84 770.04,-5.84 832.01,-40.61 832.01,-40.61 837.24,-43.54 842.47,-52.48 842.47,-58.48"/>
<text text-anchor="middle" x="702" y="-115.34" font-family="Times,serif" font-size="14.00">Route to Slave 2</text>
<text text-anchor="middle" x="702" y="-84.34" font-family="Times,serif" font-size="14.00">via apb_master[2]</text>
<text text-anchor="middle" x="702" y="-53.34" font-family="Times,serif" font-size="14.00">PSEL[2] = 1</text>
<text text-anchor="middle" x="702" y="-38.34" font-family="Times,serif" font-size="14.00">PADDR = 0x10023456</text>
</g>
<!-- arb_decision&#45;&gt;route_slave -->
<g id="edge10" class="edge">
<title>arb_decision&#45;&gt;route_slave</title>
<path fill="none" stroke="blue" stroke-width="2" d="M702,-208.02C702,-197.07 702,-184.33 702,-171.25"/>
<polygon fill="blue" stroke="blue" stroke-width="2" points="705.5,-171.2 702,-161.2 698.5,-171.2 705.5,-171.2"/>
<text text-anchor="middle" x="729.5" y="-182.07" font-family="Times,serif" font-size="10.00">6. Forward</text>
</g>
<!-- addr_map -->
<g id="node12" class="node">
<title>addr_map</title>
<polygon fill="lightyellow" stroke="black" points="734.5,-1196.75 413.5,-1196.75 413.5,-1066.75 740.5,-1066.75 740.5,-1190.75 734.5,-1196.75"/>
<polyline fill="none" stroke="black" points="734.5,-1196.75 734.5,-1190.75 "/>
<polyline fill="none" stroke="black" points="740.5,-1190.75 734.5,-1190.75 "/>
<text text-anchor="middle" x="577" y="-1181.55" font-family="Times,serif" font-size="14.00">Address Map (4 Slaves)</text>
<text text-anchor="middle" x="577" y="-1150.55" font-family="Times,serif" font-size="14.00">Slave 0: 0x10000000 &#45; 0x1000FFFF (64KB)</text>
<text text-anchor="middle" x="577" y="-1135.55" font-family="Times,serif" font-size="14.00">Slave 1: 0x10010000 &#45; 0x1001FFFF (64KB)</text>
<text text-anchor="middle" x="577" y="-1120.55" font-family="Times,serif" font-size="14.00">Slave 2: 0x10020000 &#45; 0x1002FFFF (64KB)</text>
<text text-anchor="middle" x="577" y="-1105.55" font-family="Times,serif" font-size="14.00">Slave 3: 0x10030000 &#45; 0x1003FFFF (64KB)</text>
<text text-anchor="middle" x="577" y="-1074.55" font-family="Times,serif" font-size="14.00">Total: 256KB (4 × 64KB)</text>
</g>
<!-- addr_map&#45;&gt;calc_offset -->
<g id="edge11" class="edge">
<title>addr_map&#45;&gt;calc_offset</title>
<path fill="none" stroke="black" stroke-dasharray="1,5" d="M483.86,-1066.58C453.06,-1045.36 419.4,-1022.17 390.86,-1002.51"/>
<polygon fill="black" stroke="black" points="392.79,-999.58 382.57,-996.79 388.82,-1005.35 392.79,-999.58"/>
</g>
<!-- formulas -->
<g id="node13" class="node">
<title>formulas</title>
<polygon fill="lightgray" stroke="black" points="719,-1019.75 457,-1019.75 457,-889.75 725,-889.75 725,-1013.75 719,-1019.75"/>
<polyline fill="none" stroke="black" points="719,-1019.75 719,-1013.75 "/>
<polyline fill="none" stroke="black" points="725,-1013.75 719,-1013.75 "/>
<text text-anchor="middle" x="591" y="-1004.55" font-family="Times,serif" font-size="14.00">Key Formulas</text>
<text text-anchor="middle" x="591" y="-973.55" font-family="Times,serif" font-size="14.00">offset = PADDR &#45; BASE_ADDR</text>
<text text-anchor="middle" x="591" y="-958.55" font-family="Times,serif" font-size="14.00">slave_idx = offset[19:16]</text>
<text text-anchor="middle" x="591" y="-943.55" font-family="Times,serif" font-size="14.00">= offset &gt;&gt; 16</text>
<text text-anchor="middle" x="591" y="-912.55" font-family="Times,serif" font-size="14.00">Each slave: 64KB = 0x10000 bytes</text>
<text text-anchor="middle" x="591" y="-897.55" font-family="Times,serif" font-size="14.00">Max slaves: 16 (idx 0x0..0xF)</text>
</g>
<!-- formulas&#45;&gt;extract_idx -->
<g id="edge12" class="edge">
<title>formulas&#45;&gt;extract_idx</title>
<path fill="none" stroke="black" stroke-dasharray="1,5" d="M548.04,-889.73C539.54,-877.06 530.73,-863.94 522.6,-851.82"/>
<polygon fill="black" stroke="black" points="525.29,-849.55 516.81,-843.19 519.48,-853.45 525.29,-849.55"/>
</g>
<!-- leg_data -->
<g id="node14" class="node">
<title>leg_data</title>
<polygon fill="none" stroke="black" stroke-width="2" points="1115.5,-1149.75 1028.5,-1149.75 1028.5,-1113.75 1115.5,-1113.75 1115.5,-1149.75"/>
<text text-anchor="middle" x="1072" y="-1128.05" font-family="Times,serif" font-size="14.00">Data Path</text>
</g>
<!-- leg_match -->
<g id="node15" class="node">
<title>leg_match</title>
<polygon fill="none" stroke="green" stroke-width="2" points="1010,-1149.75 912,-1149.75 912,-1113.75 1010,-1113.75 1010,-1149.75"/>
<text text-anchor="middle" x="961" y="-1128.05" font-family="Times,serif" font-size="14.00">Match Path</text>
</g>
<!-- leg_compare -->
<g id="node16" class="node">
<title>leg_compare</title>
<polygon fill="none" stroke="black" stroke-dasharray="5,2" points="893.5,-1149.75 768.5,-1149.75 768.5,-1113.75 893.5,-1113.75 893.5,-1149.75"/>
<text text-anchor="middle" x="831" y="-1128.05" font-family="Times,serif" font-size="14.00">Compare Paths</text>
</g>
</g>
</svg>
