<?xml version="1.0" encoding="UTF-8" standalone="no"?>
<!DOCTYPE svg PUBLIC "-//W3C//DTD SVG 1.1//EN"
 "http://www.w3.org/Graphics/SVG/1.1/DTD/svg11.dtd">
<!-- Generated by graphviz version 2.43.0 (0)
 -->
<!-- Title: apb_xbar_architecture Pages: 1 -->
<svg width="1286pt" height="967pt"
 viewBox="0.00 0.00 1285.81 966.62" xmlns="http://www.w3.org/2000/svg" xmlns:xlink="http://www.w3.org/1999/xlink">
<g id="graph0" class="graph" transform="scale(1 1) rotate(0) translate(4 962.62)">
<title>apb_xbar_architecture</title>
<polygon fill="white" stroke="transparent" points="-4,4 -4,-962.62 1281.81,-962.62 1281.81,4 -4,4"/>
<g id="clust1" class="cluster">
<title>cluster_master_side</title>
<polygon fill="lightyellow" stroke="black" points="276,-694.81 276,-787.81 621,-787.81 621,-694.81 276,-694.81"/>
<text text-anchor="middle" x="448.5" y="-772.61" font-family="Times,serif" font-size="14.00">Master&#45;Side Protocol Conversion</text>
</g>
<g id="clust2" class="cluster">
<title>cluster_crossbar</title>
<polygon fill="#eedd82" stroke="black" points="8,-259.13 8,-624.81 774,-624.81 774,-259.13 8,-259.13"/>
<text text-anchor="middle" x="391" y="-609.61" font-family="Times,serif" font-size="14.00">Crossbar Core Logic</text>
</g>
<g id="clust3" class="cluster">
<title>cluster_arbiters</title>
<polygon fill="none" stroke="black" stroke-dasharray="5,2" points="16,-267.13 16,-418.81 766,-418.81 766,-267.13 16,-267.13"/>
<text text-anchor="middle" x="391" y="-403.61" font-family="Times,serif" font-size="14.00">Per&#45;Slave Arbiters</text>
</g>
<g id="clust4" class="cluster">
<title>cluster_slave_side</title>
<polygon fill="lightpink" stroke="black" points="430,-139.13 430,-232.13 1121,-232.13 1121,-139.13 430,-139.13"/>
<text text-anchor="middle" x="775.5" y="-216.93" font-family="Times,serif" font-size="14.00">Slave&#45;Side Protocol Conversion</text>
</g>
<g id="clust5" class="cluster">
<title>cluster_legend</title>
<polygon fill="white" stroke="black" points="666,-875.62 666,-950.62 1108,-950.62 1108,-875.62 666,-875.62"/>
<text text-anchor="middle" x="887" y="-935.42" font-family="Times,serif" font-size="14.00">Legend</text>
</g>
<!-- master0 -->
<g id="node1" class="node">
<title>master0</title>
<path fill="lightgreen" stroke="black" d="M434.57,-891.81C434.57,-891.81 434.57,-911.42 434.57,-911.42 434.57,-917.42 429.42,-926.48 424.26,-929.55 424.26,-929.55 393.01,-948.12 393.01,-948.12 387.85,-951.19 376.69,-954.25 370.69,-954.25 370.69,-954.25 321.31,-954.25 321.31,-954.25 315.31,-954.25 304.15,-951.19 298.99,-948.12 298.99,-948.12 267.74,-929.55 267.74,-929.55 262.58,-926.48 257.43,-917.42 257.43,-911.42 257.43,-911.42 257.43,-891.81 257.43,-891.81 257.43,-885.81 262.58,-876.75 267.74,-873.68 267.74,-873.68 298.99,-855.11 298.99,-855.11 304.15,-852.05 315.31,-848.98 321.31,-848.98 321.31,-848.98 370.69,-848.98 370.69,-848.98 376.69,-848.98 387.85,-852.05 393.01,-855.11 393.01,-855.11 424.26,-873.68 424.26,-873.68 429.42,-876.75 434.57,-885.81 434.57,-891.81"/>
<path fill="none" stroke="black" d="M438.57,-889.55C438.57,-889.55 438.57,-913.68 438.57,-913.68 438.57,-919.68 433.41,-928.75 428.25,-931.82 428.25,-931.82 394.1,-952.11 394.1,-952.11 388.94,-955.17 377.79,-958.24 371.79,-958.24 371.79,-958.24 320.21,-958.24 320.21,-958.24 314.21,-958.24 303.06,-955.17 297.9,-952.11 297.9,-952.11 263.75,-931.82 263.75,-931.82 258.59,-928.75 253.43,-919.68 253.43,-913.68 253.43,-913.68 253.43,-889.55 253.43,-889.55 253.43,-883.55 258.59,-874.48 263.75,-871.42 263.75,-871.42 297.9,-851.12 297.9,-851.12 303.06,-848.06 314.21,-844.99 320.21,-844.99 320.21,-844.99 371.79,-844.99 371.79,-844.99 377.79,-844.99 388.94,-848.06 394.1,-851.12 394.1,-851.12 428.25,-871.42 428.25,-871.42 433.41,-874.48 438.57,-883.55 438.57,-889.55"/>
<text text-anchor="middle" x="346" y="-920.92" font-family="Times,serif" font-size="14.00">APB Master 0</text>
<text text-anchor="middle" x="346" y="-905.92" font-family="Times,serif" font-size="14.00">(CPU)</text>
<text text-anchor="middle" x="346" y="-874.92" font-family="Times,serif" font-size="14.00">PCLK domain</text>
</g>
<!-- apb_slave0 -->
<g id="node3" class="node">
<title>apb_slave0</title>
<path fill="lightcyan" stroke="black" d="M427.5,-756.81C427.5,-756.81 296.5,-756.81 296.5,-756.81 290.5,-756.81 284.5,-750.81 284.5,-744.81 284.5,-744.81 284.5,-714.81 284.5,-714.81 284.5,-708.81 290.5,-702.81 296.5,-702.81 296.5,-702.81 427.5,-702.81 427.5,-702.81 433.5,-702.81 439.5,-708.81 439.5,-714.81 439.5,-714.81 439.5,-744.81 439.5,-744.81 439.5,-750.81 433.5,-756.81 427.5,-756.81"/>
<text text-anchor="middle" x="362" y="-741.61" font-family="Times,serif" font-size="14.00">apb_slave[0]</text>
<text text-anchor="middle" x="362" y="-710.61" font-family="Times,serif" font-size="14.00">Protocol → cmd/rsp</text>
</g>
<!-- master0&#45;&gt;apb_slave0 -->
<g id="edge1" class="edge">
<title>master0&#45;&gt;apb_slave0</title>
<path fill="none" stroke="black" stroke-width="2" d="M351.28,-844.54C353.69,-819.02 356.46,-789.56 358.59,-767.02"/>
<polygon fill="black" stroke="black" stroke-width="2" points="362.09,-767.15 359.54,-756.87 355.12,-766.5 362.09,-767.15"/>
<text text-anchor="middle" x="376" y="-818.81" font-family="Times,serif" font-size="10.00">APB</text>
<text text-anchor="middle" x="376" y="-807.81" font-family="Times,serif" font-size="10.00">protocol</text>
</g>
<!-- master1 -->
<g id="node2" class="node">
<title>master1</title>
<path fill="lightgreen" stroke="black" d="M638.57,-891.81C638.57,-891.81 638.57,-911.42 638.57,-911.42 638.57,-917.42 633.42,-926.48 628.26,-929.55 628.26,-929.55 597.01,-948.12 597.01,-948.12 591.85,-951.19 580.69,-954.25 574.69,-954.25 574.69,-954.25 525.31,-954.25 525.31,-954.25 519.31,-954.25 508.15,-951.19 502.99,-948.12 502.99,-948.12 471.74,-929.55 471.74,-929.55 466.58,-926.48 461.43,-917.42 461.43,-911.42 461.43,-911.42 461.43,-891.81 461.43,-891.81 461.43,-885.81 466.58,-876.75 471.74,-873.68 471.74,-873.68 502.99,-855.11 502.99,-855.11 508.15,-852.05 519.31,-848.98 525.31,-848.98 525.31,-848.98 574.69,-848.98 574.69,-848.98 580.69,-848.98 591.85,-852.05 597.01,-855.11 597.01,-855.11 628.26,-873.68 628.26,-873.68 633.42,-876.75 638.57,-885.81 638.57,-891.81"/>
<path fill="none" stroke="black" d="M642.57,-889.55C642.57,-889.55 642.57,-913.68 642.57,-913.68 642.57,-919.68 637.41,-928.75 632.25,-931.82 632.25,-931.82 598.1,-952.11 598.1,-952.11 592.94,-955.17 581.79,-958.24 575.79,-958.24 575.79,-958.24 524.21,-958.24 524.21,-958.24 518.21,-958.24 507.06,-955.17 501.9,-952.11 501.9,-952.11 467.75,-931.82 467.75,-931.82 462.59,-928.75 457.43,-919.68 457.43,-913.68 457.43,-913.68 457.43,-889.55 457.43,-889.55 457.43,-883.55 462.59,-874.48 467.75,-871.42 467.75,-871.42 501.9,-851.12 501.9,-851.12 507.06,-848.06 518.21,-844.99 524.21,-844.99 524.21,-844.99 575.79,-844.99 575.79,-844.99 581.79,-844.99 592.94,-848.06 598.1,-851.12 598.1,-851.12 632.25,-871.42 632.25,-871.42 637.41,-874.48 642.57,-883.55 642.57,-889.55"/>
<text text-anchor="middle" x="550" y="-920.92" font-family="Times,serif" font-size="14.00">APB Master 1</text>
<text text-anchor="middle" x="550" y="-905.92" font-family="Times,serif" font-size="14.00">(DMA)</text>
<text text-anchor="middle" x="550" y="-874.92" font-family="Times,serif" font-size="14.00">PCLK domain</text>
</g>
<!-- apb_slave1 -->
<g id="node4" class="node">
<title>apb_slave1</title>
<path fill="lightcyan" stroke="black" d="M600.5,-756.81C600.5,-756.81 469.5,-756.81 469.5,-756.81 463.5,-756.81 457.5,-750.81 457.5,-744.81 457.5,-744.81 457.5,-714.81 457.5,-714.81 457.5,-708.81 463.5,-702.81 469.5,-702.81 469.5,-702.81 600.5,-702.81 600.5,-702.81 606.5,-702.81 612.5,-708.81 612.5,-714.81 612.5,-714.81 612.5,-744.81 612.5,-744.81 612.5,-750.81 606.5,-756.81 600.5,-756.81"/>
<text text-anchor="middle" x="535" y="-741.61" font-family="Times,serif" font-size="14.00">apb_slave[1]</text>
<text text-anchor="middle" x="535" y="-710.61" font-family="Times,serif" font-size="14.00">Protocol → cmd/rsp</text>
</g>
<!-- master1&#45;&gt;apb_slave1 -->
<g id="edge2" class="edge">
<title>master1&#45;&gt;apb_slave1</title>
<path fill="none" stroke="black" stroke-width="2" d="M545.05,-844.54C542.79,-819.02 540.19,-789.56 538.2,-767.02"/>
<polygon fill="black" stroke="black" stroke-width="2" points="541.67,-766.52 537.3,-756.87 534.7,-767.14 541.67,-766.52"/>
<text text-anchor="middle" x="564" y="-818.81" font-family="Times,serif" font-size="10.00">APB</text>
<text text-anchor="middle" x="564" y="-807.81" font-family="Times,serif" font-size="10.00">protocol</text>
</g>
<!-- addr_decode -->
<g id="node5" class="node">
<title>addr_decode</title>
<path fill="lightyellow" stroke="black" d="M412.81,-589.47C412.81,-589.47 257.19,-529.14 257.19,-529.14 251.59,-526.97 251.59,-522.64 257.19,-520.47 257.19,-520.47 412.81,-460.14 412.81,-460.14 418.41,-457.97 429.59,-457.97 435.19,-460.14 435.19,-460.14 590.81,-520.47 590.81,-520.47 596.41,-522.64 596.41,-526.97 590.81,-529.14 590.81,-529.14 435.19,-589.47 435.19,-589.47 429.59,-591.64 418.41,-591.64 412.81,-589.47"/>
<text text-anchor="middle" x="424" y="-544.11" font-family="Times,serif" font-size="14.00">Address Decode</text>
<text text-anchor="middle" x="424" y="-513.11" font-family="Times,serif" font-size="14.00">Parallel decode</text>
<text text-anchor="middle" x="424" y="-498.11" font-family="Times,serif" font-size="14.00">(BASE_ADDR + offset)</text>
</g>
<!-- apb_slave0&#45;&gt;addr_decode -->
<g id="edge3" class="edge">
<title>apb_slave0&#45;&gt;addr_decode</title>
<path fill="none" stroke="blue" d="M345.73,-702.4C335.86,-682.93 326.64,-655.93 335,-632.81 341.65,-614.42 352.98,-596.97 365.37,-581.7"/>
<polygon fill="blue" stroke="blue" points="368.16,-583.82 371.93,-573.92 362.81,-579.31 368.16,-583.82"/>
<text text-anchor="middle" x="395" y="-646.81" font-family="Times,serif" font-size="10.00">cmd/rsp bus 0</text>
<text text-anchor="middle" x="395" y="-635.81" font-family="Times,serif" font-size="10.00">(paddr, pwrite, pwdata)</text>
</g>
<!-- apb_slave1&#45;&gt;addr_decode -->
<g id="edge4" class="edge">
<title>apb_slave1&#45;&gt;addr_decode</title>
<path fill="none" stroke="blue" d="M512.11,-702.59C500.91,-688.94 487.78,-671.63 478,-654.81 467.15,-636.14 457.33,-614.88 449.12,-595.07"/>
<polygon fill="blue" stroke="blue" points="452.36,-593.74 445.35,-585.79 445.87,-596.37 452.36,-593.74"/>
<text text-anchor="middle" x="538" y="-646.81" font-family="Times,serif" font-size="10.00">cmd/rsp bus 1</text>
<text text-anchor="middle" x="538" y="-635.81" font-family="Times,serif" font-size="10.00">(paddr, pwrite, pwdata)</text>
</g>
<!-- arb0 -->
<g id="node6" class="node">
<title>arb0</title>
<path fill="lightcoral" stroke="black" d="M186.6,-341.04C186.6,-341.04 158.65,-378.07 158.65,-378.07 155.03,-382.86 145.42,-387.64 139.42,-387.64 139.42,-387.64 78.58,-387.64 78.58,-387.64 72.58,-387.64 62.97,-382.86 59.35,-378.07 59.35,-378.07 31.4,-341.04 31.4,-341.04 27.78,-336.26 27.78,-326.68 31.4,-321.89 31.4,-321.89 59.35,-284.87 59.35,-284.87 62.97,-280.08 72.58,-275.29 78.58,-275.29 78.58,-275.29 139.42,-275.29 139.42,-275.29 145.42,-275.29 155.03,-280.08 158.65,-284.87 158.65,-284.87 186.6,-321.89 186.6,-321.89 190.22,-326.68 190.22,-336.26 186.6,-341.04"/>
<text text-anchor="middle" x="109" y="-350.77" font-family="Times,serif" font-size="14.00">Arbiter[0]</text>
<text text-anchor="middle" x="109" y="-319.77" font-family="Times,serif" font-size="14.00">Round&#45;robin</text>
<text text-anchor="middle" x="109" y="-304.77" font-family="Times,serif" font-size="14.00">2 masters</text>
</g>
<!-- addr_decode&#45;&gt;arb0 -->
<g id="edge5" class="edge">
<title>addr_decode&#45;&gt;arb0</title>
<path fill="none" stroke="black" stroke-dasharray="5,2" d="M336.81,-489.59C294.76,-471.33 244.56,-446.83 203,-418.81 189.61,-409.78 176.23,-398.89 163.93,-387.94"/>
<polygon fill="black" stroke="black" points="166.18,-385.26 156.43,-381.13 161.48,-390.44 166.18,-385.26"/>
<text text-anchor="middle" x="274.5" y="-429.81" font-family="Times,serif" font-size="10.00">Slave 0 requests</text>
</g>
<!-- arb1 -->
<g id="node7" class="node">
<title>arb1</title>
<path fill="lightcoral" stroke="black" d="M374.6,-341.04C374.6,-341.04 346.65,-378.07 346.65,-378.07 343.03,-382.86 333.42,-387.64 327.42,-387.64 327.42,-387.64 266.58,-387.64 266.58,-387.64 260.58,-387.64 250.97,-382.86 247.35,-378.07 247.35,-378.07 219.4,-341.04 219.4,-341.04 215.78,-336.26 215.78,-326.68 219.4,-321.89 219.4,-321.89 247.35,-284.87 247.35,-284.87 250.97,-280.08 260.58,-275.29 266.58,-275.29 266.58,-275.29 327.42,-275.29 327.42,-275.29 333.42,-275.29 343.03,-280.08 346.65,-284.87 346.65,-284.87 374.6,-321.89 374.6,-321.89 378.22,-326.68 378.22,-336.26 374.6,-341.04"/>
<text text-anchor="middle" x="297" y="-350.77" font-family="Times,serif" font-size="14.00">Arbiter[1]</text>
<text text-anchor="middle" x="297" y="-319.77" font-family="Times,serif" font-size="14.00">Round&#45;robin</text>
<text text-anchor="middle" x="297" y="-304.77" font-family="Times,serif" font-size="14.00">2 masters</text>
</g>
<!-- addr_decode&#45;&gt;arb1 -->
<g id="edge6" class="edge">
<title>addr_decode&#45;&gt;arb1</title>
<path fill="none" stroke="black" stroke-dasharray="5,2" d="M385.45,-470.46C377.89,-459.72 370.11,-448.46 363,-437.81 354.12,-424.5 344.85,-410.07 336.16,-396.28"/>
<polygon fill="black" stroke="black" points="339.12,-394.4 330.84,-387.79 333.19,-398.12 339.12,-394.4"/>
<text text-anchor="middle" x="405.5" y="-429.81" font-family="Times,serif" font-size="10.00">Slave 1 requests</text>
</g>
<!-- arb2 -->
<g id="node8" class="node">
<title>arb2</title>
<path fill="lightcoral" stroke="black" d="M562.6,-341.04C562.6,-341.04 534.65,-378.07 534.65,-378.07 531.03,-382.86 521.42,-387.64 515.42,-387.64 515.42,-387.64 454.58,-387.64 454.58,-387.64 448.58,-387.64 438.97,-382.86 435.35,-378.07 435.35,-378.07 407.4,-341.04 407.4,-341.04 403.78,-336.26 403.78,-326.68 407.4,-321.89 407.4,-321.89 435.35,-284.87 435.35,-284.87 438.97,-280.08 448.58,-275.29 454.58,-275.29 454.58,-275.29 515.42,-275.29 515.42,-275.29 521.42,-275.29 531.03,-280.08 534.65,-284.87 534.65,-284.87 562.6,-321.89 562.6,-321.89 566.22,-326.68 566.22,-336.26 562.6,-341.04"/>
<text text-anchor="middle" x="485" y="-350.77" font-family="Times,serif" font-size="14.00">Arbiter[2]</text>
<text text-anchor="middle" x="485" y="-319.77" font-family="Times,serif" font-size="14.00">Round&#45;robin</text>
<text text-anchor="middle" x="485" y="-304.77" font-family="Times,serif" font-size="14.00">2 masters</text>
</g>
<!-- addr_decode&#45;&gt;arb2 -->
<g id="edge7" class="edge">
<title>addr_decode&#45;&gt;arb2</title>
<path fill="none" stroke="black" stroke-dasharray="5,2" d="M443.3,-463.26C449.99,-442.28 457.51,-418.68 464.31,-397.36"/>
<polygon fill="black" stroke="black" points="467.67,-398.34 467.38,-387.75 461,-396.21 467.67,-398.34"/>
<text text-anchor="middle" x="496.5" y="-429.81" font-family="Times,serif" font-size="10.00">Slave 2 requests</text>
</g>
<!-- arb3 -->
<g id="node9" class="node">
<title>arb3</title>
<path fill="lightcoral" stroke="black" d="M750.6,-341.04C750.6,-341.04 722.65,-378.07 722.65,-378.07 719.03,-382.86 709.42,-387.64 703.42,-387.64 703.42,-387.64 642.58,-387.64 642.58,-387.64 636.58,-387.64 626.97,-382.86 623.35,-378.07 623.35,-378.07 595.4,-341.04 595.4,-341.04 591.78,-336.26 591.78,-326.68 595.4,-321.89 595.4,-321.89 623.35,-284.87 623.35,-284.87 626.97,-280.08 636.58,-275.29 642.58,-275.29 642.58,-275.29 703.42,-275.29 703.42,-275.29 709.42,-275.29 719.03,-280.08 722.65,-284.87 722.65,-284.87 750.6,-321.89 750.6,-321.89 754.22,-326.68 754.22,-336.26 750.6,-341.04"/>
<text text-anchor="middle" x="673" y="-350.77" font-family="Times,serif" font-size="14.00">Arbiter[3]</text>
<text text-anchor="middle" x="673" y="-319.77" font-family="Times,serif" font-size="14.00">Round&#45;robin</text>
<text text-anchor="middle" x="673" y="-304.77" font-family="Times,serif" font-size="14.00">2 masters</text>
</g>
<!-- addr_decode&#45;&gt;arb3 -->
<g id="edge8" class="edge">
<title>addr_decode&#45;&gt;arb3</title>
<path fill="none" stroke="black" stroke-dasharray="5,2" d="M491.14,-481.44C518.99,-463.08 551.21,-440.78 579,-418.81 591.67,-408.79 604.74,-397.48 616.96,-386.42"/>
<polygon fill="black" stroke="black" points="619.42,-388.91 624.45,-379.58 614.7,-383.74 619.42,-388.91"/>
<text text-anchor="middle" x="609.5" y="-429.81" font-family="Times,serif" font-size="10.00">Slave 3 requests</text>
</g>
<!-- apb_master0 -->
<g id="node11" class="node">
<title>apb_master0</title>
<path fill="lightcyan" stroke="black" d="M581.5,-201.13C581.5,-201.13 450.5,-201.13 450.5,-201.13 444.5,-201.13 438.5,-195.13 438.5,-189.13 438.5,-189.13 438.5,-159.13 438.5,-159.13 438.5,-153.13 444.5,-147.13 450.5,-147.13 450.5,-147.13 581.5,-147.13 581.5,-147.13 587.5,-147.13 593.5,-153.13 593.5,-159.13 593.5,-159.13 593.5,-189.13 593.5,-189.13 593.5,-195.13 587.5,-201.13 581.5,-201.13"/>
<text text-anchor="middle" x="516" y="-185.93" font-family="Times,serif" font-size="14.00">apb_master[0]</text>
<text text-anchor="middle" x="516" y="-154.93" font-family="Times,serif" font-size="14.00">cmd/rsp → Protocol</text>
</g>
<!-- arb0&#45;&gt;apb_master0 -->
<g id="edge9" class="edge">
<title>arb0&#45;&gt;apb_master0</title>
<path fill="none" stroke="green" d="M159.83,-286.27C173.22,-276.26 188.1,-266.43 203,-259.13 274.93,-223.87 363.67,-201.85 428.27,-189.25"/>
<polygon fill="green" stroke="green" points="429.26,-192.62 438.43,-187.3 427.95,-185.75 429.26,-192.62"/>
<text text-anchor="middle" x="277" y="-243.13" font-family="Times,serif" font-size="10.00">Grant + cmd</text>
</g>
<!-- apb_master1 -->
<g id="node12" class="node">
<title>apb_master1</title>
<path fill="lightcyan" stroke="black" d="M754.5,-201.13C754.5,-201.13 623.5,-201.13 623.5,-201.13 617.5,-201.13 611.5,-195.13 611.5,-189.13 611.5,-189.13 611.5,-159.13 611.5,-159.13 611.5,-153.13 617.5,-147.13 623.5,-147.13 623.5,-147.13 754.5,-147.13 754.5,-147.13 760.5,-147.13 766.5,-153.13 766.5,-159.13 766.5,-159.13 766.5,-189.13 766.5,-189.13 766.5,-195.13 760.5,-201.13 754.5,-201.13"/>
<text text-anchor="middle" x="689" y="-185.93" font-family="Times,serif" font-size="14.00">apb_master[1]</text>
<text text-anchor="middle" x="689" y="-154.93" font-family="Times,serif" font-size="14.00">cmd/rsp → Protocol</text>
</g>
<!-- arb1&#45;&gt;apb_master1 -->
<g id="edge10" class="edge">
<title>arb1&#45;&gt;apb_master1</title>
<path fill="none" stroke="green" d="M347.22,-284.91C360.62,-274.93 375.66,-265.46 391,-259.13 449.45,-235 469.25,-247.89 532,-240.13 563.52,-236.23 573.16,-242.98 603,-232.13 619.17,-226.25 635.32,-216.76 649.18,-207.19"/>
<polygon fill="green" stroke="green" points="651.38,-209.91 657.49,-201.25 647.32,-204.21 651.38,-209.91"/>
<text text-anchor="middle" x="565" y="-243.13" font-family="Times,serif" font-size="10.00">Grant + cmd</text>
</g>
<!-- apb_master2 -->
<g id="node13" class="node">
<title>apb_master2</title>
<path fill="lightcyan" stroke="black" d="M927.5,-201.13C927.5,-201.13 796.5,-201.13 796.5,-201.13 790.5,-201.13 784.5,-195.13 784.5,-189.13 784.5,-189.13 784.5,-159.13 784.5,-159.13 784.5,-153.13 790.5,-147.13 796.5,-147.13 796.5,-147.13 927.5,-147.13 927.5,-147.13 933.5,-147.13 939.5,-153.13 939.5,-159.13 939.5,-159.13 939.5,-189.13 939.5,-189.13 939.5,-195.13 933.5,-201.13 927.5,-201.13"/>
<text text-anchor="middle" x="862" y="-185.93" font-family="Times,serif" font-size="14.00">apb_master[2]</text>
<text text-anchor="middle" x="862" y="-154.93" font-family="Times,serif" font-size="14.00">cmd/rsp → Protocol</text>
</g>
<!-- arb2&#45;&gt;apb_master2 -->
<g id="edge11" class="edge">
<title>arb2&#45;&gt;apb_master2</title>
<path fill="none" stroke="green" d="M535.23,-284.94C548.63,-274.95 563.67,-265.48 579,-259.13 660.65,-225.31 693.31,-263.32 776,-232.13 791.96,-226.11 807.95,-216.68 821.73,-207.21"/>
<polygon fill="green" stroke="green" points="823.88,-209.98 830.01,-201.34 819.83,-204.27 823.88,-209.98"/>
<text text-anchor="middle" x="781" y="-243.13" font-family="Times,serif" font-size="10.00">Grant + cmd</text>
</g>
<!-- apb_master3 -->
<g id="node14" class="node">
<title>apb_master3</title>
<path fill="lightcyan" stroke="black" d="M1100.5,-201.13C1100.5,-201.13 969.5,-201.13 969.5,-201.13 963.5,-201.13 957.5,-195.13 957.5,-189.13 957.5,-189.13 957.5,-159.13 957.5,-159.13 957.5,-153.13 963.5,-147.13 969.5,-147.13 969.5,-147.13 1100.5,-147.13 1100.5,-147.13 1106.5,-147.13 1112.5,-153.13 1112.5,-159.13 1112.5,-159.13 1112.5,-189.13 1112.5,-189.13 1112.5,-195.13 1106.5,-201.13 1100.5,-201.13"/>
<text text-anchor="middle" x="1035" y="-185.93" font-family="Times,serif" font-size="14.00">apb_master[3]</text>
<text text-anchor="middle" x="1035" y="-154.93" font-family="Times,serif" font-size="14.00">cmd/rsp → Protocol</text>
</g>
<!-- arb3&#45;&gt;apb_master3 -->
<g id="edge12" class="edge">
<title>arb3&#45;&gt;apb_master3</title>
<path fill="none" stroke="green" d="M723.64,-286.05C738.33,-275.45 755.01,-265.41 772,-259.13 811.74,-244.43 825.14,-257.71 867,-251.13 903.96,-245.32 914.64,-246.92 949,-232.13 964.12,-225.62 979.46,-216.44 992.92,-207.35"/>
<polygon fill="green" stroke="green" points="995.25,-209.99 1001.47,-201.42 991.26,-204.24 995.25,-209.99"/>
<text text-anchor="middle" x="960" y="-243.13" font-family="Times,serif" font-size="10.00">Grant + cmd</text>
</g>
<!-- rsp_route -->
<g id="node10" class="node">
<title>rsp_route</title>
<path fill="lightyellow" stroke="black" d="M754,-559.31C754,-559.31 632,-559.31 632,-559.31 626,-559.31 620,-553.31 620,-547.31 620,-547.31 620,-502.31 620,-502.31 620,-496.31 626,-490.31 632,-490.31 632,-490.31 754,-490.31 754,-490.31 760,-490.31 766,-496.31 766,-502.31 766,-502.31 766,-547.31 766,-547.31 766,-553.31 760,-559.31 754,-559.31"/>
<text text-anchor="middle" x="693" y="-544.11" font-family="Times,serif" font-size="14.00">Response Routing</text>
<text text-anchor="middle" x="693" y="-513.11" font-family="Times,serif" font-size="14.00">Registered paths</text>
<text text-anchor="middle" x="693" y="-498.11" font-family="Times,serif" font-size="14.00">back to masters</text>
</g>
<!-- rsp_route&#45;&gt;apb_slave0 -->
<g id="edge17" class="edge">
<title>rsp_route&#45;&gt;apb_slave0</title>
<path fill="none" stroke="red" stroke-dasharray="5,2" d="M669.3,-559.35C642.85,-596.57 603.08,-651.84 598,-654.81 540.38,-688.42 511.75,-650.18 449,-672.81 433.05,-678.56 417.03,-687.68 403.16,-696.91"/>
<polygon fill="red" stroke="red" points="401.09,-694.09 394.83,-702.64 405.05,-699.86 401.09,-694.09"/>
<text text-anchor="middle" x="639" y="-646.81" font-family="Times,serif" font-size="10.00">Response</text>
<text text-anchor="middle" x="639" y="-635.81" font-family="Times,serif" font-size="10.00">to M0</text>
</g>
<!-- rsp_route&#45;&gt;apb_slave1 -->
<g id="edge18" class="edge">
<title>rsp_route&#45;&gt;apb_slave1</title>
<path fill="none" stroke="red" stroke-dasharray="5,2" d="M695,-559.58C694.97,-587.56 690.82,-627.08 671,-654.81 665.91,-661.93 630.79,-680.96 597.52,-697.94"/>
<polygon fill="red" stroke="red" points="595.54,-695.01 588.21,-702.66 598.71,-701.26 595.54,-695.01"/>
<text text-anchor="middle" x="707" y="-646.81" font-family="Times,serif" font-size="10.00">Response</text>
<text text-anchor="middle" x="707" y="-635.81" font-family="Times,serif" font-size="10.00">to M1</text>
</g>
<!-- apb_master0&#45;&gt;rsp_route -->
<g id="edge13" class="edge">
<title>apb_master0&#45;&gt;rsp_route</title>
<path fill="none" stroke="red" d="M548.89,-201.41C564.46,-212.56 583.81,-224.68 603,-232.13 673.09,-259.33 721.26,-201.88 770,-259.13 793,-286.15 781.04,-385.08 770,-418.81 762.44,-441.91 747.64,-464.13 733.03,-482.13"/>
<polygon fill="red" stroke="red" points="730.09,-480.18 726.35,-490.09 735.46,-484.68 730.09,-480.18"/>
<text text-anchor="middle" x="807" y="-328.97" font-family="Times,serif" font-size="10.00">rsp bus 0</text>
</g>
<!-- slave0 -->
<g id="node15" class="node">
<title>slave0</title>
<path fill="pink" stroke="black" d="M505.84,-38.96C505.84,-38.96 505.84,-50.17 505.84,-50.17 505.84,-55.78 500.59,-63.37 495.34,-65.35 495.34,-65.35 453.16,-81.23 453.16,-81.23 447.92,-83.21 437.06,-85.19 431.45,-85.19 431.45,-85.19 364.55,-85.19 364.55,-85.19 358.94,-85.19 348.08,-83.21 342.84,-81.23 342.84,-81.23 300.66,-65.35 300.66,-65.35 295.41,-63.37 290.16,-55.78 290.16,-50.17 290.16,-50.17 290.16,-38.96 290.16,-38.96 290.16,-33.35 295.41,-25.76 300.66,-23.78 300.66,-23.78 342.84,-7.9 342.84,-7.9 348.08,-5.92 358.94,-3.94 364.55,-3.94 364.55,-3.94 431.45,-3.94 431.45,-3.94 437.06,-3.94 447.92,-5.92 453.16,-7.9 453.16,-7.9 495.34,-23.78 495.34,-23.78 500.59,-25.76 505.84,-33.35 505.84,-38.96"/>
<path fill="none" stroke="black" d="M509.83,-36.96C509.83,-36.96 509.83,-52.16 509.83,-52.16 509.83,-58.16 504.22,-66.28 498.6,-68.4 498.6,-68.4 454.62,-84.96 454.62,-84.96 449.01,-87.08 437.39,-89.19 431.39,-89.19 431.39,-89.19 364.61,-89.19 364.61,-89.19 358.61,-89.19 346.99,-87.08 341.38,-84.96 341.38,-84.96 297.4,-68.4 297.4,-68.4 291.78,-66.28 286.17,-58.16 286.17,-52.16 286.17,-52.16 286.17,-36.96 286.17,-36.96 286.17,-30.96 291.78,-22.85 297.4,-20.73 297.4,-20.73 341.38,-4.17 341.38,-4.17 346.99,-2.05 358.61,0.06 364.61,0.06 364.61,0.06 431.39,0.06 431.39,0.06 437.39,0.06 449.01,-2.05 454.62,-4.17 454.62,-4.17 498.6,-20.73 498.6,-20.73 504.22,-22.85 509.83,-30.96 509.83,-36.96"/>
<text text-anchor="middle" x="398" y="-55.86" font-family="Times,serif" font-size="14.00">APB Slave 0</text>
<text text-anchor="middle" x="398" y="-40.86" font-family="Times,serif" font-size="14.00">(UART)</text>
<text text-anchor="middle" x="398" y="-25.86" font-family="Times,serif" font-size="14.00">@ BASE+0x0000</text>
</g>
<!-- apb_master0&#45;&gt;slave0 -->
<g id="edge19" class="edge">
<title>apb_master0&#45;&gt;slave0</title>
<path fill="none" stroke="black" stroke-width="2" d="M491.84,-147.01C478.5,-132.59 461.48,-114.19 445.59,-97.02"/>
<polygon fill="black" stroke="black" stroke-width="2" points="447.75,-94.2 438.39,-89.23 442.62,-98.95 447.75,-94.2"/>
<text text-anchor="middle" x="495" y="-121.13" font-family="Times,serif" font-size="10.00">APB</text>
<text text-anchor="middle" x="495" y="-110.13" font-family="Times,serif" font-size="10.00">protocol</text>
</g>
<!-- apb_master1&#45;&gt;rsp_route -->
<g id="edge14" class="edge">
<title>apb_master1&#45;&gt;rsp_route</title>
<path fill="none" stroke="red" d="M721.99,-201.17C737.57,-212.27 756.91,-224.41 776,-232.13 806.92,-244.62 830.39,-229.67 846,-259.13 879.23,-321.84 879.06,-356.01 846,-418.81 830.56,-448.13 802.82,-470.84 775.17,-487.52"/>
<polygon fill="red" stroke="red" points="773.1,-484.67 766.21,-492.72 776.61,-490.73 773.1,-484.67"/>
<text text-anchor="middle" x="894" y="-328.97" font-family="Times,serif" font-size="10.00">rsp bus 1</text>
</g>
<!-- slave1 -->
<g id="node16" class="node">
<title>slave1</title>
<path fill="pink" stroke="black" d="M761.62,-38.96C761.62,-38.96 761.62,-50.17 761.62,-50.17 761.62,-55.78 756.33,-63.26 751.04,-65.14 751.04,-65.14 705.05,-81.44 705.05,-81.44 699.76,-83.31 688.87,-85.19 683.26,-85.19 683.26,-85.19 610.74,-85.19 610.74,-85.19 605.13,-85.19 594.24,-83.31 588.95,-81.44 588.95,-81.44 542.96,-65.14 542.96,-65.14 537.67,-63.26 532.38,-55.78 532.38,-50.17 532.38,-50.17 532.38,-38.96 532.38,-38.96 532.38,-33.35 537.67,-25.86 542.96,-23.99 542.96,-23.99 588.95,-7.69 588.95,-7.69 594.24,-5.81 605.13,-3.94 610.74,-3.94 610.74,-3.94 683.26,-3.94 683.26,-3.94 688.87,-3.94 699.76,-5.81 705.05,-7.69 705.05,-7.69 751.04,-23.99 751.04,-23.99 756.33,-25.86 761.62,-33.35 761.62,-38.96"/>
<path fill="none" stroke="black" d="M765.61,-36.9C765.61,-36.9 765.61,-52.22 765.61,-52.22 765.61,-58.22 759.96,-66.23 754.3,-68.23 754.3,-68.23 706.47,-85.18 706.47,-85.18 700.82,-87.19 689.16,-89.19 683.16,-89.19 683.16,-89.19 610.84,-89.19 610.84,-89.19 604.84,-89.19 593.18,-87.19 587.53,-85.18 587.53,-85.18 539.7,-68.23 539.7,-68.23 534.04,-66.23 528.39,-58.22 528.39,-52.22 528.39,-52.22 528.39,-36.9 528.39,-36.9 528.39,-30.9 534.04,-22.9 539.7,-20.9 539.7,-20.9 587.53,-3.94 587.53,-3.94 593.18,-1.94 604.84,0.06 610.84,0.06 610.84,0.06 683.16,0.06 683.16,0.06 689.16,0.06 700.82,-1.94 706.47,-3.94 706.47,-3.94 754.3,-20.9 754.3,-20.9 759.96,-22.9 765.61,-30.9 765.61,-36.9"/>
<text text-anchor="middle" x="647" y="-55.86" font-family="Times,serif" font-size="14.00">APB Slave 1</text>
<text text-anchor="middle" x="647" y="-40.86" font-family="Times,serif" font-size="14.00">(GPIO)</text>
<text text-anchor="middle" x="647" y="-25.86" font-family="Times,serif" font-size="14.00">@ BASE+0x10000</text>
</g>
<!-- apb_master1&#45;&gt;slave1 -->
<g id="edge20" class="edge">
<title>apb_master1&#45;&gt;slave1</title>
<path fill="none" stroke="black" stroke-width="2" d="M680.4,-147.01C675.83,-133.11 670.03,-115.51 664.55,-98.88"/>
<polygon fill="black" stroke="black" stroke-width="2" points="667.83,-97.64 661.38,-89.23 661.18,-99.83 667.83,-97.64"/>
<text text-anchor="middle" x="695" y="-121.13" font-family="Times,serif" font-size="10.00">APB</text>
<text text-anchor="middle" x="695" y="-110.13" font-family="Times,serif" font-size="10.00">protocol</text>
</g>
<!-- apb_master2&#45;&gt;rsp_route -->
<g id="edge15" class="edge">
<title>apb_master2&#45;&gt;rsp_route</title>
<path fill="none" stroke="red" d="M896.54,-201.33C911.95,-212.06 930.74,-223.87 949,-232.13 961.18,-237.64 969.9,-229.49 978,-240.13 1028.42,-306.34 977.6,-356.88 922,-418.81 883.65,-461.52 824.43,-488.04 775.82,-503.73"/>
<polygon fill="red" stroke="red" points="774.75,-500.4 766.25,-506.73 776.84,-507.08 774.75,-500.4"/>
<text text-anchor="middle" x="1022" y="-328.97" font-family="Times,serif" font-size="10.00">rsp bus 2</text>
</g>
<!-- slave2 -->
<g id="node17" class="node">
<title>slave2</title>
<path fill="pink" stroke="black" d="M1017.62,-38.96C1017.62,-38.96 1017.62,-50.17 1017.62,-50.17 1017.62,-55.78 1012.33,-63.26 1007.04,-65.14 1007.04,-65.14 961.05,-81.44 961.05,-81.44 955.76,-83.31 944.87,-85.19 939.26,-85.19 939.26,-85.19 866.74,-85.19 866.74,-85.19 861.13,-85.19 850.24,-83.31 844.95,-81.44 844.95,-81.44 798.96,-65.14 798.96,-65.14 793.67,-63.26 788.38,-55.78 788.38,-50.17 788.38,-50.17 788.38,-38.96 788.38,-38.96 788.38,-33.35 793.67,-25.86 798.96,-23.99 798.96,-23.99 844.95,-7.69 844.95,-7.69 850.24,-5.81 861.13,-3.94 866.74,-3.94 866.74,-3.94 939.26,-3.94 939.26,-3.94 944.87,-3.94 955.76,-5.81 961.05,-7.69 961.05,-7.69 1007.04,-23.99 1007.04,-23.99 1012.33,-25.86 1017.62,-33.35 1017.62,-38.96"/>
<path fill="none" stroke="black" d="M1021.61,-36.9C1021.61,-36.9 1021.61,-52.22 1021.61,-52.22 1021.61,-58.22 1015.96,-66.23 1010.3,-68.23 1010.3,-68.23 962.47,-85.18 962.47,-85.18 956.82,-87.19 945.16,-89.19 939.16,-89.19 939.16,-89.19 866.84,-89.19 866.84,-89.19 860.84,-89.19 849.18,-87.19 843.53,-85.18 843.53,-85.18 795.7,-68.23 795.7,-68.23 790.04,-66.23 784.39,-58.22 784.39,-52.22 784.39,-52.22 784.39,-36.9 784.39,-36.9 784.39,-30.9 790.04,-22.9 795.7,-20.9 795.7,-20.9 843.53,-3.94 843.53,-3.94 849.18,-1.94 860.84,0.06 866.84,0.06 866.84,0.06 939.16,0.06 939.16,0.06 945.16,0.06 956.82,-1.94 962.47,-3.94 962.47,-3.94 1010.3,-20.9 1010.3,-20.9 1015.96,-22.9 1021.61,-30.9 1021.61,-36.9"/>
<text text-anchor="middle" x="903" y="-55.86" font-family="Times,serif" font-size="14.00">APB Slave 2</text>
<text text-anchor="middle" x="903" y="-40.86" font-family="Times,serif" font-size="14.00">(Timer)</text>
<text text-anchor="middle" x="903" y="-25.86" font-family="Times,serif" font-size="14.00">@ BASE+0x20000</text>
</g>
<!-- apb_master2&#45;&gt;slave2 -->
<g id="edge21" class="edge">
<title>apb_master2&#45;&gt;slave2</title>
<path fill="none" stroke="black" stroke-width="2" d="M870.4,-147.01C874.86,-133.11 880.52,-115.51 885.87,-98.88"/>
<polygon fill="black" stroke="black" stroke-width="2" points="889.24,-99.82 888.96,-89.23 882.57,-97.68 889.24,-99.82"/>
<text text-anchor="middle" x="903" y="-121.13" font-family="Times,serif" font-size="10.00">APB</text>
<text text-anchor="middle" x="903" y="-110.13" font-family="Times,serif" font-size="10.00">protocol</text>
</g>
<!-- apb_master3&#45;&gt;rsp_route -->
<g id="edge16" class="edge">
<title>apb_master3&#45;&gt;rsp_route</title>
<path fill="none" stroke="red" d="M1046.64,-201.36C1066.11,-249.7 1098.63,-353.82 1050,-418.81 1017.15,-462.71 870.91,-494.55 776.09,-511.03"/>
<polygon fill="red" stroke="red" points="775.49,-507.58 766.22,-512.72 776.67,-514.48 775.49,-507.58"/>
<text text-anchor="middle" x="1099" y="-328.97" font-family="Times,serif" font-size="10.00">rsp bus 3</text>
</g>
<!-- slave3 -->
<g id="node18" class="node">
<title>slave3</title>
<path fill="pink" stroke="black" d="M1273.62,-38.96C1273.62,-38.96 1273.62,-50.17 1273.62,-50.17 1273.62,-55.78 1268.33,-63.26 1263.04,-65.14 1263.04,-65.14 1217.05,-81.44 1217.05,-81.44 1211.76,-83.31 1200.87,-85.19 1195.26,-85.19 1195.26,-85.19 1122.74,-85.19 1122.74,-85.19 1117.13,-85.19 1106.24,-83.31 1100.95,-81.44 1100.95,-81.44 1054.96,-65.14 1054.96,-65.14 1049.67,-63.26 1044.38,-55.78 1044.38,-50.17 1044.38,-50.17 1044.38,-38.96 1044.38,-38.96 1044.38,-33.35 1049.67,-25.86 1054.96,-23.99 1054.96,-23.99 1100.95,-7.69 1100.95,-7.69 1106.24,-5.81 1117.13,-3.94 1122.74,-3.94 1122.74,-3.94 1195.26,-3.94 1195.26,-3.94 1200.87,-3.94 1211.76,-5.81 1217.05,-7.69 1217.05,-7.69 1263.04,-23.99 1263.04,-23.99 1268.33,-25.86 1273.62,-33.35 1273.62,-38.96"/>
<path fill="none" stroke="black" d="M1277.61,-36.9C1277.61,-36.9 1277.61,-52.22 1277.61,-52.22 1277.61,-58.22 1271.96,-66.23 1266.3,-68.23 1266.3,-68.23 1218.47,-85.18 1218.47,-85.18 1212.82,-87.19 1201.16,-89.19 1195.16,-89.19 1195.16,-89.19 1122.84,-89.19 1122.84,-89.19 1116.84,-89.19 1105.18,-87.19 1099.53,-85.18 1099.53,-85.18 1051.7,-68.23 1051.7,-68.23 1046.04,-66.23 1040.39,-58.22 1040.39,-52.22 1040.39,-52.22 1040.39,-36.9 1040.39,-36.9 1040.39,-30.9 1046.04,-22.9 1051.7,-20.9 1051.7,-20.9 1099.53,-3.94 1099.53,-3.94 1105.18,-1.94 1116.84,0.06 1122.84,0.06 1122.84,0.06 1195.16,0.06 1195.16,0.06 1201.16,0.06 1212.82,-1.94 1218.47,-3.94 1218.47,-3.94 1266.3,-20.9 1266.3,-20.9 1271.96,-22.9 1277.61,-30.9 1277.61,-36.9"/>
<text text-anchor="middle" x="1159" y="-55.86" font-family="Times,serif" font-size="14.00">APB Slave 3</text>
<text text-anchor="middle" x="1159" y="-40.86" font-family="Times,serif" font-size="14.00">(SPI)</text>
<text text-anchor="middle" x="1159" y="-25.86" font-family="Times,serif" font-size="14.00">@ BASE+0x30000</text>
</g>
<!-- apb_master3&#45;&gt;slave3 -->
<g id="edge22" class="edge">
<title>apb_master3&#45;&gt;slave3</title>
<path fill="none" stroke="black" stroke-width="2" d="M1060.39,-147.01C1074.53,-132.46 1092.62,-113.85 1109.44,-96.55"/>
<polygon fill="black" stroke="black" stroke-width="2" points="1112.09,-98.84 1116.55,-89.23 1107.07,-93.96 1112.09,-98.84"/>
<text text-anchor="middle" x="1118" y="-121.13" font-family="Times,serif" font-size="10.00">APB</text>
<text text-anchor="middle" x="1118" y="-110.13" font-family="Times,serif" font-size="10.00">protocol</text>
</g>
<!-- params -->
<g id="node19" class="node">
<title>params</title>
<polygon fill="lightgray" stroke="black" points="868.5,-786.81 657.5,-786.81 657.5,-672.81 874.5,-672.81 874.5,-780.81 868.5,-786.81"/>
<polyline fill="none" stroke="black" points="868.5,-786.81 868.5,-780.81 "/>
<polyline fill="none" stroke="black" points="874.5,-780.81 868.5,-780.81 "/>
<text text-anchor="middle" x="766" y="-771.61" font-family="Times,serif" font-size="14.00">Parameters</text>
<text text-anchor="middle" x="766" y="-740.61" font-family="Times,serif" font-size="14.00">NUM_MASTERS = 2</text>
<text text-anchor="middle" x="766" y="-725.61" font-family="Times,serif" font-size="14.00">NUM_SLAVES = 4</text>
<text text-anchor="middle" x="766" y="-710.61" font-family="Times,serif" font-size="14.00">ADDR_WIDTH = 32</text>
<text text-anchor="middle" x="766" y="-695.61" font-family="Times,serif" font-size="14.00">DATA_WIDTH = 32</text>
<text text-anchor="middle" x="766" y="-680.61" font-family="Times,serif" font-size="14.00">BASE_ADDR = 0x10000000</text>
</g>
<!-- params&#45;&gt;addr_decode -->
<g id="edge23" class="edge">
<title>params&#45;&gt;addr_decode</title>
<path fill="none" stroke="black" stroke-dasharray="5,2" d="M760.18,-672.56C755.82,-657.43 748.43,-642.57 736,-632.81 725.06,-624.21 624.39,-628.59 611,-624.81 571.41,-613.62 530.67,-593.27 497.37,-573.92"/>
<polygon fill="black" stroke="black" points="499.01,-570.83 488.62,-568.77 495.46,-576.86 499.01,-570.83"/>
<text text-anchor="middle" x="769" y="-641.31" font-family="Times,serif" font-size="10.00">Config</text>
</g>
<!-- leg_cmd -->
<g id="node20" class="node">
<title>leg_cmd</title>
<polygon fill="none" stroke="blue" points="1099.5,-919.62 974.5,-919.62 974.5,-883.62 1099.5,-883.62 1099.5,-919.62"/>
<text text-anchor="middle" x="1037" y="-897.92" font-family="Times,serif" font-size="14.00">Command Path</text>
</g>
<!-- leg_rsp -->
<g id="node21" class="node">
<title>leg_rsp</title>
<polygon fill="none" stroke="red" stroke-dasharray="5,2" points="956,-919.62 834,-919.62 834,-883.62 956,-883.62 956,-919.62"/>
<text text-anchor="middle" x="895" y="-897.92" font-family="Times,serif" font-size="14.00">Response Path</text>
</g>
<!-- leg_grant -->
<g id="node22" class="node">
<title>leg_grant</title>
<polygon fill="none" stroke="green" points="815.5,-919.62 674.5,-919.62 674.5,-883.62 815.5,-883.62 815.5,-919.62"/>
<text text-anchor="middle" x="745" y="-897.92" font-family="Times,serif" font-size="14.00">Grant/Arbitration</text>
</g>
</g>
</svg>
